<?xml version="1.0" standalone="no"?>
<svg width="567.429" height="546.572" viewBox="0 0 567.429 546.572" xmlns="http://www.w3.org/2000/svg" shape-rendering="crispEdges">
<title>
/home/kuanyu/Documents/CMS/Background_Estimate/fake_rate/top_emu/plot/CT_Top(emu)_JetEta_dileppT_LO_2.svg
</title>
<desc>
Creator: ROOT Version 6.26/04
CreationDate: Tue Nov 15 21:43:28 2022</desc>
<defs>
</defs>
<rect x="0.5" y="0" width="566.929" height="546.072" fill="white"/>
<rect x="6.16929" y="5.46072" width="555.591" height="262.115" fill="white"/>
<rect x="61.7283" y="8.08187" width="477.808" height="259.493" fill="white"/>
<rect x="61.7283" y="8.08187" width="477.808" height="259.493" fill="none" stroke="black"/>
<rect x="61.7283" y="8.08187" width="477.808" height="259.493" fill="white"/>
<rect x="61.7283" y="8.08187" width="477.808" height="259.493" fill="none" stroke="black"/>
<path d="M101.546,189.272v -9.28644" fill="none" stroke="#ff0000" stroke-width="2"/>
<path d="M101.546,179.986v -8.51145" fill="none" stroke="#ff0000" stroke-width="2"/>
<path d="M93.5822,179.986h 7.96346" fill="none" stroke="#ff0000" stroke-width="2"/>
<path d="M101.546,179.986h 7.96346" fill="none" stroke="#ff0000" stroke-width="2"/>
<g stroke="black" stroke-width="1" fill="none">
<line x1="100.546" y1="179.986" x2="101.546" y2="179.986"/>
</g>
<path d="M117.473,134.739v -7.81036" fill="none" stroke="#ff0000" stroke-width="2"/>
<path d="M117.473,126.929v -7.25489" fill="none" stroke="#ff0000" stroke-width="2"/>
<path d="M109.509,126.929h 7.96346" fill="none" stroke="#ff0000" stroke-width="2"/>
<path d="M117.473,126.929h 7.96346" fill="none" stroke="#ff0000" stroke-width="2"/>
<g stroke="black" stroke-width="1" fill="none">
<line x1="116.473" y1="126.929" x2="117.473" y2="126.929"/>
</g>
<path d="M133.4,135.338v -8.06971" fill="none" stroke="#ff0000" stroke-width="2"/>
<path d="M133.4,127.268v -7.47811" fill="none" stroke="#ff0000" stroke-width="2"/>
<path d="M125.436,127.268h 7.96346" fill="none" stroke="#ff0000" stroke-width="2"/>
<path d="M133.4,127.268h 7.96346" fill="none" stroke="#ff0000" stroke-width="2"/>
<g stroke="black" stroke-width="1" fill="none">
<line x1="132.4" y1="127.268" x2="133.4" y2="127.268"/>
</g>
<path d="M149.326,130.333v -7.60808" fill="none" stroke="#ff0000" stroke-width="2"/>
<path d="M149.326,122.725v -7.08005" fill="none" stroke="#ff0000" stroke-width="2"/>
<path d="M141.363,122.725h 7.96346" fill="none" stroke="#ff0000" stroke-width="2"/>
<path d="M149.326,122.725h 7.96346" fill="none" stroke="#ff0000" stroke-width="2"/>
<g stroke="black" stroke-width="1" fill="none">
<line x1="148.326" y1="122.725" x2="149.326" y2="122.725"/>
</g>
<path d="M165.253,119.714v -7.16681" fill="none" stroke="#ff0000" stroke-width="2"/>
<path d="M165.253,112.547v -6.69638" fill="none" stroke="#ff0000" stroke-width="2"/>
<path d="M157.29,112.547h 7.96346" fill="none" stroke="#ff0000" stroke-width="2"/>
<path d="M165.253,112.547h 7.96346" fill="none" stroke="#ff0000" stroke-width="2"/>
<g stroke="black" stroke-width="1" fill="none">
<line x1="164.253" y1="112.547" x2="165.253" y2="112.547"/>
</g>
<path d="M181.18,114.615v -7.35609" fill="none" stroke="#ff0000" stroke-width="2"/>
<path d="M181.18,107.259v -6.86133" fill="none" stroke="#ff0000" stroke-width="2"/>
<path d="M173.217,107.259h 7.96346" fill="none" stroke="#ff0000" stroke-width="2"/>
<path d="M181.18,107.259h 7.96346" fill="none" stroke="#ff0000" stroke-width="2"/>
<g stroke="black" stroke-width="1" fill="none">
<line x1="180.18" y1="107.259" x2="181.18" y2="107.259"/>
</g>
<path d="M197.107,97.3856v -5.89992" fill="none" stroke="#ff0000" stroke-width="2"/>
<path d="M197.107,91.4857v -5.5774" fill="none" stroke="#ff0000" stroke-width="2"/>
<path d="M189.144,91.4857h 7.96346" fill="none" stroke="#ff0000" stroke-width="2"/>
<path d="M197.107,91.4857h 7.96346" fill="none" stroke="#ff0000" stroke-width="2"/>
<g stroke="black" stroke-width="1" fill="none">
<line x1="196.107" y1="91.4857" x2="197.107" y2="91.4857"/>
</g>
<path d="M213.034,108.343v -6.68125" fill="none" stroke="#ff0000" stroke-width="2"/>
<path d="M213.034,101.661v -6.27059" fill="none" stroke="#ff0000" stroke-width="2"/>
<path d="M205.071,101.661h 7.96346" fill="none" stroke="#ff0000" stroke-width="2"/>
<path d="M213.034,101.661h 7.96346" fill="none" stroke="#ff0000" stroke-width="2"/>
<g stroke="black" stroke-width="1" fill="none">
<line x1="212.034" y1="101.661" x2="213.034" y2="101.661"/>
</g>
<path d="M228.961,96.9985v -6.24574" fill="none" stroke="#ff0000" stroke-width="2"/>
<path d="M228.961,90.7527v -5.88545" fill="none" stroke="#ff0000" stroke-width="2"/>
<path d="M220.998,90.7527h 7.96346" fill="none" stroke="#ff0000" stroke-width="2"/>
<path d="M228.961,90.7527h 7.96346" fill="none" stroke="#ff0000" stroke-width="2"/>
<g stroke="black" stroke-width="1" fill="none">
<line x1="227.961" y1="90.7527" x2="228.961" y2="90.7527"/>
</g>
<path d="M244.888,84.8347v -5.92846" fill="none" stroke="#ff0000" stroke-width="2"/>
<path d="M244.888,78.9062v -5.6029" fill="none" stroke="#ff0000" stroke-width="2"/>
<path d="M236.925,78.9062h 7.96346" fill="none" stroke="#ff0000" stroke-width="2"/>
<path d="M244.888,78.9062h 7.96346" fill="none" stroke="#ff0000" stroke-width="2"/>
<g stroke="black" stroke-width="1" fill="none">
<line x1="243.888" y1="78.9062" x2="244.888" y2="78.9062"/>
</g>
<path d="M260.815,90.2059v -6.14132" fill="none" stroke="#ff0000" stroke-width="2"/>
<path d="M260.815,84.0645v -5.79264" fill="none" stroke="#ff0000" stroke-width="2"/>
<path d="M252.852,84.0645h 7.96346" fill="none" stroke="#ff0000" stroke-width="2"/>
<path d="M260.815,84.0645h 7.96346" fill="none" stroke="#ff0000" stroke-width="2"/>
<g stroke="black" stroke-width="1" fill="none">
<line x1="259.815" y1="84.0645" x2="260.815" y2="84.0645"/>
</g>
<path d="M276.742,102.813v -6.33511" fill="none" stroke="#ff0000" stroke-width="2"/>
<path d="M276.742,96.4778v -5.96474" fill="none" stroke="#ff0000" stroke-width="2"/>
<path d="M268.778,96.4778h 7.96346" fill="none" stroke="#ff0000" stroke-width="2"/>
<path d="M276.742,96.4778h 7.96346" fill="none" stroke="#ff0000" stroke-width="2"/>
<g stroke="black" stroke-width="1" fill="none">
<line x1="275.742" y1="96.4778" x2="276.742" y2="96.4778"/>
</g>
<path d="M292.669,114.441v -6.60896" fill="none" stroke="#ff0000" stroke-width="2"/>
<path d="M292.669,107.832v -6.20688" fill="none" stroke="#ff0000" stroke-width="2"/>
<path d="M284.705,107.832h 7.96346" fill="none" stroke="#ff0000" stroke-width="2"/>
<path d="M292.669,107.832h 7.96346" fill="none" stroke="#ff0000" stroke-width="2"/>
<g stroke="black" stroke-width="1" fill="none">
<line x1="291.669" y1="107.832" x2="292.669" y2="107.832"/>
</g>
<path d="M308.596,120.827v -6.31449" fill="none" stroke="#ff0000" stroke-width="2"/>
<path d="M308.596,114.512v -5.94645" fill="none" stroke="#ff0000" stroke-width="2"/>
<path d="M300.632,114.512h 7.96346" fill="none" stroke="#ff0000" stroke-width="2"/>
<path d="M308.596,114.512h 7.96346" fill="none" stroke="#ff0000" stroke-width="2"/>
<g stroke="black" stroke-width="1" fill="none">
<line x1="307.596" y1="114.512" x2="308.596" y2="114.512"/>
</g>
<path d="M324.523,112.74v -6.6989" fill="none" stroke="#ff0000" stroke-width="2"/>
<path d="M324.523,106.041v -6.28614" fill="none" stroke="#ff0000" stroke-width="2"/>
<path d="M316.559,106.041h 7.96346" fill="none" stroke="#ff0000" stroke-width="2"/>
<path d="M324.523,106.041h 7.96346" fill="none" stroke="#ff0000" stroke-width="2"/>
<g stroke="black" stroke-width="1" fill="none">
<line x1="323.523" y1="106.041" x2="324.523" y2="106.041"/>
</g>
<path d="M340.45,86.5573v -5.98864" fill="none" stroke="#ff0000" stroke-width="2"/>
<path d="M340.45,80.5687v -5.65661" fill="none" stroke="#ff0000" stroke-width="2"/>
<path d="M332.486,80.5687h 7.96346" fill="none" stroke="#ff0000" stroke-width="2"/>
<path d="M340.45,80.5687h 7.96346" fill="none" stroke="#ff0000" stroke-width="2"/>
<g stroke="black" stroke-width="1" fill="none">
<line x1="339.45" y1="80.5687" x2="340.45" y2="80.5687"/>
</g>
<path d="M356.377,95.8703v -6.45533" fill="none" stroke="#ff0000" stroke-width="2"/>
<path d="M356.377,89.415v -6.07119" fill="none" stroke="#ff0000" stroke-width="2"/>
<path d="M348.413,89.415h 7.96346" fill="none" stroke="#ff0000" stroke-width="2"/>
<path d="M356.377,89.415h 7.96346" fill="none" stroke="#ff0000" stroke-width="2"/>
<g stroke="black" stroke-width="1" fill="none">
<line x1="355.377" y1="89.415" x2="356.377" y2="89.415"/>
</g>
<path d="M372.303,100.979v -6.38958" fill="none" stroke="#ff0000" stroke-width="2"/>
<path d="M372.303,94.5895v -6.013" fill="none" stroke="#ff0000" stroke-width="2"/>
<path d="M364.34,94.5895h 7.96346" fill="none" stroke="#ff0000" stroke-width="2"/>
<path d="M372.303,94.5895h 7.96346" fill="none" stroke="#ff0000" stroke-width="2"/>
<g stroke="black" stroke-width="1" fill="none">
<line x1="371.303" y1="94.5895" x2="372.303" y2="94.5895"/>
</g>
<path d="M388.23,106.522v -6.6081" fill="none" stroke="#ff0000" stroke-width="2"/>
<path d="M388.23,99.9136v -6.20612" fill="none" stroke="#ff0000" stroke-width="2"/>
<path d="M380.267,99.9136h 7.96346" fill="none" stroke="#ff0000" stroke-width="2"/>
<path d="M388.23,99.9136h 7.96346" fill="none" stroke="#ff0000" stroke-width="2"/>
<g stroke="black" stroke-width="1" fill="none">
<line x1="387.23" y1="99.9136" x2="388.23" y2="99.9136"/>
</g>
<path d="M404.157,96.2219v -6.2198" fill="none" stroke="#ff0000" stroke-width="2"/>
<path d="M404.157,90.0021v -5.86241" fill="none" stroke="#ff0000" stroke-width="2"/>
<path d="M396.194,90.0021h 7.96346" fill="none" stroke="#ff0000" stroke-width="2"/>
<path d="M404.157,90.0021h 7.96346" fill="none" stroke="#ff0000" stroke-width="2"/>
<g stroke="black" stroke-width="1" fill="none">
<line x1="403.157" y1="90.0021" x2="404.157" y2="90.0021"/>
</g>
<path d="M420.084,110.691v -6.62135" fill="none" stroke="#ff0000" stroke-width="2"/>
<path d="M420.084,104.069v -6.21781" fill="none" stroke="#ff0000" stroke-width="2"/>
<path d="M412.121,104.069h 7.96346" fill="none" stroke="#ff0000" stroke-width="2"/>
<path d="M420.084,104.069h 7.96346" fill="none" stroke="#ff0000" stroke-width="2"/>
<g stroke="black" stroke-width="1" fill="none">
<line x1="419.084" y1="104.069" x2="420.084" y2="104.069"/>
</g>
<path d="M436.011,116.749v -6.37386" fill="none" stroke="#ff0000" stroke-width="2"/>
<path d="M436.011,110.375v -5.99907" fill="none" stroke="#ff0000" stroke-width="2"/>
<path d="M428.048,110.375h 7.96346" fill="none" stroke="#ff0000" stroke-width="2"/>
<path d="M436.011,110.375h 7.96346" fill="none" stroke="#ff0000" stroke-width="2"/>
<g stroke="black" stroke-width="1" fill="none">
<line x1="435.011" y1="110.375" x2="436.011" y2="110.375"/>
</g>
<path d="M451.938,130.788v -7.44662" fill="none" stroke="#ff0000" stroke-width="2"/>
<path d="M451.938,123.341v -6.94002" fill="none" stroke="#ff0000" stroke-width="2"/>
<path d="M443.975,123.341h 7.96346" fill="none" stroke="#ff0000" stroke-width="2"/>
<path d="M451.938,123.341h 7.96346" fill="none" stroke="#ff0000" stroke-width="2"/>
<g stroke="black" stroke-width="1" fill="none">
<line x1="450.938" y1="123.341" x2="451.938" y2="123.341"/>
</g>
<path d="M467.865,134.58v -8.53523" fill="none" stroke="#ff0000" stroke-width="2"/>
<path d="M467.865,126.045v -7.87616" fill="none" stroke="#ff0000" stroke-width="2"/>
<path d="M459.902,126.045h 7.96346" fill="none" stroke="#ff0000" stroke-width="2"/>
<path d="M467.865,126.045h 7.96346" fill="none" stroke="#ff0000" stroke-width="2"/>
<g stroke="black" stroke-width="1" fill="none">
<line x1="466.865" y1="126.045" x2="467.865" y2="126.045"/>
</g>
<path d="M483.792,126.674v -6.89462" fill="none" stroke="#ff0000" stroke-width="2"/>
<path d="M483.792,119.779v -6.45816" fill="none" stroke="#ff0000" stroke-width="2"/>
<path d="M475.828,119.779h 7.96346" fill="none" stroke="#ff0000" stroke-width="2"/>
<path d="M483.792,119.779h 7.96346" fill="none" stroke="#ff0000" stroke-width="2"/>
<g stroke="black" stroke-width="1" fill="none">
<line x1="482.792" y1="119.779" x2="483.792" y2="119.779"/>
</g>
<path d="M499.719,196.836v -10.2125" fill="none" stroke="#ff0000" stroke-width="2"/>
<path d="M499.719,186.624v -9.28288" fill="none" stroke="#ff0000" stroke-width="2"/>
<path d="M491.755,186.624h 7.96346" fill="none" stroke="#ff0000" stroke-width="2"/>
<path d="M499.719,186.624h 7.96346" fill="none" stroke="#ff0000" stroke-width="2"/>
<g stroke="black" stroke-width="1" fill="none">
<line x1="498.719" y1="186.624" x2="499.719" y2="186.624"/>
</g>
<path d="M61.7283,267.575h 477.808" fill="none" stroke="black"/>
<path d="M61.7283,260.813v 6.76256" fill="none" stroke="black"/>
<path d="M77.6553,264.194v 3.38128" fill="none" stroke="black"/>
<path d="M93.5822,264.194v 3.38128" fill="none" stroke="black"/>
<path d="M109.509,264.194v 3.38128" fill="none" stroke="black"/>
<path d="M125.436,264.194v 3.38128" fill="none" stroke="black"/>
<path d="M141.363,260.813v 6.76256" fill="none" stroke="black"/>
<path d="M157.29,264.194v 3.38128" fill="none" stroke="black"/>
<path d="M173.217,264.194v 3.38128" fill="none" stroke="black"/>
<path d="M189.144,264.194v 3.38128" fill="none" stroke="black"/>
<path d="M205.071,264.194v 3.38128" fill="none" stroke="black"/>
<path d="M220.998,260.813v 6.76256" fill="none" stroke="black"/>
<path d="M236.925,264.194v 3.38128" fill="none" stroke="black"/>
<path d="M252.852,264.194v 3.38128" fill="none" stroke="black"/>
<path d="M268.778,264.194v 3.38128" fill="none" stroke="black"/>
<path d="M284.705,264.194v 3.38128" fill="none" stroke="black"/>
<path d="M300.632,260.813v 6.76256" fill="none" stroke="black"/>
<path d="M316.559,264.194v 3.38128" fill="none" stroke="black"/>
<path d="M332.486,264.194v 3.38128" fill="none" stroke="black"/>
<path d="M348.413,264.194v 3.38128" fill="none" stroke="black"/>
<path d="M364.34,264.194v 3.38128" fill="none" stroke="black"/>
<path d="M380.267,260.813v 6.76256" fill="none" stroke="black"/>
<path d="M396.194,264.194v 3.38128" fill="none" stroke="black"/>
<path d="M412.121,264.194v 3.38128" fill="none" stroke="black"/>
<path d="M428.048,264.194v 3.38128" fill="none" stroke="black"/>
<path d="M443.975,264.194v 3.38128" fill="none" stroke="black"/>
<path d="M459.902,260.813v 6.76256" fill="none" stroke="black"/>
<path d="M475.828,264.194v 3.38128" fill="none" stroke="black"/>
<path d="M491.755,264.194v 3.38128" fill="none" stroke="black"/>
<path d="M507.682,264.194v 3.38128" fill="none" stroke="black"/>
<path d="M523.609,264.194v 3.38128" fill="none" stroke="black"/>
<path d="M539.536,260.813v 6.76256" fill="none" stroke="black"/>
<path d="M61.7283,267.575v -259.493" fill="none" stroke="black"/>
<path d="M69.9789,266.633h -8.25052" fill="none" stroke="black"/>
<path d="M69.9789,248.026h -8.25052" fill="none" stroke="black"/>
<path d="M69.9789,232.294h -8.25052" fill="none" stroke="black"/>
<path d="M69.9789,218.666h -8.25052" fill="none" stroke="black"/>
<path d="M69.9789,206.646h -8.25052" fill="none" stroke="black"/>
<path d="M78.2294,195.893h -16.501" fill="none" stroke="black"/>
<text xml:space="preserve" x="47.9021" y="199.089" fill="black" font-size="8.91652" font-family="Helvetica">10</text>
<path d="M69.9789,125.154h -8.25052" fill="none" stroke="black"/>
<path d="M69.9789,83.7742h -8.25052" fill="none" stroke="black"/>
<path d="M69.9789,54.4147h -8.25052" fill="none" stroke="black"/>
<path d="M69.9789,31.6417h -8.25052" fill="none" stroke="black"/>
<path d="M69.9789,13.0348h -8.25052" fill="none" stroke="black"/>
<g transform="rotate(-90,23.253,52.1423)">
<text xml:space="preserve" x="23.253" y="52.1423" fill="black" font-size="14.9283" font-family="Helvetica">nEvent</text>
</g>
<path d="M101.546,152.419v -4.35041" fill="none" stroke="#006699" stroke-width="2"/>
<path d="M101.546,148.069v -4.17252" fill="none" stroke="#006699" stroke-width="2"/>
<g stroke="black" stroke-width="1" fill="none">
<line x1="100.546" y1="148.069" x2="101.546" y2="148.069"/>
</g>
<path d="M117.473,103.911v -3.10334" fill="none" stroke="#006699" stroke-width="2"/>
<path d="M117.473,100.808v -3.01176" fill="none" stroke="#006699" stroke-width="2"/>
<g stroke="black" stroke-width="1" fill="none">
<line x1="116.473" y1="100.808" x2="117.473" y2="100.808"/>
</g>
<path d="M133.4,114.398v -3.02411" fill="none" stroke="#006699" stroke-width="2"/>
<path d="M133.4,111.373v -2.93707" fill="none" stroke="#006699" stroke-width="2"/>
<g stroke="black" stroke-width="1" fill="none">
<line x1="132.4" y1="111.373" x2="133.4" y2="111.373"/>
</g>
<path d="M149.326,106.743v -2.75639" fill="none" stroke="#006699" stroke-width="2"/>
<path d="M149.326,103.987v -2.6839" fill="none" stroke="#006699" stroke-width="2"/>
<g stroke="black" stroke-width="1" fill="none">
<line x1="148.326" y1="103.987" x2="149.326" y2="103.987"/>
</g>
<path d="M165.253,99.6242v -2.58853" fill="none" stroke="#006699" stroke-width="2"/>
<path d="M165.253,97.0356v -2.52449" fill="none" stroke="#006699" stroke-width="2"/>
<g stroke="black" stroke-width="1" fill="none">
<line x1="164.253" y1="97.0356" x2="165.253" y2="97.0356"/>
</g>
<path d="M181.18,77.7195v -2.35158" fill="none" stroke="#006699" stroke-width="2"/>
<path d="M181.18,75.3679v -2.29862" fill="none" stroke="#006699" stroke-width="2"/>
<g stroke="black" stroke-width="1" fill="none">
<line x1="180.18" y1="75.3679" x2="181.18" y2="75.3679"/>
</g>
<path d="M197.107,55.3816v -2.13093" fill="none" stroke="#006699" stroke-width="2"/>
<path d="M197.107,53.2507v -2.08734" fill="none" stroke="#006699" stroke-width="2"/>
<g stroke="black" stroke-width="1" fill="none">
<line x1="196.107" y1="53.2507" x2="197.107" y2="53.2507"/>
</g>
<path d="M213.034,50.4016v -2.0385" fill="none" stroke="#006699" stroke-width="2"/>
<path d="M213.034,48.3631v -1.99857" fill="none" stroke="#006699" stroke-width="2"/>
<g stroke="black" stroke-width="1" fill="none">
<line x1="212.034" y1="48.3631" x2="213.034" y2="48.3631"/>
</g>
<path d="M228.961,48.702v -2.00008" fill="none" stroke="#006699" stroke-width="2"/>
<path d="M228.961,46.7019v -1.96163" fill="none" stroke="#006699" stroke-width="2"/>
<g stroke="black" stroke-width="1" fill="none">
<line x1="227.961" y1="46.7019" x2="228.961" y2="46.7019"/>
</g>
<path d="M244.888,48.7811v -1.92036" fill="none" stroke="#006699" stroke-width="2"/>
<path d="M244.888,46.8607v -1.88489" fill="none" stroke="#006699" stroke-width="2"/>
<g stroke="black" stroke-width="1" fill="none">
<line x1="243.888" y1="46.8607" x2="244.888" y2="46.8607"/>
</g>
<path d="M260.815,40.7462v -1.86032" fill="none" stroke="#006699" stroke-width="2"/>
<path d="M260.815,38.8858v -1.82702" fill="none" stroke="#006699" stroke-width="2"/>
<g stroke="black" stroke-width="1" fill="none">
<line x1="259.815" y1="38.8858" x2="260.815" y2="38.8858"/>
</g>
<path d="M276.742,36.1549v -1.9151" fill="none" stroke="#006699" stroke-width="2"/>
<path d="M276.742,34.2398v -1.87983" fill="none" stroke="#006699" stroke-width="2"/>
<g stroke="black" stroke-width="1" fill="none">
<line x1="275.742" y1="34.2398" x2="276.742" y2="34.2398"/>
</g>
<path d="M292.669,33.819v -1.86109" fill="none" stroke="#006699" stroke-width="2"/>
<path d="M292.669,31.9579v -1.82776" fill="none" stroke="#006699" stroke-width="2"/>
<g stroke="black" stroke-width="1" fill="none">
<line x1="291.669" y1="31.9579" x2="292.669" y2="31.9579"/>
</g>
<path d="M308.596,32.3285v -1.81905" fill="none" stroke="#006699" stroke-width="2"/>
<path d="M308.596,30.5095v -1.78719" fill="none" stroke="#006699" stroke-width="2"/>
<g stroke="black" stroke-width="1" fill="none">
<line x1="307.596" y1="30.5095" x2="308.596" y2="30.5095"/>
</g>
<path d="M324.523,38.8362v -1.88111" fill="none" stroke="#006699" stroke-width="2"/>
<path d="M324.523,36.955v -1.84707" fill="none" stroke="#006699" stroke-width="2"/>
<g stroke="black" stroke-width="1" fill="none">
<line x1="323.523" y1="36.955" x2="324.523" y2="36.955"/>
</g>
<path d="M340.45,40.4994v -1.91343" fill="none" stroke="#006699" stroke-width="2"/>
<path d="M340.45,38.586v -1.87821" fill="none" stroke="#006699" stroke-width="2"/>
<g stroke="black" stroke-width="1" fill="none">
<line x1="339.45" y1="38.586" x2="340.45" y2="38.586"/>
</g>
<path d="M356.377,48.247v -1.94665" fill="none" stroke="#006699" stroke-width="2"/>
<path d="M356.377,46.3003v -1.91022" fill="none" stroke="#006699" stroke-width="2"/>
<g stroke="black" stroke-width="1" fill="none">
<line x1="355.377" y1="46.3003" x2="356.377" y2="46.3003"/>
</g>
<path d="M372.303,48.2362v -1.94697" fill="none" stroke="#006699" stroke-width="2"/>
<path d="M372.303,46.2893v -1.91052" fill="none" stroke="#006699" stroke-width="2"/>
<g stroke="black" stroke-width="1" fill="none">
<line x1="371.303" y1="46.2893" x2="372.303" y2="46.2893"/>
</g>
<path d="M388.23,54.7595v -2.18285" fill="none" stroke="#006699" stroke-width="2"/>
<path d="M388.23,52.5767v -2.13713" fill="none" stroke="#006699" stroke-width="2"/>
<g stroke="black" stroke-width="1" fill="none">
<line x1="387.23" y1="52.5767" x2="388.23" y2="52.5767"/>
</g>
<path d="M404.157,60.6669v -2.19677" fill="none" stroke="#006699" stroke-width="2"/>
<path d="M404.157,58.4701v -2.15048" fill="none" stroke="#006699" stroke-width="2"/>
<g stroke="black" stroke-width="1" fill="none">
<line x1="403.157" y1="58.4701" x2="404.157" y2="58.4701"/>
</g>
<path d="M420.084,81.6614v -2.33925" fill="none" stroke="#006699" stroke-width="2"/>
<path d="M420.084,79.3222v -2.28683" fill="none" stroke="#006699" stroke-width="2"/>
<g stroke="black" stroke-width="1" fill="none">
<line x1="419.084" y1="79.3222" x2="420.084" y2="79.3222"/>
</g>
<path d="M436.011,100.372v -2.58091" fill="none" stroke="#006699" stroke-width="2"/>
<path d="M436.011,97.7914v -2.51725" fill="none" stroke="#006699" stroke-width="2"/>
<g stroke="black" stroke-width="1" fill="none">
<line x1="435.011" y1="97.7914" x2="436.011" y2="97.7914"/>
</g>
<path d="M451.938,108.86v -2.84719" fill="none" stroke="#006699" stroke-width="2"/>
<path d="M451.938,106.013v -2.76991" fill="none" stroke="#006699" stroke-width="2"/>
<g stroke="black" stroke-width="1" fill="none">
<line x1="450.938" y1="106.013" x2="451.938" y2="106.013"/>
</g>
<path d="M467.865,121.257v -2.9381" fill="none" stroke="#006699" stroke-width="2"/>
<path d="M467.865,118.319v -2.85588" fill="none" stroke="#006699" stroke-width="2"/>
<g stroke="black" stroke-width="1" fill="none">
<line x1="466.865" y1="118.319" x2="467.865" y2="118.319"/>
</g>
<path d="M483.792,109.051v -3.06279" fill="none" stroke="#006699" stroke-width="2"/>
<path d="M483.792,105.988v -2.97355" fill="none" stroke="#006699" stroke-width="2"/>
<g stroke="black" stroke-width="1" fill="none">
<line x1="482.792" y1="105.988" x2="483.792" y2="105.988"/>
</g>
<path d="M499.719,163.934v -4.57679" fill="none" stroke="#006699" stroke-width="2"/>
<path d="M499.719,159.357v -4.38031" fill="none" stroke="#006699" stroke-width="2"/>
<g stroke="black" stroke-width="1" fill="none">
<line x1="498.719" y1="159.357" x2="499.719" y2="159.357"/>
</g>
<path d="M61.7283,267.575h 31.8539v -119.506h 15.9269v -47.2609h 15.9269v 10.5653h 15.9269v -7.38643h 15.9269v -6.95138h 15.9269v -21.6678h 15.9269v -22.1172h 15.9269v -4.88754h 15.9269v -1.6612h 15.9269v 0.158787h 15.9269v -7.9749h 15.9269v
 -4.64602h 15.9269v -2.2819h 15.9269v -1.44845h 15.9269v 6.44559h 15.9269v 1.63095h 15.9269v 7.71433h 15.9269v -0.0110757h 15.9269v 6.2874h 15.9269v 5.89345h 15.9269v 20.8521h 15.9269v 18.4692h 15.9269v 8.22158h 15.9269v 12.3061h 15.9269v -12.3307h
 15.9269v 53.3685h 15.9269v 108.219h 31.8539" fill="none" stroke="#006699" stroke-width="2"/>
<text xml:space="preserve" x="334.211" y="164.959" fill="black" font-size="14.9283" font-family="Helvetica">True Background</text>
<path d="M293.149,161.641h 34.011" fill="none" stroke="#ff0000" stroke-width="2"/>
<path d="M310.154,177.284v -31.2854" fill="none" stroke="#ff0000" stroke-width="2"/>
<text xml:space="preserve" x="334.211" y="218.998" fill="black" font-size="14.9283" font-family="Helvetica">Predict</text>
<path d="M293.149,213.783h 34.011" fill="none" stroke="#006699" stroke-width="2"/>
<path d="M310.154,229.426v -31.2854" fill="none" stroke="#006699" stroke-width="2"/>
<rect x="6.16929" y="278.497" width="555.591" height="262.115" fill="white"/>
<rect x="60.2266" y="283.465" width="477.813" height="209.517" fill="white"/>
<rect x="60.2266" y="283.465" width="477.813" height="209.517" fill="none" stroke="black"/>
<rect x="60.2266" y="283.465" width="477.813" height="209.517" fill="white"/>
<rect x="60.2266" y="283.465" width="477.813" height="209.517" fill="none" stroke="black"/>
<path d="M100.044,361.895v -13.9962" fill="none" stroke="black" stroke-width="2"/>
<path d="M100.044,347.899v -13.9962" fill="none" stroke="black" stroke-width="2"/>
<path d="M92.0809,347.899h 7.96355" fill="none" stroke="black" stroke-width="2"/>
<path d="M100.044,347.899h 7.96355" fill="none" stroke="black" stroke-width="2"/>
<g stroke="black" stroke-width="1" fill="none">
<line x1="99.0444" y1="347.899" x2="100.044" y2="347.899"/>
</g>
<path d="M115.972,351.634v -12.2128" fill="none" stroke="black" stroke-width="2"/>
<path d="M115.972,339.421v -12.2128" fill="none" stroke="black" stroke-width="2"/>
<path d="M108.008,339.421h 7.96355" fill="none" stroke="black" stroke-width="2"/>
<path d="M115.972,339.421h 7.96355" fill="none" stroke="black" stroke-width="2"/>
<g stroke="black" stroke-width="1" fill="none">
<line x1="114.972" y1="339.421" x2="115.972" y2="339.421"/>
</g>
<path d="M131.899,337.061v -13.8241" fill="none" stroke="black" stroke-width="2"/>
<path d="M131.899,323.237v -13.8241" fill="none" stroke="black" stroke-width="2"/>
<path d="M123.935,323.237h 7.96355" fill="none" stroke="black" stroke-width="2"/>
<path d="M131.899,323.237h 7.96355" fill="none" stroke="black" stroke-width="2"/>
<g stroke="black" stroke-width="1" fill="none">
<line x1="130.899" y1="323.237" x2="131.899" y2="323.237"/>
</g>
<path d="M147.826,340.549v -12.6487" fill="none" stroke="black" stroke-width="2"/>
<path d="M147.826,327.9v -12.6487" fill="none" stroke="black" stroke-width="2"/>
<path d="M139.862,327.9h 7.96355" fill="none" stroke="black" stroke-width="2"/>
<path d="M147.826,327.9h 7.96355" fill="none" stroke="black" stroke-width="2"/>
<g stroke="black" stroke-width="1" fill="none">
<line x1="146.826" y1="327.9" x2="147.826" y2="327.9"/>
</g>
<path d="M163.753,334.916v -12.3175" fill="none" stroke="black" stroke-width="2"/>
<path d="M163.753,322.598v -12.3175" fill="none" stroke="black" stroke-width="2"/>
<path d="M155.789,322.598h 7.96355" fill="none" stroke="black" stroke-width="2"/>
<path d="M163.753,322.598h 7.96355" fill="none" stroke="black" stroke-width="2"/>
<g stroke="black" stroke-width="1" fill="none">
<line x1="162.753" y1="322.598" x2="163.753" y2="322.598"/>
</g>
<path d="M179.68,358.482v -10.6196" fill="none" stroke="black" stroke-width="2"/>
<path d="M179.68,347.863v -10.6196" fill="none" stroke="black" stroke-width="2"/>
<path d="M171.716,347.863h 7.96355" fill="none" stroke="black" stroke-width="2"/>
<path d="M179.68,347.863h 7.96355" fill="none" stroke="black" stroke-width="2"/>
<g stroke="black" stroke-width="1" fill="none">
<line x1="178.68" y1="347.863" x2="179.68" y2="347.863"/>
</g>
<path d="M195.607,364.771v -8.16219" fill="none" stroke="black" stroke-width="2"/>
<path d="M195.607,356.609v -8.16219" fill="none" stroke="black" stroke-width="2"/>
<path d="M187.643,356.609h 7.96355" fill="none" stroke="black" stroke-width="2"/>
<path d="M195.607,356.609h 7.96355" fill="none" stroke="black" stroke-width="2"/>
<g stroke="black" stroke-width="1" fill="none">
<line x1="194.607" y1="356.609" x2="195.607" y2="356.609"/>
</g>
<path d="M211.534,383.133v -7.81075" fill="none" stroke="black" stroke-width="2"/>
<path d="M211.534,375.322v -7.81075" fill="none" stroke="black" stroke-width="2"/>
<path d="M203.571,375.322h 7.96355" fill="none" stroke="black" stroke-width="2"/>
<path d="M211.534,375.322h 7.96355" fill="none" stroke="black" stroke-width="2"/>
<g stroke="black" stroke-width="1" fill="none">
<line x1="210.534" y1="375.322" x2="211.534" y2="375.322"/>
</g>
<path d="M227.461,372.208v -8.04555" fill="none" stroke="black" stroke-width="2"/>
<path d="M227.461,364.163v -8.04555" fill="none" stroke="black" stroke-width="2"/>
<path d="M219.498,364.163h 7.96355" fill="none" stroke="black" stroke-width="2"/>
<path d="M227.461,364.163h 7.96355" fill="none" stroke="black" stroke-width="2"/>
<g stroke="black" stroke-width="1" fill="none">
<line x1="226.461" y1="364.163" x2="227.461" y2="364.163"/>
</g>
<path d="M243.388,356.694v -8.61207" fill="none" stroke="black" stroke-width="2"/>
<path d="M243.388,348.082v -8.61207" fill="none" stroke="black" stroke-width="2"/>
<path d="M235.425,348.082h 7.96355" fill="none" stroke="black" stroke-width="2"/>
<path d="M243.388,348.082h 7.96355" fill="none" stroke="black" stroke-width="2"/>
<g stroke="black" stroke-width="1" fill="none">
<line x1="242.388" y1="348.082" x2="243.388" y2="348.082"/>
</g>
<path d="M259.315,373.367v -7.78831" fill="none" stroke="black" stroke-width="2"/>
<path d="M259.315,365.579v -7.78831" fill="none" stroke="black" stroke-width="2"/>
<path d="M251.352,365.579h 7.96355" fill="none" stroke="black" stroke-width="2"/>
<path d="M259.315,365.579h 7.96355" fill="none" stroke="black" stroke-width="2"/>
<g stroke="black" stroke-width="1" fill="none">
<line x1="258.315" y1="365.579" x2="259.315" y2="365.579"/>
</g>
<path d="M275.243,391.981v -6.79017" fill="none" stroke="black" stroke-width="2"/>
<path d="M275.243,385.19v -6.79017" fill="none" stroke="black" stroke-width="2"/>
<path d="M267.279,385.19h 7.96355" fill="none" stroke="black" stroke-width="2"/>
<path d="M275.243,385.19h 7.96355" fill="none" stroke="black" stroke-width="2"/>
<g stroke="black" stroke-width="1" fill="none">
<line x1="274.243" y1="385.19" x2="275.243" y2="385.19"/>
</g>
<path d="M291.17,404.827v -6.15449" fill="none" stroke="black" stroke-width="2"/>
<path d="M291.17,398.672v -6.15449" fill="none" stroke="black" stroke-width="2"/>
<path d="M283.206,398.672h 7.96355" fill="none" stroke="black" stroke-width="2"/>
<path d="M291.17,398.672h 7.96355" fill="none" stroke="black" stroke-width="2"/>
<g stroke="black" stroke-width="1" fill="none">
<line x1="290.17" y1="398.672" x2="291.17" y2="398.672"/>
</g>
<path d="M307.097,411.34v -5.44698" fill="none" stroke="black" stroke-width="2"/>
<path d="M307.097,405.893v -5.44698" fill="none" stroke="black" stroke-width="2"/>
<path d="M299.133,405.893h 7.96355" fill="none" stroke="black" stroke-width="2"/>
<path d="M307.097,405.893h 7.96355" fill="none" stroke="black" stroke-width="2"/>
<g stroke="black" stroke-width="1" fill="none">
<line x1="306.097" y1="405.893" x2="307.097" y2="405.893"/>
</g>
<path d="M323.024,398.849v -6.66313" fill="none" stroke="black" stroke-width="2"/>
<path d="M323.024,392.186v -6.66313" fill="none" stroke="black" stroke-width="2"/>
<path d="M315.06,392.186h 7.96355" fill="none" stroke="black" stroke-width="2"/>
<path d="M323.024,392.186h 7.96355" fill="none" stroke="black" stroke-width="2"/>
<g stroke="black" stroke-width="1" fill="none">
<line x1="322.024" y1="392.186" x2="323.024" y2="392.186"/>
</g>
<path d="M338.951,369.406v -7.87978" fill="none" stroke="black" stroke-width="2"/>
<path d="M338.951,361.526v -7.87978" fill="none" stroke="black" stroke-width="2"/>
<path d="M330.987,361.526h 7.96355" fill="none" stroke="black" stroke-width="2"/>
<path d="M338.951,361.526h 7.96355" fill="none" stroke="black" stroke-width="2"/>
<g stroke="black" stroke-width="1" fill="none">
<line x1="337.951" y1="361.526" x2="338.951" y2="361.526"/>
</g>
<path d="M354.878,371.314v -8.33862" fill="none" stroke="black" stroke-width="2"/>
<path d="M354.878,362.976v -8.33862" fill="none" stroke="black" stroke-width="2"/>
<path d="M346.915,362.976h 7.96355" fill="none" stroke="black" stroke-width="2"/>
<path d="M354.878,362.976h 7.96355" fill="none" stroke="black" stroke-width="2"/>
<g stroke="black" stroke-width="1" fill="none">
<line x1="353.878" y1="362.976" x2="354.878" y2="362.976"/>
</g>
<path d="M370.805,377.271v -7.85421" fill="none" stroke="black" stroke-width="2"/>
<path d="M370.805,369.417v -7.85421" fill="none" stroke="black" stroke-width="2"/>
<path d="M362.842,369.417h 7.96355" fill="none" stroke="black" stroke-width="2"/>
<path d="M370.805,369.417h 7.96355" fill="none" stroke="black" stroke-width="2"/>
<g stroke="black" stroke-width="1" fill="none">
<line x1="369.805" y1="369.417" x2="370.805" y2="369.417"/>
</g>
<path d="M386.732,376.499v -8.25428" fill="none" stroke="black" stroke-width="2"/>
<path d="M386.732,368.245v -8.25428" fill="none" stroke="black" stroke-width="2"/>
<path d="M378.769,368.245h 7.96355" fill="none" stroke="black" stroke-width="2"/>
<path d="M386.732,368.245h 7.96355" fill="none" stroke="black" stroke-width="2"/>
<g stroke="black" stroke-width="1" fill="none">
<line x1="385.732" y1="368.245" x2="386.732" y2="368.245"/>
</g>
<path d="M402.659,356.503v -9.15196" fill="none" stroke="black" stroke-width="2"/>
<path d="M402.659,347.351v -9.15196" fill="none" stroke="black" stroke-width="2"/>
<path d="M394.696,347.351h 7.96355" fill="none" stroke="black" stroke-width="2"/>
<path d="M402.659,347.351h 7.96355" fill="none" stroke="black" stroke-width="2"/>
<g stroke="black" stroke-width="1" fill="none">
<line x1="401.659" y1="347.351" x2="402.659" y2="347.351"/>
</g>
<path d="M418.587,347.734v -10.3941" fill="none" stroke="black" stroke-width="2"/>
<path d="M418.587,337.34v -10.3941" fill="none" stroke="black" stroke-width="2"/>
<path d="M410.623,337.34h 7.96355" fill="none" stroke="black" stroke-width="2"/>
<path d="M418.587,337.34h 7.96355" fill="none" stroke="black" stroke-width="2"/>
<g stroke="black" stroke-width="1" fill="none">
<line x1="417.587" y1="337.34" x2="418.587" y2="337.34"/>
</g>
<path d="M434.514,329.123v -11.4836" fill="none" stroke="black" stroke-width="2"/>
<path d="M434.514,317.64v -11.4836" fill="none" stroke="black" stroke-width="2"/>
<path d="M426.55,317.64h 7.96355" fill="none" stroke="black" stroke-width="2"/>
<path d="M434.514,317.64h 7.96355" fill="none" stroke="black" stroke-width="2"/>
<g stroke="black" stroke-width="1" fill="none">
<line x1="433.514" y1="317.64" x2="434.514" y2="317.64"/>
</g>
<path d="M450.441,338.25v -12.6463" fill="none" stroke="black" stroke-width="2"/>
<path d="M450.441,325.604v -12.6463" fill="none" stroke="black" stroke-width="2"/>
<path d="M442.477,325.604h 7.96355" fill="none" stroke="black" stroke-width="2"/>
<path d="M450.441,325.604h 7.96355" fill="none" stroke="black" stroke-width="2"/>
<g stroke="black" stroke-width="1" fill="none">
<line x1="449.441" y1="325.604" x2="450.441" y2="325.604"/>
</g>
<path d="M466.368,324.741v -15.6496" fill="none" stroke="black" stroke-width="2"/>
<path d="M466.368,309.091v -15.6496" fill="none" stroke="black" stroke-width="2"/>
<path d="M458.404,309.091h 7.96355" fill="none" stroke="black" stroke-width="2"/>
<path d="M466.368,309.091h 7.96355" fill="none" stroke="black" stroke-width="2"/>
<g stroke="black" stroke-width="1" fill="none">
<line x1="465.368" y1="309.091" x2="466.368" y2="309.091"/>
</g>
<path d="M482.295,332.126v -12.4251" fill="none" stroke="black" stroke-width="2"/>
<path d="M482.295,319.701v -12.4251" fill="none" stroke="black" stroke-width="2"/>
<path d="M474.331,319.701h 7.96355" fill="none" stroke="black" stroke-width="2"/>
<path d="M482.295,319.701h 7.96355" fill="none" stroke="black" stroke-width="2"/>
<g stroke="black" stroke-width="1" fill="none">
<line x1="481.295" y1="319.701" x2="482.295" y2="319.701"/>
</g>
<path d="M498.222,357.055v -15.9193" fill="none" stroke="black" stroke-width="2"/>
<path d="M498.222,341.136v -15.9193" fill="none" stroke="black" stroke-width="2"/>
<path d="M490.259,341.136h 7.96355" fill="none" stroke="black" stroke-width="2"/>
<path d="M498.222,341.136h 7.96355" fill="none" stroke="black" stroke-width="2"/>
<g stroke="black" stroke-width="1" fill="none">
<line x1="497.222" y1="341.136" x2="498.222" y2="341.136"/>
</g>
<path d="M62.6157,370.061l 4.77813, -0.0824201l 4.77813, -0.0824201l 4.77813, -0.0824201l 4.77813, -0.0824201l 4.77813, -0.0824201l 4.77813, -0.0824201l 4.77813, -0.0824201l 4.77813, -0.0824201l 4.77813, -0.0824201l 4.77813, -0.0824201l 4.77813,
 -0.0824201l 4.77813, -0.0824201l 4.77813, -0.0824201l 4.77813, -0.0824201l 4.77813, -0.0824201l 4.77813, -0.0824201l 4.77813, -0.0824201l 4.77813, -0.0824201l 4.77813, -0.0824201l 4.77813, -0.0824201l 4.77813, -0.0824201l 4.77813, -0.0824201l
 4.77813, -0.0824201l 4.77813, -0.0824201l 4.77813, -0.0824201l 4.77813, -0.0824201l 4.77813, -0.0824201l 4.77813, -0.0824201l 4.77813, -0.0824201l 4.77813, -0.0824201l 4.77813, -0.0824201l 4.77813, -0.0824201l 4.77813, -0.0824201l 4.77813,
 -0.0824201l 4.77813, -0.0824201l 4.77813, -0.0824201l 4.77813, -0.0824201l 4.77813, -0.0824201l 4.77813, -0.0824201l 4.77813, -0.0824201l 4.77813, -0.0824201l 4.77813, -0.0824201l 4.77813, -0.0824201l 4.77813, -0.0824201l 4.77813, -0.0824201l
 4.77813, -0.0824201l 4.77813, -0.0824201l 4.77813, -0.0824201l 4.77813, -0.0824201" fill="none" stroke="#339966" stroke-width="2"/>
<path d="M296.744,366.022l 4.77813, -0.0824201l 4.77813, -0.0824201l 4.77813, -0.0824201l 4.77813, -0.0824201l 4.77813, -0.0824201l 4.77813, -0.0824201l 4.77813, -0.0824201l 4.77813, -0.0824201l 4.77813, -0.0824201l 4.77813, -0.0824201l 4.77813,
 -0.0824201l 4.77813, -0.0824201l 4.77813, -0.0824201l 4.77813, -0.0824201l 4.77813, -0.0824201l 4.77813, -0.0824201l 4.77813, -0.0824201l 4.77813, -0.0824201l 4.77813, -0.0824201l 4.77813, -0.0824201l 4.77813, -0.0824201l 4.77813, -0.0824201l
 4.77813, -0.0824201l 4.77813, -0.0824201l 4.77813, -0.0824201l 4.77813, -0.0824201l 4.77813, -0.0824201l 4.77813, -0.0824201l 4.77813, -0.0824201l 4.77813, -0.0824201l 4.77813, -0.0824201l 4.77813, -0.0824201l 4.77813, -0.0824201l 4.77813,
 -0.0824201l 4.77813, -0.0824201l 4.77813, -0.0824201l 4.77813, -0.0824201l 4.77813, -0.0824201l 4.77813, -0.0824201l 4.77813, -0.0824201l 4.77813, -0.0824201l 4.77813, -0.0824201l 4.77813, -0.0824201l 4.77813, -0.0824201l 4.77813, -0.0824201l
 4.77813, -0.0824201l 4.77813, -0.0824201l 4.77813, -0.0824201l 4.77813, -0.0824201" fill="none" stroke="#339966" stroke-width="2"/>
<path d="M530.873,361.984l 4.77813, -0.0824201" fill="none" stroke="#339966" stroke-width="2"/>
<path d="M60.2266,492.982h 477.813" fill="none" stroke="black"/>
<path d="M60.2266,486.219v 6.76263" fill="none" stroke="black"/>
<path d="M76.1538,489.601v 3.38132" fill="none" stroke="black"/>
<path d="M92.0809,489.601v 3.38132" fill="none" stroke="black"/>
<path d="M108.008,489.601v 3.38132" fill="none" stroke="black"/>
<path d="M123.935,489.601v 3.38132" fill="none" stroke="black"/>
<path d="M139.862,486.219v 6.76263" fill="none" stroke="black"/>
<path d="M155.789,489.601v 3.38132" fill="none" stroke="black"/>
<path d="M171.716,489.601v 3.38132" fill="none" stroke="black"/>
<path d="M187.643,489.601v 3.38132" fill="none" stroke="black"/>
<path d="M203.571,489.601v 3.38132" fill="none" stroke="black"/>
<path d="M219.498,486.219v 6.76263" fill="none" stroke="black"/>
<path d="M235.425,489.601v 3.38132" fill="none" stroke="black"/>
<path d="M251.352,489.601v 3.38132" fill="none" stroke="black"/>
<path d="M267.279,489.601v 3.38132" fill="none" stroke="black"/>
<path d="M283.206,489.601v 3.38132" fill="none" stroke="black"/>
<path d="M299.133,486.219v 6.76263" fill="none" stroke="black"/>
<path d="M315.06,489.601v 3.38132" fill="none" stroke="black"/>
<path d="M330.987,489.601v 3.38132" fill="none" stroke="black"/>
<path d="M346.915,489.601v 3.38132" fill="none" stroke="black"/>
<path d="M362.842,489.601v 3.38132" fill="none" stroke="black"/>
<path d="M378.769,486.219v 6.76263" fill="none" stroke="black"/>
<path d="M394.696,489.601v 3.38132" fill="none" stroke="black"/>
<path d="M410.623,489.601v 3.38132" fill="none" stroke="black"/>
<path d="M426.55,489.601v 3.38132" fill="none" stroke="black"/>
<path d="M442.477,489.601v 3.38132" fill="none" stroke="black"/>
<path d="M458.404,486.219v 6.76263" fill="none" stroke="black"/>
<path d="M474.331,489.601v 3.38132" fill="none" stroke="black"/>
<path d="M490.259,489.601v 3.38132" fill="none" stroke="black"/>
<path d="M506.186,489.601v 3.38132" fill="none" stroke="black"/>
<path d="M522.113,489.601v 3.38132" fill="none" stroke="black"/>
<path d="M538.04,486.219v 6.76263" fill="none" stroke="black"/>
<path d="M538.04,486.219v 6.76263" fill="none" stroke="black"/>
<text xml:space="preserve" x="59.2786" y="501.514" fill="black" font-size="8.91652" font-family="Helvetica">3</text>
<text xml:space="preserve" x="55.4864" y="501.514" fill="black" font-size="8.91652" font-family="Times">&#8722;</text>
<text xml:space="preserve" x="138.914" y="501.514" fill="black" font-size="8.91652" font-family="Helvetica">2</text>
<text xml:space="preserve" x="135.122" y="501.514" fill="black" font-size="8.91652" font-family="Times">&#8722;</text>
<text xml:space="preserve" x="219.498" y="501.514" fill="black" font-size="8.91652" font-family="Helvetica">1</text>
<text xml:space="preserve" x="214.757" y="501.514" fill="black" font-size="8.91652" font-family="Times">&#8722;</text>
<text xml:space="preserve" x="296.289" y="501.514" fill="black" font-size="8.91652" font-family="Helvetica">0</text>
<text xml:space="preserve" x="376.873" y="501.514" fill="black" font-size="8.91652" font-family="Helvetica">1</text>
<text xml:space="preserve" x="455.56" y="501.514" fill="black" font-size="8.91652" font-family="Helvetica">2</text>
<text xml:space="preserve" x="535.196" y="501.514" fill="black" font-size="8.91652" font-family="Helvetica">3</text>
<text xml:space="preserve" x="530.456" y="521.423" fill="black" font-size="14.9283" font-family="Times">&#0951;</text>
<text xml:space="preserve" x="506.754" y="521.423" fill="black" font-size="14.9283" font-family="Helvetica">Jet </text>
<path d="M60.2266,283.465h 477.813" fill="none" stroke="black"/>
<path d="M60.2266,290.227v -6.76263" fill="none" stroke="black"/>
<path d="M76.1538,286.846v -3.38132" fill="none" stroke="black"/>
<path d="M92.0809,286.846v -3.38132" fill="none" stroke="black"/>
<path d="M108.008,286.846v -3.38132" fill="none" stroke="black"/>
<path d="M123.935,286.846v -3.38132" fill="none" stroke="black"/>
<path d="M139.862,290.227v -6.76263" fill="none" stroke="black"/>
<path d="M155.789,286.846v -3.38132" fill="none" stroke="black"/>
<path d="M171.716,286.846v -3.38132" fill="none" stroke="black"/>
<path d="M187.643,286.846v -3.38132" fill="none" stroke="black"/>
<path d="M203.571,286.846v -3.38132" fill="none" stroke="black"/>
<path d="M219.498,290.227v -6.76263" fill="none" stroke="black"/>
<path d="M235.425,286.846v -3.38132" fill="none" stroke="black"/>
<path d="M251.352,286.846v -3.38132" fill="none" stroke="black"/>
<path d="M267.279,286.846v -3.38132" fill="none" stroke="black"/>
<path d="M283.206,286.846v -3.38132" fill="none" stroke="black"/>
<path d="M299.133,290.227v -6.76263" fill="none" stroke="black"/>
<path d="M315.06,286.846v -3.38132" fill="none" stroke="black"/>
<path d="M330.987,286.846v -3.38132" fill="none" stroke="black"/>
<path d="M346.915,286.846v -3.38132" fill="none" stroke="black"/>
<path d="M362.842,286.846v -3.38132" fill="none" stroke="black"/>
<path d="M378.769,290.227v -6.76263" fill="none" stroke="black"/>
<path d="M394.696,286.846v -3.38132" fill="none" stroke="black"/>
<path d="M410.623,286.846v -3.38132" fill="none" stroke="black"/>
<path d="M426.55,286.846v -3.38132" fill="none" stroke="black"/>
<path d="M442.477,286.846v -3.38132" fill="none" stroke="black"/>
<path d="M458.404,290.227v -6.76263" fill="none" stroke="black"/>
<path d="M474.331,286.846v -3.38132" fill="none" stroke="black"/>
<path d="M490.259,286.846v -3.38132" fill="none" stroke="black"/>
<path d="M506.186,286.846v -3.38132" fill="none" stroke="black"/>
<path d="M522.113,286.846v -3.38132" fill="none" stroke="black"/>
<path d="M538.04,290.227v -6.76263" fill="none" stroke="black"/>
<path d="M538.04,290.227v -6.76263" fill="none" stroke="black"/>
<path d="M60.2266,492.982v -209.517" fill="none" stroke="black"/>
<path d="M73.5497,492.982h -13.3231" fill="none" stroke="black"/>
<path d="M66.8882,483.064h -6.66154" fill="none" stroke="black"/>
<path d="M66.8882,473.147h -6.66154" fill="none" stroke="black"/>
<path d="M66.8882,463.229h -6.66154" fill="none" stroke="black"/>
<path d="M73.5497,453.311h -13.3231" fill="none" stroke="black"/>
<path d="M66.8882,443.394h -6.66154" fill="none" stroke="black"/>
<path d="M66.8882,433.476h -6.66154" fill="none" stroke="black"/>
<path d="M66.8882,423.559h -6.66154" fill="none" stroke="black"/>
<path d="M73.5497,413.641h -13.3231" fill="none" stroke="black"/>
<path d="M66.8882,403.723h -6.66154" fill="none" stroke="black"/>
<path d="M66.8882,393.806h -6.66154" fill="none" stroke="black"/>
<path d="M66.8882,383.888h -6.66154" fill="none" stroke="black"/>
<path d="M73.5497,373.97h -13.3231" fill="none" stroke="black"/>
<path d="M66.8882,364.053h -6.66154" fill="none" stroke="black"/>
<path d="M66.8882,354.135h -6.66154" fill="none" stroke="black"/>
<path d="M66.8882,344.218h -6.66154" fill="none" stroke="black"/>
<path d="M73.5497,334.3h -13.3231" fill="none" stroke="black"/>
<path d="M66.8882,324.382h -6.66154" fill="none" stroke="black"/>
<path d="M66.8882,314.465h -6.66154" fill="none" stroke="black"/>
<path d="M66.8882,304.547h -6.66154" fill="none" stroke="black"/>
<path d="M73.5497,294.63h -13.3231" fill="none" stroke="black"/>
<path d="M73.5497,294.63h -13.3231" fill="none" stroke="black"/>
<path d="M66.8882,284.712h -6.66154" fill="none" stroke="black"/>
<text xml:space="preserve" x="52.6423" y="496.774" fill="black" font-size="8.91652" font-family="Helvetica">0</text>
<text xml:space="preserve" x="45.058" y="456.956" fill="black" font-size="8.91652" font-family="Helvetica">0.2</text>
<text xml:space="preserve" x="45.058" y="417.138" fill="black" font-size="8.91652" font-family="Helvetica">0.4</text>
<text xml:space="preserve" x="45.058" y="377.321" fill="black" font-size="8.91652" font-family="Helvetica">0.6</text>
<text xml:space="preserve" x="45.058" y="337.503" fill="black" font-size="8.91652" font-family="Helvetica">0.8</text>
<text xml:space="preserve" x="53.5904" y="297.685" fill="black" font-size="8.91652" font-family="Helvetica">1</text>
<g transform="rotate(-90,17.5648,464.541)">
<text xml:space="preserve" x="17.5648" y="464.541" fill="black" font-size="14.9283" font-family="Helvetica">True Background / Predicted</text>
</g>
<text xml:space="preserve" x="324.73" y="425.671" fill="black" font-size="14.9283" font-family="Helvetica">Fitting function: par0 + par1*x</text>
<text xml:space="preserve" x="337.055" y="451.268" fill="black" font-size="14.9283" font-family="Helvetica">par0 : 0.640278 +- 0.00876723</text>
<text xml:space="preserve" x="337.055" y="477.813" fill="black" font-size="14.9283" font-family="Helvetica">par1 : 0.0069254 +- 0.0076949</text></svg>
