<?xml version="1.0" standalone="no"?>
<svg width="567.429" height="546.572" viewBox="0 0 567.429 546.572" xmlns="http://www.w3.org/2000/svg" shape-rendering="crispEdges">
<title>
/home/kuanyu/Documents/CMS/Background_Estimate/fake_rate/top_emu/plot/CT_Top(emu)_bJetPt_dileppT_rg3.svg
</title>
<desc>
Creator: ROOT Version 6.26/04
CreationDate: Wed Oct 26 16:59:51 2022</desc>
<defs>
</defs>
<rect x="0.5" y="0" width="566.929" height="546.072" fill="none"/>
<rect x="6.16929" y="5.46072" width="555.591" height="262.115" fill="none"/>
<rect x="61.7283" y="8.08187" width="477.808" height="259.493" fill="none"/>
<rect x="61.7283" y="8.08187" width="477.808" height="259.493" fill="none" stroke="black"/>
<rect x="61.7283" y="8.08187" width="477.808" height="259.493" fill="none"/>
<rect x="61.7283" y="8.08187" width="477.808" height="259.493" fill="none" stroke="black"/>
<path d="M76.0626,42.1954v -2.71258" fill="none" stroke="#ff0000" stroke-width="2"/>
<path d="M76.0626,39.4828v -2.55875" fill="none" stroke="#ff0000" stroke-width="2"/>
<path d="M71.2845,39.4828h 4.77808" fill="none" stroke="#ff0000" stroke-width="2"/>
<path d="M76.0626,39.4828h 4.77808" fill="none" stroke="#ff0000" stroke-width="2"/>
<g stroke="black" stroke-width="1" fill="none">
<line x1="75.0626" y1="39.4828" x2="76.0626" y2="39.4828"/>
</g>
<path d="M85.6187,75.617v -4.14674" fill="none" stroke="#ff0000" stroke-width="2"/>
<path d="M85.6187,71.4702v -3.79758" fill="none" stroke="#ff0000" stroke-width="2"/>
<path d="M80.8407,71.4702h 4.77808" fill="none" stroke="#ff0000" stroke-width="2"/>
<path d="M85.6187,71.4702h 4.77808" fill="none" stroke="#ff0000" stroke-width="2"/>
<g stroke="black" stroke-width="1" fill="none">
<line x1="84.6187" y1="71.4702" x2="85.6187" y2="71.4702"/>
</g>
<path d="M95.1749,112.674v -5.85126" fill="none" stroke="#ff0000" stroke-width="2"/>
<path d="M95.1749,106.822v -5.17897" fill="none" stroke="#ff0000" stroke-width="2"/>
<path d="M90.3968,106.822h 4.77808" fill="none" stroke="#ff0000" stroke-width="2"/>
<path d="M95.1749,106.822h 4.77808" fill="none" stroke="#ff0000" stroke-width="2"/>
<g stroke="black" stroke-width="1" fill="none">
<line x1="94.1749" y1="106.822" x2="95.1749" y2="106.822"/>
</g>
<path d="M104.731,131.554v -8.29001" fill="none" stroke="#ff0000" stroke-width="2"/>
<path d="M104.731,123.264v -7.00096" fill="none" stroke="#ff0000" stroke-width="2"/>
<path d="M99.953,123.264h 4.77808" fill="none" stroke="#ff0000" stroke-width="2"/>
<path d="M104.731,123.264h 4.77808" fill="none" stroke="#ff0000" stroke-width="2"/>
<g stroke="black" stroke-width="1" fill="none">
<line x1="103.731" y1="123.264" x2="104.731" y2="123.264"/>
</g>
<path d="M119.065,157.015v -10.6283" fill="none" stroke="#ff0000" stroke-width="2"/>
<path d="M119.065,146.387v -8.59632" fill="none" stroke="#ff0000" stroke-width="2"/>
<path d="M109.509,146.387h 9.55616" fill="none" stroke="#ff0000" stroke-width="2"/>
<path d="M119.065,146.387h 9.55616" fill="none" stroke="#ff0000" stroke-width="2"/>
<g stroke="black" stroke-width="1" fill="none">
<line x1="118.065" y1="146.387" x2="119.065" y2="146.387"/>
</g>
<path d="M138.178,220.735v -26.9199" fill="none" stroke="#ff0000" stroke-width="2"/>
<path d="M138.178,193.815v -16.7458" fill="none" stroke="#ff0000" stroke-width="2"/>
<path d="M128.621,193.815h 9.55616" fill="none" stroke="#ff0000" stroke-width="2"/>
<path d="M138.178,193.815h 9.55616" fill="none" stroke="#ff0000" stroke-width="2"/>
<g stroke="black" stroke-width="1" fill="none">
<line x1="137.178" y1="193.815" x2="138.178" y2="193.815"/>
</g>
<path d="M189.144,267.575v -31.2823" fill="none" stroke="#ff0000" stroke-width="2"/>
<path d="M189.144,236.293v -31.2823" fill="none" stroke="#ff0000" stroke-width="2"/>
<path d="M173.217,236.293h 15.9269" fill="none" stroke="#ff0000" stroke-width="2"/>
<path d="M189.144,236.293h 15.9269" fill="none" stroke="#ff0000" stroke-width="2"/>
<g stroke="black" stroke-width="1" fill="none">
<line x1="188.144" y1="236.293" x2="189.144" y2="236.293"/>
</g>
<path d="M61.7283,267.575h 477.808" fill="none" stroke="black"/>
<path d="M61.7283,260.813v 6.76256" fill="none" stroke="black"/>
<path d="M77.6553,264.194v 3.38128" fill="none" stroke="black"/>
<path d="M93.5822,264.194v 3.38128" fill="none" stroke="black"/>
<path d="M109.509,264.194v 3.38128" fill="none" stroke="black"/>
<path d="M125.436,260.813v 6.76256" fill="none" stroke="black"/>
<path d="M141.363,264.194v 3.38128" fill="none" stroke="black"/>
<path d="M157.29,264.194v 3.38128" fill="none" stroke="black"/>
<path d="M173.217,264.194v 3.38128" fill="none" stroke="black"/>
<path d="M189.144,260.813v 6.76256" fill="none" stroke="black"/>
<path d="M205.071,264.194v 3.38128" fill="none" stroke="black"/>
<path d="M220.998,264.194v 3.38128" fill="none" stroke="black"/>
<path d="M236.925,264.194v 3.38128" fill="none" stroke="black"/>
<path d="M252.852,260.813v 6.76256" fill="none" stroke="black"/>
<path d="M268.778,264.194v 3.38128" fill="none" stroke="black"/>
<path d="M284.705,264.194v 3.38128" fill="none" stroke="black"/>
<path d="M300.632,264.194v 3.38128" fill="none" stroke="black"/>
<path d="M316.559,260.813v 6.76256" fill="none" stroke="black"/>
<path d="M332.486,264.194v 3.38128" fill="none" stroke="black"/>
<path d="M348.413,264.194v 3.38128" fill="none" stroke="black"/>
<path d="M364.34,264.194v 3.38128" fill="none" stroke="black"/>
<path d="M380.267,260.813v 6.76256" fill="none" stroke="black"/>
<path d="M396.194,264.194v 3.38128" fill="none" stroke="black"/>
<path d="M412.121,264.194v 3.38128" fill="none" stroke="black"/>
<path d="M428.048,264.194v 3.38128" fill="none" stroke="black"/>
<path d="M443.975,260.813v 6.76256" fill="none" stroke="black"/>
<path d="M459.902,264.194v 3.38128" fill="none" stroke="black"/>
<path d="M475.828,264.194v 3.38128" fill="none" stroke="black"/>
<path d="M491.755,264.194v 3.38128" fill="none" stroke="black"/>
<path d="M507.682,260.813v 6.76256" fill="none" stroke="black"/>
<path d="M507.682,260.813v 6.76256" fill="none" stroke="black"/>
<path d="M523.609,264.194v 3.38128" fill="none" stroke="black"/>
<path d="M61.7283,267.575v -259.493" fill="none" stroke="black"/>
<path d="M69.9789,263.895h -8.25052" fill="none" stroke="black"/>
<path d="M69.9789,245.596h -8.25052" fill="none" stroke="black"/>
<path d="M69.9789,232.613h -8.25052" fill="none" stroke="black"/>
<path d="M69.9789,222.542h -8.25052" fill="none" stroke="black"/>
<path d="M69.9789,214.314h -8.25052" fill="none" stroke="black"/>
<path d="M69.9789,207.357h -8.25052" fill="none" stroke="black"/>
<path d="M69.9789,201.331h -8.25052" fill="none" stroke="black"/>
<path d="M69.9789,196.015h -8.25052" fill="none" stroke="black"/>
<path d="M78.2294,191.26h -16.501" fill="none" stroke="black"/>
<text xml:space="preserve" x="53.5904" y="194.349" fill="black" font-size="8.91652" font-family="Helvetica">1</text>
<path d="M69.9789,159.978h -8.25052" fill="none" stroke="black"/>
<path d="M69.9789,141.679h -8.25052" fill="none" stroke="black"/>
<path d="M69.9789,128.696h -8.25052" fill="none" stroke="black"/>
<path d="M69.9789,118.625h -8.25052" fill="none" stroke="black"/>
<path d="M69.9789,110.397h -8.25052" fill="none" stroke="black"/>
<path d="M69.9789,103.44h -8.25052" fill="none" stroke="black"/>
<path d="M69.9789,97.4133h -8.25052" fill="none" stroke="black"/>
<path d="M69.9789,92.0977h -8.25052" fill="none" stroke="black"/>
<path d="M78.2294,87.3427h -16.501" fill="none" stroke="black"/>
<text xml:space="preserve" x="47.9021" y="91.012" fill="black" font-size="8.91652" font-family="Helvetica">10</text>
<path d="M69.9789,56.0604h -8.25052" fill="none" stroke="black"/>
<path d="M69.9789,37.7615h -8.25052" fill="none" stroke="black"/>
<path d="M69.9789,24.7782h -8.25052" fill="none" stroke="black"/>
<path d="M69.9789,14.7075h -8.25052" fill="none" stroke="black"/>
<g transform="rotate(-90,24.201,35.0776)">
<text xml:space="preserve" x="24.201" y="35.0776" fill="black" font-size="14.9283" font-family="Helvetica">nJet</text>
</g>
<path d="M76.0626,31.6702v -1.32778" fill="none" stroke="#006699" stroke-width="2"/>
<path d="M76.0626,30.3424v -1.28983" fill="none" stroke="#006699" stroke-width="2"/>
<g stroke="black" stroke-width="1" fill="none">
<line x1="75.0626" y1="30.3424" x2="76.0626" y2="30.3424"/>
</g>
<path d="M85.6187,71.9677v -1.92354" fill="none" stroke="#006699" stroke-width="2"/>
<path d="M85.6187,70.0442v -1.8449" fill="none" stroke="#006699" stroke-width="2"/>
<g stroke="black" stroke-width="1" fill="none">
<line x1="84.6187" y1="70.0442" x2="85.6187" y2="70.0442"/>
</g>
<path d="M95.1749,113.726v -2.76284" fill="none" stroke="#006699" stroke-width="2"/>
<path d="M95.1749,110.964v -2.60342" fill="none" stroke="#006699" stroke-width="2"/>
<g stroke="black" stroke-width="1" fill="none">
<line x1="94.1749" y1="110.964" x2="95.1749" y2="110.964"/>
</g>
<path d="M104.731,141.202v -4.17308" fill="none" stroke="#006699" stroke-width="2"/>
<path d="M104.731,137.029v -3.81966" fill="none" stroke="#006699" stroke-width="2"/>
<g stroke="black" stroke-width="1" fill="none">
<line x1="103.731" y1="137.029" x2="104.731" y2="137.029"/>
</g>
<path d="M119.065,156.66v -5.41873" fill="none" stroke="#006699" stroke-width="2"/>
<path d="M119.065,151.241v -4.83731" fill="none" stroke="#006699" stroke-width="2"/>
<g stroke="black" stroke-width="1" fill="none">
<line x1="118.065" y1="151.241" x2="119.065" y2="151.241"/>
</g>
<path d="M138.178,228.683v -10.6195" fill="none" stroke="#006699" stroke-width="2"/>
<path d="M138.178,218.063v -8.59056" fill="none" stroke="#006699" stroke-width="2"/>
<g stroke="black" stroke-width="1" fill="none">
<line x1="137.178" y1="218.063" x2="138.178" y2="218.063"/>
</g>
<path d="M61.7283,267.575h 9.55616v -237.233h 9.55616v 39.7018h 9.55616v 40.9194h 9.55616v 26.0653h 9.55616v 14.2122h 19.1123v 66.8219h 19.1123v 49.5123h 391.802" fill="none" stroke="#006699" stroke-width="2"/>
<text xml:space="preserve" x="353.172" y="78.6875" fill="black" font-size="14.9283" font-family="Helvetica">| &lt; 2.5</text>
<text xml:space="preserve" x="345.587" y="78.6875" fill="black" font-size="14.9283" font-family="Times">&#0951;</text>
<text xml:space="preserve" x="260.264" y="78.6875" fill="black" font-size="14.9283" font-family="Helvetica">b flavor , 2 &lt; |</text>
<text xml:space="preserve" x="303.873" y="113.765" fill="black" font-size="14.9283" font-family="Helvetica">True Background</text>
<path d="M263.477,110.307h 34.0299" fill="none" stroke="#ff0000" stroke-width="2"/>
<path d="M280.492,120.791v -20.9692" fill="none" stroke="#ff0000" stroke-width="2"/>
<text xml:space="preserve" x="303.873" y="150.739" fill="black" font-size="14.9283" font-family="Helvetica">Predict</text>
<path d="M263.477,145.255h 34.0299" fill="none" stroke="#006699" stroke-width="2"/>
<path d="M280.492,155.74v -20.9692" fill="none" stroke="#006699" stroke-width="2"/>
<rect x="6.16929" y="278.497" width="555.591" height="262.115" fill="none"/>
<rect x="61.7283" y="278.497" width="477.808" height="209.692" fill="none"/>
<rect x="61.7283" y="278.497" width="477.808" height="209.692" fill="none" stroke="black"/>
<rect x="61.7283" y="278.497" width="477.808" height="209.692" fill="none"/>
<rect x="61.7283" y="278.497" width="477.808" height="209.692" fill="none" stroke="black"/>
<path d="M76.0626,408.143v -5.57766" fill="none" stroke="black" stroke-width="2"/>
<path d="M76.0626,402.565v -5.57766" fill="none" stroke="black" stroke-width="2"/>
<path d="M71.2845,402.565h 4.77808" fill="none" stroke="black" stroke-width="2"/>
<path d="M76.0626,402.565h 4.77808" fill="none" stroke="black" stroke-width="2"/>
<g stroke="black" stroke-width="1" fill="none">
<line x1="75.0626" y1="402.565" x2="76.0626" y2="402.565"/>
</g>
<path d="M85.6187,396.478v -9.874" fill="none" stroke="black" stroke-width="2"/>
<path d="M85.6187,386.604v -9.874" fill="none" stroke="black" stroke-width="2"/>
<path d="M80.8407,386.604h 4.77808" fill="none" stroke="black" stroke-width="2"/>
<path d="M85.6187,386.604h 4.77808" fill="none" stroke="black" stroke-width="2"/>
<g stroke="black" stroke-width="1" fill="none">
<line x1="84.6187" y1="386.604" x2="85.6187" y2="386.604"/>
</g>
<path d="M95.1749,388.818v -15.5516" fill="none" stroke="black" stroke-width="2"/>
<path d="M95.1749,373.267v -15.5516" fill="none" stroke="black" stroke-width="2"/>
<path d="M90.3968,373.267h 4.77808" fill="none" stroke="black" stroke-width="2"/>
<path d="M95.1749,373.267h 4.77808" fill="none" stroke="black" stroke-width="2"/>
<g stroke="black" stroke-width="1" fill="none">
<line x1="94.1749" y1="373.267" x2="95.1749" y2="373.267"/>
</g>
<path d="M104.731,372.925v -26.972" fill="none" stroke="black" stroke-width="2"/>
<path d="M104.731,345.953v -26.972" fill="none" stroke="black" stroke-width="2"/>
<path d="M99.953,345.953h 4.77808" fill="none" stroke="black" stroke-width="2"/>
<path d="M104.731,345.953h 4.77808" fill="none" stroke="black" stroke-width="2"/>
<g stroke="black" stroke-width="1" fill="none">
<line x1="103.731" y1="345.953" x2="104.731" y2="345.953"/>
</g>
<path d="M119.065,399.268v -27.8318" fill="none" stroke="black" stroke-width="2"/>
<path d="M119.065,371.436v -27.8318" fill="none" stroke="black" stroke-width="2"/>
<path d="M109.509,371.436h 9.55616" fill="none" stroke="black" stroke-width="2"/>
<path d="M119.065,371.436h 9.55616" fill="none" stroke="black" stroke-width="2"/>
<g stroke="black" stroke-width="1" fill="none">
<line x1="118.065" y1="371.436" x2="119.065" y2="371.436"/>
</g>
<path d="M138.178,397.717v -88.9556" fill="none" stroke="black" stroke-width="2"/>
<path d="M138.178,308.762v -30.2647" fill="none" stroke="black" stroke-width="2"/>
<path d="M128.621,308.762h 9.55616" fill="none" stroke="black" stroke-width="2"/>
<path d="M138.178,308.762h 9.55616" fill="none" stroke="black" stroke-width="2"/>
<g stroke="black" stroke-width="1" fill="none">
<line x1="137.178" y1="308.762" x2="138.178" y2="308.762"/>
</g>
<path d="M64.1174,416.906l 4.77808, -6.17276l 4.77808, -6.17276l 4.77808, -6.17276l 4.77808, -6.17276l 4.77808, -6.17276l 4.77808, -6.17276l 4.77808, -6.17276l 4.77808, -6.17276l 4.77808, -6.17276l 4.77808, -6.17276l 4.77808, -6.17276l 4.77808,
 -6.17276l 4.77808, -6.17276l 4.77808, -6.17276l 4.77808, -6.17276l 4.77808, -6.17276l 4.77808, -6.17276l 4.77808, -6.17276l 4.77808, -6.17276l 4.77808, -6.17276l 4.77808, -6.17276l 4.77808, -6.17276l 2.01935, -2.60878" fill="none" stroke="#339966"
 stroke-width="2"/>
<path d="M61.7283,488.189h 477.808" fill="none" stroke="black"/>
<path d="M61.7283,481.426v 6.76256" fill="none" stroke="black"/>
<path d="M77.6553,484.807v 3.38128" fill="none" stroke="black"/>
<path d="M93.5822,484.807v 3.38128" fill="none" stroke="black"/>
<path d="M109.509,484.807v 3.38128" fill="none" stroke="black"/>
<path d="M125.436,481.426v 6.76256" fill="none" stroke="black"/>
<path d="M141.363,484.807v 3.38128" fill="none" stroke="black"/>
<path d="M157.29,484.807v 3.38128" fill="none" stroke="black"/>
<path d="M173.217,484.807v 3.38128" fill="none" stroke="black"/>
<path d="M189.144,481.426v 6.76256" fill="none" stroke="black"/>
<path d="M205.071,484.807v 3.38128" fill="none" stroke="black"/>
<path d="M220.998,484.807v 3.38128" fill="none" stroke="black"/>
<path d="M236.925,484.807v 3.38128" fill="none" stroke="black"/>
<path d="M252.852,481.426v 6.76256" fill="none" stroke="black"/>
<path d="M268.778,484.807v 3.38128" fill="none" stroke="black"/>
<path d="M284.705,484.807v 3.38128" fill="none" stroke="black"/>
<path d="M300.632,484.807v 3.38128" fill="none" stroke="black"/>
<path d="M316.559,481.426v 6.76256" fill="none" stroke="black"/>
<path d="M332.486,484.807v 3.38128" fill="none" stroke="black"/>
<path d="M348.413,484.807v 3.38128" fill="none" stroke="black"/>
<path d="M364.34,484.807v 3.38128" fill="none" stroke="black"/>
<path d="M380.267,481.426v 6.76256" fill="none" stroke="black"/>
<path d="M396.194,484.807v 3.38128" fill="none" stroke="black"/>
<path d="M412.121,484.807v 3.38128" fill="none" stroke="black"/>
<path d="M428.048,484.807v 3.38128" fill="none" stroke="black"/>
<path d="M443.975,481.426v 6.76256" fill="none" stroke="black"/>
<path d="M459.902,484.807v 3.38128" fill="none" stroke="black"/>
<path d="M475.828,484.807v 3.38128" fill="none" stroke="black"/>
<path d="M491.755,484.807v 3.38128" fill="none" stroke="black"/>
<path d="M507.682,481.426v 6.76256" fill="none" stroke="black"/>
<path d="M507.682,481.426v 6.76256" fill="none" stroke="black"/>
<path d="M523.609,484.807v 3.38128" fill="none" stroke="black"/>
<text xml:space="preserve" x="58.3306" y="496.774" fill="black" font-size="8.91652" font-family="Helvetica">0</text>
<text xml:space="preserve" x="117.109" y="496.774" fill="black" font-size="8.91652" font-family="Helvetica">200</text>
<text xml:space="preserve" x="180.628" y="496.774" fill="black" font-size="8.91652" font-family="Helvetica">400</text>
<text xml:space="preserve" x="245.095" y="496.774" fill="black" font-size="8.91652" font-family="Helvetica">600</text>
<text xml:space="preserve" x="308.614" y="496.774" fill="black" font-size="8.91652" font-family="Helvetica">800</text>
<text xml:space="preserve" x="370.236" y="496.774" fill="black" font-size="8.91652" font-family="Helvetica">1000</text>
<text xml:space="preserve" x="433.755" y="496.774" fill="black" font-size="8.91652" font-family="Helvetica">1200</text>
<text xml:space="preserve" x="497.274" y="496.774" fill="black" font-size="8.91652" font-family="Helvetica">1400</text>
<text xml:space="preserve" x="497.274" y="518.579" fill="black" font-size="14.9283" font-family="Helvetica">Jet PT</text>
<path d="M61.7283,278.497h 477.808" fill="none" stroke="black"/>
<path d="M61.7283,285.259v -6.76256" fill="none" stroke="black"/>
<path d="M77.6553,281.878v -3.38128" fill="none" stroke="black"/>
<path d="M93.5822,281.878v -3.38128" fill="none" stroke="black"/>
<path d="M109.509,281.878v -3.38128" fill="none" stroke="black"/>
<path d="M125.436,285.259v -6.76256" fill="none" stroke="black"/>
<path d="M141.363,281.878v -3.38128" fill="none" stroke="black"/>
<path d="M157.29,281.878v -3.38128" fill="none" stroke="black"/>
<path d="M173.217,281.878v -3.38128" fill="none" stroke="black"/>
<path d="M189.144,285.259v -6.76256" fill="none" stroke="black"/>
<path d="M205.071,281.878v -3.38128" fill="none" stroke="black"/>
<path d="M220.998,281.878v -3.38128" fill="none" stroke="black"/>
<path d="M236.925,281.878v -3.38128" fill="none" stroke="black"/>
<path d="M252.852,285.259v -6.76256" fill="none" stroke="black"/>
<path d="M268.778,281.878v -3.38128" fill="none" stroke="black"/>
<path d="M284.705,281.878v -3.38128" fill="none" stroke="black"/>
<path d="M300.632,281.878v -3.38128" fill="none" stroke="black"/>
<path d="M316.559,285.259v -6.76256" fill="none" stroke="black"/>
<path d="M332.486,281.878v -3.38128" fill="none" stroke="black"/>
<path d="M348.413,281.878v -3.38128" fill="none" stroke="black"/>
<path d="M364.34,281.878v -3.38128" fill="none" stroke="black"/>
<path d="M380.267,285.259v -6.76256" fill="none" stroke="black"/>
<path d="M396.194,281.878v -3.38128" fill="none" stroke="black"/>
<path d="M412.121,281.878v -3.38128" fill="none" stroke="black"/>
<path d="M428.048,281.878v -3.38128" fill="none" stroke="black"/>
<path d="M443.975,285.259v -6.76256" fill="none" stroke="black"/>
<path d="M459.902,281.878v -3.38128" fill="none" stroke="black"/>
<path d="M475.828,281.878v -3.38128" fill="none" stroke="black"/>
<path d="M491.755,281.878v -3.38128" fill="none" stroke="black"/>
<path d="M507.682,285.259v -6.76256" fill="none" stroke="black"/>
<path d="M507.682,285.259v -6.76256" fill="none" stroke="black"/>
<path d="M523.609,281.878v -3.38128" fill="none" stroke="black"/>
<path d="M61.7283,488.189v -209.692" fill="none" stroke="black"/>
<path d="M75.0625,488.189h -13.3342" fill="none" stroke="black"/>
<path d="M68.3954,482.946h -6.66709" fill="none" stroke="black"/>
<path d="M68.3954,477.704h -6.66709" fill="none" stroke="black"/>
<path d="M68.3954,472.462h -6.66709" fill="none" stroke="black"/>
<path d="M75.0625,467.219h -13.3342" fill="none" stroke="black"/>
<path d="M68.3954,461.977h -6.66709" fill="none" stroke="black"/>
<path d="M68.3954,456.735h -6.66709" fill="none" stroke="black"/>
<path d="M68.3954,451.492h -6.66709" fill="none" stroke="black"/>
<path d="M75.0625,446.25h -13.3342" fill="none" stroke="black"/>
<path d="M68.3954,441.008h -6.66709" fill="none" stroke="black"/>
<path d="M68.3954,435.766h -6.66709" fill="none" stroke="black"/>
<path d="M68.3954,430.523h -6.66709" fill="none" stroke="black"/>
<path d="M75.0625,425.281h -13.3342" fill="none" stroke="black"/>
<path d="M68.3954,420.039h -6.66709" fill="none" stroke="black"/>
<path d="M68.3954,414.796h -6.66709" fill="none" stroke="black"/>
<path d="M68.3954,409.554h -6.66709" fill="none" stroke="black"/>
<path d="M75.0625,404.312h -13.3342" fill="none" stroke="black"/>
<path d="M68.3954,399.07h -6.66709" fill="none" stroke="black"/>
<path d="M68.3954,393.827h -6.66709" fill="none" stroke="black"/>
<path d="M68.3954,388.585h -6.66709" fill="none" stroke="black"/>
<path d="M75.0625,383.343h -13.3342" fill="none" stroke="black"/>
<path d="M68.3954,378.1h -6.66709" fill="none" stroke="black"/>
<path d="M68.3954,372.858h -6.66709" fill="none" stroke="black"/>
<path d="M68.3954,367.616h -6.66709" fill="none" stroke="black"/>
<path d="M75.0625,362.374h -13.3342" fill="none" stroke="black"/>
<path d="M68.3954,357.131h -6.66709" fill="none" stroke="black"/>
<path d="M68.3954,351.889h -6.66709" fill="none" stroke="black"/>
<path d="M68.3954,346.647h -6.66709" fill="none" stroke="black"/>
<path d="M75.0625,341.404h -13.3342" fill="none" stroke="black"/>
<path d="M68.3954,336.162h -6.66709" fill="none" stroke="black"/>
<path d="M68.3954,330.92h -6.66709" fill="none" stroke="black"/>
<path d="M68.3954,325.677h -6.66709" fill="none" stroke="black"/>
<path d="M75.0625,320.435h -13.3342" fill="none" stroke="black"/>
<path d="M68.3954,315.193h -6.66709" fill="none" stroke="black"/>
<path d="M68.3954,309.951h -6.66709" fill="none" stroke="black"/>
<path d="M68.3954,304.708h -6.66709" fill="none" stroke="black"/>
<path d="M75.0625,299.466h -13.3342" fill="none" stroke="black"/>
<path d="M68.3954,294.224h -6.66709" fill="none" stroke="black"/>
<path d="M68.3954,288.981h -6.66709" fill="none" stroke="black"/>
<path d="M68.3954,283.739h -6.66709" fill="none" stroke="black"/>
<path d="M75.0625,278.497h -13.3342" fill="none" stroke="black"/>
<text xml:space="preserve" x="53.5904" y="491.086" fill="black" font-size="8.91652" font-family="Helvetica">0</text>
<text xml:space="preserve" x="46.006" y="470.229" fill="black" font-size="8.91652" font-family="Helvetica">0.2</text>
<text xml:space="preserve" x="46.006" y="449.372" fill="black" font-size="8.91652" font-family="Helvetica">0.4</text>
<text xml:space="preserve" x="46.006" y="428.515" fill="black" font-size="8.91652" font-family="Helvetica">0.6</text>
<text xml:space="preserve" x="46.006" y="407.658" fill="black" font-size="8.91652" font-family="Helvetica">0.8</text>
<text xml:space="preserve" x="54.5384" y="386.801" fill="black" font-size="8.91652" font-family="Helvetica">1</text>
<text xml:space="preserve" x="46.006" y="365.944" fill="black" font-size="8.91652" font-family="Helvetica">1.2</text>
<text xml:space="preserve" x="46.006" y="345.087" fill="black" font-size="8.91652" font-family="Helvetica">1.4</text>
<text xml:space="preserve" x="46.006" y="323.282" fill="black" font-size="8.91652" font-family="Helvetica">1.6</text>
<text xml:space="preserve" x="46.006" y="302.425" fill="black" font-size="8.91652" font-family="Helvetica">1.8</text>
<text xml:space="preserve" x="53.5904" y="281.568" fill="black" font-size="8.91652" font-family="Helvetica">2</text>
<g transform="rotate(-90,19.4608,458.852)">
<text xml:space="preserve" x="19.4608" y="458.852" fill="black" font-size="14.9283" font-family="Helvetica">True Background / Predicted</text>
</g>
<rect x="339.524" y="409.554" width="194.457" height="52.4229" fill="none" stroke="black"/>
<path d="M339.524,461.977h 194.457" fill="none" stroke="black"/>
<path d="M533.98,461.977v -52.4229" fill="none" stroke="black"/>
<path d="M533.98,409.554h -194.457" fill="none" stroke="black"/>
<path d="M339.524,409.554v 52.4229" fill="none" stroke="black"/>
<text xml:space="preserve" x="343.691" y="428.515" fill="black" font-size="14.9283" font-family="Helvetica">Fitting function</text>
<text xml:space="preserve" x="387.301" y="454.112" fill="black" font-size="14.9283" font-family="Helvetica">c0+c1*x</text>
<path d="M346.816,448.871h 34.0299" fill="none" stroke="#339966" stroke-width="2"/></svg>
