<?xml version="1.0" standalone="no"?>
<svg width="567.429" height="546.572" viewBox="0 0 567.429 546.572" xmlns="http://www.w3.org/2000/svg" shape-rendering="crispEdges">
<title>
/home/kuanyu/Documents/CMS/Background_Estimate/fake_rate/top_emu/plot/CT_Top(emu)_bJetPt_dileppT_rg1_LO.svg
</title>
<desc>
Creator: ROOT Version 6.26/04
CreationDate: Fri Nov  4 16:06:40 2022</desc>
<defs>
</defs>
<rect x="0.5" y="0" width="566.929" height="546.072" fill="white"/>
<rect x="6.16929" y="5.46072" width="555.591" height="262.115" fill="white"/>
<rect x="61.7283" y="8.08187" width="477.808" height="259.493" fill="white"/>
<rect x="61.7283" y="8.08187" width="477.808" height="259.493" fill="none" stroke="black"/>
<rect x="61.7283" y="8.08187" width="477.808" height="259.493" fill="white"/>
<rect x="61.7283" y="8.08187" width="477.808" height="259.493" fill="none" stroke="black"/>
<path d="M76.0626,186.125v -10.8078" fill="none" stroke="#ff0000" stroke-width="2"/>
<path d="M76.0626,175.317v -10.8078" fill="none" stroke="#ff0000" stroke-width="2"/>
<path d="M71.2845,175.317h 4.77808" fill="none" stroke="#ff0000" stroke-width="2"/>
<path d="M76.0626,175.317h 4.77808" fill="none" stroke="#ff0000" stroke-width="2"/>
<g stroke="black" stroke-width="1" fill="none">
<line x1="75.0626" y1="175.317" x2="76.0626" y2="175.317"/>
</g>
<path d="M85.6187,57.1114v -18.3363" fill="none" stroke="#ff0000" stroke-width="2"/>
<path d="M85.6187,38.775v -18.3363" fill="none" stroke="#ff0000" stroke-width="2"/>
<path d="M80.8407,38.775h 4.77808" fill="none" stroke="#ff0000" stroke-width="2"/>
<path d="M85.6187,38.775h 4.77808" fill="none" stroke="#ff0000" stroke-width="2"/>
<g stroke="black" stroke-width="1" fill="none">
<line x1="84.6187" y1="38.775" x2="85.6187" y2="38.775"/>
</g>
<path d="M95.1749,81.5598v -15.2387" fill="none" stroke="#ff0000" stroke-width="2"/>
<path d="M95.1749,66.321v -15.2387" fill="none" stroke="#ff0000" stroke-width="2"/>
<path d="M90.3968,66.321h 4.77808" fill="none" stroke="#ff0000" stroke-width="2"/>
<path d="M95.1749,66.321h 4.77808" fill="none" stroke="#ff0000" stroke-width="2"/>
<g stroke="black" stroke-width="1" fill="none">
<line x1="94.1749" y1="66.321" x2="95.1749" y2="66.321"/>
</g>
<path d="M104.731,122.868v -13.9491" fill="none" stroke="#ff0000" stroke-width="2"/>
<path d="M104.731,108.919v -13.9491" fill="none" stroke="#ff0000" stroke-width="2"/>
<path d="M99.953,108.919h 4.77808" fill="none" stroke="#ff0000" stroke-width="2"/>
<path d="M104.731,108.919h 4.77808" fill="none" stroke="#ff0000" stroke-width="2"/>
<g stroke="black" stroke-width="1" fill="none">
<line x1="103.731" y1="108.919" x2="104.731" y2="108.919"/>
</g>
<path d="M119.065,134.445v -14.5634" fill="none" stroke="#ff0000" stroke-width="2"/>
<path d="M119.065,119.882v -14.5634" fill="none" stroke="#ff0000" stroke-width="2"/>
<path d="M109.509,119.882h 9.55616" fill="none" stroke="#ff0000" stroke-width="2"/>
<path d="M119.065,119.882h 9.55616" fill="none" stroke="#ff0000" stroke-width="2"/>
<g stroke="black" stroke-width="1" fill="none">
<line x1="118.065" y1="119.882" x2="119.065" y2="119.882"/>
</g>
<path d="M138.178,214.525v -10.2191" fill="none" stroke="#ff0000" stroke-width="2"/>
<path d="M138.178,204.306v -10.2191" fill="none" stroke="#ff0000" stroke-width="2"/>
<path d="M128.621,204.306h 9.55616" fill="none" stroke="#ff0000" stroke-width="2"/>
<path d="M138.178,204.306h 9.55616" fill="none" stroke="#ff0000" stroke-width="2"/>
<g stroke="black" stroke-width="1" fill="none">
<line x1="137.178" y1="204.306" x2="138.178" y2="204.306"/>
</g>
<path d="M160.475,247.715v -8.1876" fill="none" stroke="#ff0000" stroke-width="2"/>
<path d="M160.475,239.527v -8.1876" fill="none" stroke="#ff0000" stroke-width="2"/>
<path d="M147.734,239.527h 12.7415" fill="none" stroke="#ff0000" stroke-width="2"/>
<path d="M160.475,239.527h 12.7415" fill="none" stroke="#ff0000" stroke-width="2"/>
<g stroke="black" stroke-width="1" fill="none">
<line x1="159.475" y1="239.527" x2="160.475" y2="239.527"/>
</g>
<path d="M189.144,265.636v -5.12087" fill="none" stroke="#ff0000" stroke-width="2"/>
<path d="M189.144,260.515v -5.12087" fill="none" stroke="#ff0000" stroke-width="2"/>
<path d="M173.217,260.515h 15.9269" fill="none" stroke="#ff0000" stroke-width="2"/>
<path d="M189.144,260.515h 15.9269" fill="none" stroke="#ff0000" stroke-width="2"/>
<g stroke="black" stroke-width="1" fill="none">
<line x1="188.144" y1="260.515" x2="189.144" y2="260.515"/>
</g>
<path d="M372.303,266.626v -5.00896" fill="none" stroke="#ff0000" stroke-width="2"/>
<path d="M372.303,261.617v -5.00896" fill="none" stroke="#ff0000" stroke-width="2"/>
<path d="M205.071,261.617h 167.233" fill="none" stroke="#ff0000" stroke-width="2"/>
<path d="M372.303,261.617h 167.233" fill="none" stroke="#ff0000" stroke-width="2"/>
<g stroke="black" stroke-width="1" fill="none">
<line x1="371.303" y1="261.617" x2="372.303" y2="261.617"/>
</g>
<path d="M61.7283,267.575h 477.808" fill="none" stroke="black"/>
<path d="M61.7283,260.813v 6.76256" fill="none" stroke="black"/>
<path d="M77.6553,264.194v 3.38128" fill="none" stroke="black"/>
<path d="M93.5822,264.194v 3.38128" fill="none" stroke="black"/>
<path d="M109.509,264.194v 3.38128" fill="none" stroke="black"/>
<path d="M125.436,260.813v 6.76256" fill="none" stroke="black"/>
<path d="M141.363,264.194v 3.38128" fill="none" stroke="black"/>
<path d="M157.29,264.194v 3.38128" fill="none" stroke="black"/>
<path d="M173.217,264.194v 3.38128" fill="none" stroke="black"/>
<path d="M189.144,260.813v 6.76256" fill="none" stroke="black"/>
<path d="M205.071,264.194v 3.38128" fill="none" stroke="black"/>
<path d="M220.998,264.194v 3.38128" fill="none" stroke="black"/>
<path d="M236.925,264.194v 3.38128" fill="none" stroke="black"/>
<path d="M252.852,260.813v 6.76256" fill="none" stroke="black"/>
<path d="M268.778,264.194v 3.38128" fill="none" stroke="black"/>
<path d="M284.705,264.194v 3.38128" fill="none" stroke="black"/>
<path d="M300.632,264.194v 3.38128" fill="none" stroke="black"/>
<path d="M316.559,260.813v 6.76256" fill="none" stroke="black"/>
<path d="M332.486,264.194v 3.38128" fill="none" stroke="black"/>
<path d="M348.413,264.194v 3.38128" fill="none" stroke="black"/>
<path d="M364.34,264.194v 3.38128" fill="none" stroke="black"/>
<path d="M380.267,260.813v 6.76256" fill="none" stroke="black"/>
<path d="M396.194,264.194v 3.38128" fill="none" stroke="black"/>
<path d="M412.121,264.194v 3.38128" fill="none" stroke="black"/>
<path d="M428.048,264.194v 3.38128" fill="none" stroke="black"/>
<path d="M443.975,260.813v 6.76256" fill="none" stroke="black"/>
<path d="M459.902,264.194v 3.38128" fill="none" stroke="black"/>
<path d="M475.828,264.194v 3.38128" fill="none" stroke="black"/>
<path d="M491.755,264.194v 3.38128" fill="none" stroke="black"/>
<path d="M507.682,260.813v 6.76256" fill="none" stroke="black"/>
<path d="M507.682,260.813v 6.76256" fill="none" stroke="black"/>
<path d="M523.609,264.194v 3.38128" fill="none" stroke="black"/>
<path d="M61.7283,267.575v -259.493" fill="none" stroke="black"/>
<path d="M78.2294,267.575h -16.501" fill="none" stroke="black"/>
<path d="M69.9789,260.937h -8.25052" fill="none" stroke="black"/>
<path d="M69.9789,254.299h -8.25052" fill="none" stroke="black"/>
<path d="M69.9789,247.661h -8.25052" fill="none" stroke="black"/>
<path d="M78.2294,241.023h -16.501" fill="none" stroke="black"/>
<path d="M69.9789,234.385h -8.25052" fill="none" stroke="black"/>
<path d="M69.9789,227.747h -8.25052" fill="none" stroke="black"/>
<path d="M69.9789,221.109h -8.25052" fill="none" stroke="black"/>
<path d="M78.2294,214.471h -16.501" fill="none" stroke="black"/>
<path d="M69.9789,207.833h -8.25052" fill="none" stroke="black"/>
<path d="M69.9789,201.195h -8.25052" fill="none" stroke="black"/>
<path d="M69.9789,194.556h -8.25052" fill="none" stroke="black"/>
<path d="M78.2294,187.918h -16.501" fill="none" stroke="black"/>
<path d="M69.9789,181.28h -8.25052" fill="none" stroke="black"/>
<path d="M69.9789,174.642h -8.25052" fill="none" stroke="black"/>
<path d="M69.9789,168.004h -8.25052" fill="none" stroke="black"/>
<path d="M78.2294,161.366h -16.501" fill="none" stroke="black"/>
<path d="M69.9789,154.728h -8.25052" fill="none" stroke="black"/>
<path d="M69.9789,148.09h -8.25052" fill="none" stroke="black"/>
<path d="M69.9789,141.452h -8.25052" fill="none" stroke="black"/>
<path d="M78.2294,134.814h -16.501" fill="none" stroke="black"/>
<path d="M69.9789,128.176h -8.25052" fill="none" stroke="black"/>
<path d="M69.9789,121.538h -8.25052" fill="none" stroke="black"/>
<path d="M69.9789,114.9h -8.25052" fill="none" stroke="black"/>
<path d="M78.2294,108.261h -16.501" fill="none" stroke="black"/>
<path d="M69.9789,101.623h -8.25052" fill="none" stroke="black"/>
<path d="M69.9789,94.9853h -8.25052" fill="none" stroke="black"/>
<path d="M69.9789,88.3472h -8.25052" fill="none" stroke="black"/>
<path d="M78.2294,81.7091h -16.501" fill="none" stroke="black"/>
<path d="M69.9789,75.071h -8.25052" fill="none" stroke="black"/>
<path d="M69.9789,68.433h -8.25052" fill="none" stroke="black"/>
<path d="M69.9789,61.7949h -8.25052" fill="none" stroke="black"/>
<path d="M78.2294,55.1568h -16.501" fill="none" stroke="black"/>
<path d="M69.9789,48.5187h -8.25052" fill="none" stroke="black"/>
<path d="M69.9789,41.8806h -8.25052" fill="none" stroke="black"/>
<path d="M69.9789,35.2426h -8.25052" fill="none" stroke="black"/>
<path d="M78.2294,28.6045h -16.501" fill="none" stroke="black"/>
<path d="M78.2294,28.6045h -16.501" fill="none" stroke="black"/>
<path d="M69.9789,21.9664h -8.25052" fill="none" stroke="black"/>
<path d="M69.9789,15.3283h -8.25052" fill="none" stroke="black"/>
<path d="M69.9789,8.69024h -8.25052" fill="none" stroke="black"/>
<text xml:space="preserve" x="53.5904" y="271.14" fill="black" font-size="8.91652" font-family="Helvetica">0</text>
<text xml:space="preserve" x="53.5904" y="244.595" fill="black" font-size="8.91652" font-family="Helvetica">2</text>
<text xml:space="preserve" x="53.5904" y="218.05" fill="black" font-size="8.91652" font-family="Helvetica">4</text>
<text xml:space="preserve" x="53.5904" y="191.504" fill="black" font-size="8.91652" font-family="Helvetica">6</text>
<text xml:space="preserve" x="53.5904" y="164.959" fill="black" font-size="8.91652" font-family="Helvetica">8</text>
<text xml:space="preserve" x="48.8501" y="138.414" fill="black" font-size="8.91652" font-family="Helvetica">10</text>
<text xml:space="preserve" x="48.8501" y="111.869" fill="black" font-size="8.91652" font-family="Helvetica">12</text>
<text xml:space="preserve" x="48.8501" y="85.3238" fill="black" font-size="8.91652" font-family="Helvetica">14</text>
<text xml:space="preserve" x="48.8501" y="58.7786" fill="black" font-size="8.91652" font-family="Helvetica">16</text>
<text xml:space="preserve" x="48.8501" y="32.2334" fill="black" font-size="8.91652" font-family="Helvetica">18</text>
<g transform="rotate(-90,23.253,52.1423)">
<text xml:space="preserve" x="23.253" y="52.1423" fill="black" font-size="14.9283" font-family="Helvetica">nEvent</text>
</g>
<path d="M76.0626,155.54v -4.86766" fill="none" stroke="#006699" stroke-width="2"/>
<path d="M76.0626,150.672v -4.86766" fill="none" stroke="#006699" stroke-width="2"/>
<g stroke="black" stroke-width="1" fill="none">
<line x1="75.0626" y1="150.672" x2="76.0626" y2="150.672"/>
</g>
<path d="M85.6187,64.5858v -5.81684" fill="none" stroke="#006699" stroke-width="2"/>
<path d="M85.6187,58.7689v -5.81684" fill="none" stroke="#006699" stroke-width="2"/>
<g stroke="black" stroke-width="1" fill="none">
<line x1="84.6187" y1="58.7689" x2="85.6187" y2="58.7689"/>
</g>
<path d="M95.1749,107.798v -4.7827" fill="none" stroke="#006699" stroke-width="2"/>
<path d="M95.1749,103.015v -4.7827" fill="none" stroke="#006699" stroke-width="2"/>
<g stroke="black" stroke-width="1" fill="none">
<line x1="94.1749" y1="103.015" x2="95.1749" y2="103.015"/>
</g>
<path d="M104.731,163.717v -3.71329" fill="none" stroke="#006699" stroke-width="2"/>
<path d="M104.731,160.004v -3.71329" fill="none" stroke="#006699" stroke-width="2"/>
<g stroke="black" stroke-width="1" fill="none">
<line x1="103.731" y1="160.004" x2="104.731" y2="160.004"/>
</g>
<path d="M119.065,172.122v -3.60356" fill="none" stroke="#006699" stroke-width="2"/>
<path d="M119.065,168.518v -3.60356" fill="none" stroke="#006699" stroke-width="2"/>
<g stroke="black" stroke-width="1" fill="none">
<line x1="118.065" y1="168.518" x2="119.065" y2="168.518"/>
</g>
<path d="M138.178,234.585v -2.99" fill="none" stroke="#006699" stroke-width="2"/>
<path d="M138.178,231.595v -2.99" fill="none" stroke="#006699" stroke-width="2"/>
<g stroke="black" stroke-width="1" fill="none">
<line x1="137.178" y1="231.595" x2="138.178" y2="231.595"/>
</g>
<path d="M160.475,255.214v -1.48524" fill="none" stroke="#006699" stroke-width="2"/>
<path d="M160.475,253.729v -1.48524" fill="none" stroke="#006699" stroke-width="2"/>
<g stroke="black" stroke-width="1" fill="none">
<line x1="159.475" y1="253.729" x2="160.475" y2="253.729"/>
</g>
<path d="M189.144,265.605v -0.539299" fill="none" stroke="#006699" stroke-width="2"/>
<path d="M189.144,265.066v -0.539299" fill="none" stroke="#006699" stroke-width="2"/>
<g stroke="black" stroke-width="1" fill="none">
<line x1="188.144" y1="265.066" x2="189.144" y2="265.066"/>
</g>
<path d="M372.303,265.152v -0.866119" fill="none" stroke="#006699" stroke-width="2"/>
<path d="M372.303,264.286v -0.866119" fill="none" stroke="#006699" stroke-width="2"/>
<g stroke="black" stroke-width="1" fill="none">
<line x1="371.303" y1="264.286" x2="372.303" y2="264.286"/>
</g>
<path d="M61.7283,267.575h 9.55616v -116.903h 9.55616v -91.903h 9.55616v 44.2464h 9.55616v 56.9886h 9.55616v 8.51403h 19.1123v 63.0769h 19.1123v 22.1341h 25.4831v 11.3367h 31.8539v -0.779983h 334.466" fill="none" stroke="#006699" stroke-width="2"/>
<text xml:space="preserve" x="339.899" y="73.9473" fill="black" font-size="14.9283" font-family="Helvetica">| &lt;= 1</text>
<text xml:space="preserve" x="332.315" y="73.9473" fill="black" font-size="14.9283" font-family="Times">&#0951;</text>
<text xml:space="preserve" x="270.692" y="73.9473" fill="black" font-size="14.9283" font-family="Helvetica">b flavor , |</text>
<text xml:space="preserve" x="314.302" y="109.025" fill="black" font-size="14.9283" font-family="Helvetica">True Background</text>
<path d="M273.24,105.233h 34.011" fill="none" stroke="#ff0000" stroke-width="2"/>
<path d="M290.245,115.661v -20.8569" fill="none" stroke="#ff0000" stroke-width="2"/>
<text xml:space="preserve" x="314.302" y="145.05" fill="black" font-size="14.9283" font-family="Helvetica">Predict</text>
<path d="M273.24,139.994h 34.011" fill="none" stroke="#006699" stroke-width="2"/>
<path d="M290.245,150.423v -20.8569" fill="none" stroke="#006699" stroke-width="2"/>
<rect x="6.16929" y="278.497" width="555.591" height="262.115" fill="white"/>
<rect x="61.7283" y="278.497" width="477.808" height="209.692" fill="white"/>
<rect x="61.7283" y="278.497" width="477.808" height="209.692" fill="none" stroke="black"/>
<rect x="61.7283" y="278.497" width="477.808" height="209.692" fill="white"/>
<rect x="61.7283" y="278.497" width="477.808" height="209.692" fill="none" stroke="black"/>
<path d="M76.0626,460.258v -3.96557" fill="none" stroke="black" stroke-width="2"/>
<path d="M76.0626,456.292v -3.96557" fill="none" stroke="black" stroke-width="2"/>
<path d="M71.2845,456.292h 4.77808" fill="none" stroke="black" stroke-width="2"/>
<path d="M76.0626,456.292h 4.77808" fill="none" stroke="black" stroke-width="2"/>
<g stroke="black" stroke-width="1" fill="none">
<line x1="75.0626" y1="456.292" x2="76.0626" y2="456.292"/>
</g>
<path d="M85.6187,447.659v -3.7575" fill="none" stroke="black" stroke-width="2"/>
<path d="M85.6187,443.902v -3.7575" fill="none" stroke="black" stroke-width="2"/>
<path d="M80.8407,443.902h 4.77808" fill="none" stroke="black" stroke-width="2"/>
<path d="M85.6187,443.902h 4.77808" fill="none" stroke="black" stroke-width="2"/>
<g stroke="black" stroke-width="1" fill="none">
<line x1="84.6187" y1="443.902" x2="85.6187" y2="443.902"/>
</g>
<path d="M95.1749,442.769v -4.00893" fill="none" stroke="black" stroke-width="2"/>
<path d="M95.1749,438.76v -4.00893" fill="none" stroke="black" stroke-width="2"/>
<path d="M90.3968,438.76h 4.77808" fill="none" stroke="black" stroke-width="2"/>
<path d="M95.1749,438.76h 4.77808" fill="none" stroke="black" stroke-width="2"/>
<g stroke="black" stroke-width="1" fill="none">
<line x1="94.1749" y1="438.76" x2="95.1749" y2="438.76"/>
</g>
<path d="M104.731,434.208v -5.63042" fill="none" stroke="black" stroke-width="2"/>
<path d="M104.731,428.578v -5.63042" fill="none" stroke="black" stroke-width="2"/>
<path d="M99.953,428.578h 4.77808" fill="none" stroke="black" stroke-width="2"/>
<path d="M104.731,428.578h 4.77808" fill="none" stroke="black" stroke-width="2"/>
<g stroke="black" stroke-width="1" fill="none">
<line x1="103.731" y1="428.578" x2="104.731" y2="428.578"/>
</g>
<path d="M119.065,434.261v -6.33355" fill="none" stroke="black" stroke-width="2"/>
<path d="M119.065,427.928v -6.33355" fill="none" stroke="black" stroke-width="2"/>
<path d="M109.509,427.928h 9.55616" fill="none" stroke="black" stroke-width="2"/>
<path d="M119.065,427.928h 9.55616" fill="none" stroke="black" stroke-width="2"/>
<g stroke="black" stroke-width="1" fill="none">
<line x1="118.065" y1="427.928" x2="119.065" y2="427.928"/>
</g>
<path d="M138.178,430.027v -12.9093" fill="none" stroke="black" stroke-width="2"/>
<path d="M138.178,417.118v -12.9093" fill="none" stroke="black" stroke-width="2"/>
<path d="M128.621,417.118h 9.55616" fill="none" stroke="black" stroke-width="2"/>
<path d="M138.178,417.118h 9.55616" fill="none" stroke="black" stroke-width="2"/>
<g stroke="black" stroke-width="1" fill="none">
<line x1="137.178" y1="417.118" x2="138.178" y2="417.118"/>
</g>
<path d="M160.475,431.779v -25.4614" fill="none" stroke="black" stroke-width="2"/>
<path d="M160.475,406.318v -25.4614" fill="none" stroke="black" stroke-width="2"/>
<path d="M147.734,406.318h 12.7415" fill="none" stroke="black" stroke-width="2"/>
<path d="M160.475,406.318h 12.7415" fill="none" stroke="black" stroke-width="2"/>
<g stroke="black" stroke-width="1" fill="none">
<line x1="159.475" y1="406.318" x2="160.475" y2="406.318"/>
</g>
<path d="M189.144,460.504v -86.011" fill="none" stroke="black" stroke-width="2"/>
<path d="M189.144,374.493v -86.011" fill="none" stroke="black" stroke-width="2"/>
<path d="M173.217,374.493h 15.9269" fill="none" stroke="black" stroke-width="2"/>
<path d="M189.144,374.493h 15.9269" fill="none" stroke="black" stroke-width="2"/>
<g stroke="black" stroke-width="1" fill="none">
<line x1="188.144" y1="374.493" x2="189.144" y2="374.493"/>
</g>
<path d="M372.303,479.468v -64.4877" fill="none" stroke="black" stroke-width="2"/>
<path d="M372.303,414.98v -64.4877" fill="none" stroke="black" stroke-width="2"/>
<path d="M205.071,414.98h 167.233" fill="none" stroke="black" stroke-width="2"/>
<path d="M372.303,414.98h 167.233" fill="none" stroke="black" stroke-width="2"/>
<g stroke="black" stroke-width="1" fill="none">
<line x1="371.303" y1="414.98" x2="372.303" y2="414.98"/>
</g>
<path d="M64.1174,456.787l 4.77808, -2.53918l 4.77808, -2.53918l 4.77808, -2.53918l 4.77808, -2.53918l 4.77808, -2.53918l 4.77808, -2.53918l 4.77808, -2.53918l 4.77808, -2.53918l 4.77808, -2.53918l 4.77808, -2.53918l 4.77808, -2.53918l 4.77808,
 -2.53918l 4.77808, -2.53918l 4.77808, -2.53918l 4.77808, -2.53918l 4.77808, -2.53918l 4.77808, -2.53918l 4.77808, -2.53918l 4.77808, -2.53918l 4.77808, -2.53918l 4.77808, -2.53918l 4.77808, -2.53918l 4.77808, -2.53918l 4.77808, -2.53918l 4.77808,
 -2.53918l 4.77808, -2.53918l 4.77808, -2.53918l 4.77808, -2.53918l 4.77808, -2.53918l 4.77808, -2.53918l 4.77808, -2.53918l 4.77808, -2.53918l 4.77808, -2.53918l 4.77808, -2.53918l 4.77808, -2.53918l 4.77808, -2.53918l 4.77808, -2.53918l 4.77808,
 -2.53918l 4.77808, -2.53918l 4.77808, -2.53918l 4.77808, -2.53918l 4.77808, -2.53918l 4.77808, -2.53918l 4.77808, -2.53918l 4.77808, -2.53918l 4.77808, -2.53918l 4.77808, -2.53918l 4.77808, -2.53918l 4.77808, -2.53918" fill="none" stroke="#339966"
 stroke-width="2"/>
<path d="M298.243,332.368l 4.77808, -2.53918l 4.77808, -2.53918l 4.77808, -2.53918l 4.77808, -2.53918l 4.77808, -2.53918l 4.77808, -2.53918l 4.77808, -2.53918l 4.77808, -2.53918l 4.77808, -2.53918l 4.77808, -2.53918l 4.77808, -2.53918l 4.77808,
 -2.53918l 4.77808, -2.53918l 4.77808, -2.53918l 4.77808, -2.53918l 4.77808, -2.53918l 4.77808, -2.53918l 4.77808, -2.53918l 4.77808, -2.53918l 4.77808, -2.53918l 4.77808, -2.53918l 1.0316, -0.548214" fill="none" stroke="#339966" stroke-width="2"/>
<path d="M61.7283,488.189h 477.808" fill="none" stroke="black"/>
<path d="M61.7283,481.426v 6.76256" fill="none" stroke="black"/>
<path d="M77.6553,484.807v 3.38128" fill="none" stroke="black"/>
<path d="M93.5822,484.807v 3.38128" fill="none" stroke="black"/>
<path d="M109.509,484.807v 3.38128" fill="none" stroke="black"/>
<path d="M125.436,481.426v 6.76256" fill="none" stroke="black"/>
<path d="M141.363,484.807v 3.38128" fill="none" stroke="black"/>
<path d="M157.29,484.807v 3.38128" fill="none" stroke="black"/>
<path d="M173.217,484.807v 3.38128" fill="none" stroke="black"/>
<path d="M189.144,481.426v 6.76256" fill="none" stroke="black"/>
<path d="M205.071,484.807v 3.38128" fill="none" stroke="black"/>
<path d="M220.998,484.807v 3.38128" fill="none" stroke="black"/>
<path d="M236.925,484.807v 3.38128" fill="none" stroke="black"/>
<path d="M252.852,481.426v 6.76256" fill="none" stroke="black"/>
<path d="M268.778,484.807v 3.38128" fill="none" stroke="black"/>
<path d="M284.705,484.807v 3.38128" fill="none" stroke="black"/>
<path d="M300.632,484.807v 3.38128" fill="none" stroke="black"/>
<path d="M316.559,481.426v 6.76256" fill="none" stroke="black"/>
<path d="M332.486,484.807v 3.38128" fill="none" stroke="black"/>
<path d="M348.413,484.807v 3.38128" fill="none" stroke="black"/>
<path d="M364.34,484.807v 3.38128" fill="none" stroke="black"/>
<path d="M380.267,481.426v 6.76256" fill="none" stroke="black"/>
<path d="M396.194,484.807v 3.38128" fill="none" stroke="black"/>
<path d="M412.121,484.807v 3.38128" fill="none" stroke="black"/>
<path d="M428.048,484.807v 3.38128" fill="none" stroke="black"/>
<path d="M443.975,481.426v 6.76256" fill="none" stroke="black"/>
<path d="M459.902,484.807v 3.38128" fill="none" stroke="black"/>
<path d="M475.828,484.807v 3.38128" fill="none" stroke="black"/>
<path d="M491.755,484.807v 3.38128" fill="none" stroke="black"/>
<path d="M507.682,481.426v 6.76256" fill="none" stroke="black"/>
<path d="M507.682,481.426v 6.76256" fill="none" stroke="black"/>
<path d="M523.609,484.807v 3.38128" fill="none" stroke="black"/>
<text xml:space="preserve" x="58.3306" y="496.774" fill="black" font-size="8.91652" font-family="Helvetica">0</text>
<text xml:space="preserve" x="117.109" y="496.774" fill="black" font-size="8.91652" font-family="Helvetica">200</text>
<text xml:space="preserve" x="180.628" y="496.774" fill="black" font-size="8.91652" font-family="Helvetica">400</text>
<text xml:space="preserve" x="245.095" y="496.774" fill="black" font-size="8.91652" font-family="Helvetica">600</text>
<text xml:space="preserve" x="308.614" y="496.774" fill="black" font-size="8.91652" font-family="Helvetica">800</text>
<text xml:space="preserve" x="370.236" y="496.774" fill="black" font-size="8.91652" font-family="Helvetica">1000</text>
<text xml:space="preserve" x="433.755" y="496.774" fill="black" font-size="8.91652" font-family="Helvetica">1200</text>
<text xml:space="preserve" x="497.274" y="496.774" fill="black" font-size="8.91652" font-family="Helvetica">1400</text>
<text xml:space="preserve" x="497.274" y="518.579" fill="black" font-size="14.9283" font-family="Helvetica">Jet PT</text>
<path d="M61.7283,278.497h 477.808" fill="none" stroke="black"/>
<path d="M61.7283,285.259v -6.76256" fill="none" stroke="black"/>
<path d="M77.6553,281.878v -3.38128" fill="none" stroke="black"/>
<path d="M93.5822,281.878v -3.38128" fill="none" stroke="black"/>
<path d="M109.509,281.878v -3.38128" fill="none" stroke="black"/>
<path d="M125.436,285.259v -6.76256" fill="none" stroke="black"/>
<path d="M141.363,281.878v -3.38128" fill="none" stroke="black"/>
<path d="M157.29,281.878v -3.38128" fill="none" stroke="black"/>
<path d="M173.217,281.878v -3.38128" fill="none" stroke="black"/>
<path d="M189.144,285.259v -6.76256" fill="none" stroke="black"/>
<path d="M205.071,281.878v -3.38128" fill="none" stroke="black"/>
<path d="M220.998,281.878v -3.38128" fill="none" stroke="black"/>
<path d="M236.925,281.878v -3.38128" fill="none" stroke="black"/>
<path d="M252.852,285.259v -6.76256" fill="none" stroke="black"/>
<path d="M268.778,281.878v -3.38128" fill="none" stroke="black"/>
<path d="M284.705,281.878v -3.38128" fill="none" stroke="black"/>
<path d="M300.632,281.878v -3.38128" fill="none" stroke="black"/>
<path d="M316.559,285.259v -6.76256" fill="none" stroke="black"/>
<path d="M332.486,281.878v -3.38128" fill="none" stroke="black"/>
<path d="M348.413,281.878v -3.38128" fill="none" stroke="black"/>
<path d="M364.34,281.878v -3.38128" fill="none" stroke="black"/>
<path d="M380.267,285.259v -6.76256" fill="none" stroke="black"/>
<path d="M396.194,281.878v -3.38128" fill="none" stroke="black"/>
<path d="M412.121,281.878v -3.38128" fill="none" stroke="black"/>
<path d="M428.048,281.878v -3.38128" fill="none" stroke="black"/>
<path d="M443.975,285.259v -6.76256" fill="none" stroke="black"/>
<path d="M459.902,281.878v -3.38128" fill="none" stroke="black"/>
<path d="M475.828,281.878v -3.38128" fill="none" stroke="black"/>
<path d="M491.755,281.878v -3.38128" fill="none" stroke="black"/>
<path d="M507.682,285.259v -6.76256" fill="none" stroke="black"/>
<path d="M507.682,285.259v -6.76256" fill="none" stroke="black"/>
<path d="M523.609,281.878v -3.38128" fill="none" stroke="black"/>
<path d="M61.7283,488.189v -209.692" fill="none" stroke="black"/>
<path d="M75.0625,488.189h -13.3342" fill="none" stroke="black"/>
<path d="M68.3954,480.105h -6.66709" fill="none" stroke="black"/>
<path d="M68.3954,472.022h -6.66709" fill="none" stroke="black"/>
<path d="M68.3954,463.939h -6.66709" fill="none" stroke="black"/>
<path d="M68.3954,455.855h -6.66709" fill="none" stroke="black"/>
<path d="M75.0625,447.772h -13.3342" fill="none" stroke="black"/>
<path d="M68.3954,439.689h -6.66709" fill="none" stroke="black"/>
<path d="M68.3954,431.605h -6.66709" fill="none" stroke="black"/>
<path d="M68.3954,423.522h -6.66709" fill="none" stroke="black"/>
<path d="M68.3954,415.439h -6.66709" fill="none" stroke="black"/>
<path d="M75.0625,407.355h -13.3342" fill="none" stroke="black"/>
<path d="M68.3954,399.272h -6.66709" fill="none" stroke="black"/>
<path d="M68.3954,391.189h -6.66709" fill="none" stroke="black"/>
<path d="M68.3954,383.105h -6.66709" fill="none" stroke="black"/>
<path d="M68.3954,375.022h -6.66709" fill="none" stroke="black"/>
<path d="M75.0625,366.939h -13.3342" fill="none" stroke="black"/>
<path d="M68.3954,358.855h -6.66709" fill="none" stroke="black"/>
<path d="M68.3954,350.772h -6.66709" fill="none" stroke="black"/>
<path d="M68.3954,342.689h -6.66709" fill="none" stroke="black"/>
<path d="M68.3954,334.605h -6.66709" fill="none" stroke="black"/>
<path d="M75.0625,326.522h -13.3342" fill="none" stroke="black"/>
<path d="M68.3954,318.439h -6.66709" fill="none" stroke="black"/>
<path d="M68.3954,310.355h -6.66709" fill="none" stroke="black"/>
<path d="M68.3954,302.272h -6.66709" fill="none" stroke="black"/>
<path d="M68.3954,294.189h -6.66709" fill="none" stroke="black"/>
<path d="M75.0625,286.105h -13.3342" fill="none" stroke="black"/>
<path d="M75.0625,286.105h -13.3342" fill="none" stroke="black"/>
<text xml:space="preserve" x="53.5904" y="491.086" fill="black" font-size="8.91652" font-family="Helvetica">0</text>
<text xml:space="preserve" x="54.5384" y="451.268" fill="black" font-size="8.91652" font-family="Helvetica">1</text>
<text xml:space="preserve" x="53.5904" y="410.502" fill="black" font-size="8.91652" font-family="Helvetica">2</text>
<text xml:space="preserve" x="53.5904" y="370.684" fill="black" font-size="8.91652" font-family="Helvetica">3</text>
<text xml:space="preserve" x="53.5904" y="329.919" fill="black" font-size="8.91652" font-family="Helvetica">4</text>
<text xml:space="preserve" x="53.5904" y="289.153" fill="black" font-size="8.91652" font-family="Helvetica">5</text>
<g transform="rotate(-90,27.0452,458.852)">
<text xml:space="preserve" x="27.0452" y="458.852" fill="black" font-size="14.9283" font-family="Helvetica">True Background / Predicted</text>
</g>
<text xml:space="preserve" x="327.574" y="329.919" fill="black" font-size="14.9283" font-family="Helvetica">Fitting function</text>
<text xml:space="preserve" x="371.184" y="371.632" fill="black" font-size="14.9283" font-family="Helvetica">0.745525 + 0.004188*x</text>
<path d="M330.122,366.181h 34.011" fill="none" stroke="#339966" stroke-width="2"/></svg>
