<?xml version="1.0" standalone="no"?>
<svg width="567.429" height="546.572" viewBox="0 0 567.429 546.572" xmlns="http://www.w3.org/2000/svg" shape-rendering="crispEdges">
<title>
/home/kuanyu/Documents/CMS/Background_Estimate/fake_rate/top_emu/plot/CT_Top(emu)_bJetEta_dileppT_LO.svg
</title>
<desc>
Creator: ROOT Version 6.26/04
CreationDate: Fri Nov  4 16:18:38 2022</desc>
<defs>
</defs>
<rect x="0.5" y="0" width="566.929" height="546.072" fill="white"/>
<rect x="6.16929" y="5.46072" width="555.591" height="262.115" fill="white"/>
<rect x="61.7283" y="8.08187" width="477.808" height="259.493" fill="white"/>
<rect x="61.7283" y="8.08187" width="477.808" height="259.493" fill="none" stroke="black"/>
<rect x="61.7283" y="8.08187" width="477.808" height="259.493" fill="white"/>
<rect x="61.7283" y="8.08187" width="477.808" height="259.493" fill="none" stroke="black"/>
<path d="M101.546,227.789v -24.5147" fill="none" stroke="#ff0000" stroke-width="2"/>
<path d="M101.546,203.274v -17.1235" fill="none" stroke="#ff0000" stroke-width="2"/>
<path d="M93.5822,203.274h 7.96346" fill="none" stroke="#ff0000" stroke-width="2"/>
<path d="M101.546,203.274h 7.96346" fill="none" stroke="#ff0000" stroke-width="2"/>
<g stroke="black" stroke-width="1" fill="none">
<line x1="100.546" y1="203.274" x2="101.546" y2="203.274"/>
</g>
<path d="M117.473,119.367v -11.3713" fill="none" stroke="#ff0000" stroke-width="2"/>
<path d="M117.473,107.996v -9.48677" fill="none" stroke="#ff0000" stroke-width="2"/>
<path d="M109.509,107.996h 7.96346" fill="none" stroke="#ff0000" stroke-width="2"/>
<path d="M117.473,107.996h 7.96346" fill="none" stroke="#ff0000" stroke-width="2"/>
<g stroke="black" stroke-width="1" fill="none">
<line x1="116.473" y1="107.996" x2="117.473" y2="107.996"/>
</g>
<path d="M133.4,111.518v -11.659" fill="none" stroke="#ff0000" stroke-width="2"/>
<path d="M133.4,99.8587v -9.68594" fill="none" stroke="#ff0000" stroke-width="2"/>
<path d="M125.436,99.8587h 7.96346" fill="none" stroke="#ff0000" stroke-width="2"/>
<path d="M133.4,99.8587h 7.96346" fill="none" stroke="#ff0000" stroke-width="2"/>
<g stroke="black" stroke-width="1" fill="none">
<line x1="132.4" y1="99.8587" x2="133.4" y2="99.8587"/>
</g>
<path d="M149.326,110.944v -10.3962" fill="none" stroke="#ff0000" stroke-width="2"/>
<path d="M149.326,100.548v -8.79889" fill="none" stroke="#ff0000" stroke-width="2"/>
<path d="M141.363,100.548h 7.96346" fill="none" stroke="#ff0000" stroke-width="2"/>
<path d="M149.326,100.548h 7.96346" fill="none" stroke="#ff0000" stroke-width="2"/>
<g stroke="black" stroke-width="1" fill="none">
<line x1="148.326" y1="100.548" x2="149.326" y2="100.548"/>
</g>
<path d="M165.253,85.7703v -8.68638" fill="none" stroke="#ff0000" stroke-width="2"/>
<path d="M165.253,77.0839v -7.543" fill="none" stroke="#ff0000" stroke-width="2"/>
<path d="M157.29,77.0839h 7.96346" fill="none" stroke="#ff0000" stroke-width="2"/>
<path d="M165.253,77.0839h 7.96346" fill="none" stroke="#ff0000" stroke-width="2"/>
<g stroke="black" stroke-width="1" fill="none">
<line x1="164.253" y1="77.0839" x2="165.253" y2="77.0839"/>
</g>
<path d="M181.18,81.6674v -8.87333" fill="none" stroke="#ff0000" stroke-width="2"/>
<path d="M181.18,72.7941v -7.68351" fill="none" stroke="#ff0000" stroke-width="2"/>
<path d="M173.217,72.7941h 7.96346" fill="none" stroke="#ff0000" stroke-width="2"/>
<path d="M181.18,72.7941h 7.96346" fill="none" stroke="#ff0000" stroke-width="2"/>
<g stroke="black" stroke-width="1" fill="none">
<line x1="180.18" y1="72.7941" x2="181.18" y2="72.7941"/>
</g>
<path d="M197.107,66.9568v -6.1237" fill="none" stroke="#ff0000" stroke-width="2"/>
<path d="M197.107,60.8331v -5.53292" fill="none" stroke="#ff0000" stroke-width="2"/>
<path d="M189.144,60.8331h 7.96346" fill="none" stroke="#ff0000" stroke-width="2"/>
<path d="M197.107,60.8331h 7.96346" fill="none" stroke="#ff0000" stroke-width="2"/>
<g stroke="black" stroke-width="1" fill="none">
<line x1="196.107" y1="60.8331" x2="197.107" y2="60.8331"/>
</g>
<path d="M213.034,73.6738v -7.06897" fill="none" stroke="#ff0000" stroke-width="2"/>
<path d="M213.034,66.6049v -6.29309" fill="none" stroke="#ff0000" stroke-width="2"/>
<path d="M205.071,66.6049h 7.96346" fill="none" stroke="#ff0000" stroke-width="2"/>
<path d="M213.034,66.6049h 7.96346" fill="none" stroke="#ff0000" stroke-width="2"/>
<g stroke="black" stroke-width="1" fill="none">
<line x1="212.034" y1="66.6049" x2="213.034" y2="66.6049"/>
</g>
<path d="M228.961,71.7825v -6.9454" fill="none" stroke="#ff0000" stroke-width="2"/>
<path d="M228.961,64.8371v -6.19499" fill="none" stroke="#ff0000" stroke-width="2"/>
<path d="M220.998,64.8371h 7.96346" fill="none" stroke="#ff0000" stroke-width="2"/>
<path d="M228.961,64.8371h 7.96346" fill="none" stroke="#ff0000" stroke-width="2"/>
<g stroke="black" stroke-width="1" fill="none">
<line x1="227.961" y1="64.8371" x2="228.961" y2="64.8371"/>
</g>
<path d="M244.888,56.8329v -6.35049" fill="none" stroke="#ff0000" stroke-width="2"/>
<path d="M244.888,50.4824v -5.71737" fill="none" stroke="#ff0000" stroke-width="2"/>
<path d="M236.925,50.4824h 7.96346" fill="none" stroke="#ff0000" stroke-width="2"/>
<path d="M244.888,50.4824h 7.96346" fill="none" stroke="#ff0000" stroke-width="2"/>
<g stroke="black" stroke-width="1" fill="none">
<line x1="243.888" y1="50.4824" x2="244.888" y2="50.4824"/>
</g>
<path d="M260.815,68.688v -7.29036" fill="none" stroke="#ff0000" stroke-width="2"/>
<path d="M260.815,61.3976v -6.46789" fill="none" stroke="#ff0000" stroke-width="2"/>
<path d="M252.852,61.3976h 7.96346" fill="none" stroke="#ff0000" stroke-width="2"/>
<path d="M260.815,61.3976h 7.96346" fill="none" stroke="#ff0000" stroke-width="2"/>
<g stroke="black" stroke-width="1" fill="none">
<line x1="259.815" y1="61.3976" x2="260.815" y2="61.3976"/>
</g>
<path d="M276.742,83.4206v -9.06903" fill="none" stroke="#ff0000" stroke-width="2"/>
<path d="M276.742,74.3515v -7.82973" fill="none" stroke="#ff0000" stroke-width="2"/>
<path d="M268.778,74.3515h 7.96346" fill="none" stroke="#ff0000" stroke-width="2"/>
<path d="M276.742,74.3515h 7.96346" fill="none" stroke="#ff0000" stroke-width="2"/>
<g stroke="black" stroke-width="1" fill="none">
<line x1="275.742" y1="74.3515" x2="276.742" y2="74.3515"/>
</g>
<path d="M292.669,80.0984v -8.70821" fill="none" stroke="#ff0000" stroke-width="2"/>
<path d="M292.669,71.3901v -7.55945" fill="none" stroke="#ff0000" stroke-width="2"/>
<path d="M284.705,71.3901h 7.96346" fill="none" stroke="#ff0000" stroke-width="2"/>
<path d="M292.669,71.3901h 7.96346" fill="none" stroke="#ff0000" stroke-width="2"/>
<g stroke="black" stroke-width="1" fill="none">
<line x1="291.669" y1="71.3901" x2="292.669" y2="71.3901"/>
</g>
<path d="M308.596,89.6903v -7.47168" fill="none" stroke="#ff0000" stroke-width="2"/>
<path d="M308.596,82.2186v -6.61017" fill="none" stroke="#ff0000" stroke-width="2"/>
<path d="M300.632,82.2186h 7.96346" fill="none" stroke="#ff0000" stroke-width="2"/>
<path d="M308.596,82.2186h 7.96346" fill="none" stroke="#ff0000" stroke-width="2"/>
<g stroke="black" stroke-width="1" fill="none">
<line x1="307.596" y1="82.2186" x2="308.596" y2="82.2186"/>
</g>
<path d="M324.523,87.192v -8.11263" fill="none" stroke="#ff0000" stroke-width="2"/>
<path d="M324.523,79.0794v -7.10673" fill="none" stroke="#ff0000" stroke-width="2"/>
<path d="M316.559,79.0794h 7.96346" fill="none" stroke="#ff0000" stroke-width="2"/>
<path d="M324.523,79.0794h 7.96346" fill="none" stroke="#ff0000" stroke-width="2"/>
<g stroke="black" stroke-width="1" fill="none">
<line x1="323.523" y1="79.0794" x2="324.523" y2="79.0794"/>
</g>
<path d="M340.45,68.7178v -7.21599" fill="none" stroke="#ff0000" stroke-width="2"/>
<path d="M340.45,61.5018v -6.40931" fill="none" stroke="#ff0000" stroke-width="2"/>
<path d="M332.486,61.5018h 7.96346" fill="none" stroke="#ff0000" stroke-width="2"/>
<path d="M340.45,61.5018h 7.96346" fill="none" stroke="#ff0000" stroke-width="2"/>
<g stroke="black" stroke-width="1" fill="none">
<line x1="339.45" y1="61.5018" x2="340.45" y2="61.5018"/>
</g>
<path d="M356.377,66.2545v -7.09818" fill="none" stroke="#ff0000" stroke-width="2"/>
<path d="M356.377,59.1563v -6.31621" fill="none" stroke="#ff0000" stroke-width="2"/>
<path d="M348.413,59.1563h 7.96346" fill="none" stroke="#ff0000" stroke-width="2"/>
<path d="M356.377,59.1563h 7.96346" fill="none" stroke="#ff0000" stroke-width="2"/>
<g stroke="black" stroke-width="1" fill="none">
<line x1="355.377" y1="59.1563" x2="356.377" y2="59.1563"/>
</g>
<path d="M372.303,79.0248v -7.46759" fill="none" stroke="#ff0000" stroke-width="2"/>
<path d="M372.303,71.5572v -6.60696" fill="none" stroke="#ff0000" stroke-width="2"/>
<path d="M364.34,71.5572h 7.96346" fill="none" stroke="#ff0000" stroke-width="2"/>
<path d="M372.303,71.5572h 7.96346" fill="none" stroke="#ff0000" stroke-width="2"/>
<g stroke="black" stroke-width="1" fill="none">
<line x1="371.303" y1="71.5572" x2="372.303" y2="71.5572"/>
</g>
<path d="M388.23,79.7665v -7.52231" fill="none" stroke="#ff0000" stroke-width="2"/>
<path d="M388.23,72.2442v -6.64975" fill="none" stroke="#ff0000" stroke-width="2"/>
<path d="M380.267,72.2442h 7.96346" fill="none" stroke="#ff0000" stroke-width="2"/>
<path d="M388.23,72.2442h 7.96346" fill="none" stroke="#ff0000" stroke-width="2"/>
<g stroke="black" stroke-width="1" fill="none">
<line x1="387.23" y1="72.2442" x2="388.23" y2="72.2442"/>
</g>
<path d="M404.157,73.9306v -7.09899" fill="none" stroke="#ff0000" stroke-width="2"/>
<path d="M404.157,66.8316v -6.31686" fill="none" stroke="#ff0000" stroke-width="2"/>
<path d="M396.194,66.8316h 7.96346" fill="none" stroke="#ff0000" stroke-width="2"/>
<path d="M404.157,66.8316h 7.96346" fill="none" stroke="#ff0000" stroke-width="2"/>
<g stroke="black" stroke-width="1" fill="none">
<line x1="403.157" y1="66.8316" x2="404.157" y2="66.8316"/>
</g>
<path d="M420.084,96.7366v -8.94088" fill="none" stroke="#ff0000" stroke-width="2"/>
<path d="M420.084,87.7957v -7.73408" fill="none" stroke="#ff0000" stroke-width="2"/>
<path d="M412.121,87.7957h 7.96346" fill="none" stroke="#ff0000" stroke-width="2"/>
<path d="M420.084,87.7957h 7.96346" fill="none" stroke="#ff0000" stroke-width="2"/>
<g stroke="black" stroke-width="1" fill="none">
<line x1="419.084" y1="87.7957" x2="420.084" y2="87.7957"/>
</g>
<path d="M436.011,89.1568v -8.28041" fill="none" stroke="#ff0000" stroke-width="2"/>
<path d="M436.011,80.8764v -7.2351" fill="none" stroke="#ff0000" stroke-width="2"/>
<path d="M428.048,80.8764h 7.96346" fill="none" stroke="#ff0000" stroke-width="2"/>
<path d="M436.011,80.8764h 7.96346" fill="none" stroke="#ff0000" stroke-width="2"/>
<g stroke="black" stroke-width="1" fill="none">
<line x1="435.011" y1="80.8764" x2="436.011" y2="80.8764"/>
</g>
<path d="M451.938,119.252v -11.3501" fill="none" stroke="#ff0000" stroke-width="2"/>
<path d="M451.938,107.902v -9.47203" fill="none" stroke="#ff0000" stroke-width="2"/>
<path d="M443.975,107.902h 7.96346" fill="none" stroke="#ff0000" stroke-width="2"/>
<path d="M451.938,107.902h 7.96346" fill="none" stroke="#ff0000" stroke-width="2"/>
<g stroke="black" stroke-width="1" fill="none">
<line x1="450.938" y1="107.902" x2="451.938" y2="107.902"/>
</g>
<path d="M467.865,113.933v -9.19953" fill="none" stroke="#ff0000" stroke-width="2"/>
<path d="M467.865,104.734v -7.92676" fill="none" stroke="#ff0000" stroke-width="2"/>
<path d="M459.902,104.734h 7.96346" fill="none" stroke="#ff0000" stroke-width="2"/>
<path d="M467.865,104.734h 7.96346" fill="none" stroke="#ff0000" stroke-width="2"/>
<g stroke="black" stroke-width="1" fill="none">
<line x1="466.865" y1="104.734" x2="467.865" y2="104.734"/>
</g>
<path d="M483.792,120.81v -11.5328" fill="none" stroke="#ff0000" stroke-width="2"/>
<path d="M483.792,109.277v -9.59878" fill="none" stroke="#ff0000" stroke-width="2"/>
<path d="M475.828,109.277h 7.96346" fill="none" stroke="#ff0000" stroke-width="2"/>
<path d="M483.792,109.277h 7.96346" fill="none" stroke="#ff0000" stroke-width="2"/>
<g stroke="black" stroke-width="1" fill="none">
<line x1="482.792" y1="109.277" x2="483.792" y2="109.277"/>
</g>
<path d="M499.719,180.829v -16.4735" fill="none" stroke="#ff0000" stroke-width="2"/>
<path d="M499.719,164.356v -12.7847" fill="none" stroke="#ff0000" stroke-width="2"/>
<path d="M491.755,164.356h 7.96346" fill="none" stroke="#ff0000" stroke-width="2"/>
<path d="M499.719,164.356h 7.96346" fill="none" stroke="#ff0000" stroke-width="2"/>
<g stroke="black" stroke-width="1" fill="none">
<line x1="498.719" y1="164.356" x2="499.719" y2="164.356"/>
</g>
<path d="M61.7283,267.575h 477.808" fill="none" stroke="black"/>
<path d="M61.7283,260.813v 6.76256" fill="none" stroke="black"/>
<path d="M77.6553,264.194v 3.38128" fill="none" stroke="black"/>
<path d="M93.5822,264.194v 3.38128" fill="none" stroke="black"/>
<path d="M109.509,264.194v 3.38128" fill="none" stroke="black"/>
<path d="M125.436,264.194v 3.38128" fill="none" stroke="black"/>
<path d="M141.363,260.813v 6.76256" fill="none" stroke="black"/>
<path d="M157.29,264.194v 3.38128" fill="none" stroke="black"/>
<path d="M173.217,264.194v 3.38128" fill="none" stroke="black"/>
<path d="M189.144,264.194v 3.38128" fill="none" stroke="black"/>
<path d="M205.071,264.194v 3.38128" fill="none" stroke="black"/>
<path d="M220.998,260.813v 6.76256" fill="none" stroke="black"/>
<path d="M236.925,264.194v 3.38128" fill="none" stroke="black"/>
<path d="M252.852,264.194v 3.38128" fill="none" stroke="black"/>
<path d="M268.778,264.194v 3.38128" fill="none" stroke="black"/>
<path d="M284.705,264.194v 3.38128" fill="none" stroke="black"/>
<path d="M300.632,260.813v 6.76256" fill="none" stroke="black"/>
<path d="M316.559,264.194v 3.38128" fill="none" stroke="black"/>
<path d="M332.486,264.194v 3.38128" fill="none" stroke="black"/>
<path d="M348.413,264.194v 3.38128" fill="none" stroke="black"/>
<path d="M364.34,264.194v 3.38128" fill="none" stroke="black"/>
<path d="M380.267,260.813v 6.76256" fill="none" stroke="black"/>
<path d="M396.194,264.194v 3.38128" fill="none" stroke="black"/>
<path d="M412.121,264.194v 3.38128" fill="none" stroke="black"/>
<path d="M428.048,264.194v 3.38128" fill="none" stroke="black"/>
<path d="M443.975,264.194v 3.38128" fill="none" stroke="black"/>
<path d="M459.902,260.813v 6.76256" fill="none" stroke="black"/>
<path d="M475.828,264.194v 3.38128" fill="none" stroke="black"/>
<path d="M491.755,264.194v 3.38128" fill="none" stroke="black"/>
<path d="M507.682,264.194v 3.38128" fill="none" stroke="black"/>
<path d="M523.609,264.194v 3.38128" fill="none" stroke="black"/>
<path d="M539.536,260.813v 6.76256" fill="none" stroke="black"/>
<path d="M61.7283,267.575v -259.493" fill="none" stroke="black"/>
<path d="M69.9789,247.866h -8.25052" fill="none" stroke="black"/>
<path d="M69.9789,231.353h -8.25052" fill="none" stroke="black"/>
<path d="M69.9789,218.544h -8.25052" fill="none" stroke="black"/>
<path d="M69.9789,208.079h -8.25052" fill="none" stroke="black"/>
<path d="M69.9789,199.231h -8.25052" fill="none" stroke="black"/>
<path d="M69.9789,191.566h -8.25052" fill="none" stroke="black"/>
<path d="M69.9789,184.806h -8.25052" fill="none" stroke="black"/>
<path d="M78.2294,178.758h -16.501" fill="none" stroke="black"/>
<text xml:space="preserve" x="53.5904" y="182.024" fill="black" font-size="8.91652" font-family="Helvetica">1</text>
<path d="M69.9789,138.971h -8.25052" fill="none" stroke="black"/>
<path d="M69.9789,115.698h -8.25052" fill="none" stroke="black"/>
<path d="M69.9789,99.1848h -8.25052" fill="none" stroke="black"/>
<path d="M69.9789,86.3764h -8.25052" fill="none" stroke="black"/>
<path d="M69.9789,75.9111h -8.25052" fill="none" stroke="black"/>
<path d="M69.9789,67.0629h -8.25052" fill="none" stroke="black"/>
<path d="M69.9789,59.3982h -8.25052" fill="none" stroke="black"/>
<path d="M69.9789,52.6375h -8.25052" fill="none" stroke="black"/>
<path d="M78.2294,46.5898h -16.501" fill="none" stroke="black"/>
<text xml:space="preserve" x="47.9021" y="50.2462" fill="black" font-size="8.91652" font-family="Helvetica">10</text>
<g transform="rotate(-90,24.201,35.0776)">
<text xml:space="preserve" x="24.201" y="35.0776" fill="black" font-size="14.9283" font-family="Helvetica">nJet</text>
</g>
<path d="M101.546,181.368v -9.31863" fill="none" stroke="#006699" stroke-width="2"/>
<path d="M101.546,172.049v -8.01498" fill="none" stroke="#006699" stroke-width="2"/>
<g stroke="black" stroke-width="1" fill="none">
<line x1="100.546" y1="172.049" x2="101.546" y2="172.049"/>
</g>
<path d="M117.473,123.215v -5.66163" fill="none" stroke="#006699" stroke-width="2"/>
<path d="M117.473,117.553v -5.15299" fill="none" stroke="#006699" stroke-width="2"/>
<g stroke="black" stroke-width="1" fill="none">
<line x1="116.473" y1="117.553" x2="117.473" y2="117.553"/>
</g>
<path d="M133.4,117.733v -4.88886" fill="none" stroke="#006699" stroke-width="2"/>
<path d="M133.4,112.844v -4.50495" fill="none" stroke="#006699" stroke-width="2"/>
<g stroke="black" stroke-width="1" fill="none">
<line x1="132.4" y1="112.844" x2="133.4" y2="112.844"/>
</g>
<path d="M149.326,124.979v -4.67674" fill="none" stroke="#006699" stroke-width="2"/>
<path d="M149.326,120.302v -4.32424" fill="none" stroke="#006699" stroke-width="2"/>
<g stroke="black" stroke-width="1" fill="none">
<line x1="148.326" y1="120.302" x2="149.326" y2="120.302"/>
</g>
<path d="M165.253,114.675v -3.65228" fill="none" stroke="#006699" stroke-width="2"/>
<path d="M165.253,111.022v -3.43373" fill="none" stroke="#006699" stroke-width="2"/>
<g stroke="black" stroke-width="1" fill="none">
<line x1="164.253" y1="111.022" x2="165.253" y2="111.022"/>
</g>
<path d="M181.18,90.6415v -3.42961" fill="none" stroke="#006699" stroke-width="2"/>
<path d="M181.18,87.2119v -3.23619" fill="none" stroke="#006699" stroke-width="2"/>
<g stroke="black" stroke-width="1" fill="none">
<line x1="180.18" y1="87.2119" x2="181.18" y2="87.2119"/>
</g>
<path d="M197.107,68.2903v -2.95126" fill="none" stroke="#006699" stroke-width="2"/>
<path d="M197.107,65.339v -2.80691" fill="none" stroke="#006699" stroke-width="2"/>
<g stroke="black" stroke-width="1" fill="none">
<line x1="196.107" y1="65.339" x2="197.107" y2="65.339"/>
</g>
<path d="M213.034,65.6766v -2.71594" fill="none" stroke="#006699" stroke-width="2"/>
<path d="M213.034,62.9607v -2.59321" fill="none" stroke="#006699" stroke-width="2"/>
<g stroke="black" stroke-width="1" fill="none">
<line x1="212.034" y1="62.9607" x2="213.034" y2="62.9607"/>
</g>
<path d="M228.961,85.9446v -3.1007" fill="none" stroke="#006699" stroke-width="2"/>
<path d="M228.961,82.8439v -2.94175" fill="none" stroke="#006699" stroke-width="2"/>
<g stroke="black" stroke-width="1" fill="none">
<line x1="227.961" y1="82.8439" x2="228.961" y2="82.8439"/>
</g>
<path d="M244.888,85.7407v -2.77725" fill="none" stroke="#006699" stroke-width="2"/>
<path d="M244.888,82.9635v -2.64905" fill="none" stroke="#006699" stroke-width="2"/>
<g stroke="black" stroke-width="1" fill="none">
<line x1="243.888" y1="82.9635" x2="244.888" y2="82.9635"/>
</g>
<path d="M260.815,85.2789v -2.55071" fill="none" stroke="#006699" stroke-width="2"/>
<path d="M260.815,82.7281v -2.44217" fill="none" stroke="#006699" stroke-width="2"/>
<g stroke="black" stroke-width="1" fill="none">
<line x1="259.815" y1="82.7281" x2="260.815" y2="82.7281"/>
</g>
<path d="M276.742,80.6763v -2.60075" fill="none" stroke="#006699" stroke-width="2"/>
<path d="M276.742,78.0756v -2.48801" fill="none" stroke="#006699" stroke-width="2"/>
<g stroke="black" stroke-width="1" fill="none">
<line x1="275.742" y1="78.0756" x2="276.742" y2="78.0756"/>
</g>
<path d="M292.669,75.6524v -2.57875" fill="none" stroke="#006699" stroke-width="2"/>
<path d="M292.669,73.0736v -2.46786" fill="none" stroke="#006699" stroke-width="2"/>
<g stroke="black" stroke-width="1" fill="none">
<line x1="291.669" y1="73.0736" x2="292.669" y2="73.0736"/>
</g>
<path d="M308.596,71.6366v -2.54973" fill="none" stroke="#006699" stroke-width="2"/>
<path d="M308.596,69.0869v -2.44127" fill="none" stroke="#006699" stroke-width="2"/>
<g stroke="black" stroke-width="1" fill="none">
<line x1="307.596" y1="69.0869" x2="308.596" y2="69.0869"/>
</g>
<path d="M324.523,75.8106v -2.59223" fill="none" stroke="#006699" stroke-width="2"/>
<path d="M324.523,73.2184v -2.4802" fill="none" stroke="#006699" stroke-width="2"/>
<g stroke="black" stroke-width="1" fill="none">
<line x1="323.523" y1="73.2184" x2="324.523" y2="73.2184"/>
</g>
<path d="M340.45,82.758v -2.67813" fill="none" stroke="#006699" stroke-width="2"/>
<path d="M340.45,80.0799v -2.55873" fill="none" stroke="#006699" stroke-width="2"/>
<g stroke="black" stroke-width="1" fill="none">
<line x1="339.45" y1="80.0799" x2="340.45" y2="80.0799"/>
</g>
<path d="M356.377,86.0484v -2.77006" fill="none" stroke="#006699" stroke-width="2"/>
<path d="M356.377,83.2783v -2.64251" fill="none" stroke="#006699" stroke-width="2"/>
<g stroke="black" stroke-width="1" fill="none">
<line x1="355.377" y1="83.2783" x2="356.377" y2="83.2783"/>
</g>
<path d="M372.303,92.1557v -2.78623" fill="none" stroke="#006699" stroke-width="2"/>
<path d="M372.303,89.3694v -2.65723" fill="none" stroke="#006699" stroke-width="2"/>
<g stroke="black" stroke-width="1" fill="none">
<line x1="371.303" y1="89.3694" x2="372.303" y2="89.3694"/>
</g>
<path d="M388.23,71.776v -2.72491" fill="none" stroke="#006699" stroke-width="2"/>
<path d="M388.23,69.0511v -2.60139" fill="none" stroke="#006699" stroke-width="2"/>
<g stroke="black" stroke-width="1" fill="none">
<line x1="387.23" y1="69.0511" x2="388.23" y2="69.0511"/>
</g>
<path d="M404.157,76.1501v -3.12524" fill="none" stroke="#006699" stroke-width="2"/>
<path d="M404.157,73.0249v -2.96383" fill="none" stroke="#006699" stroke-width="2"/>
<g stroke="black" stroke-width="1" fill="none">
<line x1="403.157" y1="73.0249" x2="404.157" y2="73.0249"/>
</g>
<path d="M420.084,96.1765v -3.4651" fill="none" stroke="#006699" stroke-width="2"/>
<path d="M420.084,92.7114v -3.26778" fill="none" stroke="#006699" stroke-width="2"/>
<g stroke="black" stroke-width="1" fill="none">
<line x1="419.084" y1="92.7114" x2="420.084" y2="92.7114"/>
</g>
<path d="M436.011,117.415v -3.89248" fill="none" stroke="#006699" stroke-width="2"/>
<path d="M436.011,113.522v -3.64519" fill="none" stroke="#006699" stroke-width="2"/>
<g stroke="black" stroke-width="1" fill="none">
<line x1="435.011" y1="113.522" x2="436.011" y2="113.522"/>
</g>
<path d="M451.938,126.147v -4.69166" fill="none" stroke="#006699" stroke-width="2"/>
<path d="M451.938,121.456v -4.33699" fill="none" stroke="#006699" stroke-width="2"/>
<g stroke="black" stroke-width="1" fill="none">
<line x1="450.938" y1="121.456" x2="451.938" y2="121.456"/>
</g>
<path d="M467.865,118.89v -4.58676" fill="none" stroke="#006699" stroke-width="2"/>
<path d="M467.865,114.303v -4.24721" fill="none" stroke="#006699" stroke-width="2"/>
<g stroke="black" stroke-width="1" fill="none">
<line x1="466.865" y1="114.303" x2="467.865" y2="114.303"/>
</g>
<path d="M483.792,130.204v -5.49645" fill="none" stroke="#006699" stroke-width="2"/>
<path d="M483.792,124.707v -5.01581" fill="none" stroke="#006699" stroke-width="2"/>
<g stroke="black" stroke-width="1" fill="none">
<line x1="482.792" y1="124.707" x2="483.792" y2="124.707"/>
</g>
<path d="M499.719,175.111v -9.62419" fill="none" stroke="#006699" stroke-width="2"/>
<path d="M499.719,165.487v -8.23985" fill="none" stroke="#006699" stroke-width="2"/>
<g stroke="black" stroke-width="1" fill="none">
<line x1="498.719" y1="165.487" x2="499.719" y2="165.487"/>
</g>
<path d="M61.7283,267.575h 31.8539v -95.5263h 15.9269v -54.4961h 15.9269v -4.70914h 15.9269v 7.45812h 15.9269v -9.27949h 15.9269v -23.8105h 15.9269v -21.8729h 15.9269v -2.37833h 15.9269v 19.8832h 15.9269v 0.11958h 15.9269v -0.235319h 15.9269v
 -4.65257h 15.9269v -5.00196h 15.9269v -3.98673h 15.9269v 4.13148h 15.9269v 6.86155h 15.9269v 3.19841h 15.9269v 6.0911h 15.9269v -20.3183h 15.9269v 3.97374h 15.9269v 19.6865h 15.9269v 20.8107h 15.9269v 7.93343h 15.9269v -7.15252h 15.9269v 10.4044h
 15.9269v 40.7796h 15.9269v 102.088h 31.8539" fill="none" stroke="#006699" stroke-width="2"/>
<text xml:space="preserve" x="253.627" y="147.895" fill="black" font-size="14.9283" font-family="Helvetica">b flavor</text>
<text xml:space="preserve" x="297.237" y="181.076" fill="black" font-size="14.9283" font-family="Helvetica">True Background</text>
<path d="M256.175,177.284h 34.011" fill="none" stroke="#ff0000" stroke-width="2"/>
<path d="M273.181,187.712v -20.8569" fill="none" stroke="#ff0000" stroke-width="2"/>
<text xml:space="preserve" x="297.237" y="217.102" fill="black" font-size="14.9283" font-family="Helvetica">Predict</text>
<path d="M256.175,212.045h 34.011" fill="none" stroke="#006699" stroke-width="2"/>
<path d="M273.181,222.474v -20.8569" fill="none" stroke="#006699" stroke-width="2"/>
<rect x="6.16929" y="278.497" width="555.591" height="262.115" fill="white"/>
<rect x="61.7283" y="278.497" width="477.808" height="209.692" fill="white"/>
<rect x="61.7283" y="278.497" width="477.808" height="209.692" fill="none" stroke="black"/>
<rect x="61.7283" y="278.497" width="477.808" height="209.692" fill="white"/>
<rect x="61.7283" y="278.497" width="477.808" height="209.692" fill="none" stroke="black"/>
<path d="M101.546,462.975v -15.3566" fill="none" stroke="black" stroke-width="2"/>
<path d="M101.546,447.618v -15.3566" fill="none" stroke="black" stroke-width="2"/>
<path d="M93.5822,447.618h 7.96346" fill="none" stroke="black" stroke-width="2"/>
<path d="M101.546,447.618h 7.96346" fill="none" stroke="black" stroke-width="2"/>
<g stroke="black" stroke-width="1" fill="none">
<line x1="100.546" y1="447.618" x2="101.546" y2="447.618"/>
</g>
<path d="M117.473,422.37v -16.7418" fill="none" stroke="black" stroke-width="2"/>
<path d="M117.473,405.628v -16.7418" fill="none" stroke="black" stroke-width="2"/>
<path d="M109.509,405.628h 7.96346" fill="none" stroke="black" stroke-width="2"/>
<path d="M117.473,405.628h 7.96346" fill="none" stroke="black" stroke-width="2"/>
<g stroke="black" stroke-width="1" fill="none">
<line x1="116.473" y1="405.628" x2="117.473" y2="405.628"/>
</g>
<path d="M133.4,418.175v -17.6276" fill="none" stroke="black" stroke-width="2"/>
<path d="M133.4,400.548v -17.6276" fill="none" stroke="black" stroke-width="2"/>
<path d="M125.436,400.548h 7.96346" fill="none" stroke="black" stroke-width="2"/>
<path d="M133.4,400.548h 7.96346" fill="none" stroke="black" stroke-width="2"/>
<g stroke="black" stroke-width="1" fill="none">
<line x1="132.4" y1="400.548" x2="133.4" y2="400.548"/>
</g>
<path d="M149.326,407.645v -18.0666" fill="none" stroke="black" stroke-width="2"/>
<path d="M149.326,389.579v -18.0666" fill="none" stroke="black" stroke-width="2"/>
<path d="M141.363,389.579h 7.96346" fill="none" stroke="black" stroke-width="2"/>
<path d="M149.326,389.579h 7.96346" fill="none" stroke="black" stroke-width="2"/>
<g stroke="black" stroke-width="1" fill="none">
<line x1="148.326" y1="389.579" x2="149.326" y2="389.579"/>
</g>
<path d="M165.253,381.299v -19.3637" fill="none" stroke="black" stroke-width="2"/>
<path d="M165.253,361.935v -19.3637" fill="none" stroke="black" stroke-width="2"/>
<path d="M157.29,361.935h 7.96346" fill="none" stroke="black" stroke-width="2"/>
<path d="M165.253,361.935h 7.96346" fill="none" stroke="black" stroke-width="2"/>
<g stroke="black" stroke-width="1" fill="none">
<line x1="164.253" y1="361.935" x2="165.253" y2="361.935"/>
</g>
<path d="M181.18,412.218v -13.8854" fill="none" stroke="black" stroke-width="2"/>
<path d="M181.18,398.333v -13.8854" fill="none" stroke="black" stroke-width="2"/>
<path d="M173.217,398.333h 7.96346" fill="none" stroke="black" stroke-width="2"/>
<path d="M181.18,398.333h 7.96346" fill="none" stroke="black" stroke-width="2"/>
<g stroke="black" stroke-width="1" fill="none">
<line x1="180.18" y1="398.333" x2="181.18" y2="398.333"/>
</g>
<path d="M197.107,421.121v -8.53747" fill="none" stroke="black" stroke-width="2"/>
<path d="M197.107,412.583v -8.53747" fill="none" stroke="black" stroke-width="2"/>
<path d="M189.144,412.583h 7.96346" fill="none" stroke="black" stroke-width="2"/>
<path d="M197.107,412.583h 7.96346" fill="none" stroke="black" stroke-width="2"/>
<g stroke="black" stroke-width="1" fill="none">
<line x1="196.107" y1="412.583" x2="197.107" y2="412.583"/>
</g>
<path d="M213.034,430.774v -8.18314" fill="none" stroke="black" stroke-width="2"/>
<path d="M213.034,422.591v -8.18314" fill="none" stroke="black" stroke-width="2"/>
<path d="M205.071,422.591h 7.96346" fill="none" stroke="black" stroke-width="2"/>
<path d="M213.034,422.591h 7.96346" fill="none" stroke="black" stroke-width="2"/>
<g stroke="black" stroke-width="1" fill="none">
<line x1="212.034" y1="422.591" x2="213.034" y2="422.591"/>
</g>
<path d="M228.961,404.541v -12.0058" fill="none" stroke="black" stroke-width="2"/>
<path d="M228.961,392.535v -12.0058" fill="none" stroke="black" stroke-width="2"/>
<path d="M220.998,392.535h 7.96346" fill="none" stroke="black" stroke-width="2"/>
<path d="M228.961,392.535h 7.96346" fill="none" stroke="black" stroke-width="2"/>
<g stroke="black" stroke-width="1" fill="none">
<line x1="227.961" y1="392.535" x2="228.961" y2="392.535"/>
</g>
<path d="M244.888,379.242v -14.142" fill="none" stroke="black" stroke-width="2"/>
<path d="M244.888,365.1v -14.142" fill="none" stroke="black" stroke-width="2"/>
<path d="M236.925,365.1h 7.96346" fill="none" stroke="black" stroke-width="2"/>
<path d="M244.888,365.1h 7.96346" fill="none" stroke="black" stroke-width="2"/>
<g stroke="black" stroke-width="1" fill="none">
<line x1="243.888" y1="365.1" x2="244.888" y2="365.1"/>
</g>
<path d="M260.815,399.699v -12.8669" fill="none" stroke="black" stroke-width="2"/>
<path d="M260.815,386.833v -12.8669" fill="none" stroke="black" stroke-width="2"/>
<path d="M252.852,386.833h 7.96346" fill="none" stroke="black" stroke-width="2"/>
<path d="M260.815,386.833h 7.96346" fill="none" stroke="black" stroke-width="2"/>
<g stroke="black" stroke-width="1" fill="none">
<line x1="259.815" y1="386.833" x2="260.815" y2="386.833"/>
</g>
<path d="M276.742,424.996v -11.3898" fill="none" stroke="black" stroke-width="2"/>
<path d="M276.742,413.606v -11.3898" fill="none" stroke="black" stroke-width="2"/>
<path d="M268.778,413.606h 7.96346" fill="none" stroke="black" stroke-width="2"/>
<path d="M276.742,413.606h 7.96346" fill="none" stroke="black" stroke-width="2"/>
<g stroke="black" stroke-width="1" fill="none">
<line x1="275.742" y1="413.606" x2="276.742" y2="413.606"/>
</g>
<path d="M292.669,426.825v -10.6138" fill="none" stroke="black" stroke-width="2"/>
<path d="M292.669,416.211v -10.6138" fill="none" stroke="black" stroke-width="2"/>
<path d="M284.705,416.211h 7.96346" fill="none" stroke="black" stroke-width="2"/>
<path d="M292.669,416.211h 7.96346" fill="none" stroke="black" stroke-width="2"/>
<g stroke="black" stroke-width="1" fill="none">
<line x1="291.669" y1="416.211" x2="292.669" y2="416.211"/>
</g>
<path d="M308.596,439.789v -7.20377" fill="none" stroke="black" stroke-width="2"/>
<path d="M308.596,432.585v -7.20377" fill="none" stroke="black" stroke-width="2"/>
<path d="M300.632,432.585h 7.96346" fill="none" stroke="black" stroke-width="2"/>
<path d="M308.596,432.585h 7.96346" fill="none" stroke="black" stroke-width="2"/>
<g stroke="black" stroke-width="1" fill="none">
<line x1="307.596" y1="432.585" x2="308.596" y2="432.585"/>
</g>
<path d="M324.523,433.849v -8.77273" fill="none" stroke="black" stroke-width="2"/>
<path d="M324.523,425.076v -8.77273" fill="none" stroke="black" stroke-width="2"/>
<path d="M316.559,425.076h 7.96346" fill="none" stroke="black" stroke-width="2"/>
<path d="M324.523,425.076h 7.96346" fill="none" stroke="black" stroke-width="2"/>
<g stroke="black" stroke-width="1" fill="none">
<line x1="323.523" y1="425.076" x2="324.523" y2="425.076"/>
</g>
<path d="M340.45,403.811v -12.2332" fill="none" stroke="black" stroke-width="2"/>
<path d="M340.45,391.578v -12.2332" fill="none" stroke="black" stroke-width="2"/>
<path d="M332.486,391.578h 7.96346" fill="none" stroke="black" stroke-width="2"/>
<path d="M340.45,391.578h 7.96346" fill="none" stroke="black" stroke-width="2"/>
<g stroke="black" stroke-width="1" fill="none">
<line x1="339.45" y1="391.578" x2="340.45" y2="391.578"/>
</g>
<path d="M356.377,395.136v -13.3541" fill="none" stroke="black" stroke-width="2"/>
<path d="M356.377,381.782v -13.3541" fill="none" stroke="black" stroke-width="2"/>
<path d="M348.413,381.782h 7.96346" fill="none" stroke="black" stroke-width="2"/>
<path d="M356.377,381.782h 7.96346" fill="none" stroke="black" stroke-width="2"/>
<g stroke="black" stroke-width="1" fill="none">
<line x1="355.377" y1="381.782" x2="356.377" y2="381.782"/>
</g>
<path d="M372.303,405.334v -12.4757" fill="none" stroke="black" stroke-width="2"/>
<path d="M372.303,392.859v -12.4757" fill="none" stroke="black" stroke-width="2"/>
<path d="M364.34,392.859h 7.96346" fill="none" stroke="black" stroke-width="2"/>
<path d="M372.303,392.859h 7.96346" fill="none" stroke="black" stroke-width="2"/>
<g stroke="black" stroke-width="1" fill="none">
<line x1="371.303" y1="392.859" x2="372.303" y2="392.859"/>
</g>
<path d="M388.23,430.753v -8.67998" fill="none" stroke="black" stroke-width="2"/>
<path d="M388.23,422.073v -8.67998" fill="none" stroke="black" stroke-width="2"/>
<path d="M380.267,422.073h 7.96346" fill="none" stroke="black" stroke-width="2"/>
<path d="M388.23,422.073h 7.96346" fill="none" stroke="black" stroke-width="2"/>
<g stroke="black" stroke-width="1" fill="none">
<line x1="387.23" y1="422.073" x2="388.23" y2="422.073"/>
</g>
<path d="M404.157,420.281v -9.95329" fill="none" stroke="black" stroke-width="2"/>
<path d="M404.157,410.328v -9.95329" fill="none" stroke="black" stroke-width="2"/>
<path d="M396.194,410.328h 7.96346" fill="none" stroke="black" stroke-width="2"/>
<path d="M404.157,410.328h 7.96346" fill="none" stroke="black" stroke-width="2"/>
<g stroke="black" stroke-width="1" fill="none">
<line x1="403.157" y1="410.328" x2="404.157" y2="410.328"/>
</g>
<path d="M420.084,423.896v -11.8547" fill="none" stroke="black" stroke-width="2"/>
<path d="M420.084,412.042v -11.8547" fill="none" stroke="black" stroke-width="2"/>
<path d="M412.121,412.042h 7.96346" fill="none" stroke="black" stroke-width="2"/>
<path d="M420.084,412.042h 7.96346" fill="none" stroke="black" stroke-width="2"/>
<g stroke="black" stroke-width="1" fill="none">
<line x1="419.084" y1="412.042" x2="420.084" y2="412.042"/>
</g>
<path d="M436.011,383.199v -18.4523" fill="none" stroke="black" stroke-width="2"/>
<path d="M436.011,364.747v -18.4523" fill="none" stroke="black" stroke-width="2"/>
<path d="M428.048,364.747h 7.96346" fill="none" stroke="black" stroke-width="2"/>
<path d="M436.011,364.747h 7.96346" fill="none" stroke="black" stroke-width="2"/>
<g stroke="black" stroke-width="1" fill="none">
<line x1="435.011" y1="364.747" x2="436.011" y2="364.747"/>
</g>
<path d="M451.938,417.009v -17.3335" fill="none" stroke="black" stroke-width="2"/>
<path d="M451.938,399.675v -17.3335" fill="none" stroke="black" stroke-width="2"/>
<path d="M443.975,399.675h 7.96346" fill="none" stroke="black" stroke-width="2"/>
<path d="M451.938,399.675h 7.96346" fill="none" stroke="black" stroke-width="2"/>
<g stroke="black" stroke-width="1" fill="none">
<line x1="450.938" y1="399.675" x2="451.938" y2="399.675"/>
</g>
<path d="M467.865,419.387v -13.7753" fill="none" stroke="black" stroke-width="2"/>
<path d="M467.865,405.611v -13.7753" fill="none" stroke="black" stroke-width="2"/>
<path d="M459.902,405.611h 7.96346" fill="none" stroke="black" stroke-width="2"/>
<path d="M467.865,405.611h 7.96346" fill="none" stroke="black" stroke-width="2"/>
<g stroke="black" stroke-width="1" fill="none">
<line x1="466.865" y1="405.611" x2="467.865" y2="405.611"/>
</g>
<path d="M483.792,415.358v -18.624" fill="none" stroke="black" stroke-width="2"/>
<path d="M483.792,396.734v -18.624" fill="none" stroke="black" stroke-width="2"/>
<path d="M475.828,396.734h 7.96346" fill="none" stroke="black" stroke-width="2"/>
<path d="M483.792,396.734h 7.96346" fill="none" stroke="black" stroke-width="2"/>
<g stroke="black" stroke-width="1" fill="none">
<line x1="482.792" y1="396.734" x2="483.792" y2="396.734"/>
</g>
<path d="M499.719,437.815v -20.9145" fill="none" stroke="black" stroke-width="2"/>
<path d="M499.719,416.9v -20.9145" fill="none" stroke="black" stroke-width="2"/>
<path d="M491.755,416.9h 7.96346" fill="none" stroke="black" stroke-width="2"/>
<path d="M499.719,416.9h 7.96346" fill="none" stroke="black" stroke-width="2"/>
<g stroke="black" stroke-width="1" fill="none">
<line x1="498.719" y1="416.9" x2="499.719" y2="416.9"/>
</g>
<path d="M64.1174,411.092l 4.77808, -0.0345428l 4.77808, -0.0345428l 4.77808, -0.0345428l 4.77808, -0.0345428l 4.77808, -0.0345428l 4.77808, -0.0345428l 4.77808, -0.0345428l 4.77808, -0.0345428l 4.77808, -0.0345428l 4.77808, -0.0345428l 4.77808,
 -0.0345428l 4.77808, -0.0345428l 4.77808, -0.0345428l 4.77808, -0.0345428l 4.77808, -0.0345428l 4.77808, -0.0345428l 4.77808, -0.0345428l 4.77808, -0.0345428l 4.77808, -0.0345428l 4.77808, -0.0345428l 4.77808, -0.0345428l 4.77808, -0.0345428l
 4.77808, -0.0345428l 4.77808, -0.0345428l 4.77808, -0.0345428l 4.77808, -0.0345428l 4.77808, -0.0345428l 4.77808, -0.0345428l 4.77808, -0.0345428l 4.77808, -0.0345428l 4.77808, -0.0345428l 4.77808, -0.0345428l 4.77808, -0.0345428l 4.77808,
 -0.0345428l 4.77808, -0.0345428l 4.77808, -0.0345428l 4.77808, -0.0345428l 4.77808, -0.0345428l 4.77808, -0.0345428l 4.77808, -0.0345428l 4.77808, -0.0345428l 4.77808, -0.0345428l 4.77808, -0.0345428l 4.77808, -0.0345428l 4.77808, -0.0345428l
 4.77808, -0.0345428l 4.77808, -0.0345428l 4.77808, -0.0345428l 4.77808, -0.0345428" fill="none" stroke="#339966" stroke-width="2"/>
<path d="M298.243,409.4l 4.77808, -0.0345428l 4.77808, -0.0345428l 4.77808, -0.0345428l 4.77808, -0.0345428l 4.77808, -0.0345428l 4.77808, -0.0345428l 4.77808, -0.0345428l 4.77808, -0.0345428l 4.77808, -0.0345428l 4.77808, -0.0345428l 4.77808,
 -0.0345428l 4.77808, -0.0345428l 4.77808, -0.0345428l 4.77808, -0.0345428l 4.77808, -0.0345428l 4.77808, -0.0345428l 4.77808, -0.0345428l 4.77808, -0.0345428l 4.77808, -0.0345428l 4.77808, -0.0345428l 4.77808, -0.0345428l 4.77808, -0.0345428l
 4.77808, -0.0345428l 4.77808, -0.0345428l 4.77808, -0.0345428l 4.77808, -0.0345428l 4.77808, -0.0345428l 4.77808, -0.0345428l 4.77808, -0.0345428l 4.77808, -0.0345428l 4.77808, -0.0345428l 4.77808, -0.0345428l 4.77808, -0.0345428l 4.77808,
 -0.0345428l 4.77808, -0.0345428l 4.77808, -0.0345428l 4.77808, -0.0345428l 4.77808, -0.0345428l 4.77808, -0.0345428l 4.77808, -0.0345428l 4.77808, -0.0345428l 4.77808, -0.0345428l 4.77808, -0.0345428l 4.77808, -0.0345428l 4.77808, -0.0345428l
 4.77808, -0.0345428l 4.77808, -0.0345428l 4.77808, -0.0345428l 4.77808, -0.0345428" fill="none" stroke="#339966" stroke-width="2"/>
<path d="M532.369,407.707l 4.77808, -0.0345428" fill="none" stroke="#339966" stroke-width="2"/>
<path d="M61.7283,488.189h 477.808" fill="none" stroke="black"/>
<path d="M61.7283,481.426v 6.76256" fill="none" stroke="black"/>
<path d="M77.6553,484.807v 3.38128" fill="none" stroke="black"/>
<path d="M93.5822,484.807v 3.38128" fill="none" stroke="black"/>
<path d="M109.509,484.807v 3.38128" fill="none" stroke="black"/>
<path d="M125.436,484.807v 3.38128" fill="none" stroke="black"/>
<path d="M141.363,481.426v 6.76256" fill="none" stroke="black"/>
<path d="M157.29,484.807v 3.38128" fill="none" stroke="black"/>
<path d="M173.217,484.807v 3.38128" fill="none" stroke="black"/>
<path d="M189.144,484.807v 3.38128" fill="none" stroke="black"/>
<path d="M205.071,484.807v 3.38128" fill="none" stroke="black"/>
<path d="M220.998,481.426v 6.76256" fill="none" stroke="black"/>
<path d="M236.925,484.807v 3.38128" fill="none" stroke="black"/>
<path d="M252.852,484.807v 3.38128" fill="none" stroke="black"/>
<path d="M268.778,484.807v 3.38128" fill="none" stroke="black"/>
<path d="M284.705,484.807v 3.38128" fill="none" stroke="black"/>
<path d="M300.632,481.426v 6.76256" fill="none" stroke="black"/>
<path d="M316.559,484.807v 3.38128" fill="none" stroke="black"/>
<path d="M332.486,484.807v 3.38128" fill="none" stroke="black"/>
<path d="M348.413,484.807v 3.38128" fill="none" stroke="black"/>
<path d="M364.34,484.807v 3.38128" fill="none" stroke="black"/>
<path d="M380.267,481.426v 6.76256" fill="none" stroke="black"/>
<path d="M396.194,484.807v 3.38128" fill="none" stroke="black"/>
<path d="M412.121,484.807v 3.38128" fill="none" stroke="black"/>
<path d="M428.048,484.807v 3.38128" fill="none" stroke="black"/>
<path d="M443.975,484.807v 3.38128" fill="none" stroke="black"/>
<path d="M459.902,481.426v 6.76256" fill="none" stroke="black"/>
<path d="M475.828,484.807v 3.38128" fill="none" stroke="black"/>
<path d="M491.755,484.807v 3.38128" fill="none" stroke="black"/>
<path d="M507.682,484.807v 3.38128" fill="none" stroke="black"/>
<path d="M523.609,484.807v 3.38128" fill="none" stroke="black"/>
<path d="M539.536,481.426v 6.76256" fill="none" stroke="black"/>
<text xml:space="preserve" x="60.2266" y="496.774" fill="black" font-size="8.91652" font-family="Helvetica">3</text>
<text xml:space="preserve" x="56.4345" y="496.774" fill="black" font-size="8.91652" font-family="Times">&#8722;</text>
<text xml:space="preserve" x="139.862" y="496.774" fill="black" font-size="8.91652" font-family="Helvetica">2</text>
<text xml:space="preserve" x="136.07" y="496.774" fill="black" font-size="8.91652" font-family="Times">&#8722;</text>
<text xml:space="preserve" x="220.446" y="496.774" fill="black" font-size="8.91652" font-family="Helvetica">1</text>
<text xml:space="preserve" x="215.706" y="496.774" fill="black" font-size="8.91652" font-family="Times">&#8722;</text>
<text xml:space="preserve" x="297.237" y="496.774" fill="black" font-size="8.91652" font-family="Helvetica">0</text>
<text xml:space="preserve" x="377.821" y="496.774" fill="black" font-size="8.91652" font-family="Helvetica">1</text>
<text xml:space="preserve" x="456.508" y="496.774" fill="black" font-size="8.91652" font-family="Helvetica">2</text>
<text xml:space="preserve" x="536.144" y="496.774" fill="black" font-size="8.91652" font-family="Helvetica">3</text>
<text xml:space="preserve" x="531.404" y="516.683" fill="black" font-size="14.9283" font-family="Times">&#0951;</text>
<text xml:space="preserve" x="507.702" y="516.683" fill="black" font-size="14.9283" font-family="Helvetica">Jet </text>
<path d="M61.7283,278.497h 477.808" fill="none" stroke="black"/>
<path d="M61.7283,285.259v -6.76256" fill="none" stroke="black"/>
<path d="M77.6553,281.878v -3.38128" fill="none" stroke="black"/>
<path d="M93.5822,281.878v -3.38128" fill="none" stroke="black"/>
<path d="M109.509,281.878v -3.38128" fill="none" stroke="black"/>
<path d="M125.436,281.878v -3.38128" fill="none" stroke="black"/>
<path d="M141.363,285.259v -6.76256" fill="none" stroke="black"/>
<path d="M157.29,281.878v -3.38128" fill="none" stroke="black"/>
<path d="M173.217,281.878v -3.38128" fill="none" stroke="black"/>
<path d="M189.144,281.878v -3.38128" fill="none" stroke="black"/>
<path d="M205.071,281.878v -3.38128" fill="none" stroke="black"/>
<path d="M220.998,285.259v -6.76256" fill="none" stroke="black"/>
<path d="M236.925,281.878v -3.38128" fill="none" stroke="black"/>
<path d="M252.852,281.878v -3.38128" fill="none" stroke="black"/>
<path d="M268.778,281.878v -3.38128" fill="none" stroke="black"/>
<path d="M284.705,281.878v -3.38128" fill="none" stroke="black"/>
<path d="M300.632,285.259v -6.76256" fill="none" stroke="black"/>
<path d="M316.559,281.878v -3.38128" fill="none" stroke="black"/>
<path d="M332.486,281.878v -3.38128" fill="none" stroke="black"/>
<path d="M348.413,281.878v -3.38128" fill="none" stroke="black"/>
<path d="M364.34,281.878v -3.38128" fill="none" stroke="black"/>
<path d="M380.267,285.259v -6.76256" fill="none" stroke="black"/>
<path d="M396.194,281.878v -3.38128" fill="none" stroke="black"/>
<path d="M412.121,281.878v -3.38128" fill="none" stroke="black"/>
<path d="M428.048,281.878v -3.38128" fill="none" stroke="black"/>
<path d="M443.975,281.878v -3.38128" fill="none" stroke="black"/>
<path d="M459.902,285.259v -6.76256" fill="none" stroke="black"/>
<path d="M475.828,281.878v -3.38128" fill="none" stroke="black"/>
<path d="M491.755,281.878v -3.38128" fill="none" stroke="black"/>
<path d="M507.682,281.878v -3.38128" fill="none" stroke="black"/>
<path d="M523.609,281.878v -3.38128" fill="none" stroke="black"/>
<path d="M539.536,285.259v -6.76256" fill="none" stroke="black"/>
<path d="M61.7283,488.189v -209.692" fill="none" stroke="black"/>
<path d="M75.0625,488.189h -13.3342" fill="none" stroke="black"/>
<path d="M68.3954,481.199h -6.66709" fill="none" stroke="black"/>
<path d="M68.3954,474.209h -6.66709" fill="none" stroke="black"/>
<path d="M68.3954,467.219h -6.66709" fill="none" stroke="black"/>
<path d="M68.3954,460.23h -6.66709" fill="none" stroke="black"/>
<path d="M75.0625,453.24h -13.3342" fill="none" stroke="black"/>
<path d="M68.3954,446.25h -6.66709" fill="none" stroke="black"/>
<path d="M68.3954,439.26h -6.66709" fill="none" stroke="black"/>
<path d="M68.3954,432.271h -6.66709" fill="none" stroke="black"/>
<path d="M68.3954,425.281h -6.66709" fill="none" stroke="black"/>
<path d="M75.0625,418.291h -13.3342" fill="none" stroke="black"/>
<path d="M68.3954,411.302h -6.66709" fill="none" stroke="black"/>
<path d="M68.3954,404.312h -6.66709" fill="none" stroke="black"/>
<path d="M68.3954,397.322h -6.66709" fill="none" stroke="black"/>
<path d="M68.3954,390.332h -6.66709" fill="none" stroke="black"/>
<path d="M75.0625,383.343h -13.3342" fill="none" stroke="black"/>
<path d="M68.3954,376.353h -6.66709" fill="none" stroke="black"/>
<path d="M68.3954,369.363h -6.66709" fill="none" stroke="black"/>
<path d="M68.3954,362.374h -6.66709" fill="none" stroke="black"/>
<path d="M68.3954,355.384h -6.66709" fill="none" stroke="black"/>
<path d="M75.0625,348.394h -13.3342" fill="none" stroke="black"/>
<path d="M68.3954,341.404h -6.66709" fill="none" stroke="black"/>
<path d="M68.3954,334.415h -6.66709" fill="none" stroke="black"/>
<path d="M68.3954,327.425h -6.66709" fill="none" stroke="black"/>
<path d="M68.3954,320.435h -6.66709" fill="none" stroke="black"/>
<path d="M75.0625,313.445h -13.3342" fill="none" stroke="black"/>
<path d="M68.3954,306.456h -6.66709" fill="none" stroke="black"/>
<path d="M68.3954,299.466h -6.66709" fill="none" stroke="black"/>
<path d="M68.3954,292.476h -6.66709" fill="none" stroke="black"/>
<path d="M68.3954,285.487h -6.66709" fill="none" stroke="black"/>
<path d="M75.0625,278.497h -13.3342" fill="none" stroke="black"/>
<text xml:space="preserve" x="53.5904" y="491.086" fill="black" font-size="8.91652" font-family="Helvetica">0</text>
<text xml:space="preserve" x="46.006" y="456.956" fill="black" font-size="8.91652" font-family="Helvetica">0.5</text>
<text xml:space="preserve" x="54.5384" y="421.879" fill="black" font-size="8.91652" font-family="Helvetica">1</text>
<text xml:space="preserve" x="46.006" y="386.801" fill="black" font-size="8.91652" font-family="Helvetica">1.5</text>
<text xml:space="preserve" x="53.5904" y="351.724" fill="black" font-size="8.91652" font-family="Helvetica">2</text>
<text xml:space="preserve" x="46.006" y="316.646" fill="black" font-size="8.91652" font-family="Helvetica">2.5</text>
<text xml:space="preserve" x="53.5904" y="281.568" fill="black" font-size="8.91652" font-family="Helvetica">3</text>
<g transform="rotate(-90,19.4608,458.852)">
<text xml:space="preserve" x="19.4608" y="458.852" fill="black" font-size="14.9283" font-family="Helvetica">True Background / Predicted</text>
</g>
<text xml:space="preserve" x="343.691" y="305.27" fill="black" font-size="14.9283" font-family="Helvetica">Fitting function</text>
<text xml:space="preserve" x="387.301" y="325.178" fill="black" font-size="14.9283" font-family="Helvetica">1.127458 + 0.008237*x</text>
<path d="M346.816,321.09h 34.0299" fill="none" stroke="#339966" stroke-width="2"/></svg>
