<?xml version="1.0" standalone="no"?>
<svg width="567.429" height="546.572" viewBox="0 0 567.429 546.572" xmlns="http://www.w3.org/2000/svg" shape-rendering="crispEdges">
<title>
/home/kuanyu/Documents/CMS/Background_Estimate/fake_rate/top_emu/plot/CT_Top(emu)_trk_dileppT_LO_SLO_2.svg
</title>
<desc>
Creator: ROOT Version 6.26/04
CreationDate: Tue Nov 15 21:47:36 2022</desc>
<defs>
</defs>
<rect x="0.5" y="0" width="566.929" height="546.072" fill="white"/>
<rect x="6.16929" y="5.46072" width="555.591" height="262.115" fill="white"/>
<rect x="61.7283" y="8.08187" width="477.808" height="259.493" fill="white"/>
<rect x="61.7283" y="8.08187" width="477.808" height="259.493" fill="none" stroke="black"/>
<rect x="61.7283" y="8.08187" width="477.808" height="259.493" fill="white"/>
<rect x="61.7283" y="8.08187" width="477.808" height="259.493" fill="none" stroke="black"/>
<path d="M67.8541,114.236v -3.20683" fill="none" stroke="#ff0000" stroke-width="2"/>
<path d="M67.8541,111.029v -3.01621" fill="none" stroke="#ff0000" stroke-width="2"/>
<path d="M61.7283,111.029h 6.12574" fill="none" stroke="#ff0000" stroke-width="2"/>
<path d="M67.8541,111.029h 6.12574" fill="none" stroke="#ff0000" stroke-width="2"/>
<g stroke="black" stroke-width="1" fill="none">
<line x1="66.8541" y1="111.029" x2="67.8541" y2="111.029"/>
</g>
<path d="M80.1056,84.4659v -2.38678" fill="none" stroke="#ff0000" stroke-width="2"/>
<path d="M80.1056,82.0791v -2.27957" fill="none" stroke="#ff0000" stroke-width="2"/>
<path d="M73.9798,82.0791h 6.12574" fill="none" stroke="#ff0000" stroke-width="2"/>
<path d="M80.1056,82.0791h 6.12574" fill="none" stroke="#ff0000" stroke-width="2"/>
<g stroke="black" stroke-width="1" fill="none">
<line x1="79.1056" y1="82.0791" x2="80.1056" y2="82.0791"/>
</g>
<path d="M92.3571,64.005v -2.03346" fill="none" stroke="#ff0000" stroke-width="2"/>
<path d="M92.3571,61.9715v -1.95512" fill="none" stroke="#ff0000" stroke-width="2"/>
<path d="M86.2313,61.9715h 6.12574" fill="none" stroke="#ff0000" stroke-width="2"/>
<path d="M92.3571,61.9715h 6.12574" fill="none" stroke="#ff0000" stroke-width="2"/>
<g stroke="black" stroke-width="1" fill="none">
<line x1="91.3571" y1="61.9715" x2="92.3571" y2="61.9715"/>
</g>
<path d="M104.609,51.7806v -1.69021" fill="none" stroke="#ff0000" stroke-width="2"/>
<path d="M104.609,50.0904v -1.63574" fill="none" stroke="#ff0000" stroke-width="2"/>
<path d="M98.4828,50.0904h 6.12574" fill="none" stroke="#ff0000" stroke-width="2"/>
<path d="M104.609,50.0904h 6.12574" fill="none" stroke="#ff0000" stroke-width="2"/>
<g stroke="black" stroke-width="1" fill="none">
<line x1="103.609" y1="50.0904" x2="104.609" y2="50.0904"/>
</g>
<path d="M116.86,43.912v -1.72441" fill="none" stroke="#ff0000" stroke-width="2"/>
<path d="M116.86,42.1876v -1.66775" fill="none" stroke="#ff0000" stroke-width="2"/>
<path d="M110.734,42.1876h 6.12574" fill="none" stroke="#ff0000" stroke-width="2"/>
<path d="M116.86,42.1876h 6.12574" fill="none" stroke="#ff0000" stroke-width="2"/>
<g stroke="black" stroke-width="1" fill="none">
<line x1="115.86" y1="42.1876" x2="116.86" y2="42.1876"/>
</g>
<path d="M129.112,45.7846v -1.669" fill="none" stroke="#ff0000" stroke-width="2"/>
<path d="M129.112,44.1156v -1.61586" fill="none" stroke="#ff0000" stroke-width="2"/>
<path d="M122.986,44.1156h 6.12574" fill="none" stroke="#ff0000" stroke-width="2"/>
<path d="M129.112,44.1156h 6.12574" fill="none" stroke="#ff0000" stroke-width="2"/>
<g stroke="black" stroke-width="1" fill="none">
<line x1="128.112" y1="44.1156" x2="129.112" y2="44.1156"/>
</g>
<path d="M141.363,59.5274v -1.90177" fill="none" stroke="#ff0000" stroke-width="2"/>
<path d="M141.363,57.6256v -1.83308" fill="none" stroke="#ff0000" stroke-width="2"/>
<path d="M135.237,57.6256h 6.12574" fill="none" stroke="#ff0000" stroke-width="2"/>
<path d="M141.363,57.6256h 6.12574" fill="none" stroke="#ff0000" stroke-width="2"/>
<g stroke="black" stroke-width="1" fill="none">
<line x1="140.363" y1="57.6256" x2="141.363" y2="57.6256"/>
</g>
<path d="M153.614,77.1121v -2.3585" fill="none" stroke="#ff0000" stroke-width="2"/>
<path d="M153.614,74.7536v -2.25376" fill="none" stroke="#ff0000" stroke-width="2"/>
<path d="M147.489,74.7536h 6.12574" fill="none" stroke="#ff0000" stroke-width="2"/>
<path d="M153.614,74.7536h 6.12574" fill="none" stroke="#ff0000" stroke-width="2"/>
<g stroke="black" stroke-width="1" fill="none">
<line x1="152.614" y1="74.7536" x2="153.614" y2="74.7536"/>
</g>
<path d="M165.866,92.5786v -2.84046" fill="none" stroke="#ff0000" stroke-width="2"/>
<path d="M165.866,89.7382v -2.68989" fill="none" stroke="#ff0000" stroke-width="2"/>
<path d="M159.74,89.7382h 6.12574" fill="none" stroke="#ff0000" stroke-width="2"/>
<path d="M165.866,89.7382h 6.12574" fill="none" stroke="#ff0000" stroke-width="2"/>
<g stroke="black" stroke-width="1" fill="none">
<line x1="164.866" y1="89.7382" x2="165.866" y2="89.7382"/>
</g>
<path d="M178.117,119.471v -3.58278" fill="none" stroke="#ff0000" stroke-width="2"/>
<path d="M178.117,115.889v -3.34648" fill="none" stroke="#ff0000" stroke-width="2"/>
<path d="M171.992,115.889h 6.12574" fill="none" stroke="#ff0000" stroke-width="2"/>
<path d="M178.117,115.889h 6.12574" fill="none" stroke="#ff0000" stroke-width="2"/>
<g stroke="black" stroke-width="1" fill="none">
<line x1="177.117" y1="115.889" x2="178.117" y2="115.889"/>
</g>
<path d="M190.369,140.078v -4.74643" fill="none" stroke="#ff0000" stroke-width="2"/>
<path d="M190.369,135.332v -4.34029" fill="none" stroke="#ff0000" stroke-width="2"/>
<path d="M184.243,135.332h 6.12574" fill="none" stroke="#ff0000" stroke-width="2"/>
<path d="M190.369,135.332h 6.12574" fill="none" stroke="#ff0000" stroke-width="2"/>
<g stroke="black" stroke-width="1" fill="none">
<line x1="189.369" y1="135.332" x2="190.369" y2="135.332"/>
</g>
<path d="M202.62,167.472v -6.03024" fill="none" stroke="#ff0000" stroke-width="2"/>
<path d="M202.62,161.442v -5.38929" fill="none" stroke="#ff0000" stroke-width="2"/>
<path d="M196.495,161.442h 6.12574" fill="none" stroke="#ff0000" stroke-width="2"/>
<path d="M202.62,161.442h 6.12574" fill="none" stroke="#ff0000" stroke-width="2"/>
<g stroke="black" stroke-width="1" fill="none">
<line x1="201.62" y1="161.442" x2="202.62" y2="161.442"/>
</g>
<path d="M214.872,212.581v -9.07447" fill="none" stroke="#ff0000" stroke-width="2"/>
<path d="M214.872,203.506v -7.69554" fill="none" stroke="#ff0000" stroke-width="2"/>
<path d="M208.746,203.506h 6.12574" fill="none" stroke="#ff0000" stroke-width="2"/>
<path d="M214.872,203.506h 6.12574" fill="none" stroke="#ff0000" stroke-width="2"/>
<g stroke="black" stroke-width="1" fill="none">
<line x1="213.872" y1="203.506" x2="214.872" y2="203.506"/>
</g>
<path d="M227.123,232.262v -13.1414" fill="none" stroke="#ff0000" stroke-width="2"/>
<path d="M227.123,219.121v -10.4292" fill="none" stroke="#ff0000" stroke-width="2"/>
<path d="M220.998,219.121h 6.12574" fill="none" stroke="#ff0000" stroke-width="2"/>
<path d="M227.123,219.121h 6.12574" fill="none" stroke="#ff0000" stroke-width="2"/>
<g stroke="black" stroke-width="1" fill="none">
<line x1="226.123" y1="219.121" x2="227.123" y2="219.121"/>
</g>
<path d="M294.507,232.393v -13.163" fill="none" stroke="#ff0000" stroke-width="2"/>
<path d="M294.507,219.23v -10.4428" fill="none" stroke="#ff0000" stroke-width="2"/>
<path d="M233.249,219.23h 61.2574" fill="none" stroke="#ff0000" stroke-width="2"/>
<path d="M294.507,219.23h 61.2574" fill="none" stroke="#ff0000" stroke-width="2"/>
<g stroke="black" stroke-width="1" fill="none">
<line x1="293.507" y1="219.23" x2="294.507" y2="219.23"/>
</g>
<path d="M61.7283,267.575h 477.808" fill="none" stroke="black"/>
<path d="M110.734,260.813v 6.76256" fill="none" stroke="black"/>
<path d="M122.986,264.194v 3.38128" fill="none" stroke="black"/>
<path d="M135.237,264.194v 3.38128" fill="none" stroke="black"/>
<path d="M147.489,264.194v 3.38128" fill="none" stroke="black"/>
<path d="M159.74,264.194v 3.38128" fill="none" stroke="black"/>
<path d="M171.992,260.813v 6.76256" fill="none" stroke="black"/>
<path d="M184.243,264.194v 3.38128" fill="none" stroke="black"/>
<path d="M196.495,264.194v 3.38128" fill="none" stroke="black"/>
<path d="M208.746,264.194v 3.38128" fill="none" stroke="black"/>
<path d="M220.998,264.194v 3.38128" fill="none" stroke="black"/>
<path d="M233.249,260.813v 6.76256" fill="none" stroke="black"/>
<path d="M245.501,264.194v 3.38128" fill="none" stroke="black"/>
<path d="M257.752,264.194v 3.38128" fill="none" stroke="black"/>
<path d="M270.004,264.194v 3.38128" fill="none" stroke="black"/>
<path d="M282.255,264.194v 3.38128" fill="none" stroke="black"/>
<path d="M294.507,260.813v 6.76256" fill="none" stroke="black"/>
<path d="M306.758,264.194v 3.38128" fill="none" stroke="black"/>
<path d="M319.01,264.194v 3.38128" fill="none" stroke="black"/>
<path d="M331.261,264.194v 3.38128" fill="none" stroke="black"/>
<path d="M343.512,264.194v 3.38128" fill="none" stroke="black"/>
<path d="M355.764,260.813v 6.76256" fill="none" stroke="black"/>
<path d="M368.015,264.194v 3.38128" fill="none" stroke="black"/>
<path d="M380.267,264.194v 3.38128" fill="none" stroke="black"/>
<path d="M392.518,264.194v 3.38128" fill="none" stroke="black"/>
<path d="M404.77,264.194v 3.38128" fill="none" stroke="black"/>
<path d="M417.021,260.813v 6.76256" fill="none" stroke="black"/>
<path d="M429.273,264.194v 3.38128" fill="none" stroke="black"/>
<path d="M441.524,264.194v 3.38128" fill="none" stroke="black"/>
<path d="M453.776,264.194v 3.38128" fill="none" stroke="black"/>
<path d="M466.027,264.194v 3.38128" fill="none" stroke="black"/>
<path d="M478.279,260.813v 6.76256" fill="none" stroke="black"/>
<path d="M490.53,264.194v 3.38128" fill="none" stroke="black"/>
<path d="M502.782,264.194v 3.38128" fill="none" stroke="black"/>
<path d="M515.033,264.194v 3.38128" fill="none" stroke="black"/>
<path d="M527.285,264.194v 3.38128" fill="none" stroke="black"/>
<path d="M539.536,260.813v 6.76256" fill="none" stroke="black"/>
<path d="M110.734,260.813v 6.76256" fill="none" stroke="black"/>
<path d="M98.4828,264.194v 3.38128" fill="none" stroke="black"/>
<path d="M86.2313,264.194v 3.38128" fill="none" stroke="black"/>
<path d="M73.9798,264.194v 3.38128" fill="none" stroke="black"/>
<path d="M61.7283,267.575v -259.493" fill="none" stroke="black"/>
<path d="M69.9789,238.432h -8.25052" fill="none" stroke="black"/>
<path d="M69.9789,217.851h -8.25052" fill="none" stroke="black"/>
<path d="M69.9789,203.249h -8.25052" fill="none" stroke="black"/>
<path d="M69.9789,191.923h -8.25052" fill="none" stroke="black"/>
<path d="M69.9789,182.669h -8.25052" fill="none" stroke="black"/>
<path d="M69.9789,174.845h -8.25052" fill="none" stroke="black"/>
<path d="M69.9789,168.067h -8.25052" fill="none" stroke="black"/>
<path d="M69.9789,162.089h -8.25052" fill="none" stroke="black"/>
<path d="M78.2294,156.741h -16.501" fill="none" stroke="black"/>
<text xml:space="preserve" x="47.9021" y="160.219" fill="black" font-size="8.91652" font-family="Helvetica">10</text>
<path d="M69.9789,121.558h -8.25052" fill="none" stroke="black"/>
<path d="M69.9789,100.978h -8.25052" fill="none" stroke="black"/>
<path d="M69.9789,86.3761h -8.25052" fill="none" stroke="black"/>
<path d="M69.9789,75.0499h -8.25052" fill="none" stroke="black"/>
<path d="M69.9789,65.7958h -8.25052" fill="none" stroke="black"/>
<path d="M69.9789,57.9715h -8.25052" fill="none" stroke="black"/>
<path d="M69.9789,51.1938h -8.25052" fill="none" stroke="black"/>
<path d="M69.9789,45.2154h -8.25052" fill="none" stroke="black"/>
<path d="M78.2294,39.8676h -16.501" fill="none" stroke="black"/>
<text xml:space="preserve" x="53.5904" y="39.8178" fill="black" font-size="6.11102" font-family="Helvetica">2</text>
<text xml:space="preserve" x="44.1099" y="44.558" fill="black" font-size="8.91652" font-family="Helvetica">10</text>
<g transform="rotate(-90,19.4608,52.1423)">
<text xml:space="preserve" x="19.4608" y="52.1423" fill="black" font-size="14.9283" font-family="Helvetica">nEvent</text>
</g>
<path d="M67.8541,101.554v -2.21159" fill="none" stroke="#006699" stroke-width="2"/>
<path d="M67.8541,99.3422v -2.11923" fill="none" stroke="#006699" stroke-width="2"/>
<g stroke="black" stroke-width="1" fill="none">
<line x1="66.8541" y1="99.3422" x2="67.8541" y2="99.3422"/>
</g>
<path d="M80.1056,82.0475v -1.30706" fill="none" stroke="#006699" stroke-width="2"/>
<path d="M80.1056,80.7405v -1.27424" fill="none" stroke="#006699" stroke-width="2"/>
<g stroke="black" stroke-width="1" fill="none">
<line x1="79.1056" y1="80.7405" x2="80.1056" y2="80.7405"/>
</g>
<path d="M92.3571,55.2105v -0.899408" fill="none" stroke="#006699" stroke-width="2"/>
<path d="M92.3571,54.3111v -0.883748" fill="none" stroke="#006699" stroke-width="2"/>
<g stroke="black" stroke-width="1" fill="none">
<line x1="91.3571" y1="54.3111" x2="92.3571" y2="54.3111"/>
</g>
<path d="M104.609,37.1435v -0.661388" fill="none" stroke="#006699" stroke-width="2"/>
<path d="M104.609,36.4821v -0.652881" fill="none" stroke="#006699" stroke-width="2"/>
<g stroke="black" stroke-width="1" fill="none">
<line x1="103.609" y1="36.4821" x2="104.609" y2="36.4821"/>
</g>
<path d="M116.86,32.9387v -0.567106" fill="none" stroke="#006699" stroke-width="2"/>
<path d="M116.86,32.3716v -0.56084" fill="none" stroke="#006699" stroke-width="2"/>
<g stroke="black" stroke-width="1" fill="none">
<line x1="115.86" y1="32.3716" x2="116.86" y2="32.3716"/>
</g>
<path d="M129.112,34.954v -0.517173" fill="none" stroke="#006699" stroke-width="2"/>
<path d="M129.112,34.4368v -0.511957" fill="none" stroke="#006699" stroke-width="2"/>
<g stroke="black" stroke-width="1" fill="none">
<line x1="128.112" y1="34.4368" x2="129.112" y2="34.4368"/>
</g>
<path d="M141.363,42.514v -0.508614" fill="none" stroke="#006699" stroke-width="2"/>
<path d="M141.363,42.0054v -0.503568" fill="none" stroke="#006699" stroke-width="2"/>
<g stroke="black" stroke-width="1" fill="none">
<line x1="140.363" y1="42.0054" x2="141.363" y2="42.0054"/>
</g>
<path d="M153.614,58.7812v -0.523529" fill="none" stroke="#006699" stroke-width="2"/>
<path d="M153.614,58.2577v -0.518184" fill="none" stroke="#006699" stroke-width="2"/>
<g stroke="black" stroke-width="1" fill="none">
<line x1="152.614" y1="58.2577" x2="153.614" y2="58.2577"/>
</g>
<path d="M165.866,81.8696v -0.566359" fill="none" stroke="#006699" stroke-width="2"/>
<path d="M165.866,81.3033v -0.560109" fill="none" stroke="#006699" stroke-width="2"/>
<g stroke="black" stroke-width="1" fill="none">
<line x1="164.866" y1="81.3033" x2="165.866" y2="81.3033"/>
</g>
<path d="M178.117,102.375v -0.625582" fill="none" stroke="#006699" stroke-width="2"/>
<path d="M178.117,101.749v -0.617966" fill="none" stroke="#006699" stroke-width="2"/>
<g stroke="black" stroke-width="1" fill="none">
<line x1="177.117" y1="101.749" x2="178.117" y2="101.749"/>
</g>
<path d="M190.369,126.546v -0.686861" fill="none" stroke="#006699" stroke-width="2"/>
<path d="M190.369,125.859v -0.67769" fill="none" stroke="#006699" stroke-width="2"/>
<g stroke="black" stroke-width="1" fill="none">
<line x1="189.369" y1="125.859" x2="190.369" y2="125.859"/>
</g>
<path d="M202.62,156.296v -0.779874" fill="none" stroke="#006699" stroke-width="2"/>
<path d="M202.62,155.516v -0.768072" fill="none" stroke="#006699" stroke-width="2"/>
<g stroke="black" stroke-width="1" fill="none">
<line x1="201.62" y1="155.516" x2="202.62" y2="155.516"/>
</g>
<path d="M214.872,194.852v -0.886495" fill="none" stroke="#006699" stroke-width="2"/>
<path d="M214.872,193.965v -0.871278" fill="none" stroke="#006699" stroke-width="2"/>
<g stroke="black" stroke-width="1" fill="none">
<line x1="213.872" y1="193.965" x2="214.872" y2="193.965"/>
</g>
<path d="M227.123,234.468v -0.997242" fill="none" stroke="#006699" stroke-width="2"/>
<path d="M227.123,233.471v -0.978026" fill="none" stroke="#006699" stroke-width="2"/>
<g stroke="black" stroke-width="1" fill="none">
<line x1="226.123" y1="233.471" x2="227.123" y2="233.471"/>
</g>
<path d="M294.507,205.969v -0.548238" fill="none" stroke="#006699" stroke-width="2"/>
<path d="M294.507,205.42v -0.54238" fill="none" stroke="#006699" stroke-width="2"/>
<g stroke="black" stroke-width="1" fill="none">
<line x1="293.507" y1="205.42" x2="294.507" y2="205.42"/>
</g>
<path d="M61.7283,99.3422h 12.2515v -18.6017h 12.2515v -26.4294h 12.2515v -17.829h 12.2515v -4.11052h 12.2515v 2.06528h 12.2515v 7.56858h 12.2515v 16.2523h 12.2515v 23.0456h 12.2515v 20.4461h 12.2515v 24.1097h 12.2515v 29.6569h 12.2515v 38.4493h
 12.2515v 39.5054h 12.2515v -28.0503h 122.515v 62.155h 183.772" fill="none" stroke="#006699" stroke-width="2"/>
<text xml:space="preserve" x="339.899" y="81.5316" fill="black" font-size="14.9283" font-family="Helvetica">True Background</text>
<path d="M298.837,78.2135h 34.011" fill="none" stroke="#ff0000" stroke-width="2"/>
<path d="M315.842,93.8562v -31.2854" fill="none" stroke="#ff0000" stroke-width="2"/>
<text xml:space="preserve" x="339.899" y="135.57" fill="black" font-size="14.9283" font-family="Helvetica">Predict</text>
<path d="M298.837,130.356h 34.011" fill="none" stroke="#006699" stroke-width="2"/>
<path d="M315.842,145.998v -31.2854" fill="none" stroke="#006699" stroke-width="2"/>
<rect x="6.16929" y="278.497" width="555.591" height="262.115" fill="white"/>
<rect x="61.7283" y="278.497" width="477.808" height="209.692" fill="white"/>
<rect x="61.7283" y="278.497" width="477.808" height="209.692" fill="none" stroke="black"/>
<rect x="61.7283" y="278.497" width="477.808" height="209.692" fill="white"/>
<rect x="61.7283" y="278.497" width="477.808" height="209.692" fill="none" stroke="black"/>
<path d="M67.8541,398.154v -7.25889" fill="none" stroke="black" stroke-width="2"/>
<path d="M67.8541,390.895v -7.25889" fill="none" stroke="black" stroke-width="2"/>
<path d="M61.7283,390.895h 6.12574" fill="none" stroke="black" stroke-width="2"/>
<path d="M67.8541,390.895h 6.12574" fill="none" stroke="black" stroke-width="2"/>
<g stroke="black" stroke-width="1" fill="none">
<line x1="66.8541" y1="390.895" x2="67.8541" y2="390.895"/>
</g>
<path d="M80.1056,375.155v -6.26314" fill="none" stroke="black" stroke-width="2"/>
<path d="M80.1056,368.892v -6.26314" fill="none" stroke="black" stroke-width="2"/>
<path d="M73.9798,368.892h 6.12574" fill="none" stroke="black" stroke-width="2"/>
<path d="M80.1056,368.892h 6.12574" fill="none" stroke="black" stroke-width="2"/>
<g stroke="black" stroke-width="1" fill="none">
<line x1="79.1056" y1="368.892" x2="80.1056" y2="368.892"/>
</g>
<path d="M92.3571,387.393v -4.53104" fill="none" stroke="black" stroke-width="2"/>
<path d="M92.3571,382.862v -4.53104" fill="none" stroke="black" stroke-width="2"/>
<path d="M86.2313,382.862h 6.12574" fill="none" stroke="black" stroke-width="2"/>
<path d="M92.3571,382.862h 6.12574" fill="none" stroke="black" stroke-width="2"/>
<g stroke="black" stroke-width="1" fill="none">
<line x1="91.3571" y1="382.862" x2="92.3571" y2="382.862"/>
</g>
<path d="M104.609,397.808v -3.29914" fill="none" stroke="black" stroke-width="2"/>
<path d="M104.609,394.509v -3.29914" fill="none" stroke="black" stroke-width="2"/>
<path d="M98.4828,394.509h 6.12574" fill="none" stroke="black" stroke-width="2"/>
<path d="M104.609,394.509h 6.12574" fill="none" stroke="black" stroke-width="2"/>
<g stroke="black" stroke-width="1" fill="none">
<line x1="103.609" y1="394.509" x2="104.609" y2="394.509"/>
</g>
<path d="M116.86,390.795v -3.55357" fill="none" stroke="black" stroke-width="2"/>
<path d="M116.86,387.242v -3.55357" fill="none" stroke="black" stroke-width="2"/>
<path d="M110.734,387.242h 6.12574" fill="none" stroke="black" stroke-width="2"/>
<path d="M116.86,387.242h 6.12574" fill="none" stroke="black" stroke-width="2"/>
<g stroke="black" stroke-width="1" fill="none">
<line x1="115.86" y1="387.242" x2="116.86" y2="387.242"/>
</g>
<path d="M129.112,390.4v -3.43122" fill="none" stroke="black" stroke-width="2"/>
<path d="M129.112,386.968v -3.43122" fill="none" stroke="black" stroke-width="2"/>
<path d="M122.986,386.968h 6.12574" fill="none" stroke="black" stroke-width="2"/>
<path d="M129.112,386.968h 6.12574" fill="none" stroke="black" stroke-width="2"/>
<g stroke="black" stroke-width="1" fill="none">
<line x1="128.112" y1="386.968" x2="129.112" y2="386.968"/>
</g>
<path d="M141.363,401.58v -3.4307" fill="none" stroke="black" stroke-width="2"/>
<path d="M141.363,398.15v -3.4307" fill="none" stroke="black" stroke-width="2"/>
<path d="M135.237,398.15h 6.12574" fill="none" stroke="black" stroke-width="2"/>
<path d="M141.363,398.15h 6.12574" fill="none" stroke="black" stroke-width="2"/>
<g stroke="black" stroke-width="1" fill="none">
<line x1="140.363" y1="398.15" x2="141.363" y2="398.15"/>
</g>
<path d="M153.614,403.809v -4.11947" fill="none" stroke="black" stroke-width="2"/>
<path d="M153.614,399.69v -4.11947" fill="none" stroke="black" stroke-width="2"/>
<path d="M147.489,399.69h 6.12574" fill="none" stroke="black" stroke-width="2"/>
<path d="M153.614,399.69h 6.12574" fill="none" stroke="black" stroke-width="2"/>
<g stroke="black" stroke-width="1" fill="none">
<line x1="152.614" y1="399.69" x2="153.614" y2="399.69"/>
</g>
<path d="M165.866,390.219v -5.76167" fill="none" stroke="black" stroke-width="2"/>
<path d="M165.866,384.457v -5.76167" fill="none" stroke="black" stroke-width="2"/>
<path d="M159.74,384.457h 6.12574" fill="none" stroke="black" stroke-width="2"/>
<path d="M165.866,384.457h 6.12574" fill="none" stroke="black" stroke-width="2"/>
<g stroke="black" stroke-width="1" fill="none">
<line x1="164.866" y1="384.457" x2="165.866" y2="384.457"/>
</g>
<path d="M178.117,401.903v -6.41932" fill="none" stroke="black" stroke-width="2"/>
<path d="M178.117,395.484v -6.41932" fill="none" stroke="black" stroke-width="2"/>
<path d="M171.992,395.484h 6.12574" fill="none" stroke="black" stroke-width="2"/>
<path d="M178.117,395.484h 6.12574" fill="none" stroke="black" stroke-width="2"/>
<g stroke="black" stroke-width="1" fill="none">
<line x1="177.117" y1="395.484" x2="178.117" y2="395.484"/>
</g>
<path d="M190.369,395.732v -9.17529" fill="none" stroke="black" stroke-width="2"/>
<path d="M190.369,386.556v -9.17529" fill="none" stroke="black" stroke-width="2"/>
<path d="M184.243,386.556h 6.12574" fill="none" stroke="black" stroke-width="2"/>
<path d="M190.369,386.556h 6.12574" fill="none" stroke="black" stroke-width="2"/>
<g stroke="black" stroke-width="1" fill="none">
<line x1="189.369" y1="386.556" x2="190.369" y2="386.556"/>
</g>
<path d="M202.62,391.522v -12.3213" fill="none" stroke="black" stroke-width="2"/>
<path d="M202.62,379.201v -12.3213" fill="none" stroke="black" stroke-width="2"/>
<path d="M196.495,379.201h 6.12574" fill="none" stroke="black" stroke-width="2"/>
<path d="M202.62,379.201h 6.12574" fill="none" stroke="black" stroke-width="2"/>
<g stroke="black" stroke-width="1" fill="none">
<line x1="201.62" y1="379.201" x2="202.62" y2="379.201"/>
</g>
<path d="M214.872,403.402v -16.7086" fill="none" stroke="black" stroke-width="2"/>
<path d="M214.872,386.693v -16.7086" fill="none" stroke="black" stroke-width="2"/>
<path d="M208.746,386.693h 6.12574" fill="none" stroke="black" stroke-width="2"/>
<path d="M214.872,386.693h 6.12574" fill="none" stroke="black" stroke-width="2"/>
<g stroke="black" stroke-width="1" fill="none">
<line x1="213.872" y1="386.693" x2="214.872" y2="386.693"/>
</g>
<path d="M227.123,362.887v -37.2024" fill="none" stroke="black" stroke-width="2"/>
<path d="M227.123,325.685v -37.2024" fill="none" stroke="black" stroke-width="2"/>
<path d="M220.998,325.685h 6.12574" fill="none" stroke="black" stroke-width="2"/>
<path d="M227.123,325.685h 6.12574" fill="none" stroke="black" stroke-width="2"/>
<g stroke="black" stroke-width="1" fill="none">
<line x1="226.123" y1="325.685" x2="227.123" y2="325.685"/>
</g>
<path d="M294.507,416.218v -21.3383" fill="none" stroke="black" stroke-width="2"/>
<path d="M294.507,394.88v -21.3383" fill="none" stroke="black" stroke-width="2"/>
<path d="M233.249,394.88h 61.2574" fill="none" stroke="black" stroke-width="2"/>
<path d="M294.507,394.88h 61.2574" fill="none" stroke="black" stroke-width="2"/>
<g stroke="black" stroke-width="1" fill="none">
<line x1="293.507" y1="394.88" x2="294.507" y2="394.88"/>
</g>
<path d="M64.1174,385.651l 4.77808, 0.344026l 4.77808, 0.344026l 4.77808, 0.344026l 4.77808, 0.344026l 4.77808, 0.344026l 4.77808, 0.344026l 4.77808, 0.344026l 4.77808, 0.344026l 4.77808, 0.344026l 4.77808, 0.344026l 4.77808, 0.344026l 4.77808,
 0.344026l 4.77808, 0.344026l 4.77808, 0.344026l 4.77808, 0.344026l 4.77808, 0.344026l 4.77808, 0.344026l 4.77808, 0.344026l 4.77808, 0.344026l 4.77808, 0.344026l 4.77808, 0.344026l 4.77808, 0.344026l 4.77808, 0.344026l 4.77808, 0.344026l 4.77808,
 0.344026l 4.77808, 0.344026l 4.77808, 0.344026l 4.77808, 0.344026l 4.77808, 0.344026l 4.77808, 0.344026l 4.77808, 0.344026l 4.77808, 0.344026l 4.77808, 0.344026l 4.77808, 0.344026l 4.77808, 0.344026l 4.77808, 0.344026l 4.77808, 0.344026l 4.77808,
 0.344026l 4.77808, 0.344026l 4.77808, 0.344026l 4.77808, 0.344026l 4.77808, 0.344026l 4.77808, 0.344026l 4.77808, 0.344026l 4.77808, 0.344026l 4.77808, 0.344026l 4.77808, 0.344026l 4.77808, 0.344026l 4.77808, 0.344026" fill="none" stroke="#339966"
 stroke-width="2"/>
<path d="M298.243,402.508l 4.77808, 0.344026l 4.77808, 0.344026l 4.77808, 0.344026l 4.77808, 0.344026l 4.77808, 0.344026l 4.77808, 0.344026l 4.77808, 0.344026l 4.77808, 0.344026l 4.77808, 0.344026l 4.77808, 0.344026l 4.77808, 0.344026l 4.77808,
 0.344026l 4.77808, 0.344026l 4.77808, 0.344026l 4.77808, 0.344026l 4.77808, 0.344026l 4.77808, 0.344026l 4.77808, 0.344026l 4.77808, 0.344026l 4.77808, 0.344026l 4.77808, 0.344026l 4.77808, 0.344026l 4.77808, 0.344026l 4.77808, 0.344026l 4.77808,
 0.344026l 4.77808, 0.344026l 4.77808, 0.344026l 4.77808, 0.344026l 4.77808, 0.344026l 4.77808, 0.344026l 4.77808, 0.344026l 4.77808, 0.344026l 4.77808, 0.344026l 4.77808, 0.344026l 4.77808, 0.344026l 4.77808, 0.344026l 4.77808, 0.344026l 4.77808,
 0.344026l 4.77808, 0.344026l 4.77808, 0.344026l 4.77808, 0.344026l 4.77808, 0.344026l 4.77808, 0.344026l 4.77808, 0.344026l 4.77808, 0.344026l 4.77808, 0.344026l 4.77808, 0.344026l 4.77808, 0.344026l 4.77808, 0.344026" fill="none" stroke="#339966"
 stroke-width="2"/>
<path d="M532.369,419.365l 4.77808, 0.344026" fill="none" stroke="#339966" stroke-width="2"/>
<path d="M61.7283,488.189h 477.808" fill="none" stroke="black"/>
<path d="M110.734,481.426v 6.76256" fill="none" stroke="black"/>
<path d="M122.986,484.807v 3.38128" fill="none" stroke="black"/>
<path d="M135.237,484.807v 3.38128" fill="none" stroke="black"/>
<path d="M147.489,484.807v 3.38128" fill="none" stroke="black"/>
<path d="M159.74,484.807v 3.38128" fill="none" stroke="black"/>
<path d="M171.992,481.426v 6.76256" fill="none" stroke="black"/>
<path d="M184.243,484.807v 3.38128" fill="none" stroke="black"/>
<path d="M196.495,484.807v 3.38128" fill="none" stroke="black"/>
<path d="M208.746,484.807v 3.38128" fill="none" stroke="black"/>
<path d="M220.998,484.807v 3.38128" fill="none" stroke="black"/>
<path d="M233.249,481.426v 6.76256" fill="none" stroke="black"/>
<path d="M245.501,484.807v 3.38128" fill="none" stroke="black"/>
<path d="M257.752,484.807v 3.38128" fill="none" stroke="black"/>
<path d="M270.004,484.807v 3.38128" fill="none" stroke="black"/>
<path d="M282.255,484.807v 3.38128" fill="none" stroke="black"/>
<path d="M294.507,481.426v 6.76256" fill="none" stroke="black"/>
<path d="M306.758,484.807v 3.38128" fill="none" stroke="black"/>
<path d="M319.01,484.807v 3.38128" fill="none" stroke="black"/>
<path d="M331.261,484.807v 3.38128" fill="none" stroke="black"/>
<path d="M343.512,484.807v 3.38128" fill="none" stroke="black"/>
<path d="M355.764,481.426v 6.76256" fill="none" stroke="black"/>
<path d="M368.015,484.807v 3.38128" fill="none" stroke="black"/>
<path d="M380.267,484.807v 3.38128" fill="none" stroke="black"/>
<path d="M392.518,484.807v 3.38128" fill="none" stroke="black"/>
<path d="M404.77,484.807v 3.38128" fill="none" stroke="black"/>
<path d="M417.021,481.426v 6.76256" fill="none" stroke="black"/>
<path d="M429.273,484.807v 3.38128" fill="none" stroke="black"/>
<path d="M441.524,484.807v 3.38128" fill="none" stroke="black"/>
<path d="M453.776,484.807v 3.38128" fill="none" stroke="black"/>
<path d="M466.027,484.807v 3.38128" fill="none" stroke="black"/>
<path d="M478.279,481.426v 6.76256" fill="none" stroke="black"/>
<path d="M490.53,484.807v 3.38128" fill="none" stroke="black"/>
<path d="M502.782,484.807v 3.38128" fill="none" stroke="black"/>
<path d="M515.033,484.807v 3.38128" fill="none" stroke="black"/>
<path d="M527.285,484.807v 3.38128" fill="none" stroke="black"/>
<path d="M539.536,481.426v 6.76256" fill="none" stroke="black"/>
<path d="M110.734,481.426v 6.76256" fill="none" stroke="black"/>
<path d="M98.4828,484.807v 3.38128" fill="none" stroke="black"/>
<path d="M86.2313,484.807v 3.38128" fill="none" stroke="black"/>
<path d="M73.9798,484.807v 3.38128" fill="none" stroke="black"/>
<text xml:space="preserve" x="107.629" y="496.774" fill="black" font-size="8.91652" font-family="Helvetica">5</text>
<text xml:space="preserve" x="166.407" y="496.774" fill="black" font-size="8.91652" font-family="Helvetica">10</text>
<text xml:space="preserve" x="228.03" y="496.774" fill="black" font-size="8.91652" font-family="Helvetica">15</text>
<text xml:space="preserve" x="289.653" y="496.774" fill="black" font-size="8.91652" font-family="Helvetica">20</text>
<text xml:space="preserve" x="350.328" y="496.774" fill="black" font-size="8.91652" font-family="Helvetica">25</text>
<text xml:space="preserve" x="411.95" y="496.774" fill="black" font-size="8.91652" font-family="Helvetica">30</text>
<text xml:space="preserve" x="472.625" y="496.774" fill="black" font-size="8.91652" font-family="Helvetica">35</text>
<text xml:space="preserve" x="534.248" y="496.774" fill="black" font-size="8.91652" font-family="Helvetica">40</text>
<text xml:space="preserve" x="433.755" y="516.683" fill="black" font-size="14.9283" font-family="Helvetica">Track multiplicity</text>
<path d="M61.7283,278.497h 477.808" fill="none" stroke="black"/>
<path d="M110.734,285.259v -6.76256" fill="none" stroke="black"/>
<path d="M122.986,281.878v -3.38128" fill="none" stroke="black"/>
<path d="M135.237,281.878v -3.38128" fill="none" stroke="black"/>
<path d="M147.489,281.878v -3.38128" fill="none" stroke="black"/>
<path d="M159.74,281.878v -3.38128" fill="none" stroke="black"/>
<path d="M171.992,285.259v -6.76256" fill="none" stroke="black"/>
<path d="M184.243,281.878v -3.38128" fill="none" stroke="black"/>
<path d="M196.495,281.878v -3.38128" fill="none" stroke="black"/>
<path d="M208.746,281.878v -3.38128" fill="none" stroke="black"/>
<path d="M220.998,281.878v -3.38128" fill="none" stroke="black"/>
<path d="M233.249,285.259v -6.76256" fill="none" stroke="black"/>
<path d="M245.501,281.878v -3.38128" fill="none" stroke="black"/>
<path d="M257.752,281.878v -3.38128" fill="none" stroke="black"/>
<path d="M270.004,281.878v -3.38128" fill="none" stroke="black"/>
<path d="M282.255,281.878v -3.38128" fill="none" stroke="black"/>
<path d="M294.507,285.259v -6.76256" fill="none" stroke="black"/>
<path d="M306.758,281.878v -3.38128" fill="none" stroke="black"/>
<path d="M319.01,281.878v -3.38128" fill="none" stroke="black"/>
<path d="M331.261,281.878v -3.38128" fill="none" stroke="black"/>
<path d="M343.512,281.878v -3.38128" fill="none" stroke="black"/>
<path d="M355.764,285.259v -6.76256" fill="none" stroke="black"/>
<path d="M368.015,281.878v -3.38128" fill="none" stroke="black"/>
<path d="M380.267,281.878v -3.38128" fill="none" stroke="black"/>
<path d="M392.518,281.878v -3.38128" fill="none" stroke="black"/>
<path d="M404.77,281.878v -3.38128" fill="none" stroke="black"/>
<path d="M417.021,285.259v -6.76256" fill="none" stroke="black"/>
<path d="M429.273,281.878v -3.38128" fill="none" stroke="black"/>
<path d="M441.524,281.878v -3.38128" fill="none" stroke="black"/>
<path d="M453.776,281.878v -3.38128" fill="none" stroke="black"/>
<path d="M466.027,281.878v -3.38128" fill="none" stroke="black"/>
<path d="M478.279,285.259v -6.76256" fill="none" stroke="black"/>
<path d="M490.53,281.878v -3.38128" fill="none" stroke="black"/>
<path d="M502.782,281.878v -3.38128" fill="none" stroke="black"/>
<path d="M515.033,281.878v -3.38128" fill="none" stroke="black"/>
<path d="M527.285,281.878v -3.38128" fill="none" stroke="black"/>
<path d="M539.536,285.259v -6.76256" fill="none" stroke="black"/>
<path d="M110.734,285.259v -6.76256" fill="none" stroke="black"/>
<path d="M98.4828,281.878v -3.38128" fill="none" stroke="black"/>
<path d="M86.2313,281.878v -3.38128" fill="none" stroke="black"/>
<path d="M73.9798,281.878v -3.38128" fill="none" stroke="black"/>
<path d="M61.7283,488.189v -209.692" fill="none" stroke="black"/>
<path d="M75.0625,488.189h -13.3342" fill="none" stroke="black"/>
<path d="M68.3954,482.064h -6.66709" fill="none" stroke="black"/>
<path d="M68.3954,475.94h -6.66709" fill="none" stroke="black"/>
<path d="M68.3954,469.816h -6.66709" fill="none" stroke="black"/>
<path d="M75.0625,463.692h -13.3342" fill="none" stroke="black"/>
<path d="M68.3954,457.567h -6.66709" fill="none" stroke="black"/>
<path d="M68.3954,451.443h -6.66709" fill="none" stroke="black"/>
<path d="M68.3954,445.319h -6.66709" fill="none" stroke="black"/>
<path d="M75.0625,439.195h -13.3342" fill="none" stroke="black"/>
<path d="M68.3954,433.07h -6.66709" fill="none" stroke="black"/>
<path d="M68.3954,426.946h -6.66709" fill="none" stroke="black"/>
<path d="M68.3954,420.822h -6.66709" fill="none" stroke="black"/>
<path d="M75.0625,414.698h -13.3342" fill="none" stroke="black"/>
<path d="M68.3954,408.574h -6.66709" fill="none" stroke="black"/>
<path d="M68.3954,402.449h -6.66709" fill="none" stroke="black"/>
<path d="M68.3954,396.325h -6.66709" fill="none" stroke="black"/>
<path d="M75.0625,390.201h -13.3342" fill="none" stroke="black"/>
<path d="M68.3954,384.077h -6.66709" fill="none" stroke="black"/>
<path d="M68.3954,377.952h -6.66709" fill="none" stroke="black"/>
<path d="M68.3954,371.828h -6.66709" fill="none" stroke="black"/>
<path d="M75.0625,365.704h -13.3342" fill="none" stroke="black"/>
<path d="M68.3954,359.58h -6.66709" fill="none" stroke="black"/>
<path d="M68.3954,353.456h -6.66709" fill="none" stroke="black"/>
<path d="M68.3954,347.331h -6.66709" fill="none" stroke="black"/>
<path d="M75.0625,341.207h -13.3342" fill="none" stroke="black"/>
<path d="M68.3954,335.083h -6.66709" fill="none" stroke="black"/>
<path d="M68.3954,328.959h -6.66709" fill="none" stroke="black"/>
<path d="M68.3954,322.834h -6.66709" fill="none" stroke="black"/>
<path d="M75.0625,316.71h -13.3342" fill="none" stroke="black"/>
<path d="M68.3954,310.586h -6.66709" fill="none" stroke="black"/>
<path d="M68.3954,304.462h -6.66709" fill="none" stroke="black"/>
<path d="M68.3954,298.337h -6.66709" fill="none" stroke="black"/>
<path d="M75.0625,292.213h -13.3342" fill="none" stroke="black"/>
<path d="M75.0625,292.213h -13.3342" fill="none" stroke="black"/>
<path d="M68.3954,286.089h -6.66709" fill="none" stroke="black"/>
<path d="M68.3954,279.965h -6.66709" fill="none" stroke="black"/>
<text xml:space="preserve" x="53.5904" y="491.086" fill="black" font-size="8.91652" font-family="Helvetica">0</text>
<text xml:space="preserve" x="46.006" y="467.385" fill="black" font-size="8.91652" font-family="Helvetica">0.2</text>
<text xml:space="preserve" x="46.006" y="442.736" fill="black" font-size="8.91652" font-family="Helvetica">0.4</text>
<text xml:space="preserve" x="46.006" y="418.087" fill="black" font-size="8.91652" font-family="Helvetica">0.6</text>
<text xml:space="preserve" x="46.006" y="393.437" fill="black" font-size="8.91652" font-family="Helvetica">0.8</text>
<text xml:space="preserve" x="54.5384" y="368.788" fill="black" font-size="8.91652" font-family="Helvetica">1</text>
<text xml:space="preserve" x="46.006" y="344.139" fill="black" font-size="8.91652" font-family="Helvetica">1.2</text>
<text xml:space="preserve" x="46.006" y="320.438" fill="black" font-size="8.91652" font-family="Helvetica">1.4</text>
<text xml:space="preserve" x="46.006" y="295.789" fill="black" font-size="8.91652" font-family="Helvetica">1.6</text>
<g transform="rotate(-90,19.4608,458.852)">
<text xml:space="preserve" x="19.4608" y="458.852" fill="black" font-size="14.9283" font-family="Helvetica">True Background / Predicted</text>
</g>
<text xml:space="preserve" x="312.406" y="323.282" fill="black" font-size="14.9283" font-family="Helvetica">Fitting function: par0 + par1*x</text>
<text xml:space="preserve" x="318.094" y="349.828" fill="black" font-size="14.9283" font-family="Helvetica">par0 : 0.845755 +- 0.0285872</text>
<text xml:space="preserve" x="318.094" y="375.425" fill="black" font-size="14.9283" font-family="Helvetica">par1 : -0.00720187 +- 0.00413518</text></svg>
