<?xml version="1.0" standalone="no"?>
<svg width="567.429" height="546.572" viewBox="0 0 567.429 546.572" xmlns="http://www.w3.org/2000/svg" shape-rendering="crispEdges">
<title>
/home/kuanyu/Documents/CMS/Background_Estimate/fake_rate/top_emu/plot/CT_Top(emu)_JetEta_LO_dileppT_LO.svg
</title>
<desc>
Creator: ROOT Version 6.26/04
CreationDate: Wed Nov 23 12:35:12 2022</desc>
<defs>
</defs>
<rect x="0.5" y="0" width="566.929" height="546.072" fill="white"/>
<rect x="6.16929" y="5.46072" width="555.591" height="262.115" fill="white"/>
<rect x="61.7283" y="8.08187" width="477.808" height="259.493" fill="white"/>
<rect x="61.7283" y="8.08187" width="477.808" height="259.493" fill="none" stroke="black"/>
<rect x="61.7283" y="8.08187" width="477.808" height="259.493" fill="white"/>
<rect x="61.7283" y="8.08187" width="477.808" height="259.493" fill="none" stroke="black"/>
<path d="M101.546,205.341v -11.5696" fill="none" stroke="#ff0000" stroke-width="2"/>
<path d="M101.546,193.771v -10.2475" fill="none" stroke="#ff0000" stroke-width="2"/>
<path d="M93.5822,193.771h 7.96346" fill="none" stroke="#ff0000" stroke-width="2"/>
<path d="M101.546,193.771h 7.96346" fill="none" stroke="#ff0000" stroke-width="2"/>
<g stroke="black" stroke-width="1" fill="none">
<line x1="100.546" y1="193.771" x2="101.546" y2="193.771"/>
</g>
<path d="M117.473,132.32v -9.29153" fill="none" stroke="#ff0000" stroke-width="2"/>
<path d="M117.473,123.028v -8.41953" fill="none" stroke="#ff0000" stroke-width="2"/>
<path d="M109.509,123.028h 7.96346" fill="none" stroke="#ff0000" stroke-width="2"/>
<path d="M117.473,123.028h 7.96346" fill="none" stroke="#ff0000" stroke-width="2"/>
<g stroke="black" stroke-width="1" fill="none">
<line x1="116.473" y1="123.028" x2="117.473" y2="123.028"/>
</g>
<path d="M133.4,140.897v -10.2679" fill="none" stroke="#ff0000" stroke-width="2"/>
<path d="M133.4,130.629v -9.21325" fill="none" stroke="#ff0000" stroke-width="2"/>
<path d="M125.436,130.629h 7.96346" fill="none" stroke="#ff0000" stroke-width="2"/>
<path d="M133.4,130.629h 7.96346" fill="none" stroke="#ff0000" stroke-width="2"/>
<g stroke="black" stroke-width="1" fill="none">
<line x1="132.4" y1="130.629" x2="133.4" y2="130.629"/>
</g>
<path d="M149.326,116.679v -8.32354" fill="none" stroke="#ff0000" stroke-width="2"/>
<path d="M149.326,108.355v -7.61695" fill="none" stroke="#ff0000" stroke-width="2"/>
<path d="M141.363,108.355h 7.96346" fill="none" stroke="#ff0000" stroke-width="2"/>
<path d="M149.326,108.355h 7.96346" fill="none" stroke="#ff0000" stroke-width="2"/>
<g stroke="black" stroke-width="1" fill="none">
<line x1="148.326" y1="108.355" x2="149.326" y2="108.355"/>
</g>
<path d="M165.253,114.586v -7.95524" fill="none" stroke="#ff0000" stroke-width="2"/>
<path d="M165.253,106.63v -7.3074" fill="none" stroke="#ff0000" stroke-width="2"/>
<path d="M157.29,106.63h 7.96346" fill="none" stroke="#ff0000" stroke-width="2"/>
<path d="M165.253,106.63h 7.96346" fill="none" stroke="#ff0000" stroke-width="2"/>
<g stroke="black" stroke-width="1" fill="none">
<line x1="164.253" y1="106.63" x2="165.253" y2="106.63"/>
</g>
<path d="M181.18,109.555v -8.40549" fill="none" stroke="#ff0000" stroke-width="2"/>
<path d="M181.18,101.15v -7.68551" fill="none" stroke="#ff0000" stroke-width="2"/>
<path d="M173.217,101.15h 7.96346" fill="none" stroke="#ff0000" stroke-width="2"/>
<path d="M181.18,101.15h 7.96346" fill="none" stroke="#ff0000" stroke-width="2"/>
<g stroke="black" stroke-width="1" fill="none">
<line x1="180.18" y1="101.15" x2="181.18" y2="101.15"/>
</g>
<path d="M197.107,95.5736v -6.31327" fill="none" stroke="#ff0000" stroke-width="2"/>
<path d="M197.107,89.2604v -5.89837" fill="none" stroke="#ff0000" stroke-width="2"/>
<path d="M189.144,89.2604h 7.96346" fill="none" stroke="#ff0000" stroke-width="2"/>
<path d="M197.107,89.2604h 7.96346" fill="none" stroke="#ff0000" stroke-width="2"/>
<g stroke="black" stroke-width="1" fill="none">
<line x1="196.107" y1="89.2604" x2="197.107" y2="89.2604"/>
</g>
<path d="M213.034,100.48v -7.21333" fill="none" stroke="#ff0000" stroke-width="2"/>
<path d="M213.034,93.267v -6.67666" fill="none" stroke="#ff0000" stroke-width="2"/>
<path d="M205.071,93.267h 7.96346" fill="none" stroke="#ff0000" stroke-width="2"/>
<path d="M213.034,93.267h 7.96346" fill="none" stroke="#ff0000" stroke-width="2"/>
<g stroke="black" stroke-width="1" fill="none">
<line x1="212.034" y1="93.267" x2="213.034" y2="93.267"/>
</g>
<path d="M228.961,89.7264v -6.72103" fill="none" stroke="#ff0000" stroke-width="2"/>
<path d="M228.961,83.0054v -6.25277" fill="none" stroke="#ff0000" stroke-width="2"/>
<path d="M220.998,83.0054h 7.96346" fill="none" stroke="#ff0000" stroke-width="2"/>
<path d="M228.961,83.0054h 7.96346" fill="none" stroke="#ff0000" stroke-width="2"/>
<g stroke="black" stroke-width="1" fill="none">
<line x1="227.961" y1="83.0054" x2="228.961" y2="83.0054"/>
</g>
<path d="M244.888,77.807v -6.38446" fill="none" stroke="#ff0000" stroke-width="2"/>
<path d="M244.888,71.4226v -5.96046" fill="none" stroke="#ff0000" stroke-width="2"/>
<path d="M236.925,71.4226h 7.96346" fill="none" stroke="#ff0000" stroke-width="2"/>
<path d="M244.888,71.4226h 7.96346" fill="none" stroke="#ff0000" stroke-width="2"/>
<g stroke="black" stroke-width="1" fill="none">
<line x1="243.888" y1="71.4226" x2="244.888" y2="71.4226"/>
</g>
<path d="M260.815,87.2826v -7.01157" fill="none" stroke="#ff0000" stroke-width="2"/>
<path d="M260.815,80.2711v -6.50346" fill="none" stroke="#ff0000" stroke-width="2"/>
<path d="M252.852,80.2711h 7.96346" fill="none" stroke="#ff0000" stroke-width="2"/>
<path d="M260.815,80.2711h 7.96346" fill="none" stroke="#ff0000" stroke-width="2"/>
<g stroke="black" stroke-width="1" fill="none">
<line x1="259.815" y1="80.2711" x2="260.815" y2="80.2711"/>
</g>
<path d="M276.742,97.2544v -7.27635" fill="none" stroke="#ff0000" stroke-width="2"/>
<path d="M276.742,89.978v -6.73062" fill="none" stroke="#ff0000" stroke-width="2"/>
<path d="M268.778,89.978h 7.96346" fill="none" stroke="#ff0000" stroke-width="2"/>
<path d="M276.742,89.978h 7.96346" fill="none" stroke="#ff0000" stroke-width="2"/>
<g stroke="black" stroke-width="1" fill="none">
<line x1="275.742" y1="89.978" x2="276.742" y2="89.978"/>
</g>
<path d="M292.669,108.033v -7.57567" fill="none" stroke="#ff0000" stroke-width="2"/>
<path d="M292.669,100.457v -6.98591" fill="none" stroke="#ff0000" stroke-width="2"/>
<path d="M284.705,100.457h 7.96346" fill="none" stroke="#ff0000" stroke-width="2"/>
<path d="M292.669,100.457h 7.96346" fill="none" stroke="#ff0000" stroke-width="2"/>
<g stroke="black" stroke-width="1" fill="none">
<line x1="291.669" y1="100.457" x2="292.669" y2="100.457"/>
</g>
<path d="M308.596,91.433v -6.37998" fill="none" stroke="#ff0000" stroke-width="2"/>
<path d="M308.596,85.0531v -5.95656" fill="none" stroke="#ff0000" stroke-width="2"/>
<path d="M300.632,85.0531h 7.96346" fill="none" stroke="#ff0000" stroke-width="2"/>
<path d="M308.596,85.0531h 7.96346" fill="none" stroke="#ff0000" stroke-width="2"/>
<g stroke="black" stroke-width="1" fill="none">
<line x1="307.596" y1="85.0531" x2="308.596" y2="85.0531"/>
</g>
<path d="M324.523,104.764v -7.17058" fill="none" stroke="#ff0000" stroke-width="2"/>
<path d="M324.523,97.5938v -6.64002" fill="none" stroke="#ff0000" stroke-width="2"/>
<path d="M316.559,97.5938h 7.96346" fill="none" stroke="#ff0000" stroke-width="2"/>
<path d="M324.523,97.5938h 7.96346" fill="none" stroke="#ff0000" stroke-width="2"/>
<g stroke="black" stroke-width="1" fill="none">
<line x1="323.523" y1="97.5938" x2="324.523" y2="97.5938"/>
</g>
<path d="M340.45,79.5538v -6.78161" fill="none" stroke="#ff0000" stroke-width="2"/>
<path d="M340.45,72.7721v -6.30516" fill="none" stroke="#ff0000" stroke-width="2"/>
<path d="M332.486,72.7721h 7.96346" fill="none" stroke="#ff0000" stroke-width="2"/>
<path d="M340.45,72.7721h 7.96346" fill="none" stroke="#ff0000" stroke-width="2"/>
<g stroke="black" stroke-width="1" fill="none">
<line x1="339.45" y1="72.7721" x2="340.45" y2="72.7721"/>
</g>
<path d="M356.377,85.7535v -6.76861" fill="none" stroke="#ff0000" stroke-width="2"/>
<path d="M356.377,78.9849v -6.29393" fill="none" stroke="#ff0000" stroke-width="2"/>
<path d="M348.413,78.9849h 7.96346" fill="none" stroke="#ff0000" stroke-width="2"/>
<path d="M356.377,78.9849h 7.96346" fill="none" stroke="#ff0000" stroke-width="2"/>
<g stroke="black" stroke-width="1" fill="none">
<line x1="355.377" y1="78.9849" x2="356.377" y2="78.9849"/>
</g>
<path d="M372.303,93.352v -7.08277" fill="none" stroke="#ff0000" stroke-width="2"/>
<path d="M372.303,86.2693v -6.56467" fill="none" stroke="#ff0000" stroke-width="2"/>
<path d="M364.34,86.2693h 7.96346" fill="none" stroke="#ff0000" stroke-width="2"/>
<path d="M372.303,86.2693h 7.96346" fill="none" stroke="#ff0000" stroke-width="2"/>
<g stroke="black" stroke-width="1" fill="none">
<line x1="371.303" y1="86.2693" x2="372.303" y2="86.2693"/>
</g>
<path d="M388.23,99.6043v -7.17256" fill="none" stroke="#ff0000" stroke-width="2"/>
<path d="M388.23,92.4317v -6.64172" fill="none" stroke="#ff0000" stroke-width="2"/>
<path d="M380.267,92.4317h 7.96346" fill="none" stroke="#ff0000" stroke-width="2"/>
<path d="M388.23,92.4317h 7.96346" fill="none" stroke="#ff0000" stroke-width="2"/>
<g stroke="black" stroke-width="1" fill="none">
<line x1="387.23" y1="92.4317" x2="388.23" y2="92.4317"/>
</g>
<path d="M404.157,90.9637v -6.7746" fill="none" stroke="#ff0000" stroke-width="2"/>
<path d="M404.157,84.1891v -6.2991" fill="none" stroke="#ff0000" stroke-width="2"/>
<path d="M396.194,84.1891h 7.96346" fill="none" stroke="#ff0000" stroke-width="2"/>
<path d="M404.157,84.1891h 7.96346" fill="none" stroke="#ff0000" stroke-width="2"/>
<g stroke="black" stroke-width="1" fill="none">
<line x1="403.157" y1="84.1891" x2="404.157" y2="84.1891"/>
</g>
<path d="M420.084,112.729v -7.82517" fill="none" stroke="#ff0000" stroke-width="2"/>
<path d="M420.084,104.904v -7.19752" fill="none" stroke="#ff0000" stroke-width="2"/>
<path d="M412.121,104.904h 7.96346" fill="none" stroke="#ff0000" stroke-width="2"/>
<path d="M420.084,104.904h 7.96346" fill="none" stroke="#ff0000" stroke-width="2"/>
<g stroke="black" stroke-width="1" fill="none">
<line x1="419.084" y1="104.904" x2="420.084" y2="104.904"/>
</g>
<path d="M436.011,110.491v -7.14429" fill="none" stroke="#ff0000" stroke-width="2"/>
<path d="M436.011,103.346v -6.61748" fill="none" stroke="#ff0000" stroke-width="2"/>
<path d="M428.048,103.346h 7.96346" fill="none" stroke="#ff0000" stroke-width="2"/>
<path d="M436.011,103.346h 7.96346" fill="none" stroke="#ff0000" stroke-width="2"/>
<g stroke="black" stroke-width="1" fill="none">
<line x1="435.011" y1="103.346" x2="436.011" y2="103.346"/>
</g>
<path d="M451.938,133.378v -8.61032" fill="none" stroke="#ff0000" stroke-width="2"/>
<path d="M451.938,124.768v -7.85637" fill="none" stroke="#ff0000" stroke-width="2"/>
<path d="M443.975,124.768h 7.96346" fill="none" stroke="#ff0000" stroke-width="2"/>
<path d="M451.938,124.768h 7.96346" fill="none" stroke="#ff0000" stroke-width="2"/>
<g stroke="black" stroke-width="1" fill="none">
<line x1="450.938" y1="124.768" x2="451.938" y2="124.768"/>
</g>
<path d="M467.865,136.608v -9.19184" fill="none" stroke="#ff0000" stroke-width="2"/>
<path d="M467.865,127.416v -8.3376" fill="none" stroke="#ff0000" stroke-width="2"/>
<path d="M459.902,127.416h 7.96346" fill="none" stroke="#ff0000" stroke-width="2"/>
<path d="M467.865,127.416h 7.96346" fill="none" stroke="#ff0000" stroke-width="2"/>
<g stroke="black" stroke-width="1" fill="none">
<line x1="466.865" y1="127.416" x2="467.865" y2="127.416"/>
</g>
<path d="M483.792,136.924v -8.81507" fill="none" stroke="#ff0000" stroke-width="2"/>
<path d="M483.792,128.109v -8.02646" fill="none" stroke="#ff0000" stroke-width="2"/>
<path d="M475.828,128.109h 7.96346" fill="none" stroke="#ff0000" stroke-width="2"/>
<path d="M483.792,128.109h 7.96346" fill="none" stroke="#ff0000" stroke-width="2"/>
<g stroke="black" stroke-width="1" fill="none">
<line x1="482.792" y1="128.109" x2="483.792" y2="128.109"/>
</g>
<path d="M499.719,195.724v -12.1408" fill="none" stroke="#ff0000" stroke-width="2"/>
<path d="M499.719,183.584v -10.6929" fill="none" stroke="#ff0000" stroke-width="2"/>
<path d="M491.755,183.584h 7.96346" fill="none" stroke="#ff0000" stroke-width="2"/>
<path d="M499.719,183.584h 7.96346" fill="none" stroke="#ff0000" stroke-width="2"/>
<g stroke="black" stroke-width="1" fill="none">
<line x1="498.719" y1="183.584" x2="499.719" y2="183.584"/>
</g>
<path d="M61.7283,267.575h 477.808" fill="none" stroke="black"/>
<path d="M61.7283,260.813v 6.76256" fill="none" stroke="black"/>
<path d="M77.6553,264.194v 3.38128" fill="none" stroke="black"/>
<path d="M93.5822,264.194v 3.38128" fill="none" stroke="black"/>
<path d="M109.509,264.194v 3.38128" fill="none" stroke="black"/>
<path d="M125.436,264.194v 3.38128" fill="none" stroke="black"/>
<path d="M141.363,260.813v 6.76256" fill="none" stroke="black"/>
<path d="M157.29,264.194v 3.38128" fill="none" stroke="black"/>
<path d="M173.217,264.194v 3.38128" fill="none" stroke="black"/>
<path d="M189.144,264.194v 3.38128" fill="none" stroke="black"/>
<path d="M205.071,264.194v 3.38128" fill="none" stroke="black"/>
<path d="M220.998,260.813v 6.76256" fill="none" stroke="black"/>
<path d="M236.925,264.194v 3.38128" fill="none" stroke="black"/>
<path d="M252.852,264.194v 3.38128" fill="none" stroke="black"/>
<path d="M268.778,264.194v 3.38128" fill="none" stroke="black"/>
<path d="M284.705,264.194v 3.38128" fill="none" stroke="black"/>
<path d="M300.632,260.813v 6.76256" fill="none" stroke="black"/>
<path d="M316.559,264.194v 3.38128" fill="none" stroke="black"/>
<path d="M332.486,264.194v 3.38128" fill="none" stroke="black"/>
<path d="M348.413,264.194v 3.38128" fill="none" stroke="black"/>
<path d="M364.34,264.194v 3.38128" fill="none" stroke="black"/>
<path d="M380.267,260.813v 6.76256" fill="none" stroke="black"/>
<path d="M396.194,264.194v 3.38128" fill="none" stroke="black"/>
<path d="M412.121,264.194v 3.38128" fill="none" stroke="black"/>
<path d="M428.048,264.194v 3.38128" fill="none" stroke="black"/>
<path d="M443.975,264.194v 3.38128" fill="none" stroke="black"/>
<path d="M459.902,260.813v 6.76256" fill="none" stroke="black"/>
<path d="M475.828,264.194v 3.38128" fill="none" stroke="black"/>
<path d="M491.755,264.194v 3.38128" fill="none" stroke="black"/>
<path d="M507.682,264.194v 3.38128" fill="none" stroke="black"/>
<path d="M523.609,264.194v 3.38128" fill="none" stroke="black"/>
<path d="M539.536,260.813v 6.76256" fill="none" stroke="black"/>
<path d="M61.7283,267.575v -259.493" fill="none" stroke="black"/>
<path d="M69.9789,247.012h -8.25052" fill="none" stroke="black"/>
<path d="M69.9789,221.182h -8.25052" fill="none" stroke="black"/>
<path d="M69.9789,201.147h -8.25052" fill="none" stroke="black"/>
<path d="M69.9789,184.777h -8.25052" fill="none" stroke="black"/>
<path d="M69.9789,170.937h -8.25052" fill="none" stroke="black"/>
<path d="M69.9789,158.948h -8.25052" fill="none" stroke="black"/>
<path d="M69.9789,148.372h -8.25052" fill="none" stroke="black"/>
<path d="M78.2294,138.913h -16.501" fill="none" stroke="black"/>
<text xml:space="preserve" x="47.9021" y="142.206" fill="black" font-size="8.91652" font-family="Helvetica">10</text>
<path d="M69.9789,76.6778h -8.25052" fill="none" stroke="black"/>
<path d="M69.9789,40.2728h -8.25052" fill="none" stroke="black"/>
<path d="M69.9789,14.4431h -8.25052" fill="none" stroke="black"/>
<g transform="rotate(-90,24.201,35.0776)">
<text xml:space="preserve" x="24.201" y="35.0776" fill="black" font-size="14.9283" font-family="Helvetica">nJet</text>
</g>
<path d="M101.546,177.796v -5.40776" fill="none" stroke="#006699" stroke-width="2"/>
<path d="M101.546,172.388v -5.10048" fill="none" stroke="#006699" stroke-width="2"/>
<g stroke="black" stroke-width="1" fill="none">
<line x1="100.546" y1="172.388" x2="101.546" y2="172.388"/>
</g>
<path d="M117.473,136.351v -3.64616" fill="none" stroke="#006699" stroke-width="2"/>
<path d="M117.473,132.705v -3.50385" fill="none" stroke="#006699" stroke-width="2"/>
<g stroke="black" stroke-width="1" fill="none">
<line x1="116.473" y1="132.705" x2="117.473" y2="132.705"/>
</g>
<path d="M133.4,145.209v -4.03153" fill="none" stroke="#006699" stroke-width="2"/>
<path d="M133.4,141.177v -3.85826" fill="none" stroke="#006699" stroke-width="2"/>
<g stroke="black" stroke-width="1" fill="none">
<line x1="132.4" y1="141.177" x2="133.4" y2="141.177"/>
</g>
<path d="M149.326,131.407v -3.45352" fill="none" stroke="#006699" stroke-width="2"/>
<path d="M149.326,127.954v -3.32559" fill="none" stroke="#006699" stroke-width="2"/>
<g stroke="black" stroke-width="1" fill="none">
<line x1="148.326" y1="127.954" x2="149.326" y2="127.954"/>
</g>
<path d="M165.253,131.712v -2.87267" fill="none" stroke="#006699" stroke-width="2"/>
<path d="M165.253,128.839v -2.7836" fill="none" stroke="#006699" stroke-width="2"/>
<g stroke="black" stroke-width="1" fill="none">
<line x1="164.253" y1="128.839" x2="165.253" y2="128.839"/>
</g>
<path d="M181.18,108.086v -2.76601" fill="none" stroke="#006699" stroke-width="2"/>
<path d="M181.18,105.32v -2.68334" fill="none" stroke="#006699" stroke-width="2"/>
<g stroke="black" stroke-width="1" fill="none">
<line x1="180.18" y1="105.32" x2="181.18" y2="105.32"/>
</g>
<path d="M197.107,90.2429v -2.54924" fill="none" stroke="#006699" stroke-width="2"/>
<path d="M197.107,87.6936v -2.47886" fill="none" stroke="#006699" stroke-width="2"/>
<g stroke="black" stroke-width="1" fill="none">
<line x1="196.107" y1="87.6936" x2="197.107" y2="87.6936"/>
</g>
<path d="M213.034,80.1627v -2.42835" fill="none" stroke="#006699" stroke-width="2"/>
<path d="M213.034,77.7344v -2.3644" fill="none" stroke="#006699" stroke-width="2"/>
<g stroke="black" stroke-width="1" fill="none">
<line x1="212.034" y1="77.7344" x2="213.034" y2="77.7344"/>
</g>
<path d="M228.961,80.5272v -2.45243" fill="none" stroke="#006699" stroke-width="2"/>
<path d="M228.961,78.0748v -2.38722" fill="none" stroke="#006699" stroke-width="2"/>
<g stroke="black" stroke-width="1" fill="none">
<line x1="227.961" y1="78.0748" x2="228.961" y2="78.0748"/>
</g>
<path d="M244.888,82.1339v -2.22301" fill="none" stroke="#006699" stroke-width="2"/>
<path d="M244.888,79.9109v -2.16929" fill="none" stroke="#006699" stroke-width="2"/>
<g stroke="black" stroke-width="1" fill="none">
<line x1="243.888" y1="79.9109" x2="244.888" y2="79.9109"/>
</g>
<path d="M260.815,74.4382v -2.17776" fill="none" stroke="#006699" stroke-width="2"/>
<path d="M260.815,72.2604v -2.12618" fill="none" stroke="#006699" stroke-width="2"/>
<g stroke="black" stroke-width="1" fill="none">
<line x1="259.815" y1="72.2604" x2="260.815" y2="72.2604"/>
</g>
<path d="M276.742,69.7238v -2.26763" fill="none" stroke="#006699" stroke-width="2"/>
<path d="M276.742,67.4562v -2.21176" fill="none" stroke="#006699" stroke-width="2"/>
<g stroke="black" stroke-width="1" fill="none">
<line x1="275.742" y1="67.4562" x2="276.742" y2="67.4562"/>
</g>
<path d="M292.669,68.7352v -2.11648" fill="none" stroke="#006699" stroke-width="2"/>
<path d="M292.669,66.6187v -2.06773" fill="none" stroke="#006699" stroke-width="2"/>
<g stroke="black" stroke-width="1" fill="none">
<line x1="291.669" y1="66.6187" x2="292.669" y2="66.6187"/>
</g>
<path d="M308.596,54.0001v -2.67947" fill="none" stroke="#006699" stroke-width="2"/>
<path d="M308.596,51.3206v -2.60182" fill="none" stroke="#006699" stroke-width="2"/>
<g stroke="black" stroke-width="1" fill="none">
<line x1="307.596" y1="51.3206" x2="308.596" y2="51.3206"/>
</g>
<path d="M324.523,72.9348v -2.17886" fill="none" stroke="#006699" stroke-width="2"/>
<path d="M324.523,70.756v -2.12723" fill="none" stroke="#006699" stroke-width="2"/>
<g stroke="black" stroke-width="1" fill="none">
<line x1="323.523" y1="70.756" x2="324.523" y2="70.756"/>
</g>
<path d="M340.45,73.6465v -2.21809" fill="none" stroke="#006699" stroke-width="2"/>
<path d="M340.45,71.4284v -2.16461" fill="none" stroke="#006699" stroke-width="2"/>
<g stroke="black" stroke-width="1" fill="none">
<line x1="339.45" y1="71.4284" x2="340.45" y2="71.4284"/>
</g>
<path d="M356.377,79.7667v -2.26948" fill="none" stroke="#006699" stroke-width="2"/>
<path d="M356.377,77.4972v -2.21353" fill="none" stroke="#006699" stroke-width="2"/>
<g stroke="black" stroke-width="1" fill="none">
<line x1="355.377" y1="77.4972" x2="356.377" y2="77.4972"/>
</g>
<path d="M372.303,81.5836v -2.27481" fill="none" stroke="#006699" stroke-width="2"/>
<path d="M372.303,79.3088v -2.21859" fill="none" stroke="#006699" stroke-width="2"/>
<g stroke="black" stroke-width="1" fill="none">
<line x1="371.303" y1="79.3088" x2="372.303" y2="79.3088"/>
</g>
<path d="M388.23,87.1104v -2.64272" fill="none" stroke="#006699" stroke-width="2"/>
<path d="M388.23,84.4677v -2.56715" fill="none" stroke="#006699" stroke-width="2"/>
<g stroke="black" stroke-width="1" fill="none">
<line x1="387.23" y1="84.4677" x2="388.23" y2="84.4677"/>
</g>
<path d="M404.157,89.5165v -2.58033" fill="none" stroke="#006699" stroke-width="2"/>
<path d="M404.157,86.9362v -2.50824" fill="none" stroke="#006699" stroke-width="2"/>
<g stroke="black" stroke-width="1" fill="none">
<line x1="403.157" y1="86.9362" x2="404.157" y2="86.9362"/>
</g>
<path d="M420.084,114.379v -2.80152" fill="none" stroke="#006699" stroke-width="2"/>
<path d="M420.084,111.577v -2.71674" fill="none" stroke="#006699" stroke-width="2"/>
<g stroke="black" stroke-width="1" fill="none">
<line x1="419.084" y1="111.577" x2="420.084" y2="111.577"/>
</g>
<path d="M436.011,135.467v -3.2899" fill="none" stroke="#006699" stroke-width="2"/>
<path d="M436.011,132.177v -3.1736" fill="none" stroke="#006699" stroke-width="2"/>
<g stroke="black" stroke-width="1" fill="none">
<line x1="435.011" y1="132.177" x2="436.011" y2="132.177"/>
</g>
<path d="M451.938,134.913v -3.62329" fill="none" stroke="#006699" stroke-width="2"/>
<path d="M451.938,131.289v -3.48272" fill="none" stroke="#006699" stroke-width="2"/>
<g stroke="black" stroke-width="1" fill="none">
<line x1="450.938" y1="131.289" x2="451.938" y2="131.289"/>
</g>
<path d="M467.865,151.08v -3.5053" fill="none" stroke="#006699" stroke-width="2"/>
<path d="M467.865,147.575v -3.37358" fill="none" stroke="#006699" stroke-width="2"/>
<g stroke="black" stroke-width="1" fill="none">
<line x1="466.865" y1="147.575" x2="467.865" y2="147.575"/>
</g>
<path d="M483.792,139.037v -4.0395" fill="none" stroke="#006699" stroke-width="2"/>
<path d="M483.792,134.997v -3.86556" fill="none" stroke="#006699" stroke-width="2"/>
<g stroke="black" stroke-width="1" fill="none">
<line x1="482.792" y1="134.997" x2="483.792" y2="134.997"/>
</g>
<path d="M499.719,178.134v -5.32736" fill="none" stroke="#006699" stroke-width="2"/>
<path d="M499.719,172.807v -5.02889" fill="none" stroke="#006699" stroke-width="2"/>
<g stroke="black" stroke-width="1" fill="none">
<line x1="498.719" y1="172.807" x2="499.719" y2="172.807"/>
</g>
<path d="M61.7283,267.575h 31.8539v -95.1872h 15.9269v -39.6831h 15.9269v 8.47207h 15.9269v -13.2234h 15.9269v 0.885239h 15.9269v -23.5186h 15.9269v -17.6268h 15.9269v -9.95924h 15.9269v 0.340399h 15.9269v 1.83612h 15.9269v -7.65051h 15.9269v
 -4.80425h 15.9269v -0.837478h 15.9269v -15.298h 15.9269v 19.4353h 15.9269v 0.672429h 15.9269v 6.06887h 15.9269v 1.81151h 15.9269v 5.15897h 15.9269v 2.46845h 15.9269v 24.641h 15.9269v 20.5995h 15.9269v -0.887369h 15.9269v 16.2854h 15.9269v -12.5772h
 15.9269v 37.8096h 15.9269v 94.7684h 31.8539" fill="none" stroke="#006699" stroke-width="2"/>
<text xml:space="preserve" x="300.081" y="150.739" fill="black" font-size="14.9283" font-family="Helvetica">True Background</text>
<path d="M259.019,147.421h 34.011" fill="none" stroke="#ff0000" stroke-width="2"/>
<path d="M276.025,163.063v -31.2854" fill="none" stroke="#ff0000" stroke-width="2"/>
<text xml:space="preserve" x="300.081" y="204.777" fill="black" font-size="14.9283" font-family="Helvetica">Predict</text>
<path d="M259.019,199.563h 34.011" fill="none" stroke="#006699" stroke-width="2"/>
<path d="M276.025,215.206v -31.2854" fill="none" stroke="#006699" stroke-width="2"/>
<rect x="6.16929" y="278.497" width="555.591" height="262.115" fill="white"/>
<rect x="61.7736" y="279.477" width="477.993" height="209.468" fill="white"/>
<rect x="61.7736" y="279.477" width="477.993" height="209.468" fill="none" stroke="black"/>
<rect x="61.7736" y="279.477" width="477.993" height="209.468" fill="white"/>
<rect x="61.7736" y="279.477" width="477.993" height="209.468" fill="none" stroke="black"/>
<path d="M101.606,397.916v -14.1204" fill="none" stroke="black" stroke-width="2"/>
<path d="M101.606,383.796v -14.1204" fill="none" stroke="black" stroke-width="2"/>
<path d="M93.6398,383.796h 7.96655" fill="none" stroke="black" stroke-width="2"/>
<path d="M101.606,383.796h 7.96655" fill="none" stroke="black" stroke-width="2"/>
<g stroke="black" stroke-width="1" fill="none">
<line x1="100.606" y1="383.796" x2="101.606" y2="383.796"/>
</g>
<path d="M117.539,356.098v -15.7614" fill="none" stroke="black" stroke-width="2"/>
<path d="M117.539,340.337v -15.7614" fill="none" stroke="black" stroke-width="2"/>
<path d="M109.573,340.337h 7.96655" fill="none" stroke="black" stroke-width="2"/>
<path d="M117.539,340.337h 7.96655" fill="none" stroke="black" stroke-width="2"/>
<g stroke="black" stroke-width="1" fill="none">
<line x1="116.539" y1="340.337" x2="117.539" y2="340.337"/>
</g>
<path d="M133.473,356.391v -17.5031" fill="none" stroke="black" stroke-width="2"/>
<path d="M133.473,338.888v -17.5031" fill="none" stroke="black" stroke-width="2"/>
<path d="M125.506,338.888h 7.96655" fill="none" stroke="black" stroke-width="2"/>
<path d="M133.473,338.888h 7.96655" fill="none" stroke="black" stroke-width="2"/>
<g stroke="black" stroke-width="1" fill="none">
<line x1="132.473" y1="338.888" x2="133.473" y2="338.888"/>
</g>
<path d="M149.406,338.947v -15.9736" fill="none" stroke="black" stroke-width="2"/>
<path d="M149.406,322.973v -15.9736" fill="none" stroke="black" stroke-width="2"/>
<path d="M141.439,322.973h 7.96655" fill="none" stroke="black" stroke-width="2"/>
<path d="M149.406,322.973h 7.96655" fill="none" stroke="black" stroke-width="2"/>
<g stroke="black" stroke-width="1" fill="none">
<line x1="148.406" y1="322.973" x2="149.406" y2="322.973"/>
</g>
<path d="M165.339,333.532v -15.4547" fill="none" stroke="black" stroke-width="2"/>
<path d="M165.339,318.078v -15.4547" fill="none" stroke="black" stroke-width="2"/>
<path d="M157.372,318.078h 7.96655" fill="none" stroke="black" stroke-width="2"/>
<path d="M165.339,318.078h 7.96655" fill="none" stroke="black" stroke-width="2"/>
<g stroke="black" stroke-width="1" fill="none">
<line x1="164.339" y1="318.078" x2="165.339" y2="318.078"/>
</g>
<path d="M181.272,362.368v -13.1909" fill="none" stroke="black" stroke-width="2"/>
<path d="M181.272,349.177v -13.1909" fill="none" stroke="black" stroke-width="2"/>
<path d="M173.305,349.177h 7.96655" fill="none" stroke="black" stroke-width="2"/>
<path d="M181.272,349.177h 7.96655" fill="none" stroke="black" stroke-width="2"/>
<g stroke="black" stroke-width="1" fill="none">
<line x1="180.272" y1="349.177" x2="181.272" y2="349.177"/>
</g>
<path d="M197.205,367.458v -9.62968" fill="none" stroke="black" stroke-width="2"/>
<path d="M197.205,357.828v -9.62968" fill="none" stroke="black" stroke-width="2"/>
<path d="M189.238,357.828h 7.96655" fill="none" stroke="black" stroke-width="2"/>
<path d="M197.205,357.828h 7.96655" fill="none" stroke="black" stroke-width="2"/>
<g stroke="black" stroke-width="1" fill="none">
<line x1="196.205" y1="357.828" x2="197.205" y2="357.828"/>
</g>
<path d="M213.138,385.883v -9.16666" fill="none" stroke="black" stroke-width="2"/>
<path d="M213.138,376.716v -9.16666" fill="none" stroke="black" stroke-width="2"/>
<path d="M205.172,376.716h 7.96655" fill="none" stroke="black" stroke-width="2"/>
<path d="M213.138,376.716h 7.96655" fill="none" stroke="black" stroke-width="2"/>
<g stroke="black" stroke-width="1" fill="none">
<line x1="212.138" y1="376.716" x2="213.138" y2="376.716"/>
</g>
<path d="M229.071,372.374v -9.7237" fill="none" stroke="black" stroke-width="2"/>
<path d="M229.071,362.65v -9.7237" fill="none" stroke="black" stroke-width="2"/>
<path d="M221.105,362.65h 7.96655" fill="none" stroke="black" stroke-width="2"/>
<path d="M229.071,362.65h 7.96655" fill="none" stroke="black" stroke-width="2"/>
<g stroke="black" stroke-width="1" fill="none">
<line x1="228.071" y1="362.65" x2="229.071" y2="362.65"/>
</g>
<path d="M245.004,352.977v -10.6859" fill="none" stroke="black" stroke-width="2"/>
<path d="M245.004,342.291v -10.6859" fill="none" stroke="black" stroke-width="2"/>
<path d="M237.038,342.291h 7.96655" fill="none" stroke="black" stroke-width="2"/>
<path d="M245.004,342.291h 7.96655" fill="none" stroke="black" stroke-width="2"/>
<g stroke="black" stroke-width="1" fill="none">
<line x1="244.004" y1="342.291" x2="245.004" y2="342.291"/>
</g>
<path d="M260.937,376.531v -9.62257" fill="none" stroke="black" stroke-width="2"/>
<path d="M260.937,366.909v -9.62257" fill="none" stroke="black" stroke-width="2"/>
<path d="M252.971,366.909h 7.96655" fill="none" stroke="black" stroke-width="2"/>
<path d="M260.937,366.909h 7.96655" fill="none" stroke="black" stroke-width="2"/>
<g stroke="black" stroke-width="1" fill="none">
<line x1="259.937" y1="366.909" x2="260.937" y2="366.909"/>
</g>
<path d="M276.871,393.608v -8.48674" fill="none" stroke="black" stroke-width="2"/>
<path d="M276.871,385.121v -8.48674" fill="none" stroke="black" stroke-width="2"/>
<path d="M268.904,385.121h 7.96655" fill="none" stroke="black" stroke-width="2"/>
<path d="M276.871,385.121h 7.96655" fill="none" stroke="black" stroke-width="2"/>
<g stroke="black" stroke-width="1" fill="none">
<line x1="275.871" y1="385.121" x2="276.871" y2="385.121"/>
</g>
<path d="M292.804,405.123v -7.70676" fill="none" stroke="black" stroke-width="2"/>
<path d="M292.804,397.416v -7.70676" fill="none" stroke="black" stroke-width="2"/>
<path d="M284.837,397.416h 7.96655" fill="none" stroke="black" stroke-width="2"/>
<path d="M292.804,397.416h 7.96655" fill="none" stroke="black" stroke-width="2"/>
<g stroke="black" stroke-width="1" fill="none">
<line x1="291.804" y1="397.416" x2="292.804" y2="397.416"/>
</g>
<path d="M308.737,404.146v -6.83869" fill="none" stroke="black" stroke-width="2"/>
<path d="M308.737,397.308v -6.83869" fill="none" stroke="black" stroke-width="2"/>
<path d="M300.77,397.308h 7.96655" fill="none" stroke="black" stroke-width="2"/>
<path d="M308.737,397.308h 7.96655" fill="none" stroke="black" stroke-width="2"/>
<g stroke="black" stroke-width="1" fill="none">
<line x1="307.737" y1="397.308" x2="308.737" y2="397.308"/>
</g>
<path d="M324.67,397.951v -7.95709" fill="none" stroke="black" stroke-width="2"/>
<path d="M324.67,389.994v -7.95709" fill="none" stroke="black" stroke-width="2"/>
<path d="M316.703,389.994h 7.96655" fill="none" stroke="black" stroke-width="2"/>
<path d="M324.67,389.994h 7.96655" fill="none" stroke="black" stroke-width="2"/>
<g stroke="black" stroke-width="1" fill="none">
<line x1="323.67" y1="389.994" x2="324.67" y2="389.994"/>
</g>
<path d="M340.603,367.588v -10.0859" fill="none" stroke="black" stroke-width="2"/>
<path d="M340.603,357.502v -10.0859" fill="none" stroke="black" stroke-width="2"/>
<path d="M332.636,357.502h 7.96655" fill="none" stroke="black" stroke-width="2"/>
<path d="M340.603,357.502h 7.96655" fill="none" stroke="black" stroke-width="2"/>
<g stroke="black" stroke-width="1" fill="none">
<line x1="339.603" y1="357.502" x2="340.603" y2="357.502"/>
</g>
<path d="M356.536,367.79v -10.0766" fill="none" stroke="black" stroke-width="2"/>
<path d="M356.536,357.713v -10.0766" fill="none" stroke="black" stroke-width="2"/>
<path d="M348.569,357.713h 7.96655" fill="none" stroke="black" stroke-width="2"/>
<path d="M356.536,357.713h 7.96655" fill="none" stroke="black" stroke-width="2"/>
<g stroke="black" stroke-width="1" fill="none">
<line x1="355.536" y1="357.713" x2="356.536" y2="357.713"/>
</g>
<path d="M372.469,375.335v -9.86206" fill="none" stroke="black" stroke-width="2"/>
<path d="M372.469,365.473v -9.86206" fill="none" stroke="black" stroke-width="2"/>
<path d="M364.503,365.473h 7.96655" fill="none" stroke="black" stroke-width="2"/>
<path d="M372.469,365.473h 7.96655" fill="none" stroke="black" stroke-width="2"/>
<g stroke="black" stroke-width="1" fill="none">
<line x1="371.469" y1="365.473" x2="372.469" y2="365.473"/>
</g>
<path d="M388.402,376.867v -10.0211" fill="none" stroke="black" stroke-width="2"/>
<path d="M388.402,366.845v -10.0211" fill="none" stroke="black" stroke-width="2"/>
<path d="M380.436,366.845h 7.96655" fill="none" stroke="black" stroke-width="2"/>
<path d="M388.402,366.845h 7.96655" fill="none" stroke="black" stroke-width="2"/>
<g stroke="black" stroke-width="1" fill="none">
<line x1="387.402" y1="366.845" x2="388.402" y2="366.845"/>
</g>
<path d="M404.335,362.106v -10.7308" fill="none" stroke="black" stroke-width="2"/>
<path d="M404.335,351.375v -10.7308" fill="none" stroke="black" stroke-width="2"/>
<path d="M396.369,351.375h 7.96655" fill="none" stroke="black" stroke-width="2"/>
<path d="M404.335,351.375h 7.96655" fill="none" stroke="black" stroke-width="2"/>
<g stroke="black" stroke-width="1" fill="none">
<line x1="403.335" y1="351.375" x2="404.335" y2="351.375"/>
</g>
<path d="M420.268,358.008v -12.7821" fill="none" stroke="black" stroke-width="2"/>
<path d="M420.268,345.226v -12.7821" fill="none" stroke="black" stroke-width="2"/>
<path d="M412.302,345.226h 7.96655" fill="none" stroke="black" stroke-width="2"/>
<path d="M420.268,345.226h 7.96655" fill="none" stroke="black" stroke-width="2"/>
<g stroke="black" stroke-width="1" fill="none">
<line x1="419.268" y1="345.226" x2="420.268" y2="345.226"/>
</g>
<path d="M436.202,320.548v -15.5482" fill="none" stroke="black" stroke-width="2"/>
<path d="M436.202,305v -15.5482" fill="none" stroke="black" stroke-width="2"/>
<path d="M428.235,305h 7.96655" fill="none" stroke="black" stroke-width="2"/>
<path d="M436.202,305h 7.96655" fill="none" stroke="black" stroke-width="2"/>
<g stroke="black" stroke-width="1" fill="none">
<line x1="435.202" y1="305" x2="436.202" y2="305"/>
</g>
<path d="M452.135,359.763v -14.2947" fill="none" stroke="black" stroke-width="2"/>
<path d="M452.135,345.468v -14.2947" fill="none" stroke="black" stroke-width="2"/>
<path d="M444.168,345.468h 7.96655" fill="none" stroke="black" stroke-width="2"/>
<path d="M452.135,345.468h 7.96655" fill="none" stroke="black" stroke-width="2"/>
<g stroke="black" stroke-width="1" fill="none">
<line x1="451.135" y1="345.468" x2="452.135" y2="345.468"/>
</g>
<path d="M468.068,339.399v -17.4645" fill="none" stroke="black" stroke-width="2"/>
<path d="M468.068,321.934v -17.4645" fill="none" stroke="black" stroke-width="2"/>
<path d="M460.101,321.934h 7.96655" fill="none" stroke="black" stroke-width="2"/>
<path d="M468.068,321.934h 7.96655" fill="none" stroke="black" stroke-width="2"/>
<g stroke="black" stroke-width="1" fill="none">
<line x1="467.068" y1="321.934" x2="468.068" y2="321.934"/>
</g>
<path d="M484.001,359.77v -14.8882" fill="none" stroke="black" stroke-width="2"/>
<path d="M484.001,344.882v -14.8882" fill="none" stroke="black" stroke-width="2"/>
<path d="M476.034,344.882h 7.96655" fill="none" stroke="black" stroke-width="2"/>
<path d="M484.001,344.882h 7.96655" fill="none" stroke="black" stroke-width="2"/>
<g stroke="black" stroke-width="1" fill="none">
<line x1="483.001" y1="344.882" x2="484.001" y2="344.882"/>
</g>
<path d="M499.934,387.057v -16.4457" fill="none" stroke="black" stroke-width="2"/>
<path d="M499.934,370.611v -16.4457" fill="none" stroke="black" stroke-width="2"/>
<path d="M491.967,370.611h 7.96655" fill="none" stroke="black" stroke-width="2"/>
<path d="M499.934,370.611h 7.96655" fill="none" stroke="black" stroke-width="2"/>
<g stroke="black" stroke-width="1" fill="none">
<line x1="498.934" y1="370.611" x2="499.934" y2="370.611"/>
</g>
<path d="M64.1635,369.764l 4.77993, -0.0683501l 4.77993, -0.0683501l 4.77993, -0.0683501l 4.77993, -0.0683501l 4.77993, -0.0683501l 4.77993, -0.0683501l 4.77993, -0.0683501l 4.77993, -0.0683501l 4.77993, -0.0683501l 4.77993, -0.0683501l 4.77993,
 -0.0683501l 4.77993, -0.0683501l 4.77993, -0.0683501l 4.77993, -0.0683501l 4.77993, -0.0683501l 4.77993, -0.0683501l 4.77993, -0.0683501l 4.77993, -0.0683501l 4.77993, -0.0683501l 4.77993, -0.0683501l 4.77993, -0.0683501l 4.77993, -0.0683501l
 4.77993, -0.0683501l 4.77993, -0.0683501l 4.77993, -0.0683501l 4.77993, -0.0683501l 4.77993, -0.0683501l 4.77993, -0.0683501l 4.77993, -0.0683501l 4.77993, -0.0683501l 4.77993, -0.0683501l 4.77993, -0.0683501l 4.77993, -0.0683501l 4.77993,
 -0.0683501l 4.77993, -0.0683501l 4.77993, -0.0683501l 4.77993, -0.0683501l 4.77993, -0.0683501l 4.77993, -0.0683501l 4.77993, -0.0683501l 4.77993, -0.0683501l 4.77993, -0.0683501l 4.77993, -0.0683501l 4.77993, -0.0683501l 4.77993, -0.0683501l
 4.77993, -0.0683501l 4.77993, -0.0683501l 4.77993, -0.0683501l 4.77993, -0.0683501" fill="none" stroke="#339966" stroke-width="2"/>
<path d="M298.38,366.415l 4.77993, -0.0683501l 4.77993, -0.0683501l 4.77993, -0.0683501l 4.77993, -0.0683501l 4.77993, -0.0683501l 4.77993, -0.0683501l 4.77993, -0.0683501l 4.77993, -0.0683501l 4.77993, -0.0683501l 4.77993, -0.0683501l 4.77993,
 -0.0683501l 4.77993, -0.0683501l 4.77993, -0.0683501l 4.77993, -0.0683501l 4.77993, -0.0683501l 4.77993, -0.0683501l 4.77993, -0.0683501l 4.77993, -0.0683501l 4.77993, -0.0683501l 4.77993, -0.0683501l 4.77993, -0.0683501l 4.77993, -0.0683501l
 4.77993, -0.0683501l 4.77993, -0.0683501l 4.77993, -0.0683501l 4.77993, -0.0683501l 4.77993, -0.0683501l 4.77993, -0.0683501l 4.77993, -0.0683501l 4.77993, -0.0683501l 4.77993, -0.0683501l 4.77993, -0.0683501l 4.77993, -0.0683501l 4.77993,
 -0.0683501l 4.77993, -0.0683501l 4.77993, -0.0683501l 4.77993, -0.0683501l 4.77993, -0.0683501l 4.77993, -0.0683501l 4.77993, -0.0683501l 4.77993, -0.0683501l 4.77993, -0.0683501l 4.77993, -0.0683501l 4.77993, -0.0683501l 4.77993, -0.0683501l
 4.77993, -0.0683501l 4.77993, -0.0683501l 4.77993, -0.0683501l 4.77993, -0.0683501" fill="none" stroke="#339966" stroke-width="2"/>
<path d="M532.597,363.065l 4.77993, -0.0683501" fill="none" stroke="#339966" stroke-width="2"/>
<path d="M61.7736,488.945h 477.993" fill="none" stroke="black"/>
<path d="M61.7736,482.179v 6.76518" fill="none" stroke="black"/>
<path d="M77.7067,485.562v 3.38259" fill="none" stroke="black"/>
<path d="M93.6398,485.562v 3.38259" fill="none" stroke="black"/>
<path d="M109.573,485.562v 3.38259" fill="none" stroke="black"/>
<path d="M125.506,485.562v 3.38259" fill="none" stroke="black"/>
<path d="M141.439,482.179v 6.76518" fill="none" stroke="black"/>
<path d="M157.372,485.562v 3.38259" fill="none" stroke="black"/>
<path d="M173.305,485.562v 3.38259" fill="none" stroke="black"/>
<path d="M189.238,485.562v 3.38259" fill="none" stroke="black"/>
<path d="M205.172,485.562v 3.38259" fill="none" stroke="black"/>
<path d="M221.105,482.179v 6.76518" fill="none" stroke="black"/>
<path d="M237.038,485.562v 3.38259" fill="none" stroke="black"/>
<path d="M252.971,485.562v 3.38259" fill="none" stroke="black"/>
<path d="M268.904,485.562v 3.38259" fill="none" stroke="black"/>
<path d="M284.837,485.562v 3.38259" fill="none" stroke="black"/>
<path d="M300.77,482.179v 6.76518" fill="none" stroke="black"/>
<path d="M316.703,485.562v 3.38259" fill="none" stroke="black"/>
<path d="M332.636,485.562v 3.38259" fill="none" stroke="black"/>
<path d="M348.569,485.562v 3.38259" fill="none" stroke="black"/>
<path d="M364.503,485.562v 3.38259" fill="none" stroke="black"/>
<path d="M380.436,482.179v 6.76518" fill="none" stroke="black"/>
<path d="M396.369,485.562v 3.38259" fill="none" stroke="black"/>
<path d="M412.302,485.562v 3.38259" fill="none" stroke="black"/>
<path d="M428.235,485.562v 3.38259" fill="none" stroke="black"/>
<path d="M444.168,485.562v 3.38259" fill="none" stroke="black"/>
<path d="M460.101,482.179v 6.76518" fill="none" stroke="black"/>
<path d="M476.034,485.562v 3.38259" fill="none" stroke="black"/>
<path d="M491.967,485.562v 3.38259" fill="none" stroke="black"/>
<path d="M507.901,485.562v 3.38259" fill="none" stroke="black"/>
<path d="M523.834,485.562v 3.38259" fill="none" stroke="black"/>
<path d="M539.767,482.179v 6.76518" fill="none" stroke="black"/>
<path d="M539.767,482.179v 6.76518" fill="none" stroke="black"/>
<text xml:space="preserve" x="60.2266" y="496.774" fill="black" font-size="8.91652" font-family="Helvetica">3</text>
<text xml:space="preserve" x="56.4345" y="496.774" fill="black" font-size="8.91652" font-family="Times">&#8722;</text>
<text xml:space="preserve" x="139.862" y="496.774" fill="black" font-size="8.91652" font-family="Helvetica">2</text>
<text xml:space="preserve" x="136.07" y="496.774" fill="black" font-size="8.91652" font-family="Times">&#8722;</text>
<text xml:space="preserve" x="220.446" y="496.774" fill="black" font-size="8.91652" font-family="Helvetica">1</text>
<text xml:space="preserve" x="215.706" y="496.774" fill="black" font-size="8.91652" font-family="Times">&#8722;</text>
<text xml:space="preserve" x="297.237" y="496.774" fill="black" font-size="8.91652" font-family="Helvetica">0</text>
<text xml:space="preserve" x="377.821" y="496.774" fill="black" font-size="8.91652" font-family="Helvetica">1</text>
<text xml:space="preserve" x="456.508" y="496.774" fill="black" font-size="8.91652" font-family="Helvetica">2</text>
<text xml:space="preserve" x="536.144" y="496.774" fill="black" font-size="8.91652" font-family="Helvetica">3</text>
<text xml:space="preserve" x="531.404" y="517.631" fill="black" font-size="14.9283" font-family="Times">&#0951;</text>
<text xml:space="preserve" x="507.702" y="517.631" fill="black" font-size="14.9283" font-family="Helvetica">Jet </text>
<path d="M61.7736,279.477h 477.993" fill="none" stroke="black"/>
<path d="M61.7736,286.242v -6.76518" fill="none" stroke="black"/>
<path d="M77.7067,282.86v -3.38259" fill="none" stroke="black"/>
<path d="M93.6398,282.86v -3.38259" fill="none" stroke="black"/>
<path d="M109.573,282.86v -3.38259" fill="none" stroke="black"/>
<path d="M125.506,282.86v -3.38259" fill="none" stroke="black"/>
<path d="M141.439,286.242v -6.76518" fill="none" stroke="black"/>
<path d="M157.372,282.86v -3.38259" fill="none" stroke="black"/>
<path d="M173.305,282.86v -3.38259" fill="none" stroke="black"/>
<path d="M189.238,282.86v -3.38259" fill="none" stroke="black"/>
<path d="M205.172,282.86v -3.38259" fill="none" stroke="black"/>
<path d="M221.105,286.242v -6.76518" fill="none" stroke="black"/>
<path d="M237.038,282.86v -3.38259" fill="none" stroke="black"/>
<path d="M252.971,282.86v -3.38259" fill="none" stroke="black"/>
<path d="M268.904,282.86v -3.38259" fill="none" stroke="black"/>
<path d="M284.837,282.86v -3.38259" fill="none" stroke="black"/>
<path d="M300.77,286.242v -6.76518" fill="none" stroke="black"/>
<path d="M316.703,282.86v -3.38259" fill="none" stroke="black"/>
<path d="M332.636,282.86v -3.38259" fill="none" stroke="black"/>
<path d="M348.569,282.86v -3.38259" fill="none" stroke="black"/>
<path d="M364.503,282.86v -3.38259" fill="none" stroke="black"/>
<path d="M380.436,286.242v -6.76518" fill="none" stroke="black"/>
<path d="M396.369,282.86v -3.38259" fill="none" stroke="black"/>
<path d="M412.302,282.86v -3.38259" fill="none" stroke="black"/>
<path d="M428.235,282.86v -3.38259" fill="none" stroke="black"/>
<path d="M444.168,282.86v -3.38259" fill="none" stroke="black"/>
<path d="M460.101,286.242v -6.76518" fill="none" stroke="black"/>
<path d="M476.034,282.86v -3.38259" fill="none" stroke="black"/>
<path d="M491.967,282.86v -3.38259" fill="none" stroke="black"/>
<path d="M507.901,282.86v -3.38259" fill="none" stroke="black"/>
<path d="M523.834,282.86v -3.38259" fill="none" stroke="black"/>
<path d="M539.767,286.242v -6.76518" fill="none" stroke="black"/>
<path d="M539.767,286.242v -6.76518" fill="none" stroke="black"/>
<path d="M61.7736,488.945v -209.468" fill="none" stroke="black"/>
<path d="M75.0935,488.945h -13.3199" fill="none" stroke="black"/>
<path d="M68.4335,482.273h -6.65996" fill="none" stroke="black"/>
<path d="M68.4335,475.602h -6.65996" fill="none" stroke="black"/>
<path d="M68.4335,468.931h -6.65996" fill="none" stroke="black"/>
<path d="M75.0935,462.26h -13.3199" fill="none" stroke="black"/>
<path d="M68.4335,455.589h -6.65996" fill="none" stroke="black"/>
<path d="M68.4335,448.917h -6.65996" fill="none" stroke="black"/>
<path d="M68.4335,442.246h -6.65996" fill="none" stroke="black"/>
<path d="M75.0935,435.575h -13.3199" fill="none" stroke="black"/>
<path d="M68.4335,428.904h -6.65996" fill="none" stroke="black"/>
<path d="M68.4335,422.233h -6.65996" fill="none" stroke="black"/>
<path d="M68.4335,415.561h -6.65996" fill="none" stroke="black"/>
<path d="M75.0935,408.89h -13.3199" fill="none" stroke="black"/>
<path d="M68.4335,402.219h -6.65996" fill="none" stroke="black"/>
<path d="M68.4335,395.548h -6.65996" fill="none" stroke="black"/>
<path d="M68.4335,388.876h -6.65996" fill="none" stroke="black"/>
<path d="M75.0935,382.205h -13.3199" fill="none" stroke="black"/>
<path d="M68.4335,375.534h -6.65996" fill="none" stroke="black"/>
<path d="M68.4335,368.863h -6.65996" fill="none" stroke="black"/>
<path d="M68.4335,362.192h -6.65996" fill="none" stroke="black"/>
<path d="M75.0935,355.52h -13.3199" fill="none" stroke="black"/>
<path d="M68.4335,348.849h -6.65996" fill="none" stroke="black"/>
<path d="M68.4335,342.178h -6.65996" fill="none" stroke="black"/>
<path d="M68.4335,335.507h -6.65996" fill="none" stroke="black"/>
<path d="M75.0935,328.836h -13.3199" fill="none" stroke="black"/>
<path d="M68.4335,322.164h -6.65996" fill="none" stroke="black"/>
<path d="M68.4335,315.493h -6.65996" fill="none" stroke="black"/>
<path d="M68.4335,308.822h -6.65996" fill="none" stroke="black"/>
<path d="M75.0935,302.151h -13.3199" fill="none" stroke="black"/>
<path d="M75.0935,302.151h -13.3199" fill="none" stroke="black"/>
<path d="M68.4335,295.48h -6.65996" fill="none" stroke="black"/>
<path d="M68.4335,288.808h -6.65996" fill="none" stroke="black"/>
<path d="M68.4335,282.137h -6.65996" fill="none" stroke="black"/>
<text xml:space="preserve" x="53.5904" y="492.034" fill="black" font-size="8.91652" font-family="Helvetica">0</text>
<text xml:space="preserve" x="46.006" y="465.489" fill="black" font-size="8.91652" font-family="Helvetica">0.2</text>
<text xml:space="preserve" x="46.006" y="438.943" fill="black" font-size="8.91652" font-family="Helvetica">0.4</text>
<text xml:space="preserve" x="46.006" y="412.398" fill="black" font-size="8.91652" font-family="Helvetica">0.6</text>
<text xml:space="preserve" x="46.006" y="385.853" fill="black" font-size="8.91652" font-family="Helvetica">0.8</text>
<text xml:space="preserve" x="54.5384" y="359.308" fill="black" font-size="8.91652" font-family="Helvetica">1</text>
<text xml:space="preserve" x="46.006" y="331.815" fill="black" font-size="8.91652" font-family="Helvetica">1.2</text>
<text xml:space="preserve" x="46.006" y="305.27" fill="black" font-size="8.91652" font-family="Helvetica">1.4</text>
<g transform="rotate(-90,19.4608,459.8)">
<text xml:space="preserve" x="19.4608" y="459.8" fill="black" font-size="14.9283" font-family="Helvetica">True Background / Predicted</text>
</g>
<text xml:space="preserve" x="328.523" y="417.138" fill="black" font-size="14.9283" font-family="Helvetica">Fitting function: par0 + par1*x</text>
<text xml:space="preserve" x="341.795" y="443.684" fill="black" font-size="14.9283" font-family="Helvetica">par0 : 0.918606 +- 0.0159045</text>
<text xml:space="preserve" x="341.795" y="469.281" fill="black" font-size="14.9283" font-family="Helvetica">par1 : 0.00853794 +- 0.0135811</text></svg>
