<?xml version="1.0" standalone="no"?>
<svg width="567.429" height="546.572" viewBox="0 0 567.429 546.572" xmlns="http://www.w3.org/2000/svg" shape-rendering="crispEdges">
<title>
/home/kuanyu/Documents/CMS/Background_Estimate/fake_rate/top_emu/plot/CT_Top(emu)_JetPt_dileppT_LO_SLO.svg
</title>
<desc>
Creator: ROOT Version 6.26/04
CreationDate: Fri Nov 11 16:08:51 2022</desc>
<defs>
</defs>
<rect x="0.5" y="0" width="566.929" height="546.072" fill="white"/>
<rect x="6.16929" y="5.46072" width="555.591" height="262.115" fill="white"/>
<rect x="61.7283" y="8.08187" width="477.808" height="259.493" fill="white"/>
<rect x="61.7283" y="8.08187" width="477.808" height="259.493" fill="none" stroke="black"/>
<rect x="61.7283" y="8.08187" width="477.808" height="259.493" fill="white"/>
<rect x="61.7283" y="8.08187" width="477.808" height="259.493" fill="none" stroke="black"/>
<path d="M76.0626,36.5171v -1.15774" fill="none" stroke="#ff0000" stroke-width="2"/>
<path d="M76.0626,35.3594v -1.12589" fill="none" stroke="#ff0000" stroke-width="2"/>
<path d="M71.2845,35.3594h 4.77808" fill="none" stroke="#ff0000" stroke-width="2"/>
<path d="M76.0626,35.3594h 4.77808" fill="none" stroke="#ff0000" stroke-width="2"/>
<g stroke="black" stroke-width="1" fill="none">
<line x1="75.0626" y1="35.3594" x2="76.0626" y2="35.3594"/>
</g>
<path d="M85.6187,48.5303v -1.31084" fill="none" stroke="#ff0000" stroke-width="2"/>
<path d="M85.6187,47.2195v -1.27015" fill="none" stroke="#ff0000" stroke-width="2"/>
<path d="M80.8407,47.2195h 4.77808" fill="none" stroke="#ff0000" stroke-width="2"/>
<path d="M85.6187,47.2195h 4.77808" fill="none" stroke="#ff0000" stroke-width="2"/>
<g stroke="black" stroke-width="1" fill="none">
<line x1="84.6187" y1="47.2195" x2="85.6187" y2="47.2195"/>
</g>
<path d="M95.1749,64.567v -1.60129" fill="none" stroke="#ff0000" stroke-width="2"/>
<path d="M95.1749,62.9657v -1.54098" fill="none" stroke="#ff0000" stroke-width="2"/>
<path d="M90.3968,62.9657h 4.77808" fill="none" stroke="#ff0000" stroke-width="2"/>
<path d="M95.1749,62.9657h 4.77808" fill="none" stroke="#ff0000" stroke-width="2"/>
<g stroke="black" stroke-width="1" fill="none">
<line x1="94.1749" y1="62.9657" x2="95.1749" y2="62.9657"/>
</g>
<path d="M104.731,85.3639v -2.10473" fill="none" stroke="#ff0000" stroke-width="2"/>
<path d="M104.731,83.2591v -2.00175" fill="none" stroke="#ff0000" stroke-width="2"/>
<path d="M99.953,83.2591h 4.77808" fill="none" stroke="#ff0000" stroke-width="2"/>
<path d="M104.731,83.2591h 4.77808" fill="none" stroke="#ff0000" stroke-width="2"/>
<g stroke="black" stroke-width="1" fill="none">
<line x1="103.731" y1="83.2591" x2="104.731" y2="83.2591"/>
</g>
<path d="M119.065,87.0822v -2.14018" fill="none" stroke="#ff0000" stroke-width="2"/>
<path d="M119.065,84.942v -2.03379" fill="none" stroke="#ff0000" stroke-width="2"/>
<path d="M109.509,84.942h 9.55616" fill="none" stroke="#ff0000" stroke-width="2"/>
<path d="M119.065,84.942h 9.55616" fill="none" stroke="#ff0000" stroke-width="2"/>
<g stroke="black" stroke-width="1" fill="none">
<line x1="118.065" y1="84.942" x2="119.065" y2="84.942"/>
</g>
<path d="M138.178,124.625v -3.82665" fill="none" stroke="#ff0000" stroke-width="2"/>
<path d="M138.178,120.798v -3.49921" fill="none" stroke="#ff0000" stroke-width="2"/>
<path d="M128.621,120.798h 9.55616" fill="none" stroke="#ff0000" stroke-width="2"/>
<path d="M138.178,120.798h 9.55616" fill="none" stroke="#ff0000" stroke-width="2"/>
<g stroke="black" stroke-width="1" fill="none">
<line x1="137.178" y1="120.798" x2="138.178" y2="120.798"/>
</g>
<path d="M160.475,168.363v -7.88026" fill="none" stroke="#ff0000" stroke-width="2"/>
<path d="M160.475,160.483v -6.60501" fill="none" stroke="#ff0000" stroke-width="2"/>
<path d="M147.734,160.483h 12.7415" fill="none" stroke="#ff0000" stroke-width="2"/>
<path d="M160.475,160.483h 12.7415" fill="none" stroke="#ff0000" stroke-width="2"/>
<g stroke="black" stroke-width="1" fill="none">
<line x1="159.475" y1="160.483" x2="160.475" y2="160.483"/>
</g>
<path d="M189.144,217.56v -14.1569" fill="none" stroke="#ff0000" stroke-width="2"/>
<path d="M189.144,203.403v -10.4981" fill="none" stroke="#ff0000" stroke-width="2"/>
<path d="M173.217,203.403h 15.9269" fill="none" stroke="#ff0000" stroke-width="2"/>
<path d="M189.144,203.403h 15.9269" fill="none" stroke="#ff0000" stroke-width="2"/>
<g stroke="black" stroke-width="1" fill="none">
<line x1="188.144" y1="203.403" x2="189.144" y2="203.403"/>
</g>
<path d="M372.303,239.211v -17.2568" fill="none" stroke="#ff0000" stroke-width="2"/>
<path d="M372.303,221.954v -12.1006" fill="none" stroke="#ff0000" stroke-width="2"/>
<path d="M205.071,221.954h 167.233" fill="none" stroke="#ff0000" stroke-width="2"/>
<path d="M372.303,221.954h 167.233" fill="none" stroke="#ff0000" stroke-width="2"/>
<g stroke="black" stroke-width="1" fill="none">
<line x1="371.303" y1="221.954" x2="372.303" y2="221.954"/>
</g>
<path d="M61.7283,267.575h 477.808" fill="none" stroke="black"/>
<path d="M61.7283,260.813v 6.76256" fill="none" stroke="black"/>
<path d="M77.6553,264.194v 3.38128" fill="none" stroke="black"/>
<path d="M93.5822,264.194v 3.38128" fill="none" stroke="black"/>
<path d="M109.509,264.194v 3.38128" fill="none" stroke="black"/>
<path d="M125.436,260.813v 6.76256" fill="none" stroke="black"/>
<path d="M141.363,264.194v 3.38128" fill="none" stroke="black"/>
<path d="M157.29,264.194v 3.38128" fill="none" stroke="black"/>
<path d="M173.217,264.194v 3.38128" fill="none" stroke="black"/>
<path d="M189.144,260.813v 6.76256" fill="none" stroke="black"/>
<path d="M205.071,264.194v 3.38128" fill="none" stroke="black"/>
<path d="M220.998,264.194v 3.38128" fill="none" stroke="black"/>
<path d="M236.925,264.194v 3.38128" fill="none" stroke="black"/>
<path d="M252.852,260.813v 6.76256" fill="none" stroke="black"/>
<path d="M268.778,264.194v 3.38128" fill="none" stroke="black"/>
<path d="M284.705,264.194v 3.38128" fill="none" stroke="black"/>
<path d="M300.632,264.194v 3.38128" fill="none" stroke="black"/>
<path d="M316.559,260.813v 6.76256" fill="none" stroke="black"/>
<path d="M332.486,264.194v 3.38128" fill="none" stroke="black"/>
<path d="M348.413,264.194v 3.38128" fill="none" stroke="black"/>
<path d="M364.34,264.194v 3.38128" fill="none" stroke="black"/>
<path d="M380.267,260.813v 6.76256" fill="none" stroke="black"/>
<path d="M396.194,264.194v 3.38128" fill="none" stroke="black"/>
<path d="M412.121,264.194v 3.38128" fill="none" stroke="black"/>
<path d="M428.048,264.194v 3.38128" fill="none" stroke="black"/>
<path d="M443.975,260.813v 6.76256" fill="none" stroke="black"/>
<path d="M459.902,264.194v 3.38128" fill="none" stroke="black"/>
<path d="M475.828,264.194v 3.38128" fill="none" stroke="black"/>
<path d="M491.755,264.194v 3.38128" fill="none" stroke="black"/>
<path d="M507.682,260.813v 6.76256" fill="none" stroke="black"/>
<path d="M507.682,260.813v 6.76256" fill="none" stroke="black"/>
<path d="M523.609,264.194v 3.38128" fill="none" stroke="black"/>
<path d="M61.7283,267.575v -259.493" fill="none" stroke="black"/>
<path d="M69.9789,262.34h -8.25052" fill="none" stroke="black"/>
<path d="M69.9789,254.88h -8.25052" fill="none" stroke="black"/>
<path d="M69.9789,248.572h -8.25052" fill="none" stroke="black"/>
<path d="M69.9789,243.107h -8.25052" fill="none" stroke="black"/>
<path d="M69.9789,238.288h -8.25052" fill="none" stroke="black"/>
<path d="M78.2294,233.976h -16.501" fill="none" stroke="black"/>
<text xml:space="preserve" x="53.5904" y="237.01" fill="black" font-size="8.91652" font-family="Helvetica">1</text>
<path d="M69.9789,205.612h -8.25052" fill="none" stroke="black"/>
<path d="M69.9789,189.02h -8.25052" fill="none" stroke="black"/>
<path d="M69.9789,177.248h -8.25052" fill="none" stroke="black"/>
<path d="M69.9789,168.117h -8.25052" fill="none" stroke="black"/>
<path d="M69.9789,160.656h -8.25052" fill="none" stroke="black"/>
<path d="M69.9789,154.348h -8.25052" fill="none" stroke="black"/>
<path d="M69.9789,148.884h -8.25052" fill="none" stroke="black"/>
<path d="M69.9789,144.064h -8.25052" fill="none" stroke="black"/>
<path d="M78.2294,139.753h -16.501" fill="none" stroke="black"/>
<text xml:space="preserve" x="47.9021" y="143.154" fill="black" font-size="8.91652" font-family="Helvetica">10</text>
<path d="M69.9789,111.389h -8.25052" fill="none" stroke="black"/>
<path d="M69.9789,94.7968h -8.25052" fill="none" stroke="black"/>
<path d="M69.9789,83.0247h -8.25052" fill="none" stroke="black"/>
<path d="M69.9789,73.8935h -8.25052" fill="none" stroke="black"/>
<path d="M69.9789,66.4328h -8.25052" fill="none" stroke="black"/>
<path d="M69.9789,60.1248h -8.25052" fill="none" stroke="black"/>
<path d="M69.9789,54.6606h -8.25052" fill="none" stroke="black"/>
<path d="M69.9789,49.8408h -8.25052" fill="none" stroke="black"/>
<path d="M78.2294,45.5294h -16.501" fill="none" stroke="black"/>
<text xml:space="preserve" x="53.5904" y="45.506" fill="black" font-size="6.11102" font-family="Helvetica">2</text>
<text xml:space="preserve" x="44.1099" y="50.2462" fill="black" font-size="8.91652" font-family="Helvetica">10</text>
<path d="M69.9789,17.1653h -8.25052" fill="none" stroke="black"/>
<g transform="rotate(-90,19.4608,52.1423)">
<text xml:space="preserve" x="19.4608" y="52.1423" fill="black" font-size="14.9283" font-family="Helvetica">nEvent</text>
</g>
<path d="M76.0626,32.8118v -0.440353" fill="none" stroke="#006699" stroke-width="2"/>
<path d="M76.0626,32.3714v -0.435665" fill="none" stroke="#006699" stroke-width="2"/>
<g stroke="black" stroke-width="1" fill="none">
<line x1="75.0626" y1="32.3714" x2="76.0626" y2="32.3714"/>
</g>
<path d="M85.6187,53.0743v -0.478751" fill="none" stroke="#006699" stroke-width="2"/>
<path d="M85.6187,52.5956v -0.473215" fill="none" stroke="#006699" stroke-width="2"/>
<g stroke="black" stroke-width="1" fill="none">
<line x1="84.6187" y1="52.5956" x2="85.6187" y2="52.5956"/>
</g>
<path d="M95.1749,75.5672v -0.59433" fill="none" stroke="#006699" stroke-width="2"/>
<path d="M95.1749,74.9729v -0.585821" fill="none" stroke="#006699" stroke-width="2"/>
<g stroke="black" stroke-width="1" fill="none">
<line x1="94.1749" y1="74.9729" x2="95.1749" y2="74.9729"/>
</g>
<path d="M104.731,97.5776v -0.771221" fill="none" stroke="#006699" stroke-width="2"/>
<path d="M104.731,96.8063v -0.756955" fill="none" stroke="#006699" stroke-width="2"/>
<g stroke="black" stroke-width="1" fill="none">
<line x1="103.731" y1="96.8063" x2="104.731" y2="96.8063"/>
</g>
<path d="M119.065,98.8355v -0.762526" fill="none" stroke="#006699" stroke-width="2"/>
<path d="M119.065,98.0729v -0.748576" fill="none" stroke="#006699" stroke-width="2"/>
<g stroke="black" stroke-width="1" fill="none">
<line x1="118.065" y1="98.0729" x2="119.065" y2="98.0729"/>
</g>
<path d="M138.178,132.542v -1.22073" fill="none" stroke="#006699" stroke-width="2"/>
<path d="M138.178,131.321v -1.18536" fill="none" stroke="#006699" stroke-width="2"/>
<g stroke="black" stroke-width="1" fill="none">
<line x1="137.178" y1="131.321" x2="138.178" y2="131.321"/>
</g>
<path d="M160.475,156.404v -1.73693" fill="none" stroke="#006699" stroke-width="2"/>
<path d="M160.475,154.667v -1.66619" fill="none" stroke="#006699" stroke-width="2"/>
<g stroke="black" stroke-width="1" fill="none">
<line x1="159.475" y1="154.667" x2="160.475" y2="154.667"/>
</g>
<path d="M189.144,185.806v -1.81951" fill="none" stroke="#006699" stroke-width="2"/>
<path d="M189.144,183.986v -1.74204" fill="none" stroke="#006699" stroke-width="2"/>
<g stroke="black" stroke-width="1" fill="none">
<line x1="188.144" y1="183.986" x2="189.144" y2="183.986"/>
</g>
<path d="M372.303,193.463v -2.30776" fill="none" stroke="#006699" stroke-width="2"/>
<path d="M372.303,191.155v -2.18453" fill="none" stroke="#006699" stroke-width="2"/>
<g stroke="black" stroke-width="1" fill="none">
<line x1="371.303" y1="191.155" x2="372.303" y2="191.155"/>
</g>
<path d="M61.7283,267.575h 9.55616v -235.204h 9.55616v 20.2241h 9.55616v 22.3773h 9.55616v 21.8335h 9.55616v 1.26659h 19.1123v 33.2486h 19.1123v 23.346h 25.4831v 29.3189h 31.8539v 7.16858h 334.466" fill="none" stroke="#006699" stroke-width="2"/>
<text xml:space="preserve" x="303.873" y="87.2199" fill="black" font-size="14.9283" font-family="Helvetica">True Background</text>
<path d="M263.477,84.0951h 34.0299" fill="none" stroke="#ff0000" stroke-width="2"/>
<path d="M280.492,99.822v -31.4538" fill="none" stroke="#ff0000" stroke-width="2"/>
<text xml:space="preserve" x="303.873" y="142.206" fill="black" font-size="14.9283" font-family="Helvetica">Predict</text>
<path d="M263.477,136.518h 34.0299" fill="none" stroke="#006699" stroke-width="2"/>
<path d="M280.492,152.245v -31.4538" fill="none" stroke="#006699" stroke-width="2"/>
<rect x="6.16929" y="278.497" width="555.591" height="262.115" fill="white"/>
<rect x="62.9633" y="279.477" width="477.696" height="209.468" fill="white"/>
<rect x="62.9633" y="279.477" width="477.696" height="209.468" fill="none" stroke="black"/>
<rect x="62.9633" y="279.477" width="477.696" height="209.468" fill="white"/>
<rect x="62.9633" y="279.477" width="477.696" height="209.468" fill="none" stroke="black"/>
<path d="M77.2942,366.305v -3.77719" fill="none" stroke="black" stroke-width="2"/>
<path d="M77.2942,362.528v -3.77719" fill="none" stroke="black" stroke-width="2"/>
<path d="M72.5173,362.528h 4.77696" fill="none" stroke="black" stroke-width="2"/>
<path d="M77.2942,362.528h 4.77696" fill="none" stroke="black" stroke-width="2"/>
<g stroke="black" stroke-width="1" fill="none">
<line x1="76.2942" y1="362.528" x2="77.2942" y2="362.528"/>
</g>
<path d="M86.8481,339.07v -5.21139" fill="none" stroke="black" stroke-width="2"/>
<path d="M86.8481,333.858v -5.21139" fill="none" stroke="black" stroke-width="2"/>
<path d="M82.0712,333.858h 4.77696" fill="none" stroke="black" stroke-width="2"/>
<path d="M86.8481,333.858h 4.77696" fill="none" stroke="black" stroke-width="2"/>
<g stroke="black" stroke-width="1" fill="none">
<line x1="85.8481" y1="333.858" x2="86.8481" y2="333.858"/>
</g>
<path d="M96.402,314.052v -7.47624" fill="none" stroke="black" stroke-width="2"/>
<path d="M96.402,306.576v -7.47624" fill="none" stroke="black" stroke-width="2"/>
<path d="M91.6251,306.576h 4.77696" fill="none" stroke="black" stroke-width="2"/>
<path d="M96.402,306.576h 4.77696" fill="none" stroke="black" stroke-width="2"/>
<g stroke="black" stroke-width="1" fill="none">
<line x1="95.402" y1="306.576" x2="96.402" y2="306.576"/>
</g>
<path d="M105.956,309.712v -10.1304" fill="none" stroke="black" stroke-width="2"/>
<path d="M105.956,299.582v -10.1304" fill="none" stroke="black" stroke-width="2"/>
<path d="M101.179,299.582h 4.77696" fill="none" stroke="black" stroke-width="2"/>
<path d="M105.956,299.582h 4.77696" fill="none" stroke="black" stroke-width="2"/>
<g stroke="black" stroke-width="1" fill="none">
<line x1="104.956" y1="299.582" x2="105.956" y2="299.582"/>
</g>
<path d="M120.287,311.658v -10.1591" fill="none" stroke="black" stroke-width="2"/>
<path d="M120.287,301.499v -10.1591" fill="none" stroke="black" stroke-width="2"/>
<path d="M110.733,301.499h 9.55392" fill="none" stroke="black" stroke-width="2"/>
<path d="M120.287,301.499h 9.55392" fill="none" stroke="black" stroke-width="2"/>
<g stroke="black" stroke-width="1" fill="none">
<line x1="119.287" y1="301.499" x2="120.287" y2="301.499"/>
</g>
<path d="M139.395,329.6v -16.5301" fill="none" stroke="black" stroke-width="2"/>
<path d="M139.395,313.07v -16.5301" fill="none" stroke="black" stroke-width="2"/>
<path d="M129.841,313.07h 9.55392" fill="none" stroke="black" stroke-width="2"/>
<path d="M139.395,313.07h 9.55392" fill="none" stroke="black" stroke-width="2"/>
<g stroke="black" stroke-width="1" fill="none">
<line x1="138.395" y1="313.07" x2="139.395" y2="313.07"/>
</g>
<path d="M161.687,392.207v -21.2393" fill="none" stroke="black" stroke-width="2"/>
<path d="M161.687,370.967v -21.2393" fill="none" stroke="black" stroke-width="2"/>
<path d="M148.949,370.967h 12.7386" fill="none" stroke="black" stroke-width="2"/>
<path d="M161.687,370.967h 12.7386" fill="none" stroke="black" stroke-width="2"/>
<g stroke="black" stroke-width="1" fill="none">
<line x1="160.687" y1="370.967" x2="161.687" y2="370.967"/>
</g>
<path d="M190.349,429.349v -25.0182" fill="none" stroke="black" stroke-width="2"/>
<path d="M190.349,404.331v -25.0182" fill="none" stroke="black" stroke-width="2"/>
<path d="M174.426,404.331h 15.9232" fill="none" stroke="black" stroke-width="2"/>
<path d="M190.349,404.331h 15.9232" fill="none" stroke="black" stroke-width="2"/>
<g stroke="black" stroke-width="1" fill="none">
<line x1="189.349" y1="404.331" x2="190.349" y2="404.331"/>
</g>
<path d="M373.466,447.199v -22.3225" fill="none" stroke="black" stroke-width="2"/>
<path d="M373.466,424.877v -22.3225" fill="none" stroke="black" stroke-width="2"/>
<path d="M206.272,424.877h 167.194" fill="none" stroke="black" stroke-width="2"/>
<path d="M373.466,424.877h 167.194" fill="none" stroke="black" stroke-width="2"/>
<g stroke="black" stroke-width="1" fill="none">
<line x1="372.466" y1="424.877" x2="373.466" y2="424.877"/>
</g>
<path d="M65.3518,339.28l 4.77696, 0.369881l 4.77696, 0.369881l 4.77696, 0.369881l 4.77696, 0.369881l 4.77696, 0.369881l 4.77696, 0.369881l 4.77696, 0.369881l 4.77696, 0.369881l 4.77696, 0.369881l 4.77696, 0.369881l 4.77696, 0.369881l 4.77696,
 0.369881l 4.77696, 0.369881l 4.77696, 0.369881l 4.77696, 0.369881l 4.77696, 0.369881l 4.77696, 0.369881l 4.77696, 0.369881l 4.77696, 0.369881l 4.77696, 0.369881l 4.77696, 0.369881l 4.77696, 0.369881l 4.77696, 0.369881l 4.77696, 0.369881l 4.77696,
 0.369881l 4.77696, 0.369881l 4.77696, 0.369881l 4.77696, 0.369881l 4.77696, 0.369881l 4.77696, 0.369881l 4.77696, 0.369881l 4.77696, 0.369881l 4.77696, 0.369881l 4.77696, 0.369881l 4.77696, 0.369881l 4.77696, 0.369881l 4.77696, 0.369881l 4.77696,
 0.369881l 4.77696, 0.369881l 4.77696, 0.369881l 4.77696, 0.369881l 4.77696, 0.369881l 4.77696, 0.369881l 4.77696, 0.369881l 4.77696, 0.369881l 4.77696, 0.369881l 4.77696, 0.369881l 4.77696, 0.369881l 4.77696, 0.369881" fill="none" stroke="#339966"
 stroke-width="2"/>
<path d="M299.423,357.404l 4.77696, 0.369881l 4.77696, 0.369881l 4.77696, 0.369881l 4.77696, 0.369881l 4.77696, 0.369881l 4.77696, 0.369881l 4.77696, 0.369881l 4.77696, 0.369881l 4.77696, 0.369881l 4.77696, 0.369881l 4.77696, 0.369881l 4.77696,
 0.369881l 4.77696, 0.369881l 4.77696, 0.369881l 4.77696, 0.369881l 4.77696, 0.369881l 4.77696, 0.369881l 4.77696, 0.369881l 4.77696, 0.369881l 4.77696, 0.369881l 4.77696, 0.369881l 4.77696, 0.369881l 4.77696, 0.369881l 4.77696, 0.369881l 4.77696,
 0.369881l 4.77696, 0.369881l 4.77696, 0.369881l 4.77696, 0.369881l 4.77696, 0.369881l 4.77696, 0.369881l 4.77696, 0.369881l 4.77696, 0.369881l 4.77696, 0.369881l 4.77696, 0.369881l 4.77696, 0.369881l 4.77696, 0.369881l 4.77696, 0.369881l 4.77696,
 0.369881l 4.77696, 0.369881l 4.77696, 0.369881l 4.77696, 0.369881l 4.77696, 0.369881l 4.77696, 0.369881l 4.77696, 0.369881l 4.77696, 0.369881l 4.77696, 0.369881l 4.77696, 0.369881l 4.77696, 0.369881l 4.77696, 0.369881" fill="none" stroke="#339966"
 stroke-width="2"/>
<path d="M533.494,375.529l 4.77696, 0.369881" fill="none" stroke="#339966" stroke-width="2"/>
<path d="M62.9633,488.945h 477.696" fill="none" stroke="black"/>
<path d="M62.9633,482.184v 6.76097" fill="none" stroke="black"/>
<path d="M78.8865,485.564v 3.38049" fill="none" stroke="black"/>
<path d="M94.8097,485.564v 3.38049" fill="none" stroke="black"/>
<path d="M110.733,485.564v 3.38049" fill="none" stroke="black"/>
<path d="M126.656,482.184v 6.76097" fill="none" stroke="black"/>
<path d="M142.579,485.564v 3.38049" fill="none" stroke="black"/>
<path d="M158.503,485.564v 3.38049" fill="none" stroke="black"/>
<path d="M174.426,485.564v 3.38049" fill="none" stroke="black"/>
<path d="M190.349,482.184v 6.76097" fill="none" stroke="black"/>
<path d="M206.272,485.564v 3.38049" fill="none" stroke="black"/>
<path d="M222.195,485.564v 3.38049" fill="none" stroke="black"/>
<path d="M238.118,485.564v 3.38049" fill="none" stroke="black"/>
<path d="M254.042,482.184v 6.76097" fill="none" stroke="black"/>
<path d="M269.965,485.564v 3.38049" fill="none" stroke="black"/>
<path d="M285.888,485.564v 3.38049" fill="none" stroke="black"/>
<path d="M301.811,485.564v 3.38049" fill="none" stroke="black"/>
<path d="M317.734,482.184v 6.76097" fill="none" stroke="black"/>
<path d="M333.658,485.564v 3.38049" fill="none" stroke="black"/>
<path d="M349.581,485.564v 3.38049" fill="none" stroke="black"/>
<path d="M365.504,485.564v 3.38049" fill="none" stroke="black"/>
<path d="M381.427,482.184v 6.76097" fill="none" stroke="black"/>
<path d="M397.35,485.564v 3.38049" fill="none" stroke="black"/>
<path d="M413.274,485.564v 3.38049" fill="none" stroke="black"/>
<path d="M429.197,485.564v 3.38049" fill="none" stroke="black"/>
<path d="M445.12,482.184v 6.76097" fill="none" stroke="black"/>
<path d="M461.043,485.564v 3.38049" fill="none" stroke="black"/>
<path d="M476.966,485.564v 3.38049" fill="none" stroke="black"/>
<path d="M492.89,485.564v 3.38049" fill="none" stroke="black"/>
<path d="M508.813,482.184v 6.76097" fill="none" stroke="black"/>
<path d="M508.813,482.184v 6.76097" fill="none" stroke="black"/>
<path d="M524.736,485.564v 3.38049" fill="none" stroke="black"/>
<text xml:space="preserve" x="59.2786" y="496.774" fill="black" font-size="8.91652" font-family="Helvetica">0</text>
<text xml:space="preserve" x="119.005" y="496.774" fill="black" font-size="8.91652" font-family="Helvetica">200</text>
<text xml:space="preserve" x="182.524" y="496.774" fill="black" font-size="8.91652" font-family="Helvetica">400</text>
<text xml:space="preserve" x="246.043" y="496.774" fill="black" font-size="8.91652" font-family="Helvetica">600</text>
<text xml:space="preserve" x="309.562" y="496.774" fill="black" font-size="8.91652" font-family="Helvetica">800</text>
<text xml:space="preserve" x="371.184" y="496.774" fill="black" font-size="8.91652" font-family="Helvetica">1000</text>
<text xml:space="preserve" x="434.703" y="496.774" fill="black" font-size="8.91652" font-family="Helvetica">1200</text>
<text xml:space="preserve" x="499.17" y="496.774" fill="black" font-size="8.91652" font-family="Helvetica">1400</text>
<text xml:space="preserve" x="498.222" y="519.527" fill="black" font-size="14.9283" font-family="Helvetica">Jet PT</text>
<path d="M62.9633,279.477h 477.696" fill="none" stroke="black"/>
<path d="M62.9633,286.238v -6.76097" fill="none" stroke="black"/>
<path d="M78.8865,282.857v -3.38049" fill="none" stroke="black"/>
<path d="M94.8097,282.857v -3.38049" fill="none" stroke="black"/>
<path d="M110.733,282.857v -3.38049" fill="none" stroke="black"/>
<path d="M126.656,286.238v -6.76097" fill="none" stroke="black"/>
<path d="M142.579,282.857v -3.38049" fill="none" stroke="black"/>
<path d="M158.503,282.857v -3.38049" fill="none" stroke="black"/>
<path d="M174.426,282.857v -3.38049" fill="none" stroke="black"/>
<path d="M190.349,286.238v -6.76097" fill="none" stroke="black"/>
<path d="M206.272,282.857v -3.38049" fill="none" stroke="black"/>
<path d="M222.195,282.857v -3.38049" fill="none" stroke="black"/>
<path d="M238.118,282.857v -3.38049" fill="none" stroke="black"/>
<path d="M254.042,286.238v -6.76097" fill="none" stroke="black"/>
<path d="M269.965,282.857v -3.38049" fill="none" stroke="black"/>
<path d="M285.888,282.857v -3.38049" fill="none" stroke="black"/>
<path d="M301.811,282.857v -3.38049" fill="none" stroke="black"/>
<path d="M317.734,286.238v -6.76097" fill="none" stroke="black"/>
<path d="M333.658,282.857v -3.38049" fill="none" stroke="black"/>
<path d="M349.581,282.857v -3.38049" fill="none" stroke="black"/>
<path d="M365.504,282.857v -3.38049" fill="none" stroke="black"/>
<path d="M381.427,286.238v -6.76097" fill="none" stroke="black"/>
<path d="M397.35,282.857v -3.38049" fill="none" stroke="black"/>
<path d="M413.274,282.857v -3.38049" fill="none" stroke="black"/>
<path d="M429.197,282.857v -3.38049" fill="none" stroke="black"/>
<path d="M445.12,286.238v -6.76097" fill="none" stroke="black"/>
<path d="M461.043,282.857v -3.38049" fill="none" stroke="black"/>
<path d="M476.966,282.857v -3.38049" fill="none" stroke="black"/>
<path d="M492.89,282.857v -3.38049" fill="none" stroke="black"/>
<path d="M508.813,286.238v -6.76097" fill="none" stroke="black"/>
<path d="M508.813,286.238v -6.76097" fill="none" stroke="black"/>
<path d="M524.736,282.857v -3.38049" fill="none" stroke="black"/>
<path d="M62.9633,488.945v -209.468" fill="none" stroke="black"/>
<path d="M76.2833,488.945h -13.3199" fill="none" stroke="black"/>
<path d="M69.6233,482.145h -6.65996" fill="none" stroke="black"/>
<path d="M69.6233,475.345h -6.65996" fill="none" stroke="black"/>
<path d="M69.6233,468.546h -6.65996" fill="none" stroke="black"/>
<path d="M76.2833,461.746h -13.3199" fill="none" stroke="black"/>
<path d="M69.6233,454.946h -6.65996" fill="none" stroke="black"/>
<path d="M69.6233,448.147h -6.65996" fill="none" stroke="black"/>
<path d="M69.6233,441.347h -6.65996" fill="none" stroke="black"/>
<path d="M76.2833,434.547h -13.3199" fill="none" stroke="black"/>
<path d="M69.6233,427.748h -6.65996" fill="none" stroke="black"/>
<path d="M69.6233,420.948h -6.65996" fill="none" stroke="black"/>
<path d="M69.6233,414.148h -6.65996" fill="none" stroke="black"/>
<path d="M76.2833,407.349h -13.3199" fill="none" stroke="black"/>
<path d="M69.6233,400.549h -6.65996" fill="none" stroke="black"/>
<path d="M69.6233,393.75h -6.65996" fill="none" stroke="black"/>
<path d="M69.6233,386.95h -6.65996" fill="none" stroke="black"/>
<path d="M76.2833,380.15h -13.3199" fill="none" stroke="black"/>
<path d="M69.6233,373.351h -6.65996" fill="none" stroke="black"/>
<path d="M69.6233,366.551h -6.65996" fill="none" stroke="black"/>
<path d="M69.6233,359.751h -6.65996" fill="none" stroke="black"/>
<path d="M76.2833,352.952h -13.3199" fill="none" stroke="black"/>
<path d="M69.6233,346.152h -6.65996" fill="none" stroke="black"/>
<path d="M69.6233,339.352h -6.65996" fill="none" stroke="black"/>
<path d="M69.6233,332.553h -6.65996" fill="none" stroke="black"/>
<path d="M76.2833,325.753h -13.3199" fill="none" stroke="black"/>
<path d="M69.6233,318.953h -6.65996" fill="none" stroke="black"/>
<path d="M69.6233,312.154h -6.65996" fill="none" stroke="black"/>
<path d="M69.6233,305.354h -6.65996" fill="none" stroke="black"/>
<path d="M76.2833,298.554h -13.3199" fill="none" stroke="black"/>
<path d="M76.2833,298.554h -13.3199" fill="none" stroke="black"/>
<path d="M69.6233,291.755h -6.65996" fill="none" stroke="black"/>
<path d="M69.6233,284.955h -6.65996" fill="none" stroke="black"/>
<text xml:space="preserve" x="54.5384" y="492.034" fill="black" font-size="8.91652" font-family="Helvetica">0</text>
<text xml:space="preserve" x="46.9541" y="465.489" fill="black" font-size="8.91652" font-family="Helvetica">0.2</text>
<text xml:space="preserve" x="46.9541" y="437.995" fill="black" font-size="8.91652" font-family="Helvetica">0.4</text>
<text xml:space="preserve" x="46.9541" y="410.502" fill="black" font-size="8.91652" font-family="Helvetica">0.6</text>
<text xml:space="preserve" x="46.9541" y="383.009" fill="black" font-size="8.91652" font-family="Helvetica">0.8</text>
<text xml:space="preserve" x="55.4864" y="356.464" fill="black" font-size="8.91652" font-family="Helvetica">1</text>
<text xml:space="preserve" x="46.9541" y="328.971" fill="black" font-size="8.91652" font-family="Helvetica">1.2</text>
<text xml:space="preserve" x="46.9541" y="301.477" fill="black" font-size="8.91652" font-family="Helvetica">1.4</text>
<g transform="rotate(-90,20.4089,459.8)">
<text xml:space="preserve" x="20.4089" y="459.8" fill="black" font-size="14.9283" font-family="Helvetica">True Background / Predicted</text>
</g>
<text xml:space="preserve" x="288.705" y="300.529" fill="black" font-size="14.9283" font-family="Helvetica">Fitting function: par0 + par1*x</text>
<text xml:space="preserve" x="301.029" y="327.074" fill="black" font-size="14.9283" font-family="Helvetica">par0 : 1.10189 +- 0.0243061</text>
<text xml:space="preserve" x="301.029" y="352.672" fill="black" font-size="14.9283" font-family="Helvetica">par1 : -0.000181323 +- 0.000158278</text></svg>
