<?xml version="1.0" standalone="no"?>
<svg width="567.429" height="546.572" viewBox="0 0 567.429 546.572" xmlns="http://www.w3.org/2000/svg" shape-rendering="crispEdges">
<title>
/home/kuanyu/Documents/CMS/Background_Estimate/fake_rate/top_emu/plot/CT_Top(emu)_JetEta_dileppT_LO_SLO_2.svg
</title>
<desc>
Creator: ROOT Version 6.26/04
CreationDate: Tue Nov 15 21:44:42 2022</desc>
<defs>
</defs>
<rect x="0.5" y="0" width="566.929" height="546.072" fill="white"/>
<rect x="6.16929" y="5.46072" width="555.591" height="262.115" fill="white"/>
<rect x="61.7283" y="8.08187" width="477.808" height="259.493" fill="white"/>
<rect x="61.7283" y="8.08187" width="477.808" height="259.493" fill="none" stroke="black"/>
<rect x="61.7283" y="8.08187" width="477.808" height="259.493" fill="white"/>
<rect x="61.7283" y="8.08187" width="477.808" height="259.493" fill="none" stroke="black"/>
<path d="M101.546,189.272v -9.28644" fill="none" stroke="#ff0000" stroke-width="2"/>
<path d="M101.546,179.986v -8.51145" fill="none" stroke="#ff0000" stroke-width="2"/>
<path d="M93.5822,179.986h 7.96346" fill="none" stroke="#ff0000" stroke-width="2"/>
<path d="M101.546,179.986h 7.96346" fill="none" stroke="#ff0000" stroke-width="2"/>
<g stroke="black" stroke-width="1" fill="none">
<line x1="100.546" y1="179.986" x2="101.546" y2="179.986"/>
</g>
<path d="M117.473,134.739v -7.81036" fill="none" stroke="#ff0000" stroke-width="2"/>
<path d="M117.473,126.929v -7.25489" fill="none" stroke="#ff0000" stroke-width="2"/>
<path d="M109.509,126.929h 7.96346" fill="none" stroke="#ff0000" stroke-width="2"/>
<path d="M117.473,126.929h 7.96346" fill="none" stroke="#ff0000" stroke-width="2"/>
<g stroke="black" stroke-width="1" fill="none">
<line x1="116.473" y1="126.929" x2="117.473" y2="126.929"/>
</g>
<path d="M133.4,135.338v -8.06971" fill="none" stroke="#ff0000" stroke-width="2"/>
<path d="M133.4,127.268v -7.47811" fill="none" stroke="#ff0000" stroke-width="2"/>
<path d="M125.436,127.268h 7.96346" fill="none" stroke="#ff0000" stroke-width="2"/>
<path d="M133.4,127.268h 7.96346" fill="none" stroke="#ff0000" stroke-width="2"/>
<g stroke="black" stroke-width="1" fill="none">
<line x1="132.4" y1="127.268" x2="133.4" y2="127.268"/>
</g>
<path d="M149.326,130.333v -7.60808" fill="none" stroke="#ff0000" stroke-width="2"/>
<path d="M149.326,122.725v -7.08005" fill="none" stroke="#ff0000" stroke-width="2"/>
<path d="M141.363,122.725h 7.96346" fill="none" stroke="#ff0000" stroke-width="2"/>
<path d="M149.326,122.725h 7.96346" fill="none" stroke="#ff0000" stroke-width="2"/>
<g stroke="black" stroke-width="1" fill="none">
<line x1="148.326" y1="122.725" x2="149.326" y2="122.725"/>
</g>
<path d="M165.253,119.714v -7.16681" fill="none" stroke="#ff0000" stroke-width="2"/>
<path d="M165.253,112.547v -6.69638" fill="none" stroke="#ff0000" stroke-width="2"/>
<path d="M157.29,112.547h 7.96346" fill="none" stroke="#ff0000" stroke-width="2"/>
<path d="M165.253,112.547h 7.96346" fill="none" stroke="#ff0000" stroke-width="2"/>
<g stroke="black" stroke-width="1" fill="none">
<line x1="164.253" y1="112.547" x2="165.253" y2="112.547"/>
</g>
<path d="M181.18,114.615v -7.35609" fill="none" stroke="#ff0000" stroke-width="2"/>
<path d="M181.18,107.259v -6.86133" fill="none" stroke="#ff0000" stroke-width="2"/>
<path d="M173.217,107.259h 7.96346" fill="none" stroke="#ff0000" stroke-width="2"/>
<path d="M181.18,107.259h 7.96346" fill="none" stroke="#ff0000" stroke-width="2"/>
<g stroke="black" stroke-width="1" fill="none">
<line x1="180.18" y1="107.259" x2="181.18" y2="107.259"/>
</g>
<path d="M197.107,97.3856v -5.89992" fill="none" stroke="#ff0000" stroke-width="2"/>
<path d="M197.107,91.4857v -5.5774" fill="none" stroke="#ff0000" stroke-width="2"/>
<path d="M189.144,91.4857h 7.96346" fill="none" stroke="#ff0000" stroke-width="2"/>
<path d="M197.107,91.4857h 7.96346" fill="none" stroke="#ff0000" stroke-width="2"/>
<g stroke="black" stroke-width="1" fill="none">
<line x1="196.107" y1="91.4857" x2="197.107" y2="91.4857"/>
</g>
<path d="M213.034,108.343v -6.68125" fill="none" stroke="#ff0000" stroke-width="2"/>
<path d="M213.034,101.661v -6.27059" fill="none" stroke="#ff0000" stroke-width="2"/>
<path d="M205.071,101.661h 7.96346" fill="none" stroke="#ff0000" stroke-width="2"/>
<path d="M213.034,101.661h 7.96346" fill="none" stroke="#ff0000" stroke-width="2"/>
<g stroke="black" stroke-width="1" fill="none">
<line x1="212.034" y1="101.661" x2="213.034" y2="101.661"/>
</g>
<path d="M228.961,96.9985v -6.24574" fill="none" stroke="#ff0000" stroke-width="2"/>
<path d="M228.961,90.7527v -5.88545" fill="none" stroke="#ff0000" stroke-width="2"/>
<path d="M220.998,90.7527h 7.96346" fill="none" stroke="#ff0000" stroke-width="2"/>
<path d="M228.961,90.7527h 7.96346" fill="none" stroke="#ff0000" stroke-width="2"/>
<g stroke="black" stroke-width="1" fill="none">
<line x1="227.961" y1="90.7527" x2="228.961" y2="90.7527"/>
</g>
<path d="M244.888,84.8347v -5.92846" fill="none" stroke="#ff0000" stroke-width="2"/>
<path d="M244.888,78.9062v -5.6029" fill="none" stroke="#ff0000" stroke-width="2"/>
<path d="M236.925,78.9062h 7.96346" fill="none" stroke="#ff0000" stroke-width="2"/>
<path d="M244.888,78.9062h 7.96346" fill="none" stroke="#ff0000" stroke-width="2"/>
<g stroke="black" stroke-width="1" fill="none">
<line x1="243.888" y1="78.9062" x2="244.888" y2="78.9062"/>
</g>
<path d="M260.815,90.2059v -6.14132" fill="none" stroke="#ff0000" stroke-width="2"/>
<path d="M260.815,84.0645v -5.79264" fill="none" stroke="#ff0000" stroke-width="2"/>
<path d="M252.852,84.0645h 7.96346" fill="none" stroke="#ff0000" stroke-width="2"/>
<path d="M260.815,84.0645h 7.96346" fill="none" stroke="#ff0000" stroke-width="2"/>
<g stroke="black" stroke-width="1" fill="none">
<line x1="259.815" y1="84.0645" x2="260.815" y2="84.0645"/>
</g>
<path d="M276.742,102.813v -6.33511" fill="none" stroke="#ff0000" stroke-width="2"/>
<path d="M276.742,96.4778v -5.96474" fill="none" stroke="#ff0000" stroke-width="2"/>
<path d="M268.778,96.4778h 7.96346" fill="none" stroke="#ff0000" stroke-width="2"/>
<path d="M276.742,96.4778h 7.96346" fill="none" stroke="#ff0000" stroke-width="2"/>
<g stroke="black" stroke-width="1" fill="none">
<line x1="275.742" y1="96.4778" x2="276.742" y2="96.4778"/>
</g>
<path d="M292.669,114.441v -6.60896" fill="none" stroke="#ff0000" stroke-width="2"/>
<path d="M292.669,107.832v -6.20688" fill="none" stroke="#ff0000" stroke-width="2"/>
<path d="M284.705,107.832h 7.96346" fill="none" stroke="#ff0000" stroke-width="2"/>
<path d="M292.669,107.832h 7.96346" fill="none" stroke="#ff0000" stroke-width="2"/>
<g stroke="black" stroke-width="1" fill="none">
<line x1="291.669" y1="107.832" x2="292.669" y2="107.832"/>
</g>
<path d="M308.596,120.827v -6.31449" fill="none" stroke="#ff0000" stroke-width="2"/>
<path d="M308.596,114.512v -5.94645" fill="none" stroke="#ff0000" stroke-width="2"/>
<path d="M300.632,114.512h 7.96346" fill="none" stroke="#ff0000" stroke-width="2"/>
<path d="M308.596,114.512h 7.96346" fill="none" stroke="#ff0000" stroke-width="2"/>
<g stroke="black" stroke-width="1" fill="none">
<line x1="307.596" y1="114.512" x2="308.596" y2="114.512"/>
</g>
<path d="M324.523,112.74v -6.6989" fill="none" stroke="#ff0000" stroke-width="2"/>
<path d="M324.523,106.041v -6.28614" fill="none" stroke="#ff0000" stroke-width="2"/>
<path d="M316.559,106.041h 7.96346" fill="none" stroke="#ff0000" stroke-width="2"/>
<path d="M324.523,106.041h 7.96346" fill="none" stroke="#ff0000" stroke-width="2"/>
<g stroke="black" stroke-width="1" fill="none">
<line x1="323.523" y1="106.041" x2="324.523" y2="106.041"/>
</g>
<path d="M340.45,86.5573v -5.98864" fill="none" stroke="#ff0000" stroke-width="2"/>
<path d="M340.45,80.5687v -5.65661" fill="none" stroke="#ff0000" stroke-width="2"/>
<path d="M332.486,80.5687h 7.96346" fill="none" stroke="#ff0000" stroke-width="2"/>
<path d="M340.45,80.5687h 7.96346" fill="none" stroke="#ff0000" stroke-width="2"/>
<g stroke="black" stroke-width="1" fill="none">
<line x1="339.45" y1="80.5687" x2="340.45" y2="80.5687"/>
</g>
<path d="M356.377,95.8703v -6.45533" fill="none" stroke="#ff0000" stroke-width="2"/>
<path d="M356.377,89.415v -6.07119" fill="none" stroke="#ff0000" stroke-width="2"/>
<path d="M348.413,89.415h 7.96346" fill="none" stroke="#ff0000" stroke-width="2"/>
<path d="M356.377,89.415h 7.96346" fill="none" stroke="#ff0000" stroke-width="2"/>
<g stroke="black" stroke-width="1" fill="none">
<line x1="355.377" y1="89.415" x2="356.377" y2="89.415"/>
</g>
<path d="M372.303,100.979v -6.38958" fill="none" stroke="#ff0000" stroke-width="2"/>
<path d="M372.303,94.5895v -6.013" fill="none" stroke="#ff0000" stroke-width="2"/>
<path d="M364.34,94.5895h 7.96346" fill="none" stroke="#ff0000" stroke-width="2"/>
<path d="M372.303,94.5895h 7.96346" fill="none" stroke="#ff0000" stroke-width="2"/>
<g stroke="black" stroke-width="1" fill="none">
<line x1="371.303" y1="94.5895" x2="372.303" y2="94.5895"/>
</g>
<path d="M388.23,106.522v -6.6081" fill="none" stroke="#ff0000" stroke-width="2"/>
<path d="M388.23,99.9136v -6.20612" fill="none" stroke="#ff0000" stroke-width="2"/>
<path d="M380.267,99.9136h 7.96346" fill="none" stroke="#ff0000" stroke-width="2"/>
<path d="M388.23,99.9136h 7.96346" fill="none" stroke="#ff0000" stroke-width="2"/>
<g stroke="black" stroke-width="1" fill="none">
<line x1="387.23" y1="99.9136" x2="388.23" y2="99.9136"/>
</g>
<path d="M404.157,96.2219v -6.2198" fill="none" stroke="#ff0000" stroke-width="2"/>
<path d="M404.157,90.0021v -5.86241" fill="none" stroke="#ff0000" stroke-width="2"/>
<path d="M396.194,90.0021h 7.96346" fill="none" stroke="#ff0000" stroke-width="2"/>
<path d="M404.157,90.0021h 7.96346" fill="none" stroke="#ff0000" stroke-width="2"/>
<g stroke="black" stroke-width="1" fill="none">
<line x1="403.157" y1="90.0021" x2="404.157" y2="90.0021"/>
</g>
<path d="M420.084,110.691v -6.62135" fill="none" stroke="#ff0000" stroke-width="2"/>
<path d="M420.084,104.069v -6.21781" fill="none" stroke="#ff0000" stroke-width="2"/>
<path d="M412.121,104.069h 7.96346" fill="none" stroke="#ff0000" stroke-width="2"/>
<path d="M420.084,104.069h 7.96346" fill="none" stroke="#ff0000" stroke-width="2"/>
<g stroke="black" stroke-width="1" fill="none">
<line x1="419.084" y1="104.069" x2="420.084" y2="104.069"/>
</g>
<path d="M436.011,116.749v -6.37386" fill="none" stroke="#ff0000" stroke-width="2"/>
<path d="M436.011,110.375v -5.99907" fill="none" stroke="#ff0000" stroke-width="2"/>
<path d="M428.048,110.375h 7.96346" fill="none" stroke="#ff0000" stroke-width="2"/>
<path d="M436.011,110.375h 7.96346" fill="none" stroke="#ff0000" stroke-width="2"/>
<g stroke="black" stroke-width="1" fill="none">
<line x1="435.011" y1="110.375" x2="436.011" y2="110.375"/>
</g>
<path d="M451.938,130.788v -7.44662" fill="none" stroke="#ff0000" stroke-width="2"/>
<path d="M451.938,123.341v -6.94002" fill="none" stroke="#ff0000" stroke-width="2"/>
<path d="M443.975,123.341h 7.96346" fill="none" stroke="#ff0000" stroke-width="2"/>
<path d="M451.938,123.341h 7.96346" fill="none" stroke="#ff0000" stroke-width="2"/>
<g stroke="black" stroke-width="1" fill="none">
<line x1="450.938" y1="123.341" x2="451.938" y2="123.341"/>
</g>
<path d="M467.865,134.58v -8.53523" fill="none" stroke="#ff0000" stroke-width="2"/>
<path d="M467.865,126.045v -7.87616" fill="none" stroke="#ff0000" stroke-width="2"/>
<path d="M459.902,126.045h 7.96346" fill="none" stroke="#ff0000" stroke-width="2"/>
<path d="M467.865,126.045h 7.96346" fill="none" stroke="#ff0000" stroke-width="2"/>
<g stroke="black" stroke-width="1" fill="none">
<line x1="466.865" y1="126.045" x2="467.865" y2="126.045"/>
</g>
<path d="M483.792,126.674v -6.89462" fill="none" stroke="#ff0000" stroke-width="2"/>
<path d="M483.792,119.779v -6.45816" fill="none" stroke="#ff0000" stroke-width="2"/>
<path d="M475.828,119.779h 7.96346" fill="none" stroke="#ff0000" stroke-width="2"/>
<path d="M483.792,119.779h 7.96346" fill="none" stroke="#ff0000" stroke-width="2"/>
<g stroke="black" stroke-width="1" fill="none">
<line x1="482.792" y1="119.779" x2="483.792" y2="119.779"/>
</g>
<path d="M499.719,196.836v -10.2125" fill="none" stroke="#ff0000" stroke-width="2"/>
<path d="M499.719,186.624v -9.28288" fill="none" stroke="#ff0000" stroke-width="2"/>
<path d="M491.755,186.624h 7.96346" fill="none" stroke="#ff0000" stroke-width="2"/>
<path d="M499.719,186.624h 7.96346" fill="none" stroke="#ff0000" stroke-width="2"/>
<g stroke="black" stroke-width="1" fill="none">
<line x1="498.719" y1="186.624" x2="499.719" y2="186.624"/>
</g>
<path d="M61.7283,267.575h 477.808" fill="none" stroke="black"/>
<path d="M61.7283,260.813v 6.76256" fill="none" stroke="black"/>
<path d="M77.6553,264.194v 3.38128" fill="none" stroke="black"/>
<path d="M93.5822,264.194v 3.38128" fill="none" stroke="black"/>
<path d="M109.509,264.194v 3.38128" fill="none" stroke="black"/>
<path d="M125.436,264.194v 3.38128" fill="none" stroke="black"/>
<path d="M141.363,260.813v 6.76256" fill="none" stroke="black"/>
<path d="M157.29,264.194v 3.38128" fill="none" stroke="black"/>
<path d="M173.217,264.194v 3.38128" fill="none" stroke="black"/>
<path d="M189.144,264.194v 3.38128" fill="none" stroke="black"/>
<path d="M205.071,264.194v 3.38128" fill="none" stroke="black"/>
<path d="M220.998,260.813v 6.76256" fill="none" stroke="black"/>
<path d="M236.925,264.194v 3.38128" fill="none" stroke="black"/>
<path d="M252.852,264.194v 3.38128" fill="none" stroke="black"/>
<path d="M268.778,264.194v 3.38128" fill="none" stroke="black"/>
<path d="M284.705,264.194v 3.38128" fill="none" stroke="black"/>
<path d="M300.632,260.813v 6.76256" fill="none" stroke="black"/>
<path d="M316.559,264.194v 3.38128" fill="none" stroke="black"/>
<path d="M332.486,264.194v 3.38128" fill="none" stroke="black"/>
<path d="M348.413,264.194v 3.38128" fill="none" stroke="black"/>
<path d="M364.34,264.194v 3.38128" fill="none" stroke="black"/>
<path d="M380.267,260.813v 6.76256" fill="none" stroke="black"/>
<path d="M396.194,264.194v 3.38128" fill="none" stroke="black"/>
<path d="M412.121,264.194v 3.38128" fill="none" stroke="black"/>
<path d="M428.048,264.194v 3.38128" fill="none" stroke="black"/>
<path d="M443.975,264.194v 3.38128" fill="none" stroke="black"/>
<path d="M459.902,260.813v 6.76256" fill="none" stroke="black"/>
<path d="M475.828,264.194v 3.38128" fill="none" stroke="black"/>
<path d="M491.755,264.194v 3.38128" fill="none" stroke="black"/>
<path d="M507.682,264.194v 3.38128" fill="none" stroke="black"/>
<path d="M523.609,264.194v 3.38128" fill="none" stroke="black"/>
<path d="M539.536,260.813v 6.76256" fill="none" stroke="black"/>
<path d="M61.7283,267.575v -259.493" fill="none" stroke="black"/>
<path d="M69.9789,266.633h -8.25052" fill="none" stroke="black"/>
<path d="M69.9789,248.026h -8.25052" fill="none" stroke="black"/>
<path d="M69.9789,232.294h -8.25052" fill="none" stroke="black"/>
<path d="M69.9789,218.666h -8.25052" fill="none" stroke="black"/>
<path d="M69.9789,206.646h -8.25052" fill="none" stroke="black"/>
<path d="M78.2294,195.893h -16.501" fill="none" stroke="black"/>
<text xml:space="preserve" x="47.9021" y="199.089" fill="black" font-size="8.91652" font-family="Helvetica">10</text>
<path d="M69.9789,125.154h -8.25052" fill="none" stroke="black"/>
<path d="M69.9789,83.7742h -8.25052" fill="none" stroke="black"/>
<path d="M69.9789,54.4147h -8.25052" fill="none" stroke="black"/>
<path d="M69.9789,31.6417h -8.25052" fill="none" stroke="black"/>
<path d="M69.9789,13.0348h -8.25052" fill="none" stroke="black"/>
<g transform="rotate(-90,23.253,52.1423)">
<text xml:space="preserve" x="23.253" y="52.1423" fill="black" font-size="14.9283" font-family="Helvetica">nEvent</text>
</g>
<path d="M101.546,164.659v -4.53619" fill="none" stroke="#006699" stroke-width="2"/>
<path d="M101.546,160.123v -4.34312" fill="none" stroke="#006699" stroke-width="2"/>
<g stroke="black" stroke-width="1" fill="none">
<line x1="100.546" y1="160.123" x2="101.546" y2="160.123"/>
</g>
<path d="M117.473,120.631v -3.24328" fill="none" stroke="#006699" stroke-width="2"/>
<path d="M117.473,117.387v -3.14338" fill="none" stroke="#006699" stroke-width="2"/>
<g stroke="black" stroke-width="1" fill="none">
<line x1="116.473" y1="117.387" x2="117.473" y2="117.387"/>
</g>
<path d="M133.4,132.684v -3.13606" fill="none" stroke="#006699" stroke-width="2"/>
<path d="M133.4,129.548v -3.04255" fill="none" stroke="#006699" stroke-width="2"/>
<g stroke="black" stroke-width="1" fill="none">
<line x1="132.4" y1="129.548" x2="133.4" y2="129.548"/>
</g>
<path d="M149.326,125.423v -2.80482" fill="none" stroke="#006699" stroke-width="2"/>
<path d="M149.326,122.618v -2.7298" fill="none" stroke="#006699" stroke-width="2"/>
<g stroke="black" stroke-width="1" fill="none">
<line x1="148.326" y1="122.618" x2="149.326" y2="122.618"/>
</g>
<path d="M165.253,118.523v -2.67474" fill="none" stroke="#006699" stroke-width="2"/>
<path d="M165.253,115.848v -2.60643" fill="none" stroke="#006699" stroke-width="2"/>
<g stroke="black" stroke-width="1" fill="none">
<line x1="164.253" y1="115.848" x2="165.253" y2="115.848"/>
</g>
<path d="M181.18,96.2467v -2.40464" fill="none" stroke="#006699" stroke-width="2"/>
<path d="M181.18,93.842v -2.34928" fill="none" stroke="#006699" stroke-width="2"/>
<g stroke="black" stroke-width="1" fill="none">
<line x1="180.18" y1="93.842" x2="181.18" y2="93.842"/>
</g>
<path d="M197.107,73.7833v -2.17602" fill="none" stroke="#006699" stroke-width="2"/>
<path d="M197.107,71.6073v -2.13059" fill="none" stroke="#006699" stroke-width="2"/>
<g stroke="black" stroke-width="1" fill="none">
<line x1="196.107" y1="71.6073" x2="197.107" y2="71.6073"/>
</g>
<path d="M213.034,69.2382v -2.06439" fill="none" stroke="#006699" stroke-width="2"/>
<path d="M213.034,67.1738v -2.02346" fill="none" stroke="#006699" stroke-width="2"/>
<g stroke="black" stroke-width="1" fill="none">
<line x1="212.034" y1="67.1738" x2="213.034" y2="67.1738"/>
</g>
<path d="M228.961,67.2449v -2.04887" fill="none" stroke="#006699" stroke-width="2"/>
<path d="M228.961,65.196v -2.00855" fill="none" stroke="#006699" stroke-width="2"/>
<g stroke="black" stroke-width="1" fill="none">
<line x1="227.961" y1="65.196" x2="228.961" y2="65.196"/>
</g>
<path d="M244.888,67.977v -1.942" fill="none" stroke="#006699" stroke-width="2"/>
<path d="M244.888,66.035v -1.90574" fill="none" stroke="#006699" stroke-width="2"/>
<g stroke="black" stroke-width="1" fill="none">
<line x1="243.888" y1="66.035" x2="244.888" y2="66.035"/>
</g>
<path d="M260.815,59.504v -1.89168" fill="none" stroke="#006699" stroke-width="2"/>
<path d="M260.815,57.6124v -1.85726" fill="none" stroke="#006699" stroke-width="2"/>
<g stroke="black" stroke-width="1" fill="none">
<line x1="259.815" y1="57.6124" x2="260.815" y2="57.6124"/>
</g>
<path d="M276.742,54.9192v -1.95146" fill="none" stroke="#006699" stroke-width="2"/>
<path d="M276.742,52.9677v -1.91484" fill="none" stroke="#006699" stroke-width="2"/>
<g stroke="black" stroke-width="1" fill="none">
<line x1="275.742" y1="52.9677" x2="276.742" y2="52.9677"/>
</g>
<path d="M292.669,52.4347v -1.91417" fill="none" stroke="#006699" stroke-width="2"/>
<path d="M292.669,50.5205v -1.87893" fill="none" stroke="#006699" stroke-width="2"/>
<g stroke="black" stroke-width="1" fill="none">
<line x1="291.669" y1="50.5205" x2="292.669" y2="50.5205"/>
</g>
<path d="M308.596,51.2208v -1.84484" fill="none" stroke="#006699" stroke-width="2"/>
<path d="M308.596,49.376v -1.81208" fill="none" stroke="#006699" stroke-width="2"/>
<g stroke="black" stroke-width="1" fill="none">
<line x1="307.596" y1="49.376" x2="308.596" y2="49.376"/>
</g>
<path d="M324.523,57.6628v -1.91757" fill="none" stroke="#006699" stroke-width="2"/>
<path d="M324.523,55.7453v -1.88221" fill="none" stroke="#006699" stroke-width="2"/>
<g stroke="black" stroke-width="1" fill="none">
<line x1="323.523" y1="55.7453" x2="324.523" y2="55.7453"/>
</g>
<path d="M340.45,59.2104v -1.94652" fill="none" stroke="#006699" stroke-width="2"/>
<path d="M340.45,57.2638v -1.91009" fill="none" stroke="#006699" stroke-width="2"/>
<g stroke="black" stroke-width="1" fill="none">
<line x1="339.45" y1="57.2638" x2="340.45" y2="57.2638"/>
</g>
<path d="M356.377,67.2396v -1.97503" fill="none" stroke="#006699" stroke-width="2"/>
<path d="M356.377,65.2645v -1.93753" fill="none" stroke="#006699" stroke-width="2"/>
<g stroke="black" stroke-width="1" fill="none">
<line x1="355.377" y1="65.2645" x2="356.377" y2="65.2645"/>
</g>
<path d="M372.303,66.8382v -1.98873" fill="none" stroke="#006699" stroke-width="2"/>
<path d="M372.303,64.8494v -1.95072" fill="none" stroke="#006699" stroke-width="2"/>
<g stroke="black" stroke-width="1" fill="none">
<line x1="371.303" y1="64.8494" x2="372.303" y2="64.8494"/>
</g>
<path d="M388.23,73.1769v -2.27004" fill="none" stroke="#006699" stroke-width="2"/>
<path d="M388.23,70.9069v -2.22064" fill="none" stroke="#006699" stroke-width="2"/>
<g stroke="black" stroke-width="1" fill="none">
<line x1="387.23" y1="70.9069" x2="388.23" y2="70.9069"/>
</g>
<path d="M404.157,79.0218v -2.24232" fill="none" stroke="#006699" stroke-width="2"/>
<path d="M404.157,76.7795v -2.19411" fill="none" stroke="#006699" stroke-width="2"/>
<g stroke="black" stroke-width="1" fill="none">
<line x1="403.157" y1="76.7795" x2="404.157" y2="76.7795"/>
</g>
<path d="M420.084,100.579v -2.37791" fill="none" stroke="#006699" stroke-width="2"/>
<path d="M420.084,98.2008v -2.32376" fill="none" stroke="#006699" stroke-width="2"/>
<g stroke="black" stroke-width="1" fill="none">
<line x1="419.084" y1="98.2008" x2="420.084" y2="98.2008"/>
</g>
<path d="M436.011,119.02v -2.64651" fill="none" stroke="#006699" stroke-width="2"/>
<path d="M436.011,116.373v -2.57962" fill="none" stroke="#006699" stroke-width="2"/>
<g stroke="black" stroke-width="1" fill="none">
<line x1="435.011" y1="116.373" x2="436.011" y2="116.373"/>
</g>
<path d="M451.938,127.612v -2.9394" fill="none" stroke="#006699" stroke-width="2"/>
<path d="M451.938,124.673v -2.8571" fill="none" stroke="#006699" stroke-width="2"/>
<g stroke="black" stroke-width="1" fill="none">
<line x1="450.938" y1="124.673" x2="451.938" y2="124.673"/>
</g>
<path d="M467.865,139.494v -2.9974" fill="none" stroke="#006699" stroke-width="2"/>
<path d="M467.865,136.497v -2.91187" fill="none" stroke="#006699" stroke-width="2"/>
<g stroke="black" stroke-width="1" fill="none">
<line x1="466.865" y1="136.497" x2="467.865" y2="136.497"/>
</g>
<path d="M483.792,125.925v -3.19692" fill="none" stroke="#006699" stroke-width="2"/>
<path d="M483.792,122.728v -3.09981" fill="none" stroke="#006699" stroke-width="2"/>
<g stroke="black" stroke-width="1" fill="none">
<line x1="482.792" y1="122.728" x2="483.792" y2="122.728"/>
</g>
<path d="M499.719,177.502v -4.78982" fill="none" stroke="#006699" stroke-width="2"/>
<path d="M499.719,172.712v -4.57506" fill="none" stroke="#006699" stroke-width="2"/>
<g stroke="black" stroke-width="1" fill="none">
<line x1="498.719" y1="172.712" x2="499.719" y2="172.712"/>
</g>
<path d="M61.7283,267.575h 31.8539v -107.452h 15.9269v -42.7356h 15.9269v 12.1603h 15.9269v -6.92923h 15.9269v -6.77046h 15.9269v -22.006h 15.9269v -22.2347h 15.9269v -4.43352h 15.9269v -1.97773h 15.9269v 0.838942h 15.9269v -8.42263h 15.9269v
 -4.64465h 15.9269v -2.4472h 15.9269v -1.14452h 15.9269v 6.36928h 15.9269v 1.51858h 15.9269v 8.0007h 15.9269v -0.415122h 15.9269v 6.05749h 15.9269v 5.87257h 15.9269v 21.4213h 15.9269v 18.1723h 15.9269v 8.29988h 15.9269v 11.8238h 15.9269v -13.769h
 15.9269v 49.984h 15.9269v 94.8636h 31.8539" fill="none" stroke="#006699" stroke-width="2"/>
<text xml:space="preserve" x="341.795" y="165.907" fill="black" font-size="14.9283" font-family="Helvetica">True Background</text>
<path d="M300.733,162.589h 34.011" fill="none" stroke="#ff0000" stroke-width="2"/>
<path d="M317.739,178.232v -31.2854" fill="none" stroke="#ff0000" stroke-width="2"/>
<text xml:space="preserve" x="341.795" y="219.946" fill="black" font-size="14.9283" font-family="Helvetica">Predict</text>
<path d="M300.733,214.732h 34.011" fill="none" stroke="#006699" stroke-width="2"/>
<path d="M317.739,230.374v -31.2854" fill="none" stroke="#006699" stroke-width="2"/>
<rect x="6.16929" y="278.497" width="555.591" height="262.115" fill="white"/>
<rect x="61.7283" y="278.497" width="477.808" height="209.692" fill="white"/>
<rect x="61.7283" y="278.497" width="477.808" height="209.692" fill="none" stroke="black"/>
<rect x="61.7283" y="278.497" width="477.808" height="209.692" fill="white"/>
<rect x="61.7283" y="278.497" width="477.808" height="209.692" fill="none" stroke="black"/>
<path d="M101.546,364.76v -13.2946" fill="none" stroke="black" stroke-width="2"/>
<path d="M101.546,351.465v -13.2946" fill="none" stroke="black" stroke-width="2"/>
<path d="M93.5822,351.465h 7.96346" fill="none" stroke="black" stroke-width="2"/>
<path d="M101.546,351.465h 7.96346" fill="none" stroke="black" stroke-width="2"/>
<g stroke="black" stroke-width="1" fill="none">
<line x1="100.546" y1="351.465" x2="101.546" y2="351.465"/>
</g>
<path d="M117.473,349.023v -12.1081" fill="none" stroke="black" stroke-width="2"/>
<path d="M117.473,336.915v -12.1081" fill="none" stroke="black" stroke-width="2"/>
<path d="M109.509,336.915h 7.96346" fill="none" stroke="black" stroke-width="2"/>
<path d="M117.473,336.915h 7.96346" fill="none" stroke="black" stroke-width="2"/>
<g stroke="black" stroke-width="1" fill="none">
<line x1="116.473" y1="336.915" x2="117.473" y2="336.915"/>
</g>
<path d="M133.4,332.236v -13.8985" fill="none" stroke="black" stroke-width="2"/>
<path d="M133.4,318.338v -13.8985" fill="none" stroke="black" stroke-width="2"/>
<path d="M125.436,318.338h 7.96346" fill="none" stroke="black" stroke-width="2"/>
<path d="M133.4,318.338h 7.96346" fill="none" stroke="black" stroke-width="2"/>
<g stroke="black" stroke-width="1" fill="none">
<line x1="132.4" y1="318.338" x2="133.4" y2="318.338"/>
</g>
<path d="M149.326,335.002v -12.7403" fill="none" stroke="black" stroke-width="2"/>
<path d="M149.326,322.262v -12.7403" fill="none" stroke="black" stroke-width="2"/>
<path d="M141.363,322.262h 7.96346" fill="none" stroke="black" stroke-width="2"/>
<path d="M149.326,322.262h 7.96346" fill="none" stroke="black" stroke-width="2"/>
<g stroke="black" stroke-width="1" fill="none">
<line x1="148.326" y1="322.262" x2="149.326" y2="322.262"/>
</g>
<path d="M165.253,329.081v -12.4521" fill="none" stroke="black" stroke-width="2"/>
<path d="M165.253,316.629v -12.4521" fill="none" stroke="black" stroke-width="2"/>
<path d="M157.29,316.629h 7.96346" fill="none" stroke="black" stroke-width="2"/>
<path d="M165.253,316.629h 7.96346" fill="none" stroke="black" stroke-width="2"/>
<g stroke="black" stroke-width="1" fill="none">
<line x1="164.253" y1="316.629" x2="165.253" y2="316.629"/>
</g>
<path d="M181.18,353.232v -10.6808" fill="none" stroke="black" stroke-width="2"/>
<path d="M181.18,342.552v -10.6808" fill="none" stroke="black" stroke-width="2"/>
<path d="M173.217,342.552h 7.96346" fill="none" stroke="black" stroke-width="2"/>
<path d="M181.18,342.552h 7.96346" fill="none" stroke="black" stroke-width="2"/>
<g stroke="black" stroke-width="1" fill="none">
<line x1="180.18" y1="342.552" x2="181.18" y2="342.552"/>
</g>
<path d="M197.107,359.689v -8.20249" fill="none" stroke="black" stroke-width="2"/>
<path d="M197.107,351.486v -8.20249" fill="none" stroke="black" stroke-width="2"/>
<path d="M189.144,351.486h 7.96346" fill="none" stroke="black" stroke-width="2"/>
<path d="M197.107,351.486h 7.96346" fill="none" stroke="black" stroke-width="2"/>
<g stroke="black" stroke-width="1" fill="none">
<line x1="196.107" y1="351.486" x2="197.107" y2="351.486"/>
</g>
<path d="M213.034,377.592v -7.87333" fill="none" stroke="black" stroke-width="2"/>
<path d="M213.034,369.719v -7.87333" fill="none" stroke="black" stroke-width="2"/>
<path d="M205.071,369.719h 7.96346" fill="none" stroke="black" stroke-width="2"/>
<path d="M213.034,369.719h 7.96346" fill="none" stroke="black" stroke-width="2"/>
<g stroke="black" stroke-width="1" fill="none">
<line x1="212.034" y1="369.719" x2="213.034" y2="369.719"/>
</g>
<path d="M228.961,366.98v -8.09488" fill="none" stroke="black" stroke-width="2"/>
<path d="M228.961,358.885v -8.09488" fill="none" stroke="black" stroke-width="2"/>
<path d="M220.998,358.885h 7.96346" fill="none" stroke="black" stroke-width="2"/>
<path d="M228.961,358.885h 7.96346" fill="none" stroke="black" stroke-width="2"/>
<g stroke="black" stroke-width="1" fill="none">
<line x1="227.961" y1="358.885" x2="228.961" y2="358.885"/>
</g>
<path d="M244.888,350.482v -8.71189" fill="none" stroke="black" stroke-width="2"/>
<path d="M244.888,341.771v -8.71189" fill="none" stroke="black" stroke-width="2"/>
<path d="M236.925,341.771h 7.96346" fill="none" stroke="black" stroke-width="2"/>
<path d="M244.888,341.771h 7.96346" fill="none" stroke="black" stroke-width="2"/>
<g stroke="black" stroke-width="1" fill="none">
<line x1="243.888" y1="341.771" x2="244.888" y2="341.771"/>
</g>
<path d="M260.815,367.861v -7.84697" fill="none" stroke="black" stroke-width="2"/>
<path d="M260.815,360.014v -7.84697" fill="none" stroke="black" stroke-width="2"/>
<path d="M252.852,360.014h 7.96346" fill="none" stroke="black" stroke-width="2"/>
<path d="M260.815,360.014h 7.96346" fill="none" stroke="black" stroke-width="2"/>
<g stroke="black" stroke-width="1" fill="none">
<line x1="259.815" y1="360.014" x2="260.815" y2="360.014"/>
</g>
<path d="M276.742,386.586v -6.84264" fill="none" stroke="black" stroke-width="2"/>
<path d="M276.742,379.743v -6.84264" fill="none" stroke="black" stroke-width="2"/>
<path d="M268.778,379.743h 7.96346" fill="none" stroke="black" stroke-width="2"/>
<path d="M276.742,379.743h 7.96346" fill="none" stroke="black" stroke-width="2"/>
<g stroke="black" stroke-width="1" fill="none">
<line x1="275.742" y1="379.743" x2="276.742" y2="379.743"/>
</g>
<path d="M292.669,399.656v -6.19537" fill="none" stroke="black" stroke-width="2"/>
<path d="M292.669,393.46v -6.19537" fill="none" stroke="black" stroke-width="2"/>
<path d="M284.705,393.46h 7.96346" fill="none" stroke="black" stroke-width="2"/>
<path d="M292.669,393.46h 7.96346" fill="none" stroke="black" stroke-width="2"/>
<g stroke="black" stroke-width="1" fill="none">
<line x1="291.669" y1="393.46" x2="292.669" y2="393.46"/>
</g>
<path d="M308.596,405.945v -5.49367" fill="none" stroke="black" stroke-width="2"/>
<path d="M308.596,400.452v -5.49367" fill="none" stroke="black" stroke-width="2"/>
<path d="M300.632,400.452h 7.96346" fill="none" stroke="black" stroke-width="2"/>
<path d="M308.596,400.452h 7.96346" fill="none" stroke="black" stroke-width="2"/>
<g stroke="black" stroke-width="1" fill="none">
<line x1="307.596" y1="400.452" x2="308.596" y2="400.452"/>
</g>
<path d="M324.523,393.436v -6.71757" fill="none" stroke="black" stroke-width="2"/>
<path d="M324.523,386.719v -6.71757" fill="none" stroke="black" stroke-width="2"/>
<path d="M316.559,386.719h 7.96346" fill="none" stroke="black" stroke-width="2"/>
<path d="M324.523,386.719h 7.96346" fill="none" stroke="black" stroke-width="2"/>
<g stroke="black" stroke-width="1" fill="none">
<line x1="323.523" y1="386.719" x2="324.523" y2="386.719"/>
</g>
<path d="M340.45,363.937v -7.93683" fill="none" stroke="black" stroke-width="2"/>
<path d="M340.45,356v -7.93683" fill="none" stroke="black" stroke-width="2"/>
<path d="M332.486,356h 7.96346" fill="none" stroke="black" stroke-width="2"/>
<path d="M340.45,356h 7.96346" fill="none" stroke="black" stroke-width="2"/>
<g stroke="black" stroke-width="1" fill="none">
<line x1="339.45" y1="356" x2="340.45" y2="356"/>
</g>
<path d="M356.377,365.51v -8.41926" fill="none" stroke="black" stroke-width="2"/>
<path d="M356.377,357.091v -8.41926" fill="none" stroke="black" stroke-width="2"/>
<path d="M348.413,357.091h 7.96346" fill="none" stroke="black" stroke-width="2"/>
<path d="M356.377,357.091h 7.96346" fill="none" stroke="black" stroke-width="2"/>
<g stroke="black" stroke-width="1" fill="none">
<line x1="355.377" y1="357.091" x2="356.377" y2="357.091"/>
</g>
<path d="M372.303,371.982v -7.90384" fill="none" stroke="black" stroke-width="2"/>
<path d="M372.303,364.078v -7.90384" fill="none" stroke="black" stroke-width="2"/>
<path d="M364.34,364.078h 7.96346" fill="none" stroke="black" stroke-width="2"/>
<path d="M372.303,364.078h 7.96346" fill="none" stroke="black" stroke-width="2"/>
<g stroke="black" stroke-width="1" fill="none">
<line x1="371.303" y1="364.078" x2="372.303" y2="364.078"/>
</g>
<path d="M388.23,371.489v -8.30607" fill="none" stroke="black" stroke-width="2"/>
<path d="M388.23,363.183v -8.30607" fill="none" stroke="black" stroke-width="2"/>
<path d="M380.267,363.183h 7.96346" fill="none" stroke="black" stroke-width="2"/>
<path d="M388.23,363.183h 7.96346" fill="none" stroke="black" stroke-width="2"/>
<g stroke="black" stroke-width="1" fill="none">
<line x1="387.23" y1="363.183" x2="388.23" y2="363.183"/>
</g>
<path d="M404.157,351.465v -9.19159" fill="none" stroke="black" stroke-width="2"/>
<path d="M404.157,342.274v -9.19159" fill="none" stroke="black" stroke-width="2"/>
<path d="M396.194,342.274h 7.96346" fill="none" stroke="black" stroke-width="2"/>
<path d="M404.157,342.274h 7.96346" fill="none" stroke="black" stroke-width="2"/>
<g stroke="black" stroke-width="1" fill="none">
<line x1="403.157" y1="342.274" x2="404.157" y2="342.274"/>
</g>
<path d="M420.084,341.864v -10.4925" fill="none" stroke="black" stroke-width="2"/>
<path d="M420.084,331.371v -10.4925" fill="none" stroke="black" stroke-width="2"/>
<path d="M412.121,331.371h 7.96346" fill="none" stroke="black" stroke-width="2"/>
<path d="M420.084,331.371h 7.96346" fill="none" stroke="black" stroke-width="2"/>
<g stroke="black" stroke-width="1" fill="none">
<line x1="419.084" y1="331.371" x2="420.084" y2="331.371"/>
</g>
<path d="M436.011,323.614v -11.5793" fill="none" stroke="black" stroke-width="2"/>
<path d="M436.011,312.035v -11.5793" fill="none" stroke="black" stroke-width="2"/>
<path d="M428.048,312.035h 7.96346" fill="none" stroke="black" stroke-width="2"/>
<path d="M436.011,312.035h 7.96346" fill="none" stroke="black" stroke-width="2"/>
<g stroke="black" stroke-width="1" fill="none">
<line x1="435.011" y1="312.035" x2="436.011" y2="312.035"/>
</g>
<path d="M451.938,332.676v -12.7691" fill="none" stroke="black" stroke-width="2"/>
<path d="M451.938,319.907v -12.7691" fill="none" stroke="black" stroke-width="2"/>
<path d="M443.975,319.907h 7.96346" fill="none" stroke="black" stroke-width="2"/>
<path d="M451.938,319.907h 7.96346" fill="none" stroke="black" stroke-width="2"/>
<g stroke="black" stroke-width="1" fill="none">
<line x1="450.938" y1="319.907" x2="451.938" y2="319.907"/>
</g>
<path d="M467.865,319.872v -15.6948" fill="none" stroke="black" stroke-width="2"/>
<path d="M467.865,304.177v -15.6948" fill="none" stroke="black" stroke-width="2"/>
<path d="M459.902,304.177h 7.96346" fill="none" stroke="black" stroke-width="2"/>
<path d="M467.865,304.177h 7.96346" fill="none" stroke="black" stroke-width="2"/>
<g stroke="black" stroke-width="1" fill="none">
<line x1="466.865" y1="304.177" x2="467.865" y2="304.177"/>
</g>
<path d="M483.792,329.571v -12.3507" fill="none" stroke="black" stroke-width="2"/>
<path d="M483.792,317.22v -12.3507" fill="none" stroke="black" stroke-width="2"/>
<path d="M475.828,317.22h 7.96346" fill="none" stroke="black" stroke-width="2"/>
<path d="M483.792,317.22h 7.96346" fill="none" stroke="black" stroke-width="2"/>
<g stroke="black" stroke-width="1" fill="none">
<line x1="482.792" y1="317.22" x2="483.792" y2="317.22"/>
</g>
<path d="M499.719,358.573v -15.3176" fill="none" stroke="black" stroke-width="2"/>
<path d="M499.719,343.256v -15.3176" fill="none" stroke="black" stroke-width="2"/>
<path d="M491.755,343.256h 7.96346" fill="none" stroke="black" stroke-width="2"/>
<path d="M499.719,343.256h 7.96346" fill="none" stroke="black" stroke-width="2"/>
<g stroke="black" stroke-width="1" fill="none">
<line x1="498.719" y1="343.256" x2="499.719" y2="343.256"/>
</g>
<path d="M64.1174,365.092l 4.77808, -0.0870765l 4.77808, -0.0870765l 4.77808, -0.0870765l 4.77808, -0.0870765l 4.77808, -0.0870765l 4.77808, -0.0870765l 4.77808, -0.0870765l 4.77808, -0.0870765l 4.77808, -0.0870765l 4.77808, -0.0870765l 4.77808,
 -0.0870765l 4.77808, -0.0870765l 4.77808, -0.0870765l 4.77808, -0.0870765l 4.77808, -0.0870765l 4.77808, -0.0870765l 4.77808, -0.0870765l 4.77808, -0.0870765l 4.77808, -0.0870765l 4.77808, -0.0870765l 4.77808, -0.0870765l 4.77808, -0.0870765l
 4.77808, -0.0870765l 4.77808, -0.0870765l 4.77808, -0.0870765l 4.77808, -0.0870765l 4.77808, -0.0870765l 4.77808, -0.0870765l 4.77808, -0.0870765l 4.77808, -0.0870765l 4.77808, -0.0870765l 4.77808, -0.0870765l 4.77808, -0.0870765l 4.77808,
 -0.0870765l 4.77808, -0.0870765l 4.77808, -0.0870765l 4.77808, -0.0870765l 4.77808, -0.0870765l 4.77808, -0.0870765l 4.77808, -0.0870765l 4.77808, -0.0870765l 4.77808, -0.0870765l 4.77808, -0.0870765l 4.77808, -0.0870765l 4.77808, -0.0870765l
 4.77808, -0.0870765l 4.77808, -0.0870765l 4.77808, -0.0870765l 4.77808, -0.0870765" fill="none" stroke="#339966" stroke-width="2"/>
<path d="M298.243,360.826l 4.77808, -0.0870765l 4.77808, -0.0870765l 4.77808, -0.0870765l 4.77808, -0.0870765l 4.77808, -0.0870765l 4.77808, -0.0870765l 4.77808, -0.0870765l 4.77808, -0.0870765l 4.77808, -0.0870765l 4.77808, -0.0870765l 4.77808,
 -0.0870765l 4.77808, -0.0870765l 4.77808, -0.0870765l 4.77808, -0.0870765l 4.77808, -0.0870765l 4.77808, -0.0870765l 4.77808, -0.0870765l 4.77808, -0.0870765l 4.77808, -0.0870765l 4.77808, -0.0870765l 4.77808, -0.0870765l 4.77808, -0.0870765l
 4.77808, -0.0870765l 4.77808, -0.0870765l 4.77808, -0.0870765l 4.77808, -0.0870765l 4.77808, -0.0870765l 4.77808, -0.0870765l 4.77808, -0.0870765l 4.77808, -0.0870765l 4.77808, -0.0870765l 4.77808, -0.0870765l 4.77808, -0.0870765l 4.77808,
 -0.0870765l 4.77808, -0.0870765l 4.77808, -0.0870765l 4.77808, -0.0870765l 4.77808, -0.0870765l 4.77808, -0.0870765l 4.77808, -0.0870765l 4.77808, -0.0870765l 4.77808, -0.0870765l 4.77808, -0.0870765l 4.77808, -0.0870765l 4.77808, -0.0870765l
 4.77808, -0.0870765l 4.77808, -0.0870765l 4.77808, -0.0870765l 4.77808, -0.0870765" fill="none" stroke="#339966" stroke-width="2"/>
<path d="M532.369,356.559l 4.77808, -0.0870765" fill="none" stroke="#339966" stroke-width="2"/>
<path d="M61.7283,488.189h 477.808" fill="none" stroke="black"/>
<path d="M61.7283,481.426v 6.76256" fill="none" stroke="black"/>
<path d="M77.6553,484.807v 3.38128" fill="none" stroke="black"/>
<path d="M93.5822,484.807v 3.38128" fill="none" stroke="black"/>
<path d="M109.509,484.807v 3.38128" fill="none" stroke="black"/>
<path d="M125.436,484.807v 3.38128" fill="none" stroke="black"/>
<path d="M141.363,481.426v 6.76256" fill="none" stroke="black"/>
<path d="M157.29,484.807v 3.38128" fill="none" stroke="black"/>
<path d="M173.217,484.807v 3.38128" fill="none" stroke="black"/>
<path d="M189.144,484.807v 3.38128" fill="none" stroke="black"/>
<path d="M205.071,484.807v 3.38128" fill="none" stroke="black"/>
<path d="M220.998,481.426v 6.76256" fill="none" stroke="black"/>
<path d="M236.925,484.807v 3.38128" fill="none" stroke="black"/>
<path d="M252.852,484.807v 3.38128" fill="none" stroke="black"/>
<path d="M268.778,484.807v 3.38128" fill="none" stroke="black"/>
<path d="M284.705,484.807v 3.38128" fill="none" stroke="black"/>
<path d="M300.632,481.426v 6.76256" fill="none" stroke="black"/>
<path d="M316.559,484.807v 3.38128" fill="none" stroke="black"/>
<path d="M332.486,484.807v 3.38128" fill="none" stroke="black"/>
<path d="M348.413,484.807v 3.38128" fill="none" stroke="black"/>
<path d="M364.34,484.807v 3.38128" fill="none" stroke="black"/>
<path d="M380.267,481.426v 6.76256" fill="none" stroke="black"/>
<path d="M396.194,484.807v 3.38128" fill="none" stroke="black"/>
<path d="M412.121,484.807v 3.38128" fill="none" stroke="black"/>
<path d="M428.048,484.807v 3.38128" fill="none" stroke="black"/>
<path d="M443.975,484.807v 3.38128" fill="none" stroke="black"/>
<path d="M459.902,481.426v 6.76256" fill="none" stroke="black"/>
<path d="M475.828,484.807v 3.38128" fill="none" stroke="black"/>
<path d="M491.755,484.807v 3.38128" fill="none" stroke="black"/>
<path d="M507.682,484.807v 3.38128" fill="none" stroke="black"/>
<path d="M523.609,484.807v 3.38128" fill="none" stroke="black"/>
<path d="M539.536,481.426v 6.76256" fill="none" stroke="black"/>
<text xml:space="preserve" x="60.2266" y="496.774" fill="black" font-size="8.91652" font-family="Helvetica">3</text>
<text xml:space="preserve" x="56.4345" y="496.774" fill="black" font-size="8.91652" font-family="Times">&#8722;</text>
<text xml:space="preserve" x="139.862" y="496.774" fill="black" font-size="8.91652" font-family="Helvetica">2</text>
<text xml:space="preserve" x="136.07" y="496.774" fill="black" font-size="8.91652" font-family="Times">&#8722;</text>
<text xml:space="preserve" x="220.446" y="496.774" fill="black" font-size="8.91652" font-family="Helvetica">1</text>
<text xml:space="preserve" x="215.706" y="496.774" fill="black" font-size="8.91652" font-family="Times">&#8722;</text>
<text xml:space="preserve" x="297.237" y="496.774" fill="black" font-size="8.91652" font-family="Helvetica">0</text>
<text xml:space="preserve" x="377.821" y="496.774" fill="black" font-size="8.91652" font-family="Helvetica">1</text>
<text xml:space="preserve" x="456.508" y="496.774" fill="black" font-size="8.91652" font-family="Helvetica">2</text>
<text xml:space="preserve" x="536.144" y="496.774" fill="black" font-size="8.91652" font-family="Helvetica">3</text>
<text xml:space="preserve" x="531.404" y="516.683" fill="black" font-size="14.9283" font-family="Times">&#0951;</text>
<text xml:space="preserve" x="507.702" y="516.683" fill="black" font-size="14.9283" font-family="Helvetica">Jet </text>
<path d="M61.7283,278.497h 477.808" fill="none" stroke="black"/>
<path d="M61.7283,285.259v -6.76256" fill="none" stroke="black"/>
<path d="M77.6553,281.878v -3.38128" fill="none" stroke="black"/>
<path d="M93.5822,281.878v -3.38128" fill="none" stroke="black"/>
<path d="M109.509,281.878v -3.38128" fill="none" stroke="black"/>
<path d="M125.436,281.878v -3.38128" fill="none" stroke="black"/>
<path d="M141.363,285.259v -6.76256" fill="none" stroke="black"/>
<path d="M157.29,281.878v -3.38128" fill="none" stroke="black"/>
<path d="M173.217,281.878v -3.38128" fill="none" stroke="black"/>
<path d="M189.144,281.878v -3.38128" fill="none" stroke="black"/>
<path d="M205.071,281.878v -3.38128" fill="none" stroke="black"/>
<path d="M220.998,285.259v -6.76256" fill="none" stroke="black"/>
<path d="M236.925,281.878v -3.38128" fill="none" stroke="black"/>
<path d="M252.852,281.878v -3.38128" fill="none" stroke="black"/>
<path d="M268.778,281.878v -3.38128" fill="none" stroke="black"/>
<path d="M284.705,281.878v -3.38128" fill="none" stroke="black"/>
<path d="M300.632,285.259v -6.76256" fill="none" stroke="black"/>
<path d="M316.559,281.878v -3.38128" fill="none" stroke="black"/>
<path d="M332.486,281.878v -3.38128" fill="none" stroke="black"/>
<path d="M348.413,281.878v -3.38128" fill="none" stroke="black"/>
<path d="M364.34,281.878v -3.38128" fill="none" stroke="black"/>
<path d="M380.267,285.259v -6.76256" fill="none" stroke="black"/>
<path d="M396.194,281.878v -3.38128" fill="none" stroke="black"/>
<path d="M412.121,281.878v -3.38128" fill="none" stroke="black"/>
<path d="M428.048,281.878v -3.38128" fill="none" stroke="black"/>
<path d="M443.975,281.878v -3.38128" fill="none" stroke="black"/>
<path d="M459.902,285.259v -6.76256" fill="none" stroke="black"/>
<path d="M475.828,281.878v -3.38128" fill="none" stroke="black"/>
<path d="M491.755,281.878v -3.38128" fill="none" stroke="black"/>
<path d="M507.682,281.878v -3.38128" fill="none" stroke="black"/>
<path d="M523.609,281.878v -3.38128" fill="none" stroke="black"/>
<path d="M539.536,285.259v -6.76256" fill="none" stroke="black"/>
<path d="M61.7283,488.189v -209.692" fill="none" stroke="black"/>
<path d="M75.0625,488.189h -13.3342" fill="none" stroke="black"/>
<path d="M68.3954,479.884h -6.66709" fill="none" stroke="black"/>
<path d="M68.3954,471.579h -6.66709" fill="none" stroke="black"/>
<path d="M68.3954,463.274h -6.66709" fill="none" stroke="black"/>
<path d="M75.0625,454.969h -13.3342" fill="none" stroke="black"/>
<path d="M68.3954,446.664h -6.66709" fill="none" stroke="black"/>
<path d="M68.3954,438.359h -6.66709" fill="none" stroke="black"/>
<path d="M68.3954,430.054h -6.66709" fill="none" stroke="black"/>
<path d="M75.0625,421.749h -13.3342" fill="none" stroke="black"/>
<path d="M68.3954,413.444h -6.66709" fill="none" stroke="black"/>
<path d="M68.3954,405.139h -6.66709" fill="none" stroke="black"/>
<path d="M68.3954,396.834h -6.66709" fill="none" stroke="black"/>
<path d="M75.0625,388.529h -13.3342" fill="none" stroke="black"/>
<path d="M68.3954,380.224h -6.66709" fill="none" stroke="black"/>
<path d="M68.3954,371.919h -6.66709" fill="none" stroke="black"/>
<path d="M68.3954,363.614h -6.66709" fill="none" stroke="black"/>
<path d="M75.0625,355.309h -13.3342" fill="none" stroke="black"/>
<path d="M68.3954,347.004h -6.66709" fill="none" stroke="black"/>
<path d="M68.3954,338.699h -6.66709" fill="none" stroke="black"/>
<path d="M68.3954,330.394h -6.66709" fill="none" stroke="black"/>
<path d="M75.0625,322.089h -13.3342" fill="none" stroke="black"/>
<path d="M68.3954,313.784h -6.66709" fill="none" stroke="black"/>
<path d="M68.3954,305.479h -6.66709" fill="none" stroke="black"/>
<path d="M68.3954,297.174h -6.66709" fill="none" stroke="black"/>
<path d="M75.0625,288.869h -13.3342" fill="none" stroke="black"/>
<path d="M75.0625,288.869h -13.3342" fill="none" stroke="black"/>
<path d="M68.3954,280.564h -6.66709" fill="none" stroke="black"/>
<text xml:space="preserve" x="53.5904" y="491.086" fill="black" font-size="8.91652" font-family="Helvetica">0</text>
<text xml:space="preserve" x="46.006" y="457.904" fill="black" font-size="8.91652" font-family="Helvetica">0.2</text>
<text xml:space="preserve" x="46.006" y="424.723" fill="black" font-size="8.91652" font-family="Helvetica">0.4</text>
<text xml:space="preserve" x="46.006" y="391.541" fill="black" font-size="8.91652" font-family="Helvetica">0.6</text>
<text xml:space="preserve" x="46.006" y="358.36" fill="black" font-size="8.91652" font-family="Helvetica">0.8</text>
<text xml:space="preserve" x="54.5384" y="325.178" fill="black" font-size="8.91652" font-family="Helvetica">1</text>
<text xml:space="preserve" x="46.006" y="291.997" fill="black" font-size="8.91652" font-family="Helvetica">1.2</text>
<g transform="rotate(-90,19.4608,458.852)">
<text xml:space="preserve" x="19.4608" y="458.852" fill="black" font-size="14.9283" font-family="Helvetica">True Background / Predicted</text>
</g>
<text xml:space="preserve" x="311.458" y="424.723" fill="black" font-size="14.9283" font-family="Helvetica">Fitting function: par0 + par1*x</text>
<text xml:space="preserve" x="323.782" y="450.32" fill="black" font-size="14.9283" font-family="Helvetica">par0 : 0.767051 +- 0.0105261</text>
<text xml:space="preserve" x="323.782" y="476.865" fill="black" font-size="14.9283" font-family="Helvetica">par1 : 0.00873739 +- 0.00916573</text></svg>
