<?xml version="1.0" standalone="no"?>
<svg width="567.429" height="546.572" viewBox="0 0 567.429 546.572" xmlns="http://www.w3.org/2000/svg" shape-rendering="crispEdges">
<title>
/home/kuanyu/Documents/CMS/Background_Estimate/fake_rate/top_emu/plot/CT_Top(emu)_JetPt_dileppT_LO_2.svg
</title>
<desc>
Creator: ROOT Version 6.26/04
CreationDate: Tue Nov 15 21:40:18 2022</desc>
<defs>
</defs>
<rect x="0.5" y="0" width="566.929" height="546.072" fill="white"/>
<rect x="6.16929" y="5.46072" width="555.591" height="262.115" fill="white"/>
<rect x="61.7283" y="8.08187" width="477.808" height="259.493" fill="white"/>
<rect x="61.7283" y="8.08187" width="477.808" height="259.493" fill="none" stroke="black"/>
<rect x="61.7283" y="8.08187" width="477.808" height="259.493" fill="white"/>
<rect x="61.7283" y="8.08187" width="477.808" height="259.493" fill="none" stroke="black"/>
<path d="M76.0626,32.5694v -0.669678" fill="none" stroke="#ff0000" stroke-width="2"/>
<path d="M76.0626,31.8997v -0.657527" fill="none" stroke="#ff0000" stroke-width="2"/>
<path d="M71.2845,31.8997h 4.77808" fill="none" stroke="#ff0000" stroke-width="2"/>
<path d="M76.0626,31.8997h 4.77808" fill="none" stroke="#ff0000" stroke-width="2"/>
<g stroke="black" stroke-width="1" fill="none">
<line x1="75.0626" y1="31.8997" x2="76.0626" y2="31.8997"/>
</g>
<path d="M85.6187,60.8224v -0.979791" fill="none" stroke="#ff0000" stroke-width="2"/>
<path d="M85.6187,59.8426v -0.953997" fill="none" stroke="#ff0000" stroke-width="2"/>
<path d="M80.8407,59.8426h 4.77808" fill="none" stroke="#ff0000" stroke-width="2"/>
<path d="M85.6187,59.8426h 4.77808" fill="none" stroke="#ff0000" stroke-width="2"/>
<g stroke="black" stroke-width="1" fill="none">
<line x1="84.6187" y1="59.8426" x2="85.6187" y2="59.8426"/>
</g>
<path d="M95.1749,81.1052v -1.30494" fill="none" stroke="#ff0000" stroke-width="2"/>
<path d="M95.1749,79.8002v -1.25958" fill="none" stroke="#ff0000" stroke-width="2"/>
<path d="M90.3968,79.8002h 4.77808" fill="none" stroke="#ff0000" stroke-width="2"/>
<path d="M95.1749,79.8002h 4.77808" fill="none" stroke="#ff0000" stroke-width="2"/>
<g stroke="black" stroke-width="1" fill="none">
<line x1="94.1749" y1="79.8002" x2="95.1749" y2="79.8002"/>
</g>
<path d="M104.731,102.269v -1.75067" fill="none" stroke="#ff0000" stroke-width="2"/>
<path d="M104.731,100.519v -1.66999" fill="none" stroke="#ff0000" stroke-width="2"/>
<path d="M99.953,100.519h 4.77808" fill="none" stroke="#ff0000" stroke-width="2"/>
<path d="M104.731,100.519h 4.77808" fill="none" stroke="#ff0000" stroke-width="2"/>
<g stroke="black" stroke-width="1" fill="none">
<line x1="103.731" y1="100.519" x2="104.731" y2="100.519"/>
</g>
<path d="M119.065,105.014v -1.84054" fill="none" stroke="#ff0000" stroke-width="2"/>
<path d="M119.065,103.173v -1.75156" fill="none" stroke="#ff0000" stroke-width="2"/>
<path d="M109.509,103.173h 9.55616" fill="none" stroke="#ff0000" stroke-width="2"/>
<path d="M119.065,103.173h 9.55616" fill="none" stroke="#ff0000" stroke-width="2"/>
<g stroke="black" stroke-width="1" fill="none">
<line x1="118.065" y1="103.173" x2="119.065" y2="103.173"/>
</g>
<path d="M138.178,140.081v -3.34029" fill="none" stroke="#ff0000" stroke-width="2"/>
<path d="M138.178,136.741v -3.05822" fill="none" stroke="#ff0000" stroke-width="2"/>
<path d="M128.621,136.741h 9.55616" fill="none" stroke="#ff0000" stroke-width="2"/>
<path d="M138.178,136.741h 9.55616" fill="none" stroke="#ff0000" stroke-width="2"/>
<g stroke="black" stroke-width="1" fill="none">
<line x1="137.178" y1="136.741" x2="138.178" y2="136.741"/>
</g>
<path d="M160.475,178.488v -6.8229" fill="none" stroke="#ff0000" stroke-width="2"/>
<path d="M160.475,171.665v -5.73962" fill="none" stroke="#ff0000" stroke-width="2"/>
<path d="M147.734,171.665h 12.7415" fill="none" stroke="#ff0000" stroke-width="2"/>
<path d="M160.475,171.665h 12.7415" fill="none" stroke="#ff0000" stroke-width="2"/>
<g stroke="black" stroke-width="1" fill="none">
<line x1="159.475" y1="171.665" x2="160.475" y2="171.665"/>
</g>
<path d="M189.144,223.165v -12.5376" fill="none" stroke="#ff0000" stroke-width="2"/>
<path d="M189.144,210.628v -9.29727" fill="none" stroke="#ff0000" stroke-width="2"/>
<path d="M173.217,210.628h 15.9269" fill="none" stroke="#ff0000" stroke-width="2"/>
<path d="M189.144,210.628h 15.9269" fill="none" stroke="#ff0000" stroke-width="2"/>
<g stroke="black" stroke-width="1" fill="none">
<line x1="188.144" y1="210.628" x2="189.144" y2="210.628"/>
</g>
<path d="M372.303,242.456v -15.3231" fill="none" stroke="#ff0000" stroke-width="2"/>
<path d="M372.303,227.133v -10.7361" fill="none" stroke="#ff0000" stroke-width="2"/>
<path d="M205.071,227.133h 167.233" fill="none" stroke="#ff0000" stroke-width="2"/>
<path d="M372.303,227.133h 167.233" fill="none" stroke="#ff0000" stroke-width="2"/>
<g stroke="black" stroke-width="1" fill="none">
<line x1="371.303" y1="227.133" x2="372.303" y2="227.133"/>
</g>
<path d="M61.7283,267.575h 477.808" fill="none" stroke="black"/>
<path d="M61.7283,260.813v 6.76256" fill="none" stroke="black"/>
<path d="M77.6553,264.194v 3.38128" fill="none" stroke="black"/>
<path d="M93.5822,264.194v 3.38128" fill="none" stroke="black"/>
<path d="M109.509,264.194v 3.38128" fill="none" stroke="black"/>
<path d="M125.436,260.813v 6.76256" fill="none" stroke="black"/>
<path d="M141.363,264.194v 3.38128" fill="none" stroke="black"/>
<path d="M157.29,264.194v 3.38128" fill="none" stroke="black"/>
<path d="M173.217,264.194v 3.38128" fill="none" stroke="black"/>
<path d="M189.144,260.813v 6.76256" fill="none" stroke="black"/>
<path d="M205.071,264.194v 3.38128" fill="none" stroke="black"/>
<path d="M220.998,264.194v 3.38128" fill="none" stroke="black"/>
<path d="M236.925,264.194v 3.38128" fill="none" stroke="black"/>
<path d="M252.852,260.813v 6.76256" fill="none" stroke="black"/>
<path d="M268.778,264.194v 3.38128" fill="none" stroke="black"/>
<path d="M284.705,264.194v 3.38128" fill="none" stroke="black"/>
<path d="M300.632,264.194v 3.38128" fill="none" stroke="black"/>
<path d="M316.559,260.813v 6.76256" fill="none" stroke="black"/>
<path d="M332.486,264.194v 3.38128" fill="none" stroke="black"/>
<path d="M348.413,264.194v 3.38128" fill="none" stroke="black"/>
<path d="M364.34,264.194v 3.38128" fill="none" stroke="black"/>
<path d="M380.267,260.813v 6.76256" fill="none" stroke="black"/>
<path d="M396.194,264.194v 3.38128" fill="none" stroke="black"/>
<path d="M412.121,264.194v 3.38128" fill="none" stroke="black"/>
<path d="M428.048,264.194v 3.38128" fill="none" stroke="black"/>
<path d="M443.975,260.813v 6.76256" fill="none" stroke="black"/>
<path d="M459.902,264.194v 3.38128" fill="none" stroke="black"/>
<path d="M475.828,264.194v 3.38128" fill="none" stroke="black"/>
<path d="M491.755,264.194v 3.38128" fill="none" stroke="black"/>
<path d="M507.682,260.813v 6.76256" fill="none" stroke="black"/>
<path d="M507.682,260.813v 6.76256" fill="none" stroke="black"/>
<path d="M523.609,264.194v 3.38128" fill="none" stroke="black"/>
<path d="M61.7283,267.575v -259.493" fill="none" stroke="black"/>
<path d="M69.9789,262.823h -8.25052" fill="none" stroke="black"/>
<path d="M69.9789,256.216h -8.25052" fill="none" stroke="black"/>
<path d="M69.9789,250.63h -8.25052" fill="none" stroke="black"/>
<path d="M69.9789,245.79h -8.25052" fill="none" stroke="black"/>
<path d="M69.9789,241.522h -8.25052" fill="none" stroke="black"/>
<path d="M78.2294,237.704h -16.501" fill="none" stroke="black"/>
<text xml:space="preserve" x="53.5904" y="240.803" fill="black" font-size="8.91652" font-family="Helvetica">1</text>
<path d="M69.9789,212.584h -8.25052" fill="none" stroke="black"/>
<path d="M69.9789,197.89h -8.25052" fill="none" stroke="black"/>
<path d="M69.9789,187.464h -8.25052" fill="none" stroke="black"/>
<path d="M69.9789,179.377h -8.25052" fill="none" stroke="black"/>
<path d="M69.9789,172.77h -8.25052" fill="none" stroke="black"/>
<path d="M69.9789,167.184h -8.25052" fill="none" stroke="black"/>
<path d="M69.9789,162.344h -8.25052" fill="none" stroke="black"/>
<path d="M69.9789,158.076h -8.25052" fill="none" stroke="black"/>
<path d="M78.2294,154.258h -16.501" fill="none" stroke="black"/>
<text xml:space="preserve" x="47.9021" y="157.375" fill="black" font-size="8.91652" font-family="Helvetica">10</text>
<path d="M69.9789,129.138h -8.25052" fill="none" stroke="black"/>
<path d="M69.9789,114.444h -8.25052" fill="none" stroke="black"/>
<path d="M69.9789,104.018h -8.25052" fill="none" stroke="black"/>
<path d="M69.9789,95.9315h -8.25052" fill="none" stroke="black"/>
<path d="M69.9789,89.3242h -8.25052" fill="none" stroke="black"/>
<path d="M69.9789,83.7378h -8.25052" fill="none" stroke="black"/>
<path d="M69.9789,78.8986h -8.25052" fill="none" stroke="black"/>
<path d="M69.9789,74.6301h -8.25052" fill="none" stroke="black"/>
<path d="M78.2294,70.8118h -16.501" fill="none" stroke="black"/>
<text xml:space="preserve" x="53.5904" y="70.1551" fill="black" font-size="6.11102" font-family="Helvetica">2</text>
<text xml:space="preserve" x="44.1099" y="74.8953" fill="black" font-size="8.91652" font-family="Helvetica">10</text>
<path d="M69.9789,45.6921h -8.25052" fill="none" stroke="black"/>
<path d="M69.9789,30.998h -8.25052" fill="none" stroke="black"/>
<path d="M69.9789,20.5724h -8.25052" fill="none" stroke="black"/>
<path d="M69.9789,12.4856h -8.25052" fill="none" stroke="black"/>
<g transform="rotate(-90,19.4608,52.1423)">
<text xml:space="preserve" x="19.4608" y="52.1423" fill="black" font-size="14.9283" font-family="Helvetica">nEvent</text>
</g>
<path d="M76.0626,10.9262v -0.222037" fill="none" stroke="#006699" stroke-width="2"/>
<path d="M76.0626,10.7042v -0.220685" fill="none" stroke="#006699" stroke-width="2"/>
<g stroke="black" stroke-width="1" fill="none">
<line x1="75.0626" y1="10.7042" x2="76.0626" y2="10.7042"/>
</g>
<path d="M85.6187,49.5459v -0.329498" fill="none" stroke="#006699" stroke-width="2"/>
<path d="M85.6187,49.2164v -0.326529" fill="none" stroke="#006699" stroke-width="2"/>
<g stroke="black" stroke-width="1" fill="none">
<line x1="84.6187" y1="49.2164" x2="85.6187" y2="49.2164"/>
</g>
<path d="M95.1749,76.9314v -0.450331" fill="none" stroke="#006699" stroke-width="2"/>
<path d="M95.1749,76.481v -0.444803" fill="none" stroke="#006699" stroke-width="2"/>
<g stroke="black" stroke-width="1" fill="none">
<line x1="94.1749" y1="76.481" x2="95.1749" y2="76.481"/>
</g>
<path d="M104.731,100.359v -0.615065" fill="none" stroke="#006699" stroke-width="2"/>
<path d="M104.731,99.7443v -0.6048" fill="none" stroke="#006699" stroke-width="2"/>
<g stroke="black" stroke-width="1" fill="none">
<line x1="103.731" y1="99.7443" x2="104.731" y2="99.7443"/>
</g>
<path d="M119.065,103.622v -0.637894" fill="none" stroke="#006699" stroke-width="2"/>
<path d="M119.065,102.984v -0.626859" fill="none" stroke="#006699" stroke-width="2"/>
<g stroke="black" stroke-width="1" fill="none">
<line x1="118.065" y1="102.984" x2="119.065" y2="102.984"/>
</g>
<path d="M138.178,135.207v -1.03404" fill="none" stroke="#006699" stroke-width="2"/>
<path d="M138.178,134.173v -1.00535" fill="none" stroke="#006699" stroke-width="2"/>
<g stroke="black" stroke-width="1" fill="none">
<line x1="137.178" y1="134.173" x2="138.178" y2="134.173"/>
</g>
<path d="M160.475,156.83v -1.48579" fill="none" stroke="#006699" stroke-width="2"/>
<path d="M160.475,155.344v -1.42727" fill="none" stroke="#006699" stroke-width="2"/>
<g stroke="black" stroke-width="1" fill="none">
<line x1="159.475" y1="155.344" x2="160.475" y2="155.344"/>
</g>
<path d="M189.144,183.273v -1.63306" fill="none" stroke="#006699" stroke-width="2"/>
<path d="M189.144,181.64v -1.56263" fill="none" stroke="#006699" stroke-width="2"/>
<g stroke="black" stroke-width="1" fill="none">
<line x1="188.144" y1="181.64" x2="189.144" y2="181.64"/>
</g>
<path d="M372.303,190.625v -2.01464" fill="none" stroke="#006699" stroke-width="2"/>
<path d="M372.303,188.61v -1.90851" fill="none" stroke="#006699" stroke-width="2"/>
<g stroke="black" stroke-width="1" fill="none">
<line x1="371.303" y1="188.61" x2="372.303" y2="188.61"/>
</g>
<path d="M61.7283,267.575h 9.55616v -256.871h 9.55616v 38.5122h 9.55616v 27.2646h 9.55616v 23.2632h 9.55616v 3.23957h 19.1123v 31.1895h 19.1123v 21.1708h 25.4831v 26.2961h 31.8539v 6.96983h 334.466" fill="none" stroke="#006699" stroke-width="2"/>
<text xml:space="preserve" x="303.873" y="87.2199" fill="black" font-size="14.9283" font-family="Helvetica">True Background</text>
<path d="M263.477,84.0951h 34.0299" fill="none" stroke="#ff0000" stroke-width="2"/>
<path d="M280.492,99.822v -31.4538" fill="none" stroke="#ff0000" stroke-width="2"/>
<text xml:space="preserve" x="303.873" y="142.206" fill="black" font-size="14.9283" font-family="Helvetica">Predict</text>
<path d="M263.477,136.518h 34.0299" fill="none" stroke="#006699" stroke-width="2"/>
<path d="M280.492,152.245v -31.4538" fill="none" stroke="#006699" stroke-width="2"/>
<rect x="6.16929" y="278.497" width="555.591" height="262.115" fill="white"/>
<rect x="61.7283" y="278.497" width="477.808" height="209.692" fill="white"/>
<rect x="61.7283" y="278.497" width="477.808" height="209.692" fill="none" stroke="black"/>
<rect x="61.7283" y="278.497" width="477.808" height="209.692" fill="white"/>
<rect x="61.7283" y="278.497" width="477.808" height="209.692" fill="none" stroke="black"/>
<path d="M76.0626,383.965v -2.05124" fill="none" stroke="black" stroke-width="2"/>
<path d="M76.0626,381.913v -2.05124" fill="none" stroke="black" stroke-width="2"/>
<path d="M71.2845,381.913h 4.77808" fill="none" stroke="black" stroke-width="2"/>
<path d="M76.0626,381.913h 4.77808" fill="none" stroke="black" stroke-width="2"/>
<g stroke="black" stroke-width="1" fill="none">
<line x1="75.0626" y1="381.913" x2="76.0626" y2="381.913"/>
</g>
<path d="M85.6187,349.933v -4.00722" fill="none" stroke="black" stroke-width="2"/>
<path d="M85.6187,345.925v -4.00722" fill="none" stroke="black" stroke-width="2"/>
<path d="M80.8407,345.925h 4.77808" fill="none" stroke="black" stroke-width="2"/>
<path d="M85.6187,345.925h 4.77808" fill="none" stroke="black" stroke-width="2"/>
<g stroke="black" stroke-width="1" fill="none">
<line x1="84.6187" y1="345.925" x2="85.6187" y2="345.925"/>
</g>
<path d="M95.1749,320.665v -6.51997" fill="none" stroke="black" stroke-width="2"/>
<path d="M95.1749,314.145v -6.51997" fill="none" stroke="black" stroke-width="2"/>
<path d="M90.3968,314.145h 4.77808" fill="none" stroke="black" stroke-width="2"/>
<path d="M95.1749,314.145h 4.77808" fill="none" stroke="black" stroke-width="2"/>
<g stroke="black" stroke-width="1" fill="none">
<line x1="94.1749" y1="314.145" x2="95.1749" y2="314.145"/>
</g>
<path d="M104.731,310.833v -9.34867" fill="none" stroke="black" stroke-width="2"/>
<path d="M104.731,301.484v -9.34867" fill="none" stroke="black" stroke-width="2"/>
<path d="M99.953,301.484h 4.77808" fill="none" stroke="black" stroke-width="2"/>
<path d="M104.731,301.484h 4.77808" fill="none" stroke="black" stroke-width="2"/>
<g stroke="black" stroke-width="1" fill="none">
<line x1="103.731" y1="301.484" x2="104.731" y2="301.484"/>
</g>
<path d="M119.065,308.406v -9.96218" fill="none" stroke="black" stroke-width="2"/>
<path d="M119.065,298.444v -9.96218" fill="none" stroke="black" stroke-width="2"/>
<path d="M109.509,298.444h 9.55616" fill="none" stroke="black" stroke-width="2"/>
<path d="M119.065,298.444h 9.55616" fill="none" stroke="black" stroke-width="2"/>
<g stroke="black" stroke-width="1" fill="none">
<line x1="118.065" y1="298.444" x2="119.065" y2="298.444"/>
</g>
<path d="M138.178,326.922v -16.4249" fill="none" stroke="black" stroke-width="2"/>
<path d="M138.178,310.497v -16.4249" fill="none" stroke="black" stroke-width="2"/>
<path d="M128.621,310.497h 9.55616" fill="none" stroke="black" stroke-width="2"/>
<path d="M138.178,310.497h 9.55616" fill="none" stroke="black" stroke-width="2"/>
<g stroke="black" stroke-width="1" fill="none">
<line x1="137.178" y1="310.497" x2="138.178" y2="310.497"/>
</g>
<path d="M160.475,388.039v -21.4275" fill="none" stroke="black" stroke-width="2"/>
<path d="M160.475,366.612v -21.4275" fill="none" stroke="black" stroke-width="2"/>
<path d="M147.734,366.612h 12.7415" fill="none" stroke="black" stroke-width="2"/>
<path d="M160.475,366.612h 12.7415" fill="none" stroke="black" stroke-width="2"/>
<g stroke="black" stroke-width="1" fill="none">
<line x1="159.475" y1="366.612" x2="160.475" y2="366.612"/>
</g>
<path d="M189.144,427.825v -25.3509" fill="none" stroke="black" stroke-width="2"/>
<path d="M189.144,402.474v -25.3509" fill="none" stroke="black" stroke-width="2"/>
<path d="M173.217,402.474h 15.9269" fill="none" stroke="black" stroke-width="2"/>
<path d="M189.144,402.474h 15.9269" fill="none" stroke="black" stroke-width="2"/>
<g stroke="black" stroke-width="1" fill="none">
<line x1="188.144" y1="402.474" x2="189.144" y2="402.474"/>
</g>
<path d="M372.303,445.298v -22.9952" fill="none" stroke="black" stroke-width="2"/>
<path d="M372.303,422.303v -22.9952" fill="none" stroke="black" stroke-width="2"/>
<path d="M205.071,422.303h 167.233" fill="none" stroke="black" stroke-width="2"/>
<path d="M372.303,422.303h 167.233" fill="none" stroke="black" stroke-width="2"/>
<g stroke="black" stroke-width="1" fill="none">
<line x1="371.303" y1="422.303" x2="372.303" y2="422.303"/>
</g>
<path d="M64.1174,370.727l 4.77808, -1.21158l 4.77808, -1.21158l 4.77808, -1.21158l 4.77808, -1.21158l 4.77808, -1.21158l 4.77808, -1.21158l 4.77808, -1.21158l 4.77808, -1.21158l 4.77808, -1.21158l 4.77808, -1.21158l 4.77808, -1.21158l 4.77808,
 -1.21158l 4.77808, -1.21158l 4.77808, -1.21158l 4.77808, -1.21158l 4.77808, -1.21158l 4.77808, -1.21158l 4.77808, -1.21158l 4.77808, -1.21158l 4.77808, -1.21158l 4.77808, -1.21158l 4.77808, -1.21158l 4.77808, -1.21158l 4.77808, -1.21158l 4.77808,
 -1.21158l 4.77808, -1.21158l 4.77808, -1.21158l 4.77808, -1.21158l 4.77808, -1.21158l 4.77808, -1.21158l 4.77808, -1.21158l 4.77808, -1.21158l 4.77808, -1.21158l 4.77808, -1.21158l 4.77808, -1.21158l 4.77808, -1.21158l 4.77808, -1.21158l 4.77808,
 -1.21158l 4.77808, -1.21158l 4.77808, -1.21158l 4.77808, -1.21158l 4.77808, -1.21158l 4.77808, -1.21158l 4.77808, -1.21158l 4.77808, -1.21158l 4.77808, -1.21158l 4.77808, -1.21158l 4.77808, -1.21158l 4.77808, -1.21158" fill="none" stroke="#339966"
 stroke-width="2"/>
<path d="M298.243,311.359l 4.77808, -1.21158l 4.77808, -1.21158l 4.77808, -1.21158l 4.77808, -1.21158l 4.77808, -1.21158l 4.77808, -1.21158l 4.77808, -1.21158l 4.77808, -1.21158l 4.77808, -1.21158l 4.77808, -1.21158l 4.77808, -1.21158l 4.77808,
 -1.21158l 4.77808, -1.21158l 4.77808, -1.21158l 4.77808, -1.21158l 4.77808, -1.21158l 4.77808, -1.21158l 4.77808, -1.21158l 4.77808, -1.21158l 4.77808, -1.21158l 4.77808, -1.21158l 4.77808, -1.21158l 4.77808, -1.21158l 4.77808, -1.21158l 4.77808,
 -1.21158l 4.77808, -1.21158l 4.77808, -1.21158l 0.591382, -0.149957" fill="none" stroke="#339966" stroke-width="2"/>
<path d="M61.7283,488.189h 477.808" fill="none" stroke="black"/>
<path d="M61.7283,481.426v 6.76256" fill="none" stroke="black"/>
<path d="M77.6553,484.807v 3.38128" fill="none" stroke="black"/>
<path d="M93.5822,484.807v 3.38128" fill="none" stroke="black"/>
<path d="M109.509,484.807v 3.38128" fill="none" stroke="black"/>
<path d="M125.436,481.426v 6.76256" fill="none" stroke="black"/>
<path d="M141.363,484.807v 3.38128" fill="none" stroke="black"/>
<path d="M157.29,484.807v 3.38128" fill="none" stroke="black"/>
<path d="M173.217,484.807v 3.38128" fill="none" stroke="black"/>
<path d="M189.144,481.426v 6.76256" fill="none" stroke="black"/>
<path d="M205.071,484.807v 3.38128" fill="none" stroke="black"/>
<path d="M220.998,484.807v 3.38128" fill="none" stroke="black"/>
<path d="M236.925,484.807v 3.38128" fill="none" stroke="black"/>
<path d="M252.852,481.426v 6.76256" fill="none" stroke="black"/>
<path d="M268.778,484.807v 3.38128" fill="none" stroke="black"/>
<path d="M284.705,484.807v 3.38128" fill="none" stroke="black"/>
<path d="M300.632,484.807v 3.38128" fill="none" stroke="black"/>
<path d="M316.559,481.426v 6.76256" fill="none" stroke="black"/>
<path d="M332.486,484.807v 3.38128" fill="none" stroke="black"/>
<path d="M348.413,484.807v 3.38128" fill="none" stroke="black"/>
<path d="M364.34,484.807v 3.38128" fill="none" stroke="black"/>
<path d="M380.267,481.426v 6.76256" fill="none" stroke="black"/>
<path d="M396.194,484.807v 3.38128" fill="none" stroke="black"/>
<path d="M412.121,484.807v 3.38128" fill="none" stroke="black"/>
<path d="M428.048,484.807v 3.38128" fill="none" stroke="black"/>
<path d="M443.975,481.426v 6.76256" fill="none" stroke="black"/>
<path d="M459.902,484.807v 3.38128" fill="none" stroke="black"/>
<path d="M475.828,484.807v 3.38128" fill="none" stroke="black"/>
<path d="M491.755,484.807v 3.38128" fill="none" stroke="black"/>
<path d="M507.682,481.426v 6.76256" fill="none" stroke="black"/>
<path d="M507.682,481.426v 6.76256" fill="none" stroke="black"/>
<path d="M523.609,484.807v 3.38128" fill="none" stroke="black"/>
<text xml:space="preserve" x="58.3306" y="496.774" fill="black" font-size="8.91652" font-family="Helvetica">0</text>
<text xml:space="preserve" x="117.109" y="496.774" fill="black" font-size="8.91652" font-family="Helvetica">200</text>
<text xml:space="preserve" x="180.628" y="496.774" fill="black" font-size="8.91652" font-family="Helvetica">400</text>
<text xml:space="preserve" x="245.095" y="496.774" fill="black" font-size="8.91652" font-family="Helvetica">600</text>
<text xml:space="preserve" x="308.614" y="496.774" fill="black" font-size="8.91652" font-family="Helvetica">800</text>
<text xml:space="preserve" x="370.236" y="496.774" fill="black" font-size="8.91652" font-family="Helvetica">1000</text>
<text xml:space="preserve" x="433.755" y="496.774" fill="black" font-size="8.91652" font-family="Helvetica">1200</text>
<text xml:space="preserve" x="497.274" y="496.774" fill="black" font-size="8.91652" font-family="Helvetica">1400</text>
<text xml:space="preserve" x="497.274" y="518.579" fill="black" font-size="14.9283" font-family="Helvetica">Jet PT</text>
<path d="M61.7283,278.497h 477.808" fill="none" stroke="black"/>
<path d="M61.7283,285.259v -6.76256" fill="none" stroke="black"/>
<path d="M77.6553,281.878v -3.38128" fill="none" stroke="black"/>
<path d="M93.5822,281.878v -3.38128" fill="none" stroke="black"/>
<path d="M109.509,281.878v -3.38128" fill="none" stroke="black"/>
<path d="M125.436,285.259v -6.76256" fill="none" stroke="black"/>
<path d="M141.363,281.878v -3.38128" fill="none" stroke="black"/>
<path d="M157.29,281.878v -3.38128" fill="none" stroke="black"/>
<path d="M173.217,281.878v -3.38128" fill="none" stroke="black"/>
<path d="M189.144,285.259v -6.76256" fill="none" stroke="black"/>
<path d="M205.071,281.878v -3.38128" fill="none" stroke="black"/>
<path d="M220.998,281.878v -3.38128" fill="none" stroke="black"/>
<path d="M236.925,281.878v -3.38128" fill="none" stroke="black"/>
<path d="M252.852,285.259v -6.76256" fill="none" stroke="black"/>
<path d="M268.778,281.878v -3.38128" fill="none" stroke="black"/>
<path d="M284.705,281.878v -3.38128" fill="none" stroke="black"/>
<path d="M300.632,281.878v -3.38128" fill="none" stroke="black"/>
<path d="M316.559,285.259v -6.76256" fill="none" stroke="black"/>
<path d="M332.486,281.878v -3.38128" fill="none" stroke="black"/>
<path d="M348.413,281.878v -3.38128" fill="none" stroke="black"/>
<path d="M364.34,281.878v -3.38128" fill="none" stroke="black"/>
<path d="M380.267,285.259v -6.76256" fill="none" stroke="black"/>
<path d="M396.194,281.878v -3.38128" fill="none" stroke="black"/>
<path d="M412.121,281.878v -3.38128" fill="none" stroke="black"/>
<path d="M428.048,281.878v -3.38128" fill="none" stroke="black"/>
<path d="M443.975,285.259v -6.76256" fill="none" stroke="black"/>
<path d="M459.902,281.878v -3.38128" fill="none" stroke="black"/>
<path d="M475.828,281.878v -3.38128" fill="none" stroke="black"/>
<path d="M491.755,281.878v -3.38128" fill="none" stroke="black"/>
<path d="M507.682,285.259v -6.76256" fill="none" stroke="black"/>
<path d="M507.682,285.259v -6.76256" fill="none" stroke="black"/>
<path d="M523.609,281.878v -3.38128" fill="none" stroke="black"/>
<path d="M61.7283,488.189v -209.692" fill="none" stroke="black"/>
<path d="M75.0625,488.189h -13.3342" fill="none" stroke="black"/>
<path d="M68.3954,478.652h -6.66709" fill="none" stroke="black"/>
<path d="M68.3954,469.115h -6.66709" fill="none" stroke="black"/>
<path d="M68.3954,459.578h -6.66709" fill="none" stroke="black"/>
<path d="M75.0625,450.041h -13.3342" fill="none" stroke="black"/>
<path d="M68.3954,440.504h -6.66709" fill="none" stroke="black"/>
<path d="M68.3954,430.967h -6.66709" fill="none" stroke="black"/>
<path d="M68.3954,421.431h -6.66709" fill="none" stroke="black"/>
<path d="M75.0625,411.894h -13.3342" fill="none" stroke="black"/>
<path d="M68.3954,402.357h -6.66709" fill="none" stroke="black"/>
<path d="M68.3954,392.82h -6.66709" fill="none" stroke="black"/>
<path d="M68.3954,383.283h -6.66709" fill="none" stroke="black"/>
<path d="M75.0625,373.746h -13.3342" fill="none" stroke="black"/>
<path d="M68.3954,364.209h -6.66709" fill="none" stroke="black"/>
<path d="M68.3954,354.672h -6.66709" fill="none" stroke="black"/>
<path d="M68.3954,345.136h -6.66709" fill="none" stroke="black"/>
<path d="M75.0625,335.599h -13.3342" fill="none" stroke="black"/>
<path d="M68.3954,326.062h -6.66709" fill="none" stroke="black"/>
<path d="M68.3954,316.525h -6.66709" fill="none" stroke="black"/>
<path d="M68.3954,306.988h -6.66709" fill="none" stroke="black"/>
<path d="M75.0625,297.451h -13.3342" fill="none" stroke="black"/>
<path d="M75.0625,297.451h -13.3342" fill="none" stroke="black"/>
<path d="M68.3954,287.914h -6.66709" fill="none" stroke="black"/>
<text xml:space="preserve" x="53.5904" y="491.086" fill="black" font-size="8.91652" font-family="Helvetica">0</text>
<text xml:space="preserve" x="46.006" y="453.164" fill="black" font-size="8.91652" font-family="Helvetica">0.2</text>
<text xml:space="preserve" x="46.006" y="415.242" fill="black" font-size="8.91652" font-family="Helvetica">0.4</text>
<text xml:space="preserve" x="46.006" y="377.321" fill="black" font-size="8.91652" font-family="Helvetica">0.6</text>
<text xml:space="preserve" x="46.006" y="338.451" fill="black" font-size="8.91652" font-family="Helvetica">0.8</text>
<text xml:space="preserve" x="54.5384" y="300.529" fill="black" font-size="8.91652" font-family="Helvetica">1</text>
<g transform="rotate(-90,19.4608,458.852)">
<text xml:space="preserve" x="19.4608" y="458.852" fill="black" font-size="14.9283" font-family="Helvetica">True Background / Predicted</text>
</g>
<text xml:space="preserve" x="284.913" y="323.282" fill="black" font-size="14.9283" font-family="Helvetica">Fitting function: par0 + par1*x</text>
<text xml:space="preserve" x="297.237" y="349.828" fill="black" font-size="14.9283" font-family="Helvetica">par0 : 0.612653 +- 0.0117543</text>
<text xml:space="preserve" x="297.237" y="375.425" fill="black" font-size="14.9283" font-family="Helvetica">par1 : 0.000423473 +- 0.00010933</text></svg>
