<?xml version="1.0" standalone="no"?>
<svg width="567.429" height="546.572" viewBox="0 0 567.429 546.572" xmlns="http://www.w3.org/2000/svg" shape-rendering="crispEdges">
<title>
/home/kuanyu/Documents/CMS/Background_Estimate/fake_rate/top_emu/plot/CT_Top(emu)_JetPt_dileppT.svg
</title>
<desc>
Creator: ROOT Version 6.26/04
CreationDate: Wed Nov  9 18:33:07 2022</desc>
<defs>
</defs>
<rect x="0.5" y="0" width="566.929" height="546.072" fill="white"/>
<rect x="6.16929" y="5.46072" width="555.591" height="262.115" fill="white"/>
<rect x="61.7283" y="8.08187" width="477.808" height="259.493" fill="white"/>
<rect x="61.7283" y="8.08187" width="477.808" height="259.493" fill="none" stroke="black"/>
<rect x="61.7283" y="8.08187" width="477.808" height="259.493" fill="white"/>
<rect x="61.7283" y="8.08187" width="477.808" height="259.493" fill="none" stroke="black"/>
<path d="M76.0626,77.0571v -3.7153" fill="none" stroke="#ff0000" stroke-width="2"/>
<path d="M76.0626,73.3418v -3.45758" fill="none" stroke="#ff0000" stroke-width="2"/>
<path d="M71.2845,73.3418h 4.77808" fill="none" stroke="#ff0000" stroke-width="2"/>
<path d="M76.0626,73.3418h 4.77808" fill="none" stroke="#ff0000" stroke-width="2"/>
<g stroke="black" stroke-width="1" fill="none">
<line x1="75.0626" y1="73.3418" x2="76.0626" y2="73.3418"/>
</g>
<path d="M85.6187,45.174v -2.68048" fill="none" stroke="#ff0000" stroke-width="2"/>
<path d="M85.6187,42.4935v -2.54371" fill="none" stroke="#ff0000" stroke-width="2"/>
<path d="M80.8407,42.4935h 4.77808" fill="none" stroke="#ff0000" stroke-width="2"/>
<path d="M85.6187,42.4935h 4.77808" fill="none" stroke="#ff0000" stroke-width="2"/>
<g stroke="black" stroke-width="1" fill="none">
<line x1="84.6187" y1="42.4935" x2="85.6187" y2="42.4935"/>
</g>
<path d="M95.1749,49.4145v -2.6428" fill="none" stroke="#ff0000" stroke-width="2"/>
<path d="M95.1749,46.7717v -2.50976" fill="none" stroke="#ff0000" stroke-width="2"/>
<path d="M90.3968,46.7717h 4.77808" fill="none" stroke="#ff0000" stroke-width="2"/>
<path d="M95.1749,46.7717h 4.77808" fill="none" stroke="#ff0000" stroke-width="2"/>
<g stroke="black" stroke-width="1" fill="none">
<line x1="94.1749" y1="46.7717" x2="95.1749" y2="46.7717"/>
</g>
<path d="M104.731,65.0052v -3.24337" fill="none" stroke="#ff0000" stroke-width="2"/>
<path d="M104.731,61.7618v -3.04524" fill="none" stroke="#ff0000" stroke-width="2"/>
<path d="M99.953,61.7618h 4.77808" fill="none" stroke="#ff0000" stroke-width="2"/>
<path d="M104.731,61.7618h 4.77808" fill="none" stroke="#ff0000" stroke-width="2"/>
<g stroke="black" stroke-width="1" fill="none">
<line x1="103.731" y1="61.7618" x2="104.731" y2="61.7618"/>
</g>
<path d="M119.065,62.6549v -3.19296" fill="none" stroke="#ff0000" stroke-width="2"/>
<path d="M119.065,59.462v -3.00076" fill="none" stroke="#ff0000" stroke-width="2"/>
<path d="M109.509,59.462h 9.55616" fill="none" stroke="#ff0000" stroke-width="2"/>
<path d="M119.065,59.462h 9.55616" fill="none" stroke="#ff0000" stroke-width="2"/>
<g stroke="black" stroke-width="1" fill="none">
<line x1="118.065" y1="59.462" x2="119.065" y2="59.462"/>
</g>
<path d="M138.178,105.386v -5.49032" fill="none" stroke="#ff0000" stroke-width="2"/>
<path d="M138.178,99.896v -4.94533" fill="none" stroke="#ff0000" stroke-width="2"/>
<path d="M128.621,99.896h 9.55616" fill="none" stroke="#ff0000" stroke-width="2"/>
<path d="M138.178,99.896h 9.55616" fill="none" stroke="#ff0000" stroke-width="2"/>
<g stroke="black" stroke-width="1" fill="none">
<line x1="137.178" y1="99.896" x2="138.178" y2="99.896"/>
</g>
<path d="M160.475,153.475v -11.4059" fill="none" stroke="#ff0000" stroke-width="2"/>
<path d="M160.475,142.069v -9.27652" fill="none" stroke="#ff0000" stroke-width="2"/>
<path d="M147.734,142.069h 12.7415" fill="none" stroke="#ff0000" stroke-width="2"/>
<path d="M160.475,142.069h 12.7415" fill="none" stroke="#ff0000" stroke-width="2"/>
<g stroke="black" stroke-width="1" fill="none">
<line x1="159.475" y1="142.069" x2="160.475" y2="142.069"/>
</g>
<path d="M189.144,212.889v -20.1159" fill="none" stroke="#ff0000" stroke-width="2"/>
<path d="M189.144,192.773v -14.2939" fill="none" stroke="#ff0000" stroke-width="2"/>
<path d="M173.217,192.773h 15.9269" fill="none" stroke="#ff0000" stroke-width="2"/>
<path d="M189.144,192.773h 15.9269" fill="none" stroke="#ff0000" stroke-width="2"/>
<g stroke="black" stroke-width="1" fill="none">
<line x1="188.144" y1="192.773" x2="189.144" y2="192.773"/>
</g>
<path d="M372.303,233.011v -22.4036" fill="none" stroke="#ff0000" stroke-width="2"/>
<path d="M372.303,210.608v -15.403" fill="none" stroke="#ff0000" stroke-width="2"/>
<path d="M205.071,210.608h 167.233" fill="none" stroke="#ff0000" stroke-width="2"/>
<path d="M372.303,210.608h 167.233" fill="none" stroke="#ff0000" stroke-width="2"/>
<g stroke="black" stroke-width="1" fill="none">
<line x1="371.303" y1="210.608" x2="372.303" y2="210.608"/>
</g>
<path d="M61.7283,267.575h 477.808" fill="none" stroke="black"/>
<path d="M61.7283,260.813v 6.76256" fill="none" stroke="black"/>
<path d="M77.6553,264.194v 3.38128" fill="none" stroke="black"/>
<path d="M93.5822,264.194v 3.38128" fill="none" stroke="black"/>
<path d="M109.509,264.194v 3.38128" fill="none" stroke="black"/>
<path d="M125.436,260.813v 6.76256" fill="none" stroke="black"/>
<path d="M141.363,264.194v 3.38128" fill="none" stroke="black"/>
<path d="M157.29,264.194v 3.38128" fill="none" stroke="black"/>
<path d="M173.217,264.194v 3.38128" fill="none" stroke="black"/>
<path d="M189.144,260.813v 6.76256" fill="none" stroke="black"/>
<path d="M205.071,264.194v 3.38128" fill="none" stroke="black"/>
<path d="M220.998,264.194v 3.38128" fill="none" stroke="black"/>
<path d="M236.925,264.194v 3.38128" fill="none" stroke="black"/>
<path d="M252.852,260.813v 6.76256" fill="none" stroke="black"/>
<path d="M268.778,264.194v 3.38128" fill="none" stroke="black"/>
<path d="M284.705,264.194v 3.38128" fill="none" stroke="black"/>
<path d="M300.632,264.194v 3.38128" fill="none" stroke="black"/>
<path d="M316.559,260.813v 6.76256" fill="none" stroke="black"/>
<path d="M332.486,264.194v 3.38128" fill="none" stroke="black"/>
<path d="M348.413,264.194v 3.38128" fill="none" stroke="black"/>
<path d="M364.34,264.194v 3.38128" fill="none" stroke="black"/>
<path d="M380.267,260.813v 6.76256" fill="none" stroke="black"/>
<path d="M396.194,264.194v 3.38128" fill="none" stroke="black"/>
<path d="M412.121,264.194v 3.38128" fill="none" stroke="black"/>
<path d="M428.048,264.194v 3.38128" fill="none" stroke="black"/>
<path d="M443.975,260.813v 6.76256" fill="none" stroke="black"/>
<path d="M459.902,264.194v 3.38128" fill="none" stroke="black"/>
<path d="M475.828,264.194v 3.38128" fill="none" stroke="black"/>
<path d="M491.755,264.194v 3.38128" fill="none" stroke="black"/>
<path d="M507.682,260.813v 6.76256" fill="none" stroke="black"/>
<path d="M507.682,260.813v 6.76256" fill="none" stroke="black"/>
<path d="M523.609,264.194v 3.38128" fill="none" stroke="black"/>
<path d="M61.7283,267.575v -259.493" fill="none" stroke="black"/>
<path d="M69.9789,256.534h -8.25052" fill="none" stroke="black"/>
<path d="M69.9789,247.443h -8.25052" fill="none" stroke="black"/>
<path d="M69.9789,239.756h -8.25052" fill="none" stroke="black"/>
<path d="M69.9789,233.098h -8.25052" fill="none" stroke="black"/>
<path d="M69.9789,227.224h -8.25052" fill="none" stroke="black"/>
<path d="M78.2294,221.97h -16.501" fill="none" stroke="black"/>
<text xml:space="preserve" x="53.5904" y="225.634" fill="black" font-size="8.91652" font-family="Helvetica">1</text>
<path d="M69.9789,187.406h -8.25052" fill="none" stroke="black"/>
<path d="M69.9789,167.188h -8.25052" fill="none" stroke="black"/>
<path d="M69.9789,152.842h -8.25052" fill="none" stroke="black"/>
<path d="M69.9789,141.715h -8.25052" fill="none" stroke="black"/>
<path d="M69.9789,132.624h -8.25052" fill="none" stroke="black"/>
<path d="M69.9789,124.937h -8.25052" fill="none" stroke="black"/>
<path d="M69.9789,118.278h -8.25052" fill="none" stroke="black"/>
<path d="M69.9789,112.405h -8.25052" fill="none" stroke="black"/>
<path d="M78.2294,107.151h -16.501" fill="none" stroke="black"/>
<text xml:space="preserve" x="47.9021" y="110.921" fill="black" font-size="8.91652" font-family="Helvetica">10</text>
<path d="M69.9789,72.5873h -8.25052" fill="none" stroke="black"/>
<path d="M69.9789,52.3686h -8.25052" fill="none" stroke="black"/>
<path d="M69.9789,38.0233h -8.25052" fill="none" stroke="black"/>
<path d="M69.9789,26.8961h -8.25052" fill="none" stroke="black"/>
<path d="M69.9789,17.8046h -8.25052" fill="none" stroke="black"/>
<path d="M69.9789,10.1178h -8.25052" fill="none" stroke="black"/>
<g transform="rotate(-90,23.253,52.1423)">
<text xml:space="preserve" x="23.253" y="52.1423" fill="black" font-size="14.9283" font-family="Helvetica">nEvent</text>
</g>
<path d="M76.0626,76.9514v -1.33225" fill="none" stroke="#006699" stroke-width="2"/>
<path d="M76.0626,75.6191v -1.29758" fill="none" stroke="#006699" stroke-width="2"/>
<g stroke="black" stroke-width="1" fill="none">
<line x1="75.0626" y1="75.6191" x2="76.0626" y2="75.6191"/>
</g>
<path d="M85.6187,52.7662v -0.958217" fill="none" stroke="#006699" stroke-width="2"/>
<path d="M85.6187,51.808v -0.94015" fill="none" stroke="#006699" stroke-width="2"/>
<g stroke="black" stroke-width="1" fill="none">
<line x1="84.6187" y1="51.808" x2="85.6187" y2="51.808"/>
</g>
<path d="M95.1749,63.0888v -0.951798" fill="none" stroke="#006699" stroke-width="2"/>
<path d="M95.1749,62.137v -0.933971" fill="none" stroke="#006699" stroke-width="2"/>
<g stroke="black" stroke-width="1" fill="none">
<line x1="94.1749" y1="62.137" x2="95.1749" y2="62.137"/>
</g>
<path d="M104.731,79.1788v -1.15079" fill="none" stroke="#006699" stroke-width="2"/>
<path d="M104.731,78.028v -1.12483" fill="none" stroke="#006699" stroke-width="2"/>
<g stroke="black" stroke-width="1" fill="none">
<line x1="103.731" y1="78.028" x2="104.731" y2="78.028"/>
</g>
<path d="M119.065,73.8113v -1.11637" fill="none" stroke="#006699" stroke-width="2"/>
<path d="M119.065,72.695v -1.09192" fill="none" stroke="#006699" stroke-width="2"/>
<g stroke="black" stroke-width="1" fill="none">
<line x1="118.065" y1="72.695" x2="119.065" y2="72.695"/>
</g>
<path d="M138.178,108.737v -1.66168" fill="none" stroke="#006699" stroke-width="2"/>
<path d="M138.178,107.076v -1.60809" fill="none" stroke="#006699" stroke-width="2"/>
<g stroke="black" stroke-width="1" fill="none">
<line x1="137.178" y1="107.076" x2="138.178" y2="107.076"/>
</g>
<path d="M160.475,132.489v -2.29252" fill="none" stroke="#006699" stroke-width="2"/>
<path d="M160.475,130.196v -2.19174" fill="none" stroke="#006699" stroke-width="2"/>
<g stroke="black" stroke-width="1" fill="none">
<line x1="159.475" y1="130.196" x2="160.475" y2="130.196"/>
</g>
<path d="M189.144,167.974v -2.34692" fill="none" stroke="#006699" stroke-width="2"/>
<path d="M189.144,165.627v -2.24141" fill="none" stroke="#006699" stroke-width="2"/>
<g stroke="black" stroke-width="1" fill="none">
<line x1="188.144" y1="165.627" x2="189.144" y2="165.627"/>
</g>
<path d="M372.303,174.184v -2.87819" fill="none" stroke="#006699" stroke-width="2"/>
<path d="M372.303,171.306v -2.72109" fill="none" stroke="#006699" stroke-width="2"/>
<g stroke="black" stroke-width="1" fill="none">
<line x1="371.303" y1="171.306" x2="372.303" y2="171.306"/>
</g>
<path d="M61.7283,267.575h 9.55616v -191.956h 9.55616v -23.8111h 9.55616v 10.329h 9.55616v 15.891h 9.55616v -5.33307h 19.1123v 34.3809h 19.1123v 23.1206h 25.4831v 35.4304h 31.8539v 5.67887h 334.466" fill="none" stroke="#006699" stroke-width="2"/>
<text xml:space="preserve" x="303.873" y="87.2199" fill="black" font-size="14.9283" font-family="Helvetica">True Background</text>
<path d="M263.477,84.0951h 34.0299" fill="none" stroke="#ff0000" stroke-width="2"/>
<path d="M280.492,99.822v -31.4538" fill="none" stroke="#ff0000" stroke-width="2"/>
<text xml:space="preserve" x="303.873" y="142.206" fill="black" font-size="14.9283" font-family="Helvetica">Predict</text>
<path d="M263.477,136.518h 34.0299" fill="none" stroke="#006699" stroke-width="2"/>
<path d="M280.492,152.245v -31.4538" fill="none" stroke="#006699" stroke-width="2"/>
<rect x="6.16929" y="278.497" width="555.591" height="262.115" fill="white"/>
<rect x="61.7283" y="278.497" width="477.808" height="209.692" fill="white"/>
<rect x="61.7283" y="278.497" width="477.808" height="209.692" fill="none" stroke="black"/>
<rect x="61.7283" y="278.497" width="477.808" height="209.692" fill="white"/>
<rect x="61.7283" y="278.497" width="477.808" height="209.692" fill="none" stroke="black"/>
<path d="M76.0626,357.618v -10.8139" fill="none" stroke="black" stroke-width="2"/>
<path d="M76.0626,346.804v -10.8139" fill="none" stroke="black" stroke-width="2"/>
<path d="M71.2845,346.804h 4.77808" fill="none" stroke="black" stroke-width="2"/>
<path d="M76.0626,346.804h 4.77808" fill="none" stroke="black" stroke-width="2"/>
<g stroke="black" stroke-width="1" fill="none">
<line x1="75.0626" y1="346.804" x2="76.0626" y2="346.804"/>
</g>
<path d="M85.6187,334.441v -9.06685" fill="none" stroke="black" stroke-width="2"/>
<path d="M85.6187,325.375v -9.06685" fill="none" stroke="black" stroke-width="2"/>
<path d="M80.8407,325.375h 4.77808" fill="none" stroke="black" stroke-width="2"/>
<path d="M85.6187,325.375h 4.77808" fill="none" stroke="black" stroke-width="2"/>
<g stroke="black" stroke-width="1" fill="none">
<line x1="84.6187" y1="325.375" x2="85.6187" y2="325.375"/>
</g>
<path d="M95.1749,314.475v -10.105" fill="none" stroke="black" stroke-width="2"/>
<path d="M95.1749,304.37v -10.105" fill="none" stroke="black" stroke-width="2"/>
<path d="M90.3968,304.37h 4.77808" fill="none" stroke="black" stroke-width="2"/>
<path d="M95.1749,304.37h 4.77808" fill="none" stroke="black" stroke-width="2"/>
<g stroke="black" stroke-width="1" fill="none">
<line x1="94.1749" y1="304.37" x2="95.1749" y2="304.37"/>
</g>
<path d="M104.731,313.555v -12.5362" fill="none" stroke="black" stroke-width="2"/>
<path d="M104.731,301.018v -12.5362" fill="none" stroke="black" stroke-width="2"/>
<path d="M99.953,301.018h 4.77808" fill="none" stroke="black" stroke-width="2"/>
<path d="M104.731,301.018h 4.77808" fill="none" stroke="black" stroke-width="2"/>
<g stroke="black" stroke-width="1" fill="none">
<line x1="103.731" y1="301.018" x2="104.731" y2="301.018"/>
</g>
<path d="M119.065,323.663v -11.5991" fill="none" stroke="black" stroke-width="2"/>
<path d="M119.065,312.064v -11.5991" fill="none" stroke="black" stroke-width="2"/>
<path d="M109.509,312.064h 9.55616" fill="none" stroke="black" stroke-width="2"/>
<path d="M119.065,312.064h 9.55616" fill="none" stroke="black" stroke-width="2"/>
<g stroke="black" stroke-width="1" fill="none">
<line x1="118.065" y1="312.064" x2="119.065" y2="312.064"/>
</g>
<path d="M138.178,349.245v -17.048" fill="none" stroke="black" stroke-width="2"/>
<path d="M138.178,332.197v -17.048" fill="none" stroke="black" stroke-width="2"/>
<path d="M128.621,332.197h 9.55616" fill="none" stroke="black" stroke-width="2"/>
<path d="M138.178,332.197h 9.55616" fill="none" stroke="black" stroke-width="2"/>
<g stroke="black" stroke-width="1" fill="none">
<line x1="137.178" y1="332.197" x2="138.178" y2="332.197"/>
</g>
<path d="M160.475,404.019v -22.2851" fill="none" stroke="black" stroke-width="2"/>
<path d="M160.475,381.734v -22.2851" fill="none" stroke="black" stroke-width="2"/>
<path d="M147.734,381.734h 12.7415" fill="none" stroke="black" stroke-width="2"/>
<path d="M160.475,381.734h 12.7415" fill="none" stroke="black" stroke-width="2"/>
<g stroke="black" stroke-width="1" fill="none">
<line x1="159.475" y1="381.734" x2="160.475" y2="381.734"/>
</g>
<path d="M189.144,436.084v -26.2632" fill="none" stroke="black" stroke-width="2"/>
<path d="M189.144,409.82v -26.2632" fill="none" stroke="black" stroke-width="2"/>
<path d="M173.217,409.82h 15.9269" fill="none" stroke="black" stroke-width="2"/>
<path d="M189.144,409.82h 15.9269" fill="none" stroke="black" stroke-width="2"/>
<g stroke="black" stroke-width="1" fill="none">
<line x1="188.144" y1="409.82" x2="189.144" y2="409.82"/>
</g>
<path d="M372.303,449.266v -22.4922" fill="none" stroke="black" stroke-width="2"/>
<path d="M372.303,426.774v -22.4922" fill="none" stroke="black" stroke-width="2"/>
<path d="M205.071,426.774h 167.233" fill="none" stroke="black" stroke-width="2"/>
<path d="M372.303,426.774h 167.233" fill="none" stroke="black" stroke-width="2"/>
<g stroke="black" stroke-width="1" fill="none">
<line x1="371.303" y1="426.774" x2="372.303" y2="426.774"/>
</g>
<path d="M64.1174,310.617l 4.77808, 1.79751l 4.77808, 1.79751l 4.77808, 1.79751l 4.77808, 1.79751l 4.77808, 1.79751l 4.77808, 1.79751l 4.77808, 1.79751l 4.77808, 1.79751l 4.77808, 1.79751l 4.77808, 1.79751l 4.77808, 1.79751l 4.77808, 1.79751l
 4.77808, 1.79751l 4.77808, 1.79751l 4.77808, 1.79751l 4.77808, 1.79751l 4.77808, 1.79751l 4.77808, 1.79751l 4.77808, 1.79751l 4.77808, 1.79751l 4.77808, 1.79751l 4.77808, 1.79751l 4.77808, 1.79751l 4.77808, 1.79751l 4.77808, 1.79751l 4.77808,
 1.79751l 4.77808, 1.79751l 4.77808, 1.79751l 4.77808, 1.79751l 4.77808, 1.79751l 4.77808, 1.79751l 4.77808, 1.79751l 4.77808, 1.79751l 4.77808, 1.79751l 4.77808, 1.79751l 4.77808, 1.79751l 4.77808, 1.79751l 4.77808, 1.79751l 4.77808, 1.79751l
 4.77808, 1.79751l 4.77808, 1.79751l 4.77808, 1.79751l 4.77808, 1.79751l 4.77808, 1.79751l 4.77808, 1.79751l 4.77808, 1.79751l 4.77808, 1.79751l 4.77808, 1.79751l 4.77808, 1.79751" fill="none" stroke="#339966" stroke-width="2"/>
<path d="M298.243,398.695l 4.77808, 1.79751l 4.77808, 1.79751l 4.77808, 1.79751l 4.77808, 1.79751l 4.77808, 1.79751l 4.77808, 1.79751l 4.77808, 1.79751l 4.77808, 1.79751l 4.77808, 1.79751l 4.77808, 1.79751l 4.77808, 1.79751l 4.77808, 1.79751l
 4.77808, 1.79751l 4.77808, 1.79751l 4.77808, 1.79751l 4.77808, 1.79751l 4.77808, 1.79751l 4.77808, 1.79751l 4.77808, 1.79751l 4.77808, 1.79751l 4.77808, 1.79751l 4.77808, 1.79751l 4.77808, 1.79751l 4.77808, 1.79751l 4.77808, 1.79751l 4.77808,
 1.79751l 4.77808, 1.79751l 4.77808, 1.79751l 4.77808, 1.79751l 4.77808, 1.79751l 4.77808, 1.79751l 4.77808, 1.79751l 4.77808, 1.79751l 4.77808, 1.79751l 4.77808, 1.79751l 4.77808, 1.79751l 4.77808, 1.79751l 4.77808, 1.79751l 4.77808, 1.79751l
 4.77808, 1.79751l 4.77808, 1.79751l 4.77808, 1.79751l 4.77808, 1.79751l 4.77808, 1.79751l 4.77808, 1.79751l 4.77808, 1.79751l 4.77808, 1.79751l 4.77808, 1.79751l 4.77808, 1.79751" fill="none" stroke="#339966" stroke-width="2"/>
<path d="M61.7283,488.189h 477.808" fill="none" stroke="black"/>
<path d="M61.7283,481.426v 6.76256" fill="none" stroke="black"/>
<path d="M77.6553,484.807v 3.38128" fill="none" stroke="black"/>
<path d="M93.5822,484.807v 3.38128" fill="none" stroke="black"/>
<path d="M109.509,484.807v 3.38128" fill="none" stroke="black"/>
<path d="M125.436,481.426v 6.76256" fill="none" stroke="black"/>
<path d="M141.363,484.807v 3.38128" fill="none" stroke="black"/>
<path d="M157.29,484.807v 3.38128" fill="none" stroke="black"/>
<path d="M173.217,484.807v 3.38128" fill="none" stroke="black"/>
<path d="M189.144,481.426v 6.76256" fill="none" stroke="black"/>
<path d="M205.071,484.807v 3.38128" fill="none" stroke="black"/>
<path d="M220.998,484.807v 3.38128" fill="none" stroke="black"/>
<path d="M236.925,484.807v 3.38128" fill="none" stroke="black"/>
<path d="M252.852,481.426v 6.76256" fill="none" stroke="black"/>
<path d="M268.778,484.807v 3.38128" fill="none" stroke="black"/>
<path d="M284.705,484.807v 3.38128" fill="none" stroke="black"/>
<path d="M300.632,484.807v 3.38128" fill="none" stroke="black"/>
<path d="M316.559,481.426v 6.76256" fill="none" stroke="black"/>
<path d="M332.486,484.807v 3.38128" fill="none" stroke="black"/>
<path d="M348.413,484.807v 3.38128" fill="none" stroke="black"/>
<path d="M364.34,484.807v 3.38128" fill="none" stroke="black"/>
<path d="M380.267,481.426v 6.76256" fill="none" stroke="black"/>
<path d="M396.194,484.807v 3.38128" fill="none" stroke="black"/>
<path d="M412.121,484.807v 3.38128" fill="none" stroke="black"/>
<path d="M428.048,484.807v 3.38128" fill="none" stroke="black"/>
<path d="M443.975,481.426v 6.76256" fill="none" stroke="black"/>
<path d="M459.902,484.807v 3.38128" fill="none" stroke="black"/>
<path d="M475.828,484.807v 3.38128" fill="none" stroke="black"/>
<path d="M491.755,484.807v 3.38128" fill="none" stroke="black"/>
<path d="M507.682,481.426v 6.76256" fill="none" stroke="black"/>
<path d="M507.682,481.426v 6.76256" fill="none" stroke="black"/>
<path d="M523.609,484.807v 3.38128" fill="none" stroke="black"/>
<text xml:space="preserve" x="58.3306" y="496.774" fill="black" font-size="8.91652" font-family="Helvetica">0</text>
<text xml:space="preserve" x="117.109" y="496.774" fill="black" font-size="8.91652" font-family="Helvetica">200</text>
<text xml:space="preserve" x="180.628" y="496.774" fill="black" font-size="8.91652" font-family="Helvetica">400</text>
<text xml:space="preserve" x="245.095" y="496.774" fill="black" font-size="8.91652" font-family="Helvetica">600</text>
<text xml:space="preserve" x="308.614" y="496.774" fill="black" font-size="8.91652" font-family="Helvetica">800</text>
<text xml:space="preserve" x="370.236" y="496.774" fill="black" font-size="8.91652" font-family="Helvetica">1000</text>
<text xml:space="preserve" x="433.755" y="496.774" fill="black" font-size="8.91652" font-family="Helvetica">1200</text>
<text xml:space="preserve" x="497.274" y="496.774" fill="black" font-size="8.91652" font-family="Helvetica">1400</text>
<text xml:space="preserve" x="497.274" y="518.579" fill="black" font-size="14.9283" font-family="Helvetica">Jet PT</text>
<path d="M61.7283,278.497h 477.808" fill="none" stroke="black"/>
<path d="M61.7283,285.259v -6.76256" fill="none" stroke="black"/>
<path d="M77.6553,281.878v -3.38128" fill="none" stroke="black"/>
<path d="M93.5822,281.878v -3.38128" fill="none" stroke="black"/>
<path d="M109.509,281.878v -3.38128" fill="none" stroke="black"/>
<path d="M125.436,285.259v -6.76256" fill="none" stroke="black"/>
<path d="M141.363,281.878v -3.38128" fill="none" stroke="black"/>
<path d="M157.29,281.878v -3.38128" fill="none" stroke="black"/>
<path d="M173.217,281.878v -3.38128" fill="none" stroke="black"/>
<path d="M189.144,285.259v -6.76256" fill="none" stroke="black"/>
<path d="M205.071,281.878v -3.38128" fill="none" stroke="black"/>
<path d="M220.998,281.878v -3.38128" fill="none" stroke="black"/>
<path d="M236.925,281.878v -3.38128" fill="none" stroke="black"/>
<path d="M252.852,285.259v -6.76256" fill="none" stroke="black"/>
<path d="M268.778,281.878v -3.38128" fill="none" stroke="black"/>
<path d="M284.705,281.878v -3.38128" fill="none" stroke="black"/>
<path d="M300.632,281.878v -3.38128" fill="none" stroke="black"/>
<path d="M316.559,285.259v -6.76256" fill="none" stroke="black"/>
<path d="M332.486,281.878v -3.38128" fill="none" stroke="black"/>
<path d="M348.413,281.878v -3.38128" fill="none" stroke="black"/>
<path d="M364.34,281.878v -3.38128" fill="none" stroke="black"/>
<path d="M380.267,285.259v -6.76256" fill="none" stroke="black"/>
<path d="M396.194,281.878v -3.38128" fill="none" stroke="black"/>
<path d="M412.121,281.878v -3.38128" fill="none" stroke="black"/>
<path d="M428.048,281.878v -3.38128" fill="none" stroke="black"/>
<path d="M443.975,285.259v -6.76256" fill="none" stroke="black"/>
<path d="M459.902,281.878v -3.38128" fill="none" stroke="black"/>
<path d="M475.828,281.878v -3.38128" fill="none" stroke="black"/>
<path d="M491.755,281.878v -3.38128" fill="none" stroke="black"/>
<path d="M507.682,285.259v -6.76256" fill="none" stroke="black"/>
<path d="M507.682,285.259v -6.76256" fill="none" stroke="black"/>
<path d="M523.609,281.878v -3.38128" fill="none" stroke="black"/>
<path d="M61.7283,488.189v -209.692" fill="none" stroke="black"/>
<path d="M75.0625,488.189h -13.3342" fill="none" stroke="black"/>
<path d="M68.3954,481.435h -6.66709" fill="none" stroke="black"/>
<path d="M68.3954,474.681h -6.66709" fill="none" stroke="black"/>
<path d="M68.3954,467.928h -6.66709" fill="none" stroke="black"/>
<path d="M75.0625,461.174h -13.3342" fill="none" stroke="black"/>
<path d="M68.3954,454.42h -6.66709" fill="none" stroke="black"/>
<path d="M68.3954,447.667h -6.66709" fill="none" stroke="black"/>
<path d="M68.3954,440.913h -6.66709" fill="none" stroke="black"/>
<path d="M75.0625,434.159h -13.3342" fill="none" stroke="black"/>
<path d="M68.3954,427.406h -6.66709" fill="none" stroke="black"/>
<path d="M68.3954,420.652h -6.66709" fill="none" stroke="black"/>
<path d="M68.3954,413.898h -6.66709" fill="none" stroke="black"/>
<path d="M75.0625,407.145h -13.3342" fill="none" stroke="black"/>
<path d="M68.3954,400.391h -6.66709" fill="none" stroke="black"/>
<path d="M68.3954,393.637h -6.66709" fill="none" stroke="black"/>
<path d="M68.3954,386.884h -6.66709" fill="none" stroke="black"/>
<path d="M75.0625,380.13h -13.3342" fill="none" stroke="black"/>
<path d="M68.3954,373.376h -6.66709" fill="none" stroke="black"/>
<path d="M68.3954,366.623h -6.66709" fill="none" stroke="black"/>
<path d="M68.3954,359.869h -6.66709" fill="none" stroke="black"/>
<path d="M75.0625,353.116h -13.3342" fill="none" stroke="black"/>
<path d="M68.3954,346.362h -6.66709" fill="none" stroke="black"/>
<path d="M68.3954,339.608h -6.66709" fill="none" stroke="black"/>
<path d="M68.3954,332.855h -6.66709" fill="none" stroke="black"/>
<path d="M75.0625,326.101h -13.3342" fill="none" stroke="black"/>
<path d="M68.3954,319.347h -6.66709" fill="none" stroke="black"/>
<path d="M68.3954,312.594h -6.66709" fill="none" stroke="black"/>
<path d="M68.3954,305.84h -6.66709" fill="none" stroke="black"/>
<path d="M75.0625,299.086h -13.3342" fill="none" stroke="black"/>
<path d="M75.0625,299.086h -13.3342" fill="none" stroke="black"/>
<path d="M68.3954,292.333h -6.66709" fill="none" stroke="black"/>
<path d="M68.3954,285.579h -6.66709" fill="none" stroke="black"/>
<path d="M68.3954,278.825h -6.66709" fill="none" stroke="black"/>
<text xml:space="preserve" x="53.5904" y="491.086" fill="black" font-size="8.91652" font-family="Helvetica">0</text>
<text xml:space="preserve" x="46.006" y="464.541" fill="black" font-size="8.91652" font-family="Helvetica">0.2</text>
<text xml:space="preserve" x="46.006" y="437.047" fill="black" font-size="8.91652" font-family="Helvetica">0.4</text>
<text xml:space="preserve" x="46.006" y="410.502" fill="black" font-size="8.91652" font-family="Helvetica">0.6</text>
<text xml:space="preserve" x="46.006" y="383.009" fill="black" font-size="8.91652" font-family="Helvetica">0.8</text>
<text xml:space="preserve" x="54.5384" y="356.464" fill="black" font-size="8.91652" font-family="Helvetica">1</text>
<text xml:space="preserve" x="46.006" y="328.971" fill="black" font-size="8.91652" font-family="Helvetica">1.2</text>
<text xml:space="preserve" x="46.006" y="302.425" fill="black" font-size="8.91652" font-family="Helvetica">1.4</text>
<g transform="rotate(-90,19.4608,458.852)">
<text xml:space="preserve" x="19.4608" y="458.852" fill="black" font-size="14.9283" font-family="Helvetica">True Background / Predicted</text>
</g>
<text xml:space="preserve" x="284.913" y="323.282" fill="black" font-size="14.9283" font-family="Helvetica">Fitting function: par0 + par1*x</text>
<text xml:space="preserve" x="297.237" y="349.828" fill="black" font-size="14.9283" font-family="Helvetica">par0 : 1.32129 +- 0.0430052</text>
<text xml:space="preserve" x="297.237" y="375.425" fill="black" font-size="14.9283" font-family="Helvetica">par1 : -0.000887179 +- 0.000179489</text></svg>
