<?xml version="1.0" standalone="no"?>
<svg width="567.429" height="546.572" viewBox="0 0 567.429 546.572" xmlns="http://www.w3.org/2000/svg" shape-rendering="crispEdges">
<title>
/home/kuanyu/Documents/CMS/Background_Estimate/fake_rate/top_emu/plot/CT_Top(emu)_btrk_MET_rg2.svg
</title>
<desc>
Creator: ROOT Version 6.26/04
CreationDate: Fri Oct 28 16:21:29 2022</desc>
<defs>
</defs>
<rect x="0.5" y="0" width="566.929" height="546.072" fill="none"/>
<rect x="6.16929" y="5.46072" width="555.591" height="262.115" fill="none"/>
<rect x="61.7283" y="8.08187" width="477.808" height="259.493" fill="none"/>
<rect x="61.7283" y="8.08187" width="477.808" height="259.493" fill="none" stroke="black"/>
<rect x="61.7283" y="8.08187" width="477.808" height="259.493" fill="none"/>
<rect x="61.7283" y="8.08187" width="477.808" height="259.493" fill="none" stroke="black"/>
<path d="M71.6827,202.794v -7.78321" fill="none" stroke="#ff0000" stroke-width="2"/>
<path d="M71.6827,195.011v -6.82939" fill="none" stroke="#ff0000" stroke-width="2"/>
<path d="M61.7283,195.011h 9.95433" fill="none" stroke="#ff0000" stroke-width="2"/>
<path d="M71.6827,195.011h 9.95433" fill="none" stroke="#ff0000" stroke-width="2"/>
<g stroke="black" stroke-width="1" fill="none">
<line x1="70.6827" y1="195.011" x2="71.6827" y2="195.011"/>
</g>
<path d="M91.5913,137.035v -4.21472" fill="none" stroke="#ff0000" stroke-width="2"/>
<path d="M91.5913,132.821v -3.91864" fill="none" stroke="#ff0000" stroke-width="2"/>
<path d="M81.637,132.821h 9.95433" fill="none" stroke="#ff0000" stroke-width="2"/>
<path d="M91.5913,132.821h 9.95433" fill="none" stroke="#ff0000" stroke-width="2"/>
<g stroke="black" stroke-width="1" fill="none">
<line x1="90.5913" y1="132.821" x2="91.5913" y2="132.821"/>
</g>
<path d="M111.5,84.5392v -2.85549" fill="none" stroke="#ff0000" stroke-width="2"/>
<path d="M111.5,81.6837v -2.71647" fill="none" stroke="#ff0000" stroke-width="2"/>
<path d="M101.546,81.6837h 9.95433" fill="none" stroke="#ff0000" stroke-width="2"/>
<path d="M111.5,81.6837h 9.95433" fill="none" stroke="#ff0000" stroke-width="2"/>
<g stroke="black" stroke-width="1" fill="none">
<line x1="110.5" y1="81.6837" x2="111.5" y2="81.6837"/>
</g>
<path d="M131.409,58.9403v -2.38114" fill="none" stroke="#ff0000" stroke-width="2"/>
<path d="M131.409,56.5591v -2.28369" fill="none" stroke="#ff0000" stroke-width="2"/>
<path d="M121.454,56.5591h 9.95433" fill="none" stroke="#ff0000" stroke-width="2"/>
<path d="M131.409,56.5591h 9.95433" fill="none" stroke="#ff0000" stroke-width="2"/>
<g stroke="black" stroke-width="1" fill="none">
<line x1="130.409" y1="56.5591" x2="131.409" y2="56.5591"/>
</g>
<path d="M151.317,47.8332v -2.08023" fill="none" stroke="#ff0000" stroke-width="2"/>
<path d="M151.317,45.753v -2.00547" fill="none" stroke="#ff0000" stroke-width="2"/>
<path d="M141.363,45.753h 9.95433" fill="none" stroke="#ff0000" stroke-width="2"/>
<path d="M151.317,45.753h 9.95433" fill="none" stroke="#ff0000" stroke-width="2"/>
<g stroke="black" stroke-width="1" fill="none">
<line x1="150.317" y1="45.753" x2="151.317" y2="45.753"/>
</g>
<path d="M171.226,50.1871v -2.06306" fill="none" stroke="#ff0000" stroke-width="2"/>
<path d="M171.226,48.1241v -1.9895" fill="none" stroke="#ff0000" stroke-width="2"/>
<path d="M161.272,48.1241h 9.95433" fill="none" stroke="#ff0000" stroke-width="2"/>
<path d="M171.226,48.1241h 9.95433" fill="none" stroke="#ff0000" stroke-width="2"/>
<g stroke="black" stroke-width="1" fill="none">
<line x1="170.226" y1="48.1241" x2="171.226" y2="48.1241"/>
</g>
<path d="M191.135,61.1042v -2.35239" fill="none" stroke="#ff0000" stroke-width="2"/>
<path d="M191.135,58.7518v -2.25723" fill="none" stroke="#ff0000" stroke-width="2"/>
<path d="M181.18,58.7518h 9.95433" fill="none" stroke="#ff0000" stroke-width="2"/>
<path d="M191.135,58.7518h 9.95433" fill="none" stroke="#ff0000" stroke-width="2"/>
<g stroke="black" stroke-width="1" fill="none">
<line x1="190.135" y1="58.7518" x2="191.135" y2="58.7518"/>
</g>
<path d="M211.043,74.6303v -2.62221" fill="none" stroke="#ff0000" stroke-width="2"/>
<path d="M211.043,72.0081v -2.50451" fill="none" stroke="#ff0000" stroke-width="2"/>
<path d="M201.089,72.0081h 9.95433" fill="none" stroke="#ff0000" stroke-width="2"/>
<path d="M211.043,72.0081h 9.95433" fill="none" stroke="#ff0000" stroke-width="2"/>
<g stroke="black" stroke-width="1" fill="none">
<line x1="210.043" y1="72.0081" x2="211.043" y2="72.0081"/>
</g>
<path d="M230.952,99.6912v -3.33976" fill="none" stroke="#ff0000" stroke-width="2"/>
<path d="M230.952,96.3515v -3.15113" fill="none" stroke="#ff0000" stroke-width="2"/>
<path d="M220.998,96.3515h 9.95433" fill="none" stroke="#ff0000" stroke-width="2"/>
<path d="M230.952,96.3515h 9.95433" fill="none" stroke="#ff0000" stroke-width="2"/>
<g stroke="black" stroke-width="1" fill="none">
<line x1="229.952" y1="96.3515" x2="230.952" y2="96.3515"/>
</g>
<path d="M250.861,131.035v -4.44297" fill="none" stroke="#ff0000" stroke-width="2"/>
<path d="M250.861,126.592v -4.11519" fill="none" stroke="#ff0000" stroke-width="2"/>
<path d="M240.906,126.592h 9.95433" fill="none" stroke="#ff0000" stroke-width="2"/>
<path d="M250.861,126.592h 9.95433" fill="none" stroke="#ff0000" stroke-width="2"/>
<g stroke="black" stroke-width="1" fill="none">
<line x1="249.861" y1="126.592" x2="250.861" y2="126.592"/>
</g>
<path d="M270.769,145.38v -5.18583" fill="none" stroke="#ff0000" stroke-width="2"/>
<path d="M270.769,140.195v -4.74465" fill="none" stroke="#ff0000" stroke-width="2"/>
<path d="M260.815,140.195h 9.95433" fill="none" stroke="#ff0000" stroke-width="2"/>
<path d="M270.769,140.195h 9.95433" fill="none" stroke="#ff0000" stroke-width="2"/>
<g stroke="black" stroke-width="1" fill="none">
<line x1="269.769" y1="140.195" x2="270.769" y2="140.195"/>
</g>
<path d="M290.678,172.894v -7.05046" fill="none" stroke="#ff0000" stroke-width="2"/>
<path d="M290.678,165.843v -6.25882" fill="none" stroke="#ff0000" stroke-width="2"/>
<path d="M280.724,165.843h 9.95433" fill="none" stroke="#ff0000" stroke-width="2"/>
<path d="M290.678,165.843h 9.95433" fill="none" stroke="#ff0000" stroke-width="2"/>
<g stroke="black" stroke-width="1" fill="none">
<line x1="289.678" y1="165.843" x2="290.678" y2="165.843"/>
</g>
<path d="M310.587,221.623v -8.98891" fill="none" stroke="#ff0000" stroke-width="2"/>
<path d="M310.587,212.634v -7.73992" fill="none" stroke="#ff0000" stroke-width="2"/>
<path d="M300.632,212.634h 9.95433" fill="none" stroke="#ff0000" stroke-width="2"/>
<path d="M310.587,212.634h 9.95433" fill="none" stroke="#ff0000" stroke-width="2"/>
<g stroke="black" stroke-width="1" fill="none">
<line x1="309.587" y1="212.634" x2="310.587" y2="212.634"/>
</g>
<path d="M330.495,228.892v -9.5988" fill="none" stroke="#ff0000" stroke-width="2"/>
<path d="M330.495,219.294v -8.18759" fill="none" stroke="#ff0000" stroke-width="2"/>
<path d="M320.541,219.294h 9.95433" fill="none" stroke="#ff0000" stroke-width="2"/>
<path d="M330.495,219.294h 9.95433" fill="none" stroke="#ff0000" stroke-width="2"/>
<g stroke="black" stroke-width="1" fill="none">
<line x1="329.495" y1="219.294" x2="330.495" y2="219.294"/>
</g>
<path d="M439.993,227.548v -12.5792" fill="none" stroke="#ff0000" stroke-width="2"/>
<path d="M439.993,214.969v -10.2588" fill="none" stroke="#ff0000" stroke-width="2"/>
<path d="M340.45,214.969h 99.5433" fill="none" stroke="#ff0000" stroke-width="2"/>
<path d="M439.993,214.969h 99.5433" fill="none" stroke="#ff0000" stroke-width="2"/>
<g stroke="black" stroke-width="1" fill="none">
<line x1="438.993" y1="214.969" x2="439.993" y2="214.969"/>
</g>
<path d="M61.7283,267.575h 477.808" fill="none" stroke="black"/>
<path d="M141.363,260.813v 6.76256" fill="none" stroke="black"/>
<path d="M161.272,264.194v 3.38128" fill="none" stroke="black"/>
<path d="M181.18,264.194v 3.38128" fill="none" stroke="black"/>
<path d="M201.089,264.194v 3.38128" fill="none" stroke="black"/>
<path d="M220.998,264.194v 3.38128" fill="none" stroke="black"/>
<path d="M240.906,260.813v 6.76256" fill="none" stroke="black"/>
<path d="M260.815,264.194v 3.38128" fill="none" stroke="black"/>
<path d="M280.724,264.194v 3.38128" fill="none" stroke="black"/>
<path d="M300.632,264.194v 3.38128" fill="none" stroke="black"/>
<path d="M320.541,264.194v 3.38128" fill="none" stroke="black"/>
<path d="M340.45,260.813v 6.76256" fill="none" stroke="black"/>
<path d="M360.358,264.194v 3.38128" fill="none" stroke="black"/>
<path d="M380.267,264.194v 3.38128" fill="none" stroke="black"/>
<path d="M400.176,264.194v 3.38128" fill="none" stroke="black"/>
<path d="M420.084,264.194v 3.38128" fill="none" stroke="black"/>
<path d="M439.993,260.813v 6.76256" fill="none" stroke="black"/>
<path d="M459.902,264.194v 3.38128" fill="none" stroke="black"/>
<path d="M479.81,264.194v 3.38128" fill="none" stroke="black"/>
<path d="M499.719,264.194v 3.38128" fill="none" stroke="black"/>
<path d="M519.628,264.194v 3.38128" fill="none" stroke="black"/>
<path d="M539.536,260.813v 6.76256" fill="none" stroke="black"/>
<path d="M141.363,260.813v 6.76256" fill="none" stroke="black"/>
<path d="M121.454,264.194v 3.38128" fill="none" stroke="black"/>
<path d="M101.546,264.194v 3.38128" fill="none" stroke="black"/>
<path d="M81.637,264.194v 3.38128" fill="none" stroke="black"/>
<path d="M61.7283,264.194v 3.38128" fill="none" stroke="black"/>
<path d="M61.7283,267.575v -259.493" fill="none" stroke="black"/>
<path d="M69.9789,245.674h -8.25052" fill="none" stroke="black"/>
<path d="M69.9789,223.045h -8.25052" fill="none" stroke="black"/>
<path d="M69.9789,206.991h -8.25052" fill="none" stroke="black"/>
<path d="M69.9789,194.537h -8.25052" fill="none" stroke="black"/>
<path d="M69.9789,184.362h -8.25052" fill="none" stroke="black"/>
<path d="M69.9789,175.76h -8.25052" fill="none" stroke="black"/>
<path d="M69.9789,168.308h -8.25052" fill="none" stroke="black"/>
<path d="M69.9789,161.734h -8.25052" fill="none" stroke="black"/>
<path d="M78.2294,155.854h -16.501" fill="none" stroke="black"/>
<text xml:space="preserve" x="47.9021" y="159.271" fill="black" font-size="8.91652" font-family="Helvetica">10</text>
<path d="M69.9789,117.171h -8.25052" fill="none" stroke="black"/>
<path d="M69.9789,94.5433h -8.25052" fill="none" stroke="black"/>
<path d="M69.9789,78.4884h -8.25052" fill="none" stroke="black"/>
<path d="M69.9789,66.0352h -8.25052" fill="none" stroke="black"/>
<path d="M69.9789,55.8603h -8.25052" fill="none" stroke="black"/>
<path d="M69.9789,47.2575h -8.25052" fill="none" stroke="black"/>
<path d="M69.9789,39.8054h -8.25052" fill="none" stroke="black"/>
<path d="M69.9789,33.2322h -8.25052" fill="none" stroke="black"/>
<path d="M78.2294,27.3522h -16.501" fill="none" stroke="black"/>
<text xml:space="preserve" x="53.5904" y="26.5452" fill="black" font-size="6.11102" font-family="Helvetica">2</text>
<text xml:space="preserve" x="44.1099" y="31.2854" fill="black" font-size="8.91652" font-family="Helvetica">10</text>
<g transform="rotate(-90,20.4089,35.0776)">
<text xml:space="preserve" x="20.4089" y="35.0776" fill="black" font-size="14.9283" font-family="Helvetica">nJet</text>
</g>
<path d="M71.6827,202.124v -5.70833" fill="none" stroke="#006699" stroke-width="2"/>
<path d="M71.6827,196.416v -5.17825" fill="none" stroke="#006699" stroke-width="2"/>
<g stroke="black" stroke-width="1" fill="none">
<line x1="70.6827" y1="196.416" x2="71.6827" y2="196.416"/>
</g>
<path d="M91.5913,132.91v -2.68377" fill="none" stroke="#006699" stroke-width="2"/>
<path d="M91.5913,130.226v -2.56061" fill="none" stroke="#006699" stroke-width="2"/>
<g stroke="black" stroke-width="1" fill="none">
<line x1="90.5913" y1="130.226" x2="91.5913" y2="130.226"/>
</g>
<path d="M111.5,83.1541v -1.61972" fill="none" stroke="#006699" stroke-width="2"/>
<path d="M111.5,81.5344v -1.57403" fill="none" stroke="#006699" stroke-width="2"/>
<g stroke="black" stroke-width="1" fill="none">
<line x1="110.5" y1="81.5344" x2="111.5" y2="81.5344"/>
</g>
<path d="M131.409,56.9816v -1.17377" fill="none" stroke="#006699" stroke-width="2"/>
<path d="M131.409,55.8079v -1.14959" fill="none" stroke="#006699" stroke-width="2"/>
<g stroke="black" stroke-width="1" fill="none">
<line x1="130.409" y1="55.8079" x2="131.409" y2="55.8079"/>
</g>
<path d="M151.317,50.3169v -0.976312" fill="none" stroke="#006699" stroke-width="2"/>
<path d="M151.317,49.3406v -0.959526" fill="none" stroke="#006699" stroke-width="2"/>
<g stroke="black" stroke-width="1" fill="none">
<line x1="150.317" y1="49.3406" x2="151.317" y2="49.3406"/>
</g>
<path d="M171.226,54.4398v -0.906698" fill="none" stroke="#006699" stroke-width="2"/>
<path d="M171.226,53.5331v -0.892202" fill="none" stroke="#006699" stroke-width="2"/>
<g stroke="black" stroke-width="1" fill="none">
<line x1="170.226" y1="53.5331" x2="171.226" y2="53.5331"/>
</g>
<path d="M191.135,62.1684v -0.875699" fill="none" stroke="#006699" stroke-width="2"/>
<path d="M191.135,61.2927v -0.86217" fill="none" stroke="#006699" stroke-width="2"/>
<g stroke="black" stroke-width="1" fill="none">
<line x1="190.135" y1="61.2927" x2="191.135" y2="61.2927"/>
</g>
<path d="M211.043,79.4254v -0.920743" fill="none" stroke="#006699" stroke-width="2"/>
<path d="M211.043,78.5046v -0.905799" fill="none" stroke="#006699" stroke-width="2"/>
<g stroke="black" stroke-width="1" fill="none">
<line x1="210.043" y1="78.5046" x2="211.043" y2="78.5046"/>
</g>
<path d="M230.952,100.942v -0.972077" fill="none" stroke="#006699" stroke-width="2"/>
<path d="M230.952,99.9699v -0.955434" fill="none" stroke="#006699" stroke-width="2"/>
<g stroke="black" stroke-width="1" fill="none">
<line x1="229.952" y1="99.9699" x2="230.952" y2="99.9699"/>
</g>
<path d="M250.861,130.59v -1.12632" fill="none" stroke="#006699" stroke-width="2"/>
<path d="M250.861,129.463v -1.10404" fill="none" stroke="#006699" stroke-width="2"/>
<g stroke="black" stroke-width="1" fill="none">
<line x1="249.861" y1="129.463" x2="250.861" y2="129.463"/>
</g>
<path d="M270.769,159.513v -1.28245" fill="none" stroke="#006699" stroke-width="2"/>
<path d="M270.769,158.231v -1.25364" fill="none" stroke="#006699" stroke-width="2"/>
<g stroke="black" stroke-width="1" fill="none">
<line x1="269.769" y1="158.231" x2="270.769" y2="158.231"/>
</g>
<path d="M290.678,182.484v -1.47417" fill="none" stroke="#006699" stroke-width="2"/>
<path d="M290.678,181.01v -1.43623" fill="none" stroke="#006699" stroke-width="2"/>
<g stroke="black" stroke-width="1" fill="none">
<line x1="289.678" y1="181.01" x2="290.678" y2="181.01"/>
</g>
<path d="M310.587,222.105v -1.74455" fill="none" stroke="#006699" stroke-width="2"/>
<path d="M310.587,220.36v -1.69166" fill="none" stroke="#006699" stroke-width="2"/>
<g stroke="black" stroke-width="1" fill="none">
<line x1="309.587" y1="220.36" x2="310.587" y2="220.36"/>
</g>
<path d="M330.495,250.007v -2.02518" fill="none" stroke="#006699" stroke-width="2"/>
<path d="M330.495,247.981v -1.95425" fill="none" stroke="#006699" stroke-width="2"/>
<g stroke="black" stroke-width="1" fill="none">
<line x1="329.495" y1="247.981" x2="330.495" y2="247.981"/>
</g>
<path d="M439.993,237.54v -1.37766" fill="none" stroke="#006699" stroke-width="2"/>
<path d="M439.993,236.162v -1.34447" fill="none" stroke="#006699" stroke-width="2"/>
<g stroke="black" stroke-width="1" fill="none">
<line x1="438.993" y1="236.162" x2="439.993" y2="236.162"/>
</g>
<path d="M61.7283,196.416h 19.9087v -66.1895h 19.9087v -48.6917h 19.9087v -25.7266h 19.9087v -6.46723h 19.9087v 4.19243h 19.9087v 7.75967h 19.9087v 17.2119h 19.9087v 21.4653h 19.9087v 29.4935h 19.9087v 28.7673h 19.9087v 22.7791h 19.9087v 39.3502h
 19.9087v 27.6214h 19.9087v -11.8195h 199.087" fill="none" stroke="#006699" stroke-width="2"/>
<text xml:space="preserve" x="401.522" y="69.2071" fill="black" font-size="14.9283" font-family="Helvetica">| &lt; 2</text>
<text xml:space="preserve" x="393.937" y="69.2071" fill="black" font-size="14.9283" font-family="Times">&#0951;</text>
<text xml:space="preserve" x="308.614" y="69.2071" fill="black" font-size="14.9283" font-family="Helvetica">b flavor , 1 &lt; |</text>
<text xml:space="preserve" x="352.224" y="104.285" fill="black" font-size="14.9283" font-family="Helvetica">True Background</text>
<path d="M311.162,100.492h 34.011" fill="none" stroke="#ff0000" stroke-width="2"/>
<path d="M328.167,110.921v -20.8569" fill="none" stroke="#ff0000" stroke-width="2"/>
<text xml:space="preserve" x="352.224" y="140.31" fill="black" font-size="14.9283" font-family="Helvetica">Predict</text>
<path d="M311.162,135.254h 34.011" fill="none" stroke="#006699" stroke-width="2"/>
<path d="M328.167,145.682v -20.8569" fill="none" stroke="#006699" stroke-width="2"/>
<rect x="6.16929" y="278.497" width="555.591" height="262.115" fill="none"/>
<rect x="61.7283" y="278.497" width="477.808" height="209.692" fill="none"/>
<rect x="61.7283" y="278.497" width="477.808" height="209.692" fill="none" stroke="black"/>
<rect x="61.7283" y="278.497" width="477.808" height="209.692" fill="none"/>
<rect x="61.7283" y="278.497" width="477.808" height="209.692" fill="none" stroke="black"/>
<path d="M71.6827,398.14v -17.4694" fill="none" stroke="black" stroke-width="2"/>
<path d="M71.6827,380.67v -17.4694" fill="none" stroke="black" stroke-width="2"/>
<path d="M61.7283,380.67h 9.95433" fill="none" stroke="black" stroke-width="2"/>
<path d="M71.6827,380.67h 9.95433" fill="none" stroke="black" stroke-width="2"/>
<g stroke="black" stroke-width="1" fill="none">
<line x1="70.6827" y1="380.67" x2="71.6827" y2="380.67"/>
</g>
<path d="M91.5913,396.77v -8.66495" fill="none" stroke="black" stroke-width="2"/>
<path d="M91.5913,388.105v -8.66495" fill="none" stroke="black" stroke-width="2"/>
<path d="M81.637,388.105h 9.95433" fill="none" stroke="black" stroke-width="2"/>
<path d="M91.5913,388.105h 9.95433" fill="none" stroke="black" stroke-width="2"/>
<g stroke="black" stroke-width="1" fill="none">
<line x1="90.5913" y1="388.105" x2="91.5913" y2="388.105"/>
</g>
<path d="M111.5,389.635v -6.01255" fill="none" stroke="black" stroke-width="2"/>
<path d="M111.5,383.623v -6.01255" fill="none" stroke="black" stroke-width="2"/>
<path d="M101.546,383.623h 9.95433" fill="none" stroke="black" stroke-width="2"/>
<path d="M111.5,383.623h 9.95433" fill="none" stroke="black" stroke-width="2"/>
<g stroke="black" stroke-width="1" fill="none">
<line x1="110.5" y1="383.623" x2="111.5" y2="383.623"/>
</g>
<path d="M131.409,389.572v -4.82746" fill="none" stroke="black" stroke-width="2"/>
<path d="M131.409,384.745v -4.82746" fill="none" stroke="black" stroke-width="2"/>
<path d="M121.454,384.745h 9.95433" fill="none" stroke="black" stroke-width="2"/>
<path d="M131.409,384.745h 9.95433" fill="none" stroke="black" stroke-width="2"/>
<g stroke="black" stroke-width="1" fill="none">
<line x1="130.409" y1="384.745" x2="131.409" y2="384.745"/>
</g>
<path d="M151.317,380.908v -4.52715" fill="none" stroke="black" stroke-width="2"/>
<path d="M151.317,376.381v -4.52715" fill="none" stroke="black" stroke-width="2"/>
<path d="M141.363,376.381h 9.95433" fill="none" stroke="black" stroke-width="2"/>
<path d="M151.317,376.381h 9.95433" fill="none" stroke="black" stroke-width="2"/>
<g stroke="black" stroke-width="1" fill="none">
<line x1="150.317" y1="376.381" x2="151.317" y2="376.381"/>
</g>
<path d="M171.226,377.259v -4.58709" fill="none" stroke="black" stroke-width="2"/>
<path d="M171.226,372.672v -4.58709" fill="none" stroke="black" stroke-width="2"/>
<path d="M161.272,372.672h 9.95433" fill="none" stroke="black" stroke-width="2"/>
<path d="M171.226,372.672h 9.95433" fill="none" stroke="black" stroke-width="2"/>
<g stroke="black" stroke-width="1" fill="none">
<line x1="170.226" y1="372.672" x2="171.226" y2="372.672"/>
</g>
<path d="M191.135,383.299v -4.84065" fill="none" stroke="black" stroke-width="2"/>
<path d="M191.135,378.459v -4.84065" fill="none" stroke="black" stroke-width="2"/>
<path d="M181.18,378.459h 9.95433" fill="none" stroke="black" stroke-width="2"/>
<path d="M191.135,378.459h 9.95433" fill="none" stroke="black" stroke-width="2"/>
<g stroke="black" stroke-width="1" fill="none">
<line x1="190.135" y1="378.459" x2="191.135" y2="378.459"/>
</g>
<path d="M211.043,376.139v -5.73979" fill="none" stroke="black" stroke-width="2"/>
<path d="M211.043,370.399v -5.73979" fill="none" stroke="black" stroke-width="2"/>
<path d="M201.089,370.399h 9.95433" fill="none" stroke="black" stroke-width="2"/>
<path d="M211.043,370.399h 9.95433" fill="none" stroke="black" stroke-width="2"/>
<g stroke="black" stroke-width="1" fill="none">
<line x1="210.043" y1="370.399" x2="211.043" y2="370.399"/>
</g>
<path d="M230.952,383.099v -6.77934" fill="none" stroke="black" stroke-width="2"/>
<path d="M230.952,376.319v -6.77934" fill="none" stroke="black" stroke-width="2"/>
<path d="M220.998,376.319h 9.95433" fill="none" stroke="black" stroke-width="2"/>
<path d="M230.952,376.319h 9.95433" fill="none" stroke="black" stroke-width="2"/>
<g stroke="black" stroke-width="1" fill="none">
<line x1="229.952" y1="376.319" x2="230.952" y2="376.319"/>
</g>
<path d="M250.861,386.536v -8.73021" fill="none" stroke="black" stroke-width="2"/>
<path d="M250.861,377.806v -8.73021" fill="none" stroke="black" stroke-width="2"/>
<path d="M240.906,377.806h 9.95433" fill="none" stroke="black" stroke-width="2"/>
<path d="M250.861,377.806h 9.95433" fill="none" stroke="black" stroke-width="2"/>
<g stroke="black" stroke-width="1" fill="none">
<line x1="249.861" y1="377.806" x2="250.861" y2="377.806"/>
</g>
<path d="M270.769,356.61v -13.2677" fill="none" stroke="black" stroke-width="2"/>
<path d="M270.769,343.342v -13.2677" fill="none" stroke="black" stroke-width="2"/>
<path d="M260.815,343.342h 9.95433" fill="none" stroke="black" stroke-width="2"/>
<path d="M270.769,343.342h 9.95433" fill="none" stroke="black" stroke-width="2"/>
<g stroke="black" stroke-width="1" fill="none">
<line x1="269.769" y1="343.342" x2="270.769" y2="343.342"/>
</g>
<path d="M290.678,367.32v -16.7182" fill="none" stroke="black" stroke-width="2"/>
<path d="M290.678,350.602v -16.7182" fill="none" stroke="black" stroke-width="2"/>
<path d="M280.724,350.602h 9.95433" fill="none" stroke="black" stroke-width="2"/>
<path d="M290.678,350.602h 9.95433" fill="none" stroke="black" stroke-width="2"/>
<g stroke="black" stroke-width="1" fill="none">
<line x1="289.678" y1="350.602" x2="290.678" y2="350.602"/>
</g>
<path d="M310.587,386.067v -18.293" fill="none" stroke="black" stroke-width="2"/>
<path d="M310.587,367.774v -18.293" fill="none" stroke="black" stroke-width="2"/>
<path d="M300.632,367.774h 9.95433" fill="none" stroke="black" stroke-width="2"/>
<path d="M310.587,367.774h 9.95433" fill="none" stroke="black" stroke-width="2"/>
<g stroke="black" stroke-width="1" fill="none">
<line x1="309.587" y1="367.774" x2="310.587" y2="367.774"/>
</g>
<path d="M330.495,341.279v -28.3976" fill="none" stroke="black" stroke-width="2"/>
<path d="M330.495,312.881v -28.3976" fill="none" stroke="black" stroke-width="2"/>
<path d="M320.541,312.881h 9.95433" fill="none" stroke="black" stroke-width="2"/>
<path d="M330.495,312.881h 9.95433" fill="none" stroke="black" stroke-width="2"/>
<g stroke="black" stroke-width="1" fill="none">
<line x1="329.495" y1="312.881" x2="330.495" y2="312.881"/>
</g>
<path d="M439.993,366.068v -31.1571" fill="none" stroke="black" stroke-width="2"/>
<path d="M439.993,334.911v -31.1571" fill="none" stroke="black" stroke-width="2"/>
<path d="M340.45,334.911h 99.5433" fill="none" stroke="black" stroke-width="2"/>
<path d="M439.993,334.911h 99.5433" fill="none" stroke="black" stroke-width="2"/>
<g stroke="black" stroke-width="1" fill="none">
<line x1="438.993" y1="334.911" x2="439.993" y2="334.911"/>
</g>
<path d="M64.1174,390.394l 4.77808, -0.607228l 4.77808, -0.607228l 4.77808, -0.607228l 4.77808, -0.607228l 4.77808, -0.607228l 4.77808, -0.607228l 4.77808, -0.607228l 4.77808, -0.607228l 4.77808, -0.607228l 4.77808, -0.607228l 4.77808, -0.607228l
 4.77808, -0.607228l 4.77808, -0.607228l 4.77808, -0.607228l 4.77808, -0.607228l 4.77808, -0.607228l 4.77808, -0.607228l 4.77808, -0.607228l 4.77808, -0.607228l 4.77808, -0.607228l 4.77808, -0.607228l 4.77808, -0.607228l 4.77808, -0.607228l 4.77808,
 -0.607228l 4.77808, -0.607228l 4.77808, -0.607228l 4.77808, -0.607228l 4.77808, -0.607228l 4.77808, -0.607228l 4.77808, -0.607228l 4.77808, -0.607228l 4.77808, -0.607228l 4.77808, -0.607228l 4.77808, -0.607228l 4.77808, -0.607228l 4.77808,
 -0.607228l 4.77808, -0.607228l 4.77808, -0.607228l 4.77808, -0.607228l 4.77808, -0.607228l 4.77808, -0.607228l 4.77808, -0.607228l 4.77808, -0.607228l 4.77808, -0.607228l 4.77808, -0.607228l 4.77808, -0.607228l 4.77808, -0.607228l 4.77808,
 -0.607228l 4.77808, -0.607228" fill="none" stroke="#339966" stroke-width="2"/>
<path d="M298.243,360.64l 4.77808, -0.607228l 4.77808, -0.607228l 4.77808, -0.607228l 4.77808, -0.607228l 4.77808, -0.607228l 4.77808, -0.607228l 4.77808, -0.607228l 4.77808, -0.607228l 4.77808, -0.607228l 4.77808, -0.607228l 4.77808, -0.607228l
 4.77808, -0.607228l 4.77808, -0.607228l 4.77808, -0.607228l 4.77808, -0.607228l 4.77808, -0.607228l 4.77808, -0.607228l 4.77808, -0.607228l 4.77808, -0.607228l 4.77808, -0.607228l 4.77808, -0.607228l 4.77808, -0.607228l 4.77808, -0.607228l 4.77808,
 -0.607228l 4.77808, -0.607228l 4.77808, -0.607228l 4.77808, -0.607228l 4.77808, -0.607228l 4.77808, -0.607228l 4.77808, -0.607228l 4.77808, -0.607228l 4.77808, -0.607228l 4.77808, -0.607228l 4.77808, -0.607228l 4.77808, -0.607228l 4.77808,
 -0.607228l 4.77808, -0.607228l 4.77808, -0.607228l 4.77808, -0.607228l 4.77808, -0.607228l 4.77808, -0.607228l 4.77808, -0.607228l 4.77808, -0.607228l 4.77808, -0.607228l 4.77808, -0.607228l 4.77808, -0.607228l 4.77808, -0.607228l 4.77808,
 -0.607228l 4.77808, -0.607228" fill="none" stroke="#339966" stroke-width="2"/>
<path d="M532.369,330.886l 4.77808, -0.607228" fill="none" stroke="#339966" stroke-width="2"/>
<path d="M61.7283,488.189h 477.808" fill="none" stroke="black"/>
<path d="M141.363,481.426v 6.76256" fill="none" stroke="black"/>
<path d="M161.272,484.807v 3.38128" fill="none" stroke="black"/>
<path d="M181.18,484.807v 3.38128" fill="none" stroke="black"/>
<path d="M201.089,484.807v 3.38128" fill="none" stroke="black"/>
<path d="M220.998,484.807v 3.38128" fill="none" stroke="black"/>
<path d="M240.906,481.426v 6.76256" fill="none" stroke="black"/>
<path d="M260.815,484.807v 3.38128" fill="none" stroke="black"/>
<path d="M280.724,484.807v 3.38128" fill="none" stroke="black"/>
<path d="M300.632,484.807v 3.38128" fill="none" stroke="black"/>
<path d="M320.541,484.807v 3.38128" fill="none" stroke="black"/>
<path d="M340.45,481.426v 6.76256" fill="none" stroke="black"/>
<path d="M360.358,484.807v 3.38128" fill="none" stroke="black"/>
<path d="M380.267,484.807v 3.38128" fill="none" stroke="black"/>
<path d="M400.176,484.807v 3.38128" fill="none" stroke="black"/>
<path d="M420.084,484.807v 3.38128" fill="none" stroke="black"/>
<path d="M439.993,481.426v 6.76256" fill="none" stroke="black"/>
<path d="M459.902,484.807v 3.38128" fill="none" stroke="black"/>
<path d="M479.81,484.807v 3.38128" fill="none" stroke="black"/>
<path d="M499.719,484.807v 3.38128" fill="none" stroke="black"/>
<path d="M519.628,484.807v 3.38128" fill="none" stroke="black"/>
<path d="M539.536,481.426v 6.76256" fill="none" stroke="black"/>
<path d="M141.363,481.426v 6.76256" fill="none" stroke="black"/>
<path d="M121.454,484.807v 3.38128" fill="none" stroke="black"/>
<path d="M101.546,484.807v 3.38128" fill="none" stroke="black"/>
<path d="M81.637,484.807v 3.38128" fill="none" stroke="black"/>
<path d="M61.7283,484.807v 3.38128" fill="none" stroke="black"/>
<text xml:space="preserve" x="137.966" y="496.774" fill="black" font-size="8.91652" font-family="Helvetica">5</text>
<text xml:space="preserve" x="235.614" y="496.774" fill="black" font-size="8.91652" font-family="Helvetica">10</text>
<text xml:space="preserve" x="335.159" y="496.774" fill="black" font-size="8.91652" font-family="Helvetica">15</text>
<text xml:space="preserve" x="434.703" y="496.774" fill="black" font-size="8.91652" font-family="Helvetica">20</text>
<text xml:space="preserve" x="534.248" y="496.774" fill="black" font-size="8.91652" font-family="Helvetica">25</text>
<text xml:space="preserve" x="433.755" y="516.683" fill="black" font-size="14.9283" font-family="Helvetica">Track multiplicity</text>
<path d="M61.7283,278.497h 477.808" fill="none" stroke="black"/>
<path d="M141.363,285.259v -6.76256" fill="none" stroke="black"/>
<path d="M161.272,281.878v -3.38128" fill="none" stroke="black"/>
<path d="M181.18,281.878v -3.38128" fill="none" stroke="black"/>
<path d="M201.089,281.878v -3.38128" fill="none" stroke="black"/>
<path d="M220.998,281.878v -3.38128" fill="none" stroke="black"/>
<path d="M240.906,285.259v -6.76256" fill="none" stroke="black"/>
<path d="M260.815,281.878v -3.38128" fill="none" stroke="black"/>
<path d="M280.724,281.878v -3.38128" fill="none" stroke="black"/>
<path d="M300.632,281.878v -3.38128" fill="none" stroke="black"/>
<path d="M320.541,281.878v -3.38128" fill="none" stroke="black"/>
<path d="M340.45,285.259v -6.76256" fill="none" stroke="black"/>
<path d="M360.358,281.878v -3.38128" fill="none" stroke="black"/>
<path d="M380.267,281.878v -3.38128" fill="none" stroke="black"/>
<path d="M400.176,281.878v -3.38128" fill="none" stroke="black"/>
<path d="M420.084,281.878v -3.38128" fill="none" stroke="black"/>
<path d="M439.993,285.259v -6.76256" fill="none" stroke="black"/>
<path d="M459.902,281.878v -3.38128" fill="none" stroke="black"/>
<path d="M479.81,281.878v -3.38128" fill="none" stroke="black"/>
<path d="M499.719,281.878v -3.38128" fill="none" stroke="black"/>
<path d="M519.628,281.878v -3.38128" fill="none" stroke="black"/>
<path d="M539.536,285.259v -6.76256" fill="none" stroke="black"/>
<path d="M141.363,285.259v -6.76256" fill="none" stroke="black"/>
<path d="M121.454,281.878v -3.38128" fill="none" stroke="black"/>
<path d="M101.546,281.878v -3.38128" fill="none" stroke="black"/>
<path d="M81.637,281.878v -3.38128" fill="none" stroke="black"/>
<path d="M61.7283,281.878v -3.38128" fill="none" stroke="black"/>
<path d="M61.7283,488.189v -209.692" fill="none" stroke="black"/>
<path d="M75.0625,488.189h -13.3342" fill="none" stroke="black"/>
<path d="M68.3954,482.946h -6.66709" fill="none" stroke="black"/>
<path d="M68.3954,477.704h -6.66709" fill="none" stroke="black"/>
<path d="M68.3954,472.462h -6.66709" fill="none" stroke="black"/>
<path d="M75.0625,467.219h -13.3342" fill="none" stroke="black"/>
<path d="M68.3954,461.977h -6.66709" fill="none" stroke="black"/>
<path d="M68.3954,456.735h -6.66709" fill="none" stroke="black"/>
<path d="M68.3954,451.492h -6.66709" fill="none" stroke="black"/>
<path d="M75.0625,446.25h -13.3342" fill="none" stroke="black"/>
<path d="M68.3954,441.008h -6.66709" fill="none" stroke="black"/>
<path d="M68.3954,435.766h -6.66709" fill="none" stroke="black"/>
<path d="M68.3954,430.523h -6.66709" fill="none" stroke="black"/>
<path d="M75.0625,425.281h -13.3342" fill="none" stroke="black"/>
<path d="M68.3954,420.039h -6.66709" fill="none" stroke="black"/>
<path d="M68.3954,414.796h -6.66709" fill="none" stroke="black"/>
<path d="M68.3954,409.554h -6.66709" fill="none" stroke="black"/>
<path d="M75.0625,404.312h -13.3342" fill="none" stroke="black"/>
<path d="M68.3954,399.07h -6.66709" fill="none" stroke="black"/>
<path d="M68.3954,393.827h -6.66709" fill="none" stroke="black"/>
<path d="M68.3954,388.585h -6.66709" fill="none" stroke="black"/>
<path d="M75.0625,383.343h -13.3342" fill="none" stroke="black"/>
<path d="M68.3954,378.1h -6.66709" fill="none" stroke="black"/>
<path d="M68.3954,372.858h -6.66709" fill="none" stroke="black"/>
<path d="M68.3954,367.616h -6.66709" fill="none" stroke="black"/>
<path d="M75.0625,362.374h -13.3342" fill="none" stroke="black"/>
<path d="M68.3954,357.131h -6.66709" fill="none" stroke="black"/>
<path d="M68.3954,351.889h -6.66709" fill="none" stroke="black"/>
<path d="M68.3954,346.647h -6.66709" fill="none" stroke="black"/>
<path d="M75.0625,341.404h -13.3342" fill="none" stroke="black"/>
<path d="M68.3954,336.162h -6.66709" fill="none" stroke="black"/>
<path d="M68.3954,330.92h -6.66709" fill="none" stroke="black"/>
<path d="M68.3954,325.677h -6.66709" fill="none" stroke="black"/>
<path d="M75.0625,320.435h -13.3342" fill="none" stroke="black"/>
<path d="M68.3954,315.193h -6.66709" fill="none" stroke="black"/>
<path d="M68.3954,309.951h -6.66709" fill="none" stroke="black"/>
<path d="M68.3954,304.708h -6.66709" fill="none" stroke="black"/>
<path d="M75.0625,299.466h -13.3342" fill="none" stroke="black"/>
<path d="M68.3954,294.224h -6.66709" fill="none" stroke="black"/>
<path d="M68.3954,288.981h -6.66709" fill="none" stroke="black"/>
<path d="M68.3954,283.739h -6.66709" fill="none" stroke="black"/>
<path d="M75.0625,278.497h -13.3342" fill="none" stroke="black"/>
<text xml:space="preserve" x="53.5904" y="491.086" fill="black" font-size="8.91652" font-family="Helvetica">0</text>
<text xml:space="preserve" x="46.006" y="470.229" fill="black" font-size="8.91652" font-family="Helvetica">0.2</text>
<text xml:space="preserve" x="46.006" y="449.372" fill="black" font-size="8.91652" font-family="Helvetica">0.4</text>
<text xml:space="preserve" x="46.006" y="428.515" fill="black" font-size="8.91652" font-family="Helvetica">0.6</text>
<text xml:space="preserve" x="46.006" y="407.658" fill="black" font-size="8.91652" font-family="Helvetica">0.8</text>
<text xml:space="preserve" x="54.5384" y="386.801" fill="black" font-size="8.91652" font-family="Helvetica">1</text>
<text xml:space="preserve" x="46.006" y="365.944" fill="black" font-size="8.91652" font-family="Helvetica">1.2</text>
<text xml:space="preserve" x="46.006" y="345.087" fill="black" font-size="8.91652" font-family="Helvetica">1.4</text>
<text xml:space="preserve" x="46.006" y="323.282" fill="black" font-size="8.91652" font-family="Helvetica">1.6</text>
<text xml:space="preserve" x="46.006" y="302.425" fill="black" font-size="8.91652" font-family="Helvetica">1.8</text>
<text xml:space="preserve" x="53.5904" y="281.568" fill="black" font-size="8.91652" font-family="Helvetica">2</text>
<g transform="rotate(-90,19.4608,458.852)">
<text xml:space="preserve" x="19.4608" y="458.852" fill="black" font-size="14.9283" font-family="Helvetica">True Background / Predicted</text>
</g>
<rect x="339.524" y="409.554" width="194.457" height="52.4229" fill="none" stroke="black"/>
<path d="M339.524,461.977h 194.457" fill="none" stroke="black"/>
<path d="M533.98,461.977v -52.4229" fill="none" stroke="black"/>
<path d="M533.98,409.554h -194.457" fill="none" stroke="black"/>
<path d="M339.524,409.554v 52.4229" fill="none" stroke="black"/>
<text xml:space="preserve" x="343.691" y="428.515" fill="black" font-size="14.9283" font-family="Helvetica">Fitting function</text>
<text xml:space="preserve" x="387.301" y="454.112" fill="black" font-size="14.9283" font-family="Helvetica">c0+c1*x</text>
<path d="M346.816,448.871h 34.0299" fill="none" stroke="#339966" stroke-width="2"/></svg>
