<?xml version="1.0" standalone="no"?>
<svg width="567.429" height="546.572" viewBox="0 0 567.429 546.572" xmlns="http://www.w3.org/2000/svg" shape-rendering="crispEdges">
<title>
/home/kuanyu/Documents/CMS/Background_Estimate/fake_rate/top_emu/plot/CT_Top(emu)_JetEta_dileppT.svg
</title>
<desc>
Creator: ROOT Version 6.26/04
CreationDate: Wed Nov 23 12:19:47 2022</desc>
<defs>
</defs>
<rect x="0.5" y="0" width="566.929" height="546.072" fill="white"/>
<rect x="6.16929" y="5.46072" width="555.591" height="262.115" fill="white"/>
<rect x="61.7283" y="8.08187" width="477.808" height="259.493" fill="white"/>
<rect x="61.7283" y="8.08187" width="477.808" height="259.493" fill="none" stroke="black"/>
<rect x="61.7283" y="8.08187" width="477.808" height="259.493" fill="white"/>
<rect x="61.7283" y="8.08187" width="477.808" height="259.493" fill="none" stroke="black"/>
<path d="M101.546,189.272v -9.28644" fill="none" stroke="#ff0000" stroke-width="2"/>
<path d="M101.546,179.986v -8.51145" fill="none" stroke="#ff0000" stroke-width="2"/>
<path d="M93.5822,179.986h 7.96346" fill="none" stroke="#ff0000" stroke-width="2"/>
<path d="M101.546,179.986h 7.96346" fill="none" stroke="#ff0000" stroke-width="2"/>
<g stroke="black" stroke-width="1" fill="none">
<line x1="100.546" y1="179.986" x2="101.546" y2="179.986"/>
</g>
<path d="M117.473,134.739v -7.81036" fill="none" stroke="#ff0000" stroke-width="2"/>
<path d="M117.473,126.929v -7.25489" fill="none" stroke="#ff0000" stroke-width="2"/>
<path d="M109.509,126.929h 7.96346" fill="none" stroke="#ff0000" stroke-width="2"/>
<path d="M117.473,126.929h 7.96346" fill="none" stroke="#ff0000" stroke-width="2"/>
<g stroke="black" stroke-width="1" fill="none">
<line x1="116.473" y1="126.929" x2="117.473" y2="126.929"/>
</g>
<path d="M133.4,135.338v -8.06971" fill="none" stroke="#ff0000" stroke-width="2"/>
<path d="M133.4,127.268v -7.47811" fill="none" stroke="#ff0000" stroke-width="2"/>
<path d="M125.436,127.268h 7.96346" fill="none" stroke="#ff0000" stroke-width="2"/>
<path d="M133.4,127.268h 7.96346" fill="none" stroke="#ff0000" stroke-width="2"/>
<g stroke="black" stroke-width="1" fill="none">
<line x1="132.4" y1="127.268" x2="133.4" y2="127.268"/>
</g>
<path d="M149.326,130.333v -7.60808" fill="none" stroke="#ff0000" stroke-width="2"/>
<path d="M149.326,122.725v -7.08005" fill="none" stroke="#ff0000" stroke-width="2"/>
<path d="M141.363,122.725h 7.96346" fill="none" stroke="#ff0000" stroke-width="2"/>
<path d="M149.326,122.725h 7.96346" fill="none" stroke="#ff0000" stroke-width="2"/>
<g stroke="black" stroke-width="1" fill="none">
<line x1="148.326" y1="122.725" x2="149.326" y2="122.725"/>
</g>
<path d="M165.253,119.714v -7.16681" fill="none" stroke="#ff0000" stroke-width="2"/>
<path d="M165.253,112.547v -6.69638" fill="none" stroke="#ff0000" stroke-width="2"/>
<path d="M157.29,112.547h 7.96346" fill="none" stroke="#ff0000" stroke-width="2"/>
<path d="M165.253,112.547h 7.96346" fill="none" stroke="#ff0000" stroke-width="2"/>
<g stroke="black" stroke-width="1" fill="none">
<line x1="164.253" y1="112.547" x2="165.253" y2="112.547"/>
</g>
<path d="M181.18,114.615v -7.35609" fill="none" stroke="#ff0000" stroke-width="2"/>
<path d="M181.18,107.259v -6.86133" fill="none" stroke="#ff0000" stroke-width="2"/>
<path d="M173.217,107.259h 7.96346" fill="none" stroke="#ff0000" stroke-width="2"/>
<path d="M181.18,107.259h 7.96346" fill="none" stroke="#ff0000" stroke-width="2"/>
<g stroke="black" stroke-width="1" fill="none">
<line x1="180.18" y1="107.259" x2="181.18" y2="107.259"/>
</g>
<path d="M197.107,97.3856v -5.89992" fill="none" stroke="#ff0000" stroke-width="2"/>
<path d="M197.107,91.4857v -5.5774" fill="none" stroke="#ff0000" stroke-width="2"/>
<path d="M189.144,91.4857h 7.96346" fill="none" stroke="#ff0000" stroke-width="2"/>
<path d="M197.107,91.4857h 7.96346" fill="none" stroke="#ff0000" stroke-width="2"/>
<g stroke="black" stroke-width="1" fill="none">
<line x1="196.107" y1="91.4857" x2="197.107" y2="91.4857"/>
</g>
<path d="M213.034,108.343v -6.68125" fill="none" stroke="#ff0000" stroke-width="2"/>
<path d="M213.034,101.661v -6.27059" fill="none" stroke="#ff0000" stroke-width="2"/>
<path d="M205.071,101.661h 7.96346" fill="none" stroke="#ff0000" stroke-width="2"/>
<path d="M213.034,101.661h 7.96346" fill="none" stroke="#ff0000" stroke-width="2"/>
<g stroke="black" stroke-width="1" fill="none">
<line x1="212.034" y1="101.661" x2="213.034" y2="101.661"/>
</g>
<path d="M228.961,96.9985v -6.24574" fill="none" stroke="#ff0000" stroke-width="2"/>
<path d="M228.961,90.7527v -5.88545" fill="none" stroke="#ff0000" stroke-width="2"/>
<path d="M220.998,90.7527h 7.96346" fill="none" stroke="#ff0000" stroke-width="2"/>
<path d="M228.961,90.7527h 7.96346" fill="none" stroke="#ff0000" stroke-width="2"/>
<g stroke="black" stroke-width="1" fill="none">
<line x1="227.961" y1="90.7527" x2="228.961" y2="90.7527"/>
</g>
<path d="M244.888,84.8347v -5.92846" fill="none" stroke="#ff0000" stroke-width="2"/>
<path d="M244.888,78.9062v -5.6029" fill="none" stroke="#ff0000" stroke-width="2"/>
<path d="M236.925,78.9062h 7.96346" fill="none" stroke="#ff0000" stroke-width="2"/>
<path d="M244.888,78.9062h 7.96346" fill="none" stroke="#ff0000" stroke-width="2"/>
<g stroke="black" stroke-width="1" fill="none">
<line x1="243.888" y1="78.9062" x2="244.888" y2="78.9062"/>
</g>
<path d="M260.815,90.2059v -6.14132" fill="none" stroke="#ff0000" stroke-width="2"/>
<path d="M260.815,84.0645v -5.79264" fill="none" stroke="#ff0000" stroke-width="2"/>
<path d="M252.852,84.0645h 7.96346" fill="none" stroke="#ff0000" stroke-width="2"/>
<path d="M260.815,84.0645h 7.96346" fill="none" stroke="#ff0000" stroke-width="2"/>
<g stroke="black" stroke-width="1" fill="none">
<line x1="259.815" y1="84.0645" x2="260.815" y2="84.0645"/>
</g>
<path d="M276.742,102.813v -6.33511" fill="none" stroke="#ff0000" stroke-width="2"/>
<path d="M276.742,96.4778v -5.96474" fill="none" stroke="#ff0000" stroke-width="2"/>
<path d="M268.778,96.4778h 7.96346" fill="none" stroke="#ff0000" stroke-width="2"/>
<path d="M276.742,96.4778h 7.96346" fill="none" stroke="#ff0000" stroke-width="2"/>
<g stroke="black" stroke-width="1" fill="none">
<line x1="275.742" y1="96.4778" x2="276.742" y2="96.4778"/>
</g>
<path d="M292.669,114.441v -6.60896" fill="none" stroke="#ff0000" stroke-width="2"/>
<path d="M292.669,107.832v -6.20688" fill="none" stroke="#ff0000" stroke-width="2"/>
<path d="M284.705,107.832h 7.96346" fill="none" stroke="#ff0000" stroke-width="2"/>
<path d="M292.669,107.832h 7.96346" fill="none" stroke="#ff0000" stroke-width="2"/>
<g stroke="black" stroke-width="1" fill="none">
<line x1="291.669" y1="107.832" x2="292.669" y2="107.832"/>
</g>
<path d="M308.596,120.827v -6.31449" fill="none" stroke="#ff0000" stroke-width="2"/>
<path d="M308.596,114.512v -5.94645" fill="none" stroke="#ff0000" stroke-width="2"/>
<path d="M300.632,114.512h 7.96346" fill="none" stroke="#ff0000" stroke-width="2"/>
<path d="M308.596,114.512h 7.96346" fill="none" stroke="#ff0000" stroke-width="2"/>
<g stroke="black" stroke-width="1" fill="none">
<line x1="307.596" y1="114.512" x2="308.596" y2="114.512"/>
</g>
<path d="M324.523,112.74v -6.6989" fill="none" stroke="#ff0000" stroke-width="2"/>
<path d="M324.523,106.041v -6.28614" fill="none" stroke="#ff0000" stroke-width="2"/>
<path d="M316.559,106.041h 7.96346" fill="none" stroke="#ff0000" stroke-width="2"/>
<path d="M324.523,106.041h 7.96346" fill="none" stroke="#ff0000" stroke-width="2"/>
<g stroke="black" stroke-width="1" fill="none">
<line x1="323.523" y1="106.041" x2="324.523" y2="106.041"/>
</g>
<path d="M340.45,86.5573v -5.98864" fill="none" stroke="#ff0000" stroke-width="2"/>
<path d="M340.45,80.5687v -5.65661" fill="none" stroke="#ff0000" stroke-width="2"/>
<path d="M332.486,80.5687h 7.96346" fill="none" stroke="#ff0000" stroke-width="2"/>
<path d="M340.45,80.5687h 7.96346" fill="none" stroke="#ff0000" stroke-width="2"/>
<g stroke="black" stroke-width="1" fill="none">
<line x1="339.45" y1="80.5687" x2="340.45" y2="80.5687"/>
</g>
<path d="M356.377,95.8703v -6.45533" fill="none" stroke="#ff0000" stroke-width="2"/>
<path d="M356.377,89.415v -6.07119" fill="none" stroke="#ff0000" stroke-width="2"/>
<path d="M348.413,89.415h 7.96346" fill="none" stroke="#ff0000" stroke-width="2"/>
<path d="M356.377,89.415h 7.96346" fill="none" stroke="#ff0000" stroke-width="2"/>
<g stroke="black" stroke-width="1" fill="none">
<line x1="355.377" y1="89.415" x2="356.377" y2="89.415"/>
</g>
<path d="M372.303,100.979v -6.38958" fill="none" stroke="#ff0000" stroke-width="2"/>
<path d="M372.303,94.5895v -6.013" fill="none" stroke="#ff0000" stroke-width="2"/>
<path d="M364.34,94.5895h 7.96346" fill="none" stroke="#ff0000" stroke-width="2"/>
<path d="M372.303,94.5895h 7.96346" fill="none" stroke="#ff0000" stroke-width="2"/>
<g stroke="black" stroke-width="1" fill="none">
<line x1="371.303" y1="94.5895" x2="372.303" y2="94.5895"/>
</g>
<path d="M388.23,106.522v -6.6081" fill="none" stroke="#ff0000" stroke-width="2"/>
<path d="M388.23,99.9136v -6.20612" fill="none" stroke="#ff0000" stroke-width="2"/>
<path d="M380.267,99.9136h 7.96346" fill="none" stroke="#ff0000" stroke-width="2"/>
<path d="M388.23,99.9136h 7.96346" fill="none" stroke="#ff0000" stroke-width="2"/>
<g stroke="black" stroke-width="1" fill="none">
<line x1="387.23" y1="99.9136" x2="388.23" y2="99.9136"/>
</g>
<path d="M404.157,96.2219v -6.2198" fill="none" stroke="#ff0000" stroke-width="2"/>
<path d="M404.157,90.0021v -5.86241" fill="none" stroke="#ff0000" stroke-width="2"/>
<path d="M396.194,90.0021h 7.96346" fill="none" stroke="#ff0000" stroke-width="2"/>
<path d="M404.157,90.0021h 7.96346" fill="none" stroke="#ff0000" stroke-width="2"/>
<g stroke="black" stroke-width="1" fill="none">
<line x1="403.157" y1="90.0021" x2="404.157" y2="90.0021"/>
</g>
<path d="M420.084,110.691v -6.62135" fill="none" stroke="#ff0000" stroke-width="2"/>
<path d="M420.084,104.069v -6.21781" fill="none" stroke="#ff0000" stroke-width="2"/>
<path d="M412.121,104.069h 7.96346" fill="none" stroke="#ff0000" stroke-width="2"/>
<path d="M420.084,104.069h 7.96346" fill="none" stroke="#ff0000" stroke-width="2"/>
<g stroke="black" stroke-width="1" fill="none">
<line x1="419.084" y1="104.069" x2="420.084" y2="104.069"/>
</g>
<path d="M436.011,116.749v -6.37386" fill="none" stroke="#ff0000" stroke-width="2"/>
<path d="M436.011,110.375v -5.99907" fill="none" stroke="#ff0000" stroke-width="2"/>
<path d="M428.048,110.375h 7.96346" fill="none" stroke="#ff0000" stroke-width="2"/>
<path d="M436.011,110.375h 7.96346" fill="none" stroke="#ff0000" stroke-width="2"/>
<g stroke="black" stroke-width="1" fill="none">
<line x1="435.011" y1="110.375" x2="436.011" y2="110.375"/>
</g>
<path d="M451.938,130.788v -7.44662" fill="none" stroke="#ff0000" stroke-width="2"/>
<path d="M451.938,123.341v -6.94002" fill="none" stroke="#ff0000" stroke-width="2"/>
<path d="M443.975,123.341h 7.96346" fill="none" stroke="#ff0000" stroke-width="2"/>
<path d="M451.938,123.341h 7.96346" fill="none" stroke="#ff0000" stroke-width="2"/>
<g stroke="black" stroke-width="1" fill="none">
<line x1="450.938" y1="123.341" x2="451.938" y2="123.341"/>
</g>
<path d="M467.865,134.58v -8.53523" fill="none" stroke="#ff0000" stroke-width="2"/>
<path d="M467.865,126.045v -7.87616" fill="none" stroke="#ff0000" stroke-width="2"/>
<path d="M459.902,126.045h 7.96346" fill="none" stroke="#ff0000" stroke-width="2"/>
<path d="M467.865,126.045h 7.96346" fill="none" stroke="#ff0000" stroke-width="2"/>
<g stroke="black" stroke-width="1" fill="none">
<line x1="466.865" y1="126.045" x2="467.865" y2="126.045"/>
</g>
<path d="M483.792,126.674v -6.89462" fill="none" stroke="#ff0000" stroke-width="2"/>
<path d="M483.792,119.779v -6.45816" fill="none" stroke="#ff0000" stroke-width="2"/>
<path d="M475.828,119.779h 7.96346" fill="none" stroke="#ff0000" stroke-width="2"/>
<path d="M483.792,119.779h 7.96346" fill="none" stroke="#ff0000" stroke-width="2"/>
<g stroke="black" stroke-width="1" fill="none">
<line x1="482.792" y1="119.779" x2="483.792" y2="119.779"/>
</g>
<path d="M499.719,196.836v -10.2125" fill="none" stroke="#ff0000" stroke-width="2"/>
<path d="M499.719,186.624v -9.28288" fill="none" stroke="#ff0000" stroke-width="2"/>
<path d="M491.755,186.624h 7.96346" fill="none" stroke="#ff0000" stroke-width="2"/>
<path d="M499.719,186.624h 7.96346" fill="none" stroke="#ff0000" stroke-width="2"/>
<g stroke="black" stroke-width="1" fill="none">
<line x1="498.719" y1="186.624" x2="499.719" y2="186.624"/>
</g>
<path d="M61.7283,267.575h 477.808" fill="none" stroke="black"/>
<path d="M61.7283,260.813v 6.76256" fill="none" stroke="black"/>
<path d="M77.6553,264.194v 3.38128" fill="none" stroke="black"/>
<path d="M93.5822,264.194v 3.38128" fill="none" stroke="black"/>
<path d="M109.509,264.194v 3.38128" fill="none" stroke="black"/>
<path d="M125.436,264.194v 3.38128" fill="none" stroke="black"/>
<path d="M141.363,260.813v 6.76256" fill="none" stroke="black"/>
<path d="M157.29,264.194v 3.38128" fill="none" stroke="black"/>
<path d="M173.217,264.194v 3.38128" fill="none" stroke="black"/>
<path d="M189.144,264.194v 3.38128" fill="none" stroke="black"/>
<path d="M205.071,264.194v 3.38128" fill="none" stroke="black"/>
<path d="M220.998,260.813v 6.76256" fill="none" stroke="black"/>
<path d="M236.925,264.194v 3.38128" fill="none" stroke="black"/>
<path d="M252.852,264.194v 3.38128" fill="none" stroke="black"/>
<path d="M268.778,264.194v 3.38128" fill="none" stroke="black"/>
<path d="M284.705,264.194v 3.38128" fill="none" stroke="black"/>
<path d="M300.632,260.813v 6.76256" fill="none" stroke="black"/>
<path d="M316.559,264.194v 3.38128" fill="none" stroke="black"/>
<path d="M332.486,264.194v 3.38128" fill="none" stroke="black"/>
<path d="M348.413,264.194v 3.38128" fill="none" stroke="black"/>
<path d="M364.34,264.194v 3.38128" fill="none" stroke="black"/>
<path d="M380.267,260.813v 6.76256" fill="none" stroke="black"/>
<path d="M396.194,264.194v 3.38128" fill="none" stroke="black"/>
<path d="M412.121,264.194v 3.38128" fill="none" stroke="black"/>
<path d="M428.048,264.194v 3.38128" fill="none" stroke="black"/>
<path d="M443.975,264.194v 3.38128" fill="none" stroke="black"/>
<path d="M459.902,260.813v 6.76256" fill="none" stroke="black"/>
<path d="M475.828,264.194v 3.38128" fill="none" stroke="black"/>
<path d="M491.755,264.194v 3.38128" fill="none" stroke="black"/>
<path d="M507.682,264.194v 3.38128" fill="none" stroke="black"/>
<path d="M523.609,264.194v 3.38128" fill="none" stroke="black"/>
<path d="M539.536,260.813v 6.76256" fill="none" stroke="black"/>
<path d="M61.7283,267.575v -259.493" fill="none" stroke="black"/>
<path d="M69.9789,266.633h -8.25052" fill="none" stroke="black"/>
<path d="M69.9789,248.026h -8.25052" fill="none" stroke="black"/>
<path d="M69.9789,232.294h -8.25052" fill="none" stroke="black"/>
<path d="M69.9789,218.666h -8.25052" fill="none" stroke="black"/>
<path d="M69.9789,206.646h -8.25052" fill="none" stroke="black"/>
<path d="M78.2294,195.893h -16.501" fill="none" stroke="black"/>
<text xml:space="preserve" x="47.9021" y="199.089" fill="black" font-size="8.91652" font-family="Helvetica">10</text>
<path d="M69.9789,125.154h -8.25052" fill="none" stroke="black"/>
<path d="M69.9789,83.7742h -8.25052" fill="none" stroke="black"/>
<path d="M69.9789,54.4147h -8.25052" fill="none" stroke="black"/>
<path d="M69.9789,31.6417h -8.25052" fill="none" stroke="black"/>
<path d="M69.9789,13.0348h -8.25052" fill="none" stroke="black"/>
<g transform="rotate(-90,24.201,35.0776)">
<text xml:space="preserve" x="24.201" y="35.0776" fill="black" font-size="14.9283" font-family="Helvetica">nJet</text>
</g>
<path d="M101.546,174.454v -4.69351" fill="none" stroke="#006699" stroke-width="2"/>
<path d="M101.546,169.76v -4.48711" fill="none" stroke="#006699" stroke-width="2"/>
<g stroke="black" stroke-width="1" fill="none">
<line x1="100.546" y1="169.76" x2="101.546" y2="169.76"/>
</g>
<path d="M117.473,134.321v -3.38181" fill="none" stroke="#006699" stroke-width="2"/>
<path d="M117.473,130.939v -3.27333" fill="none" stroke="#006699" stroke-width="2"/>
<g stroke="black" stroke-width="1" fill="none">
<line x1="116.473" y1="130.939" x2="117.473" y2="130.939"/>
</g>
<path d="M133.4,147.816v -3.2554" fill="none" stroke="#006699" stroke-width="2"/>
<path d="M133.4,144.56v -3.15476" fill="none" stroke="#006699" stroke-width="2"/>
<g stroke="black" stroke-width="1" fill="none">
<line x1="132.4" y1="144.56" x2="133.4" y2="144.56"/>
</g>
<path d="M149.326,140.945v -2.86547" fill="none" stroke="#006699" stroke-width="2"/>
<path d="M149.326,138.08v -2.78721" fill="none" stroke="#006699" stroke-width="2"/>
<g stroke="black" stroke-width="1" fill="none">
<line x1="148.326" y1="138.08" x2="149.326" y2="138.08"/>
</g>
<path d="M165.253,134.285v -2.76235" fill="none" stroke="#006699" stroke-width="2"/>
<path d="M165.253,131.523v -2.68955" fill="none" stroke="#006699" stroke-width="2"/>
<g stroke="black" stroke-width="1" fill="none">
<line x1="164.253" y1="131.523" x2="165.253" y2="131.523"/>
</g>
<path d="M181.18,111.611v -2.46935" fill="none" stroke="#006699" stroke-width="2"/>
<path d="M181.18,109.142v -2.41101" fill="none" stroke="#006699" stroke-width="2"/>
<g stroke="black" stroke-width="1" fill="none">
<line x1="180.18" y1="109.142" x2="181.18" y2="109.142"/>
</g>
<path d="M197.107,89.1151v -2.22894" fill="none" stroke="#006699" stroke-width="2"/>
<path d="M197.107,86.8861v -2.1813" fill="none" stroke="#006699" stroke-width="2"/>
<g stroke="black" stroke-width="1" fill="none">
<line x1="196.107" y1="86.8861" x2="197.107" y2="86.8861"/>
</g>
<path d="M213.034,85.0006v -2.09557" fill="none" stroke="#006699" stroke-width="2"/>
<path d="M213.034,82.905v -2.0534" fill="none" stroke="#006699" stroke-width="2"/>
<g stroke="black" stroke-width="1" fill="none">
<line x1="212.034" y1="82.905" x2="213.034" y2="82.905"/>
</g>
<path d="M228.961,82.7701v -2.10785" fill="none" stroke="#006699" stroke-width="2"/>
<path d="M228.961,80.6623v -2.06519" fill="none" stroke="#006699" stroke-width="2"/>
<g stroke="black" stroke-width="1" fill="none">
<line x1="227.961" y1="80.6623" x2="228.961" y2="80.6623"/>
</g>
<path d="M244.888,84.029v -1.96785" fill="none" stroke="#006699" stroke-width="2"/>
<path d="M244.888,82.0612v -1.93062" fill="none" stroke="#006699" stroke-width="2"/>
<g stroke="black" stroke-width="1" fill="none">
<line x1="243.888" y1="82.0612" x2="244.888" y2="82.0612"/>
</g>
<path d="M260.815,75.1716v -1.92803" fill="none" stroke="#006699" stroke-width="2"/>
<path d="M260.815,73.2435v -1.89228" fill="none" stroke="#006699" stroke-width="2"/>
<g stroke="black" stroke-width="1" fill="none">
<line x1="259.815" y1="73.2435" x2="260.815" y2="73.2435"/>
</g>
<path d="M276.742,70.5691v -1.99661" fill="none" stroke="#006699" stroke-width="2"/>
<path d="M276.742,68.5725v -1.9583" fill="none" stroke="#006699" stroke-width="2"/>
<g stroke="black" stroke-width="1" fill="none">
<line x1="275.742" y1="68.5725" x2="276.742" y2="68.5725"/>
</g>
<path d="M292.669,68.0277v -1.96912" fill="none" stroke="#006699" stroke-width="2"/>
<path d="M292.669,66.0586v -1.93185" fill="none" stroke="#006699" stroke-width="2"/>
<g stroke="black" stroke-width="1" fill="none">
<line x1="291.669" y1="66.0586" x2="292.669" y2="66.0586"/>
</g>
<path d="M308.596,66.9265v -1.87613" fill="none" stroke="#006699" stroke-width="2"/>
<path d="M308.596,65.0504v -1.84226" fill="none" stroke="#006699" stroke-width="2"/>
<g stroke="black" stroke-width="1" fill="none">
<line x1="307.596" y1="65.0504" x2="308.596" y2="65.0504"/>
</g>
<path d="M324.523,73.4004v -1.96089" fill="none" stroke="#006699" stroke-width="2"/>
<path d="M324.523,71.4395v -1.92392" fill="none" stroke="#006699" stroke-width="2"/>
<g stroke="black" stroke-width="1" fill="none">
<line x1="323.523" y1="71.4395" x2="324.523" y2="71.4395"/>
</g>
<path d="M340.45,74.7638v -1.98665" fill="none" stroke="#006699" stroke-width="2"/>
<path d="M340.45,72.7772v -1.94871" fill="none" stroke="#006699" stroke-width="2"/>
<g stroke="black" stroke-width="1" fill="none">
<line x1="339.45" y1="72.7772" x2="340.45" y2="72.7772"/>
</g>
<path d="M356.377,83.1111v -2.00819" fill="none" stroke="#006699" stroke-width="2"/>
<path d="M356.377,81.1029v -1.96944" fill="none" stroke="#006699" stroke-width="2"/>
<g stroke="black" stroke-width="1" fill="none">
<line x1="355.377" y1="81.1029" x2="356.377" y2="81.1029"/>
</g>
<path d="M372.303,82.3227v -2.03715" fill="none" stroke="#006699" stroke-width="2"/>
<path d="M372.303,80.2856v -1.99728" fill="none" stroke="#006699" stroke-width="2"/>
<g stroke="black" stroke-width="1" fill="none">
<line x1="371.303" y1="80.2856" x2="372.303" y2="80.2856"/>
</g>
<path d="M388.23,88.5526v -2.36027" fill="none" stroke="#006699" stroke-width="2"/>
<path d="M388.23,86.1923v -2.30691" fill="none" stroke="#006699" stroke-width="2"/>
<g stroke="black" stroke-width="1" fill="none">
<line x1="387.23" y1="86.1923" x2="388.23" y2="86.1923"/>
</g>
<path d="M404.157,94.3332v -2.29557" fill="none" stroke="#006699" stroke-width="2"/>
<path d="M404.157,92.0377v -2.24507" fill="none" stroke="#006699" stroke-width="2"/>
<g stroke="black" stroke-width="1" fill="none">
<line x1="403.157" y1="92.0377" x2="404.157" y2="92.0377"/>
</g>
<path d="M420.084,116.387v -2.42594" fill="none" stroke="#006699" stroke-width="2"/>
<path d="M420.084,113.961v -2.36961" fill="none" stroke="#006699" stroke-width="2"/>
<g stroke="black" stroke-width="1" fill="none">
<line x1="419.084" y1="113.961" x2="420.084" y2="113.961"/>
</g>
<path d="M436.011,134.543v -2.72268" fill="none" stroke="#006699" stroke-width="2"/>
<path d="M436.011,131.82v -2.65192" fill="none" stroke="#006699" stroke-width="2"/>
<g stroke="black" stroke-width="1" fill="none">
<line x1="435.011" y1="131.82" x2="436.011" y2="131.82"/>
</g>
<path d="M451.938,143.301v -3.03524" fill="none" stroke="#006699" stroke-width="2"/>
<path d="M451.938,140.266v -2.94757" fill="none" stroke="#006699" stroke-width="2"/>
<g stroke="black" stroke-width="1" fill="none">
<line x1="450.938" y1="140.266" x2="451.938" y2="140.266"/>
</g>
<path d="M467.865,154.779v -3.06337" fill="none" stroke="#006699" stroke-width="2"/>
<path d="M467.865,151.715v -2.97409" fill="none" stroke="#006699" stroke-width="2"/>
<g stroke="black" stroke-width="1" fill="none">
<line x1="466.865" y1="151.715" x2="467.865" y2="151.715"/>
</g>
<path d="M483.792,139.865v -3.33202" fill="none" stroke="#006699" stroke-width="2"/>
<path d="M483.792,136.533v -3.22666" fill="none" stroke="#006699" stroke-width="2"/>
<g stroke="black" stroke-width="1" fill="none">
<line x1="482.792" y1="136.533" x2="483.792" y2="136.533"/>
</g>
<path d="M499.719,188.533v -4.97853" fill="none" stroke="#006699" stroke-width="2"/>
<path d="M499.719,183.554v -4.74692" fill="none" stroke="#006699" stroke-width="2"/>
<g stroke="black" stroke-width="1" fill="none">
<line x1="498.719" y1="183.554" x2="499.719" y2="183.554"/>
</g>
<path d="M61.7283,267.575h 31.8539v -97.815h 15.9269v -38.8213h 15.9269v 13.6212h 15.9269v -6.48065h 15.9269v -6.5569h 15.9269v -22.3806h 15.9269v -22.256h 15.9269v -3.98108h 15.9269v -2.24275h 15.9269v 1.39889h 15.9269v -8.81768h 15.9269v -4.67105h
 15.9269v -2.51392h 15.9269v -1.00815h 15.9269v 6.38909h 15.9269v 1.33766h 15.9269v 8.32576h 15.9269v -0.817332h 15.9269v 5.90673h 15.9269v 5.84537h 15.9269v 21.9236h 15.9269v 17.8591h 15.9269v 8.44534h 15.9269v 11.4497h 15.9269v -15.1821h 15.9269v
 47.0206h 15.9269v 84.0214h 31.8539" fill="none" stroke="#006699" stroke-width="2"/>
<text xml:space="preserve" x="299.133" y="175.388" fill="black" font-size="14.9283" font-family="Helvetica">True Background</text>
<path d="M258.071,172.07h 34.011" fill="none" stroke="#ff0000" stroke-width="2"/>
<path d="M275.077,187.712v -31.2854" fill="none" stroke="#ff0000" stroke-width="2"/>
<text xml:space="preserve" x="299.133" y="229.426" fill="black" font-size="14.9283" font-family="Helvetica">Predict</text>
<path d="M258.071,224.212h 34.011" fill="none" stroke="#006699" stroke-width="2"/>
<path d="M275.077,239.855v -31.2854" fill="none" stroke="#006699" stroke-width="2"/>
<rect x="6.16929" y="278.497" width="555.591" height="262.115" fill="white"/>
<rect x="61.7283" y="278.497" width="477.808" height="209.692" fill="white"/>
<rect x="61.7283" y="278.497" width="477.808" height="209.692" fill="none" stroke="black"/>
<rect x="61.7283" y="278.497" width="477.808" height="209.692" fill="white"/>
<rect x="61.7283" y="278.497" width="477.808" height="209.692" fill="none" stroke="black"/>
<path d="M101.546,371.438v -12.671" fill="none" stroke="black" stroke-width="2"/>
<path d="M101.546,358.767v -12.671" fill="none" stroke="black" stroke-width="2"/>
<path d="M93.5822,358.767h 7.96346" fill="none" stroke="black" stroke-width="2"/>
<path d="M101.546,358.767h 7.96346" fill="none" stroke="black" stroke-width="2"/>
<g stroke="black" stroke-width="1" fill="none">
<line x1="100.546" y1="358.767" x2="101.546" y2="358.767"/>
</g>
<path d="M117.473,351.383v -11.9873" fill="none" stroke="black" stroke-width="2"/>
<path d="M117.473,339.395v -11.9873" fill="none" stroke="black" stroke-width="2"/>
<path d="M109.509,339.395h 7.96346" fill="none" stroke="black" stroke-width="2"/>
<path d="M117.473,339.395h 7.96346" fill="none" stroke="black" stroke-width="2"/>
<g stroke="black" stroke-width="1" fill="none">
<line x1="116.473" y1="339.395" x2="117.473" y2="339.395"/>
</g>
<path d="M133.4,332.654v -13.9399" fill="none" stroke="black" stroke-width="2"/>
<path d="M133.4,318.714v -13.9399" fill="none" stroke="black" stroke-width="2"/>
<path d="M125.436,318.714h 7.96346" fill="none" stroke="black" stroke-width="2"/>
<path d="M133.4,318.714h 7.96346" fill="none" stroke="black" stroke-width="2"/>
<g stroke="black" stroke-width="1" fill="none">
<line x1="132.4" y1="318.714" x2="133.4" y2="318.714"/>
</g>
<path d="M149.326,334.703v -12.8023" fill="none" stroke="black" stroke-width="2"/>
<path d="M149.326,321.9v -12.8023" fill="none" stroke="black" stroke-width="2"/>
<path d="M141.363,321.9h 7.96346" fill="none" stroke="black" stroke-width="2"/>
<path d="M149.326,321.9h 7.96346" fill="none" stroke="black" stroke-width="2"/>
<g stroke="black" stroke-width="1" fill="none">
<line x1="148.326" y1="321.9" x2="149.326" y2="321.9"/>
</g>
<path d="M165.253,328.452v -12.5575" fill="none" stroke="black" stroke-width="2"/>
<path d="M165.253,315.895v -12.5575" fill="none" stroke="black" stroke-width="2"/>
<path d="M157.29,315.895h 7.96346" fill="none" stroke="black" stroke-width="2"/>
<path d="M165.253,315.895h 7.96346" fill="none" stroke="black" stroke-width="2"/>
<g stroke="black" stroke-width="1" fill="none">
<line x1="164.253" y1="315.895" x2="165.253" y2="315.895"/>
</g>
<path d="M181.18,353.181v -10.7162" fill="none" stroke="black" stroke-width="2"/>
<path d="M181.18,342.464v -10.7162" fill="none" stroke="black" stroke-width="2"/>
<path d="M173.217,342.464h 7.96346" fill="none" stroke="black" stroke-width="2"/>
<path d="M181.18,342.464h 7.96346" fill="none" stroke="black" stroke-width="2"/>
<g stroke="black" stroke-width="1" fill="none">
<line x1="180.18" y1="342.464" x2="181.18" y2="342.464"/>
</g>
<path d="M197.107,359.663v -8.23036" fill="none" stroke="black" stroke-width="2"/>
<path d="M197.107,351.433v -8.23036" fill="none" stroke="black" stroke-width="2"/>
<path d="M189.144,351.433h 7.96346" fill="none" stroke="black" stroke-width="2"/>
<path d="M197.107,351.433h 7.96346" fill="none" stroke="black" stroke-width="2"/>
<g stroke="black" stroke-width="1" fill="none">
<line x1="196.107" y1="351.433" x2="197.107" y2="351.433"/>
</g>
<path d="M213.034,377.068v -7.92222" fill="none" stroke="black" stroke-width="2"/>
<path d="M213.034,369.146v -7.92222" fill="none" stroke="black" stroke-width="2"/>
<path d="M205.071,369.146h 7.96346" fill="none" stroke="black" stroke-width="2"/>
<path d="M213.034,369.146h 7.96346" fill="none" stroke="black" stroke-width="2"/>
<g stroke="black" stroke-width="1" fill="none">
<line x1="212.034" y1="369.146" x2="213.034" y2="369.146"/>
</g>
<path d="M228.961,366.733v -8.13653" fill="none" stroke="black" stroke-width="2"/>
<path d="M228.961,358.596v -8.13653" fill="none" stroke="black" stroke-width="2"/>
<path d="M220.998,358.596h 7.96346" fill="none" stroke="black" stroke-width="2"/>
<path d="M228.961,358.596h 7.96346" fill="none" stroke="black" stroke-width="2"/>
<g stroke="black" stroke-width="1" fill="none">
<line x1="227.961" y1="358.596" x2="228.961" y2="358.596"/>
</g>
<path d="M244.888,349.428v -8.79105" fill="none" stroke="black" stroke-width="2"/>
<path d="M244.888,340.637v -8.79105" fill="none" stroke="black" stroke-width="2"/>
<path d="M236.925,340.637h 7.96346" fill="none" stroke="black" stroke-width="2"/>
<path d="M244.888,340.637h 7.96346" fill="none" stroke="black" stroke-width="2"/>
<g stroke="black" stroke-width="1" fill="none">
<line x1="243.888" y1="340.637" x2="244.888" y2="340.637"/>
</g>
<path d="M260.815,367.411v -7.8908" fill="none" stroke="black" stroke-width="2"/>
<path d="M260.815,359.521v -7.8908" fill="none" stroke="black" stroke-width="2"/>
<path d="M252.852,359.521h 7.96346" fill="none" stroke="black" stroke-width="2"/>
<path d="M260.815,359.521h 7.96346" fill="none" stroke="black" stroke-width="2"/>
<g stroke="black" stroke-width="1" fill="none">
<line x1="259.815" y1="359.521" x2="260.815" y2="359.521"/>
</g>
<path d="M276.742,386.235v -6.88154" fill="none" stroke="black" stroke-width="2"/>
<path d="M276.742,379.354v -6.88154" fill="none" stroke="black" stroke-width="2"/>
<path d="M268.778,379.354h 7.96346" fill="none" stroke="black" stroke-width="2"/>
<path d="M276.742,379.354h 7.96346" fill="none" stroke="black" stroke-width="2"/>
<g stroke="black" stroke-width="1" fill="none">
<line x1="275.742" y1="379.354" x2="276.742" y2="379.354"/>
</g>
<path d="M292.669,399.41v -6.22801" fill="none" stroke="black" stroke-width="2"/>
<path d="M292.669,393.182v -6.22801" fill="none" stroke="black" stroke-width="2"/>
<path d="M284.705,393.182h 7.96346" fill="none" stroke="black" stroke-width="2"/>
<path d="M292.669,393.182h 7.96346" fill="none" stroke="black" stroke-width="2"/>
<g stroke="black" stroke-width="1" fill="none">
<line x1="291.669" y1="393.182" x2="292.669" y2="393.182"/>
</g>
<path d="M308.596,405.601v -5.52481" fill="none" stroke="black" stroke-width="2"/>
<path d="M308.596,400.077v -5.52481" fill="none" stroke="black" stroke-width="2"/>
<path d="M300.632,400.077h 7.96346" fill="none" stroke="black" stroke-width="2"/>
<path d="M308.596,400.077h 7.96346" fill="none" stroke="black" stroke-width="2"/>
<g stroke="black" stroke-width="1" fill="none">
<line x1="307.596" y1="400.077" x2="308.596" y2="400.077"/>
</g>
<path d="M324.523,393.025v -6.75967" fill="none" stroke="black" stroke-width="2"/>
<path d="M324.523,386.265v -6.75967" fill="none" stroke="black" stroke-width="2"/>
<path d="M316.559,386.265h 7.96346" fill="none" stroke="black" stroke-width="2"/>
<path d="M324.523,386.265h 7.96346" fill="none" stroke="black" stroke-width="2"/>
<g stroke="black" stroke-width="1" fill="none">
<line x1="323.523" y1="386.265" x2="324.523" y2="386.265"/>
</g>
<path d="M340.45,363.618v -7.97443" fill="none" stroke="black" stroke-width="2"/>
<path d="M340.45,355.644v -7.97443" fill="none" stroke="black" stroke-width="2"/>
<path d="M332.486,355.644h 7.96346" fill="none" stroke="black" stroke-width="2"/>
<path d="M340.45,355.644h 7.96346" fill="none" stroke="black" stroke-width="2"/>
<g stroke="black" stroke-width="1" fill="none">
<line x1="339.45" y1="355.644" x2="340.45" y2="355.644"/>
</g>
<path d="M356.377,364.8v -8.48149" fill="none" stroke="black" stroke-width="2"/>
<path d="M356.377,356.318v -8.48149" fill="none" stroke="black" stroke-width="2"/>
<path d="M348.413,356.318h 7.96346" fill="none" stroke="black" stroke-width="2"/>
<path d="M356.377,356.318h 7.96346" fill="none" stroke="black" stroke-width="2"/>
<g stroke="black" stroke-width="1" fill="none">
<line x1="355.377" y1="356.318" x2="356.377" y2="356.318"/>
</g>
<path d="M372.303,371.774v -7.93685" fill="none" stroke="black" stroke-width="2"/>
<path d="M372.303,363.838v -7.93685" fill="none" stroke="black" stroke-width="2"/>
<path d="M364.34,363.838h 7.96346" fill="none" stroke="black" stroke-width="2"/>
<path d="M372.303,363.838h 7.96346" fill="none" stroke="black" stroke-width="2"/>
<g stroke="black" stroke-width="1" fill="none">
<line x1="371.303" y1="363.838" x2="372.303" y2="363.838"/>
</g>
<path d="M388.23,371.472v -8.34626" fill="none" stroke="black" stroke-width="2"/>
<path d="M388.23,363.126v -8.34626" fill="none" stroke="black" stroke-width="2"/>
<path d="M380.267,363.126h 7.96346" fill="none" stroke="black" stroke-width="2"/>
<path d="M388.23,363.126h 7.96346" fill="none" stroke="black" stroke-width="2"/>
<g stroke="black" stroke-width="1" fill="none">
<line x1="387.23" y1="363.126" x2="388.23" y2="363.126"/>
</g>
<path d="M404.157,351.465v -9.21929" fill="none" stroke="black" stroke-width="2"/>
<path d="M404.157,342.246v -9.21929" fill="none" stroke="black" stroke-width="2"/>
<path d="M396.194,342.246h 7.96346" fill="none" stroke="black" stroke-width="2"/>
<path d="M404.157,342.246h 7.96346" fill="none" stroke="black" stroke-width="2"/>
<g stroke="black" stroke-width="1" fill="none">
<line x1="403.157" y1="342.246" x2="404.157" y2="342.246"/>
</g>
<path d="M420.084,341.139v -10.5714" fill="none" stroke="black" stroke-width="2"/>
<path d="M420.084,330.568v -10.5714" fill="none" stroke="black" stroke-width="2"/>
<path d="M412.121,330.568h 7.96346" fill="none" stroke="black" stroke-width="2"/>
<path d="M420.084,330.568h 7.96346" fill="none" stroke="black" stroke-width="2"/>
<g stroke="black" stroke-width="1" fill="none">
<line x1="419.084" y1="330.568" x2="420.084" y2="330.568"/>
</g>
<path d="M436.011,323.328v -11.6535" fill="none" stroke="black" stroke-width="2"/>
<path d="M436.011,311.675v -11.6535" fill="none" stroke="black" stroke-width="2"/>
<path d="M428.048,311.675h 7.96346" fill="none" stroke="black" stroke-width="2"/>
<path d="M436.011,311.675h 7.96346" fill="none" stroke="black" stroke-width="2"/>
<g stroke="black" stroke-width="1" fill="none">
<line x1="435.011" y1="311.675" x2="436.011" y2="311.675"/>
</g>
<path d="M451.938,332.194v -12.8719" fill="none" stroke="black" stroke-width="2"/>
<path d="M451.938,319.322v -12.8719" fill="none" stroke="black" stroke-width="2"/>
<path d="M443.975,319.322h 7.96346" fill="none" stroke="black" stroke-width="2"/>
<path d="M451.938,319.322h 7.96346" fill="none" stroke="black" stroke-width="2"/>
<g stroke="black" stroke-width="1" fill="none">
<line x1="450.938" y1="319.322" x2="451.938" y2="319.322"/>
</g>
<path d="M467.865,319.945v -15.7313" fill="none" stroke="black" stroke-width="2"/>
<path d="M467.865,304.213v -15.7313" fill="none" stroke="black" stroke-width="2"/>
<path d="M459.902,304.213h 7.96346" fill="none" stroke="black" stroke-width="2"/>
<path d="M467.865,304.213h 7.96346" fill="none" stroke="black" stroke-width="2"/>
<g stroke="black" stroke-width="1" fill="none">
<line x1="466.865" y1="304.213" x2="467.865" y2="304.213"/>
</g>
<path d="M483.792,331.877v -12.2723" fill="none" stroke="black" stroke-width="2"/>
<path d="M483.792,319.605v -12.2723" fill="none" stroke="black" stroke-width="2"/>
<path d="M475.828,319.605h 7.96346" fill="none" stroke="black" stroke-width="2"/>
<path d="M483.792,319.605h 7.96346" fill="none" stroke="black" stroke-width="2"/>
<g stroke="black" stroke-width="1" fill="none">
<line x1="482.792" y1="319.605" x2="483.792" y2="319.605"/>
</g>
<path d="M499.719,364.147v -14.7795" fill="none" stroke="black" stroke-width="2"/>
<path d="M499.719,349.367v -14.7795" fill="none" stroke="black" stroke-width="2"/>
<path d="M491.755,349.367h 7.96346" fill="none" stroke="black" stroke-width="2"/>
<path d="M499.719,349.367h 7.96346" fill="none" stroke="black" stroke-width="2"/>
<g stroke="black" stroke-width="1" fill="none">
<line x1="498.719" y1="349.367" x2="499.719" y2="349.367"/>
</g>
<path d="M64.1174,365.253l 4.77808, -0.0924339l 4.77808, -0.0924339l 4.77808, -0.0924339l 4.77808, -0.0924339l 4.77808, -0.0924339l 4.77808, -0.0924339l 4.77808, -0.0924339l 4.77808, -0.0924339l 4.77808, -0.0924339l 4.77808, -0.0924339l 4.77808,
 -0.0924339l 4.77808, -0.0924339l 4.77808, -0.0924339l 4.77808, -0.0924339l 4.77808, -0.0924339l 4.77808, -0.0924339l 4.77808, -0.0924339l 4.77808, -0.0924339l 4.77808, -0.0924339l 4.77808, -0.0924339l 4.77808, -0.0924339l 4.77808, -0.0924339l
 4.77808, -0.0924339l 4.77808, -0.0924339l 4.77808, -0.0924339l 4.77808, -0.0924339l 4.77808, -0.0924339l 4.77808, -0.0924339l 4.77808, -0.0924339l 4.77808, -0.0924339l 4.77808, -0.0924339l 4.77808, -0.0924339l 4.77808, -0.0924339l 4.77808,
 -0.0924339l 4.77808, -0.0924339l 4.77808, -0.0924339l 4.77808, -0.0924339l 4.77808, -0.0924339l 4.77808, -0.0924339l 4.77808, -0.0924339l 4.77808, -0.0924339l 4.77808, -0.0924339l 4.77808, -0.0924339l 4.77808, -0.0924339l 4.77808, -0.0924339l
 4.77808, -0.0924339l 4.77808, -0.0924339l 4.77808, -0.0924339l 4.77808, -0.0924339" fill="none" stroke="#339966" stroke-width="2"/>
<path d="M298.243,360.723l 4.77808, -0.0924339l 4.77808, -0.0924339l 4.77808, -0.0924339l 4.77808, -0.0924339l 4.77808, -0.0924339l 4.77808, -0.0924339l 4.77808, -0.0924339l 4.77808, -0.0924339l 4.77808, -0.0924339l 4.77808, -0.0924339l 4.77808,
 -0.0924339l 4.77808, -0.0924339l 4.77808, -0.0924339l 4.77808, -0.0924339l 4.77808, -0.0924339l 4.77808, -0.0924339l 4.77808, -0.0924339l 4.77808, -0.0924339l 4.77808, -0.0924339l 4.77808, -0.0924339l 4.77808, -0.0924339l 4.77808, -0.0924339l
 4.77808, -0.0924339l 4.77808, -0.0924339l 4.77808, -0.0924339l 4.77808, -0.0924339l 4.77808, -0.0924339l 4.77808, -0.0924339l 4.77808, -0.0924339l 4.77808, -0.0924339l 4.77808, -0.0924339l 4.77808, -0.0924339l 4.77808, -0.0924339l 4.77808,
 -0.0924339l 4.77808, -0.0924339l 4.77808, -0.0924339l 4.77808, -0.0924339l 4.77808, -0.0924339l 4.77808, -0.0924339l 4.77808, -0.0924339l 4.77808, -0.0924339l 4.77808, -0.0924339l 4.77808, -0.0924339l 4.77808, -0.0924339l 4.77808, -0.0924339l
 4.77808, -0.0924339l 4.77808, -0.0924339l 4.77808, -0.0924339l 4.77808, -0.0924339" fill="none" stroke="#339966" stroke-width="2"/>
<path d="M532.369,356.194l 4.77808, -0.0924339" fill="none" stroke="#339966" stroke-width="2"/>
<path d="M61.7283,488.189h 477.808" fill="none" stroke="black"/>
<path d="M61.7283,481.426v 6.76256" fill="none" stroke="black"/>
<path d="M77.6553,484.807v 3.38128" fill="none" stroke="black"/>
<path d="M93.5822,484.807v 3.38128" fill="none" stroke="black"/>
<path d="M109.509,484.807v 3.38128" fill="none" stroke="black"/>
<path d="M125.436,484.807v 3.38128" fill="none" stroke="black"/>
<path d="M141.363,481.426v 6.76256" fill="none" stroke="black"/>
<path d="M157.29,484.807v 3.38128" fill="none" stroke="black"/>
<path d="M173.217,484.807v 3.38128" fill="none" stroke="black"/>
<path d="M189.144,484.807v 3.38128" fill="none" stroke="black"/>
<path d="M205.071,484.807v 3.38128" fill="none" stroke="black"/>
<path d="M220.998,481.426v 6.76256" fill="none" stroke="black"/>
<path d="M236.925,484.807v 3.38128" fill="none" stroke="black"/>
<path d="M252.852,484.807v 3.38128" fill="none" stroke="black"/>
<path d="M268.778,484.807v 3.38128" fill="none" stroke="black"/>
<path d="M284.705,484.807v 3.38128" fill="none" stroke="black"/>
<path d="M300.632,481.426v 6.76256" fill="none" stroke="black"/>
<path d="M316.559,484.807v 3.38128" fill="none" stroke="black"/>
<path d="M332.486,484.807v 3.38128" fill="none" stroke="black"/>
<path d="M348.413,484.807v 3.38128" fill="none" stroke="black"/>
<path d="M364.34,484.807v 3.38128" fill="none" stroke="black"/>
<path d="M380.267,481.426v 6.76256" fill="none" stroke="black"/>
<path d="M396.194,484.807v 3.38128" fill="none" stroke="black"/>
<path d="M412.121,484.807v 3.38128" fill="none" stroke="black"/>
<path d="M428.048,484.807v 3.38128" fill="none" stroke="black"/>
<path d="M443.975,484.807v 3.38128" fill="none" stroke="black"/>
<path d="M459.902,481.426v 6.76256" fill="none" stroke="black"/>
<path d="M475.828,484.807v 3.38128" fill="none" stroke="black"/>
<path d="M491.755,484.807v 3.38128" fill="none" stroke="black"/>
<path d="M507.682,484.807v 3.38128" fill="none" stroke="black"/>
<path d="M523.609,484.807v 3.38128" fill="none" stroke="black"/>
<path d="M539.536,481.426v 6.76256" fill="none" stroke="black"/>
<text xml:space="preserve" x="60.2266" y="496.774" fill="black" font-size="8.91652" font-family="Helvetica">3</text>
<text xml:space="preserve" x="56.4345" y="496.774" fill="black" font-size="8.91652" font-family="Times">&#8722;</text>
<text xml:space="preserve" x="139.862" y="496.774" fill="black" font-size="8.91652" font-family="Helvetica">2</text>
<text xml:space="preserve" x="136.07" y="496.774" fill="black" font-size="8.91652" font-family="Times">&#8722;</text>
<text xml:space="preserve" x="220.446" y="496.774" fill="black" font-size="8.91652" font-family="Helvetica">1</text>
<text xml:space="preserve" x="215.706" y="496.774" fill="black" font-size="8.91652" font-family="Times">&#8722;</text>
<text xml:space="preserve" x="297.237" y="496.774" fill="black" font-size="8.91652" font-family="Helvetica">0</text>
<text xml:space="preserve" x="377.821" y="496.774" fill="black" font-size="8.91652" font-family="Helvetica">1</text>
<text xml:space="preserve" x="456.508" y="496.774" fill="black" font-size="8.91652" font-family="Helvetica">2</text>
<text xml:space="preserve" x="536.144" y="496.774" fill="black" font-size="8.91652" font-family="Helvetica">3</text>
<text xml:space="preserve" x="531.404" y="516.683" fill="black" font-size="14.9283" font-family="Times">&#0951;</text>
<text xml:space="preserve" x="507.702" y="516.683" fill="black" font-size="14.9283" font-family="Helvetica">Jet </text>
<path d="M61.7283,278.497h 477.808" fill="none" stroke="black"/>
<path d="M61.7283,285.259v -6.76256" fill="none" stroke="black"/>
<path d="M77.6553,281.878v -3.38128" fill="none" stroke="black"/>
<path d="M93.5822,281.878v -3.38128" fill="none" stroke="black"/>
<path d="M109.509,281.878v -3.38128" fill="none" stroke="black"/>
<path d="M125.436,281.878v -3.38128" fill="none" stroke="black"/>
<path d="M141.363,285.259v -6.76256" fill="none" stroke="black"/>
<path d="M157.29,281.878v -3.38128" fill="none" stroke="black"/>
<path d="M173.217,281.878v -3.38128" fill="none" stroke="black"/>
<path d="M189.144,281.878v -3.38128" fill="none" stroke="black"/>
<path d="M205.071,281.878v -3.38128" fill="none" stroke="black"/>
<path d="M220.998,285.259v -6.76256" fill="none" stroke="black"/>
<path d="M236.925,281.878v -3.38128" fill="none" stroke="black"/>
<path d="M252.852,281.878v -3.38128" fill="none" stroke="black"/>
<path d="M268.778,281.878v -3.38128" fill="none" stroke="black"/>
<path d="M284.705,281.878v -3.38128" fill="none" stroke="black"/>
<path d="M300.632,285.259v -6.76256" fill="none" stroke="black"/>
<path d="M316.559,281.878v -3.38128" fill="none" stroke="black"/>
<path d="M332.486,281.878v -3.38128" fill="none" stroke="black"/>
<path d="M348.413,281.878v -3.38128" fill="none" stroke="black"/>
<path d="M364.34,281.878v -3.38128" fill="none" stroke="black"/>
<path d="M380.267,285.259v -6.76256" fill="none" stroke="black"/>
<path d="M396.194,281.878v -3.38128" fill="none" stroke="black"/>
<path d="M412.121,281.878v -3.38128" fill="none" stroke="black"/>
<path d="M428.048,281.878v -3.38128" fill="none" stroke="black"/>
<path d="M443.975,281.878v -3.38128" fill="none" stroke="black"/>
<path d="M459.902,285.259v -6.76256" fill="none" stroke="black"/>
<path d="M475.828,281.878v -3.38128" fill="none" stroke="black"/>
<path d="M491.755,281.878v -3.38128" fill="none" stroke="black"/>
<path d="M507.682,281.878v -3.38128" fill="none" stroke="black"/>
<path d="M523.609,281.878v -3.38128" fill="none" stroke="black"/>
<path d="M539.536,285.259v -6.76256" fill="none" stroke="black"/>
<path d="M61.7283,488.189v -209.692" fill="none" stroke="black"/>
<path d="M75.0625,488.189h -13.3342" fill="none" stroke="black"/>
<path d="M68.3954,481.036h -6.66709" fill="none" stroke="black"/>
<path d="M68.3954,473.883h -6.66709" fill="none" stroke="black"/>
<path d="M68.3954,466.729h -6.66709" fill="none" stroke="black"/>
<path d="M75.0625,459.577h -13.3342" fill="none" stroke="black"/>
<path d="M68.3954,452.423h -6.66709" fill="none" stroke="black"/>
<path d="M68.3954,445.27h -6.66709" fill="none" stroke="black"/>
<path d="M68.3954,438.117h -6.66709" fill="none" stroke="black"/>
<path d="M75.0625,430.964h -13.3342" fill="none" stroke="black"/>
<path d="M68.3954,423.811h -6.66709" fill="none" stroke="black"/>
<path d="M68.3954,416.658h -6.66709" fill="none" stroke="black"/>
<path d="M68.3954,409.505h -6.66709" fill="none" stroke="black"/>
<path d="M75.0625,402.352h -13.3342" fill="none" stroke="black"/>
<path d="M68.3954,395.199h -6.66709" fill="none" stroke="black"/>
<path d="M68.3954,388.046h -6.66709" fill="none" stroke="black"/>
<path d="M68.3954,380.893h -6.66709" fill="none" stroke="black"/>
<path d="M75.0625,373.74h -13.3342" fill="none" stroke="black"/>
<path d="M68.3954,366.587h -6.66709" fill="none" stroke="black"/>
<path d="M68.3954,359.434h -6.66709" fill="none" stroke="black"/>
<path d="M68.3954,352.281h -6.66709" fill="none" stroke="black"/>
<path d="M75.0625,345.128h -13.3342" fill="none" stroke="black"/>
<path d="M68.3954,337.975h -6.66709" fill="none" stroke="black"/>
<path d="M68.3954,330.822h -6.66709" fill="none" stroke="black"/>
<path d="M68.3954,323.669h -6.66709" fill="none" stroke="black"/>
<path d="M75.0625,316.516h -13.3342" fill="none" stroke="black"/>
<path d="M68.3954,309.363h -6.66709" fill="none" stroke="black"/>
<path d="M68.3954,302.21h -6.66709" fill="none" stroke="black"/>
<path d="M68.3954,295.057h -6.66709" fill="none" stroke="black"/>
<path d="M75.0625,287.904h -13.3342" fill="none" stroke="black"/>
<path d="M75.0625,287.904h -13.3342" fill="none" stroke="black"/>
<path d="M68.3954,280.751h -6.66709" fill="none" stroke="black"/>
<text xml:space="preserve" x="53.5904" y="491.086" fill="black" font-size="8.91652" font-family="Helvetica">0</text>
<text xml:space="preserve" x="46.006" y="462.645" fill="black" font-size="8.91652" font-family="Helvetica">0.2</text>
<text xml:space="preserve" x="46.006" y="434.203" fill="black" font-size="8.91652" font-family="Helvetica">0.4</text>
<text xml:space="preserve" x="46.006" y="405.762" fill="black" font-size="8.91652" font-family="Helvetica">0.6</text>
<text xml:space="preserve" x="46.006" y="377.321" fill="black" font-size="8.91652" font-family="Helvetica">0.8</text>
<text xml:space="preserve" x="54.5384" y="348.879" fill="black" font-size="8.91652" font-family="Helvetica">1</text>
<text xml:space="preserve" x="46.006" y="319.49" fill="black" font-size="8.91652" font-family="Helvetica">1.2</text>
<text xml:space="preserve" x="46.006" y="291.049" fill="black" font-size="8.91652" font-family="Helvetica">1.4</text>
<g transform="rotate(-90,19.4608,458.852)">
<text xml:space="preserve" x="19.4608" y="458.852" fill="black" font-size="14.9283" font-family="Helvetica">True Background / Predicted</text>
</g>
<text xml:space="preserve" x="321.886" y="416.19" fill="black" font-size="14.9283" font-family="Helvetica">Fitting function: par0 + par1*x</text>
<text xml:space="preserve" x="334.211" y="442.736" fill="black" font-size="14.9283" font-family="Helvetica">par0 : 0.891312 +- 0.0122636</text>
<text xml:space="preserve" x="334.211" y="468.333" fill="black" font-size="14.9283" font-family="Helvetica">par1 : 0.0107686 +- 0.0105979</text></svg>
