<?xml version="1.0" standalone="no"?>
<svg width="567.429" height="546.572" viewBox="0 0 567.429 546.572" xmlns="http://www.w3.org/2000/svg" shape-rendering="crispEdges">
<title>
/home/kuanyu/Documents/CMS/Background_Estimate/fake_rate/top_emu/plot/CT_Top(emu)_bJetPt_MET_rg2.svg
</title>
<desc>
Creator: ROOT Version 6.26/04
CreationDate: Fri Oct 28 16:39:31 2022</desc>
<defs>
</defs>
<rect x="0.5" y="0" width="566.929" height="546.072" fill="none"/>
<rect x="6.16929" y="5.46072" width="555.591" height="262.115" fill="none"/>
<rect x="61.7283" y="8.08187" width="477.808" height="259.493" fill="none"/>
<rect x="61.7283" y="8.08187" width="477.808" height="259.493" fill="none" stroke="black"/>
<rect x="61.7283" y="8.08187" width="477.808" height="259.493" fill="none"/>
<rect x="61.7283" y="8.08187" width="477.808" height="259.493" fill="none" stroke="black"/>
<path d="M76.0626,29.3953v -0.734476" fill="none" stroke="#ff0000" stroke-width="2"/>
<path d="M76.0626,28.6608v -0.717518" fill="none" stroke="#ff0000" stroke-width="2"/>
<path d="M71.2845,28.6608h 4.77808" fill="none" stroke="#ff0000" stroke-width="2"/>
<path d="M76.0626,28.6608h 4.77808" fill="none" stroke="#ff0000" stroke-width="2"/>
<g stroke="black" stroke-width="1" fill="none">
<line x1="75.0626" y1="28.6608" x2="76.0626" y2="28.6608"/>
</g>
<path d="M85.6187,43.5529v -0.926373" fill="none" stroke="#ff0000" stroke-width="2"/>
<path d="M85.6187,42.6265v -0.899557" fill="none" stroke="#ff0000" stroke-width="2"/>
<path d="M80.8407,42.6265h 4.77808" fill="none" stroke="#ff0000" stroke-width="2"/>
<path d="M85.6187,42.6265h 4.77808" fill="none" stroke="#ff0000" stroke-width="2"/>
<g stroke="black" stroke-width="1" fill="none">
<line x1="84.6187" y1="42.6265" x2="85.6187" y2="42.6265"/>
</g>
<path d="M95.1749,60.317v -1.20603" fill="none" stroke="#ff0000" stroke-width="2"/>
<path d="M95.1749,59.1109v -1.16098" fill="none" stroke="#ff0000" stroke-width="2"/>
<path d="M90.3968,59.1109h 4.77808" fill="none" stroke="#ff0000" stroke-width="2"/>
<path d="M95.1749,59.1109h 4.77808" fill="none" stroke="#ff0000" stroke-width="2"/>
<g stroke="black" stroke-width="1" fill="none">
<line x1="94.1749" y1="59.1109" x2="95.1749" y2="59.1109"/>
</g>
<path d="M104.731,79.3476v -1.6876" fill="none" stroke="#ff0000" stroke-width="2"/>
<path d="M104.731,77.66v -1.60066" fill="none" stroke="#ff0000" stroke-width="2"/>
<path d="M99.953,77.66h 4.77808" fill="none" stroke="#ff0000" stroke-width="2"/>
<path d="M104.731,77.66h 4.77808" fill="none" stroke="#ff0000" stroke-width="2"/>
<g stroke="black" stroke-width="1" fill="none">
<line x1="103.731" y1="77.66" x2="104.731" y2="77.66"/>
</g>
<path d="M119.065,81.0639v -1.60201" fill="none" stroke="#ff0000" stroke-width="2"/>
<path d="M119.065,79.4619v -1.52346" fill="none" stroke="#ff0000" stroke-width="2"/>
<path d="M109.509,79.4619h 9.55616" fill="none" stroke="#ff0000" stroke-width="2"/>
<path d="M119.065,79.4619h 9.55616" fill="none" stroke="#ff0000" stroke-width="2"/>
<g stroke="black" stroke-width="1" fill="none">
<line x1="118.065" y1="79.4619" x2="119.065" y2="79.4619"/>
</g>
<path d="M138.178,122.578v -3.40448" fill="none" stroke="#ff0000" stroke-width="2"/>
<path d="M138.178,119.174v -3.06809" fill="none" stroke="#ff0000" stroke-width="2"/>
<path d="M128.621,119.174h 9.55616" fill="none" stroke="#ff0000" stroke-width="2"/>
<path d="M138.178,119.174h 9.55616" fill="none" stroke="#ff0000" stroke-width="2"/>
<g stroke="black" stroke-width="1" fill="none">
<line x1="137.178" y1="119.174" x2="138.178" y2="119.174"/>
</g>
<path d="M160.475,144.717v -6.49069" fill="none" stroke="#ff0000" stroke-width="2"/>
<path d="M160.475,138.227v -5.36652" fill="none" stroke="#ff0000" stroke-width="2"/>
<path d="M147.734,138.227h 12.7415" fill="none" stroke="#ff0000" stroke-width="2"/>
<path d="M160.475,138.227h 12.7415" fill="none" stroke="#ff0000" stroke-width="2"/>
<g stroke="black" stroke-width="1" fill="none">
<line x1="159.475" y1="138.227" x2="160.475" y2="138.227"/>
</g>
<path d="M189.144,215.894v -13.3498" fill="none" stroke="#ff0000" stroke-width="2"/>
<path d="M189.144,202.545v -9.30833" fill="none" stroke="#ff0000" stroke-width="2"/>
<path d="M173.217,202.545h 15.9269" fill="none" stroke="#ff0000" stroke-width="2"/>
<path d="M189.144,202.545h 15.9269" fill="none" stroke="#ff0000" stroke-width="2"/>
<g stroke="black" stroke-width="1" fill="none">
<line x1="188.144" y1="202.545" x2="189.144" y2="202.545"/>
</g>
<path d="M372.303,246.034v -21.5512" fill="none" stroke="#ff0000" stroke-width="2"/>
<path d="M372.303,224.482v -12.6043" fill="none" stroke="#ff0000" stroke-width="2"/>
<path d="M205.071,224.482h 167.233" fill="none" stroke="#ff0000" stroke-width="2"/>
<path d="M372.303,224.482h 167.233" fill="none" stroke="#ff0000" stroke-width="2"/>
<g stroke="black" stroke-width="1" fill="none">
<line x1="371.303" y1="224.482" x2="372.303" y2="224.482"/>
</g>
<path d="M61.7283,267.575h 477.808" fill="none" stroke="black"/>
<path d="M61.7283,260.813v 6.76256" fill="none" stroke="black"/>
<path d="M77.6553,264.194v 3.38128" fill="none" stroke="black"/>
<path d="M93.5822,264.194v 3.38128" fill="none" stroke="black"/>
<path d="M109.509,264.194v 3.38128" fill="none" stroke="black"/>
<path d="M125.436,260.813v 6.76256" fill="none" stroke="black"/>
<path d="M141.363,264.194v 3.38128" fill="none" stroke="black"/>
<path d="M157.29,264.194v 3.38128" fill="none" stroke="black"/>
<path d="M173.217,264.194v 3.38128" fill="none" stroke="black"/>
<path d="M189.144,260.813v 6.76256" fill="none" stroke="black"/>
<path d="M205.071,264.194v 3.38128" fill="none" stroke="black"/>
<path d="M220.998,264.194v 3.38128" fill="none" stroke="black"/>
<path d="M236.925,264.194v 3.38128" fill="none" stroke="black"/>
<path d="M252.852,260.813v 6.76256" fill="none" stroke="black"/>
<path d="M268.778,264.194v 3.38128" fill="none" stroke="black"/>
<path d="M284.705,264.194v 3.38128" fill="none" stroke="black"/>
<path d="M300.632,264.194v 3.38128" fill="none" stroke="black"/>
<path d="M316.559,260.813v 6.76256" fill="none" stroke="black"/>
<path d="M332.486,264.194v 3.38128" fill="none" stroke="black"/>
<path d="M348.413,264.194v 3.38128" fill="none" stroke="black"/>
<path d="M364.34,264.194v 3.38128" fill="none" stroke="black"/>
<path d="M380.267,260.813v 6.76256" fill="none" stroke="black"/>
<path d="M396.194,264.194v 3.38128" fill="none" stroke="black"/>
<path d="M412.121,264.194v 3.38128" fill="none" stroke="black"/>
<path d="M428.048,264.194v 3.38128" fill="none" stroke="black"/>
<path d="M443.975,260.813v 6.76256" fill="none" stroke="black"/>
<path d="M459.902,264.194v 3.38128" fill="none" stroke="black"/>
<path d="M475.828,264.194v 3.38128" fill="none" stroke="black"/>
<path d="M491.755,264.194v 3.38128" fill="none" stroke="black"/>
<path d="M507.682,260.813v 6.76256" fill="none" stroke="black"/>
<path d="M507.682,260.813v 6.76256" fill="none" stroke="black"/>
<path d="M523.609,264.194v 3.38128" fill="none" stroke="black"/>
<path d="M61.7283,267.575v -259.493" fill="none" stroke="black"/>
<path d="M69.9789,263.963h -8.25052" fill="none" stroke="black"/>
<path d="M78.2294,260.689h -16.501" fill="none" stroke="black"/>
<text xml:space="preserve" x="54.5384" y="259.764" fill="black" font-size="6.11102" font-family="Helvetica">1</text>
<text xml:space="preserve" x="50.7462" y="259.764" fill="black" font-size="6.11102" font-family="Times">&#8722;</text>
<text xml:space="preserve" x="41.2658" y="264.504" fill="black" font-size="8.91652" font-family="Helvetica">10</text>
<path d="M69.9789,239.147h -8.25052" fill="none" stroke="black"/>
<path d="M69.9789,226.546h -8.25052" fill="none" stroke="black"/>
<path d="M69.9789,217.606h -8.25052" fill="none" stroke="black"/>
<path d="M69.9789,210.671h -8.25052" fill="none" stroke="black"/>
<path d="M69.9789,205.004h -8.25052" fill="none" stroke="black"/>
<path d="M69.9789,200.214h -8.25052" fill="none" stroke="black"/>
<path d="M69.9789,196.064h -8.25052" fill="none" stroke="black"/>
<path d="M69.9789,192.403h -8.25052" fill="none" stroke="black"/>
<path d="M78.2294,189.129h -16.501" fill="none" stroke="black"/>
<text xml:space="preserve" x="53.5904" y="192.453" fill="black" font-size="8.91652" font-family="Helvetica">1</text>
<path d="M69.9789,167.587h -8.25052" fill="none" stroke="black"/>
<path d="M69.9789,154.986h -8.25052" fill="none" stroke="black"/>
<path d="M69.9789,146.045h -8.25052" fill="none" stroke="black"/>
<path d="M69.9789,139.111h -8.25052" fill="none" stroke="black"/>
<path d="M69.9789,133.444h -8.25052" fill="none" stroke="black"/>
<path d="M69.9789,128.654h -8.25052" fill="none" stroke="black"/>
<path d="M69.9789,124.504h -8.25052" fill="none" stroke="black"/>
<path d="M69.9789,120.843h -8.25052" fill="none" stroke="black"/>
<path d="M78.2294,117.569h -16.501" fill="none" stroke="black"/>
<text xml:space="preserve" x="47.9021" y="121.349" fill="black" font-size="8.91652" font-family="Helvetica">10</text>
<path d="M69.9789,96.0271h -8.25052" fill="none" stroke="black"/>
<path d="M69.9789,83.4259h -8.25052" fill="none" stroke="black"/>
<path d="M69.9789,74.4853h -8.25052" fill="none" stroke="black"/>
<path d="M69.9789,67.5504h -8.25052" fill="none" stroke="black"/>
<path d="M69.9789,61.8842h -8.25052" fill="none" stroke="black"/>
<path d="M69.9789,57.0935h -8.25052" fill="none" stroke="black"/>
<path d="M69.9789,52.9436h -8.25052" fill="none" stroke="black"/>
<path d="M69.9789,49.2831h -8.25052" fill="none" stroke="black"/>
<path d="M78.2294,46.0087h -16.501" fill="none" stroke="black"/>
<text xml:space="preserve" x="53.5904" y="45.506" fill="black" font-size="6.11102" font-family="Helvetica">2</text>
<text xml:space="preserve" x="44.1099" y="50.2462" fill="black" font-size="8.91652" font-family="Helvetica">10</text>
<path d="M69.9789,24.4669h -8.25052" fill="none" stroke="black"/>
<path d="M69.9789,11.8658h -8.25052" fill="none" stroke="black"/>
<g transform="rotate(-90,18.5128,35.0776)">
<text xml:space="preserve" x="18.5128" y="35.0776" fill="black" font-size="14.9283" font-family="Helvetica">nJet</text>
</g>
<path d="M76.0626,22.8802v -0.308716" fill="none" stroke="#006699" stroke-width="2"/>
<path d="M76.0626,22.5715v -0.305679" fill="none" stroke="#006699" stroke-width="2"/>
<g stroke="black" stroke-width="1" fill="none">
<line x1="75.0626" y1="22.5715" x2="76.0626" y2="22.5715"/>
</g>
<path d="M85.6187,47.2728v -0.409536" fill="none" stroke="#006699" stroke-width="2"/>
<path d="M85.6187,46.8632v -0.40421" fill="none" stroke="#006699" stroke-width="2"/>
<g stroke="black" stroke-width="1" fill="none">
<line x1="84.6187" y1="46.8632" x2="85.6187" y2="46.8632"/>
</g>
<path d="M95.1749,69.1481v -0.547839" fill="none" stroke="#006699" stroke-width="2"/>
<path d="M95.1749,68.6003v -0.538349" fill="none" stroke="#006699" stroke-width="2"/>
<g stroke="black" stroke-width="1" fill="none">
<line x1="94.1749" y1="68.6003" x2="95.1749" y2="68.6003"/>
</g>
<path d="M104.731,90.2882v -0.748124" fill="none" stroke="#006699" stroke-width="2"/>
<path d="M104.731,89.5401v -0.730537" fill="none" stroke="#006699" stroke-width="2"/>
<g stroke="black" stroke-width="1" fill="none">
<line x1="103.731" y1="89.5401" x2="104.731" y2="89.5401"/>
</g>
<path d="M119.065,97.964v -0.834672" fill="none" stroke="#006699" stroke-width="2"/>
<path d="M119.065,97.1293v -0.81284" fill="none" stroke="#006699" stroke-width="2"/>
<g stroke="black" stroke-width="1" fill="none">
<line x1="118.065" y1="97.1293" x2="119.065" y2="97.1293"/>
</g>
<path d="M138.178,139.867v -1.50677" fill="none" stroke="#006699" stroke-width="2"/>
<path d="M138.178,138.36v -1.43708" fill="none" stroke="#006699" stroke-width="2"/>
<g stroke="black" stroke-width="1" fill="none">
<line x1="137.178" y1="138.36" x2="138.178" y2="138.36"/>
</g>
<path d="M160.475,174.092v -3.36415" fill="none" stroke="#006699" stroke-width="2"/>
<path d="M160.475,170.728v -3.0353" fill="none" stroke="#006699" stroke-width="2"/>
<g stroke="black" stroke-width="1" fill="none">
<line x1="159.475" y1="170.728" x2="160.475" y2="170.728"/>
</g>
<path d="M189.144,218.354v -5.63346" fill="none" stroke="#006699" stroke-width="2"/>
<path d="M189.144,212.72v -4.7673" fill="none" stroke="#006699" stroke-width="2"/>
<g stroke="black" stroke-width="1" fill="none">
<line x1="188.144" y1="212.72" x2="189.144" y2="212.72"/>
</g>
<path d="M372.303,264.91v -9.62354" fill="none" stroke="#006699" stroke-width="2"/>
<path d="M372.303,255.287v -7.33755" fill="none" stroke="#006699" stroke-width="2"/>
<g stroke="black" stroke-width="1" fill="none">
<line x1="371.303" y1="255.287" x2="372.303" y2="255.287"/>
</g>
<path d="M61.7283,267.575h 9.55616v -245.004h 9.55616v 24.2917h 9.55616v 21.7371h 9.55616v 20.9398h 9.55616v 7.58923h 19.1123v 41.2306h 19.1123v 32.3678h 25.4831v 41.9925h 31.8539v 42.5666h 334.466" fill="none" stroke="#006699" stroke-width="2"/>
<text xml:space="preserve" x="353.172" y="78.6875" fill="black" font-size="14.9283" font-family="Helvetica">| &lt; 2</text>
<text xml:space="preserve" x="345.587" y="78.6875" fill="black" font-size="14.9283" font-family="Times">&#0951;</text>
<text xml:space="preserve" x="260.264" y="78.6875" fill="black" font-size="14.9283" font-family="Helvetica">b flavor , 1 &lt; |</text>
<text xml:space="preserve" x="303.873" y="113.765" fill="black" font-size="14.9283" font-family="Helvetica">True Background</text>
<path d="M263.477,110.307h 34.0299" fill="none" stroke="#ff0000" stroke-width="2"/>
<path d="M280.492,120.791v -20.9692" fill="none" stroke="#ff0000" stroke-width="2"/>
<text xml:space="preserve" x="303.873" y="150.739" fill="black" font-size="14.9283" font-family="Helvetica">Predict</text>
<path d="M263.477,145.255h 34.0299" fill="none" stroke="#006699" stroke-width="2"/>
<path d="M280.492,155.74v -20.9692" fill="none" stroke="#006699" stroke-width="2"/>
<rect x="6.16929" y="278.497" width="555.591" height="262.115" fill="none"/>
<rect x="61.7283" y="278.497" width="477.808" height="209.692" fill="none"/>
<rect x="61.7283" y="278.497" width="477.808" height="209.692" fill="none" stroke="black"/>
<rect x="61.7283" y="278.497" width="477.808" height="209.692" fill="none"/>
<rect x="61.7283" y="278.497" width="477.808" height="209.692" fill="none" stroke="black"/>
<path d="M76.0626,404.184v -2.18591" fill="none" stroke="black" stroke-width="2"/>
<path d="M76.0626,401.998v -2.18591" fill="none" stroke="black" stroke-width="2"/>
<path d="M71.2845,401.998h 4.77808" fill="none" stroke="black" stroke-width="2"/>
<path d="M76.0626,401.998h 4.77808" fill="none" stroke="black" stroke-width="2"/>
<g stroke="black" stroke-width="1" fill="none">
<line x1="75.0626" y1="401.998" x2="76.0626" y2="401.998"/>
</g>
<path d="M85.6187,371.893v -3.86354" fill="none" stroke="black" stroke-width="2"/>
<path d="M85.6187,368.03v -3.86354" fill="none" stroke="black" stroke-width="2"/>
<path d="M80.8407,368.03h 4.77808" fill="none" stroke="black" stroke-width="2"/>
<path d="M85.6187,368.03h 4.77808" fill="none" stroke="black" stroke-width="2"/>
<g stroke="black" stroke-width="1" fill="none">
<line x1="84.6187" y1="368.03" x2="85.6187" y2="368.03"/>
</g>
<path d="M95.1749,351.863v -5.9592" fill="none" stroke="black" stroke-width="2"/>
<path d="M95.1749,345.904v -5.9592" fill="none" stroke="black" stroke-width="2"/>
<path d="M90.3968,345.904h 4.77808" fill="none" stroke="black" stroke-width="2"/>
<path d="M95.1749,345.904h 4.77808" fill="none" stroke="black" stroke-width="2"/>
<g stroke="black" stroke-width="1" fill="none">
<line x1="94.1749" y1="345.904" x2="95.1749" y2="345.904"/>
</g>
<path d="M104.731,343.432v -8.90611" fill="none" stroke="black" stroke-width="2"/>
<path d="M104.731,334.526v -8.90611" fill="none" stroke="black" stroke-width="2"/>
<path d="M99.953,334.526h 4.77808" fill="none" stroke="black" stroke-width="2"/>
<path d="M104.731,334.526h 4.77808" fill="none" stroke="black" stroke-width="2"/>
<g stroke="black" stroke-width="1" fill="none">
<line x1="103.731" y1="334.526" x2="104.731" y2="334.526"/>
</g>
<path d="M119.065,313.589v -10.5149" fill="none" stroke="black" stroke-width="2"/>
<path d="M119.065,303.074v -10.5149" fill="none" stroke="black" stroke-width="2"/>
<path d="M109.509,303.074h 9.55616" fill="none" stroke="black" stroke-width="2"/>
<path d="M119.065,303.074h 9.55616" fill="none" stroke="black" stroke-width="2"/>
<g stroke="black" stroke-width="1" fill="none">
<line x1="118.065" y1="303.074" x2="119.065" y2="303.074"/>
</g>
<path d="M138.178,315.97v -22.1684" fill="none" stroke="black" stroke-width="2"/>
<path d="M138.178,293.802v -15.3051" fill="none" stroke="black" stroke-width="2"/>
<path d="M128.621,293.802h 9.55616" fill="none" stroke="black" stroke-width="2"/>
<path d="M138.178,293.802h 9.55616" fill="none" stroke="black" stroke-width="2"/>
<g stroke="black" stroke-width="1" fill="none">
<line x1="137.178" y1="293.802" x2="138.178" y2="293.802"/>
</g>
<path d="M189.144,398.956v -56.2296" fill="none" stroke="black" stroke-width="2"/>
<path d="M189.144,342.727v -56.2296" fill="none" stroke="black" stroke-width="2"/>
<path d="M173.217,342.727h 15.9269" fill="none" stroke="black" stroke-width="2"/>
<path d="M189.144,342.727h 15.9269" fill="none" stroke="black" stroke-width="2"/>
<g stroke="black" stroke-width="1" fill="none">
<line x1="188.144" y1="342.727" x2="189.144" y2="342.727"/>
</g>
<path d="M64.1174,423.006l 4.77808, -10.113l 4.77808, -10.113l 4.77808, -10.113l 4.77808, -10.113l 4.77808, -10.113l 4.77808, -10.113l 4.77808, -10.113l 4.77808, -10.113l 4.77808, -10.113l 4.77808, -10.113l 4.77808, -10.113l 4.77808, -10.113l
 4.77808, -10.113l 4.77808, -10.113l 1.38294, -2.92704" fill="none" stroke="#339966" stroke-width="2"/>
<path d="M61.7283,488.189h 477.808" fill="none" stroke="black"/>
<path d="M61.7283,481.426v 6.76256" fill="none" stroke="black"/>
<path d="M77.6553,484.807v 3.38128" fill="none" stroke="black"/>
<path d="M93.5822,484.807v 3.38128" fill="none" stroke="black"/>
<path d="M109.509,484.807v 3.38128" fill="none" stroke="black"/>
<path d="M125.436,481.426v 6.76256" fill="none" stroke="black"/>
<path d="M141.363,484.807v 3.38128" fill="none" stroke="black"/>
<path d="M157.29,484.807v 3.38128" fill="none" stroke="black"/>
<path d="M173.217,484.807v 3.38128" fill="none" stroke="black"/>
<path d="M189.144,481.426v 6.76256" fill="none" stroke="black"/>
<path d="M205.071,484.807v 3.38128" fill="none" stroke="black"/>
<path d="M220.998,484.807v 3.38128" fill="none" stroke="black"/>
<path d="M236.925,484.807v 3.38128" fill="none" stroke="black"/>
<path d="M252.852,481.426v 6.76256" fill="none" stroke="black"/>
<path d="M268.778,484.807v 3.38128" fill="none" stroke="black"/>
<path d="M284.705,484.807v 3.38128" fill="none" stroke="black"/>
<path d="M300.632,484.807v 3.38128" fill="none" stroke="black"/>
<path d="M316.559,481.426v 6.76256" fill="none" stroke="black"/>
<path d="M332.486,484.807v 3.38128" fill="none" stroke="black"/>
<path d="M348.413,484.807v 3.38128" fill="none" stroke="black"/>
<path d="M364.34,484.807v 3.38128" fill="none" stroke="black"/>
<path d="M380.267,481.426v 6.76256" fill="none" stroke="black"/>
<path d="M396.194,484.807v 3.38128" fill="none" stroke="black"/>
<path d="M412.121,484.807v 3.38128" fill="none" stroke="black"/>
<path d="M428.048,484.807v 3.38128" fill="none" stroke="black"/>
<path d="M443.975,481.426v 6.76256" fill="none" stroke="black"/>
<path d="M459.902,484.807v 3.38128" fill="none" stroke="black"/>
<path d="M475.828,484.807v 3.38128" fill="none" stroke="black"/>
<path d="M491.755,484.807v 3.38128" fill="none" stroke="black"/>
<path d="M507.682,481.426v 6.76256" fill="none" stroke="black"/>
<path d="M507.682,481.426v 6.76256" fill="none" stroke="black"/>
<path d="M523.609,484.807v 3.38128" fill="none" stroke="black"/>
<text xml:space="preserve" x="58.3306" y="496.774" fill="black" font-size="8.91652" font-family="Helvetica">0</text>
<text xml:space="preserve" x="117.109" y="496.774" fill="black" font-size="8.91652" font-family="Helvetica">200</text>
<text xml:space="preserve" x="180.628" y="496.774" fill="black" font-size="8.91652" font-family="Helvetica">400</text>
<text xml:space="preserve" x="245.095" y="496.774" fill="black" font-size="8.91652" font-family="Helvetica">600</text>
<text xml:space="preserve" x="308.614" y="496.774" fill="black" font-size="8.91652" font-family="Helvetica">800</text>
<text xml:space="preserve" x="370.236" y="496.774" fill="black" font-size="8.91652" font-family="Helvetica">1000</text>
<text xml:space="preserve" x="433.755" y="496.774" fill="black" font-size="8.91652" font-family="Helvetica">1200</text>
<text xml:space="preserve" x="497.274" y="496.774" fill="black" font-size="8.91652" font-family="Helvetica">1400</text>
<text xml:space="preserve" x="497.274" y="518.579" fill="black" font-size="14.9283" font-family="Helvetica">Jet PT</text>
<path d="M61.7283,278.497h 477.808" fill="none" stroke="black"/>
<path d="M61.7283,285.259v -6.76256" fill="none" stroke="black"/>
<path d="M77.6553,281.878v -3.38128" fill="none" stroke="black"/>
<path d="M93.5822,281.878v -3.38128" fill="none" stroke="black"/>
<path d="M109.509,281.878v -3.38128" fill="none" stroke="black"/>
<path d="M125.436,285.259v -6.76256" fill="none" stroke="black"/>
<path d="M141.363,281.878v -3.38128" fill="none" stroke="black"/>
<path d="M157.29,281.878v -3.38128" fill="none" stroke="black"/>
<path d="M173.217,281.878v -3.38128" fill="none" stroke="black"/>
<path d="M189.144,285.259v -6.76256" fill="none" stroke="black"/>
<path d="M205.071,281.878v -3.38128" fill="none" stroke="black"/>
<path d="M220.998,281.878v -3.38128" fill="none" stroke="black"/>
<path d="M236.925,281.878v -3.38128" fill="none" stroke="black"/>
<path d="M252.852,285.259v -6.76256" fill="none" stroke="black"/>
<path d="M268.778,281.878v -3.38128" fill="none" stroke="black"/>
<path d="M284.705,281.878v -3.38128" fill="none" stroke="black"/>
<path d="M300.632,281.878v -3.38128" fill="none" stroke="black"/>
<path d="M316.559,285.259v -6.76256" fill="none" stroke="black"/>
<path d="M332.486,281.878v -3.38128" fill="none" stroke="black"/>
<path d="M348.413,281.878v -3.38128" fill="none" stroke="black"/>
<path d="M364.34,281.878v -3.38128" fill="none" stroke="black"/>
<path d="M380.267,285.259v -6.76256" fill="none" stroke="black"/>
<path d="M396.194,281.878v -3.38128" fill="none" stroke="black"/>
<path d="M412.121,281.878v -3.38128" fill="none" stroke="black"/>
<path d="M428.048,281.878v -3.38128" fill="none" stroke="black"/>
<path d="M443.975,285.259v -6.76256" fill="none" stroke="black"/>
<path d="M459.902,281.878v -3.38128" fill="none" stroke="black"/>
<path d="M475.828,281.878v -3.38128" fill="none" stroke="black"/>
<path d="M491.755,281.878v -3.38128" fill="none" stroke="black"/>
<path d="M507.682,285.259v -6.76256" fill="none" stroke="black"/>
<path d="M507.682,285.259v -6.76256" fill="none" stroke="black"/>
<path d="M523.609,281.878v -3.38128" fill="none" stroke="black"/>
<path d="M61.7283,488.189v -209.692" fill="none" stroke="black"/>
<path d="M75.0625,488.189h -13.3342" fill="none" stroke="black"/>
<path d="M68.3954,482.946h -6.66709" fill="none" stroke="black"/>
<path d="M68.3954,477.704h -6.66709" fill="none" stroke="black"/>
<path d="M68.3954,472.462h -6.66709" fill="none" stroke="black"/>
<path d="M75.0625,467.219h -13.3342" fill="none" stroke="black"/>
<path d="M68.3954,461.977h -6.66709" fill="none" stroke="black"/>
<path d="M68.3954,456.735h -6.66709" fill="none" stroke="black"/>
<path d="M68.3954,451.492h -6.66709" fill="none" stroke="black"/>
<path d="M75.0625,446.25h -13.3342" fill="none" stroke="black"/>
<path d="M68.3954,441.008h -6.66709" fill="none" stroke="black"/>
<path d="M68.3954,435.766h -6.66709" fill="none" stroke="black"/>
<path d="M68.3954,430.523h -6.66709" fill="none" stroke="black"/>
<path d="M75.0625,425.281h -13.3342" fill="none" stroke="black"/>
<path d="M68.3954,420.039h -6.66709" fill="none" stroke="black"/>
<path d="M68.3954,414.796h -6.66709" fill="none" stroke="black"/>
<path d="M68.3954,409.554h -6.66709" fill="none" stroke="black"/>
<path d="M75.0625,404.312h -13.3342" fill="none" stroke="black"/>
<path d="M68.3954,399.07h -6.66709" fill="none" stroke="black"/>
<path d="M68.3954,393.827h -6.66709" fill="none" stroke="black"/>
<path d="M68.3954,388.585h -6.66709" fill="none" stroke="black"/>
<path d="M75.0625,383.343h -13.3342" fill="none" stroke="black"/>
<path d="M68.3954,378.1h -6.66709" fill="none" stroke="black"/>
<path d="M68.3954,372.858h -6.66709" fill="none" stroke="black"/>
<path d="M68.3954,367.616h -6.66709" fill="none" stroke="black"/>
<path d="M75.0625,362.374h -13.3342" fill="none" stroke="black"/>
<path d="M68.3954,357.131h -6.66709" fill="none" stroke="black"/>
<path d="M68.3954,351.889h -6.66709" fill="none" stroke="black"/>
<path d="M68.3954,346.647h -6.66709" fill="none" stroke="black"/>
<path d="M75.0625,341.404h -13.3342" fill="none" stroke="black"/>
<path d="M68.3954,336.162h -6.66709" fill="none" stroke="black"/>
<path d="M68.3954,330.92h -6.66709" fill="none" stroke="black"/>
<path d="M68.3954,325.677h -6.66709" fill="none" stroke="black"/>
<path d="M75.0625,320.435h -13.3342" fill="none" stroke="black"/>
<path d="M68.3954,315.193h -6.66709" fill="none" stroke="black"/>
<path d="M68.3954,309.951h -6.66709" fill="none" stroke="black"/>
<path d="M68.3954,304.708h -6.66709" fill="none" stroke="black"/>
<path d="M75.0625,299.466h -13.3342" fill="none" stroke="black"/>
<path d="M68.3954,294.224h -6.66709" fill="none" stroke="black"/>
<path d="M68.3954,288.981h -6.66709" fill="none" stroke="black"/>
<path d="M68.3954,283.739h -6.66709" fill="none" stroke="black"/>
<path d="M75.0625,278.497h -13.3342" fill="none" stroke="black"/>
<text xml:space="preserve" x="53.5904" y="491.086" fill="black" font-size="8.91652" font-family="Helvetica">0</text>
<text xml:space="preserve" x="46.006" y="470.229" fill="black" font-size="8.91652" font-family="Helvetica">0.2</text>
<text xml:space="preserve" x="46.006" y="449.372" fill="black" font-size="8.91652" font-family="Helvetica">0.4</text>
<text xml:space="preserve" x="46.006" y="428.515" fill="black" font-size="8.91652" font-family="Helvetica">0.6</text>
<text xml:space="preserve" x="46.006" y="407.658" fill="black" font-size="8.91652" font-family="Helvetica">0.8</text>
<text xml:space="preserve" x="54.5384" y="386.801" fill="black" font-size="8.91652" font-family="Helvetica">1</text>
<text xml:space="preserve" x="46.006" y="365.944" fill="black" font-size="8.91652" font-family="Helvetica">1.2</text>
<text xml:space="preserve" x="46.006" y="345.087" fill="black" font-size="8.91652" font-family="Helvetica">1.4</text>
<text xml:space="preserve" x="46.006" y="323.282" fill="black" font-size="8.91652" font-family="Helvetica">1.6</text>
<text xml:space="preserve" x="46.006" y="302.425" fill="black" font-size="8.91652" font-family="Helvetica">1.8</text>
<text xml:space="preserve" x="53.5904" y="281.568" fill="black" font-size="8.91652" font-family="Helvetica">2</text>
<g transform="rotate(-90,19.4608,458.852)">
<text xml:space="preserve" x="19.4608" y="458.852" fill="black" font-size="14.9283" font-family="Helvetica">True Background / Predicted</text>
</g>
<rect x="339.524" y="409.554" width="194.457" height="52.4229" fill="none" stroke="black"/>
<path d="M339.524,461.977h 194.457" fill="none" stroke="black"/>
<path d="M533.98,461.977v -52.4229" fill="none" stroke="black"/>
<path d="M533.98,409.554h -194.457" fill="none" stroke="black"/>
<path d="M339.524,409.554v 52.4229" fill="none" stroke="black"/>
<text xml:space="preserve" x="343.691" y="428.515" fill="black" font-size="14.9283" font-family="Helvetica">Fitting function</text>
<text xml:space="preserve" x="387.301" y="454.112" fill="black" font-size="14.9283" font-family="Helvetica">c0+c1*x</text>
<path d="M346.816,448.871h 34.0299" fill="none" stroke="#339966" stroke-width="2"/></svg>
