<?xml version="1.0" standalone="no"?>
<svg width="567.429" height="546.572" viewBox="0 0 567.429 546.572" xmlns="http://www.w3.org/2000/svg" shape-rendering="crispEdges">
<title>
/home/kuanyu/Documents/CMS/Background_Estimate/fake_rate/top_emu/plot/CT_Top(emu)_JetEta_dileppT_LO_SLO.svg
</title>
<desc>
Creator: ROOT Version 6.26/04
CreationDate: Fri Nov 11 16:13:25 2022</desc>
<defs>
</defs>
<rect x="0.5" y="0" width="566.929" height="546.072" fill="white"/>
<rect x="6.16929" y="5.46072" width="555.591" height="262.115" fill="white"/>
<rect x="61.7283" y="8.08187" width="477.808" height="259.493" fill="white"/>
<rect x="61.7283" y="8.08187" width="477.808" height="259.493" fill="none" stroke="black"/>
<rect x="61.7283" y="8.08187" width="477.808" height="259.493" fill="white"/>
<rect x="61.7283" y="8.08187" width="477.808" height="259.493" fill="none" stroke="black"/>
<path d="M101.546,205.341v -11.5696" fill="none" stroke="#ff0000" stroke-width="2"/>
<path d="M101.546,193.771v -10.2475" fill="none" stroke="#ff0000" stroke-width="2"/>
<path d="M93.5822,193.771h 7.96346" fill="none" stroke="#ff0000" stroke-width="2"/>
<path d="M101.546,193.771h 7.96346" fill="none" stroke="#ff0000" stroke-width="2"/>
<g stroke="black" stroke-width="1" fill="none">
<line x1="100.546" y1="193.771" x2="101.546" y2="193.771"/>
</g>
<path d="M117.473,132.32v -9.29153" fill="none" stroke="#ff0000" stroke-width="2"/>
<path d="M117.473,123.028v -8.41953" fill="none" stroke="#ff0000" stroke-width="2"/>
<path d="M109.509,123.028h 7.96346" fill="none" stroke="#ff0000" stroke-width="2"/>
<path d="M117.473,123.028h 7.96346" fill="none" stroke="#ff0000" stroke-width="2"/>
<g stroke="black" stroke-width="1" fill="none">
<line x1="116.473" y1="123.028" x2="117.473" y2="123.028"/>
</g>
<path d="M133.4,140.897v -10.2679" fill="none" stroke="#ff0000" stroke-width="2"/>
<path d="M133.4,130.629v -9.21325" fill="none" stroke="#ff0000" stroke-width="2"/>
<path d="M125.436,130.629h 7.96346" fill="none" stroke="#ff0000" stroke-width="2"/>
<path d="M133.4,130.629h 7.96346" fill="none" stroke="#ff0000" stroke-width="2"/>
<g stroke="black" stroke-width="1" fill="none">
<line x1="132.4" y1="130.629" x2="133.4" y2="130.629"/>
</g>
<path d="M149.326,116.679v -8.32354" fill="none" stroke="#ff0000" stroke-width="2"/>
<path d="M149.326,108.355v -7.61695" fill="none" stroke="#ff0000" stroke-width="2"/>
<path d="M141.363,108.355h 7.96346" fill="none" stroke="#ff0000" stroke-width="2"/>
<path d="M149.326,108.355h 7.96346" fill="none" stroke="#ff0000" stroke-width="2"/>
<g stroke="black" stroke-width="1" fill="none">
<line x1="148.326" y1="108.355" x2="149.326" y2="108.355"/>
</g>
<path d="M165.253,114.586v -7.95524" fill="none" stroke="#ff0000" stroke-width="2"/>
<path d="M165.253,106.63v -7.3074" fill="none" stroke="#ff0000" stroke-width="2"/>
<path d="M157.29,106.63h 7.96346" fill="none" stroke="#ff0000" stroke-width="2"/>
<path d="M165.253,106.63h 7.96346" fill="none" stroke="#ff0000" stroke-width="2"/>
<g stroke="black" stroke-width="1" fill="none">
<line x1="164.253" y1="106.63" x2="165.253" y2="106.63"/>
</g>
<path d="M181.18,109.555v -8.40549" fill="none" stroke="#ff0000" stroke-width="2"/>
<path d="M181.18,101.15v -7.68551" fill="none" stroke="#ff0000" stroke-width="2"/>
<path d="M173.217,101.15h 7.96346" fill="none" stroke="#ff0000" stroke-width="2"/>
<path d="M181.18,101.15h 7.96346" fill="none" stroke="#ff0000" stroke-width="2"/>
<g stroke="black" stroke-width="1" fill="none">
<line x1="180.18" y1="101.15" x2="181.18" y2="101.15"/>
</g>
<path d="M197.107,95.5736v -6.31327" fill="none" stroke="#ff0000" stroke-width="2"/>
<path d="M197.107,89.2604v -5.89837" fill="none" stroke="#ff0000" stroke-width="2"/>
<path d="M189.144,89.2604h 7.96346" fill="none" stroke="#ff0000" stroke-width="2"/>
<path d="M197.107,89.2604h 7.96346" fill="none" stroke="#ff0000" stroke-width="2"/>
<g stroke="black" stroke-width="1" fill="none">
<line x1="196.107" y1="89.2604" x2="197.107" y2="89.2604"/>
</g>
<path d="M213.034,100.48v -7.21333" fill="none" stroke="#ff0000" stroke-width="2"/>
<path d="M213.034,93.267v -6.67666" fill="none" stroke="#ff0000" stroke-width="2"/>
<path d="M205.071,93.267h 7.96346" fill="none" stroke="#ff0000" stroke-width="2"/>
<path d="M213.034,93.267h 7.96346" fill="none" stroke="#ff0000" stroke-width="2"/>
<g stroke="black" stroke-width="1" fill="none">
<line x1="212.034" y1="93.267" x2="213.034" y2="93.267"/>
</g>
<path d="M228.961,89.7264v -6.72103" fill="none" stroke="#ff0000" stroke-width="2"/>
<path d="M228.961,83.0054v -6.25277" fill="none" stroke="#ff0000" stroke-width="2"/>
<path d="M220.998,83.0054h 7.96346" fill="none" stroke="#ff0000" stroke-width="2"/>
<path d="M228.961,83.0054h 7.96346" fill="none" stroke="#ff0000" stroke-width="2"/>
<g stroke="black" stroke-width="1" fill="none">
<line x1="227.961" y1="83.0054" x2="228.961" y2="83.0054"/>
</g>
<path d="M244.888,77.807v -6.38446" fill="none" stroke="#ff0000" stroke-width="2"/>
<path d="M244.888,71.4226v -5.96046" fill="none" stroke="#ff0000" stroke-width="2"/>
<path d="M236.925,71.4226h 7.96346" fill="none" stroke="#ff0000" stroke-width="2"/>
<path d="M244.888,71.4226h 7.96346" fill="none" stroke="#ff0000" stroke-width="2"/>
<g stroke="black" stroke-width="1" fill="none">
<line x1="243.888" y1="71.4226" x2="244.888" y2="71.4226"/>
</g>
<path d="M260.815,87.2826v -7.01157" fill="none" stroke="#ff0000" stroke-width="2"/>
<path d="M260.815,80.2711v -6.50346" fill="none" stroke="#ff0000" stroke-width="2"/>
<path d="M252.852,80.2711h 7.96346" fill="none" stroke="#ff0000" stroke-width="2"/>
<path d="M260.815,80.2711h 7.96346" fill="none" stroke="#ff0000" stroke-width="2"/>
<g stroke="black" stroke-width="1" fill="none">
<line x1="259.815" y1="80.2711" x2="260.815" y2="80.2711"/>
</g>
<path d="M276.742,97.2544v -7.27635" fill="none" stroke="#ff0000" stroke-width="2"/>
<path d="M276.742,89.978v -6.73062" fill="none" stroke="#ff0000" stroke-width="2"/>
<path d="M268.778,89.978h 7.96346" fill="none" stroke="#ff0000" stroke-width="2"/>
<path d="M276.742,89.978h 7.96346" fill="none" stroke="#ff0000" stroke-width="2"/>
<g stroke="black" stroke-width="1" fill="none">
<line x1="275.742" y1="89.978" x2="276.742" y2="89.978"/>
</g>
<path d="M292.669,108.033v -7.57567" fill="none" stroke="#ff0000" stroke-width="2"/>
<path d="M292.669,100.457v -6.98591" fill="none" stroke="#ff0000" stroke-width="2"/>
<path d="M284.705,100.457h 7.96346" fill="none" stroke="#ff0000" stroke-width="2"/>
<path d="M292.669,100.457h 7.96346" fill="none" stroke="#ff0000" stroke-width="2"/>
<g stroke="black" stroke-width="1" fill="none">
<line x1="291.669" y1="100.457" x2="292.669" y2="100.457"/>
</g>
<path d="M308.596,104.776v -6.63766" fill="none" stroke="#ff0000" stroke-width="2"/>
<path d="M308.596,98.1384v -6.18055" fill="none" stroke="#ff0000" stroke-width="2"/>
<path d="M300.632,98.1384h 7.96346" fill="none" stroke="#ff0000" stroke-width="2"/>
<path d="M308.596,98.1384h 7.96346" fill="none" stroke="#ff0000" stroke-width="2"/>
<g stroke="black" stroke-width="1" fill="none">
<line x1="307.596" y1="98.1384" x2="308.596" y2="98.1384"/>
</g>
<path d="M324.523,104.764v -7.17058" fill="none" stroke="#ff0000" stroke-width="2"/>
<path d="M324.523,97.5938v -6.64002" fill="none" stroke="#ff0000" stroke-width="2"/>
<path d="M316.559,97.5938h 7.96346" fill="none" stroke="#ff0000" stroke-width="2"/>
<path d="M324.523,97.5938h 7.96346" fill="none" stroke="#ff0000" stroke-width="2"/>
<g stroke="black" stroke-width="1" fill="none">
<line x1="323.523" y1="97.5938" x2="324.523" y2="97.5938"/>
</g>
<path d="M340.45,79.1927v -6.76444" fill="none" stroke="#ff0000" stroke-width="2"/>
<path d="M340.45,72.4283v -6.29032" fill="none" stroke="#ff0000" stroke-width="2"/>
<path d="M332.486,72.4283h 7.96346" fill="none" stroke="#ff0000" stroke-width="2"/>
<path d="M340.45,72.4283h 7.96346" fill="none" stroke="#ff0000" stroke-width="2"/>
<g stroke="black" stroke-width="1" fill="none">
<line x1="339.45" y1="72.4283" x2="340.45" y2="72.4283"/>
</g>
<path d="M356.377,85.7535v -6.76861" fill="none" stroke="#ff0000" stroke-width="2"/>
<path d="M356.377,78.9849v -6.29393" fill="none" stroke="#ff0000" stroke-width="2"/>
<path d="M348.413,78.9849h 7.96346" fill="none" stroke="#ff0000" stroke-width="2"/>
<path d="M356.377,78.9849h 7.96346" fill="none" stroke="#ff0000" stroke-width="2"/>
<g stroke="black" stroke-width="1" fill="none">
<line x1="355.377" y1="78.9849" x2="356.377" y2="78.9849"/>
</g>
<path d="M372.303,92.9325v -7.06273" fill="none" stroke="#ff0000" stroke-width="2"/>
<path d="M372.303,85.8698v -6.54745" fill="none" stroke="#ff0000" stroke-width="2"/>
<path d="M364.34,85.8698h 7.96346" fill="none" stroke="#ff0000" stroke-width="2"/>
<path d="M372.303,85.8698h 7.96346" fill="none" stroke="#ff0000" stroke-width="2"/>
<g stroke="black" stroke-width="1" fill="none">
<line x1="371.303" y1="85.8698" x2="372.303" y2="85.8698"/>
</g>
<path d="M388.23,99.6043v -7.17256" fill="none" stroke="#ff0000" stroke-width="2"/>
<path d="M388.23,92.4317v -6.64172" fill="none" stroke="#ff0000" stroke-width="2"/>
<path d="M380.267,92.4317h 7.96346" fill="none" stroke="#ff0000" stroke-width="2"/>
<path d="M388.23,92.4317h 7.96346" fill="none" stroke="#ff0000" stroke-width="2"/>
<g stroke="black" stroke-width="1" fill="none">
<line x1="387.23" y1="92.4317" x2="388.23" y2="92.4317"/>
</g>
<path d="M404.157,90.9637v -6.7746" fill="none" stroke="#ff0000" stroke-width="2"/>
<path d="M404.157,84.1891v -6.2991" fill="none" stroke="#ff0000" stroke-width="2"/>
<path d="M396.194,84.1891h 7.96346" fill="none" stroke="#ff0000" stroke-width="2"/>
<path d="M404.157,84.1891h 7.96346" fill="none" stroke="#ff0000" stroke-width="2"/>
<g stroke="black" stroke-width="1" fill="none">
<line x1="403.157" y1="84.1891" x2="404.157" y2="84.1891"/>
</g>
<path d="M420.084,112.729v -7.82517" fill="none" stroke="#ff0000" stroke-width="2"/>
<path d="M420.084,104.904v -7.19752" fill="none" stroke="#ff0000" stroke-width="2"/>
<path d="M412.121,104.904h 7.96346" fill="none" stroke="#ff0000" stroke-width="2"/>
<path d="M420.084,104.904h 7.96346" fill="none" stroke="#ff0000" stroke-width="2"/>
<g stroke="black" stroke-width="1" fill="none">
<line x1="419.084" y1="104.904" x2="420.084" y2="104.904"/>
</g>
<path d="M436.011,110.491v -7.14429" fill="none" stroke="#ff0000" stroke-width="2"/>
<path d="M436.011,103.346v -6.61748" fill="none" stroke="#ff0000" stroke-width="2"/>
<path d="M428.048,103.346h 7.96346" fill="none" stroke="#ff0000" stroke-width="2"/>
<path d="M436.011,103.346h 7.96346" fill="none" stroke="#ff0000" stroke-width="2"/>
<g stroke="black" stroke-width="1" fill="none">
<line x1="435.011" y1="103.346" x2="436.011" y2="103.346"/>
</g>
<path d="M451.938,133.378v -8.61032" fill="none" stroke="#ff0000" stroke-width="2"/>
<path d="M451.938,124.768v -7.85637" fill="none" stroke="#ff0000" stroke-width="2"/>
<path d="M443.975,124.768h 7.96346" fill="none" stroke="#ff0000" stroke-width="2"/>
<path d="M451.938,124.768h 7.96346" fill="none" stroke="#ff0000" stroke-width="2"/>
<g stroke="black" stroke-width="1" fill="none">
<line x1="450.938" y1="124.768" x2="451.938" y2="124.768"/>
</g>
<path d="M467.865,136.608v -9.19184" fill="none" stroke="#ff0000" stroke-width="2"/>
<path d="M467.865,127.416v -8.3376" fill="none" stroke="#ff0000" stroke-width="2"/>
<path d="M459.902,127.416h 7.96346" fill="none" stroke="#ff0000" stroke-width="2"/>
<path d="M467.865,127.416h 7.96346" fill="none" stroke="#ff0000" stroke-width="2"/>
<g stroke="black" stroke-width="1" fill="none">
<line x1="466.865" y1="127.416" x2="467.865" y2="127.416"/>
</g>
<path d="M483.792,136.924v -8.81507" fill="none" stroke="#ff0000" stroke-width="2"/>
<path d="M483.792,128.109v -8.02646" fill="none" stroke="#ff0000" stroke-width="2"/>
<path d="M475.828,128.109h 7.96346" fill="none" stroke="#ff0000" stroke-width="2"/>
<path d="M483.792,128.109h 7.96346" fill="none" stroke="#ff0000" stroke-width="2"/>
<g stroke="black" stroke-width="1" fill="none">
<line x1="482.792" y1="128.109" x2="483.792" y2="128.109"/>
</g>
<path d="M499.719,195.724v -12.1408" fill="none" stroke="#ff0000" stroke-width="2"/>
<path d="M499.719,183.584v -10.6929" fill="none" stroke="#ff0000" stroke-width="2"/>
<path d="M491.755,183.584h 7.96346" fill="none" stroke="#ff0000" stroke-width="2"/>
<path d="M499.719,183.584h 7.96346" fill="none" stroke="#ff0000" stroke-width="2"/>
<g stroke="black" stroke-width="1" fill="none">
<line x1="498.719" y1="183.584" x2="499.719" y2="183.584"/>
</g>
<path d="M61.7283,267.575h 477.808" fill="none" stroke="black"/>
<path d="M61.7283,260.813v 6.76256" fill="none" stroke="black"/>
<path d="M77.6553,264.194v 3.38128" fill="none" stroke="black"/>
<path d="M93.5822,264.194v 3.38128" fill="none" stroke="black"/>
<path d="M109.509,264.194v 3.38128" fill="none" stroke="black"/>
<path d="M125.436,264.194v 3.38128" fill="none" stroke="black"/>
<path d="M141.363,260.813v 6.76256" fill="none" stroke="black"/>
<path d="M157.29,264.194v 3.38128" fill="none" stroke="black"/>
<path d="M173.217,264.194v 3.38128" fill="none" stroke="black"/>
<path d="M189.144,264.194v 3.38128" fill="none" stroke="black"/>
<path d="M205.071,264.194v 3.38128" fill="none" stroke="black"/>
<path d="M220.998,260.813v 6.76256" fill="none" stroke="black"/>
<path d="M236.925,264.194v 3.38128" fill="none" stroke="black"/>
<path d="M252.852,264.194v 3.38128" fill="none" stroke="black"/>
<path d="M268.778,264.194v 3.38128" fill="none" stroke="black"/>
<path d="M284.705,264.194v 3.38128" fill="none" stroke="black"/>
<path d="M300.632,260.813v 6.76256" fill="none" stroke="black"/>
<path d="M316.559,264.194v 3.38128" fill="none" stroke="black"/>
<path d="M332.486,264.194v 3.38128" fill="none" stroke="black"/>
<path d="M348.413,264.194v 3.38128" fill="none" stroke="black"/>
<path d="M364.34,264.194v 3.38128" fill="none" stroke="black"/>
<path d="M380.267,260.813v 6.76256" fill="none" stroke="black"/>
<path d="M396.194,264.194v 3.38128" fill="none" stroke="black"/>
<path d="M412.121,264.194v 3.38128" fill="none" stroke="black"/>
<path d="M428.048,264.194v 3.38128" fill="none" stroke="black"/>
<path d="M443.975,264.194v 3.38128" fill="none" stroke="black"/>
<path d="M459.902,260.813v 6.76256" fill="none" stroke="black"/>
<path d="M475.828,264.194v 3.38128" fill="none" stroke="black"/>
<path d="M491.755,264.194v 3.38128" fill="none" stroke="black"/>
<path d="M507.682,264.194v 3.38128" fill="none" stroke="black"/>
<path d="M523.609,264.194v 3.38128" fill="none" stroke="black"/>
<path d="M539.536,260.813v 6.76256" fill="none" stroke="black"/>
<path d="M61.7283,267.575v -259.493" fill="none" stroke="black"/>
<path d="M69.9789,247.012h -8.25052" fill="none" stroke="black"/>
<path d="M69.9789,221.182h -8.25052" fill="none" stroke="black"/>
<path d="M69.9789,201.147h -8.25052" fill="none" stroke="black"/>
<path d="M69.9789,184.777h -8.25052" fill="none" stroke="black"/>
<path d="M69.9789,170.937h -8.25052" fill="none" stroke="black"/>
<path d="M69.9789,158.948h -8.25052" fill="none" stroke="black"/>
<path d="M69.9789,148.372h -8.25052" fill="none" stroke="black"/>
<path d="M78.2294,138.913h -16.501" fill="none" stroke="black"/>
<text xml:space="preserve" x="47.9021" y="142.206" fill="black" font-size="8.91652" font-family="Helvetica">10</text>
<path d="M69.9789,76.6778h -8.25052" fill="none" stroke="black"/>
<path d="M69.9789,40.2728h -8.25052" fill="none" stroke="black"/>
<path d="M69.9789,14.4431h -8.25052" fill="none" stroke="black"/>
<g transform="rotate(-90,23.253,52.1423)">
<text xml:space="preserve" x="23.253" y="52.1423" fill="black" font-size="14.9283" font-family="Helvetica">nEvent</text>
</g>
<path d="M101.546,186.685v -5.5997" fill="none" stroke="#006699" stroke-width="2"/>
<path d="M101.546,181.086v -5.27087" fill="none" stroke="#006699" stroke-width="2"/>
<g stroke="black" stroke-width="1" fill="none">
<line x1="100.546" y1="181.086" x2="101.546" y2="181.086"/>
</g>
<path d="M117.473,149.269v -3.72445" fill="none" stroke="#006699" stroke-width="2"/>
<path d="M117.473,145.544v -3.57609" fill="none" stroke="#006699" stroke-width="2"/>
<g stroke="black" stroke-width="1" fill="none">
<line x1="116.473" y1="145.544" x2="117.473" y2="145.544"/>
</g>
<path d="M133.4,158.96v -4.22902" fill="none" stroke="#006699" stroke-width="2"/>
<path d="M133.4,154.731v -4.03875" fill="none" stroke="#006699" stroke-width="2"/>
<g stroke="black" stroke-width="1" fill="none">
<line x1="132.4" y1="154.731" x2="133.4" y2="154.731"/>
</g>
<path d="M149.326,145.07v -3.52656" fill="none" stroke="#006699" stroke-width="2"/>
<path d="M149.326,141.544v -3.39326" fill="none" stroke="#006699" stroke-width="2"/>
<g stroke="black" stroke-width="1" fill="none">
<line x1="148.326" y1="141.544" x2="149.326" y2="141.544"/>
</g>
<path d="M165.253,145.661v -2.89301" fill="none" stroke="#006699" stroke-width="2"/>
<path d="M165.253,142.768v -2.8027" fill="none" stroke="#006699" stroke-width="2"/>
<g stroke="black" stroke-width="1" fill="none">
<line x1="164.253" y1="142.768" x2="165.253" y2="142.768"/>
</g>
<path d="M181.18,121.886v -2.79863" fill="none" stroke="#006699" stroke-width="2"/>
<path d="M181.18,119.088v -2.71403" fill="none" stroke="#006699" stroke-width="2"/>
<g stroke="black" stroke-width="1" fill="none">
<line x1="180.18" y1="119.088" x2="181.18" y2="119.088"/>
</g>
<path d="M197.107,104.113v -2.6009" fill="none" stroke="#006699" stroke-width="2"/>
<path d="M197.107,101.512v -2.52767" fill="none" stroke="#006699" stroke-width="2"/>
<g stroke="black" stroke-width="1" fill="none">
<line x1="196.107" y1="101.512" x2="197.107" y2="101.512"/>
</g>
<path d="M213.034,94.0966v -2.45882" fill="none" stroke="#006699" stroke-width="2"/>
<path d="M213.034,91.6378v -2.39328" fill="none" stroke="#006699" stroke-width="2"/>
<g stroke="black" stroke-width="1" fill="none">
<line x1="212.034" y1="91.6378" x2="213.034" y2="91.6378"/>
</g>
<path d="M228.961,94.1578v -2.53339" fill="none" stroke="#006699" stroke-width="2"/>
<path d="M228.961,91.6244v -2.46387" fill="none" stroke="#006699" stroke-width="2"/>
<g stroke="black" stroke-width="1" fill="none">
<line x1="227.961" y1="91.6244" x2="228.961" y2="91.6244"/>
</g>
<path d="M244.888,96.4049v -2.23748" fill="none" stroke="#006699" stroke-width="2"/>
<path d="M244.888,94.1674v -2.18307" fill="none" stroke="#006699" stroke-width="2"/>
<g stroke="black" stroke-width="1" fill="none">
<line x1="243.888" y1="94.1674" x2="244.888" y2="94.1674"/>
</g>
<path d="M260.815,88.213v -2.20958" fill="none" stroke="#006699" stroke-width="2"/>
<path d="M260.815,86.0034v -2.15651" fill="none" stroke="#006699" stroke-width="2"/>
<g stroke="black" stroke-width="1" fill="none">
<line x1="259.815" y1="86.0034" x2="260.815" y2="86.0034"/>
</g>
<path d="M276.742,83.7726v -2.30089" fill="none" stroke="#006699" stroke-width="2"/>
<path d="M276.742,81.4717v -2.24339" fill="none" stroke="#006699" stroke-width="2"/>
<g stroke="black" stroke-width="1" fill="none">
<line x1="275.742" y1="81.4717" x2="276.742" y2="81.4717"/>
</g>
<path d="M292.669,82.6961v -2.14142" fill="none" stroke="#006699" stroke-width="2"/>
<path d="M292.669,80.5547v -2.09153" fill="none" stroke="#006699" stroke-width="2"/>
<g stroke="black" stroke-width="1" fill="none">
<line x1="291.669" y1="80.5547" x2="292.669" y2="80.5547"/>
</g>
<path d="M308.596,75.9959v -2.11661" fill="none" stroke="#006699" stroke-width="2"/>
<path d="M308.596,73.8793v -2.06786" fill="none" stroke="#006699" stroke-width="2"/>
<g stroke="black" stroke-width="1" fill="none">
<line x1="307.596" y1="73.8793" x2="308.596" y2="73.8793"/>
</g>
<path d="M324.523,86.6899v -2.2121" fill="none" stroke="#006699" stroke-width="2"/>
<path d="M324.523,84.4778v -2.15891" fill="none" stroke="#006699" stroke-width="2"/>
<g stroke="black" stroke-width="1" fill="none">
<line x1="323.523" y1="84.4778" x2="324.523" y2="84.4778"/>
</g>
<path d="M340.45,87.4462v -2.24504" fill="none" stroke="#006699" stroke-width="2"/>
<path d="M340.45,85.2011v -2.19027" fill="none" stroke="#006699" stroke-width="2"/>
<g stroke="black" stroke-width="1" fill="none">
<line x1="339.45" y1="85.2011" x2="340.45" y2="85.2011"/>
</g>
<path d="M356.377,93.8617v -2.29577" fill="none" stroke="#006699" stroke-width="2"/>
<path d="M356.377,91.5659v -2.23853" fill="none" stroke="#006699" stroke-width="2"/>
<g stroke="black" stroke-width="1" fill="none">
<line x1="355.377" y1="91.5659" x2="356.377" y2="91.5659"/>
</g>
<path d="M372.303,95.4228v -2.30478" fill="none" stroke="#006699" stroke-width="2"/>
<path d="M372.303,93.118v -2.24709" fill="none" stroke="#006699" stroke-width="2"/>
<g stroke="black" stroke-width="1" fill="none">
<line x1="371.303" y1="93.118" x2="372.303" y2="93.118"/>
</g>
<path d="M388.23,100.769v -2.74448" fill="none" stroke="#006699" stroke-width="2"/>
<path d="M388.23,98.0242v -2.66307" fill="none" stroke="#006699" stroke-width="2"/>
<g stroke="black" stroke-width="1" fill="none">
<line x1="387.23" y1="98.0242" x2="388.23" y2="98.0242"/>
</g>
<path d="M404.157,102.919v -2.65032" fill="none" stroke="#006699" stroke-width="2"/>
<path d="M404.157,100.268v -2.57433" fill="none" stroke="#006699" stroke-width="2"/>
<g stroke="black" stroke-width="1" fill="none">
<line x1="403.157" y1="100.268" x2="404.157" y2="100.268"/>
</g>
<path d="M420.084,128.43v -2.81937" fill="none" stroke="#006699" stroke-width="2"/>
<path d="M420.084,125.61v -2.73353" fill="none" stroke="#006699" stroke-width="2"/>
<g stroke="black" stroke-width="1" fill="none">
<line x1="419.084" y1="125.61" x2="420.084" y2="125.61"/>
</g>
<path d="M436.011,149.041v -3.37202" fill="none" stroke="#006699" stroke-width="2"/>
<path d="M436.011,145.669v -3.24995" fill="none" stroke="#006699" stroke-width="2"/>
<g stroke="black" stroke-width="1" fill="none">
<line x1="435.011" y1="145.669" x2="436.011" y2="145.669"/>
</g>
<path d="M451.938,148.843v -3.77751" fill="none" stroke="#006699" stroke-width="2"/>
<path d="M451.938,145.065v -3.62498" fill="none" stroke="#006699" stroke-width="2"/>
<g stroke="black" stroke-width="1" fill="none">
<line x1="450.938" y1="145.065" x2="451.938" y2="145.065"/>
</g>
<path d="M467.865,164.632v -3.58045" fill="none" stroke="#006699" stroke-width="2"/>
<path d="M467.865,161.052v -3.44313" fill="none" stroke="#006699" stroke-width="2"/>
<g stroke="black" stroke-width="1" fill="none">
<line x1="466.865" y1="161.052" x2="467.865" y2="161.052"/>
</g>
<path d="M483.792,151.472v -4.2393" fill="none" stroke="#006699" stroke-width="2"/>
<path d="M483.792,147.232v -4.04813" fill="none" stroke="#006699" stroke-width="2"/>
<g stroke="black" stroke-width="1" fill="none">
<line x1="482.792" y1="147.232" x2="483.792" y2="147.232"/>
</g>
<path d="M499.719,188.297v -5.49237" fill="none" stroke="#006699" stroke-width="2"/>
<path d="M499.719,182.805v -5.17567" fill="none" stroke="#006699" stroke-width="2"/>
<g stroke="black" stroke-width="1" fill="none">
<line x1="498.719" y1="182.805" x2="499.719" y2="182.805"/>
</g>
<path d="M61.7283,267.575h 31.8539v -86.4898h 15.9269v -35.5414h 15.9269v 9.18719h 15.9269v -13.1875h 15.9269v 1.22397h 15.9269v -23.6801h 15.9269v -17.576h 15.9269v -9.87386h 15.9269v -0.0133663h 15.9269v 2.54305h 15.9269v -8.16404h 15.9269v
 -4.53167h 15.9269v -0.917073h 15.9269v -6.67532h 15.9269v 10.5985h 15.9269v 0.723283h 15.9269v 6.36484h 15.9269v 1.55204h 15.9269v 4.90619h 15.9269v 2.24407h 15.9269v 25.3421h 15.9269v 20.0587h 15.9269v -0.603827h 15.9269v 15.9867h 15.9269v
 -13.8195h 15.9269v 35.5722h 15.9269v 84.7708h 31.8539" fill="none" stroke="#006699" stroke-width="2"/>
<text xml:space="preserve" x="319.042" y="175.388" fill="black" font-size="14.9283" font-family="Helvetica">True Background</text>
<path d="M278.172,171.803h 34.0425" fill="none" stroke="#ff0000" stroke-width="2"/>
<path d="M295.193,187.513v -31.4202" fill="none" stroke="#ff0000" stroke-width="2"/>
<text xml:space="preserve" x="319.042" y="229.426" fill="black" font-size="14.9283" font-family="Helvetica">Predict</text>
<path d="M278.172,224.17h 34.0425" fill="none" stroke="#006699" stroke-width="2"/>
<path d="M295.193,239.88v -31.4202" fill="none" stroke="#006699" stroke-width="2"/>
<rect x="6.16929" y="278.497" width="555.591" height="262.115" fill="white"/>
<rect x="61.4761" y="279.477" width="477.696" height="209.468" fill="white"/>
<rect x="61.4761" y="279.477" width="477.696" height="209.468" fill="none" stroke="black"/>
<rect x="61.4761" y="279.477" width="477.696" height="209.468" fill="white"/>
<rect x="61.4761" y="279.477" width="477.696" height="209.468" fill="none" stroke="black"/>
<path d="M101.284,402.768v -13.4699" fill="none" stroke="black" stroke-width="2"/>
<path d="M101.284,389.298v -13.4699" fill="none" stroke="black" stroke-width="2"/>
<path d="M93.3225,389.298h 7.9616" fill="none" stroke="black" stroke-width="2"/>
<path d="M101.284,389.298h 7.9616" fill="none" stroke="black" stroke-width="2"/>
<g stroke="black" stroke-width="1" fill="none">
<line x1="100.284" y1="389.298" x2="101.284" y2="389.298"/>
</g>
<path d="M117.207,357.154v -15.6884" fill="none" stroke="black" stroke-width="2"/>
<path d="M117.207,341.466v -15.6884" fill="none" stroke="black" stroke-width="2"/>
<path d="M109.246,341.466h 7.9616" fill="none" stroke="black" stroke-width="2"/>
<path d="M117.207,341.466h 7.9616" fill="none" stroke="black" stroke-width="2"/>
<g stroke="black" stroke-width="1" fill="none">
<line x1="116.207" y1="341.466" x2="117.207" y2="341.466"/>
</g>
<path d="M133.13,356.467v -17.6301" fill="none" stroke="black" stroke-width="2"/>
<path d="M133.13,338.837v -17.6301" fill="none" stroke="black" stroke-width="2"/>
<path d="M125.169,338.837h 7.9616" fill="none" stroke="black" stroke-width="2"/>
<path d="M133.13,338.837h 7.9616" fill="none" stroke="black" stroke-width="2"/>
<g stroke="black" stroke-width="1" fill="none">
<line x1="132.13" y1="338.837" x2="133.13" y2="338.837"/>
</g>
<path d="M149.054,338.887v -16.0368" fill="none" stroke="black" stroke-width="2"/>
<path d="M149.054,322.85v -16.0368" fill="none" stroke="black" stroke-width="2"/>
<path d="M141.092,322.85h 7.9616" fill="none" stroke="black" stroke-width="2"/>
<path d="M149.054,322.85h 7.9616" fill="none" stroke="black" stroke-width="2"/>
<g stroke="black" stroke-width="1" fill="none">
<line x1="148.054" y1="322.85" x2="149.054" y2="322.85"/>
</g>
<path d="M164.977,332.843v -15.5377" fill="none" stroke="black" stroke-width="2"/>
<path d="M164.977,317.305v -15.5377" fill="none" stroke="black" stroke-width="2"/>
<path d="M157.015,317.305h 7.9616" fill="none" stroke="black" stroke-width="2"/>
<path d="M164.977,317.305h 7.9616" fill="none" stroke="black" stroke-width="2"/>
<g stroke="black" stroke-width="1" fill="none">
<line x1="163.977" y1="317.305" x2="164.977" y2="317.305"/>
</g>
<path d="M180.9,362.04v -13.2427" fill="none" stroke="black" stroke-width="2"/>
<path d="M180.9,348.797v -13.2427" fill="none" stroke="black" stroke-width="2"/>
<path d="M172.938,348.797h 7.9616" fill="none" stroke="black" stroke-width="2"/>
<path d="M180.9,348.797h 7.9616" fill="none" stroke="black" stroke-width="2"/>
<g stroke="black" stroke-width="1" fill="none">
<line x1="179.9" y1="348.797" x2="180.9" y2="348.797"/>
</g>
<path d="M196.823,367.088v -9.68956" fill="none" stroke="black" stroke-width="2"/>
<path d="M196.823,357.398v -9.68956" fill="none" stroke="black" stroke-width="2"/>
<path d="M188.862,357.398h 7.9616" fill="none" stroke="black" stroke-width="2"/>
<path d="M196.823,357.398h 7.9616" fill="none" stroke="black" stroke-width="2"/>
<g stroke="black" stroke-width="1" fill="none">
<line x1="195.823" y1="357.398" x2="196.823" y2="357.398"/>
</g>
<path d="M212.746,385.458v -9.21773" fill="none" stroke="black" stroke-width="2"/>
<path d="M212.746,376.24v -9.21773" fill="none" stroke="black" stroke-width="2"/>
<path d="M204.785,376.24h 7.9616" fill="none" stroke="black" stroke-width="2"/>
<path d="M212.746,376.24h 7.9616" fill="none" stroke="black" stroke-width="2"/>
<g stroke="black" stroke-width="1" fill="none">
<line x1="211.746" y1="376.24" x2="212.746" y2="376.24"/>
</g>
<path d="M228.67,372.379v -9.76583" fill="none" stroke="black" stroke-width="2"/>
<path d="M228.67,362.613v -9.76583" fill="none" stroke="black" stroke-width="2"/>
<path d="M220.708,362.613h 7.9616" fill="none" stroke="black" stroke-width="2"/>
<path d="M228.67,362.613h 7.9616" fill="none" stroke="black" stroke-width="2"/>
<g stroke="black" stroke-width="1" fill="none">
<line x1="227.67" y1="362.613" x2="228.67" y2="362.613"/>
</g>
<path d="M244.593,351.87v -10.7813" fill="none" stroke="black" stroke-width="2"/>
<path d="M244.593,341.089v -10.7813" fill="none" stroke="black" stroke-width="2"/>
<path d="M236.631,341.089h 7.9616" fill="none" stroke="black" stroke-width="2"/>
<path d="M244.593,341.089h 7.9616" fill="none" stroke="black" stroke-width="2"/>
<g stroke="black" stroke-width="1" fill="none">
<line x1="243.593" y1="341.089" x2="244.593" y2="341.089"/>
</g>
<path d="M260.516,376.27v -9.65904" fill="none" stroke="black" stroke-width="2"/>
<path d="M260.516,366.61v -9.65904" fill="none" stroke="black" stroke-width="2"/>
<path d="M252.554,366.61h 7.9616" fill="none" stroke="black" stroke-width="2"/>
<path d="M260.516,366.61h 7.9616" fill="none" stroke="black" stroke-width="2"/>
<g stroke="black" stroke-width="1" fill="none">
<line x1="259.516" y1="366.61" x2="260.516" y2="366.61"/>
</g>
<path d="M276.439,393.096v -8.54494" fill="none" stroke="black" stroke-width="2"/>
<path d="M276.439,384.551v -8.54494" fill="none" stroke="black" stroke-width="2"/>
<path d="M268.478,384.551h 7.9616" fill="none" stroke="black" stroke-width="2"/>
<path d="M276.439,384.551h 7.9616" fill="none" stroke="black" stroke-width="2"/>
<g stroke="black" stroke-width="1" fill="none">
<line x1="275.439" y1="384.551" x2="276.439" y2="384.551"/>
</g>
<path d="M292.362,404.744v -7.74917" fill="none" stroke="black" stroke-width="2"/>
<path d="M292.362,396.995v -7.74917" fill="none" stroke="black" stroke-width="2"/>
<path d="M284.401,396.995h 7.9616" fill="none" stroke="black" stroke-width="2"/>
<path d="M292.362,396.995h 7.9616" fill="none" stroke="black" stroke-width="2"/>
<g stroke="black" stroke-width="1" fill="none">
<line x1="291.362" y1="396.995" x2="292.362" y2="396.995"/>
</g>
<path d="M308.286,407.917v -6.56727" fill="none" stroke="black" stroke-width="2"/>
<path d="M308.286,401.35v -6.56727" fill="none" stroke="black" stroke-width="2"/>
<path d="M300.324,401.35h 7.9616" fill="none" stroke="black" stroke-width="2"/>
<path d="M308.286,401.35h 7.9616" fill="none" stroke="black" stroke-width="2"/>
<g stroke="black" stroke-width="1" fill="none">
<line x1="307.286" y1="401.35" x2="308.286" y2="401.35"/>
</g>
<path d="M324.209,397.761v -7.98543" fill="none" stroke="black" stroke-width="2"/>
<path d="M324.209,389.775v -7.98543" fill="none" stroke="black" stroke-width="2"/>
<path d="M316.247,389.775h 7.9616" fill="none" stroke="black" stroke-width="2"/>
<path d="M324.209,389.775h 7.9616" fill="none" stroke="black" stroke-width="2"/>
<g stroke="black" stroke-width="1" fill="none">
<line x1="323.209" y1="389.775" x2="324.209" y2="389.775"/>
</g>
<path d="M340.132,366.774v -10.1429" fill="none" stroke="black" stroke-width="2"/>
<path d="M340.132,356.632v -10.1429" fill="none" stroke="black" stroke-width="2"/>
<path d="M332.17,356.632h 7.9616" fill="none" stroke="black" stroke-width="2"/>
<path d="M340.132,356.632h 7.9616" fill="none" stroke="black" stroke-width="2"/>
<g stroke="black" stroke-width="1" fill="none">
<line x1="339.132" y1="356.632" x2="340.132" y2="356.632"/>
</g>
<path d="M356.055,367.064v -10.1503" fill="none" stroke="black" stroke-width="2"/>
<path d="M356.055,356.914v -10.1503" fill="none" stroke="black" stroke-width="2"/>
<path d="M348.094,356.914h 7.9616" fill="none" stroke="black" stroke-width="2"/>
<path d="M356.055,356.914h 7.9616" fill="none" stroke="black" stroke-width="2"/>
<g stroke="black" stroke-width="1" fill="none">
<line x1="355.055" y1="356.914" x2="356.055" y2="356.914"/>
</g>
<path d="M371.978,374.454v -9.926" fill="none" stroke="black" stroke-width="2"/>
<path d="M371.978,364.528v -9.926" fill="none" stroke="black" stroke-width="2"/>
<path d="M364.017,364.528h 7.9616" fill="none" stroke="black" stroke-width="2"/>
<path d="M371.978,364.528h 7.9616" fill="none" stroke="black" stroke-width="2"/>
<g stroke="black" stroke-width="1" fill="none">
<line x1="370.978" y1="364.528" x2="371.978" y2="364.528"/>
</g>
<path d="M387.902,376.874v -10.073" fill="none" stroke="black" stroke-width="2"/>
<path d="M387.902,366.801v -10.073" fill="none" stroke="black" stroke-width="2"/>
<path d="M379.94,366.801h 7.9616" fill="none" stroke="black" stroke-width="2"/>
<path d="M387.902,366.801h 7.9616" fill="none" stroke="black" stroke-width="2"/>
<g stroke="black" stroke-width="1" fill="none">
<line x1="386.902" y1="366.801" x2="387.902" y2="366.801"/>
</g>
<path d="M403.825,362.414v -10.7461" fill="none" stroke="black" stroke-width="2"/>
<path d="M403.825,351.668v -10.7461" fill="none" stroke="black" stroke-width="2"/>
<path d="M395.863,351.668h 7.9616" fill="none" stroke="black" stroke-width="2"/>
<path d="M403.825,351.668h 7.9616" fill="none" stroke="black" stroke-width="2"/>
<g stroke="black" stroke-width="1" fill="none">
<line x1="402.825" y1="351.668" x2="403.825" y2="351.668"/>
</g>
<path d="M419.748,357.273v -12.8644" fill="none" stroke="black" stroke-width="2"/>
<path d="M419.748,344.408v -12.8644" fill="none" stroke="black" stroke-width="2"/>
<path d="M411.786,344.408h 7.9616" fill="none" stroke="black" stroke-width="2"/>
<path d="M419.748,344.408h 7.9616" fill="none" stroke="black" stroke-width="2"/>
<g stroke="black" stroke-width="1" fill="none">
<line x1="418.748" y1="344.408" x2="419.748" y2="344.408"/>
</g>
<path d="M435.671,320.676v -15.6124" fill="none" stroke="black" stroke-width="2"/>
<path d="M435.671,305.064v -15.6124" fill="none" stroke="black" stroke-width="2"/>
<path d="M427.71,305.064h 7.9616" fill="none" stroke="black" stroke-width="2"/>
<path d="M435.671,305.064h 7.9616" fill="none" stroke="black" stroke-width="2"/>
<g stroke="black" stroke-width="1" fill="none">
<line x1="434.671" y1="305.064" x2="435.671" y2="305.064"/>
</g>
<path d="M451.594,359.495v -14.4307" fill="none" stroke="black" stroke-width="2"/>
<path d="M451.594,345.065v -14.4307" fill="none" stroke="black" stroke-width="2"/>
<path d="M443.633,345.065h 7.9616" fill="none" stroke="black" stroke-width="2"/>
<path d="M451.594,345.065h 7.9616" fill="none" stroke="black" stroke-width="2"/>
<g stroke="black" stroke-width="1" fill="none">
<line x1="450.594" y1="345.065" x2="451.594" y2="345.065"/>
</g>
<path d="M467.518,339.526v -17.5051" fill="none" stroke="black" stroke-width="2"/>
<path d="M467.518,322.021v -17.5051" fill="none" stroke="black" stroke-width="2"/>
<path d="M459.556,322.021h 7.9616" fill="none" stroke="black" stroke-width="2"/>
<path d="M467.518,322.021h 7.9616" fill="none" stroke="black" stroke-width="2"/>
<g stroke="black" stroke-width="1" fill="none">
<line x1="466.518" y1="322.021" x2="467.518" y2="322.021"/>
</g>
<path d="M483.441,361.742v -14.807" fill="none" stroke="black" stroke-width="2"/>
<path d="M483.441,346.935v -14.807" fill="none" stroke="black" stroke-width="2"/>
<path d="M475.479,346.935h 7.9616" fill="none" stroke="black" stroke-width="2"/>
<path d="M483.441,346.935h 7.9616" fill="none" stroke="black" stroke-width="2"/>
<g stroke="black" stroke-width="1" fill="none">
<line x1="482.441" y1="346.935" x2="483.441" y2="346.935"/>
</g>
<path d="M499.364,391.063v -15.895" fill="none" stroke="black" stroke-width="2"/>
<path d="M499.364,375.168v -15.895" fill="none" stroke="black" stroke-width="2"/>
<path d="M491.402,375.168h 7.9616" fill="none" stroke="black" stroke-width="2"/>
<path d="M499.364,375.168h 7.9616" fill="none" stroke="black" stroke-width="2"/>
<g stroke="black" stroke-width="1" fill="none">
<line x1="498.364" y1="375.168" x2="499.364" y2="375.168"/>
</g>
<path d="M63.8646,370.512l 4.77696, -0.0701305l 4.77696, -0.0701305l 4.77696, -0.0701305l 4.77696, -0.0701305l 4.77696, -0.0701305l 4.77696, -0.0701305l 4.77696, -0.0701305l 4.77696, -0.0701305l 4.77696, -0.0701305l 4.77696, -0.0701305l 4.77696,
 -0.0701305l 4.77696, -0.0701305l 4.77696, -0.0701305l 4.77696, -0.0701305l 4.77696, -0.0701305l 4.77696, -0.0701305l 4.77696, -0.0701305l 4.77696, -0.0701305l 4.77696, -0.0701305l 4.77696, -0.0701305l 4.77696, -0.0701305l 4.77696, -0.0701305l
 4.77696, -0.0701305l 4.77696, -0.0701305l 4.77696, -0.0701305l 4.77696, -0.0701305l 4.77696, -0.0701305l 4.77696, -0.0701305l 4.77696, -0.0701305l 4.77696, -0.0701305l 4.77696, -0.0701305l 4.77696, -0.0701305l 4.77696, -0.0701305l 4.77696,
 -0.0701305l 4.77696, -0.0701305l 4.77696, -0.0701305l 4.77696, -0.0701305l 4.77696, -0.0701305l 4.77696, -0.0701305l 4.77696, -0.0701305l 4.77696, -0.0701305l 4.77696, -0.0701305l 4.77696, -0.0701305l 4.77696, -0.0701305l 4.77696, -0.0701305l
 4.77696, -0.0701305l 4.77696, -0.0701305l 4.77696, -0.0701305l 4.77696, -0.0701305" fill="none" stroke="#339966" stroke-width="2"/>
<path d="M297.936,367.076l 4.77696, -0.0701305l 4.77696, -0.0701305l 4.77696, -0.0701305l 4.77696, -0.0701305l 4.77696, -0.0701305l 4.77696, -0.0701305l 4.77696, -0.0701305l 4.77696, -0.0701305l 4.77696, -0.0701305l 4.77696, -0.0701305l 4.77696,
 -0.0701305l 4.77696, -0.0701305l 4.77696, -0.0701305l 4.77696, -0.0701305l 4.77696, -0.0701305l 4.77696, -0.0701305l 4.77696, -0.0701305l 4.77696, -0.0701305l 4.77696, -0.0701305l 4.77696, -0.0701305l 4.77696, -0.0701305l 4.77696, -0.0701305l
 4.77696, -0.0701305l 4.77696, -0.0701305l 4.77696, -0.0701305l 4.77696, -0.0701305l 4.77696, -0.0701305l 4.77696, -0.0701305l 4.77696, -0.0701305l 4.77696, -0.0701305l 4.77696, -0.0701305l 4.77696, -0.0701305l 4.77696, -0.0701305l 4.77696,
 -0.0701305l 4.77696, -0.0701305l 4.77696, -0.0701305l 4.77696, -0.0701305l 4.77696, -0.0701305l 4.77696, -0.0701305l 4.77696, -0.0701305l 4.77696, -0.0701305l 4.77696, -0.0701305l 4.77696, -0.0701305l 4.77696, -0.0701305l 4.77696, -0.0701305l
 4.77696, -0.0701305l 4.77696, -0.0701305l 4.77696, -0.0701305l 4.77696, -0.0701305" fill="none" stroke="#339966" stroke-width="2"/>
<path d="M532.006,363.639l 4.77696, -0.0701305" fill="none" stroke="#339966" stroke-width="2"/>
<path d="M61.4761,488.945h 477.696" fill="none" stroke="black"/>
<path d="M61.4761,482.184v 6.76097" fill="none" stroke="black"/>
<path d="M77.3993,485.564v 3.38049" fill="none" stroke="black"/>
<path d="M93.3225,485.564v 3.38049" fill="none" stroke="black"/>
<path d="M109.246,485.564v 3.38049" fill="none" stroke="black"/>
<path d="M125.169,485.564v 3.38049" fill="none" stroke="black"/>
<path d="M141.092,482.184v 6.76097" fill="none" stroke="black"/>
<path d="M157.015,485.564v 3.38049" fill="none" stroke="black"/>
<path d="M172.938,485.564v 3.38049" fill="none" stroke="black"/>
<path d="M188.862,485.564v 3.38049" fill="none" stroke="black"/>
<path d="M204.785,485.564v 3.38049" fill="none" stroke="black"/>
<path d="M220.708,482.184v 6.76097" fill="none" stroke="black"/>
<path d="M236.631,485.564v 3.38049" fill="none" stroke="black"/>
<path d="M252.554,485.564v 3.38049" fill="none" stroke="black"/>
<path d="M268.478,485.564v 3.38049" fill="none" stroke="black"/>
<path d="M284.401,485.564v 3.38049" fill="none" stroke="black"/>
<path d="M300.324,482.184v 6.76097" fill="none" stroke="black"/>
<path d="M316.247,485.564v 3.38049" fill="none" stroke="black"/>
<path d="M332.17,485.564v 3.38049" fill="none" stroke="black"/>
<path d="M348.094,485.564v 3.38049" fill="none" stroke="black"/>
<path d="M364.017,485.564v 3.38049" fill="none" stroke="black"/>
<path d="M379.94,482.184v 6.76097" fill="none" stroke="black"/>
<path d="M395.863,485.564v 3.38049" fill="none" stroke="black"/>
<path d="M411.786,485.564v 3.38049" fill="none" stroke="black"/>
<path d="M427.71,485.564v 3.38049" fill="none" stroke="black"/>
<path d="M443.633,485.564v 3.38049" fill="none" stroke="black"/>
<path d="M459.556,482.184v 6.76097" fill="none" stroke="black"/>
<path d="M475.479,485.564v 3.38049" fill="none" stroke="black"/>
<path d="M491.402,485.564v 3.38049" fill="none" stroke="black"/>
<path d="M507.326,485.564v 3.38049" fill="none" stroke="black"/>
<path d="M523.249,485.564v 3.38049" fill="none" stroke="black"/>
<path d="M539.172,482.184v 6.76097" fill="none" stroke="black"/>
<path d="M539.172,482.184v 6.76097" fill="none" stroke="black"/>
<text xml:space="preserve" x="60.2266" y="496.774" fill="black" font-size="8.91652" font-family="Helvetica">3</text>
<text xml:space="preserve" x="56.4345" y="496.774" fill="black" font-size="8.91652" font-family="Times">&#8722;</text>
<text xml:space="preserve" x="139.862" y="496.774" fill="black" font-size="8.91652" font-family="Helvetica">2</text>
<text xml:space="preserve" x="136.07" y="496.774" fill="black" font-size="8.91652" font-family="Times">&#8722;</text>
<text xml:space="preserve" x="220.446" y="496.774" fill="black" font-size="8.91652" font-family="Helvetica">1</text>
<text xml:space="preserve" x="215.706" y="496.774" fill="black" font-size="8.91652" font-family="Times">&#8722;</text>
<text xml:space="preserve" x="297.237" y="496.774" fill="black" font-size="8.91652" font-family="Helvetica">0</text>
<text xml:space="preserve" x="377.821" y="496.774" fill="black" font-size="8.91652" font-family="Helvetica">1</text>
<text xml:space="preserve" x="456.508" y="496.774" fill="black" font-size="8.91652" font-family="Helvetica">2</text>
<text xml:space="preserve" x="536.144" y="496.774" fill="black" font-size="8.91652" font-family="Helvetica">3</text>
<text xml:space="preserve" x="531.404" y="517.631" fill="black" font-size="14.9283" font-family="Times">&#0951;</text>
<text xml:space="preserve" x="507.702" y="517.631" fill="black" font-size="14.9283" font-family="Helvetica">Jet </text>
<path d="M61.4761,279.477h 477.696" fill="none" stroke="black"/>
<path d="M61.4761,286.238v -6.76097" fill="none" stroke="black"/>
<path d="M77.3993,282.857v -3.38049" fill="none" stroke="black"/>
<path d="M93.3225,282.857v -3.38049" fill="none" stroke="black"/>
<path d="M109.246,282.857v -3.38049" fill="none" stroke="black"/>
<path d="M125.169,282.857v -3.38049" fill="none" stroke="black"/>
<path d="M141.092,286.238v -6.76097" fill="none" stroke="black"/>
<path d="M157.015,282.857v -3.38049" fill="none" stroke="black"/>
<path d="M172.938,282.857v -3.38049" fill="none" stroke="black"/>
<path d="M188.862,282.857v -3.38049" fill="none" stroke="black"/>
<path d="M204.785,282.857v -3.38049" fill="none" stroke="black"/>
<path d="M220.708,286.238v -6.76097" fill="none" stroke="black"/>
<path d="M236.631,282.857v -3.38049" fill="none" stroke="black"/>
<path d="M252.554,282.857v -3.38049" fill="none" stroke="black"/>
<path d="M268.478,282.857v -3.38049" fill="none" stroke="black"/>
<path d="M284.401,282.857v -3.38049" fill="none" stroke="black"/>
<path d="M300.324,286.238v -6.76097" fill="none" stroke="black"/>
<path d="M316.247,282.857v -3.38049" fill="none" stroke="black"/>
<path d="M332.17,282.857v -3.38049" fill="none" stroke="black"/>
<path d="M348.094,282.857v -3.38049" fill="none" stroke="black"/>
<path d="M364.017,282.857v -3.38049" fill="none" stroke="black"/>
<path d="M379.94,286.238v -6.76097" fill="none" stroke="black"/>
<path d="M395.863,282.857v -3.38049" fill="none" stroke="black"/>
<path d="M411.786,282.857v -3.38049" fill="none" stroke="black"/>
<path d="M427.71,282.857v -3.38049" fill="none" stroke="black"/>
<path d="M443.633,282.857v -3.38049" fill="none" stroke="black"/>
<path d="M459.556,286.238v -6.76097" fill="none" stroke="black"/>
<path d="M475.479,282.857v -3.38049" fill="none" stroke="black"/>
<path d="M491.402,282.857v -3.38049" fill="none" stroke="black"/>
<path d="M507.326,282.857v -3.38049" fill="none" stroke="black"/>
<path d="M523.249,282.857v -3.38049" fill="none" stroke="black"/>
<path d="M539.172,286.238v -6.76097" fill="none" stroke="black"/>
<path d="M539.172,286.238v -6.76097" fill="none" stroke="black"/>
<path d="M61.4761,488.945v -209.468" fill="none" stroke="black"/>
<path d="M74.796,488.945h -13.3199" fill="none" stroke="black"/>
<path d="M68.1361,483.206h -6.65996" fill="none" stroke="black"/>
<path d="M68.1361,477.468h -6.65996" fill="none" stroke="black"/>
<path d="M68.1361,471.729h -6.65996" fill="none" stroke="black"/>
<path d="M74.796,465.991h -13.3199" fill="none" stroke="black"/>
<path d="M68.1361,460.253h -6.65996" fill="none" stroke="black"/>
<path d="M68.1361,454.514h -6.65996" fill="none" stroke="black"/>
<path d="M68.1361,448.776h -6.65996" fill="none" stroke="black"/>
<path d="M74.796,443.037h -13.3199" fill="none" stroke="black"/>
<path d="M68.1361,437.299h -6.65996" fill="none" stroke="black"/>
<path d="M68.1361,431.561h -6.65996" fill="none" stroke="black"/>
<path d="M68.1361,425.822h -6.65996" fill="none" stroke="black"/>
<path d="M74.796,420.084h -13.3199" fill="none" stroke="black"/>
<path d="M68.1361,414.346h -6.65996" fill="none" stroke="black"/>
<path d="M68.1361,408.607h -6.65996" fill="none" stroke="black"/>
<path d="M68.1361,402.869h -6.65996" fill="none" stroke="black"/>
<path d="M74.796,397.13h -13.3199" fill="none" stroke="black"/>
<path d="M68.1361,391.392h -6.65996" fill="none" stroke="black"/>
<path d="M68.1361,385.654h -6.65996" fill="none" stroke="black"/>
<path d="M68.1361,379.915h -6.65996" fill="none" stroke="black"/>
<path d="M74.796,374.177h -13.3199" fill="none" stroke="black"/>
<path d="M68.1361,368.438h -6.65996" fill="none" stroke="black"/>
<path d="M68.1361,362.7h -6.65996" fill="none" stroke="black"/>
<path d="M68.1361,356.962h -6.65996" fill="none" stroke="black"/>
<path d="M74.796,351.223h -13.3199" fill="none" stroke="black"/>
<path d="M68.1361,345.485h -6.65996" fill="none" stroke="black"/>
<path d="M68.1361,339.746h -6.65996" fill="none" stroke="black"/>
<path d="M68.1361,334.008h -6.65996" fill="none" stroke="black"/>
<path d="M74.796,328.27h -13.3199" fill="none" stroke="black"/>
<path d="M68.1361,322.531h -6.65996" fill="none" stroke="black"/>
<path d="M68.1361,316.793h -6.65996" fill="none" stroke="black"/>
<path d="M68.1361,311.054h -6.65996" fill="none" stroke="black"/>
<path d="M74.796,305.316h -13.3199" fill="none" stroke="black"/>
<path d="M68.1361,299.578h -6.65996" fill="none" stroke="black"/>
<path d="M68.1361,293.839h -6.65996" fill="none" stroke="black"/>
<path d="M68.1361,288.101h -6.65996" fill="none" stroke="black"/>
<path d="M74.796,282.362h -13.3199" fill="none" stroke="black"/>
<path d="M74.796,282.362h -13.3199" fill="none" stroke="black"/>
<text xml:space="preserve" x="53.5904" y="492.034" fill="black" font-size="8.91652" font-family="Helvetica">0</text>
<text xml:space="preserve" x="46.006" y="469.281" fill="black" font-size="8.91652" font-family="Helvetica">0.2</text>
<text xml:space="preserve" x="46.006" y="446.528" fill="black" font-size="8.91652" font-family="Helvetica">0.4</text>
<text xml:space="preserve" x="46.006" y="423.775" fill="black" font-size="8.91652" font-family="Helvetica">0.6</text>
<text xml:space="preserve" x="46.006" y="400.074" fill="black" font-size="8.91652" font-family="Helvetica">0.8</text>
<text xml:space="preserve" x="54.5384" y="377.321" fill="black" font-size="8.91652" font-family="Helvetica">1</text>
<text xml:space="preserve" x="46.006" y="354.568" fill="black" font-size="8.91652" font-family="Helvetica">1.2</text>
<text xml:space="preserve" x="46.006" y="331.815" fill="black" font-size="8.91652" font-family="Helvetica">1.4</text>
<text xml:space="preserve" x="46.006" y="309.062" fill="black" font-size="8.91652" font-family="Helvetica">1.6</text>
<text xml:space="preserve" x="46.006" y="285.361" fill="black" font-size="8.91652" font-family="Helvetica">1.8</text>
<g transform="rotate(-90,19.4608,459.8)">
<text xml:space="preserve" x="19.4608" y="459.8" fill="black" font-size="14.9283" font-family="Helvetica">True Background / Predicted</text>
</g>
<text xml:space="preserve" x="323.782" y="414.294" fill="black" font-size="14.9283" font-family="Helvetica">Fitting function: par0 + par1*x</text>
<text xml:space="preserve" x="336.107" y="439.891" fill="black" font-size="14.9283" font-family="Helvetica">par0 : 1.06218 +- 0.0184621</text>
<text xml:space="preserve" x="336.107" y="466.437" fill="black" font-size="14.9283" font-family="Helvetica">par1 : 0.0101844 +- 0.0157109</text></svg>
