<?xml version="1.0" standalone="no"?>
<svg width="567.429" height="546.572" viewBox="0 0 567.429 546.572" xmlns="http://www.w3.org/2000/svg" shape-rendering="crispEdges">
<title>
/home/kuanyu/Documents/CMS/Background_Estimate/fake_rate/top_emu/plot/CT_Top(emu)_lJetEta_dileppT.svg
</title>
<desc>
Creator: ROOT Version 6.26/04
CreationDate: Wed Oct 26 20:17:47 2022</desc>
<defs>
</defs>
<rect x="0.5" y="0" width="566.929" height="546.072" fill="none"/>
<rect x="6.16929" y="5.46072" width="555.591" height="262.115" fill="none"/>
<rect x="61.7283" y="8.08187" width="477.808" height="259.493" fill="none"/>
<rect x="61.7283" y="8.08187" width="477.808" height="259.493" fill="none" stroke="black"/>
<rect x="61.7283" y="8.08187" width="477.808" height="259.493" fill="none"/>
<rect x="61.7283" y="8.08187" width="477.808" height="259.493" fill="none" stroke="black"/>
<path d="M101.546,94.5287v -9.04857" fill="none" stroke="#ff0000" stroke-width="2"/>
<path d="M101.546,85.4801v -8.11873" fill="none" stroke="#ff0000" stroke-width="2"/>
<path d="M93.5822,85.4801h 7.96346" fill="none" stroke="#ff0000" stroke-width="2"/>
<path d="M101.546,85.4801h 7.96346" fill="none" stroke="#ff0000" stroke-width="2"/>
<g stroke="black" stroke-width="1" fill="none">
<line x1="100.546" y1="85.4801" x2="101.546" y2="85.4801"/>
</g>
<path d="M117.473,76.0917v -9.21625" fill="none" stroke="#ff0000" stroke-width="2"/>
<path d="M117.473,66.8754v -8.25343" fill="none" stroke="#ff0000" stroke-width="2"/>
<path d="M109.509,66.8754h 7.96346" fill="none" stroke="#ff0000" stroke-width="2"/>
<path d="M117.473,66.8754h 7.96346" fill="none" stroke="#ff0000" stroke-width="2"/>
<g stroke="black" stroke-width="1" fill="none">
<line x1="116.473" y1="66.8754" x2="117.473" y2="66.8754"/>
</g>
<path d="M133.4,112.543v -11.5112" fill="none" stroke="#ff0000" stroke-width="2"/>
<path d="M133.4,101.032v -10.0465" fill="none" stroke="#ff0000" stroke-width="2"/>
<path d="M125.436,101.032h 7.96346" fill="none" stroke="#ff0000" stroke-width="2"/>
<path d="M133.4,101.032h 7.96346" fill="none" stroke="#ff0000" stroke-width="2"/>
<g stroke="black" stroke-width="1" fill="none">
<line x1="132.4" y1="101.032" x2="133.4" y2="101.032"/>
</g>
<path d="M149.326,133.096v -14.5603" fill="none" stroke="#ff0000" stroke-width="2"/>
<path d="M149.326,118.535v -12.2918" fill="none" stroke="#ff0000" stroke-width="2"/>
<path d="M141.363,118.535h 7.96346" fill="none" stroke="#ff0000" stroke-width="2"/>
<path d="M149.326,118.535h 7.96346" fill="none" stroke="#ff0000" stroke-width="2"/>
<g stroke="black" stroke-width="1" fill="none">
<line x1="148.326" y1="118.535" x2="149.326" y2="118.535"/>
</g>
<path d="M165.253,153.518v -17.3191" fill="none" stroke="#ff0000" stroke-width="2"/>
<path d="M165.253,136.199v -14.1992" fill="none" stroke="#ff0000" stroke-width="2"/>
<path d="M157.29,136.199h 7.96346" fill="none" stroke="#ff0000" stroke-width="2"/>
<path d="M165.253,136.199h 7.96346" fill="none" stroke="#ff0000" stroke-width="2"/>
<g stroke="black" stroke-width="1" fill="none">
<line x1="164.253" y1="136.199" x2="165.253" y2="136.199"/>
</g>
<path d="M181.18,159.167v -19.9808" fill="none" stroke="#ff0000" stroke-width="2"/>
<path d="M181.18,139.186v -15.9371" fill="none" stroke="#ff0000" stroke-width="2"/>
<path d="M173.217,139.186h 7.96346" fill="none" stroke="#ff0000" stroke-width="2"/>
<path d="M181.18,139.186h 7.96346" fill="none" stroke="#ff0000" stroke-width="2"/>
<g stroke="black" stroke-width="1" fill="none">
<line x1="180.18" y1="139.186" x2="181.18" y2="139.186"/>
</g>
<path d="M197.107,174.464v -15.0027" fill="none" stroke="#ff0000" stroke-width="2"/>
<path d="M197.107,159.461v -12.6054" fill="none" stroke="#ff0000" stroke-width="2"/>
<path d="M189.144,159.461h 7.96346" fill="none" stroke="#ff0000" stroke-width="2"/>
<path d="M197.107,159.461h 7.96346" fill="none" stroke="#ff0000" stroke-width="2"/>
<g stroke="black" stroke-width="1" fill="none">
<line x1="196.107" y1="159.461" x2="197.107" y2="159.461"/>
</g>
<path d="M213.034,204.027v -18.1045" fill="none" stroke="#ff0000" stroke-width="2"/>
<path d="M213.034,185.923v -14.7221" fill="none" stroke="#ff0000" stroke-width="2"/>
<path d="M205.071,185.923h 7.96346" fill="none" stroke="#ff0000" stroke-width="2"/>
<path d="M213.034,185.923h 7.96346" fill="none" stroke="#ff0000" stroke-width="2"/>
<g stroke="black" stroke-width="1" fill="none">
<line x1="212.034" y1="185.923" x2="213.034" y2="185.923"/>
</g>
<path d="M228.961,163.039v -18.8465" fill="none" stroke="#ff0000" stroke-width="2"/>
<path d="M228.961,144.192v -15.2083" fill="none" stroke="#ff0000" stroke-width="2"/>
<path d="M220.998,144.192h 7.96346" fill="none" stroke="#ff0000" stroke-width="2"/>
<path d="M228.961,144.192h 7.96346" fill="none" stroke="#ff0000" stroke-width="2"/>
<g stroke="black" stroke-width="1" fill="none">
<line x1="227.961" y1="144.192" x2="228.961" y2="144.192"/>
</g>
<path d="M244.888,212.759v -18.9323" fill="none" stroke="#ff0000" stroke-width="2"/>
<path d="M244.888,193.827v -15.264" fill="none" stroke="#ff0000" stroke-width="2"/>
<path d="M236.925,193.827h 7.96346" fill="none" stroke="#ff0000" stroke-width="2"/>
<path d="M244.888,193.827h 7.96346" fill="none" stroke="#ff0000" stroke-width="2"/>
<g stroke="black" stroke-width="1" fill="none">
<line x1="243.888" y1="193.827" x2="244.888" y2="193.827"/>
</g>
<path d="M260.815,161.949v -13.8435" fill="none" stroke="#ff0000" stroke-width="2"/>
<path d="M260.815,148.106v -11.7774" fill="none" stroke="#ff0000" stroke-width="2"/>
<path d="M252.852,148.106h 7.96346" fill="none" stroke="#ff0000" stroke-width="2"/>
<path d="M260.815,148.106h 7.96346" fill="none" stroke="#ff0000" stroke-width="2"/>
<g stroke="black" stroke-width="1" fill="none">
<line x1="259.815" y1="148.106" x2="260.815" y2="148.106"/>
</g>
<path d="M276.742,195.986v -17.2249" fill="none" stroke="#ff0000" stroke-width="2"/>
<path d="M276.742,178.761v -14.1359" fill="none" stroke="#ff0000" stroke-width="2"/>
<path d="M268.778,178.761h 7.96346" fill="none" stroke="#ff0000" stroke-width="2"/>
<path d="M276.742,178.761h 7.96346" fill="none" stroke="#ff0000" stroke-width="2"/>
<g stroke="black" stroke-width="1" fill="none">
<line x1="275.742" y1="178.761" x2="276.742" y2="178.761"/>
</g>
<path d="M292.669,179.662v -15.4752" fill="none" stroke="#ff0000" stroke-width="2"/>
<path d="M292.669,164.187v -12.9369" fill="none" stroke="#ff0000" stroke-width="2"/>
<path d="M284.705,164.187h 7.96346" fill="none" stroke="#ff0000" stroke-width="2"/>
<path d="M292.669,164.187h 7.96346" fill="none" stroke="#ff0000" stroke-width="2"/>
<g stroke="black" stroke-width="1" fill="none">
<line x1="291.669" y1="164.187" x2="292.669" y2="164.187"/>
</g>
<path d="M308.596,172.445v -14.8554" fill="none" stroke="#ff0000" stroke-width="2"/>
<path d="M308.596,157.589v -12.5012" fill="none" stroke="#ff0000" stroke-width="2"/>
<path d="M300.632,157.589h 7.96346" fill="none" stroke="#ff0000" stroke-width="2"/>
<path d="M308.596,157.589h 7.96346" fill="none" stroke="#ff0000" stroke-width="2"/>
<g stroke="black" stroke-width="1" fill="none">
<line x1="307.596" y1="157.589" x2="308.596" y2="157.589"/>
</g>
<path d="M324.523,197.456v -17.2106" fill="none" stroke="#ff0000" stroke-width="2"/>
<path d="M324.523,180.245v -14.1263" fill="none" stroke="#ff0000" stroke-width="2"/>
<path d="M316.559,180.245h 7.96346" fill="none" stroke="#ff0000" stroke-width="2"/>
<path d="M324.523,180.245h 7.96346" fill="none" stroke="#ff0000" stroke-width="2"/>
<g stroke="black" stroke-width="1" fill="none">
<line x1="323.523" y1="180.245" x2="324.523" y2="180.245"/>
</g>
<path d="M340.45,155.038v -13.3491" fill="none" stroke="#ff0000" stroke-width="2"/>
<path d="M340.45,141.689v -11.4178" fill="none" stroke="#ff0000" stroke-width="2"/>
<path d="M332.486,141.689h 7.96346" fill="none" stroke="#ff0000" stroke-width="2"/>
<path d="M340.45,141.689h 7.96346" fill="none" stroke="#ff0000" stroke-width="2"/>
<g stroke="black" stroke-width="1" fill="none">
<line x1="339.45" y1="141.689" x2="340.45" y2="141.689"/>
</g>
<path d="M356.377,171.945v -17.8731" fill="none" stroke="#ff0000" stroke-width="2"/>
<path d="M356.377,154.072v -14.569" fill="none" stroke="#ff0000" stroke-width="2"/>
<path d="M348.413,154.072h 7.96346" fill="none" stroke="#ff0000" stroke-width="2"/>
<path d="M356.377,154.072h 7.96346" fill="none" stroke="#ff0000" stroke-width="2"/>
<g stroke="black" stroke-width="1" fill="none">
<line x1="355.377" y1="154.072" x2="356.377" y2="154.072"/>
</g>
<path d="M372.303,156.158v -17.7396" fill="none" stroke="#ff0000" stroke-width="2"/>
<path d="M372.303,138.418v -14.4803" fill="none" stroke="#ff0000" stroke-width="2"/>
<path d="M364.34,138.418h 7.96346" fill="none" stroke="#ff0000" stroke-width="2"/>
<path d="M372.303,138.418h 7.96346" fill="none" stroke="#ff0000" stroke-width="2"/>
<g stroke="black" stroke-width="1" fill="none">
<line x1="371.303" y1="138.418" x2="372.303" y2="138.418"/>
</g>
<path d="M388.23,158.506v -13.6158" fill="none" stroke="#ff0000" stroke-width="2"/>
<path d="M388.23,144.891v -11.6123" fill="none" stroke="#ff0000" stroke-width="2"/>
<path d="M380.267,144.891h 7.96346" fill="none" stroke="#ff0000" stroke-width="2"/>
<path d="M388.23,144.891h 7.96346" fill="none" stroke="#ff0000" stroke-width="2"/>
<g stroke="black" stroke-width="1" fill="none">
<line x1="387.23" y1="144.891" x2="388.23" y2="144.891"/>
</g>
<path d="M404.157,148.56v -14.8473" fill="none" stroke="#ff0000" stroke-width="2"/>
<path d="M404.157,133.712v -12.4955" fill="none" stroke="#ff0000" stroke-width="2"/>
<path d="M396.194,133.712h 7.96346" fill="none" stroke="#ff0000" stroke-width="2"/>
<path d="M404.157,133.712h 7.96346" fill="none" stroke="#ff0000" stroke-width="2"/>
<g stroke="black" stroke-width="1" fill="none">
<line x1="403.157" y1="133.712" x2="404.157" y2="133.712"/>
</g>
<path d="M420.084,127.641v -13.958" fill="none" stroke="#ff0000" stroke-width="2"/>
<path d="M420.084,113.683v -11.8601" fill="none" stroke="#ff0000" stroke-width="2"/>
<path d="M412.121,113.683h 7.96346" fill="none" stroke="#ff0000" stroke-width="2"/>
<path d="M420.084,113.683h 7.96346" fill="none" stroke="#ff0000" stroke-width="2"/>
<g stroke="black" stroke-width="1" fill="none">
<line x1="419.084" y1="113.683" x2="420.084" y2="113.683"/>
</g>
<path d="M436.011,135.422v -11.7346" fill="none" stroke="#ff0000" stroke-width="2"/>
<path d="M436.011,123.687v -10.2163" fill="none" stroke="#ff0000" stroke-width="2"/>
<path d="M428.048,123.687h 7.96346" fill="none" stroke="#ff0000" stroke-width="2"/>
<path d="M436.011,123.687h 7.96346" fill="none" stroke="#ff0000" stroke-width="2"/>
<g stroke="black" stroke-width="1" fill="none">
<line x1="435.011" y1="123.687" x2="436.011" y2="123.687"/>
</g>
<path d="M451.938,145.443v -12.47" fill="none" stroke="#ff0000" stroke-width="2"/>
<path d="M451.938,132.973v -10.7689" fill="none" stroke="#ff0000" stroke-width="2"/>
<path d="M443.975,132.973h 7.96346" fill="none" stroke="#ff0000" stroke-width="2"/>
<path d="M451.938,132.973h 7.96346" fill="none" stroke="#ff0000" stroke-width="2"/>
<g stroke="black" stroke-width="1" fill="none">
<line x1="450.938" y1="132.973" x2="451.938" y2="132.973"/>
</g>
<path d="M467.865,112.466v -14.8261" fill="none" stroke="#ff0000" stroke-width="2"/>
<path d="M467.865,97.6402v -12.4805" fill="none" stroke="#ff0000" stroke-width="2"/>
<path d="M459.902,97.6402h 7.96346" fill="none" stroke="#ff0000" stroke-width="2"/>
<path d="M467.865,97.6402h 7.96346" fill="none" stroke="#ff0000" stroke-width="2"/>
<g stroke="black" stroke-width="1" fill="none">
<line x1="466.865" y1="97.6402" x2="467.865" y2="97.6402"/>
</g>
<path d="M483.792,74.5432v -7.98663" fill="none" stroke="#ff0000" stroke-width="2"/>
<path d="M483.792,66.5566v -7.25352" fill="none" stroke="#ff0000" stroke-width="2"/>
<path d="M475.828,66.5566h 7.96346" fill="none" stroke="#ff0000" stroke-width="2"/>
<path d="M483.792,66.5566h 7.96346" fill="none" stroke="#ff0000" stroke-width="2"/>
<g stroke="black" stroke-width="1" fill="none">
<line x1="482.792" y1="66.5566" x2="483.792" y2="66.5566"/>
</g>
<path d="M499.719,99.6646v -11.1089" fill="none" stroke="#ff0000" stroke-width="2"/>
<path d="M499.719,88.5557v -9.73885" fill="none" stroke="#ff0000" stroke-width="2"/>
<path d="M491.755,88.5557h 7.96346" fill="none" stroke="#ff0000" stroke-width="2"/>
<path d="M499.719,88.5557h 7.96346" fill="none" stroke="#ff0000" stroke-width="2"/>
<g stroke="black" stroke-width="1" fill="none">
<line x1="498.719" y1="88.5557" x2="499.719" y2="88.5557"/>
</g>
<path d="M61.7283,267.575h 477.808" fill="none" stroke="black"/>
<path d="M61.7283,260.813v 6.76256" fill="none" stroke="black"/>
<path d="M77.6553,264.194v 3.38128" fill="none" stroke="black"/>
<path d="M93.5822,264.194v 3.38128" fill="none" stroke="black"/>
<path d="M109.509,264.194v 3.38128" fill="none" stroke="black"/>
<path d="M125.436,264.194v 3.38128" fill="none" stroke="black"/>
<path d="M141.363,260.813v 6.76256" fill="none" stroke="black"/>
<path d="M157.29,264.194v 3.38128" fill="none" stroke="black"/>
<path d="M173.217,264.194v 3.38128" fill="none" stroke="black"/>
<path d="M189.144,264.194v 3.38128" fill="none" stroke="black"/>
<path d="M205.071,264.194v 3.38128" fill="none" stroke="black"/>
<path d="M220.998,260.813v 6.76256" fill="none" stroke="black"/>
<path d="M236.925,264.194v 3.38128" fill="none" stroke="black"/>
<path d="M252.852,264.194v 3.38128" fill="none" stroke="black"/>
<path d="M268.778,264.194v 3.38128" fill="none" stroke="black"/>
<path d="M284.705,264.194v 3.38128" fill="none" stroke="black"/>
<path d="M300.632,260.813v 6.76256" fill="none" stroke="black"/>
<path d="M316.559,264.194v 3.38128" fill="none" stroke="black"/>
<path d="M332.486,264.194v 3.38128" fill="none" stroke="black"/>
<path d="M348.413,264.194v 3.38128" fill="none" stroke="black"/>
<path d="M364.34,264.194v 3.38128" fill="none" stroke="black"/>
<path d="M380.267,260.813v 6.76256" fill="none" stroke="black"/>
<path d="M396.194,264.194v 3.38128" fill="none" stroke="black"/>
<path d="M412.121,264.194v 3.38128" fill="none" stroke="black"/>
<path d="M428.048,264.194v 3.38128" fill="none" stroke="black"/>
<path d="M443.975,264.194v 3.38128" fill="none" stroke="black"/>
<path d="M459.902,260.813v 6.76256" fill="none" stroke="black"/>
<path d="M475.828,264.194v 3.38128" fill="none" stroke="black"/>
<path d="M491.755,264.194v 3.38128" fill="none" stroke="black"/>
<path d="M507.682,264.194v 3.38128" fill="none" stroke="black"/>
<path d="M523.609,264.194v 3.38128" fill="none" stroke="black"/>
<path d="M539.536,260.813v 6.76256" fill="none" stroke="black"/>
<path d="M61.7283,267.575v -259.493" fill="none" stroke="black"/>
<path d="M69.9789,265.238h -8.25052" fill="none" stroke="black"/>
<path d="M69.9789,254.678h -8.25052" fill="none" stroke="black"/>
<path d="M69.9789,245.364h -8.25052" fill="none" stroke="black"/>
<path d="M78.2294,237.032h -16.501" fill="none" stroke="black"/>
<text xml:space="preserve" x="53.5904" y="240.803" fill="black" font-size="8.91652" font-family="Helvetica">1</text>
<path d="M69.9789,182.216h -8.25052" fill="none" stroke="black"/>
<path d="M69.9789,150.151h -8.25052" fill="none" stroke="black"/>
<path d="M69.9789,127.4h -8.25052" fill="none" stroke="black"/>
<path d="M69.9789,109.753h -8.25052" fill="none" stroke="black"/>
<path d="M69.9789,95.3347h -8.25052" fill="none" stroke="black"/>
<path d="M69.9789,83.144h -8.25052" fill="none" stroke="black"/>
<path d="M69.9789,72.584h -8.25052" fill="none" stroke="black"/>
<path d="M69.9789,63.2694h -8.25052" fill="none" stroke="black"/>
<path d="M78.2294,54.9372h -16.501" fill="none" stroke="black"/>
<text xml:space="preserve" x="47.9021" y="57.8306" fill="black" font-size="8.91652" font-family="Helvetica">10</text>
<g transform="rotate(-90,24.201,35.0776)">
<text xml:space="preserve" x="24.201" y="35.0776" fill="black" font-size="14.9283" font-family="Helvetica">nJet</text>
</g>
<path d="M101.546,74.9598v -5.19602" fill="none" stroke="#006699" stroke-width="2"/>
<path d="M101.546,69.7638v -4.87557" fill="none" stroke="#006699" stroke-width="2"/>
<g stroke="black" stroke-width="1" fill="none">
<line x1="100.546" y1="69.7638" x2="101.546" y2="69.7638"/>
</g>
<path d="M117.473,67.9499v -4.7233" fill="none" stroke="#006699" stroke-width="2"/>
<path d="M117.473,63.2266v -4.45703" fill="none" stroke="#006699" stroke-width="2"/>
<g stroke="black" stroke-width="1" fill="none">
<line x1="116.473" y1="63.2266" x2="117.473" y2="63.2266"/>
</g>
<path d="M133.4,100.511v -5.10465" fill="none" stroke="#006699" stroke-width="2"/>
<path d="M133.4,95.4068v -4.79503" fill="none" stroke="#006699" stroke-width="2"/>
<g stroke="black" stroke-width="1" fill="none">
<line x1="132.4" y1="95.4068" x2="133.4" y2="95.4068"/>
</g>
<path d="M149.326,146.763v -5.58697" fill="none" stroke="#006699" stroke-width="2"/>
<path d="M149.326,141.176v -5.21818" fill="none" stroke="#006699" stroke-width="2"/>
<g stroke="black" stroke-width="1" fill="none">
<line x1="148.326" y1="141.176" x2="149.326" y2="141.176"/>
</g>
<path d="M165.253,153.22v -7.2971" fill="none" stroke="#006699" stroke-width="2"/>
<path d="M165.253,145.922v -6.6803" fill="none" stroke="#006699" stroke-width="2"/>
<g stroke="black" stroke-width="1" fill="none">
<line x1="164.253" y1="145.922" x2="165.253" y2="145.922"/>
</g>
<path d="M181.18,134.064v -5.47462" fill="none" stroke="#006699" stroke-width="2"/>
<path d="M181.18,128.589v -5.12005" fill="none" stroke="#006699" stroke-width="2"/>
<g stroke="black" stroke-width="1" fill="none">
<line x1="180.18" y1="128.589" x2="181.18" y2="128.589"/>
</g>
<path d="M197.107,121.538v -4.85679" fill="none" stroke="#006699" stroke-width="2"/>
<path d="M197.107,116.681v -4.5757" fill="none" stroke="#006699" stroke-width="2"/>
<g stroke="black" stroke-width="1" fill="none">
<line x1="196.107" y1="116.681" x2="197.107" y2="116.681"/>
</g>
<path d="M213.034,133.538v -4.15938" fill="none" stroke="#006699" stroke-width="2"/>
<path d="M213.034,129.379v -3.9515" fill="none" stroke="#006699" stroke-width="2"/>
<g stroke="black" stroke-width="1" fill="none">
<line x1="212.034" y1="129.379" x2="213.034" y2="129.379"/>
</g>
<path d="M228.961,165.517v -6.44545" fill="none" stroke="#006699" stroke-width="2"/>
<path d="M228.961,159.071v -5.95948" fill="none" stroke="#006699" stroke-width="2"/>
<g stroke="black" stroke-width="1" fill="none">
<line x1="227.961" y1="159.071" x2="228.961" y2="159.071"/>
</g>
<path d="M244.888,176.904v -5.76544" fill="none" stroke="#006699" stroke-width="2"/>
<path d="M244.888,171.138v -5.37352" fill="none" stroke="#006699" stroke-width="2"/>
<g stroke="black" stroke-width="1" fill="none">
<line x1="243.888" y1="171.138" x2="244.888" y2="171.138"/>
</g>
<path d="M260.815,165.286v -6.21488" fill="none" stroke="#006699" stroke-width="2"/>
<path d="M260.815,159.071v -5.76185" fill="none" stroke="#006699" stroke-width="2"/>
<g stroke="black" stroke-width="1" fill="none">
<line x1="259.815" y1="159.071" x2="260.815" y2="159.071"/>
</g>
<path d="M276.742,157.648v -6.62915" fill="none" stroke="#006699" stroke-width="2"/>
<path d="M276.742,151.019v -6.11618" fill="none" stroke="#006699" stroke-width="2"/>
<g stroke="black" stroke-width="1" fill="none">
<line x1="275.742" y1="151.019" x2="276.742" y2="151.019"/>
</g>
<path d="M292.669,153.903v -7.38679" fill="none" stroke="#006699" stroke-width="2"/>
<path d="M292.669,146.516v -6.75538" fill="none" stroke="#006699" stroke-width="2"/>
<g stroke="black" stroke-width="1" fill="none">
<line x1="291.669" y1="146.516" x2="292.669" y2="146.516"/>
</g>
<path d="M308.596,159.73v -5.86938" fill="none" stroke="#006699" stroke-width="2"/>
<path d="M308.596,153.861v -5.4637" fill="none" stroke="#006699" stroke-width="2"/>
<g stroke="black" stroke-width="1" fill="none">
<line x1="307.596" y1="153.861" x2="308.596" y2="153.861"/>
</g>
<path d="M324.523,160.428v -6.11931" fill="none" stroke="#006699" stroke-width="2"/>
<path d="M324.523,154.309v -5.67963" fill="none" stroke="#006699" stroke-width="2"/>
<g stroke="black" stroke-width="1" fill="none">
<line x1="323.523" y1="154.309" x2="324.523" y2="154.309"/>
</g>
<path d="M340.45,161.492v -5.98293" fill="none" stroke="#006699" stroke-width="2"/>
<path d="M340.45,155.509v -5.56196" fill="none" stroke="#006699" stroke-width="2"/>
<g stroke="black" stroke-width="1" fill="none">
<line x1="339.45" y1="155.509" x2="340.45" y2="155.509"/>
</g>
<path d="M356.377,168.022v -5.84431" fill="none" stroke="#006699" stroke-width="2"/>
<path d="M356.377,162.178v -5.44197" fill="none" stroke="#006699" stroke-width="2"/>
<g stroke="black" stroke-width="1" fill="none">
<line x1="355.377" y1="162.178" x2="356.377" y2="162.178"/>
</g>
<path d="M372.303,156.625v -5.7742" fill="none" stroke="#006699" stroke-width="2"/>
<path d="M372.303,150.851v -5.38114" fill="none" stroke="#006699" stroke-width="2"/>
<g stroke="black" stroke-width="1" fill="none">
<line x1="371.303" y1="150.851" x2="372.303" y2="150.851"/>
</g>
<path d="M388.23,125.241v -6.01416" fill="none" stroke="#006699" stroke-width="2"/>
<path d="M388.23,119.227v -5.58894" fill="none" stroke="#006699" stroke-width="2"/>
<g stroke="black" stroke-width="1" fill="none">
<line x1="387.23" y1="119.227" x2="388.23" y2="119.227"/>
</g>
<path d="M404.157,127.667v -4.59331" fill="none" stroke="#006699" stroke-width="2"/>
<path d="M404.157,123.074v -4.3411" fill="none" stroke="#006699" stroke-width="2"/>
<g stroke="black" stroke-width="1" fill="none">
<line x1="403.157" y1="123.074" x2="404.157" y2="123.074"/>
</g>
<path d="M420.084,145.267v -5.15857" fill="none" stroke="#006699" stroke-width="2"/>
<path d="M420.084,140.109v -4.84258" fill="none" stroke="#006699" stroke-width="2"/>
<g stroke="black" stroke-width="1" fill="none">
<line x1="419.084" y1="140.109" x2="420.084" y2="140.109"/>
</g>
<path d="M436.011,146.738v -5.59399" fill="none" stroke="#006699" stroke-width="2"/>
<path d="M436.011,141.144v -5.2243" fill="none" stroke="#006699" stroke-width="2"/>
<g stroke="black" stroke-width="1" fill="none">
<line x1="435.011" y1="141.144" x2="436.011" y2="141.144"/>
</g>
<path d="M451.938,156.495v -7.48309" fill="none" stroke="#006699" stroke-width="2"/>
<path d="M451.938,149.011v -6.83582" fill="none" stroke="#006699" stroke-width="2"/>
<g stroke="black" stroke-width="1" fill="none">
<line x1="450.938" y1="149.011" x2="451.938" y2="149.011"/>
</g>
<path d="M467.865,104.102v -4.40417" fill="none" stroke="#006699" stroke-width="2"/>
<path d="M467.865,99.6982v -4.17178" fill="none" stroke="#006699" stroke-width="2"/>
<g stroke="black" stroke-width="1" fill="none">
<line x1="466.865" y1="99.6982" x2="467.865" y2="99.6982"/>
</g>
<path d="M483.792,75.7718v -4.65107" fill="none" stroke="#006699" stroke-width="2"/>
<path d="M483.792,71.1208v -4.39266" fill="none" stroke="#006699" stroke-width="2"/>
<g stroke="black" stroke-width="1" fill="none">
<line x1="482.792" y1="71.1208" x2="483.792" y2="71.1208"/>
</g>
<path d="M499.719,89.2489v -5.80739" fill="none" stroke="#006699" stroke-width="2"/>
<path d="M499.719,83.4415v -5.40994" fill="none" stroke="#006699" stroke-width="2"/>
<g stroke="black" stroke-width="1" fill="none">
<line x1="498.719" y1="83.4415" x2="499.719" y2="83.4415"/>
</g>
<path d="M61.7283,267.575h 31.8539v -197.812h 15.9269v -6.5372h 15.9269v 32.1802h 15.9269v 45.7697h 15.9269v 4.74596h 15.9269v -17.3332h 15.9269v -11.9077h 15.9269v 12.6971h 15.9269v 29.6928h 15.9269v 12.0671h 15.9269v -12.0676h 15.9269v -8.05175h
 15.9269v -4.50296h 15.9269v 7.34474h 15.9269v 0.447876h 15.9269v 1.20003h 15.9269v 6.66913h 15.9269v -11.3268h 15.9269v -31.6241h 15.9269v 3.84672h 15.9269v 17.0347h 15.9269v 1.03534h 15.9269v 7.8676h 15.9269v -49.3132h 15.9269v -28.5775h 15.9269v
 12.3208h 15.9269v 184.134h 31.8539" fill="none" stroke="#006699" stroke-width="2"/>
<text xml:space="preserve" x="281.12" y="43.6099" fill="black" font-size="14.9283" font-family="Helvetica">light flavor</text>
<text xml:space="preserve" x="324.73" y="78.6875" fill="black" font-size="14.9283" font-family="Helvetica">True Background</text>
<path d="M283.668,74.8953h 34.011" fill="none" stroke="#ff0000" stroke-width="2"/>
<path d="M300.674,85.3238v -20.8569" fill="none" stroke="#ff0000" stroke-width="2"/>
<text xml:space="preserve" x="324.73" y="114.713" fill="black" font-size="14.9283" font-family="Helvetica">Predict</text>
<path d="M283.668,109.657h 34.011" fill="none" stroke="#006699" stroke-width="2"/>
<path d="M300.674,120.085v -20.8569" fill="none" stroke="#006699" stroke-width="2"/>
<rect x="6.16929" y="278.497" width="555.591" height="262.115" fill="none"/>
<rect x="61.7283" y="278.497" width="477.808" height="209.692" fill="none"/>
<rect x="61.7283" y="278.497" width="477.808" height="209.692" fill="none" stroke="black"/>
<rect x="61.7283" y="278.497" width="477.808" height="209.692" fill="none"/>
<rect x="61.7283" y="278.497" width="477.808" height="209.692" fill="none" stroke="black"/>
<path d="M101.546,438.076v -7.18715" fill="none" stroke="black" stroke-width="2"/>
<path d="M101.546,430.889v -7.18715" fill="none" stroke="black" stroke-width="2"/>
<path d="M93.5822,430.889h 7.96346" fill="none" stroke="black" stroke-width="2"/>
<path d="M101.546,430.889h 7.96346" fill="none" stroke="black" stroke-width="2"/>
<g stroke="black" stroke-width="1" fill="none">
<line x1="100.546" y1="430.889" x2="101.546" y2="430.889"/>
</g>
<path d="M117.473,429.743v -8.29968" fill="none" stroke="black" stroke-width="2"/>
<path d="M117.473,421.443v -8.29968" fill="none" stroke="black" stroke-width="2"/>
<path d="M109.509,421.443h 7.96346" fill="none" stroke="black" stroke-width="2"/>
<path d="M117.473,421.443h 7.96346" fill="none" stroke="black" stroke-width="2"/>
<g stroke="black" stroke-width="1" fill="none">
<line x1="116.473" y1="421.443" x2="117.473" y2="421.443"/>
</g>
<path d="M133.4,432.802v -9.71188" fill="none" stroke="black" stroke-width="2"/>
<path d="M133.4,423.09v -9.71188" fill="none" stroke="black" stroke-width="2"/>
<path d="M125.436,423.09h 7.96346" fill="none" stroke="black" stroke-width="2"/>
<path d="M133.4,423.09h 7.96346" fill="none" stroke="black" stroke-width="2"/>
<g stroke="black" stroke-width="1" fill="none">
<line x1="132.4" y1="423.09" x2="133.4" y2="423.09"/>
</g>
<path d="M149.326,412.01v -16.8886" fill="none" stroke="black" stroke-width="2"/>
<path d="M149.326,395.121v -16.8886" fill="none" stroke="black" stroke-width="2"/>
<path d="M141.363,395.121h 7.96346" fill="none" stroke="black" stroke-width="2"/>
<path d="M149.326,395.121h 7.96346" fill="none" stroke="black" stroke-width="2"/>
<g stroke="black" stroke-width="1" fill="none">
<line x1="148.326" y1="395.121" x2="149.326" y2="395.121"/>
</g>
<path d="M165.253,426.182v -17.0356" fill="none" stroke="black" stroke-width="2"/>
<path d="M165.253,409.146v -17.0356" fill="none" stroke="black" stroke-width="2"/>
<path d="M157.29,409.146h 7.96346" fill="none" stroke="black" stroke-width="2"/>
<path d="M165.253,409.146h 7.96346" fill="none" stroke="black" stroke-width="2"/>
<g stroke="black" stroke-width="1" fill="none">
<line x1="164.253" y1="409.146" x2="165.253" y2="409.146"/>
</g>
<path d="M181.18,441.305v -14.2478" fill="none" stroke="black" stroke-width="2"/>
<path d="M181.18,427.057v -14.2478" fill="none" stroke="black" stroke-width="2"/>
<path d="M173.217,427.057h 7.96346" fill="none" stroke="black" stroke-width="2"/>
<path d="M181.18,427.057h 7.96346" fill="none" stroke="black" stroke-width="2"/>
<g stroke="black" stroke-width="1" fill="none">
<line x1="180.18" y1="427.057" x2="181.18" y2="427.057"/>
</g>
<path d="M197.107,454.933v -7.43801" fill="none" stroke="black" stroke-width="2"/>
<path d="M197.107,447.495v -7.43801" fill="none" stroke="black" stroke-width="2"/>
<path d="M189.144,447.495h 7.96346" fill="none" stroke="black" stroke-width="2"/>
<path d="M197.107,447.495h 7.96346" fill="none" stroke="black" stroke-width="2"/>
<g stroke="black" stroke-width="1" fill="none">
<line x1="196.107" y1="447.495" x2="197.107" y2="447.495"/>
</g>
<path d="M213.034,461.208v -7.2125" fill="none" stroke="black" stroke-width="2"/>
<path d="M213.034,453.995v -7.2125" fill="none" stroke="black" stroke-width="2"/>
<path d="M205.071,453.995h 7.96346" fill="none" stroke="black" stroke-width="2"/>
<path d="M213.034,453.995h 7.96346" fill="none" stroke="black" stroke-width="2"/>
<g stroke="black" stroke-width="1" fill="none">
<line x1="212.034" y1="453.995" x2="213.034" y2="453.995"/>
</g>
<path d="M228.961,422.891v -19.0693" fill="none" stroke="black" stroke-width="2"/>
<path d="M228.961,403.822v -19.0693" fill="none" stroke="black" stroke-width="2"/>
<path d="M220.998,403.822h 7.96346" fill="none" stroke="black" stroke-width="2"/>
<path d="M228.961,403.822h 7.96346" fill="none" stroke="black" stroke-width="2"/>
<g stroke="black" stroke-width="1" fill="none">
<line x1="227.961" y1="403.822" x2="228.961" y2="403.822"/>
</g>
<path d="M244.888,447.487v -11.7629" fill="none" stroke="black" stroke-width="2"/>
<path d="M244.888,435.724v -11.7629" fill="none" stroke="black" stroke-width="2"/>
<path d="M236.925,435.724h 7.96346" fill="none" stroke="black" stroke-width="2"/>
<path d="M244.888,435.724h 7.96346" fill="none" stroke="black" stroke-width="2"/>
<g stroke="black" stroke-width="1" fill="none">
<line x1="243.888" y1="435.724" x2="244.888" y2="435.724"/>
</g>
<path d="M260.815,422.146v -14.2505" fill="none" stroke="black" stroke-width="2"/>
<path d="M260.815,407.896v -14.2505" fill="none" stroke="black" stroke-width="2"/>
<path d="M252.852,407.896h 7.96346" fill="none" stroke="black" stroke-width="2"/>
<path d="M260.815,407.896h 7.96346" fill="none" stroke="black" stroke-width="2"/>
<g stroke="black" stroke-width="1" fill="none">
<line x1="259.815" y1="407.896" x2="260.815" y2="407.896"/>
</g>
<path d="M276.742,449.386v -10.4139" fill="none" stroke="black" stroke-width="2"/>
<path d="M276.742,438.972v -10.4139" fill="none" stroke="black" stroke-width="2"/>
<path d="M268.778,438.972h 7.96346" fill="none" stroke="black" stroke-width="2"/>
<path d="M276.742,438.972h 7.96346" fill="none" stroke="black" stroke-width="2"/>
<g stroke="black" stroke-width="1" fill="none">
<line x1="275.742" y1="438.972" x2="276.742" y2="438.972"/>
</g>
<path d="M292.669,443.403v -11.1156" fill="none" stroke="black" stroke-width="2"/>
<path d="M292.669,432.288v -11.1156" fill="none" stroke="black" stroke-width="2"/>
<path d="M284.705,432.288h 7.96346" fill="none" stroke="black" stroke-width="2"/>
<path d="M292.669,432.288h 7.96346" fill="none" stroke="black" stroke-width="2"/>
<g stroke="black" stroke-width="1" fill="none">
<line x1="291.669" y1="432.288" x2="292.669" y2="432.288"/>
</g>
<path d="M308.596,433.885v -12.3752" fill="none" stroke="black" stroke-width="2"/>
<path d="M308.596,421.51v -12.3752" fill="none" stroke="black" stroke-width="2"/>
<path d="M300.632,421.51h 7.96346" fill="none" stroke="black" stroke-width="2"/>
<path d="M308.596,421.51h 7.96346" fill="none" stroke="black" stroke-width="2"/>
<g stroke="black" stroke-width="1" fill="none">
<line x1="307.596" y1="421.51" x2="308.596" y2="421.51"/>
</g>
<path d="M324.523,448.373v -10.5374" fill="none" stroke="black" stroke-width="2"/>
<path d="M324.523,437.836v -10.5374" fill="none" stroke="black" stroke-width="2"/>
<path d="M316.559,437.836h 7.96346" fill="none" stroke="black" stroke-width="2"/>
<path d="M324.523,437.836h 7.96346" fill="none" stroke="black" stroke-width="2"/>
<g stroke="black" stroke-width="1" fill="none">
<line x1="323.523" y1="437.836" x2="324.523" y2="437.836"/>
</g>
<path d="M340.45,419.226v -14.2816" fill="none" stroke="black" stroke-width="2"/>
<path d="M340.45,404.945v -14.2816" fill="none" stroke="black" stroke-width="2"/>
<path d="M332.486,404.945h 7.96346" fill="none" stroke="black" stroke-width="2"/>
<path d="M340.45,404.945h 7.96346" fill="none" stroke="black" stroke-width="2"/>
<g stroke="black" stroke-width="1" fill="none">
<line x1="339.45" y1="404.945" x2="340.45" y2="404.945"/>
</g>
<path d="M356.377,427.355v -16.6084" fill="none" stroke="black" stroke-width="2"/>
<path d="M356.377,410.747v -16.6084" fill="none" stroke="black" stroke-width="2"/>
<path d="M348.413,410.747h 7.96346" fill="none" stroke="black" stroke-width="2"/>
<path d="M356.377,410.747h 7.96346" fill="none" stroke="black" stroke-width="2"/>
<g stroke="black" stroke-width="1" fill="none">
<line x1="355.377" y1="410.747" x2="356.377" y2="410.747"/>
</g>
<path d="M372.303,423.808v -17.416" fill="none" stroke="black" stroke-width="2"/>
<path d="M372.303,406.392v -17.416" fill="none" stroke="black" stroke-width="2"/>
<path d="M364.34,406.392h 7.96346" fill="none" stroke="black" stroke-width="2"/>
<path d="M372.303,406.392h 7.96346" fill="none" stroke="black" stroke-width="2"/>
<g stroke="black" stroke-width="1" fill="none">
<line x1="371.303" y1="406.392" x2="372.303" y2="406.392"/>
</g>
<path d="M388.23,446.468v -8.80666" fill="none" stroke="black" stroke-width="2"/>
<path d="M388.23,437.661v -8.80666" fill="none" stroke="black" stroke-width="2"/>
<path d="M380.267,437.661h 7.96346" fill="none" stroke="black" stroke-width="2"/>
<path d="M388.23,437.661h 7.96346" fill="none" stroke="black" stroke-width="2"/>
<g stroke="black" stroke-width="1" fill="none">
<line x1="387.23" y1="437.661" x2="388.23" y2="437.661"/>
</g>
<path d="M404.157,438.101v -11.0122" fill="none" stroke="black" stroke-width="2"/>
<path d="M404.157,427.089v -11.0122" fill="none" stroke="black" stroke-width="2"/>
<path d="M396.194,427.089h 7.96346" fill="none" stroke="black" stroke-width="2"/>
<path d="M404.157,427.089h 7.96346" fill="none" stroke="black" stroke-width="2"/>
<g stroke="black" stroke-width="1" fill="none">
<line x1="403.157" y1="427.089" x2="404.157" y2="427.089"/>
</g>
<path d="M420.084,407.516v -16.9569" fill="none" stroke="black" stroke-width="2"/>
<path d="M420.084,390.559v -16.9569" fill="none" stroke="black" stroke-width="2"/>
<path d="M412.121,390.559h 7.96346" fill="none" stroke="black" stroke-width="2"/>
<path d="M420.084,390.559h 7.96346" fill="none" stroke="black" stroke-width="2"/>
<g stroke="black" stroke-width="1" fill="none">
<line x1="419.084" y1="390.559" x2="420.084" y2="390.559"/>
</g>
<path d="M436.011,414.439v -13.4128" fill="none" stroke="black" stroke-width="2"/>
<path d="M436.011,401.027v -13.4128" fill="none" stroke="black" stroke-width="2"/>
<path d="M428.048,401.027h 7.96346" fill="none" stroke="black" stroke-width="2"/>
<path d="M436.011,401.027h 7.96346" fill="none" stroke="black" stroke-width="2"/>
<g stroke="black" stroke-width="1" fill="none">
<line x1="435.011" y1="401.027" x2="436.011" y2="401.027"/>
</g>
<path d="M451.938,417.263v -14.6876" fill="none" stroke="black" stroke-width="2"/>
<path d="M451.938,402.576v -14.6876" fill="none" stroke="black" stroke-width="2"/>
<path d="M443.975,402.576h 7.96346" fill="none" stroke="black" stroke-width="2"/>
<path d="M451.938,402.576h 7.96346" fill="none" stroke="black" stroke-width="2"/>
<g stroke="black" stroke-width="1" fill="none">
<line x1="450.938" y1="402.576" x2="451.938" y2="402.576"/>
</g>
<path d="M467.865,429.313v -12.865" fill="none" stroke="black" stroke-width="2"/>
<path d="M467.865,416.448v -12.865" fill="none" stroke="black" stroke-width="2"/>
<path d="M459.902,416.448h 7.96346" fill="none" stroke="black" stroke-width="2"/>
<path d="M467.865,416.448h 7.96346" fill="none" stroke="black" stroke-width="2"/>
<g stroke="black" stroke-width="1" fill="none">
<line x1="466.865" y1="416.448" x2="467.865" y2="416.448"/>
</g>
<path d="M483.792,422.414v -8.27559" fill="none" stroke="black" stroke-width="2"/>
<path d="M483.792,414.139v -8.27559" fill="none" stroke="black" stroke-width="2"/>
<path d="M475.828,414.139h 7.96346" fill="none" stroke="black" stroke-width="2"/>
<path d="M483.792,414.139h 7.96346" fill="none" stroke="black" stroke-width="2"/>
<g stroke="black" stroke-width="1" fill="none">
<line x1="482.792" y1="414.139" x2="483.792" y2="414.139"/>
</g>
<path d="M499.719,432.428v -9.75954" fill="none" stroke="black" stroke-width="2"/>
<path d="M499.719,422.668v -9.75954" fill="none" stroke="black" stroke-width="2"/>
<path d="M491.755,422.668h 7.96346" fill="none" stroke="black" stroke-width="2"/>
<path d="M499.719,422.668h 7.96346" fill="none" stroke="black" stroke-width="2"/>
<g stroke="black" stroke-width="1" fill="none">
<line x1="498.719" y1="422.668" x2="499.719" y2="422.668"/>
</g>
<path d="M64.1174,436.283l 4.77808, -0.201967l 4.77808, -0.201967l 4.77808, -0.201967l 4.77808, -0.201967l 4.77808, -0.201967l 4.77808, -0.201967l 4.77808, -0.201967l 4.77808, -0.201967l 4.77808, -0.201967l 4.77808, -0.201967l 4.77808, -0.201967l
 4.77808, -0.201967l 4.77808, -0.201967l 4.77808, -0.201967l 4.77808, -0.201967l 4.77808, -0.201967l 4.77808, -0.201967l 4.77808, -0.201967l 4.77808, -0.201967l 4.77808, -0.201967l 4.77808, -0.201967l 4.77808, -0.201967l 4.77808, -0.201967l 4.77808,
 -0.201967l 4.77808, -0.201967l 4.77808, -0.201967l 4.77808, -0.201967l 4.77808, -0.201967l 4.77808, -0.201967l 4.77808, -0.201967l 4.77808, -0.201967l 4.77808, -0.201967l 4.77808, -0.201967l 4.77808, -0.201967l 4.77808, -0.201967l 4.77808,
 -0.201967l 4.77808, -0.201967l 4.77808, -0.201967l 4.77808, -0.201967l 4.77808, -0.201967l 4.77808, -0.201967l 4.77808, -0.201967l 4.77808, -0.201967l 4.77808, -0.201967l 4.77808, -0.201967l 4.77808, -0.201967l 4.77808, -0.201967l 4.77808,
 -0.201967l 4.77808, -0.201967" fill="none" stroke="#339966" stroke-width="2"/>
<path d="M298.243,426.386l 4.77808, -0.201967l 4.77808, -0.201967l 4.77808, -0.201967l 4.77808, -0.201967l 4.77808, -0.201967l 4.77808, -0.201967l 4.77808, -0.201967l 4.77808, -0.201967l 4.77808, -0.201967l 4.77808, -0.201967l 4.77808, -0.201967l
 4.77808, -0.201967l 4.77808, -0.201967l 4.77808, -0.201967l 4.77808, -0.201967l 4.77808, -0.201967l 4.77808, -0.201967l 4.77808, -0.201967l 4.77808, -0.201967l 4.77808, -0.201967l 4.77808, -0.201967l 4.77808, -0.201967l 4.77808, -0.201967l 4.77808,
 -0.201967l 4.77808, -0.201967l 4.77808, -0.201967l 4.77808, -0.201967l 4.77808, -0.201967l 4.77808, -0.201967l 4.77808, -0.201967l 4.77808, -0.201967l 4.77808, -0.201967l 4.77808, -0.201967l 4.77808, -0.201967l 4.77808, -0.201967l 4.77808,
 -0.201967l 4.77808, -0.201967l 4.77808, -0.201967l 4.77808, -0.201967l 4.77808, -0.201967l 4.77808, -0.201967l 4.77808, -0.201967l 4.77808, -0.201967l 4.77808, -0.201967l 4.77808, -0.201967l 4.77808, -0.201967l 4.77808, -0.201967l 4.77808,
 -0.201967l 4.77808, -0.201967" fill="none" stroke="#339966" stroke-width="2"/>
<path d="M532.369,416.49l 4.77808, -0.201967" fill="none" stroke="#339966" stroke-width="2"/>
<path d="M61.7283,488.189h 477.808" fill="none" stroke="black"/>
<path d="M61.7283,481.426v 6.76256" fill="none" stroke="black"/>
<path d="M77.6553,484.807v 3.38128" fill="none" stroke="black"/>
<path d="M93.5822,484.807v 3.38128" fill="none" stroke="black"/>
<path d="M109.509,484.807v 3.38128" fill="none" stroke="black"/>
<path d="M125.436,484.807v 3.38128" fill="none" stroke="black"/>
<path d="M141.363,481.426v 6.76256" fill="none" stroke="black"/>
<path d="M157.29,484.807v 3.38128" fill="none" stroke="black"/>
<path d="M173.217,484.807v 3.38128" fill="none" stroke="black"/>
<path d="M189.144,484.807v 3.38128" fill="none" stroke="black"/>
<path d="M205.071,484.807v 3.38128" fill="none" stroke="black"/>
<path d="M220.998,481.426v 6.76256" fill="none" stroke="black"/>
<path d="M236.925,484.807v 3.38128" fill="none" stroke="black"/>
<path d="M252.852,484.807v 3.38128" fill="none" stroke="black"/>
<path d="M268.778,484.807v 3.38128" fill="none" stroke="black"/>
<path d="M284.705,484.807v 3.38128" fill="none" stroke="black"/>
<path d="M300.632,481.426v 6.76256" fill="none" stroke="black"/>
<path d="M316.559,484.807v 3.38128" fill="none" stroke="black"/>
<path d="M332.486,484.807v 3.38128" fill="none" stroke="black"/>
<path d="M348.413,484.807v 3.38128" fill="none" stroke="black"/>
<path d="M364.34,484.807v 3.38128" fill="none" stroke="black"/>
<path d="M380.267,481.426v 6.76256" fill="none" stroke="black"/>
<path d="M396.194,484.807v 3.38128" fill="none" stroke="black"/>
<path d="M412.121,484.807v 3.38128" fill="none" stroke="black"/>
<path d="M428.048,484.807v 3.38128" fill="none" stroke="black"/>
<path d="M443.975,484.807v 3.38128" fill="none" stroke="black"/>
<path d="M459.902,481.426v 6.76256" fill="none" stroke="black"/>
<path d="M475.828,484.807v 3.38128" fill="none" stroke="black"/>
<path d="M491.755,484.807v 3.38128" fill="none" stroke="black"/>
<path d="M507.682,484.807v 3.38128" fill="none" stroke="black"/>
<path d="M523.609,484.807v 3.38128" fill="none" stroke="black"/>
<path d="M539.536,481.426v 6.76256" fill="none" stroke="black"/>
<text xml:space="preserve" x="60.2266" y="496.774" fill="black" font-size="8.91652" font-family="Helvetica">3</text>
<text xml:space="preserve" x="56.4345" y="496.774" fill="black" font-size="8.91652" font-family="Times">&#8722;</text>
<text xml:space="preserve" x="139.862" y="496.774" fill="black" font-size="8.91652" font-family="Helvetica">2</text>
<text xml:space="preserve" x="136.07" y="496.774" fill="black" font-size="8.91652" font-family="Times">&#8722;</text>
<text xml:space="preserve" x="220.446" y="496.774" fill="black" font-size="8.91652" font-family="Helvetica">1</text>
<text xml:space="preserve" x="215.706" y="496.774" fill="black" font-size="8.91652" font-family="Times">&#8722;</text>
<text xml:space="preserve" x="297.237" y="496.774" fill="black" font-size="8.91652" font-family="Helvetica">0</text>
<text xml:space="preserve" x="377.821" y="496.774" fill="black" font-size="8.91652" font-family="Helvetica">1</text>
<text xml:space="preserve" x="456.508" y="496.774" fill="black" font-size="8.91652" font-family="Helvetica">2</text>
<text xml:space="preserve" x="536.144" y="496.774" fill="black" font-size="8.91652" font-family="Helvetica">3</text>
<text xml:space="preserve" x="531.404" y="516.683" fill="black" font-size="14.9283" font-family="Times">&#0951;</text>
<text xml:space="preserve" x="507.702" y="516.683" fill="black" font-size="14.9283" font-family="Helvetica">Jet </text>
<path d="M61.7283,278.497h 477.808" fill="none" stroke="black"/>
<path d="M61.7283,285.259v -6.76256" fill="none" stroke="black"/>
<path d="M77.6553,281.878v -3.38128" fill="none" stroke="black"/>
<path d="M93.5822,281.878v -3.38128" fill="none" stroke="black"/>
<path d="M109.509,281.878v -3.38128" fill="none" stroke="black"/>
<path d="M125.436,281.878v -3.38128" fill="none" stroke="black"/>
<path d="M141.363,285.259v -6.76256" fill="none" stroke="black"/>
<path d="M157.29,281.878v -3.38128" fill="none" stroke="black"/>
<path d="M173.217,281.878v -3.38128" fill="none" stroke="black"/>
<path d="M189.144,281.878v -3.38128" fill="none" stroke="black"/>
<path d="M205.071,281.878v -3.38128" fill="none" stroke="black"/>
<path d="M220.998,285.259v -6.76256" fill="none" stroke="black"/>
<path d="M236.925,281.878v -3.38128" fill="none" stroke="black"/>
<path d="M252.852,281.878v -3.38128" fill="none" stroke="black"/>
<path d="M268.778,281.878v -3.38128" fill="none" stroke="black"/>
<path d="M284.705,281.878v -3.38128" fill="none" stroke="black"/>
<path d="M300.632,285.259v -6.76256" fill="none" stroke="black"/>
<path d="M316.559,281.878v -3.38128" fill="none" stroke="black"/>
<path d="M332.486,281.878v -3.38128" fill="none" stroke="black"/>
<path d="M348.413,281.878v -3.38128" fill="none" stroke="black"/>
<path d="M364.34,281.878v -3.38128" fill="none" stroke="black"/>
<path d="M380.267,285.259v -6.76256" fill="none" stroke="black"/>
<path d="M396.194,281.878v -3.38128" fill="none" stroke="black"/>
<path d="M412.121,281.878v -3.38128" fill="none" stroke="black"/>
<path d="M428.048,281.878v -3.38128" fill="none" stroke="black"/>
<path d="M443.975,281.878v -3.38128" fill="none" stroke="black"/>
<path d="M459.902,285.259v -6.76256" fill="none" stroke="black"/>
<path d="M475.828,281.878v -3.38128" fill="none" stroke="black"/>
<path d="M491.755,281.878v -3.38128" fill="none" stroke="black"/>
<path d="M507.682,281.878v -3.38128" fill="none" stroke="black"/>
<path d="M523.609,281.878v -3.38128" fill="none" stroke="black"/>
<path d="M539.536,285.259v -6.76256" fill="none" stroke="black"/>
<path d="M61.7283,488.189v -209.692" fill="none" stroke="black"/>
<path d="M75.0625,488.189h -13.3342" fill="none" stroke="black"/>
<path d="M68.3954,481.199h -6.66709" fill="none" stroke="black"/>
<path d="M68.3954,474.209h -6.66709" fill="none" stroke="black"/>
<path d="M68.3954,467.219h -6.66709" fill="none" stroke="black"/>
<path d="M68.3954,460.23h -6.66709" fill="none" stroke="black"/>
<path d="M75.0625,453.24h -13.3342" fill="none" stroke="black"/>
<path d="M68.3954,446.25h -6.66709" fill="none" stroke="black"/>
<path d="M68.3954,439.26h -6.66709" fill="none" stroke="black"/>
<path d="M68.3954,432.271h -6.66709" fill="none" stroke="black"/>
<path d="M68.3954,425.281h -6.66709" fill="none" stroke="black"/>
<path d="M75.0625,418.291h -13.3342" fill="none" stroke="black"/>
<path d="M68.3954,411.302h -6.66709" fill="none" stroke="black"/>
<path d="M68.3954,404.312h -6.66709" fill="none" stroke="black"/>
<path d="M68.3954,397.322h -6.66709" fill="none" stroke="black"/>
<path d="M68.3954,390.332h -6.66709" fill="none" stroke="black"/>
<path d="M75.0625,383.343h -13.3342" fill="none" stroke="black"/>
<path d="M68.3954,376.353h -6.66709" fill="none" stroke="black"/>
<path d="M68.3954,369.363h -6.66709" fill="none" stroke="black"/>
<path d="M68.3954,362.374h -6.66709" fill="none" stroke="black"/>
<path d="M68.3954,355.384h -6.66709" fill="none" stroke="black"/>
<path d="M75.0625,348.394h -13.3342" fill="none" stroke="black"/>
<path d="M68.3954,341.404h -6.66709" fill="none" stroke="black"/>
<path d="M68.3954,334.415h -6.66709" fill="none" stroke="black"/>
<path d="M68.3954,327.425h -6.66709" fill="none" stroke="black"/>
<path d="M68.3954,320.435h -6.66709" fill="none" stroke="black"/>
<path d="M75.0625,313.445h -13.3342" fill="none" stroke="black"/>
<path d="M68.3954,306.456h -6.66709" fill="none" stroke="black"/>
<path d="M68.3954,299.466h -6.66709" fill="none" stroke="black"/>
<path d="M68.3954,292.476h -6.66709" fill="none" stroke="black"/>
<path d="M68.3954,285.487h -6.66709" fill="none" stroke="black"/>
<path d="M75.0625,278.497h -13.3342" fill="none" stroke="black"/>
<text xml:space="preserve" x="53.5904" y="491.086" fill="black" font-size="8.91652" font-family="Helvetica">0</text>
<text xml:space="preserve" x="46.006" y="456.956" fill="black" font-size="8.91652" font-family="Helvetica">0.5</text>
<text xml:space="preserve" x="54.5384" y="421.879" fill="black" font-size="8.91652" font-family="Helvetica">1</text>
<text xml:space="preserve" x="46.006" y="386.801" fill="black" font-size="8.91652" font-family="Helvetica">1.5</text>
<text xml:space="preserve" x="53.5904" y="351.724" fill="black" font-size="8.91652" font-family="Helvetica">2</text>
<text xml:space="preserve" x="46.006" y="316.646" fill="black" font-size="8.91652" font-family="Helvetica">2.5</text>
<text xml:space="preserve" x="53.5904" y="281.568" fill="black" font-size="8.91652" font-family="Helvetica">3</text>
<g transform="rotate(-90,19.4608,458.852)">
<text xml:space="preserve" x="19.4608" y="458.852" fill="black" font-size="14.9283" font-family="Helvetica">True Background / Predicted</text>
</g>
<rect x="327.574" y="306.218" width="194.349" height="52.1423" fill="none" stroke="black"/>
<path d="M327.574,358.36h 194.349" fill="none" stroke="black"/>
<path d="M521.923,358.36v -52.1423" fill="none" stroke="black"/>
<path d="M521.923,306.218h -194.349" fill="none" stroke="black"/>
<path d="M327.574,306.218v 52.1423" fill="none" stroke="black"/>
<text xml:space="preserve" x="332.315" y="324.23" fill="black" font-size="14.9283" font-family="Helvetica">Fitting function</text>
<text xml:space="preserve" x="375.925" y="350.776" fill="black" font-size="14.9283" font-family="Helvetica">c0+c1*x</text>
<path d="M334.863,345.324h 34.011" fill="none" stroke="#339966" stroke-width="2"/></svg>
