<?xml version="1.0" standalone="no"?>
<svg width="567.429" height="546.572" viewBox="0 0 567.429 546.572" xmlns="http://www.w3.org/2000/svg" shape-rendering="crispEdges">
<title>
/home/kuanyu/Documents/CMS/Background_Estimate/fake_rate/top_emu/plot/CT_Top(emu)_bJetPt_dileppT_rg3_LO.svg
</title>
<desc>
Creator: ROOT Version 6.26/04
CreationDate: Fri Nov  4 16:08:52 2022</desc>
<defs>
</defs>
<rect x="0.5" y="0" width="566.929" height="546.072" fill="white"/>
<rect x="6.16929" y="5.46072" width="555.591" height="262.115" fill="white"/>
<rect x="61.7283" y="8.08187" width="477.808" height="259.493" fill="white"/>
<rect x="61.7283" y="8.08187" width="477.808" height="259.493" fill="none" stroke="black"/>
<rect x="61.7283" y="8.08187" width="477.808" height="259.493" fill="white"/>
<rect x="61.7283" y="8.08187" width="477.808" height="259.493" fill="none" stroke="black"/>
<path d="M76.0626,133.89v -33.1391" fill="none" stroke="#ff0000" stroke-width="2"/>
<path d="M76.0626,100.751v -33.1391" fill="none" stroke="#ff0000" stroke-width="2"/>
<path d="M71.2845,100.751h 4.77808" fill="none" stroke="#ff0000" stroke-width="2"/>
<path d="M76.0626,100.751h 4.77808" fill="none" stroke="#ff0000" stroke-width="2"/>
<g stroke="black" stroke-width="1" fill="none">
<line x1="75.0626" y1="100.751" x2="76.0626" y2="100.751"/>
</g>
<path d="M85.6187,82.7752v -31.1682" fill="none" stroke="#ff0000" stroke-width="2"/>
<path d="M85.6187,51.6069v -31.1682" fill="none" stroke="#ff0000" stroke-width="2"/>
<path d="M80.8407,51.6069h 4.77808" fill="none" stroke="#ff0000" stroke-width="2"/>
<path d="M85.6187,51.6069h 4.77808" fill="none" stroke="#ff0000" stroke-width="2"/>
<g stroke="black" stroke-width="1" fill="none">
<line x1="84.6187" y1="51.6069" x2="85.6187" y2="51.6069"/>
</g>
<path d="M95.1749,96.6652v -30.1535" fill="none" stroke="#ff0000" stroke-width="2"/>
<path d="M95.1749,66.5117v -30.1535" fill="none" stroke="#ff0000" stroke-width="2"/>
<path d="M90.3968,66.5117h 4.77808" fill="none" stroke="#ff0000" stroke-width="2"/>
<path d="M95.1749,66.5117h 4.77808" fill="none" stroke="#ff0000" stroke-width="2"/>
<g stroke="black" stroke-width="1" fill="none">
<line x1="94.1749" y1="66.5117" x2="95.1749" y2="66.5117"/>
</g>
<path d="M104.731,159.475v -24.4802" fill="none" stroke="#ff0000" stroke-width="2"/>
<path d="M104.731,134.995v -24.4802" fill="none" stroke="#ff0000" stroke-width="2"/>
<path d="M99.953,134.995h 4.77808" fill="none" stroke="#ff0000" stroke-width="2"/>
<path d="M104.731,134.995h 4.77808" fill="none" stroke="#ff0000" stroke-width="2"/>
<g stroke="black" stroke-width="1" fill="none">
<line x1="103.731" y1="134.995" x2="104.731" y2="134.995"/>
</g>
<path d="M119.065,159.732v -31.1752" fill="none" stroke="#ff0000" stroke-width="2"/>
<path d="M119.065,128.557v -31.1752" fill="none" stroke="#ff0000" stroke-width="2"/>
<path d="M109.509,128.557h 9.55616" fill="none" stroke="#ff0000" stroke-width="2"/>
<path d="M119.065,128.557h 9.55616" fill="none" stroke="#ff0000" stroke-width="2"/>
<g stroke="black" stroke-width="1" fill="none">
<line x1="118.065" y1="128.557" x2="119.065" y2="128.557"/>
</g>
<path d="M138.178,242.786v -23.6357" fill="none" stroke="#ff0000" stroke-width="2"/>
<path d="M138.178,219.15v -23.6357" fill="none" stroke="#ff0000" stroke-width="2"/>
<path d="M128.621,219.15h 9.55616" fill="none" stroke="#ff0000" stroke-width="2"/>
<path d="M138.178,219.15h 9.55616" fill="none" stroke="#ff0000" stroke-width="2"/>
<g stroke="black" stroke-width="1" fill="none">
<line x1="137.178" y1="219.15" x2="138.178" y2="219.15"/>
</g>
<path d="M189.144,267.575v -20.9066" fill="none" stroke="#ff0000" stroke-width="2"/>
<path d="M189.144,246.669v -20.9066" fill="none" stroke="#ff0000" stroke-width="2"/>
<path d="M173.217,246.669h 15.9269" fill="none" stroke="#ff0000" stroke-width="2"/>
<path d="M189.144,246.669h 15.9269" fill="none" stroke="#ff0000" stroke-width="2"/>
<g stroke="black" stroke-width="1" fill="none">
<line x1="188.144" y1="246.669" x2="189.144" y2="246.669"/>
</g>
<path d="M61.7283,267.575h 477.808" fill="none" stroke="black"/>
<path d="M61.7283,260.813v 6.76256" fill="none" stroke="black"/>
<path d="M77.6553,264.194v 3.38128" fill="none" stroke="black"/>
<path d="M93.5822,264.194v 3.38128" fill="none" stroke="black"/>
<path d="M109.509,264.194v 3.38128" fill="none" stroke="black"/>
<path d="M125.436,260.813v 6.76256" fill="none" stroke="black"/>
<path d="M141.363,264.194v 3.38128" fill="none" stroke="black"/>
<path d="M157.29,264.194v 3.38128" fill="none" stroke="black"/>
<path d="M173.217,264.194v 3.38128" fill="none" stroke="black"/>
<path d="M189.144,260.813v 6.76256" fill="none" stroke="black"/>
<path d="M205.071,264.194v 3.38128" fill="none" stroke="black"/>
<path d="M220.998,264.194v 3.38128" fill="none" stroke="black"/>
<path d="M236.925,264.194v 3.38128" fill="none" stroke="black"/>
<path d="M252.852,260.813v 6.76256" fill="none" stroke="black"/>
<path d="M268.778,264.194v 3.38128" fill="none" stroke="black"/>
<path d="M284.705,264.194v 3.38128" fill="none" stroke="black"/>
<path d="M300.632,264.194v 3.38128" fill="none" stroke="black"/>
<path d="M316.559,260.813v 6.76256" fill="none" stroke="black"/>
<path d="M332.486,264.194v 3.38128" fill="none" stroke="black"/>
<path d="M348.413,264.194v 3.38128" fill="none" stroke="black"/>
<path d="M364.34,264.194v 3.38128" fill="none" stroke="black"/>
<path d="M380.267,260.813v 6.76256" fill="none" stroke="black"/>
<path d="M396.194,264.194v 3.38128" fill="none" stroke="black"/>
<path d="M412.121,264.194v 3.38128" fill="none" stroke="black"/>
<path d="M428.048,264.194v 3.38128" fill="none" stroke="black"/>
<path d="M443.975,260.813v 6.76256" fill="none" stroke="black"/>
<path d="M459.902,264.194v 3.38128" fill="none" stroke="black"/>
<path d="M475.828,264.194v 3.38128" fill="none" stroke="black"/>
<path d="M491.755,264.194v 3.38128" fill="none" stroke="black"/>
<path d="M507.682,260.813v 6.76256" fill="none" stroke="black"/>
<path d="M507.682,260.813v 6.76256" fill="none" stroke="black"/>
<path d="M523.609,264.194v 3.38128" fill="none" stroke="black"/>
<path d="M61.7283,267.575v -259.493" fill="none" stroke="black"/>
<path d="M78.2294,267.575h -16.501" fill="none" stroke="black"/>
<path d="M69.9789,261.905h -8.25052" fill="none" stroke="black"/>
<path d="M69.9789,256.234h -8.25052" fill="none" stroke="black"/>
<path d="M69.9789,250.563h -8.25052" fill="none" stroke="black"/>
<path d="M69.9789,244.893h -8.25052" fill="none" stroke="black"/>
<path d="M78.2294,239.222h -16.501" fill="none" stroke="black"/>
<path d="M69.9789,233.551h -8.25052" fill="none" stroke="black"/>
<path d="M69.9789,227.88h -8.25052" fill="none" stroke="black"/>
<path d="M69.9789,222.21h -8.25052" fill="none" stroke="black"/>
<path d="M69.9789,216.539h -8.25052" fill="none" stroke="black"/>
<path d="M78.2294,210.868h -16.501" fill="none" stroke="black"/>
<path d="M69.9789,205.198h -8.25052" fill="none" stroke="black"/>
<path d="M69.9789,199.527h -8.25052" fill="none" stroke="black"/>
<path d="M69.9789,193.856h -8.25052" fill="none" stroke="black"/>
<path d="M69.9789,188.186h -8.25052" fill="none" stroke="black"/>
<path d="M78.2294,182.515h -16.501" fill="none" stroke="black"/>
<path d="M69.9789,176.844h -8.25052" fill="none" stroke="black"/>
<path d="M69.9789,171.173h -8.25052" fill="none" stroke="black"/>
<path d="M69.9789,165.503h -8.25052" fill="none" stroke="black"/>
<path d="M69.9789,159.832h -8.25052" fill="none" stroke="black"/>
<path d="M78.2294,154.161h -16.501" fill="none" stroke="black"/>
<path d="M69.9789,148.491h -8.25052" fill="none" stroke="black"/>
<path d="M69.9789,142.82h -8.25052" fill="none" stroke="black"/>
<path d="M69.9789,137.149h -8.25052" fill="none" stroke="black"/>
<path d="M69.9789,131.479h -8.25052" fill="none" stroke="black"/>
<path d="M78.2294,125.808h -16.501" fill="none" stroke="black"/>
<path d="M69.9789,120.137h -8.25052" fill="none" stroke="black"/>
<path d="M69.9789,114.466h -8.25052" fill="none" stroke="black"/>
<path d="M69.9789,108.796h -8.25052" fill="none" stroke="black"/>
<path d="M69.9789,103.125h -8.25052" fill="none" stroke="black"/>
<path d="M78.2294,97.4544h -16.501" fill="none" stroke="black"/>
<path d="M69.9789,91.7837h -8.25052" fill="none" stroke="black"/>
<path d="M69.9789,86.113h -8.25052" fill="none" stroke="black"/>
<path d="M69.9789,80.4423h -8.25052" fill="none" stroke="black"/>
<path d="M69.9789,74.7716h -8.25052" fill="none" stroke="black"/>
<path d="M78.2294,69.1009h -16.501" fill="none" stroke="black"/>
<path d="M69.9789,63.4302h -8.25052" fill="none" stroke="black"/>
<path d="M69.9789,57.7595h -8.25052" fill="none" stroke="black"/>
<path d="M69.9789,52.0888h -8.25052" fill="none" stroke="black"/>
<path d="M69.9789,46.4181h -8.25052" fill="none" stroke="black"/>
<path d="M78.2294,40.7474h -16.501" fill="none" stroke="black"/>
<path d="M69.9789,35.0767h -8.25052" fill="none" stroke="black"/>
<path d="M69.9789,29.406h -8.25052" fill="none" stroke="black"/>
<path d="M69.9789,23.7353h -8.25052" fill="none" stroke="black"/>
<path d="M69.9789,18.0646h -8.25052" fill="none" stroke="black"/>
<path d="M78.2294,12.3939h -16.501" fill="none" stroke="black"/>
<path d="M78.2294,12.3939h -16.501" fill="none" stroke="black"/>
<text xml:space="preserve" x="53.5904" y="271.14" fill="black" font-size="8.91652" font-family="Helvetica">0</text>
<text xml:space="preserve" x="46.006" y="242.699" fill="black" font-size="8.91652" font-family="Helvetica">0.5</text>
<text xml:space="preserve" x="54.5384" y="214.257" fill="black" font-size="8.91652" font-family="Helvetica">1</text>
<text xml:space="preserve" x="46.006" y="185.816" fill="black" font-size="8.91652" font-family="Helvetica">1.5</text>
<text xml:space="preserve" x="53.5904" y="157.375" fill="black" font-size="8.91652" font-family="Helvetica">2</text>
<text xml:space="preserve" x="46.006" y="128.934" fill="black" font-size="8.91652" font-family="Helvetica">2.5</text>
<text xml:space="preserve" x="53.5904" y="100.492" fill="black" font-size="8.91652" font-family="Helvetica">3</text>
<text xml:space="preserve" x="46.006" y="72.0512" fill="black" font-size="8.91652" font-family="Helvetica">3.5</text>
<text xml:space="preserve" x="53.5904" y="43.6099" fill="black" font-size="8.91652" font-family="Helvetica">4</text>
<text xml:space="preserve" x="46.006" y="16.1167" fill="black" font-size="8.91652" font-family="Helvetica">4.5</text>
<g transform="rotate(-90,21.3569,35.0776)">
<text xml:space="preserve" x="21.3569" y="35.0776" fill="black" font-size="14.9283" font-family="Helvetica">nJet</text>
</g>
<path d="M76.0626,124.6v -15.4261" fill="none" stroke="#006699" stroke-width="2"/>
<path d="M76.0626,109.174v -15.4261" fill="none" stroke="#006699" stroke-width="2"/>
<g stroke="black" stroke-width="1" fill="none">
<line x1="75.0626" y1="109.174" x2="76.0626" y2="109.174"/>
</g>
<path d="M85.6187,43.3423v -18.184" fill="none" stroke="#006699" stroke-width="2"/>
<path d="M85.6187,25.1583v -17.0765" fill="none" stroke="#006699" stroke-width="2"/>
<g stroke="black" stroke-width="1" fill="none">
<line x1="84.6187" y1="25.1583" x2="85.6187" y2="25.1583"/>
</g>
<path d="M95.1749,114.367v -13.4418" fill="none" stroke="#006699" stroke-width="2"/>
<path d="M95.1749,100.925v -13.4418" fill="none" stroke="#006699" stroke-width="2"/>
<g stroke="black" stroke-width="1" fill="none">
<line x1="94.1749" y1="100.925" x2="95.1749" y2="100.925"/>
</g>
<path d="M104.731,173.291v -10.3595" fill="none" stroke="#006699" stroke-width="2"/>
<path d="M104.731,162.931v -10.3595" fill="none" stroke="#006699" stroke-width="2"/>
<g stroke="black" stroke-width="1" fill="none">
<line x1="103.731" y1="162.931" x2="104.731" y2="162.931"/>
</g>
<path d="M119.065,189.35v -10.6329" fill="none" stroke="#006699" stroke-width="2"/>
<path d="M119.065,178.717v -10.6329" fill="none" stroke="#006699" stroke-width="2"/>
<g stroke="black" stroke-width="1" fill="none">
<line x1="118.065" y1="178.717" x2="119.065" y2="178.717"/>
</g>
<path d="M138.178,247.25v -6.26579" fill="none" stroke="#006699" stroke-width="2"/>
<path d="M138.178,240.984v -6.26579" fill="none" stroke="#006699" stroke-width="2"/>
<g stroke="black" stroke-width="1" fill="none">
<line x1="137.178" y1="240.984" x2="138.178" y2="240.984"/>
</g>
<path d="M160.475,261.813v -3.32348" fill="none" stroke="#006699" stroke-width="2"/>
<path d="M160.475,258.49v -3.32348" fill="none" stroke="#006699" stroke-width="2"/>
<g stroke="black" stroke-width="1" fill="none">
<line x1="159.475" y1="258.49" x2="160.475" y2="258.49"/>
</g>
<path d="M189.144,266.954v -0.891951" fill="none" stroke="#006699" stroke-width="2"/>
<path d="M189.144,266.062v -0.891951" fill="none" stroke="#006699" stroke-width="2"/>
<g stroke="black" stroke-width="1" fill="none">
<line x1="188.144" y1="266.062" x2="189.144" y2="266.062"/>
</g>
<path d="M372.303,267.575v -0.250863" fill="none" stroke="#006699" stroke-width="2"/>
<path d="M372.303,267.325v -0.235494" fill="none" stroke="#006699" stroke-width="2"/>
<g stroke="black" stroke-width="1" fill="none">
<line x1="371.303" y1="267.325" x2="372.303" y2="267.325"/>
</g>
<path d="M61.7283,267.575h 9.55616v -158.402h 9.55616v -84.0153h 9.55616v 75.7671h 9.55616v 62.0057h 9.55616v 15.7858h 19.1123v 62.2668h 19.1123v 17.506h 25.4831v 7.57259h 31.8539v 1.26222h 334.466" fill="none" stroke="#006699" stroke-width="2"/>
<text xml:space="preserve" x="353.172" y="78.6875" fill="black" font-size="14.9283" font-family="Helvetica">| &lt;= 2.5</text>
<text xml:space="preserve" x="345.587" y="78.6875" fill="black" font-size="14.9283" font-family="Times">&#0951;</text>
<text xml:space="preserve" x="260.264" y="78.6875" fill="black" font-size="14.9283" font-family="Helvetica">b flavor , 2 &lt; |</text>
<text xml:space="preserve" x="303.873" y="113.765" fill="black" font-size="14.9283" font-family="Helvetica">True Background</text>
<path d="M263.477,110.307h 34.0299" fill="none" stroke="#ff0000" stroke-width="2"/>
<path d="M280.492,120.791v -20.9692" fill="none" stroke="#ff0000" stroke-width="2"/>
<text xml:space="preserve" x="303.873" y="150.739" fill="black" font-size="14.9283" font-family="Helvetica">Predict</text>
<path d="M263.477,145.255h 34.0299" fill="none" stroke="#006699" stroke-width="2"/>
<path d="M280.492,155.74v -20.9692" fill="none" stroke="#006699" stroke-width="2"/>
<rect x="6.16929" y="278.497" width="555.591" height="262.115" fill="white"/>
<rect x="61.7283" y="278.497" width="477.808" height="209.692" fill="white"/>
<rect x="61.7283" y="278.497" width="477.808" height="209.692" fill="none" stroke="black"/>
<rect x="61.7283" y="278.497" width="477.808" height="209.692" fill="white"/>
<rect x="61.7283" y="278.497" width="477.808" height="209.692" fill="none" stroke="black"/>
<path d="M76.0626,460.641v -1.38146" fill="none" stroke="black" stroke-width="2"/>
<path d="M76.0626,459.26v -1.38146" fill="none" stroke="black" stroke-width="2"/>
<path d="M71.2845,459.26h 4.77808" fill="none" stroke="black" stroke-width="2"/>
<path d="M76.0626,459.26h 4.77808" fill="none" stroke="black" stroke-width="2"/>
<g stroke="black" stroke-width="1" fill="none">
<line x1="75.0626" y1="459.26" x2="76.0626" y2="459.26"/>
</g>
<path d="M85.6187,461.081v -0.85914" fill="none" stroke="black" stroke-width="2"/>
<path d="M85.6187,460.222v -0.85914" fill="none" stroke="black" stroke-width="2"/>
<path d="M80.8407,460.222h 4.77808" fill="none" stroke="black" stroke-width="2"/>
<path d="M85.6187,460.222h 4.77808" fill="none" stroke="black" stroke-width="2"/>
<g stroke="black" stroke-width="1" fill="none">
<line x1="84.6187" y1="460.222" x2="85.6187" y2="460.222"/>
</g>
<path d="M95.1749,459.569v -1.21812" fill="none" stroke="black" stroke-width="2"/>
<path d="M95.1749,458.35v -1.21812" fill="none" stroke="black" stroke-width="2"/>
<path d="M90.3968,458.35h 4.77808" fill="none" stroke="black" stroke-width="2"/>
<path d="M95.1749,458.35h 4.77808" fill="none" stroke="black" stroke-width="2"/>
<g stroke="black" stroke-width="1" fill="none">
<line x1="94.1749" y1="458.35" x2="95.1749" y2="458.35"/>
</g>
<path d="M104.731,459.566v -1.57381" fill="none" stroke="black" stroke-width="2"/>
<path d="M104.731,457.992v -1.57381" fill="none" stroke="black" stroke-width="2"/>
<path d="M99.953,457.992h 4.77808" fill="none" stroke="black" stroke-width="2"/>
<path d="M104.731,457.992h 4.77808" fill="none" stroke="black" stroke-width="2"/>
<g stroke="black" stroke-width="1" fill="none">
<line x1="103.731" y1="457.992" x2="104.731" y2="457.992"/>
</g>
<path d="M119.065,458.586v -2.35778" fill="none" stroke="black" stroke-width="2"/>
<path d="M119.065,456.228v -2.35778" fill="none" stroke="black" stroke-width="2"/>
<path d="M109.509,456.228h 9.55616" fill="none" stroke="black" stroke-width="2"/>
<path d="M119.065,456.228h 9.55616" fill="none" stroke="black" stroke-width="2"/>
<g stroke="black" stroke-width="1" fill="none">
<line x1="118.065" y1="456.228" x2="119.065" y2="456.228"/>
</g>
<path d="M138.178,460.559v -5.85198" fill="none" stroke="black" stroke-width="2"/>
<path d="M138.178,454.707v -5.85198" fill="none" stroke="black" stroke-width="2"/>
<path d="M128.621,454.707h 9.55616" fill="none" stroke="black" stroke-width="2"/>
<path d="M138.178,454.707h 9.55616" fill="none" stroke="black" stroke-width="2"/>
<g stroke="black" stroke-width="1" fill="none">
<line x1="137.178" y1="454.707" x2="138.178" y2="454.707"/>
</g>
<path d="M189.144,478.679v -95.0983" fill="none" stroke="black" stroke-width="2"/>
<path d="M189.144,383.58v -95.0983" fill="none" stroke="black" stroke-width="2"/>
<path d="M173.217,383.58h 15.9269" fill="none" stroke="black" stroke-width="2"/>
<path d="M189.144,383.58h 15.9269" fill="none" stroke="black" stroke-width="2"/>
<g stroke="black" stroke-width="1" fill="none">
<line x1="188.144" y1="383.58" x2="189.144" y2="383.58"/>
</g>
<path d="M64.1174,461.414l 4.77808, -0.413047l 4.77808, -0.413047l 4.77808, -0.413047l 4.77808, -0.413047l 4.77808, -0.413047l 4.77808, -0.413047l 4.77808, -0.413047l 4.77808, -0.413047l 4.77808, -0.413047l 4.77808, -0.413047l 4.77808, -0.413047l
 4.77808, -0.413047l 4.77808, -0.413047l 4.77808, -0.413047l 4.77808, -0.413047l 4.77808, -0.413047l 4.77808, -0.413047l 4.77808, -0.413047l 4.77808, -0.413047l 4.77808, -0.413047l 4.77808, -0.413047l 4.77808, -0.413047l 4.77808, -0.413047l 4.77808,
 -0.413047l 4.77808, -0.413047l 4.77808, -0.413047l 4.77808, -0.413047l 4.77808, -0.413047l 4.77808, -0.413047l 4.77808, -0.413047l 4.77808, -0.413047l 4.77808, -0.413047l 4.77808, -0.413047l 4.77808, -0.413047l 4.77808, -0.413047l 4.77808,
 -0.413047l 4.77808, -0.413047l 4.77808, -0.413047l 4.77808, -0.413047l 4.77808, -0.413047l 4.77808, -0.413047l 4.77808, -0.413047l 4.77808, -0.413047l 4.77808, -0.413047l 4.77808, -0.413047l 4.77808, -0.413047l 4.77808, -0.413047l 4.77808,
 -0.413047l 4.77808, -0.413047" fill="none" stroke="#339966" stroke-width="2"/>
<path d="M298.243,441.175l 4.77808, -0.413047l 4.77808, -0.413047l 4.77808, -0.413047l 4.77808, -0.413047l 4.77808, -0.413047l 4.77808, -0.413047l 4.77808, -0.413047l 4.77808, -0.413047l 4.77808, -0.413047l 4.77808, -0.413047l 4.77808, -0.413047l
 4.77808, -0.413047l 4.77808, -0.413047l 4.77808, -0.413047l 4.77808, -0.413047l 4.77808, -0.413047l 4.77808, -0.413047l 4.77808, -0.413047l 4.77808, -0.413047l 4.77808, -0.413047l 4.77808, -0.413047l 4.77808, -0.413047l 4.77808, -0.413047l 4.77808,
 -0.413047l 4.77808, -0.413047l 4.77808, -0.413047l 4.77808, -0.413047l 4.77808, -0.413047l 4.77808, -0.413047l 4.77808, -0.413047l 4.77808, -0.413047l 4.77808, -0.413047l 4.77808, -0.413047l 4.77808, -0.413047l 4.77808, -0.413047l 4.77808,
 -0.413047l 4.77808, -0.413047l 4.77808, -0.413047l 4.77808, -0.413047l 4.77808, -0.413047l 4.77808, -0.413047l 4.77808, -0.413047l 4.77808, -0.413047l 4.77808, -0.413047l 4.77808, -0.413047l 4.77808, -0.413047l 4.77808, -0.413047l 4.77808,
 -0.413047l 4.77808, -0.413047" fill="none" stroke="#339966" stroke-width="2"/>
<path d="M532.369,420.936l 4.77808, -0.413047" fill="none" stroke="#339966" stroke-width="2"/>
<path d="M61.7283,488.189h 477.808" fill="none" stroke="black"/>
<path d="M61.7283,481.426v 6.76256" fill="none" stroke="black"/>
<path d="M77.6553,484.807v 3.38128" fill="none" stroke="black"/>
<path d="M93.5822,484.807v 3.38128" fill="none" stroke="black"/>
<path d="M109.509,484.807v 3.38128" fill="none" stroke="black"/>
<path d="M125.436,481.426v 6.76256" fill="none" stroke="black"/>
<path d="M141.363,484.807v 3.38128" fill="none" stroke="black"/>
<path d="M157.29,484.807v 3.38128" fill="none" stroke="black"/>
<path d="M173.217,484.807v 3.38128" fill="none" stroke="black"/>
<path d="M189.144,481.426v 6.76256" fill="none" stroke="black"/>
<path d="M205.071,484.807v 3.38128" fill="none" stroke="black"/>
<path d="M220.998,484.807v 3.38128" fill="none" stroke="black"/>
<path d="M236.925,484.807v 3.38128" fill="none" stroke="black"/>
<path d="M252.852,481.426v 6.76256" fill="none" stroke="black"/>
<path d="M268.778,484.807v 3.38128" fill="none" stroke="black"/>
<path d="M284.705,484.807v 3.38128" fill="none" stroke="black"/>
<path d="M300.632,484.807v 3.38128" fill="none" stroke="black"/>
<path d="M316.559,481.426v 6.76256" fill="none" stroke="black"/>
<path d="M332.486,484.807v 3.38128" fill="none" stroke="black"/>
<path d="M348.413,484.807v 3.38128" fill="none" stroke="black"/>
<path d="M364.34,484.807v 3.38128" fill="none" stroke="black"/>
<path d="M380.267,481.426v 6.76256" fill="none" stroke="black"/>
<path d="M396.194,484.807v 3.38128" fill="none" stroke="black"/>
<path d="M412.121,484.807v 3.38128" fill="none" stroke="black"/>
<path d="M428.048,484.807v 3.38128" fill="none" stroke="black"/>
<path d="M443.975,481.426v 6.76256" fill="none" stroke="black"/>
<path d="M459.902,484.807v 3.38128" fill="none" stroke="black"/>
<path d="M475.828,484.807v 3.38128" fill="none" stroke="black"/>
<path d="M491.755,484.807v 3.38128" fill="none" stroke="black"/>
<path d="M507.682,481.426v 6.76256" fill="none" stroke="black"/>
<path d="M507.682,481.426v 6.76256" fill="none" stroke="black"/>
<path d="M523.609,484.807v 3.38128" fill="none" stroke="black"/>
<text xml:space="preserve" x="58.3306" y="496.774" fill="black" font-size="8.91652" font-family="Helvetica">0</text>
<text xml:space="preserve" x="117.109" y="496.774" fill="black" font-size="8.91652" font-family="Helvetica">200</text>
<text xml:space="preserve" x="180.628" y="496.774" fill="black" font-size="8.91652" font-family="Helvetica">400</text>
<text xml:space="preserve" x="245.095" y="496.774" fill="black" font-size="8.91652" font-family="Helvetica">600</text>
<text xml:space="preserve" x="308.614" y="496.774" fill="black" font-size="8.91652" font-family="Helvetica">800</text>
<text xml:space="preserve" x="370.236" y="496.774" fill="black" font-size="8.91652" font-family="Helvetica">1000</text>
<text xml:space="preserve" x="433.755" y="496.774" fill="black" font-size="8.91652" font-family="Helvetica">1200</text>
<text xml:space="preserve" x="497.274" y="496.774" fill="black" font-size="8.91652" font-family="Helvetica">1400</text>
<text xml:space="preserve" x="497.274" y="518.579" fill="black" font-size="14.9283" font-family="Helvetica">Jet PT</text>
<path d="M61.7283,278.497h 477.808" fill="none" stroke="black"/>
<path d="M61.7283,285.259v -6.76256" fill="none" stroke="black"/>
<path d="M77.6553,281.878v -3.38128" fill="none" stroke="black"/>
<path d="M93.5822,281.878v -3.38128" fill="none" stroke="black"/>
<path d="M109.509,281.878v -3.38128" fill="none" stroke="black"/>
<path d="M125.436,285.259v -6.76256" fill="none" stroke="black"/>
<path d="M141.363,281.878v -3.38128" fill="none" stroke="black"/>
<path d="M157.29,281.878v -3.38128" fill="none" stroke="black"/>
<path d="M173.217,281.878v -3.38128" fill="none" stroke="black"/>
<path d="M189.144,285.259v -6.76256" fill="none" stroke="black"/>
<path d="M205.071,281.878v -3.38128" fill="none" stroke="black"/>
<path d="M220.998,281.878v -3.38128" fill="none" stroke="black"/>
<path d="M236.925,281.878v -3.38128" fill="none" stroke="black"/>
<path d="M252.852,285.259v -6.76256" fill="none" stroke="black"/>
<path d="M268.778,281.878v -3.38128" fill="none" stroke="black"/>
<path d="M284.705,281.878v -3.38128" fill="none" stroke="black"/>
<path d="M300.632,281.878v -3.38128" fill="none" stroke="black"/>
<path d="M316.559,285.259v -6.76256" fill="none" stroke="black"/>
<path d="M332.486,281.878v -3.38128" fill="none" stroke="black"/>
<path d="M348.413,281.878v -3.38128" fill="none" stroke="black"/>
<path d="M364.34,281.878v -3.38128" fill="none" stroke="black"/>
<path d="M380.267,285.259v -6.76256" fill="none" stroke="black"/>
<path d="M396.194,281.878v -3.38128" fill="none" stroke="black"/>
<path d="M412.121,281.878v -3.38128" fill="none" stroke="black"/>
<path d="M428.048,281.878v -3.38128" fill="none" stroke="black"/>
<path d="M443.975,285.259v -6.76256" fill="none" stroke="black"/>
<path d="M459.902,281.878v -3.38128" fill="none" stroke="black"/>
<path d="M475.828,281.878v -3.38128" fill="none" stroke="black"/>
<path d="M491.755,281.878v -3.38128" fill="none" stroke="black"/>
<path d="M507.682,285.259v -6.76256" fill="none" stroke="black"/>
<path d="M507.682,285.259v -6.76256" fill="none" stroke="black"/>
<path d="M523.609,281.878v -3.38128" fill="none" stroke="black"/>
<path d="M61.7283,488.189v -209.692" fill="none" stroke="black"/>
<path d="M75.0625,465.504h -13.3342" fill="none" stroke="black"/>
<path d="M68.3954,459.575h -6.66709" fill="none" stroke="black"/>
<path d="M68.3954,453.646h -6.66709" fill="none" stroke="black"/>
<path d="M68.3954,447.717h -6.66709" fill="none" stroke="black"/>
<path d="M68.3954,441.788h -6.66709" fill="none" stroke="black"/>
<path d="M75.0625,435.858h -13.3342" fill="none" stroke="black"/>
<path d="M68.3954,429.929h -6.66709" fill="none" stroke="black"/>
<path d="M68.3954,424h -6.66709" fill="none" stroke="black"/>
<path d="M68.3954,418.071h -6.66709" fill="none" stroke="black"/>
<path d="M68.3954,412.142h -6.66709" fill="none" stroke="black"/>
<path d="M75.0625,406.213h -13.3342" fill="none" stroke="black"/>
<path d="M68.3954,400.284h -6.66709" fill="none" stroke="black"/>
<path d="M68.3954,394.355h -6.66709" fill="none" stroke="black"/>
<path d="M68.3954,388.426h -6.66709" fill="none" stroke="black"/>
<path d="M68.3954,382.497h -6.66709" fill="none" stroke="black"/>
<path d="M75.0625,376.568h -13.3342" fill="none" stroke="black"/>
<path d="M68.3954,370.639h -6.66709" fill="none" stroke="black"/>
<path d="M68.3954,364.71h -6.66709" fill="none" stroke="black"/>
<path d="M68.3954,358.781h -6.66709" fill="none" stroke="black"/>
<path d="M68.3954,352.851h -6.66709" fill="none" stroke="black"/>
<path d="M75.0625,346.922h -13.3342" fill="none" stroke="black"/>
<path d="M68.3954,340.993h -6.66709" fill="none" stroke="black"/>
<path d="M68.3954,335.064h -6.66709" fill="none" stroke="black"/>
<path d="M68.3954,329.135h -6.66709" fill="none" stroke="black"/>
<path d="M68.3954,323.206h -6.66709" fill="none" stroke="black"/>
<path d="M75.0625,317.277h -13.3342" fill="none" stroke="black"/>
<path d="M68.3954,311.348h -6.66709" fill="none" stroke="black"/>
<path d="M68.3954,305.419h -6.66709" fill="none" stroke="black"/>
<path d="M68.3954,299.49h -6.66709" fill="none" stroke="black"/>
<path d="M68.3954,293.561h -6.66709" fill="none" stroke="black"/>
<path d="M75.0625,287.632h -13.3342" fill="none" stroke="black"/>
<path d="M75.0625,465.504h -13.3342" fill="none" stroke="black"/>
<path d="M68.3954,471.433h -6.66709" fill="none" stroke="black"/>
<path d="M68.3954,477.362h -6.66709" fill="none" stroke="black"/>
<path d="M68.3954,483.291h -6.66709" fill="none" stroke="black"/>
<path d="M75.0625,287.632h -13.3342" fill="none" stroke="black"/>
<path d="M68.3954,281.703h -6.66709" fill="none" stroke="black"/>
<text xml:space="preserve" x="53.5904" y="469.281" fill="black" font-size="8.91652" font-family="Helvetica">0</text>
<text xml:space="preserve" x="53.5904" y="438.943" fill="black" font-size="8.91652" font-family="Helvetica">5</text>
<text xml:space="preserve" x="48.8501" y="409.554" fill="black" font-size="8.91652" font-family="Helvetica">10</text>
<text xml:space="preserve" x="48.8501" y="380.165" fill="black" font-size="8.91652" font-family="Helvetica">15</text>
<text xml:space="preserve" x="48.8501" y="349.828" fill="black" font-size="8.91652" font-family="Helvetica">20</text>
<text xml:space="preserve" x="48.8501" y="320.438" fill="black" font-size="8.91652" font-family="Helvetica">25</text>
<text xml:space="preserve" x="48.8501" y="291.049" fill="black" font-size="8.91652" font-family="Helvetica">30</text>
<g transform="rotate(-90,22.305,458.852)">
<text xml:space="preserve" x="22.305" y="458.852" fill="black" font-size="14.9283" font-family="Helvetica">True Background / Predicted</text>
</g>
<text xml:space="preserve" x="343.691" y="328.023" fill="black" font-size="14.9283" font-family="Helvetica">Fitting function</text>
<text xml:space="preserve" x="387.301" y="368.788" fill="black" font-size="14.9283" font-family="Helvetica">0.654923 + 0.004644*x</text>
<path d="M346.816,363.684h 34.0299" fill="none" stroke="#339966" stroke-width="2"/></svg>
