<?xml version="1.0" standalone="no"?>
<svg width="567.429" height="546.572" viewBox="0 0 567.429 546.572" xmlns="http://www.w3.org/2000/svg" shape-rendering="crispEdges">
<title>
/home/kuanyu/Documents/CMS/Background_Estimate/fake_rate/top_emu/plot/CT_Top(emu)_btrk_dileppT_rg1.svg
</title>
<desc>
Creator: ROOT Version 6.26/04
CreationDate: Wed Oct 26 10:32:08 2022</desc>
<defs>
</defs>
<rect x="0.5" y="0" width="566.929" height="546.072" fill="none"/>
<rect x="6.16929" y="5.46072" width="555.591" height="262.115" fill="none"/>
<rect x="61.7283" y="8.08187" width="477.808" height="259.493" fill="none"/>
<rect x="61.7283" y="8.08187" width="477.808" height="259.493" fill="none" stroke="black"/>
<rect x="61.7283" y="8.08187" width="477.808" height="259.493" fill="none"/>
<rect x="61.7283" y="8.08187" width="477.808" height="259.493" fill="none" stroke="black"/>
<path d="M71.6827,256.36v -2.5123" fill="none" stroke="#ff0000" stroke-width="2"/>
<path d="M71.6827,253.848v -2.5123" fill="none" stroke="#ff0000" stroke-width="2"/>
<path d="M61.7283,253.848h 9.95433" fill="none" stroke="#ff0000" stroke-width="2"/>
<path d="M71.6827,253.848h 9.95433" fill="none" stroke="#ff0000" stroke-width="2"/>
<g stroke="black" stroke-width="1" fill="none">
<line x1="70.6827" y1="253.848" x2="71.6827" y2="253.848"/>
</g>
<path d="M91.5913,217.534v -5.36912" fill="none" stroke="#ff0000" stroke-width="2"/>
<path d="M91.5913,212.165v -5.36912" fill="none" stroke="#ff0000" stroke-width="2"/>
<path d="M81.637,212.165h 9.95433" fill="none" stroke="#ff0000" stroke-width="2"/>
<path d="M91.5913,212.165h 9.95433" fill="none" stroke="#ff0000" stroke-width="2"/>
<g stroke="black" stroke-width="1" fill="none">
<line x1="90.5913" y1="212.165" x2="91.5913" y2="212.165"/>
</g>
<path d="M111.5,168.204v -7.46914" fill="none" stroke="#ff0000" stroke-width="2"/>
<path d="M111.5,160.735v -7.46914" fill="none" stroke="#ff0000" stroke-width="2"/>
<path d="M101.546,160.735h 9.95433" fill="none" stroke="#ff0000" stroke-width="2"/>
<path d="M111.5,160.735h 9.95433" fill="none" stroke="#ff0000" stroke-width="2"/>
<g stroke="black" stroke-width="1" fill="none">
<line x1="110.5" y1="160.735" x2="111.5" y2="160.735"/>
</g>
<path d="M131.409,98.5389v -9.21678" fill="none" stroke="#ff0000" stroke-width="2"/>
<path d="M131.409,89.3221v -9.21678" fill="none" stroke="#ff0000" stroke-width="2"/>
<path d="M121.454,89.3221h 9.95433" fill="none" stroke="#ff0000" stroke-width="2"/>
<path d="M131.409,89.3221h 9.95433" fill="none" stroke="#ff0000" stroke-width="2"/>
<g stroke="black" stroke-width="1" fill="none">
<line x1="130.409" y1="89.3221" x2="131.409" y2="89.3221"/>
</g>
<path d="M151.317,43.7071v -11.6342" fill="none" stroke="#ff0000" stroke-width="2"/>
<path d="M151.317,32.0729v -11.6342" fill="none" stroke="#ff0000" stroke-width="2"/>
<path d="M141.363,32.0729h 9.95433" fill="none" stroke="#ff0000" stroke-width="2"/>
<path d="M151.317,32.0729h 9.95433" fill="none" stroke="#ff0000" stroke-width="2"/>
<g stroke="black" stroke-width="1" fill="none">
<line x1="150.317" y1="32.0729" x2="151.317" y2="32.0729"/>
</g>
<path d="M171.226,47.1611v -10.8036" fill="none" stroke="#ff0000" stroke-width="2"/>
<path d="M171.226,36.3575v -10.8036" fill="none" stroke="#ff0000" stroke-width="2"/>
<path d="M161.272,36.3575h 9.95433" fill="none" stroke="#ff0000" stroke-width="2"/>
<path d="M171.226,36.3575h 9.95433" fill="none" stroke="#ff0000" stroke-width="2"/>
<g stroke="black" stroke-width="1" fill="none">
<line x1="170.226" y1="36.3575" x2="171.226" y2="36.3575"/>
</g>
<path d="M191.135,83.9959v -10.5016" fill="none" stroke="#ff0000" stroke-width="2"/>
<path d="M191.135,73.4943v -10.5016" fill="none" stroke="#ff0000" stroke-width="2"/>
<path d="M181.18,73.4943h 9.95433" fill="none" stroke="#ff0000" stroke-width="2"/>
<path d="M191.135,73.4943h 9.95433" fill="none" stroke="#ff0000" stroke-width="2"/>
<g stroke="black" stroke-width="1" fill="none">
<line x1="190.135" y1="73.4943" x2="191.135" y2="73.4943"/>
</g>
<path d="M211.043,149.282v -8.70006" fill="none" stroke="#ff0000" stroke-width="2"/>
<path d="M211.043,140.582v -8.70006" fill="none" stroke="#ff0000" stroke-width="2"/>
<path d="M201.089,140.582h 9.95433" fill="none" stroke="#ff0000" stroke-width="2"/>
<path d="M211.043,140.582h 9.95433" fill="none" stroke="#ff0000" stroke-width="2"/>
<g stroke="black" stroke-width="1" fill="none">
<line x1="210.043" y1="140.582" x2="211.043" y2="140.582"/>
</g>
<path d="M230.952,173.531v -7.29265" fill="none" stroke="#ff0000" stroke-width="2"/>
<path d="M230.952,166.239v -7.29265" fill="none" stroke="#ff0000" stroke-width="2"/>
<path d="M220.998,166.239h 9.95433" fill="none" stroke="#ff0000" stroke-width="2"/>
<path d="M230.952,166.239h 9.95433" fill="none" stroke="#ff0000" stroke-width="2"/>
<g stroke="black" stroke-width="1" fill="none">
<line x1="229.952" y1="166.239" x2="230.952" y2="166.239"/>
</g>
<path d="M250.861,204.371v -6.78133" fill="none" stroke="#ff0000" stroke-width="2"/>
<path d="M250.861,197.59v -6.78133" fill="none" stroke="#ff0000" stroke-width="2"/>
<path d="M240.906,197.59h 9.95433" fill="none" stroke="#ff0000" stroke-width="2"/>
<path d="M250.861,197.59h 9.95433" fill="none" stroke="#ff0000" stroke-width="2"/>
<g stroke="black" stroke-width="1" fill="none">
<line x1="249.861" y1="197.59" x2="250.861" y2="197.59"/>
</g>
<path d="M270.769,234.76v -5.27654" fill="none" stroke="#ff0000" stroke-width="2"/>
<path d="M270.769,229.483v -5.27654" fill="none" stroke="#ff0000" stroke-width="2"/>
<path d="M260.815,229.483h 9.95433" fill="none" stroke="#ff0000" stroke-width="2"/>
<path d="M270.769,229.483h 9.95433" fill="none" stroke="#ff0000" stroke-width="2"/>
<g stroke="black" stroke-width="1" fill="none">
<line x1="269.769" y1="229.483" x2="270.769" y2="229.483"/>
</g>
<path d="M290.678,252.002v -3.97747" fill="none" stroke="#ff0000" stroke-width="2"/>
<path d="M290.678,248.025v -3.97747" fill="none" stroke="#ff0000" stroke-width="2"/>
<path d="M280.724,248.025h 9.95433" fill="none" stroke="#ff0000" stroke-width="2"/>
<path d="M290.678,248.025h 9.95433" fill="none" stroke="#ff0000" stroke-width="2"/>
<g stroke="black" stroke-width="1" fill="none">
<line x1="289.678" y1="248.025" x2="290.678" y2="248.025"/>
</g>
<path d="M310.587,260.068v -2.86555" fill="none" stroke="#ff0000" stroke-width="2"/>
<path d="M310.587,257.202v -2.86555" fill="none" stroke="#ff0000" stroke-width="2"/>
<path d="M300.632,257.202h 9.95433" fill="none" stroke="#ff0000" stroke-width="2"/>
<path d="M310.587,257.202h 9.95433" fill="none" stroke="#ff0000" stroke-width="2"/>
<g stroke="black" stroke-width="1" fill="none">
<line x1="309.587" y1="257.202" x2="310.587" y2="257.202"/>
</g>
<path d="M330.495,265.027v -2.39037" fill="none" stroke="#ff0000" stroke-width="2"/>
<path d="M330.495,262.636v -2.39037" fill="none" stroke="#ff0000" stroke-width="2"/>
<path d="M320.541,262.636h 9.95433" fill="none" stroke="#ff0000" stroke-width="2"/>
<path d="M330.495,262.636h 9.95433" fill="none" stroke="#ff0000" stroke-width="2"/>
<g stroke="black" stroke-width="1" fill="none">
<line x1="329.495" y1="262.636" x2="330.495" y2="262.636"/>
</g>
<path d="M439.993,263.812v -2.51445" fill="none" stroke="#ff0000" stroke-width="2"/>
<path d="M439.993,261.298v -2.51445" fill="none" stroke="#ff0000" stroke-width="2"/>
<path d="M340.45,261.298h 99.5433" fill="none" stroke="#ff0000" stroke-width="2"/>
<path d="M439.993,261.298h 99.5433" fill="none" stroke="#ff0000" stroke-width="2"/>
<g stroke="black" stroke-width="1" fill="none">
<line x1="438.993" y1="261.298" x2="439.993" y2="261.298"/>
</g>
<path d="M61.7283,267.575h 477.808" fill="none" stroke="black"/>
<path d="M141.363,260.813v 6.76256" fill="none" stroke="black"/>
<path d="M161.272,264.194v 3.38128" fill="none" stroke="black"/>
<path d="M181.18,264.194v 3.38128" fill="none" stroke="black"/>
<path d="M201.089,264.194v 3.38128" fill="none" stroke="black"/>
<path d="M220.998,264.194v 3.38128" fill="none" stroke="black"/>
<path d="M240.906,260.813v 6.76256" fill="none" stroke="black"/>
<path d="M260.815,264.194v 3.38128" fill="none" stroke="black"/>
<path d="M280.724,264.194v 3.38128" fill="none" stroke="black"/>
<path d="M300.632,264.194v 3.38128" fill="none" stroke="black"/>
<path d="M320.541,264.194v 3.38128" fill="none" stroke="black"/>
<path d="M340.45,260.813v 6.76256" fill="none" stroke="black"/>
<path d="M360.358,264.194v 3.38128" fill="none" stroke="black"/>
<path d="M380.267,264.194v 3.38128" fill="none" stroke="black"/>
<path d="M400.176,264.194v 3.38128" fill="none" stroke="black"/>
<path d="M420.084,264.194v 3.38128" fill="none" stroke="black"/>
<path d="M439.993,260.813v 6.76256" fill="none" stroke="black"/>
<path d="M459.902,264.194v 3.38128" fill="none" stroke="black"/>
<path d="M479.81,264.194v 3.38128" fill="none" stroke="black"/>
<path d="M499.719,264.194v 3.38128" fill="none" stroke="black"/>
<path d="M519.628,264.194v 3.38128" fill="none" stroke="black"/>
<path d="M539.536,260.813v 6.76256" fill="none" stroke="black"/>
<path d="M141.363,260.813v 6.76256" fill="none" stroke="black"/>
<path d="M121.454,264.194v 3.38128" fill="none" stroke="black"/>
<path d="M101.546,264.194v 3.38128" fill="none" stroke="black"/>
<path d="M81.637,264.194v 3.38128" fill="none" stroke="black"/>
<path d="M61.7283,264.194v 3.38128" fill="none" stroke="black"/>
<path d="M61.7283,267.575v -259.493" fill="none" stroke="black"/>
<path d="M78.2294,267.575h -16.501" fill="none" stroke="black"/>
<path d="M69.9789,261.854h -8.25052" fill="none" stroke="black"/>
<path d="M69.9789,256.132h -8.25052" fill="none" stroke="black"/>
<path d="M69.9789,250.41h -8.25052" fill="none" stroke="black"/>
<path d="M69.9789,244.689h -8.25052" fill="none" stroke="black"/>
<path d="M78.2294,238.967h -16.501" fill="none" stroke="black"/>
<path d="M69.9789,233.245h -8.25052" fill="none" stroke="black"/>
<path d="M69.9789,227.523h -8.25052" fill="none" stroke="black"/>
<path d="M69.9789,221.802h -8.25052" fill="none" stroke="black"/>
<path d="M69.9789,216.08h -8.25052" fill="none" stroke="black"/>
<path d="M78.2294,210.358h -16.501" fill="none" stroke="black"/>
<path d="M69.9789,204.637h -8.25052" fill="none" stroke="black"/>
<path d="M69.9789,198.915h -8.25052" fill="none" stroke="black"/>
<path d="M69.9789,193.193h -8.25052" fill="none" stroke="black"/>
<path d="M69.9789,187.471h -8.25052" fill="none" stroke="black"/>
<path d="M78.2294,181.75h -16.501" fill="none" stroke="black"/>
<path d="M69.9789,176.028h -8.25052" fill="none" stroke="black"/>
<path d="M69.9789,170.306h -8.25052" fill="none" stroke="black"/>
<path d="M69.9789,164.585h -8.25052" fill="none" stroke="black"/>
<path d="M69.9789,158.863h -8.25052" fill="none" stroke="black"/>
<path d="M78.2294,153.141h -16.501" fill="none" stroke="black"/>
<path d="M69.9789,147.42h -8.25052" fill="none" stroke="black"/>
<path d="M69.9789,141.698h -8.25052" fill="none" stroke="black"/>
<path d="M69.9789,135.976h -8.25052" fill="none" stroke="black"/>
<path d="M69.9789,130.254h -8.25052" fill="none" stroke="black"/>
<path d="M78.2294,124.533h -16.501" fill="none" stroke="black"/>
<path d="M69.9789,118.811h -8.25052" fill="none" stroke="black"/>
<path d="M69.9789,113.089h -8.25052" fill="none" stroke="black"/>
<path d="M69.9789,107.368h -8.25052" fill="none" stroke="black"/>
<path d="M69.9789,101.646h -8.25052" fill="none" stroke="black"/>
<path d="M78.2294,95.9242h -16.501" fill="none" stroke="black"/>
<path d="M69.9789,90.2025h -8.25052" fill="none" stroke="black"/>
<path d="M69.9789,84.4808h -8.25052" fill="none" stroke="black"/>
<path d="M69.9789,78.7591h -8.25052" fill="none" stroke="black"/>
<path d="M69.9789,73.0374h -8.25052" fill="none" stroke="black"/>
<path d="M78.2294,67.3157h -16.501" fill="none" stroke="black"/>
<path d="M69.9789,61.594h -8.25052" fill="none" stroke="black"/>
<path d="M69.9789,55.8723h -8.25052" fill="none" stroke="black"/>
<path d="M69.9789,50.1506h -8.25052" fill="none" stroke="black"/>
<path d="M69.9789,44.4289h -8.25052" fill="none" stroke="black"/>
<path d="M78.2294,38.7071h -16.501" fill="none" stroke="black"/>
<path d="M69.9789,32.9854h -8.25052" fill="none" stroke="black"/>
<path d="M69.9789,27.2637h -8.25052" fill="none" stroke="black"/>
<path d="M69.9789,21.542h -8.25052" fill="none" stroke="black"/>
<path d="M69.9789,15.8203h -8.25052" fill="none" stroke="black"/>
<path d="M78.2294,10.0986h -16.501" fill="none" stroke="black"/>
<path d="M78.2294,10.0986h -16.501" fill="none" stroke="black"/>
<text xml:space="preserve" x="53.5904" y="271.14" fill="black" font-size="8.91652" font-family="Helvetica">0</text>
<text xml:space="preserve" x="53.5904" y="242.699" fill="black" font-size="8.91652" font-family="Helvetica">5</text>
<text xml:space="preserve" x="48.8501" y="213.309" fill="black" font-size="8.91652" font-family="Helvetica">10</text>
<text xml:space="preserve" x="48.8501" y="184.868" fill="black" font-size="8.91652" font-family="Helvetica">15</text>
<text xml:space="preserve" x="48.8501" y="156.427" fill="black" font-size="8.91652" font-family="Helvetica">20</text>
<text xml:space="preserve" x="48.8501" y="127.986" fill="black" font-size="8.91652" font-family="Helvetica">25</text>
<text xml:space="preserve" x="48.8501" y="99.5444" fill="black" font-size="8.91652" font-family="Helvetica">30</text>
<text xml:space="preserve" x="48.8501" y="71.1031" fill="black" font-size="8.91652" font-family="Helvetica">35</text>
<text xml:space="preserve" x="48.8501" y="41.7138" fill="black" font-size="8.91652" font-family="Helvetica">40</text>
<text xml:space="preserve" x="48.8501" y="13.2726" fill="black" font-size="8.91652" font-family="Helvetica">45</text>
<g transform="rotate(-90,24.201,35.0776)">
<text xml:space="preserve" x="24.201" y="35.0776" fill="black" font-size="14.9283" font-family="Helvetica">nJet</text>
</g>
<path d="M71.6827,253.444v -1.99426" fill="none" stroke="#006699" stroke-width="2"/>
<path d="M71.6827,251.45v -1.99426" fill="none" stroke="#006699" stroke-width="2"/>
<g stroke="black" stroke-width="1" fill="none">
<line x1="70.6827" y1="251.45" x2="71.6827" y2="251.45"/>
</g>
<path d="M91.5913,223.354v -2.8134" fill="none" stroke="#006699" stroke-width="2"/>
<path d="M91.5913,220.54v -2.8134" fill="none" stroke="#006699" stroke-width="2"/>
<g stroke="black" stroke-width="1" fill="none">
<line x1="90.5913" y1="220.54" x2="91.5913" y2="220.54"/>
</g>
<path d="M111.5,167.122v -3.72824" fill="none" stroke="#006699" stroke-width="2"/>
<path d="M111.5,163.394v -3.72824" fill="none" stroke="#006699" stroke-width="2"/>
<g stroke="black" stroke-width="1" fill="none">
<line x1="110.5" y1="163.394" x2="111.5" y2="163.394"/>
</g>
<path d="M131.409,75.1015v -4.76027" fill="none" stroke="#006699" stroke-width="2"/>
<path d="M131.409,70.3412v -4.76027" fill="none" stroke="#006699" stroke-width="2"/>
<g stroke="black" stroke-width="1" fill="none">
<line x1="130.409" y1="70.3412" x2="131.409" y2="70.3412"/>
</g>
<path d="M151.317,52.4511v -4.34804" fill="none" stroke="#006699" stroke-width="2"/>
<path d="M151.317,48.1031v -4.34804" fill="none" stroke="#006699" stroke-width="2"/>
<g stroke="black" stroke-width="1" fill="none">
<line x1="150.317" y1="48.1031" x2="151.317" y2="48.1031"/>
</g>
<path d="M171.226,41.193v -4.01452" fill="none" stroke="#006699" stroke-width="2"/>
<path d="M171.226,37.1784v -4.01452" fill="none" stroke="#006699" stroke-width="2"/>
<g stroke="black" stroke-width="1" fill="none">
<line x1="170.226" y1="37.1784" x2="171.226" y2="37.1784"/>
</g>
<path d="M191.135,67.4228v -3.51048" fill="none" stroke="#006699" stroke-width="2"/>
<path d="M191.135,63.9123v -3.51048" fill="none" stroke="#006699" stroke-width="2"/>
<g stroke="black" stroke-width="1" fill="none">
<line x1="190.135" y1="63.9123" x2="191.135" y2="63.9123"/>
</g>
<path d="M211.043,132.968v -2.36991" fill="none" stroke="#006699" stroke-width="2"/>
<path d="M211.043,130.598v -2.36991" fill="none" stroke="#006699" stroke-width="2"/>
<g stroke="black" stroke-width="1" fill="none">
<line x1="210.043" y1="130.598" x2="211.043" y2="130.598"/>
</g>
<path d="M230.952,186.588v -1.55966" fill="none" stroke="#006699" stroke-width="2"/>
<path d="M230.952,185.028v -1.55966" fill="none" stroke="#006699" stroke-width="2"/>
<g stroke="black" stroke-width="1" fill="none">
<line x1="229.952" y1="185.028" x2="230.952" y2="185.028"/>
</g>
<path d="M250.861,203.929v -1.32321" fill="none" stroke="#006699" stroke-width="2"/>
<path d="M250.861,202.606v -1.32321" fill="none" stroke="#006699" stroke-width="2"/>
<g stroke="black" stroke-width="1" fill="none">
<line x1="249.861" y1="202.606" x2="250.861" y2="202.606"/>
</g>
<path d="M270.769,231.446v -0.852965" fill="none" stroke="#006699" stroke-width="2"/>
<path d="M270.769,230.593v -0.852965" fill="none" stroke="#006699" stroke-width="2"/>
<g stroke="black" stroke-width="1" fill="none">
<line x1="269.769" y1="230.593" x2="270.769" y2="230.593"/>
</g>
<path d="M290.678,246.896v -0.549172" fill="none" stroke="#006699" stroke-width="2"/>
<path d="M290.678,246.347v -0.549172" fill="none" stroke="#006699" stroke-width="2"/>
<g stroke="black" stroke-width="1" fill="none">
<line x1="289.678" y1="246.347" x2="290.678" y2="246.347"/>
</g>
<path d="M310.587,259.139v -0.270685" fill="none" stroke="#006699" stroke-width="2"/>
<path d="M310.587,258.868v -0.270685" fill="none" stroke="#006699" stroke-width="2"/>
<g stroke="black" stroke-width="1" fill="none">
<line x1="309.587" y1="258.868" x2="310.587" y2="258.868"/>
</g>
<path d="M330.495,263.857v -0.133108" fill="none" stroke="#006699" stroke-width="2"/>
<path d="M330.495,263.724v -0.133108" fill="none" stroke="#006699" stroke-width="2"/>
<g stroke="black" stroke-width="1" fill="none">
<line x1="329.495" y1="263.724" x2="330.495" y2="263.724"/>
</g>
<path d="M439.993,264.017v -0.083809" fill="none" stroke="#006699" stroke-width="2"/>
<path d="M439.993,263.934v -0.083809" fill="none" stroke="#006699" stroke-width="2"/>
<g stroke="black" stroke-width="1" fill="none">
<line x1="438.993" y1="263.934" x2="439.993" y2="263.934"/>
</g>
<path d="M61.7283,251.45h 19.9087v -30.9098h 19.9087v -57.1463h 19.9087v -93.0527h 19.9087v -22.2381h 19.9087v -10.9246h 19.9087v 26.7338h 19.9087v 66.6856h 19.9087v 54.4304h 19.9087v 17.5774h 19.9087v 27.9873h 19.9087v 15.7541h 19.9087v 12.5213h
 19.9087v 4.85555h 19.9087v 0.209759h 199.087" fill="none" stroke="#006699" stroke-width="2"/>
<text xml:space="preserve" x="329.471" y="78.6875" fill="black" font-size="14.9283" font-family="Helvetica">| &lt; 1</text>
<text xml:space="preserve" x="321.886" y="78.6875" fill="black" font-size="14.9283" font-family="Times">&#0951;</text>
<text xml:space="preserve" x="260.264" y="78.6875" fill="black" font-size="14.9283" font-family="Helvetica">b flavor , |</text>
<text xml:space="preserve" x="303.873" y="113.765" fill="black" font-size="14.9283" font-family="Helvetica">True Background</text>
<path d="M263.477,110.307h 34.0299" fill="none" stroke="#ff0000" stroke-width="2"/>
<path d="M280.492,120.791v -20.9692" fill="none" stroke="#ff0000" stroke-width="2"/>
<text xml:space="preserve" x="303.873" y="150.739" fill="black" font-size="14.9283" font-family="Helvetica">Predict</text>
<path d="M263.477,145.255h 34.0299" fill="none" stroke="#006699" stroke-width="2"/>
<path d="M280.492,155.74v -20.9692" fill="none" stroke="#006699" stroke-width="2"/>
<rect x="6.16929" y="278.497" width="555.591" height="262.115" fill="none"/>
<rect x="61.7283" y="278.497" width="477.808" height="209.692" fill="none"/>
<rect x="61.7283" y="278.497" width="477.808" height="209.692" fill="none" stroke="black"/>
<rect x="61.7283" y="278.497" width="477.808" height="209.692" fill="none"/>
<rect x="61.7283" y="278.497" width="477.808" height="209.692" fill="none" stroke="black"/>
<path d="M71.6827,478.342v -20.3753" fill="none" stroke="black" stroke-width="2"/>
<path d="M71.6827,457.967v -20.3753" fill="none" stroke="black" stroke-width="2"/>
<path d="M61.7283,457.967h 9.95433" fill="none" stroke="black" stroke-width="2"/>
<path d="M71.6827,457.967h 9.95433" fill="none" stroke="black" stroke-width="2"/>
<g stroke="black" stroke-width="1" fill="none">
<line x1="70.6827" y1="457.967" x2="71.6827" y2="457.967"/>
</g>
<path d="M91.5913,437.097v -14.5361" fill="none" stroke="black" stroke-width="2"/>
<path d="M91.5913,422.561v -14.5361" fill="none" stroke="black" stroke-width="2"/>
<path d="M81.637,422.561h 9.95433" fill="none" stroke="black" stroke-width="2"/>
<path d="M91.5913,422.561h 9.95433" fill="none" stroke="black" stroke-width="2"/>
<g stroke="black" stroke-width="1" fill="none">
<line x1="90.5913" y1="422.561" x2="91.5913" y2="422.561"/>
</g>
<path d="M111.5,447.817v -8.72722" fill="none" stroke="black" stroke-width="2"/>
<path d="M111.5,439.09v -8.72722" fill="none" stroke="black" stroke-width="2"/>
<path d="M101.546,439.09h 9.95433" fill="none" stroke="black" stroke-width="2"/>
<path d="M111.5,439.09h 9.95433" fill="none" stroke="black" stroke-width="2"/>
<g stroke="black" stroke-width="1" fill="none">
<line x1="110.5" y1="439.09" x2="111.5" y2="439.09"/>
</g>
<path d="M131.409,457.871v -5.58804" fill="none" stroke="black" stroke-width="2"/>
<path d="M131.409,452.283v -5.58804" fill="none" stroke="black" stroke-width="2"/>
<path d="M121.454,452.283h 9.95433" fill="none" stroke="black" stroke-width="2"/>
<path d="M131.409,452.283h 9.95433" fill="none" stroke="black" stroke-width="2"/>
<g stroke="black" stroke-width="1" fill="none">
<line x1="130.409" y1="452.283" x2="131.409" y2="452.283"/>
</g>
<path d="M151.317,440.13v -6.18872" fill="none" stroke="black" stroke-width="2"/>
<path d="M151.317,433.941v -6.18872" fill="none" stroke="black" stroke-width="2"/>
<path d="M141.363,433.941h 9.95433" fill="none" stroke="black" stroke-width="2"/>
<path d="M151.317,433.941h 9.95433" fill="none" stroke="black" stroke-width="2"/>
<g stroke="black" stroke-width="1" fill="none">
<line x1="150.317" y1="433.941" x2="151.317" y2="433.941"/>
</g>
<path d="M171.226,446.892v -5.42284" fill="none" stroke="black" stroke-width="2"/>
<path d="M171.226,441.469v -5.42284" fill="none" stroke="black" stroke-width="2"/>
<path d="M161.272,441.469h 9.95433" fill="none" stroke="black" stroke-width="2"/>
<path d="M171.226,441.469h 9.95433" fill="none" stroke="black" stroke-width="2"/>
<g stroke="black" stroke-width="1" fill="none">
<line x1="170.226" y1="441.469" x2="171.226" y2="441.469"/>
</g>
<path d="M191.135,452.818v -5.86395" fill="none" stroke="black" stroke-width="2"/>
<path d="M191.135,446.954v -5.86395" fill="none" stroke="black" stroke-width="2"/>
<path d="M181.18,446.954h 9.95433" fill="none" stroke="black" stroke-width="2"/>
<path d="M191.135,446.954h 9.95433" fill="none" stroke="black" stroke-width="2"/>
<g stroke="black" stroke-width="1" fill="none">
<line x1="190.135" y1="446.954" x2="191.135" y2="446.954"/>
</g>
<path d="M211.043,456.852v -7.09837" fill="none" stroke="black" stroke-width="2"/>
<path d="M211.043,449.754v -7.09837" fill="none" stroke="black" stroke-width="2"/>
<path d="M201.089,449.754h 9.95433" fill="none" stroke="black" stroke-width="2"/>
<path d="M211.043,449.754h 9.95433" fill="none" stroke="black" stroke-width="2"/>
<g stroke="black" stroke-width="1" fill="none">
<line x1="210.043" y1="449.754" x2="211.043" y2="449.754"/>
</g>
<path d="M230.952,427.088v -9.89734" fill="none" stroke="black" stroke-width="2"/>
<path d="M230.952,417.191v -9.89734" fill="none" stroke="black" stroke-width="2"/>
<path d="M220.998,417.191h 9.95433" fill="none" stroke="black" stroke-width="2"/>
<path d="M230.952,417.191h 9.95433" fill="none" stroke="black" stroke-width="2"/>
<g stroke="black" stroke-width="1" fill="none">
<line x1="229.952" y1="417.191" x2="230.952" y2="417.191"/>
</g>
<path d="M250.861,445.048v -11.5572" fill="none" stroke="black" stroke-width="2"/>
<path d="M250.861,433.491v -11.5572" fill="none" stroke="black" stroke-width="2"/>
<path d="M240.906,433.491h 9.95433" fill="none" stroke="black" stroke-width="2"/>
<path d="M250.861,433.491h 9.95433" fill="none" stroke="black" stroke-width="2"/>
<g stroke="black" stroke-width="1" fill="none">
<line x1="249.861" y1="433.491" x2="250.861" y2="433.491"/>
</g>
<path d="M270.769,454.276v -15.673" fill="none" stroke="black" stroke-width="2"/>
<path d="M270.769,438.604v -15.673" fill="none" stroke="black" stroke-width="2"/>
<path d="M260.815,438.604h 9.95433" fill="none" stroke="black" stroke-width="2"/>
<path d="M270.769,438.604h 9.95433" fill="none" stroke="black" stroke-width="2"/>
<g stroke="black" stroke-width="1" fill="none">
<line x1="269.769" y1="438.604" x2="270.769" y2="438.604"/>
</g>
<path d="M290.678,470.885v -20.466" fill="none" stroke="black" stroke-width="2"/>
<path d="M290.678,450.419v -20.466" fill="none" stroke="black" stroke-width="2"/>
<path d="M280.724,450.419h 9.95433" fill="none" stroke="black" stroke-width="2"/>
<path d="M290.678,450.419h 9.95433" fill="none" stroke="black" stroke-width="2"/>
<g stroke="black" stroke-width="1" fill="none">
<line x1="289.678" y1="450.419" x2="290.678" y2="450.419"/>
</g>
<path d="M310.587,457.008v -35.8863" fill="none" stroke="black" stroke-width="2"/>
<path d="M310.587,421.121v -35.8863" fill="none" stroke="black" stroke-width="2"/>
<path d="M300.632,421.121h 9.95433" fill="none" stroke="black" stroke-width="2"/>
<path d="M310.587,421.121h 9.95433" fill="none" stroke="black" stroke-width="2"/>
<g stroke="black" stroke-width="1" fill="none">
<line x1="309.587" y1="421.121" x2="310.587" y2="421.121"/>
</g>
<path d="M330.495,478.679v -67.4212" fill="none" stroke="black" stroke-width="2"/>
<path d="M330.495,411.258v -67.4212" fill="none" stroke="black" stroke-width="2"/>
<path d="M320.541,411.258h 9.95433" fill="none" stroke="black" stroke-width="2"/>
<path d="M330.495,411.258h 9.95433" fill="none" stroke="black" stroke-width="2"/>
<g stroke="black" stroke-width="1" fill="none">
<line x1="329.495" y1="411.258" x2="330.495" y2="411.258"/>
</g>
<path d="M439.993,438.359v -74.9387" fill="none" stroke="black" stroke-width="2"/>
<path d="M439.993,363.421v -74.9387" fill="none" stroke="black" stroke-width="2"/>
<path d="M340.45,363.421h 99.5433" fill="none" stroke="black" stroke-width="2"/>
<path d="M439.993,363.421h 99.5433" fill="none" stroke="black" stroke-width="2"/>
<g stroke="black" stroke-width="1" fill="none">
<line x1="438.993" y1="363.421" x2="439.993" y2="363.421"/>
</g>
<path d="M64.1174,447.358l 4.77808, -0.245538l 4.77808, -0.245538l 4.77808, -0.245538l 4.77808, -0.245538l 4.77808, -0.245538l 4.77808, -0.245538l 4.77808, -0.245538l 4.77808, -0.245538l 4.77808, -0.245538l 4.77808, -0.245538l 4.77808, -0.245538l
 4.77808, -0.245538l 4.77808, -0.245538l 4.77808, -0.245538l 4.77808, -0.245538l 4.77808, -0.245538l 4.77808, -0.245538l 4.77808, -0.245538l 4.77808, -0.245538l 4.77808, -0.245538l 4.77808, -0.245538l 4.77808, -0.245538l 4.77808, -0.245538l 4.77808,
 -0.245538l 4.77808, -0.245538l 4.77808, -0.245538l 4.77808, -0.245538l 4.77808, -0.245538l 4.77808, -0.245538l 4.77808, -0.245538l 4.77808, -0.245538l 4.77808, -0.245538l 4.77808, -0.245538l 4.77808, -0.245538l 4.77808, -0.245538l 4.77808,
 -0.245538l 4.77808, -0.245538l 4.77808, -0.245538l 4.77808, -0.245538l 4.77808, -0.245538l 4.77808, -0.245538l 4.77808, -0.245538l 4.77808, -0.245538l 4.77808, -0.245538l 4.77808, -0.245538l 4.77808, -0.245538l 4.77808, -0.245538l 4.77808,
 -0.245538l 4.77808, -0.245538" fill="none" stroke="#339966" stroke-width="2"/>
<path d="M298.243,435.327l 4.77808, -0.245538l 4.77808, -0.245538l 4.77808, -0.245538l 4.77808, -0.245538l 4.77808, -0.245538l 4.77808, -0.245538l 4.77808, -0.245538l 4.77808, -0.245538l 4.77808, -0.245538l 4.77808, -0.245538l 4.77808, -0.245538l
 4.77808, -0.245538l 4.77808, -0.245538l 4.77808, -0.245538l 4.77808, -0.245538l 4.77808, -0.245538l 4.77808, -0.245538l 4.77808, -0.245538l 4.77808, -0.245538l 4.77808, -0.245538l 4.77808, -0.245538l 4.77808, -0.245538l 4.77808, -0.245538l 4.77808,
 -0.245538l 4.77808, -0.245538l 4.77808, -0.245538l 4.77808, -0.245538l 4.77808, -0.245538l 4.77808, -0.245538l 4.77808, -0.245538l 4.77808, -0.245538l 4.77808, -0.245538l 4.77808, -0.245538l 4.77808, -0.245538l 4.77808, -0.245538l 4.77808,
 -0.245538l 4.77808, -0.245538l 4.77808, -0.245538l 4.77808, -0.245538l 4.77808, -0.245538l 4.77808, -0.245538l 4.77808, -0.245538l 4.77808, -0.245538l 4.77808, -0.245538l 4.77808, -0.245538l 4.77808, -0.245538l 4.77808, -0.245538l 4.77808,
 -0.245538l 4.77808, -0.245538" fill="none" stroke="#339966" stroke-width="2"/>
<path d="M532.369,423.296l 4.77808, -0.245538" fill="none" stroke="#339966" stroke-width="2"/>
<path d="M61.7283,488.189h 477.808" fill="none" stroke="black"/>
<path d="M141.363,481.426v 6.76256" fill="none" stroke="black"/>
<path d="M161.272,484.807v 3.38128" fill="none" stroke="black"/>
<path d="M181.18,484.807v 3.38128" fill="none" stroke="black"/>
<path d="M201.089,484.807v 3.38128" fill="none" stroke="black"/>
<path d="M220.998,484.807v 3.38128" fill="none" stroke="black"/>
<path d="M240.906,481.426v 6.76256" fill="none" stroke="black"/>
<path d="M260.815,484.807v 3.38128" fill="none" stroke="black"/>
<path d="M280.724,484.807v 3.38128" fill="none" stroke="black"/>
<path d="M300.632,484.807v 3.38128" fill="none" stroke="black"/>
<path d="M320.541,484.807v 3.38128" fill="none" stroke="black"/>
<path d="M340.45,481.426v 6.76256" fill="none" stroke="black"/>
<path d="M360.358,484.807v 3.38128" fill="none" stroke="black"/>
<path d="M380.267,484.807v 3.38128" fill="none" stroke="black"/>
<path d="M400.176,484.807v 3.38128" fill="none" stroke="black"/>
<path d="M420.084,484.807v 3.38128" fill="none" stroke="black"/>
<path d="M439.993,481.426v 6.76256" fill="none" stroke="black"/>
<path d="M459.902,484.807v 3.38128" fill="none" stroke="black"/>
<path d="M479.81,484.807v 3.38128" fill="none" stroke="black"/>
<path d="M499.719,484.807v 3.38128" fill="none" stroke="black"/>
<path d="M519.628,484.807v 3.38128" fill="none" stroke="black"/>
<path d="M539.536,481.426v 6.76256" fill="none" stroke="black"/>
<path d="M141.363,481.426v 6.76256" fill="none" stroke="black"/>
<path d="M121.454,484.807v 3.38128" fill="none" stroke="black"/>
<path d="M101.546,484.807v 3.38128" fill="none" stroke="black"/>
<path d="M81.637,484.807v 3.38128" fill="none" stroke="black"/>
<path d="M61.7283,484.807v 3.38128" fill="none" stroke="black"/>
<text xml:space="preserve" x="137.966" y="496.774" fill="black" font-size="8.91652" font-family="Helvetica">5</text>
<text xml:space="preserve" x="235.614" y="496.774" fill="black" font-size="8.91652" font-family="Helvetica">10</text>
<text xml:space="preserve" x="335.159" y="496.774" fill="black" font-size="8.91652" font-family="Helvetica">15</text>
<text xml:space="preserve" x="434.703" y="496.774" fill="black" font-size="8.91652" font-family="Helvetica">20</text>
<text xml:space="preserve" x="534.248" y="496.774" fill="black" font-size="8.91652" font-family="Helvetica">25</text>
<text xml:space="preserve" x="433.755" y="516.683" fill="black" font-size="14.9283" font-family="Helvetica">Track multiplicity</text>
<path d="M61.7283,278.497h 477.808" fill="none" stroke="black"/>
<path d="M141.363,285.259v -6.76256" fill="none" stroke="black"/>
<path d="M161.272,281.878v -3.38128" fill="none" stroke="black"/>
<path d="M181.18,281.878v -3.38128" fill="none" stroke="black"/>
<path d="M201.089,281.878v -3.38128" fill="none" stroke="black"/>
<path d="M220.998,281.878v -3.38128" fill="none" stroke="black"/>
<path d="M240.906,285.259v -6.76256" fill="none" stroke="black"/>
<path d="M260.815,281.878v -3.38128" fill="none" stroke="black"/>
<path d="M280.724,281.878v -3.38128" fill="none" stroke="black"/>
<path d="M300.632,281.878v -3.38128" fill="none" stroke="black"/>
<path d="M320.541,281.878v -3.38128" fill="none" stroke="black"/>
<path d="M340.45,285.259v -6.76256" fill="none" stroke="black"/>
<path d="M360.358,281.878v -3.38128" fill="none" stroke="black"/>
<path d="M380.267,281.878v -3.38128" fill="none" stroke="black"/>
<path d="M400.176,281.878v -3.38128" fill="none" stroke="black"/>
<path d="M420.084,281.878v -3.38128" fill="none" stroke="black"/>
<path d="M439.993,285.259v -6.76256" fill="none" stroke="black"/>
<path d="M459.902,281.878v -3.38128" fill="none" stroke="black"/>
<path d="M479.81,281.878v -3.38128" fill="none" stroke="black"/>
<path d="M499.719,281.878v -3.38128" fill="none" stroke="black"/>
<path d="M519.628,281.878v -3.38128" fill="none" stroke="black"/>
<path d="M539.536,285.259v -6.76256" fill="none" stroke="black"/>
<path d="M141.363,285.259v -6.76256" fill="none" stroke="black"/>
<path d="M121.454,281.878v -3.38128" fill="none" stroke="black"/>
<path d="M101.546,281.878v -3.38128" fill="none" stroke="black"/>
<path d="M81.637,281.878v -3.38128" fill="none" stroke="black"/>
<path d="M61.7283,281.878v -3.38128" fill="none" stroke="black"/>
<path d="M61.7283,488.189v -209.692" fill="none" stroke="black"/>
<path d="M75.0625,485.199h -13.3342" fill="none" stroke="black"/>
<path d="M68.3954,479.781h -6.66709" fill="none" stroke="black"/>
<path d="M68.3954,474.363h -6.66709" fill="none" stroke="black"/>
<path d="M68.3954,468.945h -6.66709" fill="none" stroke="black"/>
<path d="M75.0625,463.527h -13.3342" fill="none" stroke="black"/>
<path d="M68.3954,458.109h -6.66709" fill="none" stroke="black"/>
<path d="M68.3954,452.691h -6.66709" fill="none" stroke="black"/>
<path d="M68.3954,447.273h -6.66709" fill="none" stroke="black"/>
<path d="M75.0625,441.856h -13.3342" fill="none" stroke="black"/>
<path d="M68.3954,436.438h -6.66709" fill="none" stroke="black"/>
<path d="M68.3954,431.02h -6.66709" fill="none" stroke="black"/>
<path d="M68.3954,425.602h -6.66709" fill="none" stroke="black"/>
<path d="M75.0625,420.184h -13.3342" fill="none" stroke="black"/>
<path d="M68.3954,414.766h -6.66709" fill="none" stroke="black"/>
<path d="M68.3954,409.348h -6.66709" fill="none" stroke="black"/>
<path d="M68.3954,403.93h -6.66709" fill="none" stroke="black"/>
<path d="M75.0625,398.512h -13.3342" fill="none" stroke="black"/>
<path d="M68.3954,393.095h -6.66709" fill="none" stroke="black"/>
<path d="M68.3954,387.677h -6.66709" fill="none" stroke="black"/>
<path d="M68.3954,382.259h -6.66709" fill="none" stroke="black"/>
<path d="M75.0625,376.841h -13.3342" fill="none" stroke="black"/>
<path d="M68.3954,371.423h -6.66709" fill="none" stroke="black"/>
<path d="M68.3954,366.005h -6.66709" fill="none" stroke="black"/>
<path d="M68.3954,360.587h -6.66709" fill="none" stroke="black"/>
<path d="M75.0625,355.169h -13.3342" fill="none" stroke="black"/>
<path d="M68.3954,349.751h -6.66709" fill="none" stroke="black"/>
<path d="M68.3954,344.334h -6.66709" fill="none" stroke="black"/>
<path d="M68.3954,338.916h -6.66709" fill="none" stroke="black"/>
<path d="M75.0625,333.498h -13.3342" fill="none" stroke="black"/>
<path d="M68.3954,328.08h -6.66709" fill="none" stroke="black"/>
<path d="M68.3954,322.662h -6.66709" fill="none" stroke="black"/>
<path d="M68.3954,317.244h -6.66709" fill="none" stroke="black"/>
<path d="M75.0625,311.826h -13.3342" fill="none" stroke="black"/>
<path d="M68.3954,306.408h -6.66709" fill="none" stroke="black"/>
<path d="M68.3954,300.99h -6.66709" fill="none" stroke="black"/>
<path d="M68.3954,295.573h -6.66709" fill="none" stroke="black"/>
<path d="M75.0625,290.155h -13.3342" fill="none" stroke="black"/>
<path d="M75.0625,485.199h -13.3342" fill="none" stroke="black"/>
<path d="M75.0625,290.155h -13.3342" fill="none" stroke="black"/>
<path d="M68.3954,284.737h -6.66709" fill="none" stroke="black"/>
<path d="M68.3954,279.319h -6.66709" fill="none" stroke="black"/>
<text xml:space="preserve" x="46.006" y="488.242" fill="black" font-size="8.91652" font-family="Helvetica">0.6</text>
<text xml:space="preserve" x="46.006" y="466.437" fill="black" font-size="8.91652" font-family="Helvetica">0.8</text>
<text xml:space="preserve" x="54.5384" y="445.58" fill="black" font-size="8.91652" font-family="Helvetica">1</text>
<text xml:space="preserve" x="46.006" y="423.775" fill="black" font-size="8.91652" font-family="Helvetica">1.2</text>
<text xml:space="preserve" x="46.006" y="401.97" fill="black" font-size="8.91652" font-family="Helvetica">1.4</text>
<text xml:space="preserve" x="46.006" y="380.165" fill="black" font-size="8.91652" font-family="Helvetica">1.6</text>
<text xml:space="preserve" x="46.006" y="358.36" fill="black" font-size="8.91652" font-family="Helvetica">1.8</text>
<text xml:space="preserve" x="53.5904" y="336.555" fill="black" font-size="8.91652" font-family="Helvetica">2</text>
<text xml:space="preserve" x="46.006" y="314.75" fill="black" font-size="8.91652" font-family="Helvetica">2.2</text>
<text xml:space="preserve" x="46.006" y="293.893" fill="black" font-size="8.91652" font-family="Helvetica">2.4</text>
<g transform="rotate(-90,19.4608,458.852)">
<text xml:space="preserve" x="19.4608" y="458.852" fill="black" font-size="14.9283" font-family="Helvetica">True Background / Predicted</text>
</g>
<rect x="340.847" y="432.307" width="194.349" height="52.1423" fill="none" stroke="black"/>
<path d="M340.847,484.449h 194.349" fill="none" stroke="black"/>
<path d="M535.196,484.449v -52.1423" fill="none" stroke="black"/>
<path d="M535.196,432.307h -194.349" fill="none" stroke="black"/>
<path d="M340.847,432.307v 52.1423" fill="none" stroke="black"/>
<text xml:space="preserve" x="345.587" y="450.32" fill="black" font-size="14.9283" font-family="Helvetica">Fitting function</text>
<text xml:space="preserve" x="389.197" y="476.865" fill="black" font-size="14.9283" font-family="Helvetica">c0+c1*x</text>
<path d="M348.135,471.414h 34.011" fill="none" stroke="#339966" stroke-width="2"/></svg>
