<?xml version="1.0" standalone="no"?>
<svg width="567.429" height="546.572" viewBox="0 0 567.429 546.572" xmlns="http://www.w3.org/2000/svg" shape-rendering="crispEdges">
<title>
/home/kuanyu/Documents/CMS/Background_Estimate/fake_rate/top_emu/plot/CT_Top(emu)_JetEta_dileppT_LO.svg
</title>
<desc>
Creator: ROOT Version 6.26/04
CreationDate: Wed Nov  9 18:36:27 2022</desc>
<defs>
</defs>
<rect x="0.5" y="0" width="566.929" height="546.072" fill="white"/>
<rect x="6.16929" y="5.46072" width="555.591" height="262.115" fill="white"/>
<rect x="61.7283" y="8.08187" width="477.808" height="259.493" fill="white"/>
<rect x="61.7283" y="8.08187" width="477.808" height="259.493" fill="none" stroke="black"/>
<rect x="61.7283" y="8.08187" width="477.808" height="259.493" fill="white"/>
<rect x="61.7283" y="8.08187" width="477.808" height="259.493" fill="none" stroke="black"/>
<path d="M101.546,212.942v -18.1066" fill="none" stroke="#ff0000" stroke-width="2"/>
<path d="M101.546,194.836v -14.7143" fill="none" stroke="#ff0000" stroke-width="2"/>
<path d="M93.5822,194.836h 7.96346" fill="none" stroke="#ff0000" stroke-width="2"/>
<path d="M101.546,194.836h 7.96346" fill="none" stroke="#ff0000" stroke-width="2"/>
<g stroke="black" stroke-width="1" fill="none">
<line x1="100.546" y1="194.836" x2="101.546" y2="194.836"/>
</g>
<path d="M117.473,123.877v -12.6471" fill="none" stroke="#ff0000" stroke-width="2"/>
<path d="M117.473,111.23v -10.8956" fill="none" stroke="#ff0000" stroke-width="2"/>
<path d="M109.509,111.23h 7.96346" fill="none" stroke="#ff0000" stroke-width="2"/>
<path d="M117.473,111.23h 7.96346" fill="none" stroke="#ff0000" stroke-width="2"/>
<g stroke="black" stroke-width="1" fill="none">
<line x1="116.473" y1="111.23" x2="117.473" y2="111.23"/>
</g>
<path d="M133.4,140.118v -14.4869" fill="none" stroke="#ff0000" stroke-width="2"/>
<path d="M133.4,125.632v -12.2331" fill="none" stroke="#ff0000" stroke-width="2"/>
<path d="M125.436,125.632h 7.96346" fill="none" stroke="#ff0000" stroke-width="2"/>
<path d="M133.4,125.632h 7.96346" fill="none" stroke="#ff0000" stroke-width="2"/>
<g stroke="black" stroke-width="1" fill="none">
<line x1="132.4" y1="125.632" x2="133.4" y2="125.632"/>
</g>
<path d="M149.326,126.631v -12.9416" fill="none" stroke="#ff0000" stroke-width="2"/>
<path d="M149.326,113.689v -11.1133" fill="none" stroke="#ff0000" stroke-width="2"/>
<path d="M141.363,113.689h 7.96346" fill="none" stroke="#ff0000" stroke-width="2"/>
<path d="M149.326,113.689h 7.96346" fill="none" stroke="#ff0000" stroke-width="2"/>
<g stroke="black" stroke-width="1" fill="none">
<line x1="148.326" y1="113.689" x2="149.326" y2="113.689"/>
</g>
<path d="M165.253,110.792v -11.3729" fill="none" stroke="#ff0000" stroke-width="2"/>
<path d="M165.253,99.4194v -9.93689" fill="none" stroke="#ff0000" stroke-width="2"/>
<path d="M157.29,99.4194h 7.96346" fill="none" stroke="#ff0000" stroke-width="2"/>
<path d="M165.253,99.4194h 7.96346" fill="none" stroke="#ff0000" stroke-width="2"/>
<g stroke="black" stroke-width="1" fill="none">
<line x1="164.253" y1="99.4194" x2="165.253" y2="99.4194"/>
</g>
<path d="M181.18,108.783v -11.9546" fill="none" stroke="#ff0000" stroke-width="2"/>
<path d="M181.18,96.8283v -10.3779" fill="none" stroke="#ff0000" stroke-width="2"/>
<path d="M173.217,96.8283h 7.96346" fill="none" stroke="#ff0000" stroke-width="2"/>
<path d="M181.18,96.8283h 7.96346" fill="none" stroke="#ff0000" stroke-width="2"/>
<g stroke="black" stroke-width="1" fill="none">
<line x1="180.18" y1="96.8283" x2="181.18" y2="96.8283"/>
</g>
<path d="M197.107,87.4648v -8.23307" fill="none" stroke="#ff0000" stroke-width="2"/>
<path d="M197.107,79.2317v -7.45384" fill="none" stroke="#ff0000" stroke-width="2"/>
<path d="M189.144,79.2317h 7.96346" fill="none" stroke="#ff0000" stroke-width="2"/>
<path d="M197.107,79.2317h 7.96346" fill="none" stroke="#ff0000" stroke-width="2"/>
<g stroke="black" stroke-width="1" fill="none">
<line x1="196.107" y1="79.2317" x2="197.107" y2="79.2317"/>
</g>
<path d="M213.034,99.0806v -9.63978" fill="none" stroke="#ff0000" stroke-width="2"/>
<path d="M213.034,89.4408v -8.58825" fill="none" stroke="#ff0000" stroke-width="2"/>
<path d="M205.071,89.4408h 7.96346" fill="none" stroke="#ff0000" stroke-width="2"/>
<path d="M213.034,89.4408h 7.96346" fill="none" stroke="#ff0000" stroke-width="2"/>
<g stroke="black" stroke-width="1" fill="none">
<line x1="212.034" y1="89.4408" x2="213.034" y2="89.4408"/>
</g>
<path d="M228.961,97.4408v -9.53712" fill="none" stroke="#ff0000" stroke-width="2"/>
<path d="M228.961,87.9036v -8.50669" fill="none" stroke="#ff0000" stroke-width="2"/>
<path d="M220.998,87.9036h 7.96346" fill="none" stroke="#ff0000" stroke-width="2"/>
<path d="M228.961,87.9036h 7.96346" fill="none" stroke="#ff0000" stroke-width="2"/>
<g stroke="black" stroke-width="1" fill="none">
<line x1="227.961" y1="87.9036" x2="228.961" y2="87.9036"/>
</g>
<path d="M244.888,74.7688v -8.57902" fill="none" stroke="#ff0000" stroke-width="2"/>
<path d="M244.888,66.1898v -7.73623" fill="none" stroke="#ff0000" stroke-width="2"/>
<path d="M236.925,66.1898h 7.96346" fill="none" stroke="#ff0000" stroke-width="2"/>
<path d="M244.888,66.1898h 7.96346" fill="none" stroke="#ff0000" stroke-width="2"/>
<g stroke="black" stroke-width="1" fill="none">
<line x1="243.888" y1="66.1898" x2="244.888" y2="66.1898"/>
</g>
<path d="M260.815,89.6541v -9.73278" fill="none" stroke="#ff0000" stroke-width="2"/>
<path d="M260.815,79.9213v -8.66197" fill="none" stroke="#ff0000" stroke-width="2"/>
<path d="M252.852,79.9213h 7.96346" fill="none" stroke="#ff0000" stroke-width="2"/>
<path d="M260.815,79.9213h 7.96346" fill="none" stroke="#ff0000" stroke-width="2"/>
<g stroke="black" stroke-width="1" fill="none">
<line x1="259.815" y1="79.9213" x2="260.815" y2="79.9213"/>
</g>
<path d="M276.742,111.041v -12.1985" fill="none" stroke="#ff0000" stroke-width="2"/>
<path d="M276.742,98.8429v -10.5611" fill="none" stroke="#ff0000" stroke-width="2"/>
<path d="M268.778,98.8429h 7.96346" fill="none" stroke="#ff0000" stroke-width="2"/>
<path d="M276.742,98.8429h 7.96346" fill="none" stroke="#ff0000" stroke-width="2"/>
<g stroke="black" stroke-width="1" fill="none">
<line x1="275.742" y1="98.8429" x2="276.742" y2="98.8429"/>
</g>
<path d="M292.669,104.604v -11.534" fill="none" stroke="#ff0000" stroke-width="2"/>
<path d="M292.669,93.0701v -10.0596" fill="none" stroke="#ff0000" stroke-width="2"/>
<path d="M284.705,93.0701h 7.96346" fill="none" stroke="#ff0000" stroke-width="2"/>
<path d="M292.669,93.0701h 7.96346" fill="none" stroke="#ff0000" stroke-width="2"/>
<g stroke="black" stroke-width="1" fill="none">
<line x1="291.669" y1="93.0701" x2="292.669" y2="93.0701"/>
</g>
<path d="M308.596,118.345v -10.0232" fill="none" stroke="#ff0000" stroke-width="2"/>
<path d="M308.596,108.322v -8.89119" fill="none" stroke="#ff0000" stroke-width="2"/>
<path d="M300.632,108.322h 7.96346" fill="none" stroke="#ff0000" stroke-width="2"/>
<path d="M308.596,108.322h 7.96346" fill="none" stroke="#ff0000" stroke-width="2"/>
<g stroke="black" stroke-width="1" fill="none">
<line x1="307.596" y1="108.322" x2="308.596" y2="108.322"/>
</g>
<path d="M324.523,116.167v -10.9388" fill="none" stroke="#ff0000" stroke-width="2"/>
<path d="M324.523,105.228v -9.60404" fill="none" stroke="#ff0000" stroke-width="2"/>
<path d="M316.559,105.228h 7.96346" fill="none" stroke="#ff0000" stroke-width="2"/>
<path d="M324.523,105.228h 7.96346" fill="none" stroke="#ff0000" stroke-width="2"/>
<g stroke="black" stroke-width="1" fill="none">
<line x1="323.523" y1="105.228" x2="324.523" y2="105.228"/>
</g>
<path d="M340.45,90.2373v -9.69315" fill="none" stroke="#ff0000" stroke-width="2"/>
<path d="M340.45,80.5442v -8.63058" fill="none" stroke="#ff0000" stroke-width="2"/>
<path d="M332.486,80.5442h 7.96346" fill="none" stroke="#ff0000" stroke-width="2"/>
<path d="M340.45,80.5442h 7.96346" fill="none" stroke="#ff0000" stroke-width="2"/>
<g stroke="black" stroke-width="1" fill="none">
<line x1="339.45" y1="80.5442" x2="340.45" y2="80.5442"/>
</g>
<path d="M356.377,87.3649v -9.55967" fill="none" stroke="#ff0000" stroke-width="2"/>
<path d="M356.377,77.8053v -8.52462" fill="none" stroke="#ff0000" stroke-width="2"/>
<path d="M348.413,77.8053h 7.96346" fill="none" stroke="#ff0000" stroke-width="2"/>
<path d="M356.377,77.8053h 7.96346" fill="none" stroke="#ff0000" stroke-width="2"/>
<g stroke="black" stroke-width="1" fill="none">
<line x1="355.377" y1="77.8053" x2="356.377" y2="77.8053"/>
</g>
<path d="M372.303,99.5376v -10.4012" fill="none" stroke="#ff0000" stroke-width="2"/>
<path d="M372.303,89.1364v -9.18725" fill="none" stroke="#ff0000" stroke-width="2"/>
<path d="M364.34,89.1364h 7.96346" fill="none" stroke="#ff0000" stroke-width="2"/>
<path d="M372.303,89.1364h 7.96346" fill="none" stroke="#ff0000" stroke-width="2"/>
<g stroke="black" stroke-width="1" fill="none">
<line x1="371.303" y1="89.1364" x2="372.303" y2="89.1364"/>
</g>
<path d="M388.23,102.235v -9.87451" fill="none" stroke="#ff0000" stroke-width="2"/>
<path d="M388.23,92.3606v -8.77402" fill="none" stroke="#ff0000" stroke-width="2"/>
<path d="M380.267,92.3606h 7.96346" fill="none" stroke="#ff0000" stroke-width="2"/>
<path d="M388.23,92.3606h 7.96346" fill="none" stroke="#ff0000" stroke-width="2"/>
<g stroke="black" stroke-width="1" fill="none">
<line x1="387.23" y1="92.3606" x2="388.23" y2="92.3606"/>
</g>
<path d="M404.157,94.7871v -9.36134" fill="none" stroke="#ff0000" stroke-width="2"/>
<path d="M404.157,85.4258v -8.36659" fill="none" stroke="#ff0000" stroke-width="2"/>
<path d="M396.194,85.4258h 7.96346" fill="none" stroke="#ff0000" stroke-width="2"/>
<path d="M404.157,85.4258h 7.96346" fill="none" stroke="#ff0000" stroke-width="2"/>
<g stroke="black" stroke-width="1" fill="none">
<line x1="403.157" y1="85.4258" x2="404.157" y2="85.4258"/>
</g>
<path d="M420.084,121.119v -11.3464" fill="none" stroke="#ff0000" stroke-width="2"/>
<path d="M420.084,109.773v -9.91669" fill="none" stroke="#ff0000" stroke-width="2"/>
<path d="M412.121,109.773h 7.96346" fill="none" stroke="#ff0000" stroke-width="2"/>
<path d="M420.084,109.773h 7.96346" fill="none" stroke="#ff0000" stroke-width="2"/>
<g stroke="black" stroke-width="1" fill="none">
<line x1="419.084" y1="109.773" x2="420.084" y2="109.773"/>
</g>
<path d="M436.011,116.22v -10.9398" fill="none" stroke="#ff0000" stroke-width="2"/>
<path d="M436.011,105.28v -9.60477" fill="none" stroke="#ff0000" stroke-width="2"/>
<path d="M428.048,105.28h 7.96346" fill="none" stroke="#ff0000" stroke-width="2"/>
<path d="M436.011,105.28h 7.96346" fill="none" stroke="#ff0000" stroke-width="2"/>
<g stroke="black" stroke-width="1" fill="none">
<line x1="435.011" y1="105.28" x2="436.011" y2="105.28"/>
</g>
<path d="M451.938,145.562v -13.6451" fill="none" stroke="#ff0000" stroke-width="2"/>
<path d="M451.938,131.917v -11.6278" fill="none" stroke="#ff0000" stroke-width="2"/>
<path d="M443.975,131.917h 7.96346" fill="none" stroke="#ff0000" stroke-width="2"/>
<path d="M451.938,131.917h 7.96346" fill="none" stroke="#ff0000" stroke-width="2"/>
<g stroke="black" stroke-width="1" fill="none">
<line x1="450.938" y1="131.917" x2="451.938" y2="131.917"/>
</g>
<path d="M467.865,132.822v -12.3737" fill="none" stroke="#ff0000" stroke-width="2"/>
<path d="M467.865,120.448v -10.6922" fill="none" stroke="#ff0000" stroke-width="2"/>
<path d="M459.902,120.448h 7.96346" fill="none" stroke="#ff0000" stroke-width="2"/>
<path d="M467.865,120.448h 7.96346" fill="none" stroke="#ff0000" stroke-width="2"/>
<g stroke="black" stroke-width="1" fill="none">
<line x1="466.865" y1="120.448" x2="467.865" y2="120.448"/>
</g>
<path d="M483.792,134.295v -12.5037" fill="none" stroke="#ff0000" stroke-width="2"/>
<path d="M483.792,121.792v -10.7891" fill="none" stroke="#ff0000" stroke-width="2"/>
<path d="M475.828,121.792h 7.96346" fill="none" stroke="#ff0000" stroke-width="2"/>
<path d="M483.792,121.792h 7.96346" fill="none" stroke="#ff0000" stroke-width="2"/>
<g stroke="black" stroke-width="1" fill="none">
<line x1="482.792" y1="121.792" x2="483.792" y2="121.792"/>
</g>
<path d="M499.719,177.535v -14.5798" fill="none" stroke="#ff0000" stroke-width="2"/>
<path d="M499.719,162.955v -12.2992" fill="none" stroke="#ff0000" stroke-width="2"/>
<path d="M491.755,162.955h 7.96346" fill="none" stroke="#ff0000" stroke-width="2"/>
<path d="M499.719,162.955h 7.96346" fill="none" stroke="#ff0000" stroke-width="2"/>
<g stroke="black" stroke-width="1" fill="none">
<line x1="498.719" y1="162.955" x2="499.719" y2="162.955"/>
</g>
<path d="M61.7283,267.575h 477.808" fill="none" stroke="black"/>
<path d="M61.7283,260.813v 6.76256" fill="none" stroke="black"/>
<path d="M77.6553,264.194v 3.38128" fill="none" stroke="black"/>
<path d="M93.5822,264.194v 3.38128" fill="none" stroke="black"/>
<path d="M109.509,264.194v 3.38128" fill="none" stroke="black"/>
<path d="M125.436,264.194v 3.38128" fill="none" stroke="black"/>
<path d="M141.363,260.813v 6.76256" fill="none" stroke="black"/>
<path d="M157.29,264.194v 3.38128" fill="none" stroke="black"/>
<path d="M173.217,264.194v 3.38128" fill="none" stroke="black"/>
<path d="M189.144,264.194v 3.38128" fill="none" stroke="black"/>
<path d="M205.071,264.194v 3.38128" fill="none" stroke="black"/>
<path d="M220.998,260.813v 6.76256" fill="none" stroke="black"/>
<path d="M236.925,264.194v 3.38128" fill="none" stroke="black"/>
<path d="M252.852,264.194v 3.38128" fill="none" stroke="black"/>
<path d="M268.778,264.194v 3.38128" fill="none" stroke="black"/>
<path d="M284.705,264.194v 3.38128" fill="none" stroke="black"/>
<path d="M300.632,260.813v 6.76256" fill="none" stroke="black"/>
<path d="M316.559,264.194v 3.38128" fill="none" stroke="black"/>
<path d="M332.486,264.194v 3.38128" fill="none" stroke="black"/>
<path d="M348.413,264.194v 3.38128" fill="none" stroke="black"/>
<path d="M364.34,264.194v 3.38128" fill="none" stroke="black"/>
<path d="M380.267,260.813v 6.76256" fill="none" stroke="black"/>
<path d="M396.194,264.194v 3.38128" fill="none" stroke="black"/>
<path d="M412.121,264.194v 3.38128" fill="none" stroke="black"/>
<path d="M428.048,264.194v 3.38128" fill="none" stroke="black"/>
<path d="M443.975,264.194v 3.38128" fill="none" stroke="black"/>
<path d="M459.902,260.813v 6.76256" fill="none" stroke="black"/>
<path d="M475.828,264.194v 3.38128" fill="none" stroke="black"/>
<path d="M491.755,264.194v 3.38128" fill="none" stroke="black"/>
<path d="M507.682,264.194v 3.38128" fill="none" stroke="black"/>
<path d="M523.609,264.194v 3.38128" fill="none" stroke="black"/>
<path d="M539.536,260.813v 6.76256" fill="none" stroke="black"/>
<path d="M61.7283,267.575v -259.493" fill="none" stroke="black"/>
<path d="M69.9789,261.923h -8.25052" fill="none" stroke="black"/>
<path d="M69.9789,252.639h -8.25052" fill="none" stroke="black"/>
<path d="M78.2294,244.335h -16.501" fill="none" stroke="black"/>
<text xml:space="preserve" x="53.5904" y="247.439" fill="black" font-size="8.91652" font-family="Helvetica">1</text>
<path d="M69.9789,189.702h -8.25052" fill="none" stroke="black"/>
<path d="M69.9789,157.743h -8.25052" fill="none" stroke="black"/>
<path d="M69.9789,135.068h -8.25052" fill="none" stroke="black"/>
<path d="M69.9789,117.48h -8.25052" fill="none" stroke="black"/>
<path d="M69.9789,103.11h -8.25052" fill="none" stroke="black"/>
<path d="M69.9789,90.96h -8.25052" fill="none" stroke="black"/>
<path d="M69.9789,80.4352h -8.25052" fill="none" stroke="black"/>
<path d="M69.9789,71.1516h -8.25052" fill="none" stroke="black"/>
<path d="M78.2294,62.8472h -16.501" fill="none" stroke="black"/>
<text xml:space="preserve" x="47.9021" y="66.3629" fill="black" font-size="8.91652" font-family="Helvetica">10</text>
<path d="M69.9789,8.21401h -8.25052" fill="none" stroke="black"/>
<g transform="rotate(-90,23.253,52.1423)">
<text xml:space="preserve" x="23.253" y="52.1423" fill="black" font-size="14.9283" font-family="Helvetica">nEvent</text>
</g>
<path d="M101.546,166.865v -7.3284" fill="none" stroke="#006699" stroke-width="2"/>
<path d="M101.546,159.537v -6.70461" fill="none" stroke="#006699" stroke-width="2"/>
<g stroke="black" stroke-width="1" fill="none">
<line x1="100.546" y1="159.537" x2="101.546" y2="159.537"/>
</g>
<path d="M117.473,144.174v -5.23106" fill="none" stroke="#006699" stroke-width="2"/>
<path d="M117.473,138.943v -4.90539" fill="none" stroke="#006699" stroke-width="2"/>
<g stroke="black" stroke-width="1" fill="none">
<line x1="116.473" y1="138.943" x2="117.473" y2="138.943"/>
</g>
<path d="M133.4,159.014v -4.45481" fill="none" stroke="#006699" stroke-width="2"/>
<path d="M133.4,154.56v -4.21644" fill="none" stroke="#006699" stroke-width="2"/>
<g stroke="black" stroke-width="1" fill="none">
<line x1="132.4" y1="154.56" x2="133.4" y2="154.56"/>
</g>
<path d="M149.326,152.251v -4.64006" fill="none" stroke="#006699" stroke-width="2"/>
<path d="M149.326,147.611v -4.38202" fill="none" stroke="#006699" stroke-width="2"/>
<g stroke="black" stroke-width="1" fill="none">
<line x1="148.326" y1="147.611" x2="149.326" y2="147.611"/>
</g>
<path d="M165.253,147.865v -3.70967" fill="none" stroke="#006699" stroke-width="2"/>
<path d="M165.253,144.156v -3.54289" fill="none" stroke="#006699" stroke-width="2"/>
<g stroke="black" stroke-width="1" fill="none">
<line x1="164.253" y1="144.156" x2="165.253" y2="144.156"/>
</g>
<path d="M181.18,122.739v -3.68819" fill="none" stroke="#006699" stroke-width="2"/>
<path d="M181.18,119.05v -3.5233" fill="none" stroke="#006699" stroke-width="2"/>
<g stroke="black" stroke-width="1" fill="none">
<line x1="180.18" y1="119.05" x2="181.18" y2="119.05"/>
</g>
<path d="M197.107,103.764v -3.16434" fill="none" stroke="#006699" stroke-width="2"/>
<path d="M197.107,100.6v -3.04219" fill="none" stroke="#006699" stroke-width="2"/>
<g stroke="black" stroke-width="1" fill="none">
<line x1="196.107" y1="100.6" x2="197.107" y2="100.6"/>
</g>
<path d="M213.034,98.8656v -3.13476" fill="none" stroke="#006699" stroke-width="2"/>
<path d="M213.034,95.7308v -3.01484" fill="none" stroke="#006699" stroke-width="2"/>
<g stroke="black" stroke-width="1" fill="none">
<line x1="212.034" y1="95.7308" x2="213.034" y2="95.7308"/>
</g>
<path d="M228.961,99.8753v -3.3177" fill="none" stroke="#006699" stroke-width="2"/>
<path d="M228.961,96.5576v -3.18367" fill="none" stroke="#006699" stroke-width="2"/>
<g stroke="black" stroke-width="1" fill="none">
<line x1="227.961" y1="96.5576" x2="228.961" y2="96.5576"/>
</g>
<path d="M244.888,102.836v -2.99932" fill="none" stroke="#006699" stroke-width="2"/>
<path d="M244.888,99.8367v -2.88936" fill="none" stroke="#006699" stroke-width="2"/>
<g stroke="black" stroke-width="1" fill="none">
<line x1="243.888" y1="99.8367" x2="244.888" y2="99.8367"/>
</g>
<path d="M260.815,98.6245v -2.97161" fill="none" stroke="#006699" stroke-width="2"/>
<path d="M260.815,95.6528v -2.86363" fill="none" stroke="#006699" stroke-width="2"/>
<g stroke="black" stroke-width="1" fill="none">
<line x1="259.815" y1="95.6528" x2="260.815" y2="95.6528"/>
</g>
<path d="M276.742,93.6717v -3.20504" fill="none" stroke="#006699" stroke-width="2"/>
<path d="M276.742,90.4667v -3.07979" fill="none" stroke="#006699" stroke-width="2"/>
<g stroke="black" stroke-width="1" fill="none">
<line x1="275.742" y1="90.4667" x2="276.742" y2="90.4667"/>
</g>
<path d="M292.669,90.8652v -2.85605" fill="none" stroke="#006699" stroke-width="2"/>
<path d="M292.669,88.0091v -2.75617" fill="none" stroke="#006699" stroke-width="2"/>
<g stroke="black" stroke-width="1" fill="none">
<line x1="291.669" y1="88.0091" x2="292.669" y2="88.0091"/>
</g>
<path d="M308.596,84.8614v -2.93425" fill="none" stroke="#006699" stroke-width="2"/>
<path d="M308.596,81.9271v -2.82893" fill="none" stroke="#006699" stroke-width="2"/>
<g stroke="black" stroke-width="1" fill="none">
<line x1="307.596" y1="81.9271" x2="308.596" y2="81.9271"/>
</g>
<path d="M324.523,93.5029v -2.94378" fill="none" stroke="#006699" stroke-width="2"/>
<path d="M324.523,90.5592v -2.83778" fill="none" stroke="#006699" stroke-width="2"/>
<g stroke="black" stroke-width="1" fill="none">
<line x1="323.523" y1="90.5592" x2="324.523" y2="90.5592"/>
</g>
<path d="M340.45,98.1969v -3.02354" fill="none" stroke="#006699" stroke-width="2"/>
<path d="M340.45,95.1734v -2.91183" fill="none" stroke="#006699" stroke-width="2"/>
<g stroke="black" stroke-width="1" fill="none">
<line x1="339.45" y1="95.1734" x2="340.45" y2="95.1734"/>
</g>
<path d="M356.377,98.8073v -3.1256" fill="none" stroke="#006699" stroke-width="2"/>
<path d="M356.377,95.6817v -3.00637" fill="none" stroke="#006699" stroke-width="2"/>
<g stroke="black" stroke-width="1" fill="none">
<line x1="355.377" y1="95.6817" x2="356.377" y2="95.6817"/>
</g>
<path d="M372.303,104.017v -3.03203" fill="none" stroke="#006699" stroke-width="2"/>
<path d="M372.303,100.985v -2.9197" fill="none" stroke="#006699" stroke-width="2"/>
<g stroke="black" stroke-width="1" fill="none">
<line x1="371.303" y1="100.985" x2="372.303" y2="100.985"/>
</g>
<path d="M388.23,107.549v -3.20978" fill="none" stroke="#006699" stroke-width="2"/>
<path d="M388.23,104.339v -3.08417" fill="none" stroke="#006699" stroke-width="2"/>
<g stroke="black" stroke-width="1" fill="none">
<line x1="387.23" y1="104.339" x2="388.23" y2="104.339"/>
</g>
<path d="M404.157,109.008v -3.43573" fill="none" stroke="#006699" stroke-width="2"/>
<path d="M404.157,105.572v -3.2922" fill="none" stroke="#006699" stroke-width="2"/>
<g stroke="black" stroke-width="1" fill="none">
<line x1="403.157" y1="105.572" x2="404.157" y2="105.572"/>
</g>
<path d="M420.084,134.153v -3.60302" fill="none" stroke="#006699" stroke-width="2"/>
<path d="M420.084,130.55v -3.44549" fill="none" stroke="#006699" stroke-width="2"/>
<g stroke="black" stroke-width="1" fill="none">
<line x1="419.084" y1="130.55" x2="420.084" y2="130.55"/>
</g>
<path d="M436.011,155.902v -4.18251" fill="none" stroke="#006699" stroke-width="2"/>
<path d="M436.011,151.719v -3.97171" fill="none" stroke="#006699" stroke-width="2"/>
<g stroke="black" stroke-width="1" fill="none">
<line x1="435.011" y1="151.719" x2="436.011" y2="151.719"/>
</g>
<path d="M451.938,153.735v -4.33651" fill="none" stroke="#006699" stroke-width="2"/>
<path d="M451.938,149.398v -4.11031" fill="none" stroke="#006699" stroke-width="2"/>
<g stroke="black" stroke-width="1" fill="none">
<line x1="450.938" y1="149.398" x2="451.938" y2="149.398"/>
</g>
<path d="M467.865,165.155v -4.70374" fill="none" stroke="#006699" stroke-width="2"/>
<path d="M467.865,160.451v -4.43877" fill="none" stroke="#006699" stroke-width="2"/>
<g stroke="black" stroke-width="1" fill="none">
<line x1="466.865" y1="160.451" x2="467.865" y2="160.451"/>
</g>
<path d="M483.792,153.904v -4.68503" fill="none" stroke="#006699" stroke-width="2"/>
<path d="M483.792,149.219v -4.42211" fill="none" stroke="#006699" stroke-width="2"/>
<g stroke="black" stroke-width="1" fill="none">
<line x1="482.792" y1="149.219" x2="483.792" y2="149.219"/>
</g>
<path d="M499.719,175.437v -7.22633" fill="none" stroke="#006699" stroke-width="2"/>
<path d="M499.719,168.21v -6.61908" fill="none" stroke="#006699" stroke-width="2"/>
<g stroke="black" stroke-width="1" fill="none">
<line x1="498.719" y1="168.21" x2="499.719" y2="168.21"/>
</g>
<path d="M61.7283,267.575h 31.8539v -108.039h 15.9269v -20.594h 15.9269v 15.6167h 15.9269v -6.94856h 15.9269v -3.4554h 15.9269v -25.1052h 15.9269v -18.4506h 15.9269v -4.86887h 15.9269v 0.826765h 15.9269v 3.27911h 15.9269v -4.18385h 15.9269v -5.18616h
 15.9269v -2.45755h 15.9269v -6.082h 15.9269v 8.63203h 15.9269v 4.61419h 15.9269v 0.508319h 15.9269v 5.30321h 15.9269v 3.35384h 15.9269v 1.23325h 15.9269v 24.9778h 15.9269v 21.1693h 15.9269v -2.32096h 15.9269v 11.053h 15.9269v -11.2324h 15.9269v
 18.9915h 15.9269v 99.3652h 31.8539" fill="none" stroke="#006699" stroke-width="2"/>
<text xml:space="preserve" x="284.913" y="180.128" fill="black" font-size="14.9283" font-family="Helvetica">True Background</text>
<path d="M243.851,176.81h 34.011" fill="none" stroke="#ff0000" stroke-width="2"/>
<path d="M260.856,192.453v -31.2854" fill="none" stroke="#ff0000" stroke-width="2"/>
<text xml:space="preserve" x="284.913" y="234.166" fill="black" font-size="14.9283" font-family="Helvetica">Predict</text>
<path d="M243.851,228.952h 34.011" fill="none" stroke="#006699" stroke-width="2"/>
<path d="M260.856,244.595v -31.2854" fill="none" stroke="#006699" stroke-width="2"/>
<rect x="6.16929" y="278.497" width="555.591" height="262.115" fill="white"/>
<rect x="61.1747" y="279.672" width="477.813" height="209.517" fill="white"/>
<rect x="61.1747" y="279.672" width="477.813" height="209.517" fill="none" stroke="black"/>
<rect x="61.1747" y="279.672" width="477.813" height="209.517" fill="white"/>
<rect x="61.1747" y="279.672" width="477.813" height="209.517" fill="none" stroke="black"/>
<path d="M100.992,440.994v -13.8822" fill="none" stroke="black" stroke-width="2"/>
<path d="M100.992,427.112v -13.8822" fill="none" stroke="black" stroke-width="2"/>
<path d="M93.0289,427.112h 7.96355" fill="none" stroke="black" stroke-width="2"/>
<path d="M100.992,427.112h 7.96355" fill="none" stroke="black" stroke-width="2"/>
<g stroke="black" stroke-width="1" fill="none">
<line x1="99.9925" y1="427.112" x2="100.992" y2="427.112"/>
</g>
<path d="M116.92,373.418v -22.3074" fill="none" stroke="black" stroke-width="2"/>
<path d="M116.92,351.111v -22.3074" fill="none" stroke="black" stroke-width="2"/>
<path d="M108.956,351.111h 7.96355" fill="none" stroke="black" stroke-width="2"/>
<path d="M116.92,351.111h 7.96355" fill="none" stroke="black" stroke-width="2"/>
<g stroke="black" stroke-width="1" fill="none">
<line x1="115.92" y1="351.111" x2="116.92" y2="351.111"/>
</g>
<path d="M132.847,373.737v -24.7722" fill="none" stroke="black" stroke-width="2"/>
<path d="M132.847,348.965v -24.7722" fill="none" stroke="black" stroke-width="2"/>
<path d="M124.883,348.965h 7.96355" fill="none" stroke="black" stroke-width="2"/>
<path d="M132.847,348.965h 7.96355" fill="none" stroke="black" stroke-width="2"/>
<g stroke="black" stroke-width="1" fill="none">
<line x1="131.847" y1="348.965" x2="132.847" y2="348.965"/>
</g>
<path d="M148.774,363.974v -24.1806" fill="none" stroke="black" stroke-width="2"/>
<path d="M148.774,339.793v -24.1806" fill="none" stroke="black" stroke-width="2"/>
<path d="M140.81,339.793h 7.96355" fill="none" stroke="black" stroke-width="2"/>
<path d="M148.774,339.793h 7.96355" fill="none" stroke="black" stroke-width="2"/>
<g stroke="black" stroke-width="1" fill="none">
<line x1="147.774" y1="339.793" x2="148.774" y2="339.793"/>
</g>
<path d="M164.701,342.159v -24.3362" fill="none" stroke="black" stroke-width="2"/>
<path d="M164.701,317.823v -24.3362" fill="none" stroke="black" stroke-width="2"/>
<path d="M156.737,317.823h 7.96355" fill="none" stroke="black" stroke-width="2"/>
<path d="M164.701,317.823h 7.96355" fill="none" stroke="black" stroke-width="2"/>
<g stroke="black" stroke-width="1" fill="none">
<line x1="163.701" y1="317.823" x2="164.701" y2="317.823"/>
</g>
<path d="M180.628,379.458v -19.0564" fill="none" stroke="black" stroke-width="2"/>
<path d="M180.628,360.402v -19.0564" fill="none" stroke="black" stroke-width="2"/>
<path d="M172.664,360.402h 7.96355" fill="none" stroke="black" stroke-width="2"/>
<path d="M180.628,360.402h 7.96355" fill="none" stroke="black" stroke-width="2"/>
<g stroke="black" stroke-width="1" fill="none">
<line x1="179.628" y1="360.402" x2="180.628" y2="360.402"/>
</g>
<path d="M196.555,375.384v -13.5943" fill="none" stroke="black" stroke-width="2"/>
<path d="M196.555,361.79v -13.5943" fill="none" stroke="black" stroke-width="2"/>
<path d="M188.592,361.79h 7.96355" fill="none" stroke="black" stroke-width="2"/>
<path d="M196.555,361.79h 7.96355" fill="none" stroke="black" stroke-width="2"/>
<g stroke="black" stroke-width="1" fill="none">
<line x1="195.555" y1="361.79" x2="196.555" y2="361.79"/>
</g>
<path d="M212.482,396.76v -12.7885" fill="none" stroke="black" stroke-width="2"/>
<path d="M212.482,383.972v -12.7885" fill="none" stroke="black" stroke-width="2"/>
<path d="M204.519,383.972h 7.96355" fill="none" stroke="black" stroke-width="2"/>
<path d="M212.482,383.972h 7.96355" fill="none" stroke="black" stroke-width="2"/>
<g stroke="black" stroke-width="1" fill="none">
<line x1="211.482" y1="383.972" x2="212.482" y2="383.972"/>
</g>
<path d="M228.409,393.908v -13.1397" fill="none" stroke="black" stroke-width="2"/>
<path d="M228.409,380.769v -13.1397" fill="none" stroke="black" stroke-width="2"/>
<path d="M220.446,380.769h 7.96355" fill="none" stroke="black" stroke-width="2"/>
<path d="M228.409,380.769h 7.96355" fill="none" stroke="black" stroke-width="2"/>
<g stroke="black" stroke-width="1" fill="none">
<line x1="227.409" y1="380.769" x2="228.409" y2="380.769"/>
</g>
<path d="M244.336,356.642v -16.3289" fill="none" stroke="black" stroke-width="2"/>
<path d="M244.336,340.313v -16.3289" fill="none" stroke="black" stroke-width="2"/>
<path d="M236.373,340.313h 7.96355" fill="none" stroke="black" stroke-width="2"/>
<path d="M244.336,340.313h 7.96355" fill="none" stroke="black" stroke-width="2"/>
<g stroke="black" stroke-width="1" fill="none">
<line x1="243.336" y1="340.313" x2="244.336" y2="340.313"/>
</g>
<path d="M260.264,385.042v -14.4598" fill="none" stroke="black" stroke-width="2"/>
<path d="M260.264,370.582v -14.4598" fill="none" stroke="black" stroke-width="2"/>
<path d="M252.3,370.582h 7.96355" fill="none" stroke="black" stroke-width="2"/>
<path d="M260.264,370.582h 7.96355" fill="none" stroke="black" stroke-width="2"/>
<g stroke="black" stroke-width="1" fill="none">
<line x1="259.264" y1="370.582" x2="260.264" y2="370.582"/>
</g>
<path d="M276.191,414.836v -12.9997" fill="none" stroke="black" stroke-width="2"/>
<path d="M276.191,401.837v -12.9997" fill="none" stroke="black" stroke-width="2"/>
<path d="M268.227,401.837h 7.96355" fill="none" stroke="black" stroke-width="2"/>
<path d="M276.191,401.837h 7.96355" fill="none" stroke="black" stroke-width="2"/>
<g stroke="black" stroke-width="1" fill="none">
<line x1="275.191" y1="401.837" x2="276.191" y2="401.837"/>
</g>
<path d="M292.118,410.903v -12.8191" fill="none" stroke="black" stroke-width="2"/>
<path d="M292.118,398.084v -12.8191" fill="none" stroke="black" stroke-width="2"/>
<path d="M284.154,398.084h 7.96355" fill="none" stroke="black" stroke-width="2"/>
<path d="M292.118,398.084h 7.96355" fill="none" stroke="black" stroke-width="2"/>
<g stroke="black" stroke-width="1" fill="none">
<line x1="291.118" y1="398.084" x2="292.118" y2="398.084"/>
</g>
<path d="M308.045,428.368v -8.67933" fill="none" stroke="black" stroke-width="2"/>
<path d="M308.045,419.688v -8.67933" fill="none" stroke="black" stroke-width="2"/>
<path d="M300.081,419.688h 7.96355" fill="none" stroke="black" stroke-width="2"/>
<path d="M308.045,419.688h 7.96355" fill="none" stroke="black" stroke-width="2"/>
<g stroke="black" stroke-width="1" fill="none">
<line x1="307.045" y1="419.688" x2="308.045" y2="419.688"/>
</g>
<path d="M323.972,419.401v -10.8611" fill="none" stroke="black" stroke-width="2"/>
<path d="M323.972,408.54v -10.8611" fill="none" stroke="black" stroke-width="2"/>
<path d="M316.008,408.54h 7.96355" fill="none" stroke="black" stroke-width="2"/>
<path d="M323.972,408.54h 7.96355" fill="none" stroke="black" stroke-width="2"/>
<g stroke="black" stroke-width="1" fill="none">
<line x1="322.972" y1="408.54" x2="323.972" y2="408.54"/>
</g>
<path d="M339.899,386.462v -14.2322" fill="none" stroke="black" stroke-width="2"/>
<path d="M339.899,372.23v -14.2322" fill="none" stroke="black" stroke-width="2"/>
<path d="M331.935,372.23h 7.96355" fill="none" stroke="black" stroke-width="2"/>
<path d="M339.899,372.23h 7.96355" fill="none" stroke="black" stroke-width="2"/>
<g stroke="black" stroke-width="1" fill="none">
<line x1="338.899" y1="372.23" x2="339.899" y2="372.23"/>
</g>
<path d="M355.826,382.016v -14.7054" fill="none" stroke="black" stroke-width="2"/>
<path d="M355.826,367.31v -14.7054" fill="none" stroke="black" stroke-width="2"/>
<path d="M347.863,367.31h 7.96355" fill="none" stroke="black" stroke-width="2"/>
<path d="M355.826,367.31h 7.96355" fill="none" stroke="black" stroke-width="2"/>
<g stroke="black" stroke-width="1" fill="none">
<line x1="354.826" y1="367.31" x2="355.826" y2="367.31"/>
</g>
<path d="M371.753,390.878v -14.5939" fill="none" stroke="black" stroke-width="2"/>
<path d="M371.753,376.284v -14.5939" fill="none" stroke="black" stroke-width="2"/>
<path d="M363.79,376.284h 7.96355" fill="none" stroke="black" stroke-width="2"/>
<path d="M371.753,376.284h 7.96355" fill="none" stroke="black" stroke-width="2"/>
<g stroke="black" stroke-width="1" fill="none">
<line x1="370.753" y1="376.284" x2="371.753" y2="376.284"/>
</g>
<path d="M387.68,390.159v -14.0605" fill="none" stroke="black" stroke-width="2"/>
<path d="M387.68,376.098v -14.0605" fill="none" stroke="black" stroke-width="2"/>
<path d="M379.717,376.098h 7.96355" fill="none" stroke="black" stroke-width="2"/>
<path d="M387.68,376.098h 7.96355" fill="none" stroke="black" stroke-width="2"/>
<g stroke="black" stroke-width="1" fill="none">
<line x1="386.68" y1="376.098" x2="387.68" y2="376.098"/>
</g>
<path d="M403.607,378.782v -15.0322" fill="none" stroke="black" stroke-width="2"/>
<path d="M403.607,363.75v -15.0322" fill="none" stroke="black" stroke-width="2"/>
<path d="M395.644,363.75h 7.96355" fill="none" stroke="black" stroke-width="2"/>
<path d="M403.607,363.75h 7.96355" fill="none" stroke="black" stroke-width="2"/>
<g stroke="black" stroke-width="1" fill="none">
<line x1="402.607" y1="363.75" x2="403.607" y2="363.75"/>
</g>
<path d="M419.535,380.612v -17.87" fill="none" stroke="black" stroke-width="2"/>
<path d="M419.535,362.742v -17.87" fill="none" stroke="black" stroke-width="2"/>
<path d="M411.571,362.742h 7.96355" fill="none" stroke="black" stroke-width="2"/>
<path d="M419.535,362.742h 7.96355" fill="none" stroke="black" stroke-width="2"/>
<g stroke="black" stroke-width="1" fill="none">
<line x1="418.535" y1="362.742" x2="419.535" y2="362.742"/>
</g>
<path d="M435.462,338.512v -24.4311" fill="none" stroke="black" stroke-width="2"/>
<path d="M435.462,314.081v -24.4311" fill="none" stroke="black" stroke-width="2"/>
<path d="M427.498,314.081h 7.96355" fill="none" stroke="black" stroke-width="2"/>
<path d="M435.462,314.081h 7.96355" fill="none" stroke="black" stroke-width="2"/>
<g stroke="black" stroke-width="1" fill="none">
<line x1="434.462" y1="314.081" x2="435.462" y2="314.081"/>
</g>
<path d="M451.389,388.261v -20.3412" fill="none" stroke="black" stroke-width="2"/>
<path d="M451.389,367.92v -20.3412" fill="none" stroke="black" stroke-width="2"/>
<path d="M443.425,367.92h 7.96355" fill="none" stroke="black" stroke-width="2"/>
<path d="M451.389,367.92h 7.96355" fill="none" stroke="black" stroke-width="2"/>
<g stroke="black" stroke-width="1" fill="none">
<line x1="450.389" y1="367.92" x2="451.389" y2="367.92"/>
</g>
<path d="M467.316,353.052v -25.2413" fill="none" stroke="black" stroke-width="2"/>
<path d="M467.316,327.811v -25.2413" fill="none" stroke="black" stroke-width="2"/>
<path d="M459.352,327.811h 7.96355" fill="none" stroke="black" stroke-width="2"/>
<path d="M467.316,327.811h 7.96355" fill="none" stroke="black" stroke-width="2"/>
<g stroke="black" stroke-width="1" fill="none">
<line x1="466.316" y1="327.811" x2="467.316" y2="327.811"/>
</g>
<path d="M483.243,373.298v -21.6877" fill="none" stroke="black" stroke-width="2"/>
<path d="M483.243,351.61v -21.6877" fill="none" stroke="black" stroke-width="2"/>
<path d="M475.279,351.61h 7.96355" fill="none" stroke="black" stroke-width="2"/>
<path d="M483.243,351.61h 7.96355" fill="none" stroke="black" stroke-width="2"/>
<g stroke="black" stroke-width="1" fill="none">
<line x1="482.243" y1="351.61" x2="483.243" y2="351.61"/>
</g>
<path d="M499.17,405.101v -19.7562" fill="none" stroke="black" stroke-width="2"/>
<path d="M499.17,385.345v -19.7562" fill="none" stroke="black" stroke-width="2"/>
<path d="M491.207,385.345h 7.96355" fill="none" stroke="black" stroke-width="2"/>
<path d="M499.17,385.345h 7.96355" fill="none" stroke="black" stroke-width="2"/>
<g stroke="black" stroke-width="1" fill="none">
<line x1="498.17" y1="385.345" x2="499.17" y2="385.345"/>
</g>
<path d="M63.5638,389.197l 4.77813, -0.166281l 4.77813, -0.166281l 4.77813, -0.166281l 4.77813, -0.166281l 4.77813, -0.166281l 4.77813, -0.166281l 4.77813, -0.166281l 4.77813, -0.166281l 4.77813, -0.166281l 4.77813, -0.166281l 4.77813, -0.166281l
 4.77813, -0.166281l 4.77813, -0.166281l 4.77813, -0.166281l 4.77813, -0.166281l 4.77813, -0.166281l 4.77813, -0.166281l 4.77813, -0.166281l 4.77813, -0.166281l 4.77813, -0.166281l 4.77813, -0.166281l 4.77813, -0.166281l 4.77813, -0.166281l 4.77813,
 -0.166281l 4.77813, -0.166281l 4.77813, -0.166281l 4.77813, -0.166281l 4.77813, -0.166281l 4.77813, -0.166281l 4.77813, -0.166281l 4.77813, -0.166281l 4.77813, -0.166281l 4.77813, -0.166281l 4.77813, -0.166281l 4.77813, -0.166281l 4.77813,
 -0.166281l 4.77813, -0.166281l 4.77813, -0.166281l 4.77813, -0.166281l 4.77813, -0.166281l 4.77813, -0.166281l 4.77813, -0.166281l 4.77813, -0.166281l 4.77813, -0.166281l 4.77813, -0.166281l 4.77813, -0.166281l 4.77813, -0.166281l 4.77813,
 -0.166281l 4.77813, -0.166281" fill="none" stroke="#339966" stroke-width="2"/>
<path d="M297.692,381.049l 4.77813, -0.166281l 4.77813, -0.166281l 4.77813, -0.166281l 4.77813, -0.166281l 4.77813, -0.166281l 4.77813, -0.166281l 4.77813, -0.166281l 4.77813, -0.166281l 4.77813, -0.166281l 4.77813, -0.166281l 4.77813, -0.166281l
 4.77813, -0.166281l 4.77813, -0.166281l 4.77813, -0.166281l 4.77813, -0.166281l 4.77813, -0.166281l 4.77813, -0.166281l 4.77813, -0.166281l 4.77813, -0.166281l 4.77813, -0.166281l 4.77813, -0.166281l 4.77813, -0.166281l 4.77813, -0.166281l 4.77813,
 -0.166281l 4.77813, -0.166281l 4.77813, -0.166281l 4.77813, -0.166281l 4.77813, -0.166281l 4.77813, -0.166281l 4.77813, -0.166281l 4.77813, -0.166281l 4.77813, -0.166281l 4.77813, -0.166281l 4.77813, -0.166281l 4.77813, -0.166281l 4.77813,
 -0.166281l 4.77813, -0.166281l 4.77813, -0.166281l 4.77813, -0.166281l 4.77813, -0.166281l 4.77813, -0.166281l 4.77813, -0.166281l 4.77813, -0.166281l 4.77813, -0.166281l 4.77813, -0.166281l 4.77813, -0.166281l 4.77813, -0.166281l 4.77813,
 -0.166281l 4.77813, -0.166281" fill="none" stroke="#339966" stroke-width="2"/>
<path d="M531.821,372.902l 4.77813, -0.166281" fill="none" stroke="#339966" stroke-width="2"/>
<path d="M61.1747,489.19h 477.813" fill="none" stroke="black"/>
<path d="M61.1747,482.427v 6.76263" fill="none" stroke="black"/>
<path d="M77.1018,485.808v 3.38132" fill="none" stroke="black"/>
<path d="M93.0289,485.808v 3.38132" fill="none" stroke="black"/>
<path d="M108.956,485.808v 3.38132" fill="none" stroke="black"/>
<path d="M124.883,485.808v 3.38132" fill="none" stroke="black"/>
<path d="M140.81,482.427v 6.76263" fill="none" stroke="black"/>
<path d="M156.737,485.808v 3.38132" fill="none" stroke="black"/>
<path d="M172.664,485.808v 3.38132" fill="none" stroke="black"/>
<path d="M188.592,485.808v 3.38132" fill="none" stroke="black"/>
<path d="M204.519,485.808v 3.38132" fill="none" stroke="black"/>
<path d="M220.446,482.427v 6.76263" fill="none" stroke="black"/>
<path d="M236.373,485.808v 3.38132" fill="none" stroke="black"/>
<path d="M252.3,485.808v 3.38132" fill="none" stroke="black"/>
<path d="M268.227,485.808v 3.38132" fill="none" stroke="black"/>
<path d="M284.154,485.808v 3.38132" fill="none" stroke="black"/>
<path d="M300.081,482.427v 6.76263" fill="none" stroke="black"/>
<path d="M316.008,485.808v 3.38132" fill="none" stroke="black"/>
<path d="M331.935,485.808v 3.38132" fill="none" stroke="black"/>
<path d="M347.863,485.808v 3.38132" fill="none" stroke="black"/>
<path d="M363.79,485.808v 3.38132" fill="none" stroke="black"/>
<path d="M379.717,482.427v 6.76263" fill="none" stroke="black"/>
<path d="M395.644,485.808v 3.38132" fill="none" stroke="black"/>
<path d="M411.571,485.808v 3.38132" fill="none" stroke="black"/>
<path d="M427.498,485.808v 3.38132" fill="none" stroke="black"/>
<path d="M443.425,485.808v 3.38132" fill="none" stroke="black"/>
<path d="M459.352,482.427v 6.76263" fill="none" stroke="black"/>
<path d="M475.279,485.808v 3.38132" fill="none" stroke="black"/>
<path d="M491.207,485.808v 3.38132" fill="none" stroke="black"/>
<path d="M507.134,485.808v 3.38132" fill="none" stroke="black"/>
<path d="M523.061,485.808v 3.38132" fill="none" stroke="black"/>
<path d="M538.988,482.427v 6.76263" fill="none" stroke="black"/>
<path d="M538.988,482.427v 6.76263" fill="none" stroke="black"/>
<text xml:space="preserve" x="60.2266" y="497.722" fill="black" font-size="8.91652" font-family="Helvetica">3</text>
<text xml:space="preserve" x="56.4345" y="497.722" fill="black" font-size="8.91652" font-family="Times">&#8722;</text>
<text xml:space="preserve" x="139.862" y="497.722" fill="black" font-size="8.91652" font-family="Helvetica">2</text>
<text xml:space="preserve" x="136.07" y="497.722" fill="black" font-size="8.91652" font-family="Times">&#8722;</text>
<text xml:space="preserve" x="220.446" y="497.722" fill="black" font-size="8.91652" font-family="Helvetica">1</text>
<text xml:space="preserve" x="215.706" y="497.722" fill="black" font-size="8.91652" font-family="Times">&#8722;</text>
<text xml:space="preserve" x="297.237" y="497.722" fill="black" font-size="8.91652" font-family="Helvetica">0</text>
<text xml:space="preserve" x="377.821" y="497.722" fill="black" font-size="8.91652" font-family="Helvetica">1</text>
<text xml:space="preserve" x="456.508" y="497.722" fill="black" font-size="8.91652" font-family="Helvetica">2</text>
<text xml:space="preserve" x="536.144" y="497.722" fill="black" font-size="8.91652" font-family="Helvetica">3</text>
<text xml:space="preserve" x="531.404" y="517.631" fill="black" font-size="14.9283" font-family="Times">&#0951;</text>
<text xml:space="preserve" x="507.702" y="517.631" fill="black" font-size="14.9283" font-family="Helvetica">Jet </text>
<path d="M61.1747,279.672h 477.813" fill="none" stroke="black"/>
<path d="M61.1747,286.435v -6.76263" fill="none" stroke="black"/>
<path d="M77.1018,283.054v -3.38132" fill="none" stroke="black"/>
<path d="M93.0289,283.054v -3.38132" fill="none" stroke="black"/>
<path d="M108.956,283.054v -3.38132" fill="none" stroke="black"/>
<path d="M124.883,283.054v -3.38132" fill="none" stroke="black"/>
<path d="M140.81,286.435v -6.76263" fill="none" stroke="black"/>
<path d="M156.737,283.054v -3.38132" fill="none" stroke="black"/>
<path d="M172.664,283.054v -3.38132" fill="none" stroke="black"/>
<path d="M188.592,283.054v -3.38132" fill="none" stroke="black"/>
<path d="M204.519,283.054v -3.38132" fill="none" stroke="black"/>
<path d="M220.446,286.435v -6.76263" fill="none" stroke="black"/>
<path d="M236.373,283.054v -3.38132" fill="none" stroke="black"/>
<path d="M252.3,283.054v -3.38132" fill="none" stroke="black"/>
<path d="M268.227,283.054v -3.38132" fill="none" stroke="black"/>
<path d="M284.154,283.054v -3.38132" fill="none" stroke="black"/>
<path d="M300.081,286.435v -6.76263" fill="none" stroke="black"/>
<path d="M316.008,283.054v -3.38132" fill="none" stroke="black"/>
<path d="M331.935,283.054v -3.38132" fill="none" stroke="black"/>
<path d="M347.863,283.054v -3.38132" fill="none" stroke="black"/>
<path d="M363.79,283.054v -3.38132" fill="none" stroke="black"/>
<path d="M379.717,286.435v -6.76263" fill="none" stroke="black"/>
<path d="M395.644,283.054v -3.38132" fill="none" stroke="black"/>
<path d="M411.571,283.054v -3.38132" fill="none" stroke="black"/>
<path d="M427.498,283.054v -3.38132" fill="none" stroke="black"/>
<path d="M443.425,283.054v -3.38132" fill="none" stroke="black"/>
<path d="M459.352,286.435v -6.76263" fill="none" stroke="black"/>
<path d="M475.279,283.054v -3.38132" fill="none" stroke="black"/>
<path d="M491.207,283.054v -3.38132" fill="none" stroke="black"/>
<path d="M507.134,283.054v -3.38132" fill="none" stroke="black"/>
<path d="M523.061,283.054v -3.38132" fill="none" stroke="black"/>
<path d="M538.988,286.435v -6.76263" fill="none" stroke="black"/>
<path d="M538.988,286.435v -6.76263" fill="none" stroke="black"/>
<path d="M61.1747,489.19v -209.517" fill="none" stroke="black"/>
<path d="M74.4978,489.19h -13.3231" fill="none" stroke="black"/>
<path d="M67.8362,484.332h -6.66154" fill="none" stroke="black"/>
<path d="M67.8362,479.475h -6.66154" fill="none" stroke="black"/>
<path d="M67.8362,474.618h -6.66154" fill="none" stroke="black"/>
<path d="M74.4978,469.76h -13.3231" fill="none" stroke="black"/>
<path d="M67.8362,464.903h -6.66154" fill="none" stroke="black"/>
<path d="M67.8362,460.046h -6.66154" fill="none" stroke="black"/>
<path d="M67.8362,455.188h -6.66154" fill="none" stroke="black"/>
<path d="M74.4978,450.331h -13.3231" fill="none" stroke="black"/>
<path d="M67.8362,445.473h -6.66154" fill="none" stroke="black"/>
<path d="M67.8362,440.616h -6.66154" fill="none" stroke="black"/>
<path d="M67.8362,435.759h -6.66154" fill="none" stroke="black"/>
<path d="M74.4978,430.901h -13.3231" fill="none" stroke="black"/>
<path d="M67.8362,426.044h -6.66154" fill="none" stroke="black"/>
<path d="M67.8362,421.187h -6.66154" fill="none" stroke="black"/>
<path d="M67.8362,416.329h -6.66154" fill="none" stroke="black"/>
<path d="M74.4978,411.472h -13.3231" fill="none" stroke="black"/>
<path d="M67.8362,406.615h -6.66154" fill="none" stroke="black"/>
<path d="M67.8362,401.757h -6.66154" fill="none" stroke="black"/>
<path d="M67.8362,396.9h -6.66154" fill="none" stroke="black"/>
<path d="M74.4978,392.042h -13.3231" fill="none" stroke="black"/>
<path d="M67.8362,387.185h -6.66154" fill="none" stroke="black"/>
<path d="M67.8362,382.328h -6.66154" fill="none" stroke="black"/>
<path d="M67.8362,377.47h -6.66154" fill="none" stroke="black"/>
<path d="M74.4978,372.613h -13.3231" fill="none" stroke="black"/>
<path d="M67.8362,367.756h -6.66154" fill="none" stroke="black"/>
<path d="M67.8362,362.898h -6.66154" fill="none" stroke="black"/>
<path d="M67.8362,358.041h -6.66154" fill="none" stroke="black"/>
<path d="M74.4978,353.184h -13.3231" fill="none" stroke="black"/>
<path d="M67.8362,348.326h -6.66154" fill="none" stroke="black"/>
<path d="M67.8362,343.469h -6.66154" fill="none" stroke="black"/>
<path d="M67.8362,338.611h -6.66154" fill="none" stroke="black"/>
<path d="M74.4978,333.754h -13.3231" fill="none" stroke="black"/>
<path d="M67.8362,328.897h -6.66154" fill="none" stroke="black"/>
<path d="M67.8362,324.039h -6.66154" fill="none" stroke="black"/>
<path d="M67.8362,319.182h -6.66154" fill="none" stroke="black"/>
<path d="M74.4978,314.325h -13.3231" fill="none" stroke="black"/>
<path d="M67.8362,309.467h -6.66154" fill="none" stroke="black"/>
<path d="M67.8362,304.61h -6.66154" fill="none" stroke="black"/>
<path d="M67.8362,299.753h -6.66154" fill="none" stroke="black"/>
<path d="M74.4978,294.895h -13.3231" fill="none" stroke="black"/>
<path d="M74.4978,294.895h -13.3231" fill="none" stroke="black"/>
<path d="M67.8362,290.038h -6.66154" fill="none" stroke="black"/>
<path d="M67.8362,285.18h -6.66154" fill="none" stroke="black"/>
<path d="M67.8362,280.323h -6.66154" fill="none" stroke="black"/>
<text xml:space="preserve" x="53.5904" y="492.982" fill="black" font-size="8.91652" font-family="Helvetica">0</text>
<text xml:space="preserve" x="46.006" y="473.073" fill="black" font-size="8.91652" font-family="Helvetica">0.2</text>
<text xml:space="preserve" x="46.006" y="454.112" fill="black" font-size="8.91652" font-family="Helvetica">0.4</text>
<text xml:space="preserve" x="46.006" y="434.203" fill="black" font-size="8.91652" font-family="Helvetica">0.6</text>
<text xml:space="preserve" x="46.006" y="415.242" fill="black" font-size="8.91652" font-family="Helvetica">0.8</text>
<text xml:space="preserve" x="54.5384" y="395.334" fill="black" font-size="8.91652" font-family="Helvetica">1</text>
<text xml:space="preserve" x="46.006" y="376.373" fill="black" font-size="8.91652" font-family="Helvetica">1.2</text>
<text xml:space="preserve" x="46.006" y="356.464" fill="black" font-size="8.91652" font-family="Helvetica">1.4</text>
<text xml:space="preserve" x="46.006" y="337.503" fill="black" font-size="8.91652" font-family="Helvetica">1.6</text>
<text xml:space="preserve" x="46.006" y="317.594" fill="black" font-size="8.91652" font-family="Helvetica">1.8</text>
<text xml:space="preserve" x="53.5904" y="298.633" fill="black" font-size="8.91652" font-family="Helvetica">2</text>
<g transform="rotate(-90,18.5128,460.748)">
<text xml:space="preserve" x="18.5128" y="460.748" fill="black" font-size="14.9283" font-family="Helvetica">True Background / Predicted</text>
</g>
<text xml:space="preserve" x="327.574" y="428.515" fill="black" font-size="14.9283" font-family="Helvetica">Fitting function: par0 + par1*x</text>
<text xml:space="preserve" x="339.899" y="454.112" fill="black" font-size="14.9283" font-family="Helvetica">par0 : 1.11401 +- 0.030812</text>
<text xml:space="preserve" x="339.899" y="480.657" fill="black" font-size="14.9283" font-family="Helvetica">par1 : 0.0285274 +- 0.0250654</text></svg>
