<?xml version="1.0" standalone="no"?>
<svg width="567.429" height="546.572" viewBox="0 0 567.429 546.572" xmlns="http://www.w3.org/2000/svg" shape-rendering="crispEdges">
<title>
/home/kuanyu/Documents/CMS/Background_Estimate/fake_rate/top_emu/plot/CT_Top(emu)_lJetPt_dileppT_rg3_LO.svg
</title>
<desc>
Creator: ROOT Version 6.26/04
CreationDate: Fri Nov  4 16:13:42 2022</desc>
<defs>
</defs>
<rect x="0.5" y="0" width="566.929" height="546.072" fill="white"/>
<rect x="6.16929" y="5.46072" width="555.591" height="262.115" fill="white"/>
<rect x="61.7283" y="8.08187" width="477.808" height="259.493" fill="white"/>
<rect x="61.7283" y="8.08187" width="477.808" height="259.493" fill="none" stroke="black"/>
<rect x="61.7283" y="8.08187" width="477.808" height="259.493" fill="white"/>
<rect x="61.7283" y="8.08187" width="477.808" height="259.493" fill="none" stroke="black"/>
<path d="M76.0626,204.356v -27.2893" fill="none" stroke="#ff0000" stroke-width="2"/>
<path d="M76.0626,177.067v -27.2893" fill="none" stroke="#ff0000" stroke-width="2"/>
<path d="M71.2845,177.067h 4.77808" fill="none" stroke="#ff0000" stroke-width="2"/>
<path d="M76.0626,177.067h 4.77808" fill="none" stroke="#ff0000" stroke-width="2"/>
<g stroke="black" stroke-width="1" fill="none">
<line x1="75.0626" y1="177.067" x2="76.0626" y2="177.067"/>
</g>
<path d="M85.6187,224.452v -23.2759" fill="none" stroke="#ff0000" stroke-width="2"/>
<path d="M85.6187,201.177v -23.2759" fill="none" stroke="#ff0000" stroke-width="2"/>
<path d="M80.8407,201.177h 4.77808" fill="none" stroke="#ff0000" stroke-width="2"/>
<path d="M85.6187,201.177h 4.77808" fill="none" stroke="#ff0000" stroke-width="2"/>
<g stroke="black" stroke-width="1" fill="none">
<line x1="84.6187" y1="201.177" x2="85.6187" y2="201.177"/>
</g>
<path d="M95.1749,190.278v -29.6666" fill="none" stroke="#ff0000" stroke-width="2"/>
<path d="M95.1749,160.611v -29.6666" fill="none" stroke="#ff0000" stroke-width="2"/>
<path d="M90.3968,160.611h 4.77808" fill="none" stroke="#ff0000" stroke-width="2"/>
<path d="M95.1749,160.611h 4.77808" fill="none" stroke="#ff0000" stroke-width="2"/>
<g stroke="black" stroke-width="1" fill="none">
<line x1="94.1749" y1="160.611" x2="95.1749" y2="160.611"/>
</g>
<path d="M104.731,210.212v -26.0312" fill="none" stroke="#ff0000" stroke-width="2"/>
<path d="M104.731,184.181v -26.0312" fill="none" stroke="#ff0000" stroke-width="2"/>
<path d="M99.953,184.181h 4.77808" fill="none" stroke="#ff0000" stroke-width="2"/>
<path d="M104.731,184.181h 4.77808" fill="none" stroke="#ff0000" stroke-width="2"/>
<g stroke="black" stroke-width="1" fill="none">
<line x1="103.731" y1="184.181" x2="104.731" y2="184.181"/>
</g>
<path d="M119.065,102.736v -41.1487" fill="none" stroke="#ff0000" stroke-width="2"/>
<path d="M119.065,61.5874v -41.1487" fill="none" stroke="#ff0000" stroke-width="2"/>
<path d="M109.509,61.5874h 9.55616" fill="none" stroke="#ff0000" stroke-width="2"/>
<path d="M119.065,61.5874h 9.55616" fill="none" stroke="#ff0000" stroke-width="2"/>
<g stroke="black" stroke-width="1" fill="none">
<line x1="118.065" y1="61.5874" x2="119.065" y2="61.5874"/>
</g>
<path d="M138.178,176.691v -47.3883" fill="none" stroke="#ff0000" stroke-width="2"/>
<path d="M138.178,129.302v -47.3883" fill="none" stroke="#ff0000" stroke-width="2"/>
<path d="M128.621,129.302h 9.55616" fill="none" stroke="#ff0000" stroke-width="2"/>
<path d="M138.178,129.302h 9.55616" fill="none" stroke="#ff0000" stroke-width="2"/>
<g stroke="black" stroke-width="1" fill="none">
<line x1="137.178" y1="129.302" x2="138.178" y2="129.302"/>
</g>
<path d="M160.475,237.834v -41.1809" fill="none" stroke="#ff0000" stroke-width="2"/>
<path d="M160.475,196.653v -41.1809" fill="none" stroke="#ff0000" stroke-width="2"/>
<path d="M147.734,196.653h 12.7415" fill="none" stroke="#ff0000" stroke-width="2"/>
<path d="M160.475,196.653h 12.7415" fill="none" stroke="#ff0000" stroke-width="2"/>
<g stroke="black" stroke-width="1" fill="none">
<line x1="159.475" y1="196.653" x2="160.475" y2="196.653"/>
</g>
<path d="M189.144,267.407v -0.406318" fill="none" stroke="#ff0000" stroke-width="2"/>
<path d="M189.144,267.001v -0.406318" fill="none" stroke="#ff0000" stroke-width="2"/>
<path d="M173.217,267.001h 15.9269" fill="none" stroke="#ff0000" stroke-width="2"/>
<path d="M189.144,267.001h 15.9269" fill="none" stroke="#ff0000" stroke-width="2"/>
<g stroke="black" stroke-width="1" fill="none">
<line x1="188.144" y1="267.001" x2="189.144" y2="267.001"/>
</g>
<path d="M372.303,250.835v -16.4586" fill="none" stroke="#ff0000" stroke-width="2"/>
<path d="M372.303,234.376v -16.4586" fill="none" stroke="#ff0000" stroke-width="2"/>
<path d="M205.071,234.376h 167.233" fill="none" stroke="#ff0000" stroke-width="2"/>
<path d="M372.303,234.376h 167.233" fill="none" stroke="#ff0000" stroke-width="2"/>
<g stroke="black" stroke-width="1" fill="none">
<line x1="371.303" y1="234.376" x2="372.303" y2="234.376"/>
</g>
<path d="M61.7283,267.575h 477.808" fill="none" stroke="black"/>
<path d="M61.7283,260.813v 6.76256" fill="none" stroke="black"/>
<path d="M77.6553,264.194v 3.38128" fill="none" stroke="black"/>
<path d="M93.5822,264.194v 3.38128" fill="none" stroke="black"/>
<path d="M109.509,264.194v 3.38128" fill="none" stroke="black"/>
<path d="M125.436,260.813v 6.76256" fill="none" stroke="black"/>
<path d="M141.363,264.194v 3.38128" fill="none" stroke="black"/>
<path d="M157.29,264.194v 3.38128" fill="none" stroke="black"/>
<path d="M173.217,264.194v 3.38128" fill="none" stroke="black"/>
<path d="M189.144,260.813v 6.76256" fill="none" stroke="black"/>
<path d="M205.071,264.194v 3.38128" fill="none" stroke="black"/>
<path d="M220.998,264.194v 3.38128" fill="none" stroke="black"/>
<path d="M236.925,264.194v 3.38128" fill="none" stroke="black"/>
<path d="M252.852,260.813v 6.76256" fill="none" stroke="black"/>
<path d="M268.778,264.194v 3.38128" fill="none" stroke="black"/>
<path d="M284.705,264.194v 3.38128" fill="none" stroke="black"/>
<path d="M300.632,264.194v 3.38128" fill="none" stroke="black"/>
<path d="M316.559,260.813v 6.76256" fill="none" stroke="black"/>
<path d="M332.486,264.194v 3.38128" fill="none" stroke="black"/>
<path d="M348.413,264.194v 3.38128" fill="none" stroke="black"/>
<path d="M364.34,264.194v 3.38128" fill="none" stroke="black"/>
<path d="M380.267,260.813v 6.76256" fill="none" stroke="black"/>
<path d="M396.194,264.194v 3.38128" fill="none" stroke="black"/>
<path d="M412.121,264.194v 3.38128" fill="none" stroke="black"/>
<path d="M428.048,264.194v 3.38128" fill="none" stroke="black"/>
<path d="M443.975,260.813v 6.76256" fill="none" stroke="black"/>
<path d="M459.902,264.194v 3.38128" fill="none" stroke="black"/>
<path d="M475.828,264.194v 3.38128" fill="none" stroke="black"/>
<path d="M491.755,264.194v 3.38128" fill="none" stroke="black"/>
<path d="M507.682,260.813v 6.76256" fill="none" stroke="black"/>
<path d="M507.682,260.813v 6.76256" fill="none" stroke="black"/>
<path d="M523.609,264.194v 3.38128" fill="none" stroke="black"/>
<path d="M61.7283,267.575v -259.493" fill="none" stroke="black"/>
<path d="M78.2294,267.575h -16.501" fill="none" stroke="black"/>
<path d="M69.9789,257.31h -8.25052" fill="none" stroke="black"/>
<path d="M69.9789,247.044h -8.25052" fill="none" stroke="black"/>
<path d="M69.9789,236.778h -8.25052" fill="none" stroke="black"/>
<path d="M69.9789,226.512h -8.25052" fill="none" stroke="black"/>
<path d="M78.2294,216.246h -16.501" fill="none" stroke="black"/>
<path d="M69.9789,205.98h -8.25052" fill="none" stroke="black"/>
<path d="M69.9789,195.714h -8.25052" fill="none" stroke="black"/>
<path d="M69.9789,185.449h -8.25052" fill="none" stroke="black"/>
<path d="M69.9789,175.183h -8.25052" fill="none" stroke="black"/>
<path d="M78.2294,164.917h -16.501" fill="none" stroke="black"/>
<path d="M69.9789,154.651h -8.25052" fill="none" stroke="black"/>
<path d="M69.9789,144.385h -8.25052" fill="none" stroke="black"/>
<path d="M69.9789,134.119h -8.25052" fill="none" stroke="black"/>
<path d="M69.9789,123.854h -8.25052" fill="none" stroke="black"/>
<path d="M78.2294,113.588h -16.501" fill="none" stroke="black"/>
<path d="M69.9789,103.322h -8.25052" fill="none" stroke="black"/>
<path d="M69.9789,93.0561h -8.25052" fill="none" stroke="black"/>
<path d="M69.9789,82.7903h -8.25052" fill="none" stroke="black"/>
<path d="M69.9789,72.5244h -8.25052" fill="none" stroke="black"/>
<path d="M78.2294,62.2586h -16.501" fill="none" stroke="black"/>
<path d="M69.9789,51.9927h -8.25052" fill="none" stroke="black"/>
<path d="M69.9789,41.7269h -8.25052" fill="none" stroke="black"/>
<path d="M69.9789,31.4611h -8.25052" fill="none" stroke="black"/>
<path d="M69.9789,21.1952h -8.25052" fill="none" stroke="black"/>
<path d="M78.2294,10.9294h -16.501" fill="none" stroke="black"/>
<path d="M78.2294,10.9294h -16.501" fill="none" stroke="black"/>
<text xml:space="preserve" x="53.5904" y="271.14" fill="black" font-size="8.91652" font-family="Helvetica">0</text>
<text xml:space="preserve" x="46.006" y="219.946" fill="black" font-size="8.91652" font-family="Helvetica">0.5</text>
<text xml:space="preserve" x="54.5384" y="167.803" fill="black" font-size="8.91652" font-family="Helvetica">1</text>
<text xml:space="preserve" x="46.006" y="116.609" fill="black" font-size="8.91652" font-family="Helvetica">1.5</text>
<text xml:space="preserve" x="53.5904" y="65.4149" fill="black" font-size="8.91652" font-family="Helvetica">2</text>
<text xml:space="preserve" x="46.006" y="14.2206" fill="black" font-size="8.91652" font-family="Helvetica">2.5</text>
<g transform="rotate(-90,21.3569,35.0776)">
<text xml:space="preserve" x="21.3569" y="35.0776" fill="black" font-size="14.9283" font-family="Helvetica">nJet</text>
</g>
<path d="M76.0626,177.698v -16.2801" fill="none" stroke="#006699" stroke-width="2"/>
<path d="M76.0626,161.418v -16.2801" fill="none" stroke="#006699" stroke-width="2"/>
<g stroke="black" stroke-width="1" fill="none">
<line x1="75.0626" y1="161.418" x2="76.0626" y2="161.418"/>
</g>
<path d="M85.6187,151.152v -17.0339" fill="none" stroke="#006699" stroke-width="2"/>
<path d="M85.6187,134.118v -17.0339" fill="none" stroke="#006699" stroke-width="2"/>
<g stroke="black" stroke-width="1" fill="none">
<line x1="84.6187" y1="134.118" x2="85.6187" y2="134.118"/>
</g>
<path d="M95.1749,172.373v -14.8264" fill="none" stroke="#006699" stroke-width="2"/>
<path d="M95.1749,157.547v -14.8264" fill="none" stroke="#006699" stroke-width="2"/>
<g stroke="black" stroke-width="1" fill="none">
<line x1="94.1749" y1="157.547" x2="95.1749" y2="157.547"/>
</g>
<path d="M104.731,167.234v -16.651" fill="none" stroke="#006699" stroke-width="2"/>
<path d="M104.731,150.583v -16.651" fill="none" stroke="#006699" stroke-width="2"/>
<g stroke="black" stroke-width="1" fill="none">
<line x1="103.731" y1="150.583" x2="104.731" y2="150.583"/>
</g>
<path d="M119.065,142.208v -18.2265" fill="none" stroke="#006699" stroke-width="2"/>
<path d="M119.065,123.981v -18.2265" fill="none" stroke="#006699" stroke-width="2"/>
<g stroke="black" stroke-width="1" fill="none">
<line x1="118.065" y1="123.981" x2="119.065" y2="123.981"/>
</g>
<path d="M138.178,187.078v -12.5516" fill="none" stroke="#006699" stroke-width="2"/>
<path d="M138.178,174.526v -12.5516" fill="none" stroke="#006699" stroke-width="2"/>
<g stroke="black" stroke-width="1" fill="none">
<line x1="137.178" y1="174.526" x2="138.178" y2="174.526"/>
</g>
<path d="M160.475,227.819v -11.215" fill="none" stroke="#006699" stroke-width="2"/>
<path d="M160.475,216.604v -11.215" fill="none" stroke="#006699" stroke-width="2"/>
<g stroke="black" stroke-width="1" fill="none">
<line x1="159.475" y1="216.604" x2="160.475" y2="216.604"/>
</g>
<path d="M189.144,254.451v -4.23829" fill="none" stroke="#006699" stroke-width="2"/>
<path d="M189.144,250.213v -4.23829" fill="none" stroke="#006699" stroke-width="2"/>
<g stroke="black" stroke-width="1" fill="none">
<line x1="188.144" y1="250.213" x2="189.144" y2="250.213"/>
</g>
<path d="M372.303,256.718v -6.45024" fill="none" stroke="#006699" stroke-width="2"/>
<path d="M372.303,250.268v -6.45024" fill="none" stroke="#006699" stroke-width="2"/>
<g stroke="black" stroke-width="1" fill="none">
<line x1="371.303" y1="250.268" x2="372.303" y2="250.268"/>
</g>
<path d="M61.7283,267.575h 9.55616v -106.157h 9.55616v -27.3h 9.55616v 23.4286h 9.55616v -6.96374h 9.55616v -26.6018h 19.1123v 50.5451h 19.1123v 42.0778h 25.4831v 33.6085h 31.8539v 0.0549627h 334.466" fill="none" stroke="#006699" stroke-width="2"/>
<text xml:space="preserve" x="371.184" y="78.6875" fill="black" font-size="14.9283" font-family="Helvetica">| &lt;= 2.5</text>
<text xml:space="preserve" x="363.6" y="78.6875" fill="black" font-size="14.9283" font-family="Times">&#0951;</text>
<text xml:space="preserve" x="260.264" y="78.6875" fill="black" font-size="14.9283" font-family="Helvetica">light flavor , 2 &lt; |</text>
<text xml:space="preserve" x="303.873" y="113.765" fill="black" font-size="14.9283" font-family="Helvetica">True Background</text>
<path d="M263.477,110.307h 34.0299" fill="none" stroke="#ff0000" stroke-width="2"/>
<path d="M280.492,120.791v -20.9692" fill="none" stroke="#ff0000" stroke-width="2"/>
<text xml:space="preserve" x="303.873" y="150.739" fill="black" font-size="14.9283" font-family="Helvetica">Predict</text>
<path d="M263.477,145.255h 34.0299" fill="none" stroke="#006699" stroke-width="2"/>
<path d="M280.492,155.74v -20.9692" fill="none" stroke="#006699" stroke-width="2"/>
<rect x="6.16929" y="278.497" width="555.591" height="262.115" fill="white"/>
<rect x="61.7283" y="278.497" width="477.808" height="209.692" fill="white"/>
<rect x="61.7283" y="278.497" width="477.808" height="209.692" fill="none" stroke="black"/>
<rect x="61.7283" y="278.497" width="477.808" height="209.692" fill="white"/>
<rect x="61.7283" y="278.497" width="477.808" height="209.692" fill="none" stroke="black"/>
<path d="M76.0626,451.935v -18.5327" fill="none" stroke="black" stroke-width="2"/>
<path d="M76.0626,433.402v -18.5327" fill="none" stroke="black" stroke-width="2"/>
<path d="M71.2845,433.402h 4.77808" fill="none" stroke="black" stroke-width="2"/>
<path d="M76.0626,433.402h 4.77808" fill="none" stroke="black" stroke-width="2"/>
<g stroke="black" stroke-width="1" fill="none">
<line x1="75.0626" y1="433.402" x2="76.0626" y2="433.402"/>
</g>
<path d="M85.6187,468.145v -11.927" fill="none" stroke="black" stroke-width="2"/>
<path d="M85.6187,456.218v -11.927" fill="none" stroke="black" stroke-width="2"/>
<path d="M80.8407,456.218h 4.77808" fill="none" stroke="black" stroke-width="2"/>
<path d="M85.6187,456.218h 4.77808" fill="none" stroke="black" stroke-width="2"/>
<g stroke="black" stroke-width="1" fill="none">
<line x1="84.6187" y1="456.218" x2="85.6187" y2="456.218"/>
</g>
<path d="M95.1749,444.982v -19.2625" fill="none" stroke="black" stroke-width="2"/>
<path d="M95.1749,425.719v -19.2625" fill="none" stroke="black" stroke-width="2"/>
<path d="M90.3968,425.719h 4.77808" fill="none" stroke="black" stroke-width="2"/>
<path d="M95.1749,425.719h 4.77808" fill="none" stroke="black" stroke-width="2"/>
<g stroke="black" stroke-width="1" fill="none">
<line x1="94.1749" y1="425.719" x2="95.1749" y2="425.719"/>
</g>
<path d="M104.731,458.098v -15.7139" fill="none" stroke="black" stroke-width="2"/>
<path d="M104.731,442.384v -15.7139" fill="none" stroke="black" stroke-width="2"/>
<path d="M99.953,442.384h 4.77808" fill="none" stroke="black" stroke-width="2"/>
<path d="M104.731,442.384h 4.77808" fill="none" stroke="black" stroke-width="2"/>
<g stroke="black" stroke-width="1" fill="none">
<line x1="103.731" y1="442.384" x2="104.731" y2="442.384"/>
</g>
<path d="M119.065,417.825v -21.817" fill="none" stroke="black" stroke-width="2"/>
<path d="M119.065,396.008v -21.817" fill="none" stroke="black" stroke-width="2"/>
<path d="M109.509,396.008h 9.55616" fill="none" stroke="black" stroke-width="2"/>
<path d="M119.065,396.008h 9.55616" fill="none" stroke="black" stroke-width="2"/>
<g stroke="black" stroke-width="1" fill="none">
<line x1="118.065" y1="396.008" x2="119.065" y2="396.008"/>
</g>
<path d="M138.178,427.868v -35.1696" fill="none" stroke="black" stroke-width="2"/>
<path d="M138.178,392.699v -35.1696" fill="none" stroke="black" stroke-width="2"/>
<path d="M128.621,392.699h 9.55616" fill="none" stroke="black" stroke-width="2"/>
<path d="M138.178,392.699h 9.55616" fill="none" stroke="black" stroke-width="2"/>
<g stroke="black" stroke-width="1" fill="none">
<line x1="137.178" y1="392.699" x2="138.178" y2="392.699"/>
</g>
<path d="M160.475,454.296v -55.5186" fill="none" stroke="black" stroke-width="2"/>
<path d="M160.475,398.778v -55.5186" fill="none" stroke="black" stroke-width="2"/>
<path d="M147.734,398.778h 12.7415" fill="none" stroke="black" stroke-width="2"/>
<path d="M160.475,398.778h 12.7415" fill="none" stroke="black" stroke-width="2"/>
<g stroke="black" stroke-width="1" fill="none">
<line x1="159.475" y1="398.778" x2="160.475" y2="398.778"/>
</g>
<path d="M189.144,487.653v -1.59085" fill="none" stroke="black" stroke-width="2"/>
<path d="M189.144,486.062v -1.59085" fill="none" stroke="black" stroke-width="2"/>
<path d="M173.217,486.062h 15.9269" fill="none" stroke="black" stroke-width="2"/>
<path d="M189.144,486.062h 15.9269" fill="none" stroke="black" stroke-width="2"/>
<g stroke="black" stroke-width="1" fill="none">
<line x1="188.144" y1="486.062" x2="189.144" y2="486.062"/>
</g>
<path d="M372.303,441.375v -76.4466" fill="none" stroke="black" stroke-width="2"/>
<path d="M372.303,364.929v -76.4466" fill="none" stroke="black" stroke-width="2"/>
<path d="M205.071,364.929h 167.233" fill="none" stroke="black" stroke-width="2"/>
<path d="M372.303,364.929h 167.233" fill="none" stroke="black" stroke-width="2"/>
<g stroke="black" stroke-width="1" fill="none">
<line x1="371.303" y1="364.929" x2="372.303" y2="364.929"/>
</g>
<path d="M64.1174,429.405l 4.77808, 2.1469l 4.77808, 2.1469l 4.77808, 2.1469l 4.77808, 2.1469l 4.77808, 2.1469l 4.77808, 2.1469l 4.77808, 2.1469l 4.77808, 2.1469l 4.77808, 2.1469l 4.77808, 2.1469l 4.77808, 2.1469l 4.77808, 2.1469l 4.77808, 2.1469l
 4.77808, 2.1469l 4.77808, 2.1469l 4.77808, 2.1469l 4.77808, 2.1469l 4.77808, 2.1469l 4.77808, 2.1469l 4.77808, 2.1469l 4.77808, 2.1469l 4.77808, 2.1469l 4.77808, 2.1469l 4.77808, 2.1469l 4.77808, 2.1469l 4.77808, 2.1469l 4.77808, 2.1469l 1.81932,
 0.817462" fill="none" stroke="#339966" stroke-width="2"/>
<path d="M61.7283,488.189h 477.808" fill="none" stroke="black"/>
<path d="M61.7283,481.426v 6.76256" fill="none" stroke="black"/>
<path d="M77.6553,484.807v 3.38128" fill="none" stroke="black"/>
<path d="M93.5822,484.807v 3.38128" fill="none" stroke="black"/>
<path d="M109.509,484.807v 3.38128" fill="none" stroke="black"/>
<path d="M125.436,481.426v 6.76256" fill="none" stroke="black"/>
<path d="M141.363,484.807v 3.38128" fill="none" stroke="black"/>
<path d="M157.29,484.807v 3.38128" fill="none" stroke="black"/>
<path d="M173.217,484.807v 3.38128" fill="none" stroke="black"/>
<path d="M189.144,481.426v 6.76256" fill="none" stroke="black"/>
<path d="M205.071,484.807v 3.38128" fill="none" stroke="black"/>
<path d="M220.998,484.807v 3.38128" fill="none" stroke="black"/>
<path d="M236.925,484.807v 3.38128" fill="none" stroke="black"/>
<path d="M252.852,481.426v 6.76256" fill="none" stroke="black"/>
<path d="M268.778,484.807v 3.38128" fill="none" stroke="black"/>
<path d="M284.705,484.807v 3.38128" fill="none" stroke="black"/>
<path d="M300.632,484.807v 3.38128" fill="none" stroke="black"/>
<path d="M316.559,481.426v 6.76256" fill="none" stroke="black"/>
<path d="M332.486,484.807v 3.38128" fill="none" stroke="black"/>
<path d="M348.413,484.807v 3.38128" fill="none" stroke="black"/>
<path d="M364.34,484.807v 3.38128" fill="none" stroke="black"/>
<path d="M380.267,481.426v 6.76256" fill="none" stroke="black"/>
<path d="M396.194,484.807v 3.38128" fill="none" stroke="black"/>
<path d="M412.121,484.807v 3.38128" fill="none" stroke="black"/>
<path d="M428.048,484.807v 3.38128" fill="none" stroke="black"/>
<path d="M443.975,481.426v 6.76256" fill="none" stroke="black"/>
<path d="M459.902,484.807v 3.38128" fill="none" stroke="black"/>
<path d="M475.828,484.807v 3.38128" fill="none" stroke="black"/>
<path d="M491.755,484.807v 3.38128" fill="none" stroke="black"/>
<path d="M507.682,481.426v 6.76256" fill="none" stroke="black"/>
<path d="M507.682,481.426v 6.76256" fill="none" stroke="black"/>
<path d="M523.609,484.807v 3.38128" fill="none" stroke="black"/>
<text xml:space="preserve" x="58.3306" y="496.774" fill="black" font-size="8.91652" font-family="Helvetica">0</text>
<text xml:space="preserve" x="117.109" y="496.774" fill="black" font-size="8.91652" font-family="Helvetica">200</text>
<text xml:space="preserve" x="180.628" y="496.774" fill="black" font-size="8.91652" font-family="Helvetica">400</text>
<text xml:space="preserve" x="245.095" y="496.774" fill="black" font-size="8.91652" font-family="Helvetica">600</text>
<text xml:space="preserve" x="308.614" y="496.774" fill="black" font-size="8.91652" font-family="Helvetica">800</text>
<text xml:space="preserve" x="370.236" y="496.774" fill="black" font-size="8.91652" font-family="Helvetica">1000</text>
<text xml:space="preserve" x="433.755" y="496.774" fill="black" font-size="8.91652" font-family="Helvetica">1200</text>
<text xml:space="preserve" x="497.274" y="496.774" fill="black" font-size="8.91652" font-family="Helvetica">1400</text>
<text xml:space="preserve" x="497.274" y="518.579" fill="black" font-size="14.9283" font-family="Helvetica">Jet PT</text>
<path d="M61.7283,278.497h 477.808" fill="none" stroke="black"/>
<path d="M61.7283,285.259v -6.76256" fill="none" stroke="black"/>
<path d="M77.6553,281.878v -3.38128" fill="none" stroke="black"/>
<path d="M93.5822,281.878v -3.38128" fill="none" stroke="black"/>
<path d="M109.509,281.878v -3.38128" fill="none" stroke="black"/>
<path d="M125.436,285.259v -6.76256" fill="none" stroke="black"/>
<path d="M141.363,281.878v -3.38128" fill="none" stroke="black"/>
<path d="M157.29,281.878v -3.38128" fill="none" stroke="black"/>
<path d="M173.217,281.878v -3.38128" fill="none" stroke="black"/>
<path d="M189.144,285.259v -6.76256" fill="none" stroke="black"/>
<path d="M205.071,281.878v -3.38128" fill="none" stroke="black"/>
<path d="M220.998,281.878v -3.38128" fill="none" stroke="black"/>
<path d="M236.925,281.878v -3.38128" fill="none" stroke="black"/>
<path d="M252.852,285.259v -6.76256" fill="none" stroke="black"/>
<path d="M268.778,281.878v -3.38128" fill="none" stroke="black"/>
<path d="M284.705,281.878v -3.38128" fill="none" stroke="black"/>
<path d="M300.632,281.878v -3.38128" fill="none" stroke="black"/>
<path d="M316.559,285.259v -6.76256" fill="none" stroke="black"/>
<path d="M332.486,281.878v -3.38128" fill="none" stroke="black"/>
<path d="M348.413,281.878v -3.38128" fill="none" stroke="black"/>
<path d="M364.34,281.878v -3.38128" fill="none" stroke="black"/>
<path d="M380.267,285.259v -6.76256" fill="none" stroke="black"/>
<path d="M396.194,281.878v -3.38128" fill="none" stroke="black"/>
<path d="M412.121,281.878v -3.38128" fill="none" stroke="black"/>
<path d="M428.048,281.878v -3.38128" fill="none" stroke="black"/>
<path d="M443.975,285.259v -6.76256" fill="none" stroke="black"/>
<path d="M459.902,281.878v -3.38128" fill="none" stroke="black"/>
<path d="M475.828,281.878v -3.38128" fill="none" stroke="black"/>
<path d="M491.755,281.878v -3.38128" fill="none" stroke="black"/>
<path d="M507.682,285.259v -6.76256" fill="none" stroke="black"/>
<path d="M507.682,285.259v -6.76256" fill="none" stroke="black"/>
<path d="M523.609,281.878v -3.38128" fill="none" stroke="black"/>
<path d="M61.7283,488.189v -209.692" fill="none" stroke="black"/>
<path d="M75.0625,488.189h -13.3342" fill="none" stroke="black"/>
<path d="M68.3954,481.763h -6.66709" fill="none" stroke="black"/>
<path d="M68.3954,475.337h -6.66709" fill="none" stroke="black"/>
<path d="M68.3954,468.911h -6.66709" fill="none" stroke="black"/>
<path d="M68.3954,462.485h -6.66709" fill="none" stroke="black"/>
<path d="M75.0625,456.059h -13.3342" fill="none" stroke="black"/>
<path d="M68.3954,449.633h -6.66709" fill="none" stroke="black"/>
<path d="M68.3954,443.207h -6.66709" fill="none" stroke="black"/>
<path d="M68.3954,436.782h -6.66709" fill="none" stroke="black"/>
<path d="M68.3954,430.356h -6.66709" fill="none" stroke="black"/>
<path d="M75.0625,423.93h -13.3342" fill="none" stroke="black"/>
<path d="M68.3954,417.504h -6.66709" fill="none" stroke="black"/>
<path d="M68.3954,411.078h -6.66709" fill="none" stroke="black"/>
<path d="M68.3954,404.652h -6.66709" fill="none" stroke="black"/>
<path d="M68.3954,398.226h -6.66709" fill="none" stroke="black"/>
<path d="M75.0625,391.8h -13.3342" fill="none" stroke="black"/>
<path d="M68.3954,385.375h -6.66709" fill="none" stroke="black"/>
<path d="M68.3954,378.949h -6.66709" fill="none" stroke="black"/>
<path d="M68.3954,372.523h -6.66709" fill="none" stroke="black"/>
<path d="M68.3954,366.097h -6.66709" fill="none" stroke="black"/>
<path d="M75.0625,359.671h -13.3342" fill="none" stroke="black"/>
<path d="M68.3954,353.245h -6.66709" fill="none" stroke="black"/>
<path d="M68.3954,346.819h -6.66709" fill="none" stroke="black"/>
<path d="M68.3954,340.393h -6.66709" fill="none" stroke="black"/>
<path d="M68.3954,333.968h -6.66709" fill="none" stroke="black"/>
<path d="M75.0625,327.542h -13.3342" fill="none" stroke="black"/>
<path d="M68.3954,321.116h -6.66709" fill="none" stroke="black"/>
<path d="M68.3954,314.69h -6.66709" fill="none" stroke="black"/>
<path d="M68.3954,308.264h -6.66709" fill="none" stroke="black"/>
<path d="M68.3954,301.838h -6.66709" fill="none" stroke="black"/>
<path d="M75.0625,295.412h -13.3342" fill="none" stroke="black"/>
<path d="M75.0625,295.412h -13.3342" fill="none" stroke="black"/>
<path d="M68.3954,288.986h -6.66709" fill="none" stroke="black"/>
<path d="M68.3954,282.561h -6.66709" fill="none" stroke="black"/>
<text xml:space="preserve" x="53.5904" y="491.086" fill="black" font-size="8.91652" font-family="Helvetica">0</text>
<text xml:space="preserve" x="46.006" y="459.8" fill="black" font-size="8.91652" font-family="Helvetica">0.5</text>
<text xml:space="preserve" x="54.5384" y="427.567" fill="black" font-size="8.91652" font-family="Helvetica">1</text>
<text xml:space="preserve" x="46.006" y="395.334" fill="black" font-size="8.91652" font-family="Helvetica">1.5</text>
<text xml:space="preserve" x="53.5904" y="363.1" fill="black" font-size="8.91652" font-family="Helvetica">2</text>
<text xml:space="preserve" x="46.006" y="330.867" fill="black" font-size="8.91652" font-family="Helvetica">2.5</text>
<text xml:space="preserve" x="53.5904" y="298.633" fill="black" font-size="8.91652" font-family="Helvetica">3</text>
<g transform="rotate(-90,19.4608,458.852)">
<text xml:space="preserve" x="19.4608" y="458.852" fill="black" font-size="14.9283" font-family="Helvetica">True Background / Predicted</text>
</g>
<text xml:space="preserve" x="332.315" y="307.166" fill="black" font-size="14.9283" font-family="Helvetica">Fitting function</text>
<text xml:space="preserve" x="375.925" y="348.879" fill="black" font-size="14.9283" font-family="Helvetica">0.931501 + -0.002227*x</text>
<path d="M334.863,343.428h 34.011" fill="none" stroke="#339966" stroke-width="2"/></svg>
