<?xml version="1.0" standalone="no"?>
<svg width="567.429" height="546.572" viewBox="0 0 567.429 546.572" xmlns="http://www.w3.org/2000/svg" shape-rendering="crispEdges">
<title>
/home/kuanyu/Documents/CMS/Background_Estimate/fake_rate/top_emu/plot/Top(emu)_HL_dileppT_bRatio_2.svg
</title>
<desc>
Creator: ROOT Version 6.26/04
CreationDate: Wed Oct 26 10:23:24 2022</desc>
<defs>
</defs>
<rect x="0.5" y="0" width="566.929" height="546.072" fill="none"/>
<rect x="6.16929" y="5.46072" width="555.591" height="262.115" fill="none"/>
<rect x="61.7284" y="8.08187" width="477.808" height="259.493" fill="none"/>
<rect x="61.7284" y="8.08187" width="477.808" height="259.493" fill="none" stroke="black"/>
<rect x="61.7284" y="8.08187" width="477.808" height="259.493" fill="none"/>
<rect x="61.7284" y="8.08187" width="477.808" height="259.493" fill="none" stroke="black"/>
<path d="M71.6827,70.8187v -25.19" fill="none" stroke="#006699" stroke-width="2"/>
<path d="M71.6827,45.6287v -25.19" fill="none" stroke="#006699" stroke-width="2"/>
<g stroke="black" stroke-width="1" fill="none">
<line x1="70.6827" y1="45.6287" x2="71.6827" y2="45.6287"/>
</g>
<path d="M91.5913,120.772v -11.3382" fill="none" stroke="#006699" stroke-width="2"/>
<path d="M91.5913,109.433v -11.3382" fill="none" stroke="#006699" stroke-width="2"/>
<g stroke="black" stroke-width="1" fill="none">
<line x1="90.5913" y1="109.433" x2="91.5913" y2="109.433"/>
</g>
<path d="M111.5,145.131v -6.9231" fill="none" stroke="#006699" stroke-width="2"/>
<path d="M111.5,138.208v -6.9231" fill="none" stroke="#006699" stroke-width="2"/>
<g stroke="black" stroke-width="1" fill="none">
<line x1="110.5" y1="138.208" x2="111.5" y2="138.208"/>
</g>
<path d="M131.409,173.324v -4.81166" fill="none" stroke="#006699" stroke-width="2"/>
<path d="M131.409,168.512v -4.81166" fill="none" stroke="#006699" stroke-width="2"/>
<g stroke="black" stroke-width="1" fill="none">
<line x1="130.409" y1="168.512" x2="131.409" y2="168.512"/>
</g>
<path d="M151.317,188.296v -3.63223" fill="none" stroke="#006699" stroke-width="2"/>
<path d="M151.317,184.664v -3.63223" fill="none" stroke="#006699" stroke-width="2"/>
<g stroke="black" stroke-width="1" fill="none">
<line x1="150.317" y1="184.664" x2="151.317" y2="184.664"/>
</g>
<path d="M171.226,208.47v -3.0088" fill="none" stroke="#006699" stroke-width="2"/>
<path d="M171.226,205.461v -3.0088" fill="none" stroke="#006699" stroke-width="2"/>
<g stroke="black" stroke-width="1" fill="none">
<line x1="170.226" y1="205.461" x2="171.226" y2="205.461"/>
</g>
<path d="M191.135,213.137v -2.83715" fill="none" stroke="#006699" stroke-width="2"/>
<path d="M191.135,210.3v -2.83715" fill="none" stroke="#006699" stroke-width="2"/>
<g stroke="black" stroke-width="1" fill="none">
<line x1="190.135" y1="210.3" x2="191.135" y2="210.3"/>
</g>
<path d="M211.043,222.87v -2.72785" fill="none" stroke="#006699" stroke-width="2"/>
<path d="M211.043,220.142v -2.72785" fill="none" stroke="#006699" stroke-width="2"/>
<g stroke="black" stroke-width="1" fill="none">
<line x1="210.043" y1="220.142" x2="211.043" y2="220.142"/>
</g>
<path d="M230.952,233.213v -2.5955" fill="none" stroke="#006699" stroke-width="2"/>
<path d="M230.952,230.617v -2.5955" fill="none" stroke="#006699" stroke-width="2"/>
<g stroke="black" stroke-width="1" fill="none">
<line x1="229.952" y1="230.617" x2="230.952" y2="230.617"/>
</g>
<path d="M250.861,240.938v -2.45443" fill="none" stroke="#006699" stroke-width="2"/>
<path d="M250.861,238.484v -2.45443" fill="none" stroke="#006699" stroke-width="2"/>
<g stroke="black" stroke-width="1" fill="none">
<line x1="249.861" y1="238.484" x2="250.861" y2="238.484"/>
</g>
<path d="M270.769,245.018v -2.95179" fill="none" stroke="#006699" stroke-width="2"/>
<path d="M270.769,242.066v -2.95179" fill="none" stroke="#006699" stroke-width="2"/>
<g stroke="black" stroke-width="1" fill="none">
<line x1="269.769" y1="242.066" x2="270.769" y2="242.066"/>
</g>
<path d="M290.678,251.031v -2.68911" fill="none" stroke="#006699" stroke-width="2"/>
<path d="M290.678,248.342v -2.68911" fill="none" stroke="#006699" stroke-width="2"/>
<g stroke="black" stroke-width="1" fill="none">
<line x1="289.678" y1="248.342" x2="290.678" y2="248.342"/>
</g>
<path d="M310.587,255.352v -2.84928" fill="none" stroke="#006699" stroke-width="2"/>
<path d="M310.587,252.503v -2.84928" fill="none" stroke="#006699" stroke-width="2"/>
<g stroke="black" stroke-width="1" fill="none">
<line x1="309.587" y1="252.503" x2="310.587" y2="252.503"/>
</g>
<path d="M330.495,262.29v -2.34882" fill="none" stroke="#006699" stroke-width="2"/>
<path d="M330.495,259.941v -2.34882" fill="none" stroke="#006699" stroke-width="2"/>
<g stroke="black" stroke-width="1" fill="none">
<line x1="329.495" y1="259.941" x2="330.495" y2="259.941"/>
</g>
<path d="M439.993,262.943v -1.38684" fill="none" stroke="#006699" stroke-width="2"/>
<path d="M439.993,261.556v -1.38684" fill="none" stroke="#006699" stroke-width="2"/>
<g stroke="black" stroke-width="1" fill="none">
<line x1="438.993" y1="261.556" x2="439.993" y2="261.556"/>
</g>
<path d="M61.7284,45.6287h 19.9087v 63.8047h 19.9087v 28.7742h 19.9087v 30.3043h 19.9087v 16.1517h 19.9087v 20.7972h 19.9087v 4.83921h 19.9087v 9.84241h 19.9087v 10.4747h 19.9087v 7.86673h 19.9087v 3.58236h 19.9087v 6.27537h 19.9087v 4.16112h
 19.9087v 7.4381h 19.9087v 1.61525h 199.087" fill="none" stroke="#006699" stroke-width="2"/>
<path d="M61.7284,267.575h 477.808" fill="none" stroke="black"/>
<path d="M141.363,260.813v 6.76256" fill="none" stroke="black"/>
<path d="M161.272,264.194v 3.38128" fill="none" stroke="black"/>
<path d="M181.18,264.194v 3.38128" fill="none" stroke="black"/>
<path d="M201.089,264.194v 3.38128" fill="none" stroke="black"/>
<path d="M220.998,264.194v 3.38128" fill="none" stroke="black"/>
<path d="M240.906,260.813v 6.76256" fill="none" stroke="black"/>
<path d="M260.815,264.194v 3.38128" fill="none" stroke="black"/>
<path d="M280.724,264.194v 3.38128" fill="none" stroke="black"/>
<path d="M300.632,264.194v 3.38128" fill="none" stroke="black"/>
<path d="M320.541,264.194v 3.38128" fill="none" stroke="black"/>
<path d="M340.45,260.813v 6.76256" fill="none" stroke="black"/>
<path d="M360.358,264.194v 3.38128" fill="none" stroke="black"/>
<path d="M380.267,264.194v 3.38128" fill="none" stroke="black"/>
<path d="M400.176,264.194v 3.38128" fill="none" stroke="black"/>
<path d="M420.084,264.194v 3.38128" fill="none" stroke="black"/>
<path d="M439.993,260.813v 6.76256" fill="none" stroke="black"/>
<path d="M459.902,264.194v 3.38128" fill="none" stroke="black"/>
<path d="M479.81,264.194v 3.38128" fill="none" stroke="black"/>
<path d="M499.719,264.194v 3.38128" fill="none" stroke="black"/>
<path d="M519.628,264.194v 3.38128" fill="none" stroke="black"/>
<path d="M539.536,260.813v 6.76256" fill="none" stroke="black"/>
<path d="M141.363,260.813v 6.76256" fill="none" stroke="black"/>
<path d="M121.454,264.194v 3.38128" fill="none" stroke="black"/>
<path d="M101.546,264.194v 3.38128" fill="none" stroke="black"/>
<path d="M81.637,264.194v 3.38128" fill="none" stroke="black"/>
<path d="M61.7284,267.575v -259.493" fill="none" stroke="black"/>
<path d="M78.2294,267.575h -16.501" fill="none" stroke="black"/>
<path d="M69.9789,260.15h -8.25052" fill="none" stroke="black"/>
<path d="M69.9789,252.724h -8.25052" fill="none" stroke="black"/>
<path d="M69.9789,245.298h -8.25052" fill="none" stroke="black"/>
<path d="M69.9789,237.872h -8.25052" fill="none" stroke="black"/>
<path d="M78.2294,230.446h -16.501" fill="none" stroke="black"/>
<path d="M69.9789,223.02h -8.25052" fill="none" stroke="black"/>
<path d="M69.9789,215.594h -8.25052" fill="none" stroke="black"/>
<path d="M69.9789,208.168h -8.25052" fill="none" stroke="black"/>
<path d="M69.9789,200.743h -8.25052" fill="none" stroke="black"/>
<path d="M78.2294,193.317h -16.501" fill="none" stroke="black"/>
<path d="M69.9789,185.891h -8.25052" fill="none" stroke="black"/>
<path d="M69.9789,178.465h -8.25052" fill="none" stroke="black"/>
<path d="M69.9789,171.039h -8.25052" fill="none" stroke="black"/>
<path d="M69.9789,163.613h -8.25052" fill="none" stroke="black"/>
<path d="M78.2294,156.187h -16.501" fill="none" stroke="black"/>
<path d="M69.9789,148.761h -8.25052" fill="none" stroke="black"/>
<path d="M69.9789,141.336h -8.25052" fill="none" stroke="black"/>
<path d="M69.9789,133.91h -8.25052" fill="none" stroke="black"/>
<path d="M69.9789,126.484h -8.25052" fill="none" stroke="black"/>
<path d="M78.2294,119.058h -16.501" fill="none" stroke="black"/>
<path d="M69.9789,111.632h -8.25052" fill="none" stroke="black"/>
<path d="M69.9789,104.206h -8.25052" fill="none" stroke="black"/>
<path d="M69.9789,96.7803h -8.25052" fill="none" stroke="black"/>
<path d="M69.9789,89.3544h -8.25052" fill="none" stroke="black"/>
<path d="M78.2294,81.9286h -16.501" fill="none" stroke="black"/>
<path d="M69.9789,74.5027h -8.25052" fill="none" stroke="black"/>
<path d="M69.9789,67.0768h -8.25052" fill="none" stroke="black"/>
<path d="M69.9789,59.651h -8.25052" fill="none" stroke="black"/>
<path d="M69.9789,52.2251h -8.25052" fill="none" stroke="black"/>
<path d="M78.2294,44.7992h -16.501" fill="none" stroke="black"/>
<path d="M78.2294,44.7992h -16.501" fill="none" stroke="black"/>
<path d="M69.9789,37.3733h -8.25052" fill="none" stroke="black"/>
<path d="M69.9789,29.9475h -8.25052" fill="none" stroke="black"/>
<path d="M69.9789,22.5216h -8.25052" fill="none" stroke="black"/>
<path d="M69.9789,15.0957h -8.25052" fill="none" stroke="black"/>
<text xml:space="preserve" x="53.5904" y="271.14" fill="black" font-size="8.91652" font-family="Helvetica">0</text>
<text xml:space="preserve" x="47.9021" y="234.166" fill="black" font-size="8.91652" font-family="Helvetica">0.1</text>
<text xml:space="preserve" x="46.006" y="196.245" fill="black" font-size="8.91652" font-family="Helvetica">0.2</text>
<text xml:space="preserve" x="46.006" y="159.271" fill="black" font-size="8.91652" font-family="Helvetica">0.3</text>
<text xml:space="preserve" x="46.006" y="122.297" fill="black" font-size="8.91652" font-family="Helvetica">0.4</text>
<text xml:space="preserve" x="46.006" y="85.3238" fill="black" font-size="8.91652" font-family="Helvetica">0.5</text>
<text xml:space="preserve" x="46.006" y="48.3501" fill="black" font-size="8.91652" font-family="Helvetica">0.6</text>
<g transform="rotate(-90,20.4089,62.5708)">
<text xml:space="preserve" x="20.4089" y="62.5708" fill="black" font-size="14.9283" font-family="Helvetica">fake rate</text>
</g>
<path d="M71.6827,81.4694v -30.4894" fill="none" stroke="#ff0000" stroke-width="2"/>
<path d="M71.6827,50.98v -30.4894" fill="none" stroke="#ff0000" stroke-width="2"/>
<path d="M61.7284,50.98h 9.95433" fill="none" stroke="#ff0000" stroke-width="2"/>
<path d="M71.6827,50.98h 9.95433" fill="none" stroke="#ff0000" stroke-width="2"/>
<g stroke="black" stroke-width="1" fill="none">
<line x1="70.6827" y1="50.98" x2="71.6827" y2="50.98"/>
</g>
<path d="M91.5913,109.692v -12.4101" fill="none" stroke="#ff0000" stroke-width="2"/>
<path d="M91.5913,97.2819v -12.4101" fill="none" stroke="#ff0000" stroke-width="2"/>
<path d="M81.637,97.2819h 9.95433" fill="none" stroke="#ff0000" stroke-width="2"/>
<path d="M91.5913,97.2819h 9.95433" fill="none" stroke="#ff0000" stroke-width="2"/>
<g stroke="black" stroke-width="1" fill="none">
<line x1="90.5913" y1="97.2819" x2="91.5913" y2="97.2819"/>
</g>
<path d="M111.5,146.152v -7.34299" fill="none" stroke="#ff0000" stroke-width="2"/>
<path d="M111.5,138.809v -7.34299" fill="none" stroke="#ff0000" stroke-width="2"/>
<path d="M101.546,138.809h 9.95433" fill="none" stroke="#ff0000" stroke-width="2"/>
<path d="M111.5,138.809h 9.95433" fill="none" stroke="#ff0000" stroke-width="2"/>
<g stroke="black" stroke-width="1" fill="none">
<line x1="110.5" y1="138.809" x2="111.5" y2="138.809"/>
</g>
<path d="M131.409,175.185v -4.92641" fill="none" stroke="#ff0000" stroke-width="2"/>
<path d="M131.409,170.259v -4.92641" fill="none" stroke="#ff0000" stroke-width="2"/>
<path d="M121.454,170.259h 9.95433" fill="none" stroke="#ff0000" stroke-width="2"/>
<path d="M131.409,170.259h 9.95433" fill="none" stroke="#ff0000" stroke-width="2"/>
<g stroke="black" stroke-width="1" fill="none">
<line x1="130.409" y1="170.259" x2="131.409" y2="170.259"/>
</g>
<path d="M151.317,185.714v -3.98066" fill="none" stroke="#ff0000" stroke-width="2"/>
<path d="M151.317,181.734v -3.98066" fill="none" stroke="#ff0000" stroke-width="2"/>
<path d="M141.363,181.734h 9.95433" fill="none" stroke="#ff0000" stroke-width="2"/>
<path d="M151.317,181.734h 9.95433" fill="none" stroke="#ff0000" stroke-width="2"/>
<g stroke="black" stroke-width="1" fill="none">
<line x1="150.317" y1="181.734" x2="151.317" y2="181.734"/>
</g>
<path d="M171.226,204.476v -3.33343" fill="none" stroke="#ff0000" stroke-width="2"/>
<path d="M171.226,201.143v -3.33343" fill="none" stroke="#ff0000" stroke-width="2"/>
<path d="M161.272,201.143h 9.95433" fill="none" stroke="#ff0000" stroke-width="2"/>
<path d="M171.226,201.143h 9.95433" fill="none" stroke="#ff0000" stroke-width="2"/>
<g stroke="black" stroke-width="1" fill="none">
<line x1="170.226" y1="201.143" x2="171.226" y2="201.143"/>
</g>
<path d="M191.135,217.054v -3.10559" fill="none" stroke="#ff0000" stroke-width="2"/>
<path d="M191.135,213.948v -3.10559" fill="none" stroke="#ff0000" stroke-width="2"/>
<path d="M181.18,213.948h 9.95433" fill="none" stroke="#ff0000" stroke-width="2"/>
<path d="M191.135,213.948h 9.95433" fill="none" stroke="#ff0000" stroke-width="2"/>
<g stroke="black" stroke-width="1" fill="none">
<line x1="190.135" y1="213.948" x2="191.135" y2="213.948"/>
</g>
<path d="M211.043,228.181v -2.81" fill="none" stroke="#ff0000" stroke-width="2"/>
<path d="M211.043,225.371v -2.81" fill="none" stroke="#ff0000" stroke-width="2"/>
<path d="M201.089,225.371h 9.95433" fill="none" stroke="#ff0000" stroke-width="2"/>
<path d="M211.043,225.371h 9.95433" fill="none" stroke="#ff0000" stroke-width="2"/>
<g stroke="black" stroke-width="1" fill="none">
<line x1="210.043" y1="225.371" x2="211.043" y2="225.371"/>
</g>
<path d="M230.952,236.69v -3.03688" fill="none" stroke="#ff0000" stroke-width="2"/>
<path d="M230.952,233.653v -3.03688" fill="none" stroke="#ff0000" stroke-width="2"/>
<path d="M220.998,233.653h 9.95433" fill="none" stroke="#ff0000" stroke-width="2"/>
<path d="M230.952,233.653h 9.95433" fill="none" stroke="#ff0000" stroke-width="2"/>
<g stroke="black" stroke-width="1" fill="none">
<line x1="229.952" y1="233.653" x2="230.952" y2="233.653"/>
</g>
<path d="M250.861,241.886v -3.21709" fill="none" stroke="#ff0000" stroke-width="2"/>
<path d="M250.861,238.669v -3.21709" fill="none" stroke="#ff0000" stroke-width="2"/>
<path d="M240.906,238.669h 9.95433" fill="none" stroke="#ff0000" stroke-width="2"/>
<path d="M250.861,238.669h 9.95433" fill="none" stroke="#ff0000" stroke-width="2"/>
<g stroke="black" stroke-width="1" fill="none">
<line x1="249.861" y1="238.669" x2="250.861" y2="238.669"/>
</g>
<path d="M270.769,241.728v -3.87643" fill="none" stroke="#ff0000" stroke-width="2"/>
<path d="M270.769,237.852v -3.87643" fill="none" stroke="#ff0000" stroke-width="2"/>
<path d="M260.815,237.852h 9.95433" fill="none" stroke="#ff0000" stroke-width="2"/>
<path d="M270.769,237.852h 9.95433" fill="none" stroke="#ff0000" stroke-width="2"/>
<g stroke="black" stroke-width="1" fill="none">
<line x1="269.769" y1="237.852" x2="270.769" y2="237.852"/>
</g>
<path d="M290.678,251.995v -3.28866" fill="none" stroke="#ff0000" stroke-width="2"/>
<path d="M290.678,248.707v -3.28866" fill="none" stroke="#ff0000" stroke-width="2"/>
<path d="M280.724,248.707h 9.95433" fill="none" stroke="#ff0000" stroke-width="2"/>
<path d="M290.678,248.707h 9.95433" fill="none" stroke="#ff0000" stroke-width="2"/>
<g stroke="black" stroke-width="1" fill="none">
<line x1="289.678" y1="248.707" x2="290.678" y2="248.707"/>
</g>
<path d="M310.587,256.1v -3.02081" fill="none" stroke="#ff0000" stroke-width="2"/>
<path d="M310.587,253.079v -3.02081" fill="none" stroke="#ff0000" stroke-width="2"/>
<path d="M300.632,253.079h 9.95433" fill="none" stroke="#ff0000" stroke-width="2"/>
<path d="M310.587,253.079h 9.95433" fill="none" stroke="#ff0000" stroke-width="2"/>
<g stroke="black" stroke-width="1" fill="none">
<line x1="309.587" y1="253.079" x2="310.587" y2="253.079"/>
</g>
<path d="M330.495,255.961v -3.50705" fill="none" stroke="#ff0000" stroke-width="2"/>
<path d="M330.495,252.454v -3.50705" fill="none" stroke="#ff0000" stroke-width="2"/>
<path d="M320.541,252.454h 9.95433" fill="none" stroke="#ff0000" stroke-width="2"/>
<path d="M330.495,252.454h 9.95433" fill="none" stroke="#ff0000" stroke-width="2"/>
<g stroke="black" stroke-width="1" fill="none">
<line x1="329.495" y1="252.454" x2="330.495" y2="252.454"/>
</g>
<path d="M439.993,263.691v -1.33536" fill="none" stroke="#ff0000" stroke-width="2"/>
<path d="M439.993,262.356v -1.33536" fill="none" stroke="#ff0000" stroke-width="2"/>
<path d="M340.45,262.356h 99.5433" fill="none" stroke="#ff0000" stroke-width="2"/>
<path d="M439.993,262.356h 99.5433" fill="none" stroke="#ff0000" stroke-width="2"/>
<g stroke="black" stroke-width="1" fill="none">
<line x1="438.993" y1="262.356" x2="439.993" y2="262.356"/>
</g>
<text xml:space="preserve" x="349.379" y="78.6875" fill="black" font-size="14.9283" font-family="Helvetica">| &lt; 2</text>
<text xml:space="preserve" x="341.795" y="78.6875" fill="black" font-size="14.9283" font-family="Times">&#0951;</text>
<text xml:space="preserve" x="260.264" y="78.6875" fill="black" font-size="14.9283" font-family="Helvetica">b flavor , 1&lt; |</text>
<text xml:space="preserve" x="303.873" y="113.765" fill="black" font-size="14.9283" font-family="Helvetica">Low dilepton PT</text>
<path d="M263.477,110.307h 34.0299" fill="none" stroke="#006699" stroke-width="2"/>
<path d="M280.492,120.791v -20.9692" fill="none" stroke="#006699" stroke-width="2"/>
<text xml:space="preserve" x="303.873" y="148.843" fill="black" font-size="14.9283" font-family="Helvetica">High dilepton PT</text>
<path d="M263.477,145.255h 34.0299" fill="none" stroke="#ff0000" stroke-width="2"/>
<path d="M280.492,155.74v -20.9692" fill="none" stroke="#ff0000" stroke-width="2"/>
<rect x="6.16929" y="278.497" width="555.591" height="262.115" fill="none"/>
<rect x="61.7284" y="278.497" width="477.808" height="209.692" fill="none"/>
<rect x="61.7284" y="278.497" width="477.808" height="209.692" fill="none" stroke="black"/>
<rect x="61.7284" y="278.497" width="477.808" height="209.692" fill="none"/>
<rect x="61.7284" y="278.497" width="477.808" height="209.692" fill="none" stroke="black"/>
<path d="M71.6827,404.372v -18.5013" fill="none" stroke="black" stroke-width="2"/>
<path d="M71.6827,385.871v -18.5013" fill="none" stroke="black" stroke-width="2"/>
<path d="M61.7284,385.871h 9.95433" fill="none" stroke="black" stroke-width="2"/>
<path d="M71.6827,385.871h 9.95433" fill="none" stroke="black" stroke-width="2"/>
<g stroke="black" stroke-width="1" fill="none">
<line x1="70.6827" y1="385.871" x2="71.6827" y2="385.871"/>
</g>
<path d="M91.5913,386.828v -11.5421" fill="none" stroke="black" stroke-width="2"/>
<path d="M91.5913,375.286v -11.5421" fill="none" stroke="black" stroke-width="2"/>
<path d="M81.637,375.286h 9.95433" fill="none" stroke="black" stroke-width="2"/>
<path d="M91.5913,375.286h 9.95433" fill="none" stroke="black" stroke-width="2"/>
<g stroke="black" stroke-width="1" fill="none">
<line x1="90.5913" y1="375.286" x2="91.5913" y2="375.286"/>
</g>
<path d="M111.5,391.991v -8.16119" fill="none" stroke="black" stroke-width="2"/>
<path d="M111.5,383.83v -8.16119" fill="none" stroke="black" stroke-width="2"/>
<path d="M101.546,383.83h 9.95433" fill="none" stroke="black" stroke-width="2"/>
<path d="M111.5,383.83h 9.95433" fill="none" stroke="black" stroke-width="2"/>
<g stroke="black" stroke-width="1" fill="none">
<line x1="110.5" y1="383.83" x2="111.5" y2="383.83"/>
</g>
<path d="M131.409,392.417v -7.22583" fill="none" stroke="black" stroke-width="2"/>
<path d="M131.409,385.191v -7.22583" fill="none" stroke="black" stroke-width="2"/>
<path d="M121.454,385.191h 9.95433" fill="none" stroke="black" stroke-width="2"/>
<path d="M131.409,385.191h 9.95433" fill="none" stroke="black" stroke-width="2"/>
<g stroke="black" stroke-width="1" fill="none">
<line x1="130.409" y1="385.191" x2="131.409" y2="385.191"/>
</g>
<path d="M151.317,386.563v -6.92478" fill="none" stroke="black" stroke-width="2"/>
<path d="M151.317,379.638v -6.92478" fill="none" stroke="black" stroke-width="2"/>
<path d="M141.363,379.638h 9.95433" fill="none" stroke="black" stroke-width="2"/>
<path d="M151.317,379.638h 9.95433" fill="none" stroke="black" stroke-width="2"/>
<g stroke="black" stroke-width="1" fill="none">
<line x1="150.317" y1="379.638" x2="151.317" y2="379.638"/>
</g>
<path d="M171.226,383.875v -7.82066" fill="none" stroke="black" stroke-width="2"/>
<path d="M171.226,376.054v -7.82066" fill="none" stroke="black" stroke-width="2"/>
<path d="M161.272,376.054h 9.95433" fill="none" stroke="black" stroke-width="2"/>
<path d="M171.226,376.054h 9.95433" fill="none" stroke="black" stroke-width="2"/>
<g stroke="black" stroke-width="1" fill="none">
<line x1="170.226" y1="376.054" x2="171.226" y2="376.054"/>
</g>
<path d="M191.135,397.502v -7.48099" fill="none" stroke="black" stroke-width="2"/>
<path d="M191.135,390.021v -7.48099" fill="none" stroke="black" stroke-width="2"/>
<path d="M181.18,390.021h 9.95433" fill="none" stroke="black" stroke-width="2"/>
<path d="M191.135,390.021h 9.95433" fill="none" stroke="black" stroke-width="2"/>
<g stroke="black" stroke-width="1" fill="none">
<line x1="190.135" y1="390.021" x2="191.135" y2="390.021"/>
</g>
<path d="M211.043,403.107v -8.20746" fill="none" stroke="black" stroke-width="2"/>
<path d="M211.043,394.9v -8.20746" fill="none" stroke="black" stroke-width="2"/>
<path d="M201.089,394.9h 9.95433" fill="none" stroke="black" stroke-width="2"/>
<path d="M211.043,394.9h 9.95433" fill="none" stroke="black" stroke-width="2"/>
<g stroke="black" stroke-width="1" fill="none">
<line x1="210.043" y1="394.9" x2="211.043" y2="394.9"/>
</g>
<path d="M230.952,402.905v -10.9497" fill="none" stroke="black" stroke-width="2"/>
<path d="M230.952,391.955v -10.9497" fill="none" stroke="black" stroke-width="2"/>
<path d="M220.998,391.955h 9.95433" fill="none" stroke="black" stroke-width="2"/>
<path d="M230.952,391.955h 9.95433" fill="none" stroke="black" stroke-width="2"/>
<g stroke="black" stroke-width="1" fill="none">
<line x1="229.952" y1="391.955" x2="230.952" y2="391.955"/>
</g>
<path d="M250.861,398.561v -14.5493" fill="none" stroke="black" stroke-width="2"/>
<path d="M250.861,384.011v -14.5493" fill="none" stroke="black" stroke-width="2"/>
<path d="M240.906,384.011h 9.95433" fill="none" stroke="black" stroke-width="2"/>
<path d="M250.861,384.011h 9.95433" fill="none" stroke="black" stroke-width="2"/>
<g stroke="black" stroke-width="1" fill="none">
<line x1="249.861" y1="384.011" x2="250.861" y2="384.011"/>
</g>
<path d="M270.769,387.322v -21.2999" fill="none" stroke="black" stroke-width="2"/>
<path d="M270.769,366.022v -21.2999" fill="none" stroke="black" stroke-width="2"/>
<path d="M260.815,366.022h 9.95433" fill="none" stroke="black" stroke-width="2"/>
<path d="M270.769,366.022h 9.95433" fill="none" stroke="black" stroke-width="2"/>
<g stroke="black" stroke-width="1" fill="none">
<line x1="269.769" y1="366.022" x2="270.769" y2="366.022"/>
</g>
<path d="M290.678,408.314v -22.9819" fill="none" stroke="black" stroke-width="2"/>
<path d="M290.678,385.332v -22.9819" fill="none" stroke="black" stroke-width="2"/>
<path d="M280.724,385.332h 9.95433" fill="none" stroke="black" stroke-width="2"/>
<path d="M290.678,385.332h 9.95433" fill="none" stroke="black" stroke-width="2"/>
<g stroke="black" stroke-width="1" fill="none">
<line x1="289.678" y1="385.332" x2="290.678" y2="385.332"/>
</g>
<path d="M310.587,415.721v -28.3708" fill="none" stroke="black" stroke-width="2"/>
<path d="M310.587,387.35v -28.3708" fill="none" stroke="black" stroke-width="2"/>
<path d="M300.632,387.35h 9.95433" fill="none" stroke="black" stroke-width="2"/>
<path d="M310.587,387.35h 9.95433" fill="none" stroke="black" stroke-width="2"/>
<g stroke="black" stroke-width="1" fill="none">
<line x1="309.587" y1="387.35" x2="310.587" y2="387.35"/>
</g>
<path d="M330.495,360.539v -80.0065" fill="none" stroke="black" stroke-width="2"/>
<path d="M330.495,280.532v -2.03526" fill="none" stroke="black" stroke-width="2"/>
<path d="M320.541,280.532h 9.95433" fill="none" stroke="black" stroke-width="2"/>
<path d="M330.495,280.532h 9.95433" fill="none" stroke="black" stroke-width="2"/>
<g stroke="black" stroke-width="1" fill="none">
<line x1="329.495" y1="280.532" x2="330.495" y2="280.532"/>
</g>
<path d="M439.993,428.573v -31.3013" fill="none" stroke="black" stroke-width="2"/>
<path d="M439.993,397.272v -31.3013" fill="none" stroke="black" stroke-width="2"/>
<path d="M340.45,397.272h 99.5433" fill="none" stroke="black" stroke-width="2"/>
<path d="M439.993,397.272h 99.5433" fill="none" stroke="black" stroke-width="2"/>
<g stroke="black" stroke-width="1" fill="none">
<line x1="438.993" y1="397.272" x2="439.993" y2="397.272"/>
</g>
<path d="M64.1174,380.087l 4.77808, 0.190723l 4.77808, 0.190723l 4.77808, 0.190723l 4.77808, 0.190723l 4.77808, 0.190723l 4.77808, 0.190723l 4.77808, 0.190723l 4.77808, 0.190723l 4.77808, 0.190723l 4.77808, 0.190723l 4.77808, 0.190723l 4.77808,
 0.190723l 4.77808, 0.190723l 4.77808, 0.190723l 4.77808, 0.190723l 4.77808, 0.190723l 4.77808, 0.190723l 4.77808, 0.190723l 4.77808, 0.190723l 4.77808, 0.190723l 4.77808, 0.190723l 4.77808, 0.190723l 4.77808, 0.190723l 4.77808, 0.190723l 4.77808,
 0.190723l 4.77808, 0.190723l 4.77808, 0.190723l 4.77808, 0.190723l 4.77808, 0.190723l 4.77808, 0.190723l 4.77808, 0.190723l 4.77808, 0.190723l 4.77808, 0.190723l 4.77808, 0.190723l 4.77808, 0.190723l 4.77808, 0.190723l 4.77808, 0.190723l 4.77808,
 0.190723l 4.77808, 0.190723l 4.77808, 0.190723l 4.77808, 0.190723l 4.77808, 0.190723l 4.77808, 0.190723l 4.77808, 0.190723l 4.77808, 0.190723l 4.77808, 0.190723l 4.77808, 0.190723l 4.77808, 0.190723l 4.77808, 0.190723" fill="none" stroke="#339966"
 stroke-width="2"/>
<path d="M298.243,389.433l 4.77808, 0.190723l 4.77808, 0.190723l 4.77808, 0.190723l 4.77808, 0.190723l 4.77808, 0.190723l 4.77808, 0.190723l 4.77808, 0.190723l 4.77808, 0.190723l 4.77808, 0.190723l 4.77808, 0.190723l 4.77808, 0.190723l 4.77808,
 0.190723l 4.77808, 0.190723l 4.77808, 0.190723l 4.77808, 0.190723l 4.77808, 0.190723l 4.77808, 0.190723l 4.77808, 0.190723l 4.77808, 0.190723l 4.77808, 0.190723l 4.77808, 0.190723l 4.77808, 0.190723l 4.77808, 0.190723l 4.77808, 0.190723l 4.77808,
 0.190723l 4.77808, 0.190723l 4.77808, 0.190723l 4.77808, 0.190723l 4.77808, 0.190723l 4.77808, 0.190723l 4.77808, 0.190723l 4.77808, 0.190723l 4.77808, 0.190723l 4.77808, 0.190723l 4.77808, 0.190723l 4.77808, 0.190723l 4.77808, 0.190723l 4.77808,
 0.190723l 4.77808, 0.190723l 4.77808, 0.190723l 4.77808, 0.190723l 4.77808, 0.190723l 4.77808, 0.190723l 4.77808, 0.190723l 4.77808, 0.190723l 4.77808, 0.190723l 4.77808, 0.190723l 4.77808, 0.190723l 4.77808, 0.190723" fill="none" stroke="#339966"
 stroke-width="2"/>
<path d="M532.369,398.778l 4.77808, 0.190723" fill="none" stroke="#339966" stroke-width="2"/>
<path d="M61.7284,488.189h 477.808" fill="none" stroke="black"/>
<path d="M141.363,481.426v 6.76256" fill="none" stroke="black"/>
<path d="M161.272,484.807v 3.38128" fill="none" stroke="black"/>
<path d="M181.18,484.807v 3.38128" fill="none" stroke="black"/>
<path d="M201.089,484.807v 3.38128" fill="none" stroke="black"/>
<path d="M220.998,484.807v 3.38128" fill="none" stroke="black"/>
<path d="M240.906,481.426v 6.76256" fill="none" stroke="black"/>
<path d="M260.815,484.807v 3.38128" fill="none" stroke="black"/>
<path d="M280.724,484.807v 3.38128" fill="none" stroke="black"/>
<path d="M300.632,484.807v 3.38128" fill="none" stroke="black"/>
<path d="M320.541,484.807v 3.38128" fill="none" stroke="black"/>
<path d="M340.45,481.426v 6.76256" fill="none" stroke="black"/>
<path d="M360.358,484.807v 3.38128" fill="none" stroke="black"/>
<path d="M380.267,484.807v 3.38128" fill="none" stroke="black"/>
<path d="M400.176,484.807v 3.38128" fill="none" stroke="black"/>
<path d="M420.084,484.807v 3.38128" fill="none" stroke="black"/>
<path d="M439.993,481.426v 6.76256" fill="none" stroke="black"/>
<path d="M459.902,484.807v 3.38128" fill="none" stroke="black"/>
<path d="M479.81,484.807v 3.38128" fill="none" stroke="black"/>
<path d="M499.719,484.807v 3.38128" fill="none" stroke="black"/>
<path d="M519.628,484.807v 3.38128" fill="none" stroke="black"/>
<path d="M539.536,481.426v 6.76256" fill="none" stroke="black"/>
<path d="M141.363,481.426v 6.76256" fill="none" stroke="black"/>
<path d="M121.454,484.807v 3.38128" fill="none" stroke="black"/>
<path d="M101.546,484.807v 3.38128" fill="none" stroke="black"/>
<path d="M81.637,484.807v 3.38128" fill="none" stroke="black"/>
<text xml:space="preserve" x="137.966" y="496.774" fill="black" font-size="8.91652" font-family="Helvetica">5</text>
<text xml:space="preserve" x="235.614" y="496.774" fill="black" font-size="8.91652" font-family="Helvetica">10</text>
<text xml:space="preserve" x="335.159" y="496.774" fill="black" font-size="8.91652" font-family="Helvetica">15</text>
<text xml:space="preserve" x="434.703" y="496.774" fill="black" font-size="8.91652" font-family="Helvetica">20</text>
<text xml:space="preserve" x="534.248" y="496.774" fill="black" font-size="8.91652" font-family="Helvetica">25</text>
<text xml:space="preserve" x="433.755" y="516.683" fill="black" font-size="14.9283" font-family="Helvetica">Track multiplicity</text>
<path d="M61.7284,278.497h 477.808" fill="none" stroke="black"/>
<path d="M141.363,285.259v -6.76256" fill="none" stroke="black"/>
<path d="M161.272,281.878v -3.38128" fill="none" stroke="black"/>
<path d="M181.18,281.878v -3.38128" fill="none" stroke="black"/>
<path d="M201.089,281.878v -3.38128" fill="none" stroke="black"/>
<path d="M220.998,281.878v -3.38128" fill="none" stroke="black"/>
<path d="M240.906,285.259v -6.76256" fill="none" stroke="black"/>
<path d="M260.815,281.878v -3.38128" fill="none" stroke="black"/>
<path d="M280.724,281.878v -3.38128" fill="none" stroke="black"/>
<path d="M300.632,281.878v -3.38128" fill="none" stroke="black"/>
<path d="M320.541,281.878v -3.38128" fill="none" stroke="black"/>
<path d="M340.45,285.259v -6.76256" fill="none" stroke="black"/>
<path d="M360.358,281.878v -3.38128" fill="none" stroke="black"/>
<path d="M380.267,281.878v -3.38128" fill="none" stroke="black"/>
<path d="M400.176,281.878v -3.38128" fill="none" stroke="black"/>
<path d="M420.084,281.878v -3.38128" fill="none" stroke="black"/>
<path d="M439.993,285.259v -6.76256" fill="none" stroke="black"/>
<path d="M459.902,281.878v -3.38128" fill="none" stroke="black"/>
<path d="M479.81,281.878v -3.38128" fill="none" stroke="black"/>
<path d="M499.719,281.878v -3.38128" fill="none" stroke="black"/>
<path d="M519.628,281.878v -3.38128" fill="none" stroke="black"/>
<path d="M539.536,285.259v -6.76256" fill="none" stroke="black"/>
<path d="M141.363,285.259v -6.76256" fill="none" stroke="black"/>
<path d="M121.454,281.878v -3.38128" fill="none" stroke="black"/>
<path d="M101.546,281.878v -3.38128" fill="none" stroke="black"/>
<path d="M81.637,281.878v -3.38128" fill="none" stroke="black"/>
<path d="M61.7284,488.189v -209.692" fill="none" stroke="black"/>
<path d="M75.0625,488.189h -13.3342" fill="none" stroke="black"/>
<path d="M68.3954,482.946h -6.66709" fill="none" stroke="black"/>
<path d="M68.3954,477.704h -6.66709" fill="none" stroke="black"/>
<path d="M68.3954,472.462h -6.66709" fill="none" stroke="black"/>
<path d="M75.0625,467.219h -13.3342" fill="none" stroke="black"/>
<path d="M68.3954,461.977h -6.66709" fill="none" stroke="black"/>
<path d="M68.3954,456.735h -6.66709" fill="none" stroke="black"/>
<path d="M68.3954,451.492h -6.66709" fill="none" stroke="black"/>
<path d="M75.0625,446.25h -13.3342" fill="none" stroke="black"/>
<path d="M68.3954,441.008h -6.66709" fill="none" stroke="black"/>
<path d="M68.3954,435.766h -6.66709" fill="none" stroke="black"/>
<path d="M68.3954,430.523h -6.66709" fill="none" stroke="black"/>
<path d="M75.0625,425.281h -13.3342" fill="none" stroke="black"/>
<path d="M68.3954,420.039h -6.66709" fill="none" stroke="black"/>
<path d="M68.3954,414.796h -6.66709" fill="none" stroke="black"/>
<path d="M68.3954,409.554h -6.66709" fill="none" stroke="black"/>
<path d="M75.0625,404.312h -13.3342" fill="none" stroke="black"/>
<path d="M68.3954,399.07h -6.66709" fill="none" stroke="black"/>
<path d="M68.3954,393.827h -6.66709" fill="none" stroke="black"/>
<path d="M68.3954,388.585h -6.66709" fill="none" stroke="black"/>
<path d="M75.0625,383.343h -13.3342" fill="none" stroke="black"/>
<path d="M68.3954,378.1h -6.66709" fill="none" stroke="black"/>
<path d="M68.3954,372.858h -6.66709" fill="none" stroke="black"/>
<path d="M68.3954,367.616h -6.66709" fill="none" stroke="black"/>
<path d="M75.0625,362.374h -13.3342" fill="none" stroke="black"/>
<path d="M68.3954,357.131h -6.66709" fill="none" stroke="black"/>
<path d="M68.3954,351.889h -6.66709" fill="none" stroke="black"/>
<path d="M68.3954,346.647h -6.66709" fill="none" stroke="black"/>
<path d="M75.0625,341.404h -13.3342" fill="none" stroke="black"/>
<path d="M68.3954,336.162h -6.66709" fill="none" stroke="black"/>
<path d="M68.3954,330.92h -6.66709" fill="none" stroke="black"/>
<path d="M68.3954,325.677h -6.66709" fill="none" stroke="black"/>
<path d="M75.0625,320.435h -13.3342" fill="none" stroke="black"/>
<path d="M68.3954,315.193h -6.66709" fill="none" stroke="black"/>
<path d="M68.3954,309.951h -6.66709" fill="none" stroke="black"/>
<path d="M68.3954,304.708h -6.66709" fill="none" stroke="black"/>
<path d="M75.0625,299.466h -13.3342" fill="none" stroke="black"/>
<path d="M68.3954,294.224h -6.66709" fill="none" stroke="black"/>
<path d="M68.3954,288.981h -6.66709" fill="none" stroke="black"/>
<path d="M68.3954,283.739h -6.66709" fill="none" stroke="black"/>
<path d="M75.0625,278.497h -13.3342" fill="none" stroke="black"/>
<text xml:space="preserve" x="53.5904" y="491.086" fill="black" font-size="8.91652" font-family="Helvetica">0</text>
<text xml:space="preserve" x="46.006" y="470.229" fill="black" font-size="8.91652" font-family="Helvetica">0.2</text>
<text xml:space="preserve" x="46.006" y="449.372" fill="black" font-size="8.91652" font-family="Helvetica">0.4</text>
<text xml:space="preserve" x="46.006" y="428.515" fill="black" font-size="8.91652" font-family="Helvetica">0.6</text>
<text xml:space="preserve" x="46.006" y="407.658" fill="black" font-size="8.91652" font-family="Helvetica">0.8</text>
<text xml:space="preserve" x="54.5384" y="386.801" fill="black" font-size="8.91652" font-family="Helvetica">1</text>
<text xml:space="preserve" x="46.006" y="365.944" fill="black" font-size="8.91652" font-family="Helvetica">1.2</text>
<text xml:space="preserve" x="46.006" y="345.087" fill="black" font-size="8.91652" font-family="Helvetica">1.4</text>
<text xml:space="preserve" x="46.006" y="323.282" fill="black" font-size="8.91652" font-family="Helvetica">1.6</text>
<text xml:space="preserve" x="46.006" y="302.425" fill="black" font-size="8.91652" font-family="Helvetica">1.8</text>
<text xml:space="preserve" x="53.5904" y="281.568" fill="black" font-size="8.91652" font-family="Helvetica">2</text>
<g transform="rotate(-90,19.4608,442.736)">
<text xml:space="preserve" x="19.4608" y="442.736" fill="black" font-size="14.9283" font-family="Helvetica">High Region / Low Region</text>
</g>
<rect x="339.899" y="420.931" width="194.349" height="52.1423" fill="none" stroke="black"/>
<path d="M339.899,473.073h 194.349" fill="none" stroke="black"/>
<path d="M534.248,473.073v -52.1423" fill="none" stroke="black"/>
<path d="M534.248,420.931h -194.349" fill="none" stroke="black"/>
<path d="M339.899,420.931v 52.1423" fill="none" stroke="black"/>
<text xml:space="preserve" x="344.639" y="438.943" fill="black" font-size="14.9283" font-family="Helvetica">Fitting function</text>
<text xml:space="preserve" x="388.249" y="465.489" fill="black" font-size="14.9283" font-family="Helvetica">c0+c1*x</text>
<path d="M347.187,460.037h 34.011" fill="none" stroke="#339966" stroke-width="2"/></svg>
