<?xml version="1.0" standalone="no"?>
<svg width="567.429" height="546.572" viewBox="0 0 567.429 546.572" xmlns="http://www.w3.org/2000/svg" shape-rendering="crispEdges">
<title>
/home/kuanyu/Documents/CMS/Background_Estimate/fake_rate/top/fake_rate_JetPt.svg
</title>
<desc>
Creator: ROOT Version 6.26/04
CreationDate: Thu Dec  1 20:37:21 2022</desc>
<defs>
</defs>
<rect x="0.5" y="0" width="566.929" height="546.072" fill="white"/>
<rect x="68.5315" y="43.6858" width="476.22" height="436.858" fill="none" stroke="black"/>
<rect x="68.5315" y="43.6858" width="476.22" height="436.858" fill="none" stroke="black"/>
<rect x="68.5315" y="43.6858" width="476.22" height="436.858" fill="none" stroke="black"/>
<rect x="68.5315" y="43.6858" width="476.22" height="436.858" fill="none" stroke="black"/>
<path d="M82.8181,101.191v -2.816" fill="none" stroke="#006600" stroke-width="2"/>
<path d="M82.8181,98.3752v -2.72174" fill="none" stroke="#006600" stroke-width="2"/>
<path d="M78.0559,98.3752h 4.7622" fill="none" stroke="#006600" stroke-width="2"/>
<path d="M82.8181,98.3752h 4.7622" fill="none" stroke="#006600" stroke-width="2"/>
<g stroke="black" stroke-width="1" fill="none">
<line x1="81.8181" y1="98.3752" x2="82.8181" y2="98.3752"/>
</g>
<path d="M92.3425,117.054v -3.22502" fill="none" stroke="#006600" stroke-width="2"/>
<path d="M92.3425,113.829v -3.10198" fill="none" stroke="#006600" stroke-width="2"/>
<path d="M87.5803,113.829h 4.7622" fill="none" stroke="#006600" stroke-width="2"/>
<path d="M92.3425,113.829h 4.7622" fill="none" stroke="#006600" stroke-width="2"/>
<g stroke="black" stroke-width="1" fill="none">
<line x1="91.3425" y1="113.829" x2="92.3425" y2="113.829"/>
</g>
<path d="M101.867,128.384v -4.37553" fill="none" stroke="#006600" stroke-width="2"/>
<path d="M101.867,124.008v -4.15206" fill="none" stroke="#006600" stroke-width="2"/>
<path d="M97.1047,124.008h 4.7622" fill="none" stroke="#006600" stroke-width="2"/>
<path d="M101.867,124.008h 4.7622" fill="none" stroke="#006600" stroke-width="2"/>
<g stroke="black" stroke-width="1" fill="none">
<line x1="100.867" y1="124.008" x2="101.867" y2="124.008"/>
</g>
<path d="M111.391,122.45v -4.80968" fill="none" stroke="#006600" stroke-width="2"/>
<path d="M111.391,117.64v -4.54102" fill="none" stroke="#006600" stroke-width="2"/>
<path d="M106.629,117.64h 4.7622" fill="none" stroke="#006600" stroke-width="2"/>
<path d="M111.391,117.64h 4.7622" fill="none" stroke="#006600" stroke-width="2"/>
<g stroke="black" stroke-width="1" fill="none">
<line x1="110.391" y1="117.64" x2="111.391" y2="117.64"/>
</g>
<path d="M125.678,137.951v -5.60783" fill="none" stroke="#006600" stroke-width="2"/>
<path d="M125.678,132.343v -5.24592" fill="none" stroke="#006600" stroke-width="2"/>
<path d="M116.154,132.343h 9.52441" fill="none" stroke="#006600" stroke-width="2"/>
<path d="M125.678,132.343h 9.52441" fill="none" stroke="#006600" stroke-width="2"/>
<g stroke="black" stroke-width="1" fill="none">
<line x1="124.678" y1="132.343" x2="125.678" y2="132.343"/>
</g>
<path d="M144.727,143.176v -10.3703" fill="none" stroke="#006600" stroke-width="2"/>
<path d="M144.727,132.805v -9.19609" fill="none" stroke="#006600" stroke-width="2"/>
<path d="M135.202,132.805h 9.52441" fill="none" stroke="#006600" stroke-width="2"/>
<path d="M144.727,132.805h 9.52441" fill="none" stroke="#006600" stroke-width="2"/>
<g stroke="black" stroke-width="1" fill="none">
<line x1="143.727" y1="132.805" x2="144.727" y2="132.805"/>
</g>
<path d="M166.95,207.476v -17.8067" fill="none" stroke="#006600" stroke-width="2"/>
<path d="M166.95,189.669v -14.5993" fill="none" stroke="#006600" stroke-width="2"/>
<path d="M154.251,189.669h 12.6992" fill="none" stroke="#006600" stroke-width="2"/>
<path d="M166.95,189.669h 12.6992" fill="none" stroke="#006600" stroke-width="2"/>
<g stroke="black" stroke-width="1" fill="none">
<line x1="165.95" y1="189.669" x2="166.95" y2="189.669"/>
</g>
<path d="M195.524,424.179v -102.986" fill="none" stroke="#006600" stroke-width="2"/>
<path d="M195.524,321.193v -44.0138" fill="none" stroke="#006600" stroke-width="2"/>
<path d="M179.65,321.193h 15.874" fill="none" stroke="#006600" stroke-width="2"/>
<path d="M195.524,321.193h 15.874" fill="none" stroke="#006600" stroke-width="2"/>
<g stroke="black" stroke-width="1" fill="none">
<line x1="194.524" y1="321.193" x2="195.524" y2="321.193"/>
</g>
<path d="M378.075,480.544v -173.884" fill="none" stroke="#006600" stroke-width="2"/>
<path d="M378.075,306.66v -56.2044" fill="none" stroke="#006600" stroke-width="2"/>
<path d="M211.398,306.66h 166.677" fill="none" stroke="#006600" stroke-width="2"/>
<path d="M378.075,306.66h 166.677" fill="none" stroke="#006600" stroke-width="2"/>
<g stroke="black" stroke-width="1" fill="none">
<line x1="377.075" y1="306.66" x2="378.075" y2="306.66"/>
</g>
<path d="M68.5315,480.544h 476.22" fill="none" stroke="black"/>
<path d="M68.5315,466.783v 13.761" fill="none" stroke="black"/>
<path d="M84.4055,473.663v 6.88051" fill="none" stroke="black"/>
<path d="M100.28,473.663v 6.88051" fill="none" stroke="black"/>
<path d="M116.154,473.663v 6.88051" fill="none" stroke="black"/>
<path d="M132.028,466.783v 13.761" fill="none" stroke="black"/>
<path d="M147.902,473.663v 6.88051" fill="none" stroke="black"/>
<path d="M163.776,473.663v 6.88051" fill="none" stroke="black"/>
<path d="M179.65,473.663v 6.88051" fill="none" stroke="black"/>
<path d="M195.524,466.783v 13.761" fill="none" stroke="black"/>
<path d="M211.398,473.663v 6.88051" fill="none" stroke="black"/>
<path d="M227.272,473.663v 6.88051" fill="none" stroke="black"/>
<path d="M243.146,473.663v 6.88051" fill="none" stroke="black"/>
<path d="M259.02,466.783v 13.761" fill="none" stroke="black"/>
<path d="M274.894,473.663v 6.88051" fill="none" stroke="black"/>
<path d="M290.768,473.663v 6.88051" fill="none" stroke="black"/>
<path d="M306.642,473.663v 6.88051" fill="none" stroke="black"/>
<path d="M322.516,466.783v 13.761" fill="none" stroke="black"/>
<path d="M338.39,473.663v 6.88051" fill="none" stroke="black"/>
<path d="M354.264,473.663v 6.88051" fill="none" stroke="black"/>
<path d="M370.138,473.663v 6.88051" fill="none" stroke="black"/>
<path d="M386.012,466.783v 13.761" fill="none" stroke="black"/>
<path d="M401.886,473.663v 6.88051" fill="none" stroke="black"/>
<path d="M417.76,473.663v 6.88051" fill="none" stroke="black"/>
<path d="M433.634,473.663v 6.88051" fill="none" stroke="black"/>
<path d="M449.508,466.783v 13.761" fill="none" stroke="black"/>
<path d="M465.382,473.663v 6.88051" fill="none" stroke="black"/>
<path d="M481.256,473.663v 6.88051" fill="none" stroke="black"/>
<path d="M497.13,473.663v 6.88051" fill="none" stroke="black"/>
<path d="M513.004,466.783v 13.761" fill="none" stroke="black"/>
<path d="M513.004,466.783v 13.761" fill="none" stroke="black"/>
<path d="M528.878,473.663v 6.88051" fill="none" stroke="black"/>
<path d="M544.752,473.663v 6.88051" fill="none" stroke="black"/>
<text xml:space="preserve" x="63.0708" y="497.722" fill="black" font-size="18.0344" font-family="Helvetica">0</text>
<text xml:space="preserve" x="116.161" y="497.722" fill="black" font-size="18.0344" font-family="Helvetica">200</text>
<text xml:space="preserve" x="179.68" y="497.722" fill="black" font-size="18.0344" font-family="Helvetica">400</text>
<text xml:space="preserve" x="243.199" y="497.722" fill="black" font-size="18.0344" font-family="Helvetica">600</text>
<text xml:space="preserve" x="306.718" y="497.722" fill="black" font-size="18.0344" font-family="Helvetica">800</text>
<text xml:space="preserve" x="365.496" y="497.722" fill="black" font-size="18.0344" font-family="Helvetica">1000</text>
<text xml:space="preserve" x="429.015" y="497.722" fill="black" font-size="18.0344" font-family="Helvetica">1200</text>
<text xml:space="preserve" x="492.534" y="497.722" fill="black" font-size="18.0344" font-family="Helvetica">1400</text>
<text xml:space="preserve" x="492.534" y="517.631" fill="black" font-size="18.0344" font-family="Helvetica">Jet PT</text>
<path d="M68.5315,480.544v -436.858" fill="none" stroke="black"/>
<path d="M82.1378,472.088h -13.6063" fill="none" stroke="black"/>
<text xml:space="preserve" x="57.3825" y="471.177" fill="black" font-size="12.1896" font-family="Helvetica">3</text>
<text xml:space="preserve" x="50.7462" y="471.177" fill="black" font-size="12.1896" font-family="Times">&#8722;</text>
<text xml:space="preserve" x="30.8373" y="479.709" fill="black" font-size="18.0344" font-family="Helvetica">10</text>
<path d="M75.3346,415.724h -6.80315" fill="none" stroke="black"/>
<path d="M75.3346,382.753h -6.80315" fill="none" stroke="black"/>
<path d="M75.3346,359.36h -6.80315" fill="none" stroke="black"/>
<path d="M75.3346,341.215h -6.80315" fill="none" stroke="black"/>
<path d="M75.3346,326.389h -6.80315" fill="none" stroke="black"/>
<path d="M75.3346,313.854h -6.80315" fill="none" stroke="black"/>
<path d="M75.3346,302.996h -6.80315" fill="none" stroke="black"/>
<path d="M75.3346,293.418h -6.80315" fill="none" stroke="black"/>
<path d="M82.1378,284.85h -13.6063" fill="none" stroke="black"/>
<text xml:space="preserve" x="57.3825" y="285.361" fill="black" font-size="12.1896" font-family="Helvetica">2</text>
<text xml:space="preserve" x="50.7462" y="285.361" fill="black" font-size="12.1896" font-family="Times">&#8722;</text>
<text xml:space="preserve" x="30.8373" y="292.945" fill="black" font-size="18.0344" font-family="Helvetica">10</text>
<path d="M75.3346,228.486h -6.80315" fill="none" stroke="black"/>
<path d="M75.3346,195.515h -6.80315" fill="none" stroke="black"/>
<path d="M75.3346,172.122h -6.80315" fill="none" stroke="black"/>
<path d="M75.3346,153.977h -6.80315" fill="none" stroke="black"/>
<path d="M75.3346,139.151h -6.80315" fill="none" stroke="black"/>
<path d="M75.3346,126.616h -6.80315" fill="none" stroke="black"/>
<path d="M75.3346,115.758h -6.80315" fill="none" stroke="black"/>
<path d="M75.3346,106.18h -6.80315" fill="none" stroke="black"/>
<path d="M82.1378,97.6124h -13.6063" fill="none" stroke="black"/>
<text xml:space="preserve" x="59.2786" y="97.6483" fill="black" font-size="12.1896" font-family="Helvetica">1</text>
<text xml:space="preserve" x="52.6423" y="97.6483" fill="black" font-size="12.1896" font-family="Times">&#8722;</text>
<text xml:space="preserve" x="32.7334" y="105.233" fill="black" font-size="18.0344" font-family="Helvetica">10</text>
<g transform="rotate(-90,22.305,113.765)">
<text xml:space="preserve" x="22.305" y="113.765" fill="black" font-size="18.0344" font-family="Helvetica">fake rate</text>
</g></svg>
