<?xml version="1.0" standalone="no"?>
<svg width="567.429" height="387.116" viewBox="0 0 567.429 387.116" xmlns="http://www.w3.org/2000/svg" shape-rendering="crispEdges">
<title>
/home/kuanyu/Documents/CMS/Background_Estimate/cut_opt/csv/Mx2_50_csv.svg
</title>
<desc>
Creator: ROOT Version 6.26/04
CreationDate: Fri Nov  4 13:51:12 2022</desc>
<defs>
</defs>
<rect x="0.5" y="0" width="566.929" height="386.616" fill="white"/>
<rect x="57.1929" y="38.6616" width="453.543" height="309.293" fill="white"/>
<rect x="57.1929" y="38.6616" width="453.543" height="309.293" fill="none" stroke="black"/>
<rect x="57.1929" y="38.6616" width="453.543" height="309.293" fill="white"/>
<rect x="57.1929" y="38.6616" width="453.543" height="309.293" fill="none" stroke="black"/>
<path d="M95.2906,123.685v -12.139" fill="none" stroke="#666666" stroke-width="2"/>
<path d="M95.2906,111.546v -12.139" fill="none" stroke="#666666" stroke-width="2"/>
<g stroke="black" stroke-width="1" fill="none">
<line x1="94.2906" y1="111.546" x2="95.2906" y2="111.546"/>
</g>
<path d="M458.125,301.847v -6.12217" fill="none" stroke="#666666" stroke-width="2"/>
<path d="M458.125,295.725v -6.12217" fill="none" stroke="#666666" stroke-width="2"/>
<g stroke="black" stroke-width="1" fill="none">
<line x1="457.125" y1="295.725" x2="458.125" y2="295.725"/>
</g>
<path d="M461.754,231.384v -9.33019" fill="none" stroke="#666666" stroke-width="2"/>
<path d="M461.754,222.054v -9.33019" fill="none" stroke="#666666" stroke-width="2"/>
<g stroke="black" stroke-width="1" fill="none">
<line x1="460.754" y1="222.054" x2="461.754" y2="222.054"/>
</g>
<path d="M465.382,275.564v -6.77823" fill="none" stroke="#666666" stroke-width="2"/>
<path d="M465.382,268.785v -6.77823" fill="none" stroke="#666666" stroke-width="2"/>
<g stroke="black" stroke-width="1" fill="none">
<line x1="464.382" y1="268.785" x2="465.382" y2="268.785"/>
</g>
<path d="M469.01,303.772v -5.57295" fill="none" stroke="#666666" stroke-width="2"/>
<path d="M469.01,298.199v -5.57295" fill="none" stroke="#666666" stroke-width="2"/>
<g stroke="black" stroke-width="1" fill="none">
<line x1="468.01" y1="298.199" x2="469.01" y2="298.199"/>
</g>
<path d="M472.639,122.865v -11.8683" fill="none" stroke="#666666" stroke-width="2"/>
<path d="M472.639,110.997v -11.8683" fill="none" stroke="#666666" stroke-width="2"/>
<g stroke="black" stroke-width="1" fill="none">
<line x1="471.639" y1="110.997" x2="472.639" y2="110.997"/>
</g>
<path d="M476.267,192.31v -9.56613" fill="none" stroke="#666666" stroke-width="2"/>
<path d="M476.267,182.744v -9.56613" fill="none" stroke="#666666" stroke-width="2"/>
<g stroke="black" stroke-width="1" fill="none">
<line x1="475.267" y1="182.744" x2="476.267" y2="182.744"/>
</g>
<path d="M479.895,242.656v -7.95768" fill="none" stroke="#666666" stroke-width="2"/>
<path d="M479.895,234.699v -7.95768" fill="none" stroke="#666666" stroke-width="2"/>
<g stroke="black" stroke-width="1" fill="none">
<line x1="478.895" y1="234.699" x2="479.895" y2="234.699"/>
</g>
<path d="M483.524,303.579v -5.37977" fill="none" stroke="#666666" stroke-width="2"/>
<path d="M483.524,298.199v -5.37977" fill="none" stroke="#666666" stroke-width="2"/>
<g stroke="black" stroke-width="1" fill="none">
<line x1="482.524" y1="298.199" x2="483.524" y2="298.199"/>
</g>
<path d="M487.152,277.729v -6.7447" fill="none" stroke="#666666" stroke-width="2"/>
<path d="M487.152,270.985v -6.7447" fill="none" stroke="#666666" stroke-width="2"/>
<g stroke="black" stroke-width="1" fill="none">
<line x1="486.152" y1="270.985" x2="487.152" y2="270.985"/>
</g>
<path d="M490.78,79.538v -13.0741" fill="none" stroke="#666666" stroke-width="2"/>
<path d="M490.78,66.464v -13.0741" fill="none" stroke="#666666" stroke-width="2"/>
<g stroke="black" stroke-width="1" fill="none">
<line x1="489.78" y1="66.464" x2="490.78" y2="66.464"/>
</g>
<path d="M57.1929,347.955h 36.2835v -236.408h 3.62835v 236.408h 359.206v -52.2297h 3.62835v -73.6714h 3.62835v 46.7319h 3.62835v 29.4136h 3.62835v -187.202h 3.62835v 71.7472h 3.62835v 51.9548h 3.62835v 63.5004h 3.62835v -27.2144h 3.62835v -204.521h
 3.62835v 281.491h 18.1417" fill="none" stroke="#666666" stroke-width="2"/>
<path d="M57.1929,347.955h 453.543" fill="none" stroke="black"/>
<path d="M93.4764,338.676v 9.27879" fill="none" stroke="black"/>
<path d="M111.618,343.315v 4.6394" fill="none" stroke="black"/>
<path d="M129.76,343.315v 4.6394" fill="none" stroke="black"/>
<path d="M147.902,343.315v 4.6394" fill="none" stroke="black"/>
<path d="M166.043,338.676v 9.27879" fill="none" stroke="black"/>
<path d="M184.185,343.315v 4.6394" fill="none" stroke="black"/>
<path d="M202.327,343.315v 4.6394" fill="none" stroke="black"/>
<path d="M220.469,343.315v 4.6394" fill="none" stroke="black"/>
<path d="M238.61,338.676v 9.27879" fill="none" stroke="black"/>
<path d="M256.752,343.315v 4.6394" fill="none" stroke="black"/>
<path d="M274.894,343.315v 4.6394" fill="none" stroke="black"/>
<path d="M293.035,343.315v 4.6394" fill="none" stroke="black"/>
<path d="M311.177,338.676v 9.27879" fill="none" stroke="black"/>
<path d="M329.319,343.315v 4.6394" fill="none" stroke="black"/>
<path d="M347.461,343.315v 4.6394" fill="none" stroke="black"/>
<path d="M365.602,343.315v 4.6394" fill="none" stroke="black"/>
<path d="M383.744,338.676v 9.27879" fill="none" stroke="black"/>
<path d="M401.886,343.315v 4.6394" fill="none" stroke="black"/>
<path d="M420.028,343.315v 4.6394" fill="none" stroke="black"/>
<path d="M438.169,343.315v 4.6394" fill="none" stroke="black"/>
<path d="M456.311,338.676v 9.27879" fill="none" stroke="black"/>
<path d="M93.4764,338.676v 9.27879" fill="none" stroke="black"/>
<path d="M75.3346,343.315v 4.6394" fill="none" stroke="black"/>
<path d="M57.1929,343.315v 4.6394" fill="none" stroke="black"/>
<path d="M456.311,338.676v 9.27879" fill="none" stroke="black"/>
<path d="M474.453,343.315v 4.6394" fill="none" stroke="black"/>
<path d="M492.594,343.315v 4.6394" fill="none" stroke="black"/>
<path d="M510.736,343.315v 4.6394" fill="none" stroke="black"/>
<text xml:space="preserve" x="89.0319" y="360.625" fill="black" font-size="12.9143" font-family="Helvetica">10</text>
<text xml:space="preserve" x="81.7219" y="360.625" fill="black" font-size="12.9143" font-family="Times">&#8722;</text>
<text xml:space="preserve" x="164.568" y="360.625" fill="black" font-size="12.9143" font-family="Helvetica">8</text>
<text xml:space="preserve" x="158.071" y="360.625" fill="black" font-size="12.9143" font-family="Times">&#8722;</text>
<text xml:space="preserve" x="237.668" y="360.625" fill="black" font-size="12.9143" font-family="Helvetica">6</text>
<text xml:space="preserve" x="231.17" y="360.625" fill="black" font-size="12.9143" font-family="Times">&#8722;</text>
<text xml:space="preserve" x="309.956" y="360.625" fill="black" font-size="12.9143" font-family="Helvetica">4</text>
<text xml:space="preserve" x="303.458" y="360.625" fill="black" font-size="12.9143" font-family="Times">&#8722;</text>
<text xml:space="preserve" x="382.243" y="360.625" fill="black" font-size="12.9143" font-family="Helvetica">2</text>
<text xml:space="preserve" x="375.745" y="360.625" fill="black" font-size="12.9143" font-family="Times">&#8722;</text>
<text xml:space="preserve" x="452.094" y="360.625" fill="black" font-size="12.9143" font-family="Helvetica">0</text>
<text xml:space="preserve" x="476.461" y="373.621" fill="black" font-size="12.9143" font-family="Helvetica">jetcsv</text>
<path d="M57.1929,347.955v -309.293" fill="none" stroke="black"/>
<path d="M70.7992,347.955h -13.6063" fill="none" stroke="black"/>
<path d="M63.9961,334.21h -6.80315" fill="none" stroke="black"/>
<path d="M63.9961,320.465h -6.80315" fill="none" stroke="black"/>
<path d="M63.9961,306.721h -6.80315" fill="none" stroke="black"/>
<path d="M70.7992,292.976h -13.6063" fill="none" stroke="black"/>
<path d="M63.9961,279.231h -6.80315" fill="none" stroke="black"/>
<path d="M63.9961,265.487h -6.80315" fill="none" stroke="black"/>
<path d="M63.9961,251.742h -6.80315" fill="none" stroke="black"/>
<path d="M70.7992,237.997h -13.6063" fill="none" stroke="black"/>
<path d="M63.9961,224.253h -6.80315" fill="none" stroke="black"/>
<path d="M63.9961,210.508h -6.80315" fill="none" stroke="black"/>
<path d="M63.9961,196.763h -6.80315" fill="none" stroke="black"/>
<path d="M70.7992,183.019h -13.6063" fill="none" stroke="black"/>
<path d="M63.9961,169.274h -6.80315" fill="none" stroke="black"/>
<path d="M63.9961,155.529h -6.80315" fill="none" stroke="black"/>
<path d="M63.9961,141.785h -6.80315" fill="none" stroke="black"/>
<path d="M70.7992,128.04h -13.6063" fill="none" stroke="black"/>
<path d="M63.9961,114.295h -6.80315" fill="none" stroke="black"/>
<path d="M63.9961,100.551h -6.80315" fill="none" stroke="black"/>
<path d="M63.9961,86.8061h -6.80315" fill="none" stroke="black"/>
<path d="M70.7992,73.0614h -13.6063" fill="none" stroke="black"/>
<path d="M70.7992,73.0614h -13.6063" fill="none" stroke="black"/>
<path d="M63.9961,59.3167h -6.80315" fill="none" stroke="black"/>
<path d="M63.9961,45.5721h -6.80315" fill="none" stroke="black"/>
<text xml:space="preserve" x="46.7965" y="352.503" fill="black" font-size="12.9143" font-family="Helvetica">0</text>
<text xml:space="preserve" x="32.9888" y="297.272" fill="black" font-size="12.9143" font-family="Helvetica">200</text>
<text xml:space="preserve" x="32.9888" y="242.854" fill="black" font-size="12.9143" font-family="Helvetica">400</text>
<text xml:space="preserve" x="32.9888" y="187.623" fill="black" font-size="12.9143" font-family="Helvetica">600</text>
<text xml:space="preserve" x="32.9888" y="132.392" fill="black" font-size="12.9143" font-family="Helvetica">800</text>
<text xml:space="preserve" x="25.6788" y="77.1608" fill="black" font-size="12.9143" font-family="Helvetica">1000</text>
<g transform="rotate(-90,13.4955,62.5409)">
<text xml:space="preserve" x="13.4955" y="62.5409" fill="black" font-size="12.9143" font-family="Helvetica">nJet</text>
</g>
<text xml:space="preserve" x="297.772" y="158.383" fill="black" font-size="11.1408" font-family="Helvetica">x2 = 50 GeV, ctau = 10 mm</text>
<path d="M237.902,154.647h 49.6063" fill="none" stroke="#666666" stroke-width="2"/></svg>
