<?xml version="1.0" standalone="no"?>
<svg width="567.429" height="387.116" viewBox="0 0 567.429 387.116" xmlns="http://www.w3.org/2000/svg" shape-rendering="crispEdges">
<title>
/home/kuanyu/Documents/CMS/Background_Estimate/cut_opt/csv/Mx2_1_csv_zoom.svg
</title>
<desc>
Creator: ROOT Version 6.26/04
CreationDate: Fri Nov  4 13:51:56 2022</desc>
<defs>
</defs>
<rect x="0.5" y="0" width="566.929" height="386.616" fill="white"/>
<rect x="57.1929" y="38.6616" width="453.543" height="309.293" fill="white"/>
<rect x="57.1929" y="38.6616" width="453.543" height="309.293" fill="none" stroke="black"/>
<rect x="57.1929" y="38.6616" width="453.543" height="309.293" fill="white"/>
<rect x="57.1929" y="38.6616" width="453.543" height="309.293" fill="none" stroke="black"/>
<path d="M298.595,301.847v -6.12217" fill="none" stroke="#666666" stroke-width="2"/>
<path d="M298.595,295.725v -6.12217" fill="none" stroke="#666666" stroke-width="2"/>
<g stroke="black" stroke-width="1" fill="none">
<line x1="297.595" y1="295.725" x2="298.595" y2="295.725"/>
</g>
<path d="M313.225,231.384v -9.33019" fill="none" stroke="#666666" stroke-width="2"/>
<path d="M313.225,222.054v -9.33019" fill="none" stroke="#666666" stroke-width="2"/>
<g stroke="black" stroke-width="1" fill="none">
<line x1="312.225" y1="222.054" x2="313.225" y2="222.054"/>
</g>
<path d="M327.856,275.564v -6.77823" fill="none" stroke="#666666" stroke-width="2"/>
<path d="M327.856,268.785v -6.77823" fill="none" stroke="#666666" stroke-width="2"/>
<g stroke="black" stroke-width="1" fill="none">
<line x1="326.856" y1="268.785" x2="327.856" y2="268.785"/>
</g>
<path d="M342.486,303.772v -5.57295" fill="none" stroke="#666666" stroke-width="2"/>
<path d="M342.486,298.199v -5.57295" fill="none" stroke="#666666" stroke-width="2"/>
<g stroke="black" stroke-width="1" fill="none">
<line x1="341.486" y1="298.199" x2="342.486" y2="298.199"/>
</g>
<path d="M357.117,122.865v -11.8683" fill="none" stroke="#666666" stroke-width="2"/>
<path d="M357.117,110.997v -11.8683" fill="none" stroke="#666666" stroke-width="2"/>
<g stroke="black" stroke-width="1" fill="none">
<line x1="356.117" y1="110.997" x2="357.117" y2="110.997"/>
</g>
<path d="M371.747,192.31v -9.56613" fill="none" stroke="#666666" stroke-width="2"/>
<path d="M371.747,182.744v -9.56613" fill="none" stroke="#666666" stroke-width="2"/>
<g stroke="black" stroke-width="1" fill="none">
<line x1="370.747" y1="182.744" x2="371.747" y2="182.744"/>
</g>
<path d="M386.378,242.656v -7.95768" fill="none" stroke="#666666" stroke-width="2"/>
<path d="M386.378,234.699v -7.95768" fill="none" stroke="#666666" stroke-width="2"/>
<g stroke="black" stroke-width="1" fill="none">
<line x1="385.378" y1="234.699" x2="386.378" y2="234.699"/>
</g>
<path d="M401.008,303.579v -5.37977" fill="none" stroke="#666666" stroke-width="2"/>
<path d="M401.008,298.199v -5.37977" fill="none" stroke="#666666" stroke-width="2"/>
<g stroke="black" stroke-width="1" fill="none">
<line x1="400.008" y1="298.199" x2="401.008" y2="298.199"/>
</g>
<path d="M415.638,277.729v -6.7447" fill="none" stroke="#666666" stroke-width="2"/>
<path d="M415.638,270.985v -6.7447" fill="none" stroke="#666666" stroke-width="2"/>
<g stroke="black" stroke-width="1" fill="none">
<line x1="414.638" y1="270.985" x2="415.638" y2="270.985"/>
</g>
<path d="M430.269,79.538v -13.0741" fill="none" stroke="#666666" stroke-width="2"/>
<path d="M430.269,66.464v -13.0741" fill="none" stroke="#666666" stroke-width="2"/>
<g stroke="black" stroke-width="1" fill="none">
<line x1="429.269" y1="66.464" x2="430.269" y2="66.464"/>
</g>
<path d="M57.1929,347.955h 234.087v -52.2297h 14.6304v -73.6714h 14.6304v 46.7319h 14.6304v 29.4136h 14.6304v -187.202h 14.6304v 71.7472h 14.6304v 51.9548h 14.6304v 63.5004h 14.6304v -27.2144h 14.6304v -204.521h 14.6304v 281.491h 73.1521" fill="none"
 stroke="#666666" stroke-width="2"/>
<path d="M57.1929,347.955h 453.543" fill="none" stroke="black"/>
<path d="M71.8233,338.676v 9.27879" fill="none" stroke="black"/>
<path d="M86.4538,343.315v 4.6394" fill="none" stroke="black"/>
<path d="M101.084,343.315v 4.6394" fill="none" stroke="black"/>
<path d="M115.715,343.315v 4.6394" fill="none" stroke="black"/>
<path d="M130.345,343.315v 4.6394" fill="none" stroke="black"/>
<path d="M144.975,338.676v 9.27879" fill="none" stroke="black"/>
<path d="M159.606,343.315v 4.6394" fill="none" stroke="black"/>
<path d="M174.236,343.315v 4.6394" fill="none" stroke="black"/>
<path d="M188.867,343.315v 4.6394" fill="none" stroke="black"/>
<path d="M203.497,343.315v 4.6394" fill="none" stroke="black"/>
<path d="M218.128,338.676v 9.27879" fill="none" stroke="black"/>
<path d="M232.758,343.315v 4.6394" fill="none" stroke="black"/>
<path d="M247.388,343.315v 4.6394" fill="none" stroke="black"/>
<path d="M262.019,343.315v 4.6394" fill="none" stroke="black"/>
<path d="M276.649,343.315v 4.6394" fill="none" stroke="black"/>
<path d="M291.28,338.676v 9.27879" fill="none" stroke="black"/>
<path d="M305.91,343.315v 4.6394" fill="none" stroke="black"/>
<path d="M320.541,343.315v 4.6394" fill="none" stroke="black"/>
<path d="M335.171,343.315v 4.6394" fill="none" stroke="black"/>
<path d="M349.801,343.315v 4.6394" fill="none" stroke="black"/>
<path d="M364.432,338.676v 9.27879" fill="none" stroke="black"/>
<path d="M379.062,343.315v 4.6394" fill="none" stroke="black"/>
<path d="M393.693,343.315v 4.6394" fill="none" stroke="black"/>
<path d="M408.323,343.315v 4.6394" fill="none" stroke="black"/>
<path d="M422.954,343.315v 4.6394" fill="none" stroke="black"/>
<path d="M437.584,338.676v 9.27879" fill="none" stroke="black"/>
<path d="M452.215,343.315v 4.6394" fill="none" stroke="black"/>
<path d="M466.845,343.315v 4.6394" fill="none" stroke="black"/>
<path d="M481.475,343.315v 4.6394" fill="none" stroke="black"/>
<path d="M496.106,343.315v 4.6394" fill="none" stroke="black"/>
<path d="M510.736,338.676v 9.27879" fill="none" stroke="black"/>
<path d="M71.8233,338.676v 9.27879" fill="none" stroke="black"/>
<text xml:space="preserve" x="65.4776" y="360.625" fill="black" font-size="12.9143" font-family="Helvetica">1.5</text>
<text xml:space="preserve" x="58.1676" y="360.625" fill="black" font-size="12.9143" font-family="Times">&#8722;</text>
<text xml:space="preserve" x="145.075" y="360.625" fill="black" font-size="12.9143" font-family="Helvetica">1</text>
<text xml:space="preserve" x="137.765" y="360.625" fill="black" font-size="12.9143" font-family="Times">&#8722;</text>
<text xml:space="preserve" x="211.677" y="360.625" fill="black" font-size="12.9143" font-family="Helvetica">0.5</text>
<text xml:space="preserve" x="204.367" y="360.625" fill="black" font-size="12.9143" font-family="Times">&#8722;</text>
<text xml:space="preserve" x="287.213" y="360.625" fill="black" font-size="12.9143" font-family="Helvetica">0</text>
<text xml:space="preserve" x="355.44" y="360.625" fill="black" font-size="12.9143" font-family="Helvetica">0.5</text>
<text xml:space="preserve" x="435.037" y="360.625" fill="black" font-size="12.9143" font-family="Helvetica">1</text>
<text xml:space="preserve" x="501.639" y="360.625" fill="black" font-size="12.9143" font-family="Helvetica">1.5</text>
<text xml:space="preserve" x="476.461" y="373.621" fill="black" font-size="12.9143" font-family="Helvetica">jetcsv</text>
<path d="M57.1929,347.955v -309.293" fill="none" stroke="black"/>
<path d="M70.7992,347.955h -13.6063" fill="none" stroke="black"/>
<path d="M63.9961,334.21h -6.80315" fill="none" stroke="black"/>
<path d="M63.9961,320.465h -6.80315" fill="none" stroke="black"/>
<path d="M63.9961,306.721h -6.80315" fill="none" stroke="black"/>
<path d="M70.7992,292.976h -13.6063" fill="none" stroke="black"/>
<path d="M63.9961,279.231h -6.80315" fill="none" stroke="black"/>
<path d="M63.9961,265.487h -6.80315" fill="none" stroke="black"/>
<path d="M63.9961,251.742h -6.80315" fill="none" stroke="black"/>
<path d="M70.7992,237.997h -13.6063" fill="none" stroke="black"/>
<path d="M63.9961,224.253h -6.80315" fill="none" stroke="black"/>
<path d="M63.9961,210.508h -6.80315" fill="none" stroke="black"/>
<path d="M63.9961,196.763h -6.80315" fill="none" stroke="black"/>
<path d="M70.7992,183.019h -13.6063" fill="none" stroke="black"/>
<path d="M63.9961,169.274h -6.80315" fill="none" stroke="black"/>
<path d="M63.9961,155.529h -6.80315" fill="none" stroke="black"/>
<path d="M63.9961,141.785h -6.80315" fill="none" stroke="black"/>
<path d="M70.7992,128.04h -13.6063" fill="none" stroke="black"/>
<path d="M63.9961,114.295h -6.80315" fill="none" stroke="black"/>
<path d="M63.9961,100.551h -6.80315" fill="none" stroke="black"/>
<path d="M63.9961,86.8061h -6.80315" fill="none" stroke="black"/>
<path d="M70.7992,73.0614h -13.6063" fill="none" stroke="black"/>
<path d="M70.7992,73.0614h -13.6063" fill="none" stroke="black"/>
<path d="M63.9961,59.3167h -6.80315" fill="none" stroke="black"/>
<path d="M63.9961,45.5721h -6.80315" fill="none" stroke="black"/>
<text xml:space="preserve" x="46.7965" y="352.503" fill="black" font-size="12.9143" font-family="Helvetica">0</text>
<text xml:space="preserve" x="32.9888" y="297.272" fill="black" font-size="12.9143" font-family="Helvetica">200</text>
<text xml:space="preserve" x="32.9888" y="242.854" fill="black" font-size="12.9143" font-family="Helvetica">400</text>
<text xml:space="preserve" x="32.9888" y="187.623" fill="black" font-size="12.9143" font-family="Helvetica">600</text>
<text xml:space="preserve" x="32.9888" y="132.392" fill="black" font-size="12.9143" font-family="Helvetica">800</text>
<text xml:space="preserve" x="25.6788" y="77.1608" fill="black" font-size="12.9143" font-family="Helvetica">1000</text>
<g transform="rotate(-90,13.4955,62.5409)">
<text xml:space="preserve" x="13.4955" y="62.5409" fill="black" font-size="12.9143" font-family="Helvetica">nJet</text>
</g>
<text xml:space="preserve" x="169.442" y="97.4663" fill="black" font-size="11.1408" font-family="Helvetica">x2 = 50 GeV, ctau = 10 mm</text>
<path d="M109.408,93.4052h 49.6063" fill="none" stroke="#666666" stroke-width="2"/></svg>
