<?xml version="1.0" standalone="no"?>
<svg width="567.429" height="387.116" viewBox="0 0 567.429 387.116" xmlns="http://www.w3.org/2000/svg" shape-rendering="crispEdges">
<title>
/home/kuanyu/Documents/CMS/Background_Estimate/cut_opt/csv/Mx2_50_csv_zoom.svg
</title>
<desc>
Creator: ROOT Version 6.26/04
CreationDate: Fri Nov  4 14:03:54 2022</desc>
<defs>
</defs>
<rect x="0.5" y="0" width="566.929" height="386.616" fill="white"/>
<rect x="57.1929" y="38.6616" width="453.543" height="309.293" fill="white"/>
<rect x="57.1929" y="38.6616" width="453.543" height="309.293" fill="none" stroke="black"/>
<rect x="57.1929" y="38.6616" width="453.543" height="309.293" fill="white"/>
<rect x="57.1929" y="38.6616" width="453.543" height="309.293" fill="none" stroke="black"/>
<path d="M257.799,301.847v -6.12217" fill="none" stroke="#666666" stroke-width="2"/>
<path d="M257.799,295.725v -6.12217" fill="none" stroke="#666666" stroke-width="2"/>
<g stroke="black" stroke-width="1" fill="none">
<line x1="256.799" y1="295.725" x2="257.799" y2="295.725"/>
</g>
<path d="M275.243,231.384v -9.33019" fill="none" stroke="#666666" stroke-width="2"/>
<path d="M275.243,222.054v -9.33019" fill="none" stroke="#666666" stroke-width="2"/>
<g stroke="black" stroke-width="1" fill="none">
<line x1="274.243" y1="222.054" x2="275.243" y2="222.054"/>
</g>
<path d="M292.687,275.564v -6.77823" fill="none" stroke="#666666" stroke-width="2"/>
<path d="M292.687,268.785v -6.77823" fill="none" stroke="#666666" stroke-width="2"/>
<g stroke="black" stroke-width="1" fill="none">
<line x1="291.687" y1="268.785" x2="292.687" y2="268.785"/>
</g>
<path d="M310.131,303.772v -5.57295" fill="none" stroke="#666666" stroke-width="2"/>
<path d="M310.131,298.199v -5.57295" fill="none" stroke="#666666" stroke-width="2"/>
<g stroke="black" stroke-width="1" fill="none">
<line x1="309.131" y1="298.199" x2="310.131" y2="298.199"/>
</g>
<path d="M327.574,122.865v -11.8683" fill="none" stroke="#666666" stroke-width="2"/>
<path d="M327.574,110.997v -11.8683" fill="none" stroke="#666666" stroke-width="2"/>
<g stroke="black" stroke-width="1" fill="none">
<line x1="326.574" y1="110.997" x2="327.574" y2="110.997"/>
</g>
<path d="M345.018,192.31v -9.56613" fill="none" stroke="#666666" stroke-width="2"/>
<path d="M345.018,182.744v -9.56613" fill="none" stroke="#666666" stroke-width="2"/>
<g stroke="black" stroke-width="1" fill="none">
<line x1="344.018" y1="182.744" x2="345.018" y2="182.744"/>
</g>
<path d="M362.462,242.656v -7.95768" fill="none" stroke="#666666" stroke-width="2"/>
<path d="M362.462,234.699v -7.95768" fill="none" stroke="#666666" stroke-width="2"/>
<g stroke="black" stroke-width="1" fill="none">
<line x1="361.462" y1="234.699" x2="362.462" y2="234.699"/>
</g>
<path d="M379.906,303.579v -5.37977" fill="none" stroke="#666666" stroke-width="2"/>
<path d="M379.906,298.199v -5.37977" fill="none" stroke="#666666" stroke-width="2"/>
<g stroke="black" stroke-width="1" fill="none">
<line x1="378.906" y1="298.199" x2="379.906" y2="298.199"/>
</g>
<path d="M397.35,277.729v -6.7447" fill="none" stroke="#666666" stroke-width="2"/>
<path d="M397.35,270.985v -6.7447" fill="none" stroke="#666666" stroke-width="2"/>
<g stroke="black" stroke-width="1" fill="none">
<line x1="396.35" y1="270.985" x2="397.35" y2="270.985"/>
</g>
<path d="M414.794,79.538v -13.0741" fill="none" stroke="#666666" stroke-width="2"/>
<path d="M414.794,66.464v -13.0741" fill="none" stroke="#666666" stroke-width="2"/>
<g stroke="black" stroke-width="1" fill="none">
<line x1="413.794" y1="66.464" x2="414.794" y2="66.464"/>
</g>
<path d="M57.1929,347.955h 191.884v -52.2297h 17.444v -73.6714h 17.444v 46.7319h 17.444v 29.4136h 17.444v -187.202h 17.444v 71.7472h 17.444v 51.9548h 17.444v 63.5004h 17.444v -27.2144h 17.444v -204.521h 17.444v 281.491h 87.2199" fill="none"
 stroke="#666666" stroke-width="2"/>
<path d="M57.1929,347.955h 453.543" fill="none" stroke="black"/>
<path d="M74.6369,338.676v 9.27879" fill="none" stroke="black"/>
<path d="M92.0809,343.315v 4.6394" fill="none" stroke="black"/>
<path d="M109.525,343.315v 4.6394" fill="none" stroke="black"/>
<path d="M126.969,343.315v 4.6394" fill="none" stroke="black"/>
<path d="M144.413,343.315v 4.6394" fill="none" stroke="black"/>
<path d="M161.857,338.676v 9.27879" fill="none" stroke="black"/>
<path d="M179.301,343.315v 4.6394" fill="none" stroke="black"/>
<path d="M196.745,343.315v 4.6394" fill="none" stroke="black"/>
<path d="M214.189,343.315v 4.6394" fill="none" stroke="black"/>
<path d="M231.633,343.315v 4.6394" fill="none" stroke="black"/>
<path d="M249.077,338.676v 9.27879" fill="none" stroke="black"/>
<path d="M266.521,343.315v 4.6394" fill="none" stroke="black"/>
<path d="M283.965,343.315v 4.6394" fill="none" stroke="black"/>
<path d="M301.409,343.315v 4.6394" fill="none" stroke="black"/>
<path d="M318.853,343.315v 4.6394" fill="none" stroke="black"/>
<path d="M336.296,338.676v 9.27879" fill="none" stroke="black"/>
<path d="M353.74,343.315v 4.6394" fill="none" stroke="black"/>
<path d="M371.184,343.315v 4.6394" fill="none" stroke="black"/>
<path d="M388.628,343.315v 4.6394" fill="none" stroke="black"/>
<path d="M406.072,343.315v 4.6394" fill="none" stroke="black"/>
<path d="M423.516,338.676v 9.27879" fill="none" stroke="black"/>
<path d="M440.96,343.315v 4.6394" fill="none" stroke="black"/>
<path d="M458.404,343.315v 4.6394" fill="none" stroke="black"/>
<path d="M475.848,343.315v 4.6394" fill="none" stroke="black"/>
<path d="M493.292,343.315v 4.6394" fill="none" stroke="black"/>
<path d="M510.736,338.676v 9.27879" fill="none" stroke="black"/>
<path d="M74.6369,338.676v 9.27879" fill="none" stroke="black"/>
<path d="M510.736,338.676v 9.27879" fill="none" stroke="black"/>
<text xml:space="preserve" x="75.2242" y="360.625" fill="black" font-size="12.9143" font-family="Helvetica">1</text>
<text xml:space="preserve" x="67.9142" y="360.625" fill="black" font-size="12.9143" font-family="Times">&#8722;</text>
<text xml:space="preserve" x="155.634" y="360.625" fill="black" font-size="12.9143" font-family="Helvetica">0.5</text>
<text xml:space="preserve" x="148.324" y="360.625" fill="black" font-size="12.9143" font-family="Times">&#8722;</text>
<text xml:space="preserve" x="244.978" y="360.625" fill="black" font-size="12.9143" font-family="Helvetica">0</text>
<text xml:space="preserve" x="327.012" y="360.625" fill="black" font-size="12.9143" font-family="Helvetica">0.5</text>
<text xml:space="preserve" x="420.417" y="360.625" fill="black" font-size="12.9143" font-family="Helvetica">1</text>
<text xml:space="preserve" x="501.639" y="360.625" fill="black" font-size="12.9143" font-family="Helvetica">1.5</text>
<text xml:space="preserve" x="476.461" y="373.621" fill="black" font-size="12.9143" font-family="Helvetica">jetcsv</text>
<path d="M57.1929,347.955v -309.293" fill="none" stroke="black"/>
<path d="M70.7992,347.955h -13.6063" fill="none" stroke="black"/>
<path d="M63.9961,334.21h -6.80315" fill="none" stroke="black"/>
<path d="M63.9961,320.465h -6.80315" fill="none" stroke="black"/>
<path d="M63.9961,306.721h -6.80315" fill="none" stroke="black"/>
<path d="M70.7992,292.976h -13.6063" fill="none" stroke="black"/>
<path d="M63.9961,279.231h -6.80315" fill="none" stroke="black"/>
<path d="M63.9961,265.487h -6.80315" fill="none" stroke="black"/>
<path d="M63.9961,251.742h -6.80315" fill="none" stroke="black"/>
<path d="M70.7992,237.997h -13.6063" fill="none" stroke="black"/>
<path d="M63.9961,224.253h -6.80315" fill="none" stroke="black"/>
<path d="M63.9961,210.508h -6.80315" fill="none" stroke="black"/>
<path d="M63.9961,196.763h -6.80315" fill="none" stroke="black"/>
<path d="M70.7992,183.019h -13.6063" fill="none" stroke="black"/>
<path d="M63.9961,169.274h -6.80315" fill="none" stroke="black"/>
<path d="M63.9961,155.529h -6.80315" fill="none" stroke="black"/>
<path d="M63.9961,141.785h -6.80315" fill="none" stroke="black"/>
<path d="M70.7992,128.04h -13.6063" fill="none" stroke="black"/>
<path d="M63.9961,114.295h -6.80315" fill="none" stroke="black"/>
<path d="M63.9961,100.551h -6.80315" fill="none" stroke="black"/>
<path d="M63.9961,86.8061h -6.80315" fill="none" stroke="black"/>
<path d="M70.7992,73.0614h -13.6063" fill="none" stroke="black"/>
<path d="M70.7992,73.0614h -13.6063" fill="none" stroke="black"/>
<path d="M63.9961,59.3167h -6.80315" fill="none" stroke="black"/>
<path d="M63.9961,45.5721h -6.80315" fill="none" stroke="black"/>
<text xml:space="preserve" x="46.7965" y="352.503" fill="black" font-size="12.9143" font-family="Helvetica">0</text>
<text xml:space="preserve" x="32.9888" y="297.272" fill="black" font-size="12.9143" font-family="Helvetica">200</text>
<text xml:space="preserve" x="32.9888" y="242.854" fill="black" font-size="12.9143" font-family="Helvetica">400</text>
<text xml:space="preserve" x="32.9888" y="187.623" fill="black" font-size="12.9143" font-family="Helvetica">600</text>
<text xml:space="preserve" x="32.9888" y="132.392" fill="black" font-size="12.9143" font-family="Helvetica">800</text>
<text xml:space="preserve" x="25.6788" y="77.1608" fill="black" font-size="12.9143" font-family="Helvetica">1000</text>
<g transform="rotate(-90,13.4955,62.5409)">
<text xml:space="preserve" x="13.4955" y="62.5409" fill="black" font-size="12.9143" font-family="Helvetica">nJet</text>
</g>
<text xml:space="preserve" x="180.813" y="82.8464" fill="black" font-size="11.1408" font-family="Helvetica">x2 = 50 GeV, ctau = 10 mm</text>
<path d="M120.78,78.7853h 49.6063" fill="none" stroke="#666666" stroke-width="2"/></svg>
