<?xml version="1.0" standalone="no"?>
<svg width="567.429" height="387.116" viewBox="0 0 567.429 387.116" xmlns="http://www.w3.org/2000/svg" shape-rendering="crispEdges">
<title>
/home/kuanyu/Documents/CMS/Background_Estimate/cut_opt/csv/Mx2_150_csv.svg
</title>
<desc>
Creator: ROOT Version 6.26/04
CreationDate: Fri Nov  4 14:02:51 2022</desc>
<defs>
</defs>
<rect x="0.5" y="0" width="566.929" height="386.616" fill="white"/>
<rect x="57.1929" y="38.6616" width="453.543" height="309.293" fill="white"/>
<rect x="57.1929" y="38.6616" width="453.543" height="309.293" fill="none" stroke="black"/>
<rect x="57.1929" y="38.6616" width="453.543" height="309.293" fill="white"/>
<rect x="57.1929" y="38.6616" width="453.543" height="309.293" fill="none" stroke="black"/>
<path d="M95.2906,308.928v -2.45215" fill="none" stroke="#0000ff" stroke-width="2"/>
<path d="M95.2906,306.476v -2.45215" fill="none" stroke="#0000ff" stroke-width="2"/>
<g stroke="black" stroke-width="1" fill="none">
<line x1="94.2906" y1="306.476" x2="95.2906" y2="306.476"/>
</g>
<path d="M458.125,285.569v -3.42537" fill="none" stroke="#0000ff" stroke-width="2"/>
<path d="M458.125,282.144v -3.42537" fill="none" stroke="#0000ff" stroke-width="2"/>
<g stroke="black" stroke-width="1" fill="none">
<line x1="457.125" y1="282.144" x2="458.125" y2="282.144"/>
</g>
<path d="M461.754,245.437v -5.22388" fill="none" stroke="#0000ff" stroke-width="2"/>
<path d="M461.754,240.213v -5.22388" fill="none" stroke="#0000ff" stroke-width="2"/>
<g stroke="black" stroke-width="1" fill="none">
<line x1="460.754" y1="240.213" x2="461.754" y2="240.213"/>
</g>
<path d="M465.382,277.963v -3.85102" fill="none" stroke="#0000ff" stroke-width="2"/>
<path d="M465.382,274.112v -3.85102" fill="none" stroke="#0000ff" stroke-width="2"/>
<g stroke="black" stroke-width="1" fill="none">
<line x1="464.382" y1="274.112" x2="465.382" y2="274.112"/>
</g>
<path d="M469.01,297.128v -3.29033" fill="none" stroke="#0000ff" stroke-width="2"/>
<path d="M469.01,293.838v -3.29033" fill="none" stroke="#0000ff" stroke-width="2"/>
<g stroke="black" stroke-width="1" fill="none">
<line x1="468.01" y1="293.838" x2="469.01" y2="293.838"/>
</g>
<path d="M472.639,262.69v -4.40527" fill="none" stroke="#0000ff" stroke-width="2"/>
<path d="M472.639,258.285v -4.40527" fill="none" stroke="#0000ff" stroke-width="2"/>
<g stroke="black" stroke-width="1" fill="none">
<line x1="471.639" y1="258.285" x2="472.639" y2="258.285"/>
</g>
<path d="M476.267,260.425v -4.26692" fill="none" stroke="#0000ff" stroke-width="2"/>
<path d="M476.267,256.159v -4.26692" fill="none" stroke="#0000ff" stroke-width="2"/>
<g stroke="black" stroke-width="1" fill="none">
<line x1="475.267" y1="256.159" x2="476.267" y2="256.159"/>
</g>
<path d="M479.895,286.638v -3.54938" fill="none" stroke="#0000ff" stroke-width="2"/>
<path d="M479.895,283.089v -3.54938" fill="none" stroke="#0000ff" stroke-width="2"/>
<g stroke="black" stroke-width="1" fill="none">
<line x1="478.895" y1="283.089" x2="479.895" y2="283.089"/>
</g>
<path d="M483.524,275.295v -4.01768" fill="none" stroke="#0000ff" stroke-width="2"/>
<path d="M483.524,271.277v -4.01768" fill="none" stroke="#0000ff" stroke-width="2"/>
<g stroke="black" stroke-width="1" fill="none">
<line x1="482.524" y1="271.277" x2="483.524" y2="271.277"/>
</g>
<path d="M487.152,230.574v -5.36226" fill="none" stroke="#0000ff" stroke-width="2"/>
<path d="M487.152,225.212v -5.36226" fill="none" stroke="#0000ff" stroke-width="2"/>
<g stroke="black" stroke-width="1" fill="none">
<line x1="486.152" y1="225.212" x2="487.152" y2="225.212"/>
</g>
<path d="M490.78,70.089v -8.34956" fill="none" stroke="#0000ff" stroke-width="2"/>
<path d="M490.78,61.7395v -8.34956" fill="none" stroke="#0000ff" stroke-width="2"/>
<g stroke="black" stroke-width="1" fill="none">
<line x1="489.78" y1="61.7395" x2="490.78" y2="61.7395"/>
</g>
<path d="M494.409,333.928v -0.167041" fill="none" stroke="#0000ff" stroke-width="2"/>
<path d="M494.409,333.761v -0.167041" fill="none" stroke="#0000ff" stroke-width="2"/>
<g stroke="black" stroke-width="1" fill="none">
<line x1="493.409" y1="333.761" x2="494.409" y2="333.761"/>
</g>
<path d="M57.1929,333.525h 36.2835v -27.0486h 3.62835v 27.0486h 359.206v -51.3805h 3.62835v -41.9312h 3.62835v 33.8993h 3.62835v 19.7254h 3.62835v -35.5529h 3.62835v -2.12609h 3.62835v 26.9305h 3.62835v -11.8116h 3.62835v -46.0653h 3.62835v -163.473h
 3.62835v 272.021h 3.62835v -0.236232h 14.5134" fill="none" stroke="#0000ff" stroke-width="2"/>
<path d="M57.1929,347.955h 453.543" fill="none" stroke="black"/>
<path d="M93.4764,338.676v 9.27879" fill="none" stroke="black"/>
<path d="M111.618,343.315v 4.6394" fill="none" stroke="black"/>
<path d="M129.76,343.315v 4.6394" fill="none" stroke="black"/>
<path d="M147.902,343.315v 4.6394" fill="none" stroke="black"/>
<path d="M166.043,338.676v 9.27879" fill="none" stroke="black"/>
<path d="M184.185,343.315v 4.6394" fill="none" stroke="black"/>
<path d="M202.327,343.315v 4.6394" fill="none" stroke="black"/>
<path d="M220.469,343.315v 4.6394" fill="none" stroke="black"/>
<path d="M238.61,338.676v 9.27879" fill="none" stroke="black"/>
<path d="M256.752,343.315v 4.6394" fill="none" stroke="black"/>
<path d="M274.894,343.315v 4.6394" fill="none" stroke="black"/>
<path d="M293.035,343.315v 4.6394" fill="none" stroke="black"/>
<path d="M311.177,338.676v 9.27879" fill="none" stroke="black"/>
<path d="M329.319,343.315v 4.6394" fill="none" stroke="black"/>
<path d="M347.461,343.315v 4.6394" fill="none" stroke="black"/>
<path d="M365.602,343.315v 4.6394" fill="none" stroke="black"/>
<path d="M383.744,338.676v 9.27879" fill="none" stroke="black"/>
<path d="M401.886,343.315v 4.6394" fill="none" stroke="black"/>
<path d="M420.028,343.315v 4.6394" fill="none" stroke="black"/>
<path d="M438.169,343.315v 4.6394" fill="none" stroke="black"/>
<path d="M456.311,338.676v 9.27879" fill="none" stroke="black"/>
<path d="M93.4764,338.676v 9.27879" fill="none" stroke="black"/>
<path d="M75.3346,343.315v 4.6394" fill="none" stroke="black"/>
<path d="M57.1929,343.315v 4.6394" fill="none" stroke="black"/>
<path d="M456.311,338.676v 9.27879" fill="none" stroke="black"/>
<path d="M474.453,343.315v 4.6394" fill="none" stroke="black"/>
<path d="M492.594,343.315v 4.6394" fill="none" stroke="black"/>
<path d="M510.736,343.315v 4.6394" fill="none" stroke="black"/>
<text xml:space="preserve" x="89.0319" y="360.625" fill="black" font-size="12.9143" font-family="Helvetica">10</text>
<text xml:space="preserve" x="81.7219" y="360.625" fill="black" font-size="12.9143" font-family="Times">&#8722;</text>
<text xml:space="preserve" x="164.568" y="360.625" fill="black" font-size="12.9143" font-family="Helvetica">8</text>
<text xml:space="preserve" x="158.071" y="360.625" fill="black" font-size="12.9143" font-family="Times">&#8722;</text>
<text xml:space="preserve" x="237.668" y="360.625" fill="black" font-size="12.9143" font-family="Helvetica">6</text>
<text xml:space="preserve" x="231.17" y="360.625" fill="black" font-size="12.9143" font-family="Times">&#8722;</text>
<text xml:space="preserve" x="309.956" y="360.625" fill="black" font-size="12.9143" font-family="Helvetica">4</text>
<text xml:space="preserve" x="303.458" y="360.625" fill="black" font-size="12.9143" font-family="Times">&#8722;</text>
<text xml:space="preserve" x="382.243" y="360.625" fill="black" font-size="12.9143" font-family="Helvetica">2</text>
<text xml:space="preserve" x="375.745" y="360.625" fill="black" font-size="12.9143" font-family="Times">&#8722;</text>
<text xml:space="preserve" x="452.094" y="360.625" fill="black" font-size="12.9143" font-family="Helvetica">0</text>
<text xml:space="preserve" x="476.461" y="373.621" fill="black" font-size="12.9143" font-family="Helvetica">jetcsv</text>
<path d="M57.1929,347.955v -309.293" fill="none" stroke="black"/>
<path d="M70.7992,333.525h -13.6063" fill="none" stroke="black"/>
<path d="M63.9961,321.713h -6.80315" fill="none" stroke="black"/>
<path d="M63.9961,309.901h -6.80315" fill="none" stroke="black"/>
<path d="M63.9961,298.09h -6.80315" fill="none" stroke="black"/>
<path d="M63.9961,286.278h -6.80315" fill="none" stroke="black"/>
<path d="M70.7992,274.467h -13.6063" fill="none" stroke="black"/>
<path d="M63.9961,262.655h -6.80315" fill="none" stroke="black"/>
<path d="M63.9961,250.843h -6.80315" fill="none" stroke="black"/>
<path d="M63.9961,239.032h -6.80315" fill="none" stroke="black"/>
<path d="M63.9961,227.22h -6.80315" fill="none" stroke="black"/>
<path d="M70.7992,215.409h -13.6063" fill="none" stroke="black"/>
<path d="M63.9961,203.597h -6.80315" fill="none" stroke="black"/>
<path d="M63.9961,191.785h -6.80315" fill="none" stroke="black"/>
<path d="M63.9961,179.974h -6.80315" fill="none" stroke="black"/>
<path d="M63.9961,168.162h -6.80315" fill="none" stroke="black"/>
<path d="M70.7992,156.35h -13.6063" fill="none" stroke="black"/>
<path d="M63.9961,144.539h -6.80315" fill="none" stroke="black"/>
<path d="M63.9961,132.727h -6.80315" fill="none" stroke="black"/>
<path d="M63.9961,120.916h -6.80315" fill="none" stroke="black"/>
<path d="M63.9961,109.104h -6.80315" fill="none" stroke="black"/>
<path d="M70.7992,97.2924h -13.6063" fill="none" stroke="black"/>
<path d="M70.7992,333.525h -13.6063" fill="none" stroke="black"/>
<path d="M63.9961,345.336h -6.80315" fill="none" stroke="black"/>
<path d="M70.7992,97.2924h -13.6063" fill="none" stroke="black"/>
<path d="M63.9961,85.4808h -6.80315" fill="none" stroke="black"/>
<path d="M63.9961,73.6692h -6.80315" fill="none" stroke="black"/>
<path d="M63.9961,61.8576h -6.80315" fill="none" stroke="black"/>
<path d="M63.9961,50.046h -6.80315" fill="none" stroke="black"/>
<text xml:space="preserve" x="46.7965" y="337.883" fill="black" font-size="12.9143" font-family="Helvetica">0</text>
<text xml:space="preserve" x="32.9888" y="278.591" fill="black" font-size="12.9143" font-family="Helvetica">500</text>
<text xml:space="preserve" x="25.6788" y="220.111" fill="black" font-size="12.9143" font-family="Helvetica">1000</text>
<text xml:space="preserve" x="25.6788" y="160.819" fill="black" font-size="12.9143" font-family="Helvetica">1500</text>
<text xml:space="preserve" x="25.6788" y="101.527" fill="black" font-size="12.9143" font-family="Helvetica">2000</text>
<g transform="rotate(-90,13.4955,62.5409)">
<text xml:space="preserve" x="13.4955" y="62.5409" fill="black" font-size="12.9143" font-family="Helvetica">nJet</text>
</g>
<text xml:space="preserve" x="297.772" y="158.383" fill="black" font-size="11.1408" font-family="Helvetica">x2 = 150 GeV, ctau = 1 mm</text>
<path d="M237.902,154.647h 49.6063" fill="none" stroke="#0000ff" stroke-width="2"/></svg>
