<?xml version="1.0" standalone="no"?>
<svg width="567.429" height="387.116" viewBox="0 0 567.429 387.116" xmlns="http://www.w3.org/2000/svg" shape-rendering="crispEdges">
<title>
/home/kuanyu/Documents/CMS/Background_Estimate/cut_opt/csv/Mx2_1_csv.svg
</title>
<desc>
Creator: ROOT Version 6.26/04
CreationDate: Fri Nov  4 13:41:15 2022</desc>
<defs>
</defs>
<rect x="0.5" y="0" width="566.929" height="386.616" fill="white"/>
<rect x="57.1929" y="38.6616" width="453.543" height="309.293" fill="white"/>
<rect x="57.1929" y="38.6616" width="453.543" height="309.293" fill="none" stroke="black"/>
<rect x="57.1929" y="38.6616" width="453.543" height="309.293" fill="white"/>
<rect x="57.1929" y="38.6616" width="453.543" height="309.293" fill="none" stroke="black"/>
<path d="M95.2906,81.6337v -14.1219" fill="none" stroke="#ff0000" stroke-width="2"/>
<path d="M95.2906,67.5118v -14.1219" fill="none" stroke="#ff0000" stroke-width="2"/>
<g stroke="black" stroke-width="1" fill="none">
<line x1="94.2906" y1="67.5118" x2="95.2906" y2="67.5118"/>
</g>
<path d="M458.125,289.388v -7.18802" fill="none" stroke="#ff0000" stroke-width="2"/>
<path d="M458.125,282.2v -7.18802" fill="none" stroke="#ff0000" stroke-width="2"/>
<g stroke="black" stroke-width="1" fill="none">
<line x1="457.125" y1="282.2" x2="458.125" y2="282.2"/>
</g>
<path d="M461.754,214.787v -11.1638" fill="none" stroke="#ff0000" stroke-width="2"/>
<path d="M461.754,203.624v -11.1638" fill="none" stroke="#ff0000" stroke-width="2"/>
<g stroke="black" stroke-width="1" fill="none">
<line x1="460.754" y1="203.624" x2="461.754" y2="203.624"/>
</g>
<path d="M465.382,271.471v -7.68231" fill="none" stroke="#ff0000" stroke-width="2"/>
<path d="M465.382,263.789v -7.68231" fill="none" stroke="#ff0000" stroke-width="2"/>
<g stroke="black" stroke-width="1" fill="none">
<line x1="464.382" y1="263.789" x2="465.382" y2="263.789"/>
</g>
<path d="M469.01,308.165v -6.23802" fill="none" stroke="#ff0000" stroke-width="2"/>
<path d="M469.01,301.927v -6.23802" fill="none" stroke="#ff0000" stroke-width="2"/>
<g stroke="black" stroke-width="1" fill="none">
<line x1="468.01" y1="301.927" x2="469.01" y2="301.927"/>
</g>
<path d="M472.639,161.988v -11.9539" fill="none" stroke="#ff0000" stroke-width="2"/>
<path d="M472.639,150.034v -11.9539" fill="none" stroke="#ff0000" stroke-width="2"/>
<g stroke="black" stroke-width="1" fill="none">
<line x1="471.639" y1="150.034" x2="472.639" y2="150.034"/>
</g>
<path d="M476.267,230.647v -9.26999" fill="none" stroke="#ff0000" stroke-width="2"/>
<path d="M476.267,221.377v -9.26999" fill="none" stroke="#ff0000" stroke-width="2"/>
<g stroke="black" stroke-width="1" fill="none">
<line x1="475.267" y1="221.377" x2="476.267" y2="221.377"/>
</g>
<path d="M479.895,249.274v -8.82802" fill="none" stroke="#ff0000" stroke-width="2"/>
<path d="M479.895,240.446v -8.82802" fill="none" stroke="#ff0000" stroke-width="2"/>
<g stroke="black" stroke-width="1" fill="none">
<line x1="478.895" y1="240.446" x2="479.895" y2="240.446"/>
</g>
<path d="M483.524,313.685v -5.51123" fill="none" stroke="#ff0000" stroke-width="2"/>
<path d="M483.524,308.173v -5.51123" fill="none" stroke="#ff0000" stroke-width="2"/>
<g stroke="black" stroke-width="1" fill="none">
<line x1="482.524" y1="308.173" x2="483.524" y2="308.173"/>
</g>
<path d="M487.152,331.762v -4.51988" fill="none" stroke="#ff0000" stroke-width="2"/>
<path d="M487.152,327.242v -4.51988" fill="none" stroke="#ff0000" stroke-width="2"/>
<g stroke="black" stroke-width="1" fill="none">
<line x1="486.152" y1="327.242" x2="487.152" y2="327.242"/>
</g>
<path d="M490.78,336.365v -3.20448" fill="none" stroke="#ff0000" stroke-width="2"/>
<path d="M490.78,333.16v -3.20448" fill="none" stroke="#ff0000" stroke-width="2"/>
<g stroke="black" stroke-width="1" fill="none">
<line x1="489.78" y1="333.16" x2="490.78" y2="333.16"/>
</g>
<path d="M57.1929,347.955h 36.2835v -280.443h 3.62835v 280.443h 359.206v -65.7545h 3.62835v -78.5766h 3.62835v 60.1654h 3.62835v 38.1376h 3.62835v -151.893h 3.62835v 71.3436h 3.62835v 19.0688h 3.62835v 67.7271h 3.62835v 19.0688h 3.62835v 5.91791h
 3.62835v 14.7948h 18.1417" fill="none" stroke="#ff0000" stroke-width="2"/>
<path d="M57.1929,347.955h 453.543" fill="none" stroke="black"/>
<path d="M93.4764,338.676v 9.27879" fill="none" stroke="black"/>
<path d="M111.618,343.315v 4.6394" fill="none" stroke="black"/>
<path d="M129.76,343.315v 4.6394" fill="none" stroke="black"/>
<path d="M147.902,343.315v 4.6394" fill="none" stroke="black"/>
<path d="M166.043,338.676v 9.27879" fill="none" stroke="black"/>
<path d="M184.185,343.315v 4.6394" fill="none" stroke="black"/>
<path d="M202.327,343.315v 4.6394" fill="none" stroke="black"/>
<path d="M220.469,343.315v 4.6394" fill="none" stroke="black"/>
<path d="M238.61,338.676v 9.27879" fill="none" stroke="black"/>
<path d="M256.752,343.315v 4.6394" fill="none" stroke="black"/>
<path d="M274.894,343.315v 4.6394" fill="none" stroke="black"/>
<path d="M293.035,343.315v 4.6394" fill="none" stroke="black"/>
<path d="M311.177,338.676v 9.27879" fill="none" stroke="black"/>
<path d="M329.319,343.315v 4.6394" fill="none" stroke="black"/>
<path d="M347.461,343.315v 4.6394" fill="none" stroke="black"/>
<path d="M365.602,343.315v 4.6394" fill="none" stroke="black"/>
<path d="M383.744,338.676v 9.27879" fill="none" stroke="black"/>
<path d="M401.886,343.315v 4.6394" fill="none" stroke="black"/>
<path d="M420.028,343.315v 4.6394" fill="none" stroke="black"/>
<path d="M438.169,343.315v 4.6394" fill="none" stroke="black"/>
<path d="M456.311,338.676v 9.27879" fill="none" stroke="black"/>
<path d="M93.4764,338.676v 9.27879" fill="none" stroke="black"/>
<path d="M75.3346,343.315v 4.6394" fill="none" stroke="black"/>
<path d="M57.1929,343.315v 4.6394" fill="none" stroke="black"/>
<path d="M456.311,338.676v 9.27879" fill="none" stroke="black"/>
<path d="M474.453,343.315v 4.6394" fill="none" stroke="black"/>
<path d="M492.594,343.315v 4.6394" fill="none" stroke="black"/>
<path d="M510.736,343.315v 4.6394" fill="none" stroke="black"/>
<text xml:space="preserve" x="89.0319" y="360.625" fill="black" font-size="12.9143" font-family="Helvetica">10</text>
<text xml:space="preserve" x="81.7219" y="360.625" fill="black" font-size="12.9143" font-family="Times">&#8722;</text>
<text xml:space="preserve" x="164.568" y="360.625" fill="black" font-size="12.9143" font-family="Helvetica">8</text>
<text xml:space="preserve" x="158.071" y="360.625" fill="black" font-size="12.9143" font-family="Times">&#8722;</text>
<text xml:space="preserve" x="237.668" y="360.625" fill="black" font-size="12.9143" font-family="Helvetica">6</text>
<text xml:space="preserve" x="231.17" y="360.625" fill="black" font-size="12.9143" font-family="Times">&#8722;</text>
<text xml:space="preserve" x="309.956" y="360.625" fill="black" font-size="12.9143" font-family="Helvetica">4</text>
<text xml:space="preserve" x="303.458" y="360.625" fill="black" font-size="12.9143" font-family="Times">&#8722;</text>
<text xml:space="preserve" x="382.243" y="360.625" fill="black" font-size="12.9143" font-family="Helvetica">2</text>
<text xml:space="preserve" x="375.745" y="360.625" fill="black" font-size="12.9143" font-family="Times">&#8722;</text>
<text xml:space="preserve" x="452.094" y="360.625" fill="black" font-size="12.9143" font-family="Helvetica">0</text>
<text xml:space="preserve" x="476.461" y="373.621" fill="black" font-size="12.9143" font-family="Helvetica">jetcsv</text>
<path d="M57.1929,347.955v -309.293" fill="none" stroke="black"/>
<path d="M70.7992,347.955h -13.6063" fill="none" stroke="black"/>
<path d="M63.9961,341.379h -6.80315" fill="none" stroke="black"/>
<path d="M63.9961,334.804h -6.80315" fill="none" stroke="black"/>
<path d="M63.9961,328.228h -6.80315" fill="none" stroke="black"/>
<path d="M63.9961,321.653h -6.80315" fill="none" stroke="black"/>
<path d="M70.7992,315.078h -13.6063" fill="none" stroke="black"/>
<path d="M63.9961,308.502h -6.80315" fill="none" stroke="black"/>
<path d="M63.9961,301.927h -6.80315" fill="none" stroke="black"/>
<path d="M63.9961,295.351h -6.80315" fill="none" stroke="black"/>
<path d="M63.9961,288.776h -6.80315" fill="none" stroke="black"/>
<path d="M70.7992,282.2h -13.6063" fill="none" stroke="black"/>
<path d="M63.9961,275.625h -6.80315" fill="none" stroke="black"/>
<path d="M63.9961,269.049h -6.80315" fill="none" stroke="black"/>
<path d="M63.9961,262.474h -6.80315" fill="none" stroke="black"/>
<path d="M63.9961,255.898h -6.80315" fill="none" stroke="black"/>
<path d="M70.7992,249.323h -13.6063" fill="none" stroke="black"/>
<path d="M63.9961,242.748h -6.80315" fill="none" stroke="black"/>
<path d="M63.9961,236.172h -6.80315" fill="none" stroke="black"/>
<path d="M63.9961,229.597h -6.80315" fill="none" stroke="black"/>
<path d="M63.9961,223.021h -6.80315" fill="none" stroke="black"/>
<path d="M70.7992,216.446h -13.6063" fill="none" stroke="black"/>
<path d="M63.9961,209.87h -6.80315" fill="none" stroke="black"/>
<path d="M63.9961,203.295h -6.80315" fill="none" stroke="black"/>
<path d="M63.9961,196.719h -6.80315" fill="none" stroke="black"/>
<path d="M63.9961,190.144h -6.80315" fill="none" stroke="black"/>
<path d="M70.7992,183.569h -13.6063" fill="none" stroke="black"/>
<path d="M63.9961,176.993h -6.80315" fill="none" stroke="black"/>
<path d="M63.9961,170.418h -6.80315" fill="none" stroke="black"/>
<path d="M63.9961,163.842h -6.80315" fill="none" stroke="black"/>
<path d="M63.9961,157.267h -6.80315" fill="none" stroke="black"/>
<path d="M70.7992,150.691h -13.6063" fill="none" stroke="black"/>
<path d="M63.9961,144.116h -6.80315" fill="none" stroke="black"/>
<path d="M63.9961,137.54h -6.80315" fill="none" stroke="black"/>
<path d="M63.9961,130.965h -6.80315" fill="none" stroke="black"/>
<path d="M63.9961,124.389h -6.80315" fill="none" stroke="black"/>
<path d="M70.7992,117.814h -13.6063" fill="none" stroke="black"/>
<path d="M63.9961,111.239h -6.80315" fill="none" stroke="black"/>
<path d="M63.9961,104.663h -6.80315" fill="none" stroke="black"/>
<path d="M63.9961,98.0877h -6.80315" fill="none" stroke="black"/>
<path d="M63.9961,91.5122h -6.80315" fill="none" stroke="black"/>
<path d="M70.7992,84.9368h -13.6063" fill="none" stroke="black"/>
<path d="M63.9961,78.3613h -6.80315" fill="none" stroke="black"/>
<path d="M63.9961,71.7859h -6.80315" fill="none" stroke="black"/>
<path d="M63.9961,65.2104h -6.80315" fill="none" stroke="black"/>
<path d="M63.9961,58.6349h -6.80315" fill="none" stroke="black"/>
<path d="M70.7992,52.0595h -13.6063" fill="none" stroke="black"/>
<path d="M70.7992,52.0595h -13.6063" fill="none" stroke="black"/>
<path d="M63.9961,45.4841h -6.80315" fill="none" stroke="black"/>
<path d="M63.9961,38.9086h -6.80315" fill="none" stroke="black"/>
<text xml:space="preserve" x="46.7965" y="352.503" fill="black" font-size="12.9143" font-family="Helvetica">0</text>
<text xml:space="preserve" x="32.9888" y="319.202" fill="black" font-size="12.9143" font-family="Helvetica">100</text>
<text xml:space="preserve" x="32.9888" y="286.713" fill="black" font-size="12.9143" font-family="Helvetica">200</text>
<text xml:space="preserve" x="32.9888" y="253.412" fill="black" font-size="12.9143" font-family="Helvetica">300</text>
<text xml:space="preserve" x="32.9888" y="220.924" fill="black" font-size="12.9143" font-family="Helvetica">400</text>
<text xml:space="preserve" x="32.9888" y="188.435" fill="black" font-size="12.9143" font-family="Helvetica">500</text>
<text xml:space="preserve" x="32.9888" y="155.134" fill="black" font-size="12.9143" font-family="Helvetica">600</text>
<text xml:space="preserve" x="32.9888" y="122.645" fill="black" font-size="12.9143" font-family="Helvetica">700</text>
<text xml:space="preserve" x="32.9888" y="89.3441" fill="black" font-size="12.9143" font-family="Helvetica">800</text>
<text xml:space="preserve" x="32.9888" y="56.8554" fill="black" font-size="12.9143" font-family="Helvetica">900</text>
<g transform="rotate(-90,20.8055,62.5409)">
<text xml:space="preserve" x="20.8055" y="62.5409" fill="black" font-size="12.9143" font-family="Helvetica">nJet</text>
</g>
<text xml:space="preserve" x="297.772" y="158.383" fill="black" font-size="11.1408" font-family="Helvetica">x2 = 1 GeV, ctau = 1 mm</text>
<path d="M237.902,154.647h 49.6063" fill="none" stroke="#ff0000" stroke-width="2"/></svg>
