<?xml version="1.0" standalone="no"?>
<svg width="567.429" height="546.572" viewBox="0 0 567.429 546.572" xmlns="http://www.w3.org/2000/svg" shape-rendering="crispEdges">
<title>
/home/kuanyu/Documents/CMS/Background_Estimate/fake_rate/top_emu/CT_Top(emu)_trk_byjetpt_LO.svg
</title>
<desc>
Creator: ROOT Version 6.26/04
CreationDate: Thu Dec 22 17:45:09 2022</desc>
<defs>
</defs>
<rect x="0.5" y="0" width="566.929" height="546.072" fill="white"/>
<rect x="6.16929" y="5.46072" width="555.591" height="262.115" fill="white"/>
<rect x="61.7283" y="8.08187" width="477.808" height="259.493" fill="white"/>
<rect x="61.7283" y="8.08187" width="477.808" height="259.493" fill="none" stroke="black"/>
<rect x="61.7283" y="8.08187" width="477.808" height="259.493" fill="white"/>
<rect x="61.7283" y="8.08187" width="477.808" height="259.493" fill="none" stroke="black"/>
<path d="M67.8541,147.962v -5.44957" fill="none" stroke="#ff0000" stroke-width="2"/>
<path d="M67.8541,142.513v -4.95518" fill="none" stroke="#ff0000" stroke-width="2"/>
<path d="M61.7283,142.513h 6.12574" fill="none" stroke="#ff0000" stroke-width="2"/>
<path d="M67.8541,142.513h 6.12574" fill="none" stroke="#ff0000" stroke-width="2"/>
<g stroke="black" stroke-width="1" fill="none">
<line x1="66.8541" y1="142.513" x2="67.8541" y2="142.513"/>
</g>
<path d="M80.1056,109.868v -3.97238" fill="none" stroke="#ff0000" stroke-width="2"/>
<path d="M80.1056,105.896v -3.70315" fill="none" stroke="#ff0000" stroke-width="2"/>
<path d="M73.9798,105.896h 6.12574" fill="none" stroke="#ff0000" stroke-width="2"/>
<path d="M80.1056,105.896h 6.12574" fill="none" stroke="#ff0000" stroke-width="2"/>
<g stroke="black" stroke-width="1" fill="none">
<line x1="79.1056" y1="105.896" x2="80.1056" y2="105.896"/>
</g>
<path d="M92.3571,79.6651v -3.05861" fill="none" stroke="#ff0000" stroke-width="2"/>
<path d="M92.3571,76.6065v -2.8965" fill="none" stroke="#ff0000" stroke-width="2"/>
<path d="M86.2313,76.6065h 6.12574" fill="none" stroke="#ff0000" stroke-width="2"/>
<path d="M92.3571,76.6065h 6.12574" fill="none" stroke="#ff0000" stroke-width="2"/>
<g stroke="black" stroke-width="1" fill="none">
<line x1="91.3571" y1="76.6065" x2="92.3571" y2="76.6065"/>
</g>
<path d="M104.609,62.5236v -2.38428" fill="none" stroke="#ff0000" stroke-width="2"/>
<path d="M104.609,60.1393v -2.28462" fill="none" stroke="#ff0000" stroke-width="2"/>
<path d="M98.4828,60.1393h 6.12574" fill="none" stroke="#ff0000" stroke-width="2"/>
<path d="M104.609,60.1393h 6.12574" fill="none" stroke="#ff0000" stroke-width="2"/>
<g stroke="black" stroke-width="1" fill="none">
<line x1="103.609" y1="60.1393" x2="104.609" y2="60.1393"/>
</g>
<path d="M116.86,47.6573v -2.37057" fill="none" stroke="#ff0000" stroke-width="2"/>
<path d="M116.86,45.2867v -2.27202" fill="none" stroke="#ff0000" stroke-width="2"/>
<path d="M110.734,45.2867h 6.12574" fill="none" stroke="#ff0000" stroke-width="2"/>
<path d="M116.86,45.2867h 6.12574" fill="none" stroke="#ff0000" stroke-width="2"/>
<g stroke="black" stroke-width="1" fill="none">
<line x1="115.86" y1="45.2867" x2="116.86" y2="45.2867"/>
</g>
<path d="M129.112,48.0123v -2.28343" fill="none" stroke="#ff0000" stroke-width="2"/>
<path d="M129.112,45.7289v -2.19186" fill="none" stroke="#ff0000" stroke-width="2"/>
<path d="M122.986,45.7289h 6.12574" fill="none" stroke="#ff0000" stroke-width="2"/>
<path d="M129.112,45.7289h 6.12574" fill="none" stroke="#ff0000" stroke-width="2"/>
<g stroke="black" stroke-width="1" fill="none">
<line x1="128.112" y1="45.7289" x2="129.112" y2="45.7289"/>
</g>
<path d="M141.363,56.8972v -2.40944" fill="none" stroke="#ff0000" stroke-width="2"/>
<path d="M141.363,54.4878v -2.30771" fill="none" stroke="#ff0000" stroke-width="2"/>
<path d="M135.237,54.4878h 6.12574" fill="none" stroke="#ff0000" stroke-width="2"/>
<path d="M141.363,54.4878h 6.12574" fill="none" stroke="#ff0000" stroke-width="2"/>
<g stroke="black" stroke-width="1" fill="none">
<line x1="140.363" y1="54.4878" x2="141.363" y2="54.4878"/>
</g>
<path d="M153.614,72.1667v -2.98433" fill="none" stroke="#ff0000" stroke-width="2"/>
<path d="M153.614,69.1823v -2.82979" fill="none" stroke="#ff0000" stroke-width="2"/>
<path d="M147.489,69.1823h 6.12574" fill="none" stroke="#ff0000" stroke-width="2"/>
<path d="M153.614,69.1823h 6.12574" fill="none" stroke="#ff0000" stroke-width="2"/>
<g stroke="black" stroke-width="1" fill="none">
<line x1="152.614" y1="69.1823" x2="153.614" y2="69.1823"/>
</g>
<path d="M165.866,86.4863v -3.40662" fill="none" stroke="#ff0000" stroke-width="2"/>
<path d="M165.866,83.0797v -3.20671" fill="none" stroke="#ff0000" stroke-width="2"/>
<path d="M159.74,83.0797h 6.12574" fill="none" stroke="#ff0000" stroke-width="2"/>
<path d="M165.866,83.0797h 6.12574" fill="none" stroke="#ff0000" stroke-width="2"/>
<g stroke="black" stroke-width="1" fill="none">
<line x1="164.866" y1="83.0797" x2="165.866" y2="83.0797"/>
</g>
<path d="M178.117,112.534v -4.21284" fill="none" stroke="#ff0000" stroke-width="2"/>
<path d="M178.117,108.321v -3.91126" fill="none" stroke="#ff0000" stroke-width="2"/>
<path d="M171.992,108.321h 6.12574" fill="none" stroke="#ff0000" stroke-width="2"/>
<path d="M178.117,108.321h 6.12574" fill="none" stroke="#ff0000" stroke-width="2"/>
<g stroke="black" stroke-width="1" fill="none">
<line x1="177.117" y1="108.321" x2="178.117" y2="108.321"/>
</g>
<path d="M190.369,134.302v -5.75891" fill="none" stroke="#ff0000" stroke-width="2"/>
<path d="M190.369,128.543v -5.20959" fill="none" stroke="#ff0000" stroke-width="2"/>
<path d="M184.243,128.543h 6.12574" fill="none" stroke="#ff0000" stroke-width="2"/>
<path d="M190.369,128.543h 6.12574" fill="none" stroke="#ff0000" stroke-width="2"/>
<g stroke="black" stroke-width="1" fill="none">
<line x1="189.369" y1="128.543" x2="190.369" y2="128.543"/>
</g>
<path d="M202.62,161.4v -7.08119" fill="none" stroke="#ff0000" stroke-width="2"/>
<path d="M202.62,154.318v -6.26817" fill="none" stroke="#ff0000" stroke-width="2"/>
<path d="M196.495,154.318h 6.12574" fill="none" stroke="#ff0000" stroke-width="2"/>
<path d="M202.62,154.318h 6.12574" fill="none" stroke="#ff0000" stroke-width="2"/>
<g stroke="black" stroke-width="1" fill="none">
<line x1="201.62" y1="154.318" x2="202.62" y2="154.318"/>
</g>
<path d="M214.872,215.06v -11.2379" fill="none" stroke="#ff0000" stroke-width="2"/>
<path d="M214.872,203.822v -9.31682" fill="none" stroke="#ff0000" stroke-width="2"/>
<path d="M208.746,203.822h 6.12574" fill="none" stroke="#ff0000" stroke-width="2"/>
<path d="M214.872,203.822h 6.12574" fill="none" stroke="#ff0000" stroke-width="2"/>
<g stroke="black" stroke-width="1" fill="none">
<line x1="213.872" y1="203.822" x2="214.872" y2="203.822"/>
</g>
<path d="M227.123,229.687v -15.2403" fill="none" stroke="#ff0000" stroke-width="2"/>
<path d="M227.123,214.447v -11.9044" fill="none" stroke="#ff0000" stroke-width="2"/>
<path d="M220.998,214.447h 6.12574" fill="none" stroke="#ff0000" stroke-width="2"/>
<path d="M227.123,214.447h 6.12574" fill="none" stroke="#ff0000" stroke-width="2"/>
<g stroke="black" stroke-width="1" fill="none">
<line x1="226.123" y1="214.447" x2="227.123" y2="214.447"/>
</g>
<path d="M294.507,227.781v -14.8708" fill="none" stroke="#ff0000" stroke-width="2"/>
<path d="M294.507,212.91v -11.6783" fill="none" stroke="#ff0000" stroke-width="2"/>
<path d="M233.249,212.91h 61.2574" fill="none" stroke="#ff0000" stroke-width="2"/>
<path d="M294.507,212.91h 61.2574" fill="none" stroke="#ff0000" stroke-width="2"/>
<g stroke="black" stroke-width="1" fill="none">
<line x1="293.507" y1="212.91" x2="294.507" y2="212.91"/>
</g>
<path d="M61.7283,267.575h 477.808" fill="none" stroke="black"/>
<path d="M110.734,260.813v 6.76256" fill="none" stroke="black"/>
<path d="M122.986,264.194v 3.38128" fill="none" stroke="black"/>
<path d="M135.237,264.194v 3.38128" fill="none" stroke="black"/>
<path d="M147.489,264.194v 3.38128" fill="none" stroke="black"/>
<path d="M159.74,264.194v 3.38128" fill="none" stroke="black"/>
<path d="M171.992,260.813v 6.76256" fill="none" stroke="black"/>
<path d="M184.243,264.194v 3.38128" fill="none" stroke="black"/>
<path d="M196.495,264.194v 3.38128" fill="none" stroke="black"/>
<path d="M208.746,264.194v 3.38128" fill="none" stroke="black"/>
<path d="M220.998,264.194v 3.38128" fill="none" stroke="black"/>
<path d="M233.249,260.813v 6.76256" fill="none" stroke="black"/>
<path d="M245.501,264.194v 3.38128" fill="none" stroke="black"/>
<path d="M257.752,264.194v 3.38128" fill="none" stroke="black"/>
<path d="M270.004,264.194v 3.38128" fill="none" stroke="black"/>
<path d="M282.255,264.194v 3.38128" fill="none" stroke="black"/>
<path d="M294.507,260.813v 6.76256" fill="none" stroke="black"/>
<path d="M306.758,264.194v 3.38128" fill="none" stroke="black"/>
<path d="M319.01,264.194v 3.38128" fill="none" stroke="black"/>
<path d="M331.261,264.194v 3.38128" fill="none" stroke="black"/>
<path d="M343.512,264.194v 3.38128" fill="none" stroke="black"/>
<path d="M355.764,260.813v 6.76256" fill="none" stroke="black"/>
<path d="M368.015,264.194v 3.38128" fill="none" stroke="black"/>
<path d="M380.267,264.194v 3.38128" fill="none" stroke="black"/>
<path d="M392.518,264.194v 3.38128" fill="none" stroke="black"/>
<path d="M404.77,264.194v 3.38128" fill="none" stroke="black"/>
<path d="M417.021,260.813v 6.76256" fill="none" stroke="black"/>
<path d="M429.273,264.194v 3.38128" fill="none" stroke="black"/>
<path d="M441.524,264.194v 3.38128" fill="none" stroke="black"/>
<path d="M453.776,264.194v 3.38128" fill="none" stroke="black"/>
<path d="M466.027,264.194v 3.38128" fill="none" stroke="black"/>
<path d="M478.279,260.813v 6.76256" fill="none" stroke="black"/>
<path d="M490.53,264.194v 3.38128" fill="none" stroke="black"/>
<path d="M502.782,264.194v 3.38128" fill="none" stroke="black"/>
<path d="M515.033,264.194v 3.38128" fill="none" stroke="black"/>
<path d="M527.285,264.194v 3.38128" fill="none" stroke="black"/>
<path d="M539.536,260.813v 6.76256" fill="none" stroke="black"/>
<path d="M110.734,260.813v 6.76256" fill="none" stroke="black"/>
<path d="M98.4828,264.194v 3.38128" fill="none" stroke="black"/>
<path d="M86.2313,264.194v 3.38128" fill="none" stroke="black"/>
<path d="M73.9798,264.194v 3.38128" fill="none" stroke="black"/>
<text xml:space="preserve" x="475.469" y="284.413" fill="black" font-size="8.91652" font-family="Helvetica">Track multiplicity</text>
<path d="M61.7283,267.575v -259.493" fill="none" stroke="black"/>
<path d="M69.9789,230.502h -8.25052" fill="none" stroke="black"/>
<path d="M69.9789,208.339h -8.25052" fill="none" stroke="black"/>
<path d="M69.9789,192.614h -8.25052" fill="none" stroke="black"/>
<path d="M69.9789,180.417h -8.25052" fill="none" stroke="black"/>
<path d="M69.9789,170.451h -8.25052" fill="none" stroke="black"/>
<path d="M69.9789,162.025h -8.25052" fill="none" stroke="black"/>
<path d="M69.9789,154.726h -8.25052" fill="none" stroke="black"/>
<path d="M69.9789,148.288h -8.25052" fill="none" stroke="black"/>
<path d="M78.2294,142.528h -16.501" fill="none" stroke="black"/>
<text xml:space="preserve" x="47.9021" y="145.998" fill="black" font-size="8.91652" font-family="Helvetica">10</text>
<path d="M69.9789,104.64h -8.25052" fill="none" stroke="black"/>
<path d="M69.9789,82.477h -8.25052" fill="none" stroke="black"/>
<path d="M69.9789,66.7519h -8.25052" fill="none" stroke="black"/>
<path d="M69.9789,54.5546h -8.25052" fill="none" stroke="black"/>
<path d="M69.9789,44.5887h -8.25052" fill="none" stroke="black"/>
<path d="M69.9789,36.1627h -8.25052" fill="none" stroke="black"/>
<path d="M69.9789,28.8637h -8.25052" fill="none" stroke="black"/>
<path d="M69.9789,22.4255h -8.25052" fill="none" stroke="black"/>
<path d="M78.2294,16.6664h -16.501" fill="none" stroke="black"/>
<text xml:space="preserve" x="53.5904" y="16.1167" fill="black" font-size="6.11102" font-family="Helvetica">2</text>
<text xml:space="preserve" x="44.1099" y="20.8569" fill="black" font-size="8.91652" font-family="Helvetica">10</text>
<g transform="rotate(-90,20.4089,35.0776)">
<text xml:space="preserve" x="20.4089" y="35.0776" fill="black" font-size="14.9283" font-family="Helvetica">nJet</text>
</g>
<path d="M67.8541,236.244v -3.86897" fill="none" stroke="#006699" stroke-width="2"/>
<path d="M67.8541,232.375v -3.61313" fill="none" stroke="#006699" stroke-width="2"/>
<g stroke="black" stroke-width="1" fill="none">
<line x1="66.8541" y1="232.375" x2="67.8541" y2="232.375"/>
</g>
<path d="M80.1056,179.652v -2.29214" fill="none" stroke="#006699" stroke-width="2"/>
<path d="M80.1056,177.36v -2.19987" fill="none" stroke="#006699" stroke-width="2"/>
<g stroke="black" stroke-width="1" fill="none">
<line x1="79.1056" y1="177.36" x2="80.1056" y2="177.36"/>
</g>
<path d="M92.3571,131.797v -1.5006" fill="none" stroke="#006699" stroke-width="2"/>
<path d="M92.3571,130.296v -1.46051" fill="none" stroke="#006699" stroke-width="2"/>
<g stroke="black" stroke-width="1" fill="none">
<line x1="91.3571" y1="130.296" x2="92.3571" y2="130.296"/>
</g>
<path d="M104.609,98.3724v -1.07851" fill="none" stroke="#006699" stroke-width="2"/>
<path d="M104.609,97.2939v -1.05765" fill="none" stroke="#006699" stroke-width="2"/>
<g stroke="black" stroke-width="1" fill="none">
<line x1="103.609" y1="97.2939" x2="104.609" y2="97.2939"/>
</g>
<path d="M116.86,75.7484v -0.895695" fill="none" stroke="#006699" stroke-width="2"/>
<path d="M116.86,74.8527v -0.881254" fill="none" stroke="#006699" stroke-width="2"/>
<g stroke="black" stroke-width="1" fill="none">
<line x1="115.86" y1="74.8527" x2="116.86" y2="74.8527"/>
</g>
<path d="M129.112,64.1646v -0.790007" fill="none" stroke="#006699" stroke-width="2"/>
<path d="M129.112,63.3746v -0.778751" fill="none" stroke="#006699" stroke-width="2"/>
<g stroke="black" stroke-width="1" fill="none">
<line x1="128.112" y1="63.3746" x2="129.112" y2="63.3746"/>
</g>
<path d="M141.363,59.2791v -0.740071" fill="none" stroke="#006699" stroke-width="2"/>
<path d="M141.363,58.539v -0.730185" fill="none" stroke="#006699" stroke-width="2"/>
<g stroke="black" stroke-width="1" fill="none">
<line x1="140.363" y1="58.539" x2="141.363" y2="58.539"/>
</g>
<path d="M153.614,59.6365v -0.735843" fill="none" stroke="#006699" stroke-width="2"/>
<path d="M153.614,58.9006v -0.726068" fill="none" stroke="#006699" stroke-width="2"/>
<g stroke="black" stroke-width="1" fill="none">
<line x1="152.614" y1="58.9006" x2="153.614" y2="58.9006"/>
</g>
<path d="M165.866,65.6755v -0.766049" fill="none" stroke="#006699" stroke-width="2"/>
<path d="M165.866,64.9094v -0.755462" fill="none" stroke="#006699" stroke-width="2"/>
<g stroke="black" stroke-width="1" fill="none">
<line x1="164.866" y1="64.9094" x2="165.866" y2="64.9094"/>
</g>
<path d="M178.117,73.8574v -0.827671" fill="none" stroke="#006699" stroke-width="2"/>
<path d="M178.117,73.0297v -0.815325" fill="none" stroke="#006699" stroke-width="2"/>
<g stroke="black" stroke-width="1" fill="none">
<line x1="177.117" y1="73.0297" x2="178.117" y2="73.0297"/>
</g>
<path d="M190.369,86.2029v -0.890963" fill="none" stroke="#006699" stroke-width="2"/>
<path d="M190.369,85.3119v -0.876674" fill="none" stroke="#006699" stroke-width="2"/>
<g stroke="black" stroke-width="1" fill="none">
<line x1="189.369" y1="85.3119" x2="190.369" y2="85.3119"/>
</g>
<path d="M202.62,95.0042v -0.97961" fill="none" stroke="#006699" stroke-width="2"/>
<path d="M202.62,94.0246v -0.962363" fill="none" stroke="#006699" stroke-width="2"/>
<g stroke="black" stroke-width="1" fill="none">
<line x1="201.62" y1="94.0246" x2="202.62" y2="94.0246"/>
</g>
<path d="M214.872,110.814v -1.08621" fill="none" stroke="#006699" stroke-width="2"/>
<path d="M214.872,109.728v -1.06504" fill="none" stroke="#006699" stroke-width="2"/>
<g stroke="black" stroke-width="1" fill="none">
<line x1="213.872" y1="109.728" x2="214.872" y2="109.728"/>
</g>
<path d="M227.123,122.588v -1.21104" fill="none" stroke="#006699" stroke-width="2"/>
<path d="M227.123,121.377v -1.18479" fill="none" stroke="#006699" stroke-width="2"/>
<g stroke="black" stroke-width="1" fill="none">
<line x1="226.123" y1="121.377" x2="227.123" y2="121.377"/>
</g>
<path d="M294.507,61.4823v -0.673593" fill="none" stroke="#006699" stroke-width="2"/>
<path d="M294.507,60.8087v -0.665393" fill="none" stroke="#006699" stroke-width="2"/>
<g stroke="black" stroke-width="1" fill="none">
<line x1="293.507" y1="60.8087" x2="294.507" y2="60.8087"/>
</g>
<path d="M447.65,208.14v -1.92194" fill="none" stroke="#006699" stroke-width="2"/>
<path d="M447.65,206.218v -1.85665" fill="none" stroke="#006699" stroke-width="2"/>
<g stroke="black" stroke-width="1" fill="none">
<line x1="446.65" y1="206.218" x2="447.65" y2="206.218"/>
</g>
<path d="M61.7283,232.375h 12.2515v -55.0155h 12.2515v -47.064h 12.2515v -33.0021h 12.2515v -22.4412h 12.2515v -11.4781h 12.2515v -4.83559h 12.2515v 0.361621h 12.2515v 6.0088h 12.2515v 8.12027h 12.2515v 12.2822h 12.2515v 8.71271h 12.2515v 15.7033h
 12.2515v 11.6492h 12.2515v -60.5683h 122.515v 145.41h 183.772" fill="none" stroke="#006699" stroke-width="2"/>
<text xml:space="preserve" x="369.288" y="43.6099" fill="black" font-size="14.9283" font-family="Helvetica">Top to emu</text>
<text xml:space="preserve" x="394.885" y="60.6747" fill="black" font-size="14.9283" font-family="Helvetica">True Background</text>
<path d="M371.552,57.3565h 19.4112" fill="none" stroke="#ff0000" stroke-width="2"/>
<path d="M381.257,62.5708v -10.4285" fill="none" stroke="#ff0000" stroke-width="2"/>
<text xml:space="preserve" x="394.885" y="77.7394" fill="black" font-size="14.9283" font-family="Helvetica">Predict</text>
<path d="M371.552,74.7373h 19.4112" fill="none" stroke="#006699" stroke-width="2"/>
<path d="M381.257,79.9515v -10.4285" fill="none" stroke="#006699" stroke-width="2"/>
<rect x="6.16929" y="278.497" width="555.591" height="262.115" fill="white"/>
<rect x="61.7283" y="278.497" width="477.808" height="209.692" fill="white"/>
<rect x="61.7283" y="278.497" width="477.808" height="209.692" fill="none" stroke="black"/>
<rect x="61.7283" y="278.497" width="477.808" height="209.692" fill="white"/>
<rect x="61.7283" y="278.497" width="477.808" height="209.692" fill="none" stroke="black"/>
<path d="M67.8541,330.297v -20.9075" fill="none" stroke="black" stroke-width="2"/>
<path d="M67.8541,309.39v -20.9075" fill="none" stroke="black" stroke-width="2"/>
<path d="M61.7283,309.39h 6.12574" fill="none" stroke="black" stroke-width="2"/>
<path d="M67.8541,309.39h 6.12574" fill="none" stroke="black" stroke-width="2"/>
<g stroke="black" stroke-width="1" fill="none">
<line x1="66.8541" y1="309.39" x2="67.8541" y2="309.39"/>
</g>
<path d="M80.1056,370.866v -10.374" fill="none" stroke="black" stroke-width="2"/>
<path d="M80.1056,360.492v -10.374" fill="none" stroke="black" stroke-width="2"/>
<path d="M73.9798,360.492h 6.12574" fill="none" stroke="black" stroke-width="2"/>
<path d="M80.1056,360.492h 6.12574" fill="none" stroke="black" stroke-width="2"/>
<g stroke="black" stroke-width="1" fill="none">
<line x1="79.1056" y1="360.492" x2="80.1056" y2="360.492"/>
</g>
<path d="M92.3571,401.547v -5.60726" fill="none" stroke="black" stroke-width="2"/>
<path d="M92.3571,395.94v -5.60726" fill="none" stroke="black" stroke-width="2"/>
<path d="M86.2313,395.94h 6.12574" fill="none" stroke="black" stroke-width="2"/>
<path d="M92.3571,395.94h 6.12574" fill="none" stroke="black" stroke-width="2"/>
<g stroke="black" stroke-width="1" fill="none">
<line x1="91.3571" y1="395.94" x2="92.3571" y2="395.94"/>
</g>
<path d="M104.609,423.22v -3.1999" fill="none" stroke="black" stroke-width="2"/>
<path d="M104.609,420.02v -3.1999" fill="none" stroke="black" stroke-width="2"/>
<path d="M98.4828,420.02h 6.12574" fill="none" stroke="black" stroke-width="2"/>
<path d="M104.609,420.02h 6.12574" fill="none" stroke="black" stroke-width="2"/>
<g stroke="black" stroke-width="1" fill="none">
<line x1="103.609" y1="420.02" x2="104.609" y2="420.02"/>
</g>
<path d="M116.86,431.553v -2.69649" fill="none" stroke="black" stroke-width="2"/>
<path d="M116.86,428.856v -2.69649" fill="none" stroke="black" stroke-width="2"/>
<path d="M110.734,428.856h 6.12574" fill="none" stroke="black" stroke-width="2"/>
<path d="M116.86,428.856h 6.12574" fill="none" stroke="black" stroke-width="2"/>
<g stroke="black" stroke-width="1" fill="none">
<line x1="115.86" y1="428.856" x2="116.86" y2="428.856"/>
</g>
<path d="M129.112,442.55v -2.06844" fill="none" stroke="black" stroke-width="2"/>
<path d="M129.112,440.481v -2.06844" fill="none" stroke="black" stroke-width="2"/>
<path d="M122.986,440.481h 6.12574" fill="none" stroke="black" stroke-width="2"/>
<path d="M129.112,440.481h 6.12574" fill="none" stroke="black" stroke-width="2"/>
<g stroke="black" stroke-width="1" fill="none">
<line x1="128.112" y1="440.481" x2="129.112" y2="440.481"/>
</g>
<path d="M141.363,452.666v -1.68046" fill="none" stroke="black" stroke-width="2"/>
<path d="M141.363,450.986v -1.68046" fill="none" stroke="black" stroke-width="2"/>
<path d="M135.237,450.986h 6.12574" fill="none" stroke="black" stroke-width="2"/>
<path d="M141.363,450.986h 6.12574" fill="none" stroke="black" stroke-width="2"/>
<g stroke="black" stroke-width="1" fill="none">
<line x1="140.363" y1="450.986" x2="141.363" y2="450.986"/>
</g>
<path d="M153.614,461.135v -1.56818" fill="none" stroke="black" stroke-width="2"/>
<path d="M153.614,459.567v -1.56818" fill="none" stroke="black" stroke-width="2"/>
<path d="M147.489,459.567h 6.12574" fill="none" stroke="black" stroke-width="2"/>
<path d="M153.614,459.567h 6.12574" fill="none" stroke="black" stroke-width="2"/>
<g stroke="black" stroke-width="1" fill="none">
<line x1="152.614" y1="459.567" x2="153.614" y2="459.567"/>
</g>
<path d="M165.866,464.949v -1.53612" fill="none" stroke="black" stroke-width="2"/>
<path d="M165.866,463.413v -1.53612" fill="none" stroke="black" stroke-width="2"/>
<path d="M159.74,463.413h 6.12574" fill="none" stroke="black" stroke-width="2"/>
<path d="M165.866,463.413h 6.12574" fill="none" stroke="black" stroke-width="2"/>
<g stroke="black" stroke-width="1" fill="none">
<line x1="164.866" y1="463.413" x2="165.866" y2="463.413"/>
</g>
<path d="M178.117,471.446v -1.37086" fill="none" stroke="black" stroke-width="2"/>
<path d="M178.117,470.076v -1.37086" fill="none" stroke="black" stroke-width="2"/>
<path d="M171.992,470.076h 6.12574" fill="none" stroke="black" stroke-width="2"/>
<path d="M178.117,470.076h 6.12574" fill="none" stroke="black" stroke-width="2"/>
<g stroke="black" stroke-width="1" fill="none">
<line x1="177.117" y1="470.076" x2="178.117" y2="470.076"/>
</g>
<path d="M190.369,474.111v -1.5867" fill="none" stroke="black" stroke-width="2"/>
<path d="M190.369,472.524v -1.5867" fill="none" stroke="black" stroke-width="2"/>
<path d="M184.243,472.524h 6.12574" fill="none" stroke="black" stroke-width="2"/>
<path d="M190.369,472.524h 6.12574" fill="none" stroke="black" stroke-width="2"/>
<g stroke="black" stroke-width="1" fill="none">
<line x1="189.369" y1="472.524" x2="190.369" y2="472.524"/>
</g>
<path d="M202.62,478.132v -1.40776" fill="none" stroke="black" stroke-width="2"/>
<path d="M202.62,476.725v -1.40776" fill="none" stroke="black" stroke-width="2"/>
<path d="M196.495,476.725h 6.12574" fill="none" stroke="black" stroke-width="2"/>
<path d="M202.62,476.725h 6.12574" fill="none" stroke="black" stroke-width="2"/>
<g stroke="black" stroke-width="1" fill="none">
<line x1="201.62" y1="476.725" x2="202.62" y2="476.725"/>
</g>
<path d="M214.872,483.166v -1.15434" fill="none" stroke="black" stroke-width="2"/>
<path d="M214.872,482.011v -1.15434" fill="none" stroke="black" stroke-width="2"/>
<path d="M208.746,482.011h 6.12574" fill="none" stroke="black" stroke-width="2"/>
<path d="M214.872,482.011h 6.12574" fill="none" stroke="black" stroke-width="2"/>
<g stroke="black" stroke-width="1" fill="none">
<line x1="213.872" y1="482.011" x2="214.872" y2="482.011"/>
</g>
<path d="M227.123,483.432v -1.53765" fill="none" stroke="black" stroke-width="2"/>
<path d="M227.123,481.895v -1.53765" fill="none" stroke="black" stroke-width="2"/>
<path d="M220.998,481.895h 6.12574" fill="none" stroke="black" stroke-width="2"/>
<path d="M227.123,481.895h 6.12574" fill="none" stroke="black" stroke-width="2"/>
<g stroke="black" stroke-width="1" fill="none">
<line x1="226.123" y1="481.895" x2="227.123" y2="481.895"/>
</g>
<path d="M294.507,486.561v -0.509794" fill="none" stroke="black" stroke-width="2"/>
<path d="M294.507,486.051v -0.509794" fill="none" stroke="black" stroke-width="2"/>
<path d="M233.249,486.051h 61.2574" fill="none" stroke="black" stroke-width="2"/>
<path d="M294.507,486.051h 61.2574" fill="none" stroke="black" stroke-width="2"/>
<g stroke="black" stroke-width="1" fill="none">
<line x1="293.507" y1="486.051" x2="294.507" y2="486.051"/>
</g>
<path d="M64.1174,437.786l 4.77808, 1.06331l 4.77808, 1.06331l 4.77808, 1.06331l 4.77808, 1.06331l 4.77808, 1.06331l 4.77808, 1.06331l 4.77808, 1.06331l 4.77808, 1.06331l 4.77808, 1.06331l 4.77808, 1.06331l 4.77808, 1.06331l 4.77808, 1.06331l
 4.77808, 1.06331l 4.77808, 1.06331l 4.77808, 1.06331l 4.77808, 1.06331l 4.77808, 1.06331l 4.77808, 1.06331l 4.77808, 1.06331l 4.77808, 1.06331l 4.77808, 1.06331l 4.77808, 1.06331l 4.77808, 1.06331l 4.77808, 1.06331l 4.77808, 1.06331l 4.77808,
 1.06331l 4.77808, 1.06331l 4.77808, 1.06331l 4.77808, 1.06331l 4.77808, 1.06331l 4.77808, 1.06331l 4.77808, 1.06331l 4.77808, 1.06331l 4.77808, 1.06331l 4.77808, 1.06331l 4.77808, 1.06331l 4.77808, 1.06331l 4.77808, 1.06331l 4.77808, 1.06331l
 4.77808, 1.06331l 4.77808, 1.06331l 4.77808, 1.06331l 4.77808, 1.06331l 4.77808, 1.06331l 4.77808, 1.06331l 4.77808, 1.06331l 4.77808, 1.06331l 1.91824, 0.426884" fill="none" stroke="#339966" stroke-width="2"/>
<path d="M61.7283,488.189h 477.808" fill="none" stroke="black"/>
<path d="M110.734,481.426v 6.76256" fill="none" stroke="black"/>
<path d="M122.986,484.807v 3.38128" fill="none" stroke="black"/>
<path d="M135.237,484.807v 3.38128" fill="none" stroke="black"/>
<path d="M147.489,484.807v 3.38128" fill="none" stroke="black"/>
<path d="M159.74,484.807v 3.38128" fill="none" stroke="black"/>
<path d="M171.992,481.426v 6.76256" fill="none" stroke="black"/>
<path d="M184.243,484.807v 3.38128" fill="none" stroke="black"/>
<path d="M196.495,484.807v 3.38128" fill="none" stroke="black"/>
<path d="M208.746,484.807v 3.38128" fill="none" stroke="black"/>
<path d="M220.998,484.807v 3.38128" fill="none" stroke="black"/>
<path d="M233.249,481.426v 6.76256" fill="none" stroke="black"/>
<path d="M245.501,484.807v 3.38128" fill="none" stroke="black"/>
<path d="M257.752,484.807v 3.38128" fill="none" stroke="black"/>
<path d="M270.004,484.807v 3.38128" fill="none" stroke="black"/>
<path d="M282.255,484.807v 3.38128" fill="none" stroke="black"/>
<path d="M294.507,481.426v 6.76256" fill="none" stroke="black"/>
<path d="M306.758,484.807v 3.38128" fill="none" stroke="black"/>
<path d="M319.01,484.807v 3.38128" fill="none" stroke="black"/>
<path d="M331.261,484.807v 3.38128" fill="none" stroke="black"/>
<path d="M343.512,484.807v 3.38128" fill="none" stroke="black"/>
<path d="M355.764,481.426v 6.76256" fill="none" stroke="black"/>
<path d="M368.015,484.807v 3.38128" fill="none" stroke="black"/>
<path d="M380.267,484.807v 3.38128" fill="none" stroke="black"/>
<path d="M392.518,484.807v 3.38128" fill="none" stroke="black"/>
<path d="M404.77,484.807v 3.38128" fill="none" stroke="black"/>
<path d="M417.021,481.426v 6.76256" fill="none" stroke="black"/>
<path d="M429.273,484.807v 3.38128" fill="none" stroke="black"/>
<path d="M441.524,484.807v 3.38128" fill="none" stroke="black"/>
<path d="M453.776,484.807v 3.38128" fill="none" stroke="black"/>
<path d="M466.027,484.807v 3.38128" fill="none" stroke="black"/>
<path d="M478.279,481.426v 6.76256" fill="none" stroke="black"/>
<path d="M490.53,484.807v 3.38128" fill="none" stroke="black"/>
<path d="M502.782,484.807v 3.38128" fill="none" stroke="black"/>
<path d="M515.033,484.807v 3.38128" fill="none" stroke="black"/>
<path d="M527.285,484.807v 3.38128" fill="none" stroke="black"/>
<path d="M539.536,481.426v 6.76256" fill="none" stroke="black"/>
<path d="M110.734,481.426v 6.76256" fill="none" stroke="black"/>
<path d="M98.4828,484.807v 3.38128" fill="none" stroke="black"/>
<path d="M86.2313,484.807v 3.38128" fill="none" stroke="black"/>
<path d="M73.9798,484.807v 3.38128" fill="none" stroke="black"/>
<text xml:space="preserve" x="107.629" y="496.774" fill="black" font-size="8.91652" font-family="Helvetica">5</text>
<text xml:space="preserve" x="166.407" y="496.774" fill="black" font-size="8.91652" font-family="Helvetica">10</text>
<text xml:space="preserve" x="228.03" y="496.774" fill="black" font-size="8.91652" font-family="Helvetica">15</text>
<text xml:space="preserve" x="289.653" y="496.774" fill="black" font-size="8.91652" font-family="Helvetica">20</text>
<text xml:space="preserve" x="350.328" y="496.774" fill="black" font-size="8.91652" font-family="Helvetica">25</text>
<text xml:space="preserve" x="411.95" y="496.774" fill="black" font-size="8.91652" font-family="Helvetica">30</text>
<text xml:space="preserve" x="472.625" y="496.774" fill="black" font-size="8.91652" font-family="Helvetica">35</text>
<text xml:space="preserve" x="534.248" y="496.774" fill="black" font-size="8.91652" font-family="Helvetica">40</text>
<text xml:space="preserve" x="433.755" y="516.683" fill="black" font-size="14.9283" font-family="Helvetica">Track multiplicity</text>
<path d="M61.7283,278.497h 477.808" fill="none" stroke="black"/>
<path d="M110.734,285.259v -6.76256" fill="none" stroke="black"/>
<path d="M122.986,281.878v -3.38128" fill="none" stroke="black"/>
<path d="M135.237,281.878v -3.38128" fill="none" stroke="black"/>
<path d="M147.489,281.878v -3.38128" fill="none" stroke="black"/>
<path d="M159.74,281.878v -3.38128" fill="none" stroke="black"/>
<path d="M171.992,285.259v -6.76256" fill="none" stroke="black"/>
<path d="M184.243,281.878v -3.38128" fill="none" stroke="black"/>
<path d="M196.495,281.878v -3.38128" fill="none" stroke="black"/>
<path d="M208.746,281.878v -3.38128" fill="none" stroke="black"/>
<path d="M220.998,281.878v -3.38128" fill="none" stroke="black"/>
<path d="M233.249,285.259v -6.76256" fill="none" stroke="black"/>
<path d="M245.501,281.878v -3.38128" fill="none" stroke="black"/>
<path d="M257.752,281.878v -3.38128" fill="none" stroke="black"/>
<path d="M270.004,281.878v -3.38128" fill="none" stroke="black"/>
<path d="M282.255,281.878v -3.38128" fill="none" stroke="black"/>
<path d="M294.507,285.259v -6.76256" fill="none" stroke="black"/>
<path d="M306.758,281.878v -3.38128" fill="none" stroke="black"/>
<path d="M319.01,281.878v -3.38128" fill="none" stroke="black"/>
<path d="M331.261,281.878v -3.38128" fill="none" stroke="black"/>
<path d="M343.512,281.878v -3.38128" fill="none" stroke="black"/>
<path d="M355.764,285.259v -6.76256" fill="none" stroke="black"/>
<path d="M368.015,281.878v -3.38128" fill="none" stroke="black"/>
<path d="M380.267,281.878v -3.38128" fill="none" stroke="black"/>
<path d="M392.518,281.878v -3.38128" fill="none" stroke="black"/>
<path d="M404.77,281.878v -3.38128" fill="none" stroke="black"/>
<path d="M417.021,285.259v -6.76256" fill="none" stroke="black"/>
<path d="M429.273,281.878v -3.38128" fill="none" stroke="black"/>
<path d="M441.524,281.878v -3.38128" fill="none" stroke="black"/>
<path d="M453.776,281.878v -3.38128" fill="none" stroke="black"/>
<path d="M466.027,281.878v -3.38128" fill="none" stroke="black"/>
<path d="M478.279,285.259v -6.76256" fill="none" stroke="black"/>
<path d="M490.53,281.878v -3.38128" fill="none" stroke="black"/>
<path d="M502.782,281.878v -3.38128" fill="none" stroke="black"/>
<path d="M515.033,281.878v -3.38128" fill="none" stroke="black"/>
<path d="M527.285,281.878v -3.38128" fill="none" stroke="black"/>
<path d="M539.536,285.259v -6.76256" fill="none" stroke="black"/>
<path d="M110.734,285.259v -6.76256" fill="none" stroke="black"/>
<path d="M98.4828,281.878v -3.38128" fill="none" stroke="black"/>
<path d="M86.2313,281.878v -3.38128" fill="none" stroke="black"/>
<path d="M73.9798,281.878v -3.38128" fill="none" stroke="black"/>
<path d="M61.7283,488.189v -209.692" fill="none" stroke="black"/>
<path d="M75.0625,488.189h -13.3342" fill="none" stroke="black"/>
<path d="M68.3954,481.28h -6.66709" fill="none" stroke="black"/>
<path d="M68.3954,474.371h -6.66709" fill="none" stroke="black"/>
<path d="M68.3954,467.462h -6.66709" fill="none" stroke="black"/>
<path d="M68.3954,460.553h -6.66709" fill="none" stroke="black"/>
<path d="M75.0625,453.644h -13.3342" fill="none" stroke="black"/>
<path d="M68.3954,446.735h -6.66709" fill="none" stroke="black"/>
<path d="M68.3954,439.826h -6.66709" fill="none" stroke="black"/>
<path d="M68.3954,432.917h -6.66709" fill="none" stroke="black"/>
<path d="M68.3954,426.008h -6.66709" fill="none" stroke="black"/>
<path d="M75.0625,419.099h -13.3342" fill="none" stroke="black"/>
<path d="M68.3954,412.19h -6.66709" fill="none" stroke="black"/>
<path d="M68.3954,405.281h -6.66709" fill="none" stroke="black"/>
<path d="M68.3954,398.372h -6.66709" fill="none" stroke="black"/>
<path d="M68.3954,391.463h -6.66709" fill="none" stroke="black"/>
<path d="M75.0625,384.554h -13.3342" fill="none" stroke="black"/>
<path d="M68.3954,377.645h -6.66709" fill="none" stroke="black"/>
<path d="M68.3954,370.736h -6.66709" fill="none" stroke="black"/>
<path d="M68.3954,363.827h -6.66709" fill="none" stroke="black"/>
<path d="M68.3954,356.918h -6.66709" fill="none" stroke="black"/>
<path d="M75.0625,350.009h -13.3342" fill="none" stroke="black"/>
<path d="M68.3954,343.1h -6.66709" fill="none" stroke="black"/>
<path d="M68.3954,336.191h -6.66709" fill="none" stroke="black"/>
<path d="M68.3954,329.282h -6.66709" fill="none" stroke="black"/>
<path d="M68.3954,322.373h -6.66709" fill="none" stroke="black"/>
<path d="M75.0625,315.464h -13.3342" fill="none" stroke="black"/>
<path d="M68.3954,308.555h -6.66709" fill="none" stroke="black"/>
<path d="M68.3954,301.646h -6.66709" fill="none" stroke="black"/>
<path d="M68.3954,294.737h -6.66709" fill="none" stroke="black"/>
<path d="M68.3954,287.828h -6.66709" fill="none" stroke="black"/>
<path d="M75.0625,280.919h -13.3342" fill="none" stroke="black"/>
<path d="M75.0625,280.919h -13.3342" fill="none" stroke="black"/>
<text xml:space="preserve" x="53.5904" y="491.086" fill="black" font-size="8.91652" font-family="Helvetica">0</text>
<text xml:space="preserve" x="54.5384" y="456.956" fill="black" font-size="8.91652" font-family="Helvetica">1</text>
<text xml:space="preserve" x="53.5904" y="422.827" fill="black" font-size="8.91652" font-family="Helvetica">2</text>
<text xml:space="preserve" x="53.5904" y="387.749" fill="black" font-size="8.91652" font-family="Helvetica">3</text>
<text xml:space="preserve" x="53.5904" y="353.62" fill="black" font-size="8.91652" font-family="Helvetica">4</text>
<text xml:space="preserve" x="53.5904" y="318.542" fill="black" font-size="8.91652" font-family="Helvetica">5</text>
<text xml:space="preserve" x="53.5904" y="284.413" fill="black" font-size="8.91652" font-family="Helvetica">6</text>
<g transform="rotate(-90,27.0452,458.852)">
<text xml:space="preserve" x="27.0452" y="458.852" fill="black" font-size="14.9283" font-family="Helvetica">True Background / Predicted</text>
</g>
<text xml:space="preserve" x="312.406" y="323.282" fill="black" font-size="14.9283" font-family="Helvetica">Fitting function: par0 + par1*x</text>
<text xml:space="preserve" x="318.094" y="349.828" fill="black" font-size="14.9283" font-family="Helvetica">par0 : 1.55335 +- 0.0315345</text>
<text xml:space="preserve" x="318.094" y="375.425" fill="black" font-size="14.9283" font-family="Helvetica">par1 : -0.0789242 +- 0.00198428</text></svg>
