<?xml version="1.0" standalone="no"?>
<svg width="567.429" height="546.572" viewBox="0 0 567.429 546.572" xmlns="http://www.w3.org/2000/svg" shape-rendering="crispEdges">
<title>
/home/kuanyu/Documents/CMS/Background_Estimate/fake_rate/top_emu/CT_Top(emu)_JetPT_bydileppT_LO.svg
</title>
<desc>
Creator: ROOT Version 6.26/04
CreationDate: Mon Dec  5 17:44:21 2022</desc>
<defs>
</defs>
<rect x="0.5" y="0" width="566.929" height="546.072" fill="white"/>
<rect x="68.5315" y="43.6858" width="476.22" height="436.858" fill="none" stroke="black"/>
<rect x="68.5315" y="43.6858" width="476.22" height="436.858" fill="none" stroke="black"/>
<rect x="68.5315" y="43.6858" width="476.22" height="436.858" fill="none" stroke="black"/>
<rect x="68.5315" y="43.6858" width="476.22" height="436.858" fill="none" stroke="black"/>
<path d="M82.8181,91.5748v -1.95185" fill="none" stroke="#ff0000" stroke-width="2"/>
<path d="M82.8181,89.623v -1.89809" fill="none" stroke="#ff0000" stroke-width="2"/>
<path d="M78.0559,89.623h 4.7622" fill="none" stroke="#ff0000" stroke-width="2"/>
<path d="M82.8181,89.623h 4.7622" fill="none" stroke="#ff0000" stroke-width="2"/>
<g stroke="black" stroke-width="1" fill="none">
<line x1="81.8181" y1="89.623" x2="82.8181" y2="89.623"/>
</g>
<path d="M92.3425,111.673v -2.20744" fill="none" stroke="#ff0000" stroke-width="2"/>
<path d="M92.3425,109.466v -2.13892" fill="none" stroke="#ff0000" stroke-width="2"/>
<path d="M87.5803,109.466h 4.7622" fill="none" stroke="#ff0000" stroke-width="2"/>
<path d="M92.3425,109.466h 4.7622" fill="none" stroke="#ff0000" stroke-width="2"/>
<g stroke="black" stroke-width="1" fill="none">
<line x1="91.3425" y1="109.466" x2="92.3425" y2="109.466"/>
</g>
<path d="M101.867,138.679v -2.69656" fill="none" stroke="#ff0000" stroke-width="2"/>
<path d="M101.867,135.982v -2.595" fill="none" stroke="#ff0000" stroke-width="2"/>
<path d="M97.1047,135.982h 4.7622" fill="none" stroke="#ff0000" stroke-width="2"/>
<path d="M101.867,135.982h 4.7622" fill="none" stroke="#ff0000" stroke-width="2"/>
<g stroke="black" stroke-width="1" fill="none">
<line x1="100.867" y1="135.982" x2="101.867" y2="135.982"/>
</g>
<path d="M111.391,173.849v -3.549" fill="none" stroke="#ff0000" stroke-width="2"/>
<path d="M111.391,170.3v -3.37514" fill="none" stroke="#ff0000" stroke-width="2"/>
<path d="M106.629,170.3h 4.7622" fill="none" stroke="#ff0000" stroke-width="2"/>
<path d="M111.391,170.3h 4.7622" fill="none" stroke="#ff0000" stroke-width="2"/>
<g stroke="black" stroke-width="1" fill="none">
<line x1="110.391" y1="170.3" x2="111.391" y2="170.3"/>
</g>
<path d="M125.678,176.594v -3.60404" fill="none" stroke="#ff0000" stroke-width="2"/>
<path d="M125.678,172.99v -3.42488" fill="none" stroke="#ff0000" stroke-width="2"/>
<path d="M116.154,172.99h 9.52441" fill="none" stroke="#ff0000" stroke-width="2"/>
<path d="M125.678,172.99h 9.52441" fill="none" stroke="#ff0000" stroke-width="2"/>
<g stroke="black" stroke-width="1" fill="none">
<line x1="124.678" y1="172.99" x2="125.678" y2="172.99"/>
</g>
<path d="M144.727,239.816v -6.44404" fill="none" stroke="#ff0000" stroke-width="2"/>
<path d="M144.727,233.372v -5.89264" fill="none" stroke="#ff0000" stroke-width="2"/>
<path d="M135.202,233.372h 9.52441" fill="none" stroke="#ff0000" stroke-width="2"/>
<path d="M144.727,233.372h 9.52441" fill="none" stroke="#ff0000" stroke-width="2"/>
<g stroke="black" stroke-width="1" fill="none">
<line x1="143.727" y1="233.372" x2="144.727" y2="233.372"/>
</g>
<path d="M166.95,313.471v -13.2703" fill="none" stroke="#ff0000" stroke-width="2"/>
<path d="M166.95,300.2v -11.1228" fill="none" stroke="#ff0000" stroke-width="2"/>
<path d="M154.251,300.2h 12.6992" fill="none" stroke="#ff0000" stroke-width="2"/>
<path d="M166.95,300.2h 12.6992" fill="none" stroke="#ff0000" stroke-width="2"/>
<g stroke="black" stroke-width="1" fill="none">
<line x1="165.95" y1="300.2" x2="166.95" y2="300.2"/>
</g>
<path d="M195.524,396.319v -23.8401" fill="none" stroke="#ff0000" stroke-width="2"/>
<path d="M195.524,372.479v -17.6787" fill="none" stroke="#ff0000" stroke-width="2"/>
<path d="M179.65,372.479h 15.874" fill="none" stroke="#ff0000" stroke-width="2"/>
<path d="M195.524,372.479h 15.874" fill="none" stroke="#ff0000" stroke-width="2"/>
<g stroke="black" stroke-width="1" fill="none">
<line x1="194.524" y1="372.479" x2="195.524" y2="372.479"/>
</g>
<path d="M378.075,432.779v -29.0604" fill="none" stroke="#ff0000" stroke-width="2"/>
<path d="M378.075,403.718v -20.3773" fill="none" stroke="#ff0000" stroke-width="2"/>
<path d="M211.398,403.718h 166.677" fill="none" stroke="#ff0000" stroke-width="2"/>
<path d="M378.075,403.718h 166.677" fill="none" stroke="#ff0000" stroke-width="2"/>
<g stroke="black" stroke-width="1" fill="none">
<line x1="377.075" y1="403.718" x2="378.075" y2="403.718"/>
</g>
<path d="M68.5315,480.544h 476.22" fill="none" stroke="black"/>
<path d="M68.5315,466.783v 13.761" fill="none" stroke="black"/>
<path d="M84.4055,473.663v 6.88051" fill="none" stroke="black"/>
<path d="M100.28,473.663v 6.88051" fill="none" stroke="black"/>
<path d="M116.154,473.663v 6.88051" fill="none" stroke="black"/>
<path d="M132.028,466.783v 13.761" fill="none" stroke="black"/>
<path d="M147.902,473.663v 6.88051" fill="none" stroke="black"/>
<path d="M163.776,473.663v 6.88051" fill="none" stroke="black"/>
<path d="M179.65,473.663v 6.88051" fill="none" stroke="black"/>
<path d="M195.524,466.783v 13.761" fill="none" stroke="black"/>
<path d="M211.398,473.663v 6.88051" fill="none" stroke="black"/>
<path d="M227.272,473.663v 6.88051" fill="none" stroke="black"/>
<path d="M243.146,473.663v 6.88051" fill="none" stroke="black"/>
<path d="M259.02,466.783v 13.761" fill="none" stroke="black"/>
<path d="M274.894,473.663v 6.88051" fill="none" stroke="black"/>
<path d="M290.768,473.663v 6.88051" fill="none" stroke="black"/>
<path d="M306.642,473.663v 6.88051" fill="none" stroke="black"/>
<path d="M322.516,466.783v 13.761" fill="none" stroke="black"/>
<path d="M338.39,473.663v 6.88051" fill="none" stroke="black"/>
<path d="M354.264,473.663v 6.88051" fill="none" stroke="black"/>
<path d="M370.138,473.663v 6.88051" fill="none" stroke="black"/>
<path d="M386.012,466.783v 13.761" fill="none" stroke="black"/>
<path d="M401.886,473.663v 6.88051" fill="none" stroke="black"/>
<path d="M417.76,473.663v 6.88051" fill="none" stroke="black"/>
<path d="M433.634,473.663v 6.88051" fill="none" stroke="black"/>
<path d="M449.508,466.783v 13.761" fill="none" stroke="black"/>
<path d="M465.382,473.663v 6.88051" fill="none" stroke="black"/>
<path d="M481.256,473.663v 6.88051" fill="none" stroke="black"/>
<path d="M497.13,473.663v 6.88051" fill="none" stroke="black"/>
<path d="M513.004,466.783v 13.761" fill="none" stroke="black"/>
<path d="M513.004,466.783v 13.761" fill="none" stroke="black"/>
<path d="M528.878,473.663v 6.88051" fill="none" stroke="black"/>
<path d="M544.752,473.663v 6.88051" fill="none" stroke="black"/>
<text xml:space="preserve" x="63.0708" y="497.722" fill="black" font-size="18.0344" font-family="Helvetica">0</text>
<text xml:space="preserve" x="116.161" y="497.722" fill="black" font-size="18.0344" font-family="Helvetica">200</text>
<text xml:space="preserve" x="179.68" y="497.722" fill="black" font-size="18.0344" font-family="Helvetica">400</text>
<text xml:space="preserve" x="243.199" y="497.722" fill="black" font-size="18.0344" font-family="Helvetica">600</text>
<text xml:space="preserve" x="306.718" y="497.722" fill="black" font-size="18.0344" font-family="Helvetica">800</text>
<text xml:space="preserve" x="365.496" y="497.722" fill="black" font-size="18.0344" font-family="Helvetica">1000</text>
<text xml:space="preserve" x="429.015" y="497.722" fill="black" font-size="18.0344" font-family="Helvetica">1200</text>
<text xml:space="preserve" x="492.534" y="497.722" fill="black" font-size="18.0344" font-family="Helvetica">1400</text>
<text xml:space="preserve" x="492.534" y="517.631" fill="black" font-size="18.0344" font-family="Helvetica">Jet PT</text>
<path d="M68.5315,480.544v -436.858" fill="none" stroke="black"/>
<path d="M75.3346,471.728h -6.80315" fill="none" stroke="black"/>
<path d="M75.3346,459.164h -6.80315" fill="none" stroke="black"/>
<path d="M75.3346,448.541h -6.80315" fill="none" stroke="black"/>
<path d="M75.3346,439.34h -6.80315" fill="none" stroke="black"/>
<path d="M75.3346,431.223h -6.80315" fill="none" stroke="black"/>
<path d="M82.1378,423.963h -13.6063" fill="none" stroke="black"/>
<text xml:space="preserve" x="57.3825" y="431.359" fill="black" font-size="18.0344" font-family="Helvetica">1</text>
<path d="M75.3346,376.198h -6.80315" fill="none" stroke="black"/>
<path d="M75.3346,348.257h -6.80315" fill="none" stroke="black"/>
<path d="M75.3346,328.433h -6.80315" fill="none" stroke="black"/>
<path d="M75.3346,313.056h -6.80315" fill="none" stroke="black"/>
<path d="M75.3346,300.492h -6.80315" fill="none" stroke="black"/>
<path d="M75.3346,289.87h -6.80315" fill="none" stroke="black"/>
<path d="M75.3346,280.668h -6.80315" fill="none" stroke="black"/>
<path d="M75.3346,272.552h -6.80315" fill="none" stroke="black"/>
<path d="M82.1378,265.291h -13.6063" fill="none" stroke="black"/>
<text xml:space="preserve" x="44.1099" y="271.14" fill="black" font-size="18.0344" font-family="Helvetica">10</text>
<path d="M75.3346,217.527h -6.80315" fill="none" stroke="black"/>
<path d="M75.3346,189.586h -6.80315" fill="none" stroke="black"/>
<path d="M75.3346,169.762h -6.80315" fill="none" stroke="black"/>
<path d="M75.3346,154.385h -6.80315" fill="none" stroke="black"/>
<path d="M75.3346,141.821h -6.80315" fill="none" stroke="black"/>
<path d="M75.3346,131.198h -6.80315" fill="none" stroke="black"/>
<path d="M75.3346,121.997h -6.80315" fill="none" stroke="black"/>
<path d="M75.3346,113.88h -6.80315" fill="none" stroke="black"/>
<path d="M82.1378,106.62h -13.6063" fill="none" stroke="black"/>
<text xml:space="preserve" x="57.3825" y="107.129" fill="black" font-size="12.1896" font-family="Helvetica">2</text>
<text xml:space="preserve" x="37.4736" y="114.713" fill="black" font-size="18.0344" font-family="Helvetica">10</text>
<path d="M75.3346,58.855h -6.80315" fill="none" stroke="black"/>
<g transform="rotate(-90,27.9932,77.7394)">
<text xml:space="preserve" x="27.9932" y="77.7394" fill="black" font-size="18.0344" font-family="Helvetica">nJet</text>
</g>
<path d="M82.8181,91.2288v -0.607967" fill="none" stroke="#006699" stroke-width="2"/>
<path d="M82.8181,90.6209v -0.60265" fill="none" stroke="#006699" stroke-width="2"/>
<path d="M78.0559,90.6209h 4.7622" fill="none" stroke="#006699" stroke-width="2"/>
<path d="M82.8181,90.6209h 4.7622" fill="none" stroke="#006699" stroke-width="2"/>
<g stroke="black" stroke-width="1" fill="none">
<line x1="81.8181" y1="90.6209" x2="82.8181" y2="90.6209"/>
</g>
<path d="M92.3425,108.93v -0.633949" fill="none" stroke="#006699" stroke-width="2"/>
<path d="M92.3425,108.296v -0.62817" fill="none" stroke="#006699" stroke-width="2"/>
<path d="M87.5803,108.296h 4.7622" fill="none" stroke="#006699" stroke-width="2"/>
<path d="M92.3425,108.296h 4.7622" fill="none" stroke="#006699" stroke-width="2"/>
<g stroke="black" stroke-width="1" fill="none">
<line x1="91.3425" y1="108.296" x2="92.3425" y2="108.296"/>
</g>
<path d="M101.867,133.545v -0.734449" fill="none" stroke="#006699" stroke-width="2"/>
<path d="M101.867,132.81v -0.726704" fill="none" stroke="#006699" stroke-width="2"/>
<path d="M97.1047,132.81h 4.7622" fill="none" stroke="#006699" stroke-width="2"/>
<path d="M101.867,132.81h 4.7622" fill="none" stroke="#006699" stroke-width="2"/>
<g stroke="black" stroke-width="1" fill="none">
<line x1="100.867" y1="132.81" x2="101.867" y2="132.81"/>
</g>
<path d="M111.391,157.168v -0.873149" fill="none" stroke="#006699" stroke-width="2"/>
<path d="M111.391,156.294v -0.862224" fill="none" stroke="#006699" stroke-width="2"/>
<path d="M106.629,156.294h 4.7622" fill="none" stroke="#006699" stroke-width="2"/>
<path d="M111.391,156.294h 4.7622" fill="none" stroke="#006699" stroke-width="2"/>
<g stroke="black" stroke-width="1" fill="none">
<line x1="110.391" y1="156.294" x2="111.391" y2="156.294"/>
</g>
<path d="M125.678,158.365v -0.814679" fill="none" stroke="#006699" stroke-width="2"/>
<path d="M125.678,157.55v -0.80516" fill="none" stroke="#006699" stroke-width="2"/>
<path d="M116.154,157.55h 9.52441" fill="none" stroke="#006699" stroke-width="2"/>
<path d="M125.678,157.55h 9.52441" fill="none" stroke="#006699" stroke-width="2"/>
<g stroke="black" stroke-width="1" fill="none">
<line x1="124.678" y1="157.55" x2="125.678" y2="157.55"/>
</g>
<path d="M144.727,217.278v -1.14203" fill="none" stroke="#006699" stroke-width="2"/>
<path d="M144.727,216.136v -1.12341" fill="none" stroke="#006699" stroke-width="2"/>
<path d="M135.202,216.136h 9.52441" fill="none" stroke="#006699" stroke-width="2"/>
<path d="M144.727,216.136h 9.52441" fill="none" stroke="#006699" stroke-width="2"/>
<g stroke="black" stroke-width="1" fill="none">
<line x1="143.727" y1="216.136" x2="144.727" y2="216.136"/>
</g>
<path d="M166.95,287.072v -1.3789" fill="none" stroke="#006699" stroke-width="2"/>
<path d="M166.95,285.693v -1.35185" fill="none" stroke="#006699" stroke-width="2"/>
<path d="M154.251,285.693h 12.6992" fill="none" stroke="#006699" stroke-width="2"/>
<path d="M166.95,285.693h 12.6992" fill="none" stroke="#006699" stroke-width="2"/>
<g stroke="black" stroke-width="1" fill="none">
<line x1="165.95" y1="285.693" x2="166.95" y2="285.693"/>
</g>
<path d="M195.524,363.645v -1.77734" fill="none" stroke="#006699" stroke-width="2"/>
<path d="M195.524,361.868v -1.73265" fill="none" stroke="#006699" stroke-width="2"/>
<path d="M179.65,361.868h 15.874" fill="none" stroke="#006699" stroke-width="2"/>
<path d="M195.524,361.868h 15.874" fill="none" stroke="#006699" stroke-width="2"/>
<g stroke="black" stroke-width="1" fill="none">
<line x1="194.524" y1="361.868" x2="195.524" y2="361.868"/>
</g>
<path d="M378.075,330.79v -1.88757" fill="none" stroke="#006699" stroke-width="2"/>
<path d="M378.075,328.903v -1.83724" fill="none" stroke="#006699" stroke-width="2"/>
<path d="M211.398,328.903h 166.677" fill="none" stroke="#006699" stroke-width="2"/>
<path d="M378.075,328.903h 166.677" fill="none" stroke="#006699" stroke-width="2"/>
<g stroke="black" stroke-width="1" fill="none">
<line x1="377.075" y1="328.903" x2="378.075" y2="328.903"/>
</g>
<text xml:space="preserve" x="260.264" y="135.57" fill="black" font-size="20.5393" font-family="Helvetica">Top to emu</text>
<text xml:space="preserve" x="304.822" y="171.596" fill="black" font-size="20.5393" font-family="Helvetica">True Background</text>
<path d="M263.059,163.822h 34.7244" fill="none" stroke="#ff0000" stroke-width="2"/>
<path d="M280.421,174.743v -21.8429" fill="none" stroke="#ff0000" stroke-width="2"/>
<text xml:space="preserve" x="304.822" y="207.621" fill="black" font-size="20.5393" font-family="Helvetica">Predict</text>
<path d="M263.059,200.226h 34.7244" fill="none" stroke="#006699" stroke-width="2"/>
<path d="M280.421,211.148v -21.8429" fill="none" stroke="#006699" stroke-width="2"/></svg>
