<?xml version="1.0" standalone="no"?>
<svg width="567.429" height="546.572" viewBox="0 0 567.429 546.572" xmlns="http://www.w3.org/2000/svg" shape-rendering="crispEdges">
<title>
/home/kuanyu/Documents/CMS/Background_Estimate/fake_rate/top_emu/CT_Top(emu)_JetEta_byjeteta_LO.svg
</title>
<desc>
Creator: ROOT Version 6.26/04
CreationDate: Thu Dec 22 16:48:31 2022</desc>
<defs>
</defs>
<rect x="0.5" y="0" width="566.929" height="546.072" fill="white"/>
<rect x="6.16929" y="5.46072" width="555.591" height="262.115" fill="white"/>
<rect x="61.7283" y="8.08187" width="477.808" height="259.493" fill="white"/>
<rect x="61.7283" y="8.08187" width="477.808" height="259.493" fill="none" stroke="black"/>
<rect x="61.7283" y="8.08187" width="477.808" height="259.493" fill="white"/>
<rect x="61.7283" y="8.08187" width="477.808" height="259.493" fill="none" stroke="black"/>
<path d="M101.546,205.262v -11.5842" fill="none" stroke="#ff0000" stroke-width="2"/>
<path d="M101.546,193.678v -10.2604" fill="none" stroke="#ff0000" stroke-width="2"/>
<path d="M93.5822,193.678h 7.96346" fill="none" stroke="#ff0000" stroke-width="2"/>
<path d="M101.546,193.678h 7.96346" fill="none" stroke="#ff0000" stroke-width="2"/>
<g stroke="black" stroke-width="1" fill="none">
<line x1="100.546" y1="193.678" x2="101.546" y2="193.678"/>
</g>
<path d="M117.473,132.149v -9.30325" fill="none" stroke="#ff0000" stroke-width="2"/>
<path d="M117.473,122.846v -8.43015" fill="none" stroke="#ff0000" stroke-width="2"/>
<path d="M109.509,122.846h 7.96346" fill="none" stroke="#ff0000" stroke-width="2"/>
<path d="M117.473,122.846h 7.96346" fill="none" stroke="#ff0000" stroke-width="2"/>
<g stroke="black" stroke-width="1" fill="none">
<line x1="116.473" y1="122.846" x2="117.473" y2="122.846"/>
</g>
<path d="M133.4,140.737v -10.2809" fill="none" stroke="#ff0000" stroke-width="2"/>
<path d="M133.4,130.456v -9.22487" fill="none" stroke="#ff0000" stroke-width="2"/>
<path d="M125.436,130.456h 7.96346" fill="none" stroke="#ff0000" stroke-width="2"/>
<path d="M133.4,130.456h 7.96346" fill="none" stroke="#ff0000" stroke-width="2"/>
<g stroke="black" stroke-width="1" fill="none">
<line x1="132.4" y1="130.456" x2="133.4" y2="130.456"/>
</g>
<path d="M149.326,116.488v -8.33404" fill="none" stroke="#ff0000" stroke-width="2"/>
<path d="M149.326,108.154v -7.62656" fill="none" stroke="#ff0000" stroke-width="2"/>
<path d="M141.363,108.154h 7.96346" fill="none" stroke="#ff0000" stroke-width="2"/>
<path d="M149.326,108.154h 7.96346" fill="none" stroke="#ff0000" stroke-width="2"/>
<g stroke="black" stroke-width="1" fill="none">
<line x1="148.326" y1="108.154" x2="149.326" y2="108.154"/>
</g>
<path d="M165.253,114.393v -7.96527" fill="none" stroke="#ff0000" stroke-width="2"/>
<path d="M165.253,106.427v -7.31661" fill="none" stroke="#ff0000" stroke-width="2"/>
<path d="M157.29,106.427h 7.96346" fill="none" stroke="#ff0000" stroke-width="2"/>
<path d="M165.253,106.427h 7.96346" fill="none" stroke="#ff0000" stroke-width="2"/>
<g stroke="black" stroke-width="1" fill="none">
<line x1="164.253" y1="106.427" x2="165.253" y2="106.427"/>
</g>
<path d="M181.18,109.356v -8.41609" fill="none" stroke="#ff0000" stroke-width="2"/>
<path d="M181.18,100.94v -7.69521" fill="none" stroke="#ff0000" stroke-width="2"/>
<path d="M173.217,100.94h 7.96346" fill="none" stroke="#ff0000" stroke-width="2"/>
<path d="M181.18,100.94h 7.96346" fill="none" stroke="#ff0000" stroke-width="2"/>
<g stroke="black" stroke-width="1" fill="none">
<line x1="180.18" y1="100.94" x2="181.18" y2="100.94"/>
</g>
<path d="M197.107,95.3567v -6.32124" fill="none" stroke="#ff0000" stroke-width="2"/>
<path d="M197.107,89.0354v -5.90581" fill="none" stroke="#ff0000" stroke-width="2"/>
<path d="M189.144,89.0354h 7.96346" fill="none" stroke="#ff0000" stroke-width="2"/>
<path d="M197.107,89.0354h 7.96346" fill="none" stroke="#ff0000" stroke-width="2"/>
<g stroke="black" stroke-width="1" fill="none">
<line x1="196.107" y1="89.0354" x2="197.107" y2="89.0354"/>
</g>
<path d="M213.034,100.27v -7.22243" fill="none" stroke="#ff0000" stroke-width="2"/>
<path d="M213.034,93.0471v -6.68508" fill="none" stroke="#ff0000" stroke-width="2"/>
<path d="M205.071,93.0471h 7.96346" fill="none" stroke="#ff0000" stroke-width="2"/>
<path d="M213.034,93.0471h 7.96346" fill="none" stroke="#ff0000" stroke-width="2"/>
<g stroke="black" stroke-width="1" fill="none">
<line x1="212.034" y1="93.0471" x2="213.034" y2="93.0471"/>
</g>
<path d="M228.961,89.9072v -6.74721" fill="none" stroke="#ff0000" stroke-width="2"/>
<path d="M228.961,83.16v -6.27597" fill="none" stroke="#ff0000" stroke-width="2"/>
<path d="M220.998,83.16h 7.96346" fill="none" stroke="#ff0000" stroke-width="2"/>
<path d="M228.961,83.16h 7.96346" fill="none" stroke="#ff0000" stroke-width="2"/>
<g stroke="black" stroke-width="1" fill="none">
<line x1="227.961" y1="83.16" x2="228.961" y2="83.16"/>
</g>
<path d="M244.888,77.9231v -6.40756" fill="none" stroke="#ff0000" stroke-width="2"/>
<path d="M244.888,71.5156v -5.98109" fill="none" stroke="#ff0000" stroke-width="2"/>
<path d="M236.925,71.5156h 7.96346" fill="none" stroke="#ff0000" stroke-width="2"/>
<path d="M244.888,71.5156h 7.96346" fill="none" stroke="#ff0000" stroke-width="2"/>
<g stroke="black" stroke-width="1" fill="none">
<line x1="243.888" y1="71.5156" x2="244.888" y2="71.5156"/>
</g>
<path d="M260.815,87.0694v -7.02146" fill="none" stroke="#ff0000" stroke-width="2"/>
<path d="M260.815,80.0479v -6.51256" fill="none" stroke="#ff0000" stroke-width="2"/>
<path d="M252.852,80.0479h 7.96346" fill="none" stroke="#ff0000" stroke-width="2"/>
<path d="M260.815,80.0479h 7.96346" fill="none" stroke="#ff0000" stroke-width="2"/>
<g stroke="black" stroke-width="1" fill="none">
<line x1="259.815" y1="80.0479" x2="260.815" y2="80.0479"/>
</g>
<path d="M276.742,97.0395v -7.28553" fill="none" stroke="#ff0000" stroke-width="2"/>
<path d="M276.742,89.754v -6.73911" fill="none" stroke="#ff0000" stroke-width="2"/>
<path d="M268.778,89.754h 7.96346" fill="none" stroke="#ff0000" stroke-width="2"/>
<path d="M276.742,89.754h 7.96346" fill="none" stroke="#ff0000" stroke-width="2"/>
<g stroke="black" stroke-width="1" fill="none">
<line x1="275.742" y1="89.754" x2="276.742" y2="89.754"/>
</g>
<path d="M292.669,107.832v -7.58523" fill="none" stroke="#ff0000" stroke-width="2"/>
<path d="M292.669,100.246v -6.99472" fill="none" stroke="#ff0000" stroke-width="2"/>
<path d="M284.705,100.246h 7.96346" fill="none" stroke="#ff0000" stroke-width="2"/>
<path d="M292.669,100.246h 7.96346" fill="none" stroke="#ff0000" stroke-width="2"/>
<g stroke="black" stroke-width="1" fill="none">
<line x1="291.669" y1="100.246" x2="292.669" y2="100.246"/>
</g>
<path d="M308.596,104.571v -6.64603" fill="none" stroke="#ff0000" stroke-width="2"/>
<path d="M308.596,97.9246v -6.18835" fill="none" stroke="#ff0000" stroke-width="2"/>
<path d="M300.632,97.9246h 7.96346" fill="none" stroke="#ff0000" stroke-width="2"/>
<path d="M308.596,97.9246h 7.96346" fill="none" stroke="#ff0000" stroke-width="2"/>
<g stroke="black" stroke-width="1" fill="none">
<line x1="307.596" y1="97.9246" x2="308.596" y2="97.9246"/>
</g>
<path d="M324.523,104.559v -7.17962" fill="none" stroke="#ff0000" stroke-width="2"/>
<path d="M324.523,97.3794v -6.6484" fill="none" stroke="#ff0000" stroke-width="2"/>
<path d="M316.559,97.3794h 7.96346" fill="none" stroke="#ff0000" stroke-width="2"/>
<path d="M324.523,97.3794h 7.96346" fill="none" stroke="#ff0000" stroke-width="2"/>
<g stroke="black" stroke-width="1" fill="none">
<line x1="323.523" y1="97.3794" x2="324.523" y2="97.3794"/>
</g>
<path d="M340.45,79.3166v -6.79016" fill="none" stroke="#ff0000" stroke-width="2"/>
<path d="M340.45,72.5264v -6.31311" fill="none" stroke="#ff0000" stroke-width="2"/>
<path d="M332.486,72.5264h 7.96346" fill="none" stroke="#ff0000" stroke-width="2"/>
<path d="M340.45,72.5264h 7.96346" fill="none" stroke="#ff0000" stroke-width="2"/>
<g stroke="black" stroke-width="1" fill="none">
<line x1="339.45" y1="72.5264" x2="340.45" y2="72.5264"/>
</g>
<path d="M356.377,85.5242v -6.77715" fill="none" stroke="#ff0000" stroke-width="2"/>
<path d="M356.377,78.747v -6.30186" fill="none" stroke="#ff0000" stroke-width="2"/>
<path d="M348.413,78.747h 7.96346" fill="none" stroke="#ff0000" stroke-width="2"/>
<path d="M356.377,78.747h 7.96346" fill="none" stroke="#ff0000" stroke-width="2"/>
<g stroke="black" stroke-width="1" fill="none">
<line x1="355.377" y1="78.747" x2="356.377" y2="78.747"/>
</g>
<path d="M372.303,93.1323v -7.09171" fill="none" stroke="#ff0000" stroke-width="2"/>
<path d="M372.303,86.0406v -6.57295" fill="none" stroke="#ff0000" stroke-width="2"/>
<path d="M364.34,86.0406h 7.96346" fill="none" stroke="#ff0000" stroke-width="2"/>
<path d="M372.303,86.0406h 7.96346" fill="none" stroke="#ff0000" stroke-width="2"/>
<g stroke="black" stroke-width="1" fill="none">
<line x1="371.303" y1="86.0406" x2="372.303" y2="86.0406"/>
</g>
<path d="M388.23,99.3924v -7.18161" fill="none" stroke="#ff0000" stroke-width="2"/>
<path d="M388.23,92.2108v -6.6501" fill="none" stroke="#ff0000" stroke-width="2"/>
<path d="M380.267,92.2108h 7.96346" fill="none" stroke="#ff0000" stroke-width="2"/>
<path d="M388.23,92.2108h 7.96346" fill="none" stroke="#ff0000" stroke-width="2"/>
<g stroke="black" stroke-width="1" fill="none">
<line x1="387.23" y1="92.2108" x2="388.23" y2="92.2108"/>
</g>
<path d="M404.157,90.7409v -6.78314" fill="none" stroke="#ff0000" stroke-width="2"/>
<path d="M404.157,83.9578v -6.30705" fill="none" stroke="#ff0000" stroke-width="2"/>
<path d="M396.194,83.9578h 7.96346" fill="none" stroke="#ff0000" stroke-width="2"/>
<path d="M404.157,83.9578h 7.96346" fill="none" stroke="#ff0000" stroke-width="2"/>
<g stroke="black" stroke-width="1" fill="none">
<line x1="403.157" y1="83.9578" x2="404.157" y2="83.9578"/>
</g>
<path d="M420.084,112.534v -7.83504" fill="none" stroke="#ff0000" stroke-width="2"/>
<path d="M420.084,104.699v -7.2066" fill="none" stroke="#ff0000" stroke-width="2"/>
<path d="M412.121,104.699h 7.96346" fill="none" stroke="#ff0000" stroke-width="2"/>
<path d="M420.084,104.699h 7.96346" fill="none" stroke="#ff0000" stroke-width="2"/>
<g stroke="black" stroke-width="1" fill="none">
<line x1="419.084" y1="104.699" x2="420.084" y2="104.699"/>
</g>
<path d="M436.011,110.292v -7.1533" fill="none" stroke="#ff0000" stroke-width="2"/>
<path d="M436.011,103.139v -6.62582" fill="none" stroke="#ff0000" stroke-width="2"/>
<path d="M428.048,103.139h 7.96346" fill="none" stroke="#ff0000" stroke-width="2"/>
<path d="M436.011,103.139h 7.96346" fill="none" stroke="#ff0000" stroke-width="2"/>
<g stroke="black" stroke-width="1" fill="none">
<line x1="435.011" y1="103.139" x2="436.011" y2="103.139"/>
</g>
<path d="M451.938,133.209v -8.62118" fill="none" stroke="#ff0000" stroke-width="2"/>
<path d="M451.938,124.587v -7.86628" fill="none" stroke="#ff0000" stroke-width="2"/>
<path d="M443.975,124.587h 7.96346" fill="none" stroke="#ff0000" stroke-width="2"/>
<path d="M451.938,124.587h 7.96346" fill="none" stroke="#ff0000" stroke-width="2"/>
<g stroke="black" stroke-width="1" fill="none">
<line x1="450.938" y1="124.587" x2="451.938" y2="124.587"/>
</g>
<path d="M467.865,136.442v -9.20343" fill="none" stroke="#ff0000" stroke-width="2"/>
<path d="M467.865,127.239v -8.34812" fill="none" stroke="#ff0000" stroke-width="2"/>
<path d="M459.902,127.239h 7.96346" fill="none" stroke="#ff0000" stroke-width="2"/>
<path d="M467.865,127.239h 7.96346" fill="none" stroke="#ff0000" stroke-width="2"/>
<g stroke="black" stroke-width="1" fill="none">
<line x1="466.865" y1="127.239" x2="467.865" y2="127.239"/>
</g>
<path d="M483.792,136.759v -8.82619" fill="none" stroke="#ff0000" stroke-width="2"/>
<path d="M483.792,127.933v -8.03659" fill="none" stroke="#ff0000" stroke-width="2"/>
<path d="M475.828,127.933h 7.96346" fill="none" stroke="#ff0000" stroke-width="2"/>
<path d="M483.792,127.933h 7.96346" fill="none" stroke="#ff0000" stroke-width="2"/>
<g stroke="black" stroke-width="1" fill="none">
<line x1="482.792" y1="127.933" x2="483.792" y2="127.933"/>
</g>
<path d="M499.719,195.634v -12.1561" fill="none" stroke="#ff0000" stroke-width="2"/>
<path d="M499.719,183.478v -10.7064" fill="none" stroke="#ff0000" stroke-width="2"/>
<path d="M491.755,183.478h 7.96346" fill="none" stroke="#ff0000" stroke-width="2"/>
<path d="M499.719,183.478h 7.96346" fill="none" stroke="#ff0000" stroke-width="2"/>
<g stroke="black" stroke-width="1" fill="none">
<line x1="498.719" y1="183.478" x2="499.719" y2="183.478"/>
</g>
<path d="M61.7283,267.575h 477.808" fill="none" stroke="black"/>
<path d="M61.7283,260.813v 6.76256" fill="none" stroke="black"/>
<path d="M77.6553,264.194v 3.38128" fill="none" stroke="black"/>
<path d="M93.5822,264.194v 3.38128" fill="none" stroke="black"/>
<path d="M109.509,264.194v 3.38128" fill="none" stroke="black"/>
<path d="M125.436,264.194v 3.38128" fill="none" stroke="black"/>
<path d="M141.363,260.813v 6.76256" fill="none" stroke="black"/>
<path d="M157.29,264.194v 3.38128" fill="none" stroke="black"/>
<path d="M173.217,264.194v 3.38128" fill="none" stroke="black"/>
<path d="M189.144,264.194v 3.38128" fill="none" stroke="black"/>
<path d="M205.071,264.194v 3.38128" fill="none" stroke="black"/>
<path d="M220.998,260.813v 6.76256" fill="none" stroke="black"/>
<path d="M236.925,264.194v 3.38128" fill="none" stroke="black"/>
<path d="M252.852,264.194v 3.38128" fill="none" stroke="black"/>
<path d="M268.778,264.194v 3.38128" fill="none" stroke="black"/>
<path d="M284.705,264.194v 3.38128" fill="none" stroke="black"/>
<path d="M300.632,260.813v 6.76256" fill="none" stroke="black"/>
<path d="M316.559,264.194v 3.38128" fill="none" stroke="black"/>
<path d="M332.486,264.194v 3.38128" fill="none" stroke="black"/>
<path d="M348.413,264.194v 3.38128" fill="none" stroke="black"/>
<path d="M364.34,264.194v 3.38128" fill="none" stroke="black"/>
<path d="M380.267,260.813v 6.76256" fill="none" stroke="black"/>
<path d="M396.194,264.194v 3.38128" fill="none" stroke="black"/>
<path d="M412.121,264.194v 3.38128" fill="none" stroke="black"/>
<path d="M428.048,264.194v 3.38128" fill="none" stroke="black"/>
<path d="M443.975,264.194v 3.38128" fill="none" stroke="black"/>
<path d="M459.902,260.813v 6.76256" fill="none" stroke="black"/>
<path d="M475.828,264.194v 3.38128" fill="none" stroke="black"/>
<path d="M491.755,264.194v 3.38128" fill="none" stroke="black"/>
<path d="M507.682,264.194v 3.38128" fill="none" stroke="black"/>
<path d="M523.609,264.194v 3.38128" fill="none" stroke="black"/>
<path d="M539.536,260.813v 6.76256" fill="none" stroke="black"/>
<text xml:space="preserve" x="534.248" y="284.413" fill="black" font-size="8.91652" font-family="Times">&#0951;</text>
<text xml:space="preserve" x="520.027" y="284.413" fill="black" font-size="8.91652" font-family="Helvetica">Jet </text>
<path d="M61.7283,267.575v -259.493" fill="none" stroke="black"/>
<path d="M69.9789,246.986h -8.25052" fill="none" stroke="black"/>
<path d="M69.9789,221.124h -8.25052" fill="none" stroke="black"/>
<path d="M69.9789,201.064h -8.25052" fill="none" stroke="black"/>
<path d="M69.9789,184.673h -8.25052" fill="none" stroke="black"/>
<path d="M69.9789,170.815h -8.25052" fill="none" stroke="black"/>
<path d="M69.9789,158.811h -8.25052" fill="none" stroke="black"/>
<path d="M69.9789,148.222h -8.25052" fill="none" stroke="black"/>
<path d="M78.2294,138.75h -16.501" fill="none" stroke="black"/>
<text xml:space="preserve" x="47.9021" y="142.206" fill="black" font-size="8.91652" font-family="Helvetica">10</text>
<path d="M69.9789,76.437h -8.25052" fill="none" stroke="black"/>
<path d="M69.9789,39.9861h -8.25052" fill="none" stroke="black"/>
<path d="M69.9789,14.1238h -8.25052" fill="none" stroke="black"/>
<g transform="rotate(-90,24.201,35.0776)">
<text xml:space="preserve" x="24.201" y="35.0776" fill="black" font-size="14.9283" font-family="Helvetica">nJet</text>
</g>
<path d="M101.546,173.6v -4.3691" fill="none" stroke="#006699" stroke-width="2"/>
<path d="M101.546,169.231v -4.16656" fill="none" stroke="#006699" stroke-width="2"/>
<g stroke="black" stroke-width="1" fill="none">
<line x1="100.546" y1="169.231" x2="101.546" y2="169.231"/>
</g>
<path d="M117.473,114.346v -2.80584" fill="none" stroke="#006699" stroke-width="2"/>
<path d="M117.473,111.54v -2.72091" fill="none" stroke="#006699" stroke-width="2"/>
<g stroke="black" stroke-width="1" fill="none">
<line x1="116.473" y1="111.54" x2="117.473" y2="111.54"/>
</g>
<path d="M133.4,113.182v -2.63782" fill="none" stroke="#006699" stroke-width="2"/>
<path d="M133.4,110.544v -2.56263" fill="none" stroke="#006699" stroke-width="2"/>
<g stroke="black" stroke-width="1" fill="none">
<line x1="132.4" y1="110.544" x2="133.4" y2="110.544"/>
</g>
<path d="M149.326,101.208v -2.42017" fill="none" stroke="#006699" stroke-width="2"/>
<path d="M149.326,98.7881v -2.35673" fill="none" stroke="#006699" stroke-width="2"/>
<g stroke="black" stroke-width="1" fill="none">
<line x1="148.326" y1="98.7881" x2="149.326" y2="98.7881"/>
</g>
<path d="M165.253,98.5738v -2.11227" fill="none" stroke="#006699" stroke-width="2"/>
<path d="M165.253,96.4615v -2.06378" fill="none" stroke="#006699" stroke-width="2"/>
<g stroke="black" stroke-width="1" fill="none">
<line x1="164.253" y1="96.4615" x2="165.253" y2="96.4615"/>
</g>
<path d="M181.18,80.8008v -1.99848" fill="none" stroke="#006699" stroke-width="2"/>
<path d="M181.18,78.8023v -1.95502" fill="none" stroke="#006699" stroke-width="2"/>
<g stroke="black" stroke-width="1" fill="none">
<line x1="180.18" y1="78.8023" x2="181.18" y2="78.8023"/>
</g>
<path d="M197.107,75.1622v -1.86178" fill="none" stroke="#006699" stroke-width="2"/>
<path d="M197.107,73.3004v -1.82401" fill="none" stroke="#006699" stroke-width="2"/>
<g stroke="black" stroke-width="1" fill="none">
<line x1="196.107" y1="73.3004" x2="197.107" y2="73.3004"/>
</g>
<path d="M213.034,73.6713v -1.80864" fill="none" stroke="#006699" stroke-width="2"/>
<path d="M213.034,71.8627v -1.77297" fill="none" stroke="#006699" stroke-width="2"/>
<g stroke="black" stroke-width="1" fill="none">
<line x1="212.034" y1="71.8627" x2="213.034" y2="71.8627"/>
</g>
<path d="M228.961,76.4513v -1.70547" fill="none" stroke="#006699" stroke-width="2"/>
<path d="M228.961,74.7459v -1.67372" fill="none" stroke="#006699" stroke-width="2"/>
<g stroke="black" stroke-width="1" fill="none">
<line x1="227.961" y1="74.7459" x2="228.961" y2="74.7459"/>
</g>
<path d="M244.888,73.4875v -1.65749" fill="none" stroke="#006699" stroke-width="2"/>
<path d="M244.888,71.8301v -1.62748" fill="none" stroke="#006699" stroke-width="2"/>
<g stroke="black" stroke-width="1" fill="none">
<line x1="243.888" y1="71.8301" x2="244.888" y2="71.8301"/>
</g>
<path d="M260.815,68.2146v -1.6103" fill="none" stroke="#006699" stroke-width="2"/>
<path d="M260.815,66.6043v -1.58196" fill="none" stroke="#006699" stroke-width="2"/>
<g stroke="black" stroke-width="1" fill="none">
<line x1="259.815" y1="66.6043" x2="260.815" y2="66.6043"/>
</g>
<path d="M276.742,72.4561v -1.61728" fill="none" stroke="#006699" stroke-width="2"/>
<path d="M276.742,70.8388v -1.5887" fill="none" stroke="#006699" stroke-width="2"/>
<g stroke="black" stroke-width="1" fill="none">
<line x1="275.742" y1="70.8388" x2="276.742" y2="70.8388"/>
</g>
<path d="M292.669,84.308v -1.56017" fill="none" stroke="#006699" stroke-width="2"/>
<path d="M292.669,82.7479v -1.53356" fill="none" stroke="#006699" stroke-width="2"/>
<g stroke="black" stroke-width="1" fill="none">
<line x1="291.669" y1="82.7479" x2="292.669" y2="82.7479"/>
</g>
<path d="M308.596,90.4884v -1.54737" fill="none" stroke="#006699" stroke-width="2"/>
<path d="M308.596,88.941v -1.52118" fill="none" stroke="#006699" stroke-width="2"/>
<g stroke="black" stroke-width="1" fill="none">
<line x1="307.596" y1="88.941" x2="308.596" y2="88.941"/>
</g>
<path d="M324.523,85.2224v -1.60531" fill="none" stroke="#006699" stroke-width="2"/>
<path d="M324.523,83.6171v -1.57715" fill="none" stroke="#006699" stroke-width="2"/>
<g stroke="black" stroke-width="1" fill="none">
<line x1="323.523" y1="83.6171" x2="324.523" y2="83.6171"/>
</g>
<path d="M340.45,69.9105v -1.61679" fill="none" stroke="#006699" stroke-width="2"/>
<path d="M340.45,68.2937v -1.58822" fill="none" stroke="#006699" stroke-width="2"/>
<g stroke="black" stroke-width="1" fill="none">
<line x1="339.45" y1="68.2937" x2="340.45" y2="68.2937"/>
</g>
<path d="M356.377,74.1055v -1.63139" fill="none" stroke="#006699" stroke-width="2"/>
<path d="M356.377,72.4741v -1.60231" fill="none" stroke="#006699" stroke-width="2"/>
<g stroke="black" stroke-width="1" fill="none">
<line x1="355.377" y1="72.4741" x2="356.377" y2="72.4741"/>
</g>
<path d="M372.303,72.7819v -1.70387" fill="none" stroke="#006699" stroke-width="2"/>
<path d="M372.303,71.078v -1.67217" fill="none" stroke="#006699" stroke-width="2"/>
<g stroke="black" stroke-width="1" fill="none">
<line x1="371.303" y1="71.078" x2="372.303" y2="71.078"/>
</g>
<path d="M388.23,83.036v -1.84606" fill="none" stroke="#006699" stroke-width="2"/>
<path d="M388.23,81.19v -1.80891" fill="none" stroke="#006699" stroke-width="2"/>
<g stroke="black" stroke-width="1" fill="none">
<line x1="387.23" y1="81.19" x2="388.23" y2="81.19"/>
</g>
<path d="M404.157,74.1449v -1.89459" fill="none" stroke="#006699" stroke-width="2"/>
<path d="M404.157,72.2503v -1.85548" fill="none" stroke="#006699" stroke-width="2"/>
<g stroke="black" stroke-width="1" fill="none">
<line x1="403.157" y1="72.2503" x2="404.157" y2="72.2503"/>
</g>
<path d="M420.084,84.4421v -2.06761" fill="none" stroke="#006699" stroke-width="2"/>
<path d="M420.084,82.3744v -2.02113" fill="none" stroke="#006699" stroke-width="2"/>
<g stroke="black" stroke-width="1" fill="none">
<line x1="419.084" y1="82.3744" x2="420.084" y2="82.3744"/>
</g>
<path d="M436.011,109.177v -2.26894" fill="none" stroke="#006699" stroke-width="2"/>
<path d="M436.011,106.908v -2.21308" fill="none" stroke="#006699" stroke-width="2"/>
<g stroke="black" stroke-width="1" fill="none">
<line x1="435.011" y1="106.908" x2="436.011" y2="106.908"/>
</g>
<path d="M451.938,108.963v -2.43886" fill="none" stroke="#006699" stroke-width="2"/>
<path d="M451.938,106.524v -2.37444" fill="none" stroke="#006699" stroke-width="2"/>
<g stroke="black" stroke-width="1" fill="none">
<line x1="450.938" y1="106.524" x2="451.938" y2="106.524"/>
</g>
<path d="M467.865,109.744v -2.61333" fill="none" stroke="#006699" stroke-width="2"/>
<path d="M467.865,107.13v -2.53951" fill="none" stroke="#006699" stroke-width="2"/>
<g stroke="black" stroke-width="1" fill="none">
<line x1="466.865" y1="107.13" x2="467.865" y2="107.13"/>
</g>
<path d="M483.792,107.84v -2.86129" fill="none" stroke="#006699" stroke-width="2"/>
<path d="M483.792,104.979v -2.77302" fill="none" stroke="#006699" stroke-width="2"/>
<g stroke="black" stroke-width="1" fill="none">
<line x1="482.792" y1="104.979" x2="483.792" y2="104.979"/>
</g>
<path d="M499.719,180.66v -4.44468" fill="none" stroke="#006699" stroke-width="2"/>
<path d="M499.719,176.216v -4.23524" fill="none" stroke="#006699" stroke-width="2"/>
<g stroke="black" stroke-width="1" fill="none">
<line x1="498.719" y1="176.216" x2="499.719" y2="176.216"/>
</g>
<path d="M61.7283,267.575h 31.8539v -98.3443h 15.9269v -57.6913h 15.9269v -0.995769h 15.9269v -11.7559h 15.9269v -2.32661h 15.9269v -17.6592h 15.9269v -5.50189h 15.9269v -1.43774h 15.9269v 2.88319h 15.9269v -2.91582h 15.9269v -5.22574h 15.9269v
 4.2345h 15.9269v 11.9091h 15.9269v 6.19318h 15.9269v -5.32399h 15.9269v -15.3233h 15.9269v 4.18041h 15.9269v -1.39613h 15.9269v 10.112h 15.9269v -8.93968h 15.9269v 10.1241h 15.9269v 24.5336h 15.9269v -0.383605h 15.9269v 0.605812h 15.9269v -2.1514h
 15.9269v 71.2369h 15.9269v 91.3596h 31.8539" fill="none" stroke="#006699" stroke-width="2"/>
<text xml:space="preserve" x="340.847" y="195.297" fill="black" font-size="14.9283" font-family="Helvetica">Top to emu</text>
<text xml:space="preserve" x="384.457" y="212.361" fill="black" font-size="14.9283" font-family="Helvetica">True Background</text>
<path d="M343.61,208.908h 34.0425" fill="none" stroke="#ff0000" stroke-width="2"/>
<path d="M360.631,214.172v -10.5294" fill="none" stroke="#ff0000" stroke-width="2"/>
<text xml:space="preserve" x="384.457" y="230.374" fill="black" font-size="14.9283" font-family="Helvetica">Predict</text>
<path d="M343.61,226.457h 34.0425" fill="none" stroke="#006699" stroke-width="2"/>
<path d="M360.631,231.721v -10.5294" fill="none" stroke="#006699" stroke-width="2"/>
<rect x="6.16929" y="278.497" width="555.591" height="262.115" fill="white"/>
<rect x="61.1747" y="279.672" width="477.813" height="209.517" fill="white"/>
<rect x="61.1747" y="279.672" width="477.813" height="209.517" fill="none" stroke="black"/>
<rect x="61.1747" y="279.672" width="477.813" height="209.517" fill="white"/>
<rect x="61.1747" y="279.672" width="477.813" height="209.517" fill="none" stroke="black"/>
<path d="M100.992,371.781v -17.5245" fill="none" stroke="black" stroke-width="2"/>
<path d="M100.992,354.256v -17.5245" fill="none" stroke="black" stroke-width="2"/>
<path d="M93.0289,354.256h 7.96355" fill="none" stroke="black" stroke-width="2"/>
<path d="M100.992,354.256h 7.96355" fill="none" stroke="black" stroke-width="2"/>
<g stroke="black" stroke-width="1" fill="none">
<line x1="99.9925" y1="354.256" x2="100.992" y2="354.256"/>
</g>
<path d="M116.92,349.104v -16.0859" fill="none" stroke="black" stroke-width="2"/>
<path d="M116.92,333.018v -16.0859" fill="none" stroke="black" stroke-width="2"/>
<path d="M108.956,333.018h 7.96355" fill="none" stroke="black" stroke-width="2"/>
<path d="M116.92,333.018h 7.96355" fill="none" stroke="black" stroke-width="2"/>
<g stroke="black" stroke-width="1" fill="none">
<line x1="115.92" y1="333.018" x2="116.92" y2="333.018"/>
</g>
<path d="M132.847,363.151v -15.8752" fill="none" stroke="black" stroke-width="2"/>
<path d="M132.847,347.276v -15.8752" fill="none" stroke="black" stroke-width="2"/>
<path d="M124.883,347.276h 7.96355" fill="none" stroke="black" stroke-width="2"/>
<path d="M132.847,347.276h 7.96355" fill="none" stroke="black" stroke-width="2"/>
<g stroke="black" stroke-width="1" fill="none">
<line x1="131.847" y1="347.276" x2="132.847" y2="347.276"/>
</g>
<path d="M148.774,344.362v -14.7507" fill="none" stroke="black" stroke-width="2"/>
<path d="M148.774,329.611v -14.7507" fill="none" stroke="black" stroke-width="2"/>
<path d="M140.81,329.611h 7.96355" fill="none" stroke="black" stroke-width="2"/>
<path d="M148.774,329.611h 7.96355" fill="none" stroke="black" stroke-width="2"/>
<g stroke="black" stroke-width="1" fill="none">
<line x1="147.774" y1="329.611" x2="148.774" y2="329.611"/>
</g>
<path d="M164.701,344.608v -13.9358" fill="none" stroke="black" stroke-width="2"/>
<path d="M164.701,330.673v -13.9358" fill="none" stroke="black" stroke-width="2"/>
<path d="M156.737,330.673h 7.96355" fill="none" stroke="black" stroke-width="2"/>
<path d="M164.701,330.673h 7.96355" fill="none" stroke="black" stroke-width="2"/>
<g stroke="black" stroke-width="1" fill="none">
<line x1="163.701" y1="330.673" x2="164.701" y2="330.673"/>
</g>
<path d="M180.628,363.487v -12.7415" fill="none" stroke="black" stroke-width="2"/>
<path d="M180.628,350.745v -12.7415" fill="none" stroke="black" stroke-width="2"/>
<path d="M172.664,350.745h 7.96355" fill="none" stroke="black" stroke-width="2"/>
<path d="M180.628,350.745h 7.96355" fill="none" stroke="black" stroke-width="2"/>
<g stroke="black" stroke-width="1" fill="none">
<line x1="179.628" y1="350.745" x2="180.628" y2="350.745"/>
</g>
<path d="M196.555,351.07v -10.5441" fill="none" stroke="black" stroke-width="2"/>
<path d="M196.555,340.526v -10.5441" fill="none" stroke="black" stroke-width="2"/>
<path d="M188.592,340.526h 7.96355" fill="none" stroke="black" stroke-width="2"/>
<path d="M196.555,340.526h 7.96355" fill="none" stroke="black" stroke-width="2"/>
<g stroke="black" stroke-width="1" fill="none">
<line x1="195.555" y1="340.526" x2="196.555" y2="340.526"/>
</g>
<path d="M212.482,360.425v -11.1551" fill="none" stroke="black" stroke-width="2"/>
<path d="M212.482,349.27v -11.1551" fill="none" stroke="black" stroke-width="2"/>
<path d="M204.519,349.27h 7.96355" fill="none" stroke="black" stroke-width="2"/>
<path d="M212.482,349.27h 7.96355" fill="none" stroke="black" stroke-width="2"/>
<g stroke="black" stroke-width="1" fill="none">
<line x1="211.482" y1="349.27" x2="212.482" y2="349.27"/>
</g>
<path d="M228.409,339.961v -12.0487" fill="none" stroke="black" stroke-width="2"/>
<path d="M228.409,327.913v -12.0487" fill="none" stroke="black" stroke-width="2"/>
<path d="M220.446,327.913h 7.96355" fill="none" stroke="black" stroke-width="2"/>
<path d="M228.409,327.913h 7.96355" fill="none" stroke="black" stroke-width="2"/>
<g stroke="black" stroke-width="1" fill="none">
<line x1="227.409" y1="327.913" x2="228.409" y2="327.913"/>
</g>
<path d="M244.336,324.118v -12.6499" fill="none" stroke="black" stroke-width="2"/>
<path d="M244.336,311.468v -12.6499" fill="none" stroke="black" stroke-width="2"/>
<path d="M236.373,311.468h 7.96355" fill="none" stroke="black" stroke-width="2"/>
<path d="M244.336,311.468h 7.96355" fill="none" stroke="black" stroke-width="2"/>
<g stroke="black" stroke-width="1" fill="none">
<line x1="243.336" y1="311.468" x2="244.336" y2="311.468"/>
</g>
<path d="M260.264,348.461v -11.7732" fill="none" stroke="black" stroke-width="2"/>
<path d="M260.264,336.688v -11.7732" fill="none" stroke="black" stroke-width="2"/>
<path d="M252.3,336.688h 7.96355" fill="none" stroke="black" stroke-width="2"/>
<path d="M260.264,336.688h 7.96355" fill="none" stroke="black" stroke-width="2"/>
<g stroke="black" stroke-width="1" fill="none">
<line x1="259.264" y1="336.688" x2="260.264" y2="336.688"/>
</g>
<path d="M276.191,357.152v -11.4597" fill="none" stroke="black" stroke-width="2"/>
<path d="M276.191,345.693v -11.4597" fill="none" stroke="black" stroke-width="2"/>
<path d="M268.227,345.693h 7.96355" fill="none" stroke="black" stroke-width="2"/>
<path d="M276.191,345.693h 7.96355" fill="none" stroke="black" stroke-width="2"/>
<g stroke="black" stroke-width="1" fill="none">
<line x1="275.191" y1="345.693" x2="276.191" y2="345.693"/>
</g>
<path d="M292.118,355.473v -12.059" fill="none" stroke="black" stroke-width="2"/>
<path d="M292.118,343.414v -12.059" fill="none" stroke="black" stroke-width="2"/>
<path d="M284.154,343.414h 7.96355" fill="none" stroke="black" stroke-width="2"/>
<path d="M292.118,343.414h 7.96355" fill="none" stroke="black" stroke-width="2"/>
<g stroke="black" stroke-width="1" fill="none">
<line x1="291.118" y1="343.414" x2="292.118" y2="343.414"/>
</g>
<path d="M308.045,340.674v -11.7431" fill="none" stroke="black" stroke-width="2"/>
<path d="M308.045,328.931v -11.7431" fill="none" stroke="black" stroke-width="2"/>
<path d="M300.081,328.931h 7.96355" fill="none" stroke="black" stroke-width="2"/>
<path d="M308.045,328.931h 7.96355" fill="none" stroke="black" stroke-width="2"/>
<g stroke="black" stroke-width="1" fill="none">
<line x1="307.045" y1="328.931" x2="308.045" y2="328.931"/>
</g>
<path d="M323.972,349.198v -11.9703" fill="none" stroke="black" stroke-width="2"/>
<path d="M323.972,337.227v -11.9703" fill="none" stroke="black" stroke-width="2"/>
<path d="M316.008,337.227h 7.96355" fill="none" stroke="black" stroke-width="2"/>
<path d="M323.972,337.227h 7.96355" fill="none" stroke="black" stroke-width="2"/>
<g stroke="black" stroke-width="1" fill="none">
<line x1="322.972" y1="337.227" x2="323.972" y2="337.227"/>
</g>
<path d="M339.899,332.889v -12.6549" fill="none" stroke="black" stroke-width="2"/>
<path d="M339.899,320.234v -12.6549" fill="none" stroke="black" stroke-width="2"/>
<path d="M331.935,320.234h 7.96355" fill="none" stroke="black" stroke-width="2"/>
<path d="M339.899,320.234h 7.96355" fill="none" stroke="black" stroke-width="2"/>
<g stroke="black" stroke-width="1" fill="none">
<line x1="338.899" y1="320.234" x2="339.899" y2="320.234"/>
</g>
<path d="M355.826,336.381v -12.3557" fill="none" stroke="black" stroke-width="2"/>
<path d="M355.826,324.025v -12.3557" fill="none" stroke="black" stroke-width="2"/>
<path d="M347.863,324.025h 7.96355" fill="none" stroke="black" stroke-width="2"/>
<path d="M355.826,324.025h 7.96355" fill="none" stroke="black" stroke-width="2"/>
<g stroke="black" stroke-width="1" fill="none">
<line x1="354.826" y1="324.025" x2="355.826" y2="324.025"/>
</g>
<path d="M371.753,350.96v -11.7173" fill="none" stroke="black" stroke-width="2"/>
<path d="M371.753,339.243v -11.7173" fill="none" stroke="black" stroke-width="2"/>
<path d="M363.79,339.243h 7.96355" fill="none" stroke="black" stroke-width="2"/>
<path d="M371.753,339.243h 7.96355" fill="none" stroke="black" stroke-width="2"/>
<g stroke="black" stroke-width="1" fill="none">
<line x1="370.753" y1="339.243" x2="371.753" y2="339.243"/>
</g>
<path d="M387.68,344.965v -12.443" fill="none" stroke="black" stroke-width="2"/>
<path d="M387.68,332.522v -12.443" fill="none" stroke="black" stroke-width="2"/>
<path d="M379.717,332.522h 7.96355" fill="none" stroke="black" stroke-width="2"/>
<path d="M387.68,332.522h 7.96355" fill="none" stroke="black" stroke-width="2"/>
<g stroke="black" stroke-width="1" fill="none">
<line x1="386.68" y1="332.522" x2="387.68" y2="332.522"/>
</g>
<path d="M403.607,345.469v -11.7554" fill="none" stroke="black" stroke-width="2"/>
<path d="M403.607,333.714v -11.7554" fill="none" stroke="black" stroke-width="2"/>
<path d="M395.644,333.714h 7.96355" fill="none" stroke="black" stroke-width="2"/>
<path d="M403.607,333.714h 7.96355" fill="none" stroke="black" stroke-width="2"/>
<g stroke="black" stroke-width="1" fill="none">
<line x1="402.607" y1="333.714" x2="403.607" y2="333.714"/>
</g>
<path d="M419.535,362.984v -11.9514" fill="none" stroke="black" stroke-width="2"/>
<path d="M419.535,351.032v -11.9514" fill="none" stroke="black" stroke-width="2"/>
<path d="M411.571,351.032h 7.96355" fill="none" stroke="black" stroke-width="2"/>
<path d="M419.535,351.032h 7.96355" fill="none" stroke="black" stroke-width="2"/>
<g stroke="black" stroke-width="1" fill="none">
<line x1="418.535" y1="351.032" x2="419.535" y2="351.032"/>
</g>
<path d="M435.462,319.363v -14.8569" fill="none" stroke="black" stroke-width="2"/>
<path d="M435.462,304.506v -14.8569" fill="none" stroke="black" stroke-width="2"/>
<path d="M427.498,304.506h 7.96355" fill="none" stroke="black" stroke-width="2"/>
<path d="M435.462,304.506h 7.96355" fill="none" stroke="black" stroke-width="2"/>
<g stroke="black" stroke-width="1" fill="none">
<line x1="434.462" y1="304.506" x2="435.462" y2="304.506"/>
</g>
<path d="M451.389,358.128v -13.8026" fill="none" stroke="black" stroke-width="2"/>
<path d="M451.389,344.326v -13.8026" fill="none" stroke="black" stroke-width="2"/>
<path d="M443.425,344.326h 7.96355" fill="none" stroke="black" stroke-width="2"/>
<path d="M451.389,344.326h 7.96355" fill="none" stroke="black" stroke-width="2"/>
<g stroke="black" stroke-width="1" fill="none">
<line x1="450.389" y1="344.326" x2="451.389" y2="344.326"/>
</g>
<path d="M467.316,361.949v -14.3643" fill="none" stroke="black" stroke-width="2"/>
<path d="M467.316,347.585v -14.3643" fill="none" stroke="black" stroke-width="2"/>
<path d="M459.352,347.585h 7.96355" fill="none" stroke="black" stroke-width="2"/>
<path d="M467.316,347.585h 7.96355" fill="none" stroke="black" stroke-width="2"/>
<g stroke="black" stroke-width="1" fill="none">
<line x1="466.316" y1="347.585" x2="467.316" y2="347.585"/>
</g>
<path d="M483.243,365.527v -13.53" fill="none" stroke="black" stroke-width="2"/>
<path d="M483.243,351.997v -13.53" fill="none" stroke="black" stroke-width="2"/>
<path d="M475.279,351.997h 7.96355" fill="none" stroke="black" stroke-width="2"/>
<path d="M483.243,351.997h 7.96355" fill="none" stroke="black" stroke-width="2"/>
<g stroke="black" stroke-width="1" fill="none">
<line x1="482.243" y1="351.997" x2="483.243" y2="351.997"/>
</g>
<path d="M499.17,347.945v -22.1125" fill="none" stroke="black" stroke-width="2"/>
<path d="M499.17,325.832v -22.1125" fill="none" stroke="black" stroke-width="2"/>
<path d="M491.207,325.832h 7.96355" fill="none" stroke="black" stroke-width="2"/>
<path d="M499.17,325.832h 7.96355" fill="none" stroke="black" stroke-width="2"/>
<g stroke="black" stroke-width="1" fill="none">
<line x1="498.17" y1="325.832" x2="499.17" y2="325.832"/>
</g>
<path d="M63.5638,338.24l 4.77813, -0.0337599l 4.77813, -0.0337599l 4.77813, -0.0337599l 4.77813, -0.0337599l 4.77813, -0.0337599l 4.77813, -0.0337599l 4.77813, -0.0337599l 4.77813, -0.0337599l 4.77813, -0.0337599l 4.77813, -0.0337599l 4.77813,
 -0.0337599l 4.77813, -0.0337599l 4.77813, -0.0337599l 4.77813, -0.0337599l 4.77813, -0.0337599l 4.77813, -0.0337599l 4.77813, -0.0337599l 4.77813, -0.0337599l 4.77813, -0.0337599l 4.77813, -0.0337599l 4.77813, -0.0337599l 4.77813, -0.0337599l
 4.77813, -0.0337599l 4.77813, -0.0337599l 4.77813, -0.0337599l 4.77813, -0.0337599l 4.77813, -0.0337599l 4.77813, -0.0337599l 4.77813, -0.0337599l 4.77813, -0.0337599l 4.77813, -0.0337599l 4.77813, -0.0337599l 4.77813, -0.0337599l 4.77813,
 -0.0337599l 4.77813, -0.0337599l 4.77813, -0.0337599l 4.77813, -0.0337599l 4.77813, -0.0337599l 4.77813, -0.0337599l 4.77813, -0.0337599l 4.77813, -0.0337599l 4.77813, -0.0337599l 4.77813, -0.0337599l 4.77813, -0.0337599l 4.77813, -0.0337599l
 4.77813, -0.0337599l 4.77813, -0.0337599l 4.77813, -0.0337599l 4.77813, -0.0337599" fill="none" stroke="#339966" stroke-width="2"/>
<path d="M297.692,336.586l 4.77813, -0.0337599l 4.77813, -0.0337599l 4.77813, -0.0337599l 4.77813, -0.0337599l 4.77813, -0.0337599l 4.77813, -0.0337599l 4.77813, -0.0337599l 4.77813, -0.0337599l 4.77813, -0.0337599l 4.77813, -0.0337599l 4.77813,
 -0.0337599l 4.77813, -0.0337599l 4.77813, -0.0337599l 4.77813, -0.0337599l 4.77813, -0.0337599l 4.77813, -0.0337599l 4.77813, -0.0337599l 4.77813, -0.0337599l 4.77813, -0.0337599l 4.77813, -0.0337599l 4.77813, -0.0337599l 4.77813, -0.0337599l
 4.77813, -0.0337599l 4.77813, -0.0337599l 4.77813, -0.0337599l 4.77813, -0.0337599l 4.77813, -0.0337599l 4.77813, -0.0337599l 4.77813, -0.0337599l 4.77813, -0.0337599l 4.77813, -0.0337599l 4.77813, -0.0337599l 4.77813, -0.0337599l 4.77813,
 -0.0337599l 4.77813, -0.0337599l 4.77813, -0.0337599l 4.77813, -0.0337599l 4.77813, -0.0337599l 4.77813, -0.0337599l 4.77813, -0.0337599l 4.77813, -0.0337599l 4.77813, -0.0337599l 4.77813, -0.0337599l 4.77813, -0.0337599l 4.77813, -0.0337599l
 4.77813, -0.0337599l 4.77813, -0.0337599l 4.77813, -0.0337599l 4.77813, -0.0337599" fill="none" stroke="#339966" stroke-width="2"/>
<path d="M531.821,334.931l 4.77813, -0.0337599" fill="none" stroke="#339966" stroke-width="2"/>
<path d="M61.1747,489.19h 477.813" fill="none" stroke="black"/>
<path d="M61.1747,482.427v 6.76263" fill="none" stroke="black"/>
<path d="M77.1018,485.808v 3.38132" fill="none" stroke="black"/>
<path d="M93.0289,485.808v 3.38132" fill="none" stroke="black"/>
<path d="M108.956,485.808v 3.38132" fill="none" stroke="black"/>
<path d="M124.883,485.808v 3.38132" fill="none" stroke="black"/>
<path d="M140.81,482.427v 6.76263" fill="none" stroke="black"/>
<path d="M156.737,485.808v 3.38132" fill="none" stroke="black"/>
<path d="M172.664,485.808v 3.38132" fill="none" stroke="black"/>
<path d="M188.592,485.808v 3.38132" fill="none" stroke="black"/>
<path d="M204.519,485.808v 3.38132" fill="none" stroke="black"/>
<path d="M220.446,482.427v 6.76263" fill="none" stroke="black"/>
<path d="M236.373,485.808v 3.38132" fill="none" stroke="black"/>
<path d="M252.3,485.808v 3.38132" fill="none" stroke="black"/>
<path d="M268.227,485.808v 3.38132" fill="none" stroke="black"/>
<path d="M284.154,485.808v 3.38132" fill="none" stroke="black"/>
<path d="M300.081,482.427v 6.76263" fill="none" stroke="black"/>
<path d="M316.008,485.808v 3.38132" fill="none" stroke="black"/>
<path d="M331.935,485.808v 3.38132" fill="none" stroke="black"/>
<path d="M347.863,485.808v 3.38132" fill="none" stroke="black"/>
<path d="M363.79,485.808v 3.38132" fill="none" stroke="black"/>
<path d="M379.717,482.427v 6.76263" fill="none" stroke="black"/>
<path d="M395.644,485.808v 3.38132" fill="none" stroke="black"/>
<path d="M411.571,485.808v 3.38132" fill="none" stroke="black"/>
<path d="M427.498,485.808v 3.38132" fill="none" stroke="black"/>
<path d="M443.425,485.808v 3.38132" fill="none" stroke="black"/>
<path d="M459.352,482.427v 6.76263" fill="none" stroke="black"/>
<path d="M475.279,485.808v 3.38132" fill="none" stroke="black"/>
<path d="M491.207,485.808v 3.38132" fill="none" stroke="black"/>
<path d="M507.134,485.808v 3.38132" fill="none" stroke="black"/>
<path d="M523.061,485.808v 3.38132" fill="none" stroke="black"/>
<path d="M538.988,482.427v 6.76263" fill="none" stroke="black"/>
<path d="M538.988,482.427v 6.76263" fill="none" stroke="black"/>
<text xml:space="preserve" x="60.2266" y="497.722" fill="black" font-size="8.91652" font-family="Helvetica">3</text>
<text xml:space="preserve" x="56.4345" y="497.722" fill="black" font-size="8.91652" font-family="Times">&#8722;</text>
<text xml:space="preserve" x="139.862" y="497.722" fill="black" font-size="8.91652" font-family="Helvetica">2</text>
<text xml:space="preserve" x="136.07" y="497.722" fill="black" font-size="8.91652" font-family="Times">&#8722;</text>
<text xml:space="preserve" x="220.446" y="497.722" fill="black" font-size="8.91652" font-family="Helvetica">1</text>
<text xml:space="preserve" x="215.706" y="497.722" fill="black" font-size="8.91652" font-family="Times">&#8722;</text>
<text xml:space="preserve" x="297.237" y="497.722" fill="black" font-size="8.91652" font-family="Helvetica">0</text>
<text xml:space="preserve" x="377.821" y="497.722" fill="black" font-size="8.91652" font-family="Helvetica">1</text>
<text xml:space="preserve" x="456.508" y="497.722" fill="black" font-size="8.91652" font-family="Helvetica">2</text>
<text xml:space="preserve" x="536.144" y="497.722" fill="black" font-size="8.91652" font-family="Helvetica">3</text>
<text xml:space="preserve" x="531.404" y="517.631" fill="black" font-size="14.9283" font-family="Times">&#0951;</text>
<text xml:space="preserve" x="507.702" y="517.631" fill="black" font-size="14.9283" font-family="Helvetica">Jet </text>
<path d="M61.1747,279.672h 477.813" fill="none" stroke="black"/>
<path d="M61.1747,286.435v -6.76263" fill="none" stroke="black"/>
<path d="M77.1018,283.054v -3.38132" fill="none" stroke="black"/>
<path d="M93.0289,283.054v -3.38132" fill="none" stroke="black"/>
<path d="M108.956,283.054v -3.38132" fill="none" stroke="black"/>
<path d="M124.883,283.054v -3.38132" fill="none" stroke="black"/>
<path d="M140.81,286.435v -6.76263" fill="none" stroke="black"/>
<path d="M156.737,283.054v -3.38132" fill="none" stroke="black"/>
<path d="M172.664,283.054v -3.38132" fill="none" stroke="black"/>
<path d="M188.592,283.054v -3.38132" fill="none" stroke="black"/>
<path d="M204.519,283.054v -3.38132" fill="none" stroke="black"/>
<path d="M220.446,286.435v -6.76263" fill="none" stroke="black"/>
<path d="M236.373,283.054v -3.38132" fill="none" stroke="black"/>
<path d="M252.3,283.054v -3.38132" fill="none" stroke="black"/>
<path d="M268.227,283.054v -3.38132" fill="none" stroke="black"/>
<path d="M284.154,283.054v -3.38132" fill="none" stroke="black"/>
<path d="M300.081,286.435v -6.76263" fill="none" stroke="black"/>
<path d="M316.008,283.054v -3.38132" fill="none" stroke="black"/>
<path d="M331.935,283.054v -3.38132" fill="none" stroke="black"/>
<path d="M347.863,283.054v -3.38132" fill="none" stroke="black"/>
<path d="M363.79,283.054v -3.38132" fill="none" stroke="black"/>
<path d="M379.717,286.435v -6.76263" fill="none" stroke="black"/>
<path d="M395.644,283.054v -3.38132" fill="none" stroke="black"/>
<path d="M411.571,283.054v -3.38132" fill="none" stroke="black"/>
<path d="M427.498,283.054v -3.38132" fill="none" stroke="black"/>
<path d="M443.425,283.054v -3.38132" fill="none" stroke="black"/>
<path d="M459.352,286.435v -6.76263" fill="none" stroke="black"/>
<path d="M475.279,283.054v -3.38132" fill="none" stroke="black"/>
<path d="M491.207,283.054v -3.38132" fill="none" stroke="black"/>
<path d="M507.134,283.054v -3.38132" fill="none" stroke="black"/>
<path d="M523.061,283.054v -3.38132" fill="none" stroke="black"/>
<path d="M538.988,286.435v -6.76263" fill="none" stroke="black"/>
<path d="M538.988,286.435v -6.76263" fill="none" stroke="black"/>
<path d="M61.1747,489.19v -209.517" fill="none" stroke="black"/>
<path d="M74.4978,489.19h -13.3231" fill="none" stroke="black"/>
<path d="M67.8362,480.335h -6.66154" fill="none" stroke="black"/>
<path d="M67.8362,471.48h -6.66154" fill="none" stroke="black"/>
<path d="M67.8362,462.625h -6.66154" fill="none" stroke="black"/>
<path d="M74.4978,453.77h -13.3231" fill="none" stroke="black"/>
<path d="M67.8362,444.914h -6.66154" fill="none" stroke="black"/>
<path d="M67.8362,436.059h -6.66154" fill="none" stroke="black"/>
<path d="M67.8362,427.204h -6.66154" fill="none" stroke="black"/>
<path d="M74.4978,418.349h -13.3231" fill="none" stroke="black"/>
<path d="M67.8362,409.494h -6.66154" fill="none" stroke="black"/>
<path d="M67.8362,400.639h -6.66154" fill="none" stroke="black"/>
<path d="M67.8362,391.784h -6.66154" fill="none" stroke="black"/>
<path d="M74.4978,382.929h -13.3231" fill="none" stroke="black"/>
<path d="M67.8362,374.074h -6.66154" fill="none" stroke="black"/>
<path d="M67.8362,365.219h -6.66154" fill="none" stroke="black"/>
<path d="M67.8362,356.364h -6.66154" fill="none" stroke="black"/>
<path d="M74.4978,347.509h -13.3231" fill="none" stroke="black"/>
<path d="M67.8362,338.654h -6.66154" fill="none" stroke="black"/>
<path d="M67.8362,329.799h -6.66154" fill="none" stroke="black"/>
<path d="M67.8362,320.944h -6.66154" fill="none" stroke="black"/>
<path d="M74.4978,312.089h -13.3231" fill="none" stroke="black"/>
<path d="M74.4978,312.089h -13.3231" fill="none" stroke="black"/>
<path d="M67.8362,303.234h -6.66154" fill="none" stroke="black"/>
<path d="M67.8362,294.379h -6.66154" fill="none" stroke="black"/>
<path d="M67.8362,285.524h -6.66154" fill="none" stroke="black"/>
<text xml:space="preserve" x="53.5904" y="492.982" fill="black" font-size="8.91652" font-family="Helvetica">0</text>
<text xml:space="preserve" x="46.006" y="456.956" fill="black" font-size="8.91652" font-family="Helvetica">0.2</text>
<text xml:space="preserve" x="46.006" y="421.879" fill="black" font-size="8.91652" font-family="Helvetica">0.4</text>
<text xml:space="preserve" x="46.006" y="385.853" fill="black" font-size="8.91652" font-family="Helvetica">0.6</text>
<text xml:space="preserve" x="46.006" y="350.776" fill="black" font-size="8.91652" font-family="Helvetica">0.8</text>
<text xml:space="preserve" x="54.5384" y="315.698" fill="black" font-size="8.91652" font-family="Helvetica">1</text>
<g transform="rotate(-90,18.5128,460.748)">
<text xml:space="preserve" x="18.5128" y="460.748" fill="black" font-size="14.9283" font-family="Helvetica">True Background / Predicted</text>
</g>
<text xml:space="preserve" x="328.523" y="401.97" fill="black" font-size="14.9283" font-family="Helvetica">Fitting function: par0 + par1*x</text>
<text xml:space="preserve" x="333.263" y="428.515" fill="black" font-size="14.9283" font-family="Helvetica">par0 : 0.861775 +- 0.0142958</text>
<text xml:space="preserve" x="333.263" y="454.112" fill="black" font-size="14.9283" font-family="Helvetica">par1 : 0.00317709 +- 0.0106328</text></svg>
