<?xml version="1.0" standalone="no"?>
<svg width="567.429" height="546.572" viewBox="0 0 567.429 546.572" xmlns="http://www.w3.org/2000/svg" shape-rendering="crispEdges">
<title>
/home/kuanyu/Documents/CMS/Background_Estimate/fake_rate/top_emu/CT_Top(emu)_JetPT_byjetpt_LO.svg
</title>
<desc>
Creator: ROOT Version 6.26/04
CreationDate: Thu Dec 22 17:53:40 2022</desc>
<defs>
</defs>
<rect x="0.5" y="0" width="566.929" height="546.072" fill="white"/>
<rect x="6.16929" y="5.46072" width="555.591" height="262.115" fill="white"/>
<rect x="61.7283" y="8.08187" width="477.808" height="259.493" fill="white"/>
<rect x="61.7283" y="8.08187" width="477.808" height="259.493" fill="none" stroke="black"/>
<rect x="61.7283" y="8.08187" width="477.808" height="259.493" fill="white"/>
<rect x="61.7283" y="8.08187" width="477.808" height="259.493" fill="none" stroke="black"/>
<path d="M76.0626,36.528v -1.1594" fill="none" stroke="#ff0000" stroke-width="2"/>
<path d="M76.0626,35.3686v -1.12746" fill="none" stroke="#ff0000" stroke-width="2"/>
<path d="M71.2845,35.3686h 4.77808" fill="none" stroke="#ff0000" stroke-width="2"/>
<path d="M76.0626,35.3686h 4.77808" fill="none" stroke="#ff0000" stroke-width="2"/>
<g stroke="black" stroke-width="1" fill="none">
<line x1="75.0626" y1="35.3686" x2="76.0626" y2="35.3686"/>
</g>
<path d="M85.6187,48.4665v -1.31122" fill="none" stroke="#ff0000" stroke-width="2"/>
<path d="M85.6187,47.1553v -1.27052" fill="none" stroke="#ff0000" stroke-width="2"/>
<path d="M80.8407,47.1553h 4.77808" fill="none" stroke="#ff0000" stroke-width="2"/>
<path d="M85.6187,47.1553h 4.77808" fill="none" stroke="#ff0000" stroke-width="2"/>
<g stroke="black" stroke-width="1" fill="none">
<line x1="84.6187" y1="47.1553" x2="85.6187" y2="47.1553"/>
</g>
<path d="M95.1749,64.5078v -1.60176" fill="none" stroke="#ff0000" stroke-width="2"/>
<path d="M95.1749,62.9061v -1.54143" fill="none" stroke="#ff0000" stroke-width="2"/>
<path d="M90.3968,62.9061h 4.77808" fill="none" stroke="#ff0000" stroke-width="2"/>
<path d="M95.1749,62.9061h 4.77808" fill="none" stroke="#ff0000" stroke-width="2"/>
<g stroke="black" stroke-width="1" fill="none">
<line x1="94.1749" y1="62.9061" x2="95.1749" y2="62.9061"/>
</g>
<path d="M104.731,85.399v -2.10811" fill="none" stroke="#ff0000" stroke-width="2"/>
<path d="M104.731,83.2909v -2.00483" fill="none" stroke="#ff0000" stroke-width="2"/>
<path d="M99.953,83.2909h 4.77808" fill="none" stroke="#ff0000" stroke-width="2"/>
<path d="M104.731,83.2909h 4.77808" fill="none" stroke="#ff0000" stroke-width="2"/>
<g stroke="black" stroke-width="1" fill="none">
<line x1="103.731" y1="83.2909" x2="104.731" y2="83.2909"/>
</g>
<path d="M119.065,87.0296v -2.1408" fill="none" stroke="#ff0000" stroke-width="2"/>
<path d="M119.065,84.8888v -2.03438" fill="none" stroke="#ff0000" stroke-width="2"/>
<path d="M109.509,84.8888h 9.55616" fill="none" stroke="#ff0000" stroke-width="2"/>
<path d="M119.065,84.8888h 9.55616" fill="none" stroke="#ff0000" stroke-width="2"/>
<g stroke="black" stroke-width="1" fill="none">
<line x1="118.065" y1="84.8888" x2="119.065" y2="84.8888"/>
</g>
<path d="M138.178,124.583v -3.82776" fill="none" stroke="#ff0000" stroke-width="2"/>
<path d="M138.178,120.755v -3.50023" fill="none" stroke="#ff0000" stroke-width="2"/>
<path d="M128.621,120.755h 9.55616" fill="none" stroke="#ff0000" stroke-width="2"/>
<path d="M138.178,120.755h 9.55616" fill="none" stroke="#ff0000" stroke-width="2"/>
<g stroke="black" stroke-width="1" fill="none">
<line x1="137.178" y1="120.755" x2="138.178" y2="120.755"/>
</g>
<path d="M160.475,168.334v -7.88256" fill="none" stroke="#ff0000" stroke-width="2"/>
<path d="M160.475,160.452v -6.60694" fill="none" stroke="#ff0000" stroke-width="2"/>
<path d="M147.734,160.452h 12.7415" fill="none" stroke="#ff0000" stroke-width="2"/>
<path d="M160.475,160.452h 12.7415" fill="none" stroke="#ff0000" stroke-width="2"/>
<g stroke="black" stroke-width="1" fill="none">
<line x1="159.475" y1="160.452" x2="160.475" y2="160.452"/>
</g>
<path d="M189.144,217.546v -14.161" fill="none" stroke="#ff0000" stroke-width="2"/>
<path d="M189.144,203.385v -10.5011" fill="none" stroke="#ff0000" stroke-width="2"/>
<path d="M173.217,203.385h 15.9269" fill="none" stroke="#ff0000" stroke-width="2"/>
<path d="M189.144,203.385h 15.9269" fill="none" stroke="#ff0000" stroke-width="2"/>
<g stroke="black" stroke-width="1" fill="none">
<line x1="188.144" y1="203.385" x2="189.144" y2="203.385"/>
</g>
<path d="M372.303,239.203v -17.2619" fill="none" stroke="#ff0000" stroke-width="2"/>
<path d="M372.303,221.941v -12.1041" fill="none" stroke="#ff0000" stroke-width="2"/>
<path d="M205.071,221.941h 167.233" fill="none" stroke="#ff0000" stroke-width="2"/>
<path d="M372.303,221.941h 167.233" fill="none" stroke="#ff0000" stroke-width="2"/>
<g stroke="black" stroke-width="1" fill="none">
<line x1="371.303" y1="221.941" x2="372.303" y2="221.941"/>
</g>
<path d="M61.7283,267.575h 477.808" fill="none" stroke="black"/>
<path d="M61.7283,260.813v 6.76256" fill="none" stroke="black"/>
<path d="M77.6553,264.194v 3.38128" fill="none" stroke="black"/>
<path d="M93.5822,264.194v 3.38128" fill="none" stroke="black"/>
<path d="M109.509,264.194v 3.38128" fill="none" stroke="black"/>
<path d="M125.436,260.813v 6.76256" fill="none" stroke="black"/>
<path d="M141.363,264.194v 3.38128" fill="none" stroke="black"/>
<path d="M157.29,264.194v 3.38128" fill="none" stroke="black"/>
<path d="M173.217,264.194v 3.38128" fill="none" stroke="black"/>
<path d="M189.144,260.813v 6.76256" fill="none" stroke="black"/>
<path d="M205.071,264.194v 3.38128" fill="none" stroke="black"/>
<path d="M220.998,264.194v 3.38128" fill="none" stroke="black"/>
<path d="M236.925,264.194v 3.38128" fill="none" stroke="black"/>
<path d="M252.852,260.813v 6.76256" fill="none" stroke="black"/>
<path d="M268.778,264.194v 3.38128" fill="none" stroke="black"/>
<path d="M284.705,264.194v 3.38128" fill="none" stroke="black"/>
<path d="M300.632,264.194v 3.38128" fill="none" stroke="black"/>
<path d="M316.559,260.813v 6.76256" fill="none" stroke="black"/>
<path d="M332.486,264.194v 3.38128" fill="none" stroke="black"/>
<path d="M348.413,264.194v 3.38128" fill="none" stroke="black"/>
<path d="M364.34,264.194v 3.38128" fill="none" stroke="black"/>
<path d="M380.267,260.813v 6.76256" fill="none" stroke="black"/>
<path d="M396.194,264.194v 3.38128" fill="none" stroke="black"/>
<path d="M412.121,264.194v 3.38128" fill="none" stroke="black"/>
<path d="M428.048,264.194v 3.38128" fill="none" stroke="black"/>
<path d="M443.975,260.813v 6.76256" fill="none" stroke="black"/>
<path d="M459.902,264.194v 3.38128" fill="none" stroke="black"/>
<path d="M475.828,264.194v 3.38128" fill="none" stroke="black"/>
<path d="M491.755,264.194v 3.38128" fill="none" stroke="black"/>
<path d="M507.682,260.813v 6.76256" fill="none" stroke="black"/>
<path d="M507.682,260.813v 6.76256" fill="none" stroke="black"/>
<path d="M523.609,264.194v 3.38128" fill="none" stroke="black"/>
<text xml:space="preserve" x="514.339" y="285.361" fill="black" font-size="8.91652" font-family="Helvetica">Jet PT</text>
<path d="M61.7283,267.575v -259.493" fill="none" stroke="black"/>
<path d="M69.9789,262.339h -8.25052" fill="none" stroke="black"/>
<path d="M69.9789,254.876h -8.25052" fill="none" stroke="black"/>
<path d="M69.9789,248.566h -8.25052" fill="none" stroke="black"/>
<path d="M69.9789,243.1h -8.25052" fill="none" stroke="black"/>
<path d="M69.9789,238.279h -8.25052" fill="none" stroke="black"/>
<path d="M78.2294,233.967h -16.501" fill="none" stroke="black"/>
<text xml:space="preserve" x="53.5904" y="237.01" fill="black" font-size="8.91652" font-family="Helvetica">1</text>
<path d="M69.9789,205.594h -8.25052" fill="none" stroke="black"/>
<path d="M69.9789,188.997h -8.25052" fill="none" stroke="black"/>
<path d="M69.9789,177.222h -8.25052" fill="none" stroke="black"/>
<path d="M69.9789,168.088h -8.25052" fill="none" stroke="black"/>
<path d="M69.9789,160.625h -8.25052" fill="none" stroke="black"/>
<path d="M69.9789,154.315h -8.25052" fill="none" stroke="black"/>
<path d="M69.9789,148.849h -8.25052" fill="none" stroke="black"/>
<path d="M69.9789,144.028h -8.25052" fill="none" stroke="black"/>
<path d="M78.2294,139.716h -16.501" fill="none" stroke="black"/>
<text xml:space="preserve" x="47.9021" y="143.154" fill="black" font-size="8.91652" font-family="Helvetica">10</text>
<path d="M69.9789,111.343h -8.25052" fill="none" stroke="black"/>
<path d="M69.9789,94.7465h -8.25052" fill="none" stroke="black"/>
<path d="M69.9789,82.9709h -8.25052" fill="none" stroke="black"/>
<path d="M69.9789,73.8371h -8.25052" fill="none" stroke="black"/>
<path d="M69.9789,66.3742h -8.25052" fill="none" stroke="black"/>
<path d="M69.9789,60.0644h -8.25052" fill="none" stroke="black"/>
<path d="M69.9789,54.5986h -8.25052" fill="none" stroke="black"/>
<path d="M69.9789,49.7774h -8.25052" fill="none" stroke="black"/>
<path d="M78.2294,45.4647h -16.501" fill="none" stroke="black"/>
<text xml:space="preserve" x="53.5904" y="44.558" fill="black" font-size="6.11102" font-family="Helvetica">2</text>
<text xml:space="preserve" x="44.1099" y="49.2982" fill="black" font-size="8.91652" font-family="Helvetica">10</text>
<path d="M69.9789,17.0924h -8.25052" fill="none" stroke="black"/>
<g transform="rotate(-90,20.4089,35.0776)">
<text xml:space="preserve" x="20.4089" y="35.0776" fill="black" font-size="14.9283" font-family="Helvetica">nJet</text>
</g>
<path d="M76.0626,36.3224v -0.361133" fill="none" stroke="#006699" stroke-width="2"/>
<path d="M76.0626,35.9613v -0.357974" fill="none" stroke="#006699" stroke-width="2"/>
<path d="M71.2845,35.9613h 4.77808" fill="none" stroke="#006699" stroke-width="2"/>
<path d="M76.0626,35.9613h 4.77808" fill="none" stroke="#006699" stroke-width="2"/>
<g stroke="black" stroke-width="1" fill="none">
<line x1="75.0626" y1="35.9613" x2="76.0626" y2="35.9613"/>
</g>
<path d="M85.6187,46.8372v -0.376566" fill="none" stroke="#006699" stroke-width="2"/>
<path d="M85.6187,46.4606v -0.373133" fill="none" stroke="#006699" stroke-width="2"/>
<path d="M80.8407,46.4606h 4.77808" fill="none" stroke="#006699" stroke-width="2"/>
<path d="M85.6187,46.4606h 4.77808" fill="none" stroke="#006699" stroke-width="2"/>
<g stroke="black" stroke-width="1" fill="none">
<line x1="84.6187" y1="46.4606" x2="85.6187" y2="46.4606"/>
</g>
<path d="M95.1749,61.458v -0.436263" fill="none" stroke="#006699" stroke-width="2"/>
<path d="M95.1749,61.0218v -0.431662" fill="none" stroke="#006699" stroke-width="2"/>
<path d="M90.3968,61.0218h 4.77808" fill="none" stroke="#006699" stroke-width="2"/>
<path d="M95.1749,61.0218h 4.77808" fill="none" stroke="#006699" stroke-width="2"/>
<g stroke="black" stroke-width="1" fill="none">
<line x1="94.1749" y1="61.0218" x2="95.1749" y2="61.0218"/>
</g>
<path d="M104.731,75.4901v -0.518651" fill="none" stroke="#006699" stroke-width="2"/>
<path d="M104.731,74.9714v -0.512161" fill="none" stroke="#006699" stroke-width="2"/>
<path d="M99.953,74.9714h 4.77808" fill="none" stroke="#006699" stroke-width="2"/>
<path d="M104.731,74.9714h 4.77808" fill="none" stroke="#006699" stroke-width="2"/>
<g stroke="black" stroke-width="1" fill="none">
<line x1="103.731" y1="74.9714" x2="104.731" y2="74.9714"/>
</g>
<path d="M119.065,76.2011v -0.483919" fill="none" stroke="#006699" stroke-width="2"/>
<path d="M119.065,75.7172v -0.478265" fill="none" stroke="#006699" stroke-width="2"/>
<path d="M109.509,75.7172h 9.55616" fill="none" stroke="#006699" stroke-width="2"/>
<path d="M119.065,75.7172h 9.55616" fill="none" stroke="#006699" stroke-width="2"/>
<g stroke="black" stroke-width="1" fill="none">
<line x1="118.065" y1="75.7172" x2="119.065" y2="75.7172"/>
</g>
<path d="M138.178,111.196v -0.678366" fill="none" stroke="#006699" stroke-width="2"/>
<path d="M138.178,110.518v -0.667306" fill="none" stroke="#006699" stroke-width="2"/>
<path d="M128.621,110.518h 9.55616" fill="none" stroke="#006699" stroke-width="2"/>
<path d="M138.178,110.518h 9.55616" fill="none" stroke="#006699" stroke-width="2"/>
<g stroke="black" stroke-width="1" fill="none">
<line x1="137.178" y1="110.518" x2="138.178" y2="110.518"/>
</g>
<path d="M160.475,152.653v -0.819065" fill="none" stroke="#006699" stroke-width="2"/>
<path d="M160.475,151.834v -0.802996" fill="none" stroke="#006699" stroke-width="2"/>
<path d="M147.734,151.834h 12.7415" fill="none" stroke="#006699" stroke-width="2"/>
<path d="M160.475,151.834h 12.7415" fill="none" stroke="#006699" stroke-width="2"/>
<g stroke="black" stroke-width="1" fill="none">
<line x1="159.475" y1="151.834" x2="160.475" y2="151.834"/>
</g>
<path d="M189.144,198.138v -1.05574" fill="none" stroke="#006699" stroke-width="2"/>
<path d="M189.144,197.082v -1.02919" fill="none" stroke="#006699" stroke-width="2"/>
<path d="M173.217,197.082h 15.9269" fill="none" stroke="#006699" stroke-width="2"/>
<path d="M189.144,197.082h 15.9269" fill="none" stroke="#006699" stroke-width="2"/>
<g stroke="black" stroke-width="1" fill="none">
<line x1="188.144" y1="197.082" x2="189.144" y2="197.082"/>
</g>
<path d="M372.303,178.622v -1.12122" fill="none" stroke="#006699" stroke-width="2"/>
<path d="M372.303,177.501v -1.09132" fill="none" stroke="#006699" stroke-width="2"/>
<path d="M205.071,177.501h 167.233" fill="none" stroke="#006699" stroke-width="2"/>
<path d="M372.303,177.501h 167.233" fill="none" stroke="#006699" stroke-width="2"/>
<g stroke="black" stroke-width="1" fill="none">
<line x1="371.303" y1="177.501" x2="372.303" y2="177.501"/>
</g>
<text xml:space="preserve" x="260.264" y="70.1551" fill="black" font-size="14.9283" font-family="Helvetica">Top to emu</text>
<text xml:space="preserve" x="303.873" y="87.2199" fill="black" font-size="14.9283" font-family="Helvetica">True Background</text>
<path d="M263.477,84.0951h 34.0299" fill="none" stroke="#ff0000" stroke-width="2"/>
<path d="M280.492,89.3374v -10.4846" fill="none" stroke="#ff0000" stroke-width="2"/>
<text xml:space="preserve" x="303.873" y="105.233" fill="black" font-size="14.9283" font-family="Helvetica">Predict</text>
<path d="M263.477,101.569h 34.0299" fill="none" stroke="#006699" stroke-width="2"/>
<path d="M280.492,106.812v -10.4846" fill="none" stroke="#006699" stroke-width="2"/>
<rect x="6.16929" y="278.497" width="555.591" height="262.115" fill="white"/>
<rect x="61.7283" y="278.497" width="477.808" height="209.692" fill="white"/>
<rect x="61.7283" y="278.497" width="477.808" height="209.692" fill="none" stroke="black"/>
<rect x="61.7283" y="278.497" width="477.808" height="209.692" fill="white"/>
<rect x="61.7283" y="278.497" width="477.808" height="209.692" fill="none" stroke="black"/>
<path d="M76.0626,310.827v -5.34903" fill="none" stroke="black" stroke-width="2"/>
<path d="M76.0626,305.478v -5.34903" fill="none" stroke="black" stroke-width="2"/>
<path d="M71.2845,305.478h 4.77808" fill="none" stroke="black" stroke-width="2"/>
<path d="M76.0626,305.478h 4.77808" fill="none" stroke="black" stroke-width="2"/>
<g stroke="black" stroke-width="1" fill="none">
<line x1="75.0626" y1="305.478" x2="76.0626" y2="305.478"/>
</g>
<path d="M85.6187,316.948v -5.81247" fill="none" stroke="black" stroke-width="2"/>
<path d="M85.6187,311.136v -5.81247" fill="none" stroke="black" stroke-width="2"/>
<path d="M80.8407,311.136h 4.77808" fill="none" stroke="black" stroke-width="2"/>
<path d="M85.6187,311.136h 4.77808" fill="none" stroke="black" stroke-width="2"/>
<g stroke="black" stroke-width="1" fill="none">
<line x1="84.6187" y1="311.136" x2="85.6187" y2="311.136"/>
</g>
<path d="M95.1749,323.054v -6.84713" fill="none" stroke="black" stroke-width="2"/>
<path d="M95.1749,316.207v -6.84713" fill="none" stroke="black" stroke-width="2"/>
<path d="M90.3968,316.207h 4.77808" fill="none" stroke="black" stroke-width="2"/>
<path d="M95.1749,316.207h 4.77808" fill="none" stroke="black" stroke-width="2"/>
<g stroke="black" stroke-width="1" fill="none">
<line x1="94.1749" y1="316.207" x2="95.1749" y2="316.207"/>
</g>
<path d="M104.731,348.832v -7.60572" fill="none" stroke="black" stroke-width="2"/>
<path d="M104.731,341.227v -7.60572" fill="none" stroke="black" stroke-width="2"/>
<path d="M99.953,341.227h 4.77808" fill="none" stroke="black" stroke-width="2"/>
<path d="M104.731,341.227h 4.77808" fill="none" stroke="black" stroke-width="2"/>
<g stroke="black" stroke-width="1" fill="none">
<line x1="103.731" y1="341.227" x2="104.731" y2="341.227"/>
</g>
<path d="M119.065,351.781v -7.52691" fill="none" stroke="black" stroke-width="2"/>
<path d="M119.065,344.255v -7.52691" fill="none" stroke="black" stroke-width="2"/>
<path d="M109.509,344.255h 9.55616" fill="none" stroke="black" stroke-width="2"/>
<path d="M119.065,344.255h 9.55616" fill="none" stroke="black" stroke-width="2"/>
<g stroke="black" stroke-width="1" fill="none">
<line x1="118.065" y1="344.255" x2="119.065" y2="344.255"/>
</g>
<path d="M138.178,360.685v -12.7297" fill="none" stroke="black" stroke-width="2"/>
<path d="M138.178,347.955v -12.7297" fill="none" stroke="black" stroke-width="2"/>
<path d="M128.621,347.955h 9.55616" fill="none" stroke="black" stroke-width="2"/>
<path d="M138.178,347.955h 9.55616" fill="none" stroke="black" stroke-width="2"/>
<g stroke="black" stroke-width="1" fill="none">
<line x1="137.178" y1="347.955" x2="138.178" y2="347.955"/>
</g>
<path d="M160.475,368.011v -25.7192" fill="none" stroke="black" stroke-width="2"/>
<path d="M160.475,342.292v -25.7192" fill="none" stroke="black" stroke-width="2"/>
<path d="M147.734,342.292h 12.7415" fill="none" stroke="black" stroke-width="2"/>
<path d="M160.475,342.292h 12.7415" fill="none" stroke="black" stroke-width="2"/>
<g stroke="black" stroke-width="1" fill="none">
<line x1="159.475" y1="342.292" x2="160.475" y2="342.292"/>
</g>
<path d="M189.144,379.126v -45.3219" fill="none" stroke="black" stroke-width="2"/>
<path d="M189.144,333.804v -45.3219" fill="none" stroke="black" stroke-width="2"/>
<path d="M173.217,333.804h 15.9269" fill="none" stroke="black" stroke-width="2"/>
<path d="M189.144,333.804h 15.9269" fill="none" stroke="black" stroke-width="2"/>
<g stroke="black" stroke-width="1" fill="none">
<line x1="188.144" y1="333.804" x2="189.144" y2="333.804"/>
</g>
<path d="M372.303,448.367v -20.9872" fill="none" stroke="black" stroke-width="2"/>
<path d="M372.303,427.38v -20.9872" fill="none" stroke="black" stroke-width="2"/>
<path d="M205.071,427.38h 167.233" fill="none" stroke="black" stroke-width="2"/>
<path d="M372.303,427.38h 167.233" fill="none" stroke="black" stroke-width="2"/>
<g stroke="black" stroke-width="1" fill="none">
<line x1="371.303" y1="427.38" x2="372.303" y2="427.38"/>
</g>
<path d="M64.1174,306.335l 4.77808, 2.20688l 4.77808, 2.20688l 4.77808, 2.20688l 4.77808, 2.20688l 4.77808, 2.20688l 4.77808, 2.20688l 4.77808, 2.20688l 4.77808, 2.20688l 4.77808, 2.20688l 4.77808, 2.20688l 4.77808, 2.20688l 4.77808, 2.20688l
 4.77808, 2.20688l 4.77808, 2.20688l 4.77808, 2.20688l 4.77808, 2.20688l 4.77808, 2.20688l 4.77808, 2.20688l 4.77808, 2.20688l 4.77808, 2.20688l 4.77808, 2.20688l 4.77808, 2.20688l 4.77808, 2.20688l 4.77808, 2.20688l 4.77808, 2.20688l 4.77808,
 2.20688l 4.77808, 2.20688l 4.77808, 2.20688l 4.77808, 2.20688l 4.77808, 2.20688l 4.77808, 2.20688l 4.77808, 2.20688l 4.77808, 2.20688l 4.77808, 2.20688l 4.77808, 2.20688l 4.77808, 2.20688l 4.77808, 2.20688l 4.77808, 2.20688l 4.77808, 2.20688l
 4.77808, 2.20688l 4.77808, 2.20688l 4.77808, 2.20688l 4.77808, 2.20688l 4.77808, 2.20688l 4.77808, 2.20688l 4.77808, 2.20688l 4.77808, 2.20688l 4.77808, 2.20688l 4.77808, 2.20688" fill="none" stroke="#339966" stroke-width="2"/>
<path d="M298.243,414.472l 4.77808, 2.20688l 4.77808, 2.20688l 4.77808, 2.20688l 4.77808, 2.20688l 4.77808, 2.20688l 4.77808, 2.20688l 4.77808, 2.20688l 4.77808, 2.20688l 4.77808, 2.20688l 4.77808, 2.20688l 4.77808, 2.20688l 4.77808, 2.20688l
 4.77808, 2.20688l 4.77808, 2.20688l 4.77808, 2.20688l 4.77808, 2.20688l 4.77808, 2.20688l 4.77808, 2.20688l 4.77808, 2.20688l 4.77808, 2.20688l 4.77808, 2.20688l 4.77808, 2.20688l 4.77808, 2.20688l 4.77808, 2.20688l 4.77808, 2.20688l 4.77808,
 2.20688l 4.77808, 2.20688l 4.77808, 2.20688l 4.77808, 2.20688l 4.77808, 2.20688l 4.77808, 2.20688l 4.77808, 2.20688l 4.77808, 2.20688l 1.9261, 0.88962" fill="none" stroke="#339966" stroke-width="2"/>
<path d="M61.7283,488.189h 477.808" fill="none" stroke="black"/>
<path d="M61.7283,481.426v 6.76256" fill="none" stroke="black"/>
<path d="M77.6553,484.807v 3.38128" fill="none" stroke="black"/>
<path d="M93.5822,484.807v 3.38128" fill="none" stroke="black"/>
<path d="M109.509,484.807v 3.38128" fill="none" stroke="black"/>
<path d="M125.436,481.426v 6.76256" fill="none" stroke="black"/>
<path d="M141.363,484.807v 3.38128" fill="none" stroke="black"/>
<path d="M157.29,484.807v 3.38128" fill="none" stroke="black"/>
<path d="M173.217,484.807v 3.38128" fill="none" stroke="black"/>
<path d="M189.144,481.426v 6.76256" fill="none" stroke="black"/>
<path d="M205.071,484.807v 3.38128" fill="none" stroke="black"/>
<path d="M220.998,484.807v 3.38128" fill="none" stroke="black"/>
<path d="M236.925,484.807v 3.38128" fill="none" stroke="black"/>
<path d="M252.852,481.426v 6.76256" fill="none" stroke="black"/>
<path d="M268.778,484.807v 3.38128" fill="none" stroke="black"/>
<path d="M284.705,484.807v 3.38128" fill="none" stroke="black"/>
<path d="M300.632,484.807v 3.38128" fill="none" stroke="black"/>
<path d="M316.559,481.426v 6.76256" fill="none" stroke="black"/>
<path d="M332.486,484.807v 3.38128" fill="none" stroke="black"/>
<path d="M348.413,484.807v 3.38128" fill="none" stroke="black"/>
<path d="M364.34,484.807v 3.38128" fill="none" stroke="black"/>
<path d="M380.267,481.426v 6.76256" fill="none" stroke="black"/>
<path d="M396.194,484.807v 3.38128" fill="none" stroke="black"/>
<path d="M412.121,484.807v 3.38128" fill="none" stroke="black"/>
<path d="M428.048,484.807v 3.38128" fill="none" stroke="black"/>
<path d="M443.975,481.426v 6.76256" fill="none" stroke="black"/>
<path d="M459.902,484.807v 3.38128" fill="none" stroke="black"/>
<path d="M475.828,484.807v 3.38128" fill="none" stroke="black"/>
<path d="M491.755,484.807v 3.38128" fill="none" stroke="black"/>
<path d="M507.682,481.426v 6.76256" fill="none" stroke="black"/>
<path d="M507.682,481.426v 6.76256" fill="none" stroke="black"/>
<path d="M523.609,484.807v 3.38128" fill="none" stroke="black"/>
<text xml:space="preserve" x="58.3306" y="496.774" fill="black" font-size="8.91652" font-family="Helvetica">0</text>
<text xml:space="preserve" x="117.109" y="496.774" fill="black" font-size="8.91652" font-family="Helvetica">200</text>
<text xml:space="preserve" x="180.628" y="496.774" fill="black" font-size="8.91652" font-family="Helvetica">400</text>
<text xml:space="preserve" x="245.095" y="496.774" fill="black" font-size="8.91652" font-family="Helvetica">600</text>
<text xml:space="preserve" x="308.614" y="496.774" fill="black" font-size="8.91652" font-family="Helvetica">800</text>
<text xml:space="preserve" x="370.236" y="496.774" fill="black" font-size="8.91652" font-family="Helvetica">1000</text>
<text xml:space="preserve" x="433.755" y="496.774" fill="black" font-size="8.91652" font-family="Helvetica">1200</text>
<text xml:space="preserve" x="497.274" y="496.774" fill="black" font-size="8.91652" font-family="Helvetica">1400</text>
<text xml:space="preserve" x="497.274" y="518.579" fill="black" font-size="14.9283" font-family="Helvetica">Jet PT</text>
<path d="M61.7283,278.497h 477.808" fill="none" stroke="black"/>
<path d="M61.7283,285.259v -6.76256" fill="none" stroke="black"/>
<path d="M77.6553,281.878v -3.38128" fill="none" stroke="black"/>
<path d="M93.5822,281.878v -3.38128" fill="none" stroke="black"/>
<path d="M109.509,281.878v -3.38128" fill="none" stroke="black"/>
<path d="M125.436,285.259v -6.76256" fill="none" stroke="black"/>
<path d="M141.363,281.878v -3.38128" fill="none" stroke="black"/>
<path d="M157.29,281.878v -3.38128" fill="none" stroke="black"/>
<path d="M173.217,281.878v -3.38128" fill="none" stroke="black"/>
<path d="M189.144,285.259v -6.76256" fill="none" stroke="black"/>
<path d="M205.071,281.878v -3.38128" fill="none" stroke="black"/>
<path d="M220.998,281.878v -3.38128" fill="none" stroke="black"/>
<path d="M236.925,281.878v -3.38128" fill="none" stroke="black"/>
<path d="M252.852,285.259v -6.76256" fill="none" stroke="black"/>
<path d="M268.778,281.878v -3.38128" fill="none" stroke="black"/>
<path d="M284.705,281.878v -3.38128" fill="none" stroke="black"/>
<path d="M300.632,281.878v -3.38128" fill="none" stroke="black"/>
<path d="M316.559,285.259v -6.76256" fill="none" stroke="black"/>
<path d="M332.486,281.878v -3.38128" fill="none" stroke="black"/>
<path d="M348.413,281.878v -3.38128" fill="none" stroke="black"/>
<path d="M364.34,281.878v -3.38128" fill="none" stroke="black"/>
<path d="M380.267,285.259v -6.76256" fill="none" stroke="black"/>
<path d="M396.194,281.878v -3.38128" fill="none" stroke="black"/>
<path d="M412.121,281.878v -3.38128" fill="none" stroke="black"/>
<path d="M428.048,281.878v -3.38128" fill="none" stroke="black"/>
<path d="M443.975,285.259v -6.76256" fill="none" stroke="black"/>
<path d="M459.902,281.878v -3.38128" fill="none" stroke="black"/>
<path d="M475.828,281.878v -3.38128" fill="none" stroke="black"/>
<path d="M491.755,281.878v -3.38128" fill="none" stroke="black"/>
<path d="M507.682,285.259v -6.76256" fill="none" stroke="black"/>
<path d="M507.682,285.259v -6.76256" fill="none" stroke="black"/>
<path d="M523.609,281.878v -3.38128" fill="none" stroke="black"/>
<path d="M61.7283,488.189v -209.692" fill="none" stroke="black"/>
<path d="M75.0625,488.189h -13.3342" fill="none" stroke="black"/>
<path d="M68.3954,479.184h -6.66709" fill="none" stroke="black"/>
<path d="M68.3954,470.18h -6.66709" fill="none" stroke="black"/>
<path d="M68.3954,461.176h -6.66709" fill="none" stroke="black"/>
<path d="M75.0625,452.172h -13.3342" fill="none" stroke="black"/>
<path d="M68.3954,443.168h -6.66709" fill="none" stroke="black"/>
<path d="M68.3954,434.163h -6.66709" fill="none" stroke="black"/>
<path d="M68.3954,425.159h -6.66709" fill="none" stroke="black"/>
<path d="M75.0625,416.155h -13.3342" fill="none" stroke="black"/>
<path d="M68.3954,407.151h -6.66709" fill="none" stroke="black"/>
<path d="M68.3954,398.147h -6.66709" fill="none" stroke="black"/>
<path d="M68.3954,389.143h -6.66709" fill="none" stroke="black"/>
<path d="M75.0625,380.138h -13.3342" fill="none" stroke="black"/>
<path d="M68.3954,371.134h -6.66709" fill="none" stroke="black"/>
<path d="M68.3954,362.13h -6.66709" fill="none" stroke="black"/>
<path d="M68.3954,353.126h -6.66709" fill="none" stroke="black"/>
<path d="M75.0625,344.122h -13.3342" fill="none" stroke="black"/>
<path d="M68.3954,335.118h -6.66709" fill="none" stroke="black"/>
<path d="M68.3954,326.113h -6.66709" fill="none" stroke="black"/>
<path d="M68.3954,317.109h -6.66709" fill="none" stroke="black"/>
<path d="M75.0625,308.105h -13.3342" fill="none" stroke="black"/>
<path d="M75.0625,308.105h -13.3342" fill="none" stroke="black"/>
<path d="M68.3954,299.101h -6.66709" fill="none" stroke="black"/>
<path d="M68.3954,290.097h -6.66709" fill="none" stroke="black"/>
<path d="M68.3954,281.093h -6.66709" fill="none" stroke="black"/>
<text xml:space="preserve" x="53.5904" y="491.086" fill="black" font-size="8.91652" font-family="Helvetica">0</text>
<text xml:space="preserve" x="46.006" y="455.06" fill="black" font-size="8.91652" font-family="Helvetica">0.2</text>
<text xml:space="preserve" x="46.006" y="419.035" fill="black" font-size="8.91652" font-family="Helvetica">0.4</text>
<text xml:space="preserve" x="46.006" y="383.009" fill="black" font-size="8.91652" font-family="Helvetica">0.6</text>
<text xml:space="preserve" x="46.006" y="346.983" fill="black" font-size="8.91652" font-family="Helvetica">0.8</text>
<text xml:space="preserve" x="54.5384" y="310.958" fill="black" font-size="8.91652" font-family="Helvetica">1</text>
<g transform="rotate(-90,19.4608,458.852)">
<text xml:space="preserve" x="19.4608" y="458.852" fill="black" font-size="14.9283" font-family="Helvetica">True Background / Predicted</text>
</g>
<text xml:space="preserve" x="284.913" y="323.282" fill="black" font-size="14.9283" font-family="Helvetica">Fitting function: par0 + par1*x</text>
<text xml:space="preserve" x="297.237" y="349.828" fill="black" font-size="14.9283" font-family="Helvetica">par0 : 1.01596 +- 0.0210591</text>
<text xml:space="preserve" x="297.237" y="375.425" fill="black" font-size="14.9283" font-family="Helvetica">par1 : -0.000816985 +- 0.000119209</text></svg>
