<?xml version="1.0" standalone="no"?>
<svg width="567.429" height="546.572" viewBox="0 0 567.429 546.572" xmlns="http://www.w3.org/2000/svg" shape-rendering="crispEdges">
<title>
/home/kuanyu/Documents/CMS/Background_Estimate/fake_rate/top_emu/CT_Top(emu)_JetEta_bydileppT_LO.svg
</title>
<desc>
Creator: ROOT Version 6.26/04
CreationDate: Mon Dec  5 17:55:30 2022</desc>
<defs>
</defs>
<rect x="0.5" y="0" width="566.929" height="546.072" fill="white"/>
<rect x="68.5315" y="43.6858" width="476.22" height="436.858" fill="none" stroke="black"/>
<rect x="68.5315" y="43.6858" width="476.22" height="436.858" fill="none" stroke="black"/>
<rect x="68.5315" y="43.6858" width="476.22" height="436.858" fill="none" stroke="black"/>
<rect x="68.5315" y="43.6858" width="476.22" height="436.858" fill="none" stroke="black"/>
<path d="M108.217,375.639v -19.502" fill="none" stroke="#ff0000" stroke-width="2"/>
<path d="M108.217,356.137v -17.2735" fill="none" stroke="#ff0000" stroke-width="2"/>
<path d="M100.28,356.137h 7.93701" fill="none" stroke="#ff0000" stroke-width="2"/>
<path d="M108.217,356.137h 7.93701" fill="none" stroke="#ff0000" stroke-width="2"/>
<g stroke="black" stroke-width="1" fill="none">
<line x1="107.217" y1="356.137" x2="108.217" y2="356.137"/>
</g>
<path d="M124.091,252.553v -15.662" fill="none" stroke="#ff0000" stroke-width="2"/>
<path d="M124.091,236.891v -14.1922" fill="none" stroke="#ff0000" stroke-width="2"/>
<path d="M116.154,236.891h 7.93701" fill="none" stroke="#ff0000" stroke-width="2"/>
<path d="M124.091,236.891h 7.93701" fill="none" stroke="#ff0000" stroke-width="2"/>
<g stroke="black" stroke-width="1" fill="none">
<line x1="123.091" y1="236.891" x2="124.091" y2="236.891"/>
</g>
<path d="M139.965,267.012v -17.3078" fill="none" stroke="#ff0000" stroke-width="2"/>
<path d="M139.965,249.704v -15.5301" fill="none" stroke="#ff0000" stroke-width="2"/>
<path d="M132.028,249.704h 7.93701" fill="none" stroke="#ff0000" stroke-width="2"/>
<path d="M139.965,249.704h 7.93701" fill="none" stroke="#ff0000" stroke-width="2"/>
<g stroke="black" stroke-width="1" fill="none">
<line x1="138.965" y1="249.704" x2="139.965" y2="249.704"/>
</g>
<path d="M155.839,226.188v -14.0304" fill="none" stroke="#ff0000" stroke-width="2"/>
<path d="M155.839,212.158v -12.8393" fill="none" stroke="#ff0000" stroke-width="2"/>
<path d="M147.902,212.158h 7.93701" fill="none" stroke="#ff0000" stroke-width="2"/>
<path d="M155.839,212.158h 7.93701" fill="none" stroke="#ff0000" stroke-width="2"/>
<g stroke="black" stroke-width="1" fill="none">
<line x1="154.839" y1="212.158" x2="155.839" y2="212.158"/>
</g>
<path d="M171.713,222.66v -13.4096" fill="none" stroke="#ff0000" stroke-width="2"/>
<path d="M171.713,209.251v -12.3175" fill="none" stroke="#ff0000" stroke-width="2"/>
<path d="M163.776,209.251h 7.93701" fill="none" stroke="#ff0000" stroke-width="2"/>
<path d="M171.713,209.251h 7.93701" fill="none" stroke="#ff0000" stroke-width="2"/>
<g stroke="black" stroke-width="1" fill="none">
<line x1="170.713" y1="209.251" x2="171.713" y2="209.251"/>
</g>
<path d="M187.587,214.181v -14.1685" fill="none" stroke="#ff0000" stroke-width="2"/>
<path d="M187.587,200.013v -12.9549" fill="none" stroke="#ff0000" stroke-width="2"/>
<path d="M179.65,200.013h 7.93701" fill="none" stroke="#ff0000" stroke-width="2"/>
<path d="M187.587,200.013h 7.93701" fill="none" stroke="#ff0000" stroke-width="2"/>
<g stroke="black" stroke-width="1" fill="none">
<line x1="186.587" y1="200.013" x2="187.587" y2="200.013"/>
</g>
<path d="M203.461,190.613v -10.6418" fill="none" stroke="#ff0000" stroke-width="2"/>
<path d="M203.461,179.971v -9.94244" fill="none" stroke="#ff0000" stroke-width="2"/>
<path d="M195.524,179.971h 7.93701" fill="none" stroke="#ff0000" stroke-width="2"/>
<path d="M203.461,179.971h 7.93701" fill="none" stroke="#ff0000" stroke-width="2"/>
<g stroke="black" stroke-width="1" fill="none">
<line x1="202.461" y1="179.971" x2="203.461" y2="179.971"/>
</g>
<path d="M219.335,198.884v -12.159" fill="none" stroke="#ff0000" stroke-width="2"/>
<path d="M219.335,186.725v -11.2544" fill="none" stroke="#ff0000" stroke-width="2"/>
<path d="M211.398,186.725h 7.93701" fill="none" stroke="#ff0000" stroke-width="2"/>
<path d="M219.335,186.725h 7.93701" fill="none" stroke="#ff0000" stroke-width="2"/>
<g stroke="black" stroke-width="1" fill="none">
<line x1="218.335" y1="186.725" x2="219.335" y2="186.725"/>
</g>
<path d="M235.209,181.439v -11.3589" fill="none" stroke="#ff0000" stroke-width="2"/>
<path d="M235.209,170.08v -10.5656" fill="none" stroke="#ff0000" stroke-width="2"/>
<path d="M227.272,170.08h 7.93701" fill="none" stroke="#ff0000" stroke-width="2"/>
<path d="M235.209,170.08h 7.93701" fill="none" stroke="#ff0000" stroke-width="2"/>
<g stroke="black" stroke-width="1" fill="none">
<line x1="234.209" y1="170.08" x2="235.209" y2="170.08"/>
</g>
<path d="M251.083,161.264v -10.7871" fill="none" stroke="#ff0000" stroke-width="2"/>
<path d="M251.083,150.477v -10.0692" fill="none" stroke="#ff0000" stroke-width="2"/>
<path d="M243.146,150.477h 7.93701" fill="none" stroke="#ff0000" stroke-width="2"/>
<path d="M251.083,150.477h 7.93701" fill="none" stroke="#ff0000" stroke-width="2"/>
<g stroke="black" stroke-width="1" fill="none">
<line x1="250.083" y1="150.477" x2="251.083" y2="150.477"/>
</g>
<path d="M266.957,176.661v -11.8206" fill="none" stroke="#ff0000" stroke-width="2"/>
<path d="M266.957,164.841v -10.9639" fill="none" stroke="#ff0000" stroke-width="2"/>
<path d="M259.02,164.841h 7.93701" fill="none" stroke="#ff0000" stroke-width="2"/>
<path d="M266.957,164.841h 7.93701" fill="none" stroke="#ff0000" stroke-width="2"/>
<g stroke="black" stroke-width="1" fill="none">
<line x1="265.957" y1="164.841" x2="266.957" y2="164.841"/>
</g>
<path d="M282.831,193.446v -12.2652" fill="none" stroke="#ff0000" stroke-width="2"/>
<path d="M282.831,181.181v -11.3453" fill="none" stroke="#ff0000" stroke-width="2"/>
<path d="M274.894,181.181h 7.93701" fill="none" stroke="#ff0000" stroke-width="2"/>
<path d="M282.831,181.181h 7.93701" fill="none" stroke="#ff0000" stroke-width="2"/>
<g stroke="black" stroke-width="1" fill="none">
<line x1="281.831" y1="181.181" x2="282.831" y2="181.181"/>
</g>
<path d="M298.705,211.615v -12.7697" fill="none" stroke="#ff0000" stroke-width="2"/>
<path d="M298.705,198.845v -11.7756" fill="none" stroke="#ff0000" stroke-width="2"/>
<path d="M290.768,198.845h 7.93701" fill="none" stroke="#ff0000" stroke-width="2"/>
<path d="M298.705,198.845h 7.93701" fill="none" stroke="#ff0000" stroke-width="2"/>
<g stroke="black" stroke-width="1" fill="none">
<line x1="297.705" y1="198.845" x2="298.705" y2="198.845"/>
</g>
<path d="M314.579,206.125v -11.1886" fill="none" stroke="#ff0000" stroke-width="2"/>
<path d="M314.579,194.936v -10.4181" fill="none" stroke="#ff0000" stroke-width="2"/>
<path d="M306.642,194.936h 7.93701" fill="none" stroke="#ff0000" stroke-width="2"/>
<path d="M314.579,194.936h 7.93701" fill="none" stroke="#ff0000" stroke-width="2"/>
<g stroke="black" stroke-width="1" fill="none">
<line x1="313.579" y1="194.936" x2="314.579" y2="194.936"/>
</g>
<path d="M330.453,206.105v -12.0869" fill="none" stroke="#ff0000" stroke-width="2"/>
<path d="M330.453,194.018v -11.1926" fill="none" stroke="#ff0000" stroke-width="2"/>
<path d="M322.516,194.018h 7.93701" fill="none" stroke="#ff0000" stroke-width="2"/>
<path d="M330.453,194.018h 7.93701" fill="none" stroke="#ff0000" stroke-width="2"/>
<g stroke="black" stroke-width="1" fill="none">
<line x1="329.453" y1="194.018" x2="330.453" y2="194.018"/>
</g>
<path d="M346.327,163.61v -11.4312" fill="none" stroke="#ff0000" stroke-width="2"/>
<path d="M346.327,152.178v -10.6281" fill="none" stroke="#ff0000" stroke-width="2"/>
<path d="M338.39,152.178h 7.93701" fill="none" stroke="#ff0000" stroke-width="2"/>
<path d="M346.327,152.178h 7.93701" fill="none" stroke="#ff0000" stroke-width="2"/>
<g stroke="black" stroke-width="1" fill="none">
<line x1="345.327" y1="152.178" x2="346.327" y2="152.178"/>
</g>
<path d="M362.201,174.06v -11.4093" fill="none" stroke="#ff0000" stroke-width="2"/>
<path d="M362.201,162.651v -10.6092" fill="none" stroke="#ff0000" stroke-width="2"/>
<path d="M354.264,162.651h 7.93701" fill="none" stroke="#ff0000" stroke-width="2"/>
<path d="M362.201,162.651h 7.93701" fill="none" stroke="#ff0000" stroke-width="2"/>
<g stroke="black" stroke-width="1" fill="none">
<line x1="361.201" y1="162.651" x2="362.201" y2="162.651"/>
</g>
<path d="M378.075,186.868v -11.9389" fill="none" stroke="#ff0000" stroke-width="2"/>
<path d="M378.075,174.929v -11.0656" fill="none" stroke="#ff0000" stroke-width="2"/>
<path d="M370.138,174.929h 7.93701" fill="none" stroke="#ff0000" stroke-width="2"/>
<path d="M378.075,174.929h 7.93701" fill="none" stroke="#ff0000" stroke-width="2"/>
<g stroke="black" stroke-width="1" fill="none">
<line x1="377.075" y1="174.929" x2="378.075" y2="174.929"/>
</g>
<path d="M393.949,197.407v -12.0902" fill="none" stroke="#ff0000" stroke-width="2"/>
<path d="M393.949,185.317v -11.1955" fill="none" stroke="#ff0000" stroke-width="2"/>
<path d="M386.012,185.317h 7.93701" fill="none" stroke="#ff0000" stroke-width="2"/>
<path d="M393.949,185.317h 7.93701" fill="none" stroke="#ff0000" stroke-width="2"/>
<g stroke="black" stroke-width="1" fill="none">
<line x1="392.949" y1="185.317" x2="393.949" y2="185.317"/>
</g>
<path d="M409.823,182.842v -11.4194" fill="none" stroke="#ff0000" stroke-width="2"/>
<path d="M409.823,171.423v -10.6179" fill="none" stroke="#ff0000" stroke-width="2"/>
<path d="M401.886,171.423h 7.93701" fill="none" stroke="#ff0000" stroke-width="2"/>
<path d="M409.823,171.423h 7.93701" fill="none" stroke="#ff0000" stroke-width="2"/>
<g stroke="black" stroke-width="1" fill="none">
<line x1="408.823" y1="171.423" x2="409.823" y2="171.423"/>
</g>
<path d="M425.697,219.531v -13.1903" fill="none" stroke="#ff0000" stroke-width="2"/>
<path d="M425.697,206.34v -12.1323" fill="none" stroke="#ff0000" stroke-width="2"/>
<path d="M417.76,206.34h 7.93701" fill="none" stroke="#ff0000" stroke-width="2"/>
<path d="M425.697,206.34h 7.93701" fill="none" stroke="#ff0000" stroke-width="2"/>
<g stroke="black" stroke-width="1" fill="none">
<line x1="424.697" y1="206.34" x2="425.697" y2="206.34"/>
</g>
<path d="M441.571,215.757v -12.0426" fill="none" stroke="#ff0000" stroke-width="2"/>
<path d="M441.571,203.715v -11.1546" fill="none" stroke="#ff0000" stroke-width="2"/>
<path d="M433.634,203.715h 7.93701" fill="none" stroke="#ff0000" stroke-width="2"/>
<path d="M441.571,203.715h 7.93701" fill="none" stroke="#ff0000" stroke-width="2"/>
<g stroke="black" stroke-width="1" fill="none">
<line x1="440.571" y1="203.715" x2="441.571" y2="203.715"/>
</g>
<path d="M457.445,254.337v -14.5138" fill="none" stroke="#ff0000" stroke-width="2"/>
<path d="M457.445,239.823v -13.2429" fill="none" stroke="#ff0000" stroke-width="2"/>
<path d="M449.508,239.823h 7.93701" fill="none" stroke="#ff0000" stroke-width="2"/>
<path d="M457.445,239.823h 7.93701" fill="none" stroke="#ff0000" stroke-width="2"/>
<g stroke="black" stroke-width="1" fill="none">
<line x1="456.445" y1="239.823" x2="457.445" y2="239.823"/>
</g>
<path d="M473.319,259.781v -15.494" fill="none" stroke="#ff0000" stroke-width="2"/>
<path d="M473.319,244.287v -14.0541" fill="none" stroke="#ff0000" stroke-width="2"/>
<path d="M465.382,244.287h 7.93701" fill="none" stroke="#ff0000" stroke-width="2"/>
<path d="M473.319,244.287h 7.93701" fill="none" stroke="#ff0000" stroke-width="2"/>
<g stroke="black" stroke-width="1" fill="none">
<line x1="472.319" y1="244.287" x2="473.319" y2="244.287"/>
</g>
<path d="M489.193,260.315v -14.8589" fill="none" stroke="#ff0000" stroke-width="2"/>
<path d="M489.193,245.456v -13.5296" fill="none" stroke="#ff0000" stroke-width="2"/>
<path d="M481.256,245.456h 7.93701" fill="none" stroke="#ff0000" stroke-width="2"/>
<path d="M489.193,245.456h 7.93701" fill="none" stroke="#ff0000" stroke-width="2"/>
<g stroke="black" stroke-width="1" fill="none">
<line x1="488.193" y1="245.456" x2="489.193" y2="245.456"/>
</g>
<path d="M505.067,359.43v -20.4648" fill="none" stroke="#ff0000" stroke-width="2"/>
<path d="M505.067,338.965v -18.0243" fill="none" stroke="#ff0000" stroke-width="2"/>
<path d="M497.13,338.965h 7.93701" fill="none" stroke="#ff0000" stroke-width="2"/>
<path d="M505.067,338.965h 7.93701" fill="none" stroke="#ff0000" stroke-width="2"/>
<g stroke="black" stroke-width="1" fill="none">
<line x1="504.067" y1="338.965" x2="505.067" y2="338.965"/>
</g>
<path d="M68.5315,480.544h 476.22" fill="none" stroke="black"/>
<path d="M68.5315,466.783v 13.761" fill="none" stroke="black"/>
<path d="M84.4055,473.663v 6.88051" fill="none" stroke="black"/>
<path d="M100.28,473.663v 6.88051" fill="none" stroke="black"/>
<path d="M116.154,473.663v 6.88051" fill="none" stroke="black"/>
<path d="M132.028,473.663v 6.88051" fill="none" stroke="black"/>
<path d="M147.902,466.783v 13.761" fill="none" stroke="black"/>
<path d="M163.776,473.663v 6.88051" fill="none" stroke="black"/>
<path d="M179.65,473.663v 6.88051" fill="none" stroke="black"/>
<path d="M195.524,473.663v 6.88051" fill="none" stroke="black"/>
<path d="M211.398,473.663v 6.88051" fill="none" stroke="black"/>
<path d="M227.272,466.783v 13.761" fill="none" stroke="black"/>
<path d="M243.146,473.663v 6.88051" fill="none" stroke="black"/>
<path d="M259.02,473.663v 6.88051" fill="none" stroke="black"/>
<path d="M274.894,473.663v 6.88051" fill="none" stroke="black"/>
<path d="M290.768,473.663v 6.88051" fill="none" stroke="black"/>
<path d="M306.642,466.783v 13.761" fill="none" stroke="black"/>
<path d="M322.516,473.663v 6.88051" fill="none" stroke="black"/>
<path d="M338.39,473.663v 6.88051" fill="none" stroke="black"/>
<path d="M354.264,473.663v 6.88051" fill="none" stroke="black"/>
<path d="M370.138,473.663v 6.88051" fill="none" stroke="black"/>
<path d="M386.012,466.783v 13.761" fill="none" stroke="black"/>
<path d="M401.886,473.663v 6.88051" fill="none" stroke="black"/>
<path d="M417.76,473.663v 6.88051" fill="none" stroke="black"/>
<path d="M433.634,473.663v 6.88051" fill="none" stroke="black"/>
<path d="M449.508,473.663v 6.88051" fill="none" stroke="black"/>
<path d="M465.382,466.783v 13.761" fill="none" stroke="black"/>
<path d="M481.256,473.663v 6.88051" fill="none" stroke="black"/>
<path d="M497.13,473.663v 6.88051" fill="none" stroke="black"/>
<path d="M513.004,473.663v 6.88051" fill="none" stroke="black"/>
<path d="M528.878,473.663v 6.88051" fill="none" stroke="black"/>
<path d="M544.752,466.783v 13.761" fill="none" stroke="black"/>
<path d="M544.752,466.783v 13.761" fill="none" stroke="black"/>
<text xml:space="preserve" x="67.811" y="497.722" fill="black" font-size="18.0344" font-family="Helvetica">3</text>
<text xml:space="preserve" x="57.3825" y="497.722" fill="black" font-size="18.0344" font-family="Times">&#8722;</text>
<text xml:space="preserve" x="147.447" y="497.722" fill="black" font-size="18.0344" font-family="Helvetica">2</text>
<text xml:space="preserve" x="137.018" y="497.722" fill="black" font-size="18.0344" font-family="Times">&#8722;</text>
<text xml:space="preserve" x="228.03" y="497.722" fill="black" font-size="18.0344" font-family="Helvetica">1</text>
<text xml:space="preserve" x="218.55" y="497.722" fill="black" font-size="18.0344" font-family="Times">&#8722;</text>
<text xml:space="preserve" x="301.029" y="497.722" fill="black" font-size="18.0344" font-family="Helvetica">0</text>
<text xml:space="preserve" x="381.613" y="497.722" fill="black" font-size="18.0344" font-family="Helvetica">1</text>
<text xml:space="preserve" x="460.3" y="497.722" fill="black" font-size="18.0344" font-family="Helvetica">2</text>
<text xml:space="preserve" x="539.936" y="497.722" fill="black" font-size="18.0344" font-family="Helvetica">3</text>
<text xml:space="preserve" x="534.248" y="515.735" fill="black" font-size="18.0344" font-family="Times">&#0951;</text>
<text xml:space="preserve" x="504.858" y="515.735" fill="black" font-size="18.0344" font-family="Helvetica">Jet </text>
<path d="M68.5315,480.544v -436.858" fill="none" stroke="black"/>
<path d="M75.3346,445.882h -6.80315" fill="none" stroke="black"/>
<path d="M75.3346,402.343h -6.80315" fill="none" stroke="black"/>
<path d="M75.3346,368.571h -6.80315" fill="none" stroke="black"/>
<path d="M75.3346,340.977h -6.80315" fill="none" stroke="black"/>
<path d="M75.3346,317.647h -6.80315" fill="none" stroke="black"/>
<path d="M75.3346,297.438h -6.80315" fill="none" stroke="black"/>
<path d="M75.3346,279.612h -6.80315" fill="none" stroke="black"/>
<path d="M82.1378,263.666h -13.6063" fill="none" stroke="black"/>
<text xml:space="preserve" x="44.1099" y="270.192" fill="black" font-size="18.0344" font-family="Helvetica">10</text>
<path d="M75.3346,158.762h -6.80315" fill="none" stroke="black"/>
<path d="M75.3346,97.3966h -6.80315" fill="none" stroke="black"/>
<path d="M75.3346,53.8573h -6.80315" fill="none" stroke="black"/>
<g transform="rotate(-90,34.6295,77.7394)">
<text xml:space="preserve" x="34.6295" y="77.7394" fill="black" font-size="18.0344" font-family="Helvetica">nJet</text>
</g>
<path d="M108.217,454.781v -7.6777" fill="none" stroke="#006699" stroke-width="2"/>
<path d="M108.217,447.103v -7.30695" fill="none" stroke="#006699" stroke-width="2"/>
<g stroke="black" stroke-width="1" fill="none">
<line x1="107.217" y1="447.103" x2="108.217" y2="447.103"/>
</g>
<path d="M124.091,298.386v -4.92059" fill="none" stroke="#006699" stroke-width="2"/>
<path d="M124.091,293.465v -4.76563" fill="none" stroke="#006699" stroke-width="2"/>
<g stroke="black" stroke-width="1" fill="none">
<line x1="123.091" y1="293.465" x2="124.091" y2="293.465"/>
</g>
<path d="M139.965,279.624v -4.56392" fill="none" stroke="#006699" stroke-width="2"/>
<path d="M139.965,275.06v -4.43031" fill="none" stroke="#006699" stroke-width="2"/>
<g stroke="black" stroke-width="1" fill="none">
<line x1="138.965" y1="275.06" x2="139.965" y2="275.06"/>
</g>
<path d="M155.839,255.436v -4.23374" fill="none" stroke="#006699" stroke-width="2"/>
<path d="M155.839,251.202v -4.11852" fill="none" stroke="#006699" stroke-width="2"/>
<g stroke="black" stroke-width="1" fill="none">
<line x1="154.839" y1="251.202" x2="155.839" y2="251.202"/>
</g>
<path d="M171.713,222.936v -3.72253" fill="none" stroke="#006699" stroke-width="2"/>
<path d="M171.713,219.214v -3.63316" fill="none" stroke="#006699" stroke-width="2"/>
<g stroke="black" stroke-width="1" fill="none">
<line x1="170.713" y1="219.214" x2="171.713" y2="219.214"/>
</g>
<path d="M187.587,199.479v -3.46342" fill="none" stroke="#006699" stroke-width="2"/>
<path d="M187.587,196.016v -3.38593" fill="none" stroke="#006699" stroke-width="2"/>
<g stroke="black" stroke-width="1" fill="none">
<line x1="186.587" y1="196.016" x2="187.587" y2="196.016"/>
</g>
<path d="M203.461,187.931v -3.27294" fill="none" stroke="#006699" stroke-width="2"/>
<path d="M203.461,184.658v -3.20366" fill="none" stroke="#006699" stroke-width="2"/>
<g stroke="black" stroke-width="1" fill="none">
<line x1="202.461" y1="184.658" x2="203.461" y2="184.658"/>
</g>
<path d="M219.335,167.783v -3.15829" fill="none" stroke="#006699" stroke-width="2"/>
<path d="M219.335,164.625v -3.09373" fill="none" stroke="#006699" stroke-width="2"/>
<g stroke="black" stroke-width="1" fill="none">
<line x1="218.335" y1="164.625" x2="219.335" y2="164.625"/>
</g>
<path d="M235.209,156.847v -2.97589" fill="none" stroke="#006699" stroke-width="2"/>
<path d="M235.209,153.871v -2.9185" fill="none" stroke="#006699" stroke-width="2"/>
<g stroke="black" stroke-width="1" fill="none">
<line x1="234.209" y1="153.871" x2="235.209" y2="153.871"/>
</g>
<path d="M251.083,147.955v -2.88069" fill="none" stroke="#006699" stroke-width="2"/>
<path d="M251.083,145.074v -2.82688" fill="none" stroke="#006699" stroke-width="2"/>
<g stroke="black" stroke-width="1" fill="none">
<line x1="250.083" y1="145.074" x2="251.083" y2="145.074"/>
</g>
<path d="M266.957,137.281v -2.82514" fill="none" stroke="#006699" stroke-width="2"/>
<path d="M266.957,134.456v -2.77337" fill="none" stroke="#006699" stroke-width="2"/>
<g stroke="black" stroke-width="1" fill="none">
<line x1="265.957" y1="134.456" x2="266.957" y2="134.456"/>
</g>
<path d="M282.831,130.558v -2.82736" fill="none" stroke="#006699" stroke-width="2"/>
<path d="M282.831,127.731v -2.7755" fill="none" stroke="#006699" stroke-width="2"/>
<g stroke="black" stroke-width="1" fill="none">
<line x1="281.831" y1="127.731" x2="282.831" y2="127.731"/>
</g>
<path d="M298.705,129.698v -2.69682" fill="none" stroke="#006699" stroke-width="2"/>
<path d="M298.705,127.001v -2.6496" fill="none" stroke="#006699" stroke-width="2"/>
<g stroke="black" stroke-width="1" fill="none">
<line x1="297.705" y1="127.001" x2="298.705" y2="127.001"/>
</g>
<path d="M314.579,124.855v -2.69251" fill="none" stroke="#006699" stroke-width="2"/>
<path d="M314.579,122.163v -2.64544" fill="none" stroke="#006699" stroke-width="2"/>
<g stroke="black" stroke-width="1" fill="none">
<line x1="313.579" y1="122.163" x2="314.579" y2="122.163"/>
</g>
<path d="M330.453,137.567v -2.76904" fill="none" stroke="#006699" stroke-width="2"/>
<path d="M330.453,134.798v -2.71929" fill="none" stroke="#006699" stroke-width="2"/>
<g stroke="black" stroke-width="1" fill="none">
<line x1="329.453" y1="134.798" x2="330.453" y2="134.798"/>
</g>
<path d="M346.327,133.486v -2.79506" fill="none" stroke="#006699" stroke-width="2"/>
<path d="M346.327,130.691v -2.74437" fill="none" stroke="#006699" stroke-width="2"/>
<g stroke="black" stroke-width="1" fill="none">
<line x1="345.327" y1="130.691" x2="346.327" y2="130.691"/>
</g>
<path d="M362.201,144.268v -2.8352" fill="none" stroke="#006699" stroke-width="2"/>
<path d="M362.201,141.433v -2.78307" fill="none" stroke="#006699" stroke-width="2"/>
<g stroke="black" stroke-width="1" fill="none">
<line x1="361.201" y1="141.433" x2="362.201" y2="141.433"/>
</g>
<path d="M378.075,151.734v -2.9688" fill="none" stroke="#006699" stroke-width="2"/>
<path d="M378.075,148.765v -2.91168" fill="none" stroke="#006699" stroke-width="2"/>
<g stroke="black" stroke-width="1" fill="none">
<line x1="377.075" y1="148.765" x2="378.075" y2="148.765"/>
</g>
<path d="M393.949,173.219v -3.218" fill="none" stroke="#006699" stroke-width="2"/>
<path d="M393.949,170.001v -3.151" fill="none" stroke="#006699" stroke-width="2"/>
<g stroke="black" stroke-width="1" fill="none">
<line x1="392.949" y1="170.001" x2="393.949" y2="170.001"/>
</g>
<path d="M409.823,186.409v -3.29718" fill="none" stroke="#006699" stroke-width="2"/>
<path d="M409.823,183.112v -3.22688" fill="none" stroke="#006699" stroke-width="2"/>
<g stroke="black" stroke-width="1" fill="none">
<line x1="408.823" y1="183.112" x2="409.823" y2="183.112"/>
</g>
<path d="M425.697,207.825v -3.64139" fill="none" stroke="#006699" stroke-width="2"/>
<path d="M425.697,204.183v -3.55583" fill="none" stroke="#006699" stroke-width="2"/>
<g stroke="black" stroke-width="1" fill="none">
<line x1="424.697" y1="204.183" x2="425.697" y2="204.183"/>
</g>
<path d="M441.571,235.217v -4.02864" fill="none" stroke="#006699" stroke-width="2"/>
<path d="M441.571,231.188v -3.92417" fill="none" stroke="#006699" stroke-width="2"/>
<g stroke="black" stroke-width="1" fill="none">
<line x1="440.571" y1="231.188" x2="441.571" y2="231.188"/>
</g>
<path d="M457.445,255.15v -4.30073" fill="none" stroke="#006699" stroke-width="2"/>
<path d="M457.445,250.849v -4.18188" fill="none" stroke="#006699" stroke-width="2"/>
<g stroke="black" stroke-width="1" fill="none">
<line x1="456.445" y1="250.849" x2="457.445" y2="250.849"/>
</g>
<path d="M473.319,283.29v -4.59034" fill="none" stroke="#006699" stroke-width="2"/>
<path d="M473.319,278.699v -4.4552" fill="none" stroke="#006699" stroke-width="2"/>
<g stroke="black" stroke-width="1" fill="none">
<line x1="472.319" y1="278.699" x2="473.319" y2="278.699"/>
</g>
<path d="M489.193,296.168v -5.0201" fill="none" stroke="#006699" stroke-width="2"/>
<path d="M489.193,291.147v -4.85891" fill="none" stroke="#006699" stroke-width="2"/>
<g stroke="black" stroke-width="1" fill="none">
<line x1="488.193" y1="291.147" x2="489.193" y2="291.147"/>
</g>
<path d="M505.067,439.704v -7.61358" fill="none" stroke="#006699" stroke-width="2"/>
<path d="M505.067,432.09v -7.24884" fill="none" stroke="#006699" stroke-width="2"/>
<g stroke="black" stroke-width="1" fill="none">
<line x1="504.067" y1="432.09" x2="505.067" y2="432.09"/>
</g>
<path d="M68.5315,480.544h 31.748v -33.4407h 15.874v -153.637h 15.874v -18.4054h 15.874v -23.858h 15.874v -31.9881h 15.874v -23.1979h 15.874v -11.3577h 15.874v -20.0335h 15.874v -10.7537h 15.874v -8.79698h 15.874v -10.6177h 15.874v -6.72548h 15.874v
 -0.729943h 15.874v -4.83822h 15.874v 12.6355h 15.874v -4.10705h 15.874v 10.7417h 15.874v 7.3319h 15.874v 21.236h 15.874v 13.1109h 15.874v 21.0715h 15.874v 27.0048h 15.874v 19.6609h 15.874v 27.8504h 15.874v 12.4482h 15.874v 140.943h 15.874v 48.4536h
 31.748" fill="none" stroke="#006699" stroke-width="2"/>
<text xml:space="preserve" x="255.523" y="289.153" fill="black" font-size="20.5393" font-family="Helvetica">Top to emu</text>
<text xml:space="preserve" x="300.081" y="326.126" fill="black" font-size="20.5393" font-family="Helvetica">True Background</text>
<path d="M258.213,318.068h 34.6746" fill="none" stroke="#ff0000" stroke-width="2"/>
<path d="M275.551,328.971v -21.805" fill="none" stroke="#ff0000" stroke-width="2"/>
<text xml:space="preserve" x="300.081" y="362.152" fill="black" font-size="20.5393" font-family="Helvetica">Predict</text>
<path d="M258.213,354.41h 34.6746" fill="none" stroke="#006699" stroke-width="2"/>
<path d="M275.551,365.312v -21.805" fill="none" stroke="#006699" stroke-width="2"/></svg>
