<?xml version="1.0" standalone="no"?>
<svg width="567.429" height="546.572" viewBox="0 0 567.429 546.572" xmlns="http://www.w3.org/2000/svg" shape-rendering="crispEdges">
<title>
CT_Top(emu)_btrk_dileppT_rg3_LO.svg
</title>
<desc>
Creator: ROOT Version 6.26/04
CreationDate: Fri Nov  4 15:47:55 2022</desc>
<defs>
</defs>
<rect x="0.5" y="0" width="566.929" height="546.072" fill="white"/>
<rect x="6.16929" y="5.46072" width="555.591" height="262.115" fill="white"/>
<rect x="61.7283" y="8.08187" width="477.808" height="259.493" fill="white"/>
<rect x="61.7283" y="8.08187" width="477.808" height="259.493" fill="none" stroke="black"/>
<path d="M71.6827,248.5v -15.0589" fill="none" stroke="#ff0000" stroke-width="2"/>
<path d="M71.6827,233.441v -15.0589" fill="none" stroke="#ff0000" stroke-width="2"/>
<path d="M61.7283,233.441h 9.95433" fill="none" stroke="#ff0000" stroke-width="2"/>
<path d="M71.6827,233.441h 9.95433" fill="none" stroke="#ff0000" stroke-width="2"/>
<g stroke="black" stroke-width="1" fill="none">
<line x1="70.6827" y1="233.441" x2="71.6827" y2="233.441"/>
</g>
<path d="M91.5913,226.243v -20.2041" fill="none" stroke="#ff0000" stroke-width="2"/>
<path d="M91.5913,206.039v -20.2041" fill="none" stroke="#ff0000" stroke-width="2"/>
<path d="M81.637,206.039h 9.95433" fill="none" stroke="#ff0000" stroke-width="2"/>
<path d="M91.5913,206.039h 9.95433" fill="none" stroke="#ff0000" stroke-width="2"/>
<g stroke="black" stroke-width="1" fill="none">
<line x1="90.5913" y1="206.039" x2="91.5913" y2="206.039"/>
</g>
<path d="M111.5,248.733v -15.057" fill="none" stroke="#ff0000" stroke-width="2"/>
<path d="M111.5,233.676v -15.057" fill="none" stroke="#ff0000" stroke-width="2"/>
<path d="M101.546,233.676h 9.95433" fill="none" stroke="#ff0000" stroke-width="2"/>
<path d="M111.5,233.676h 9.95433" fill="none" stroke="#ff0000" stroke-width="2"/>
<g stroke="black" stroke-width="1" fill="none">
<line x1="110.5" y1="233.676" x2="111.5" y2="233.676"/>
</g>
<path d="M131.409,221.304v -21.2925" fill="none" stroke="#ff0000" stroke-width="2"/>
<path d="M131.409,200.011v -21.2925" fill="none" stroke="#ff0000" stroke-width="2"/>
<path d="M121.454,200.011h 9.95433" fill="none" stroke="#ff0000" stroke-width="2"/>
<path d="M131.409,200.011h 9.95433" fill="none" stroke="#ff0000" stroke-width="2"/>
<g stroke="black" stroke-width="1" fill="none">
<line x1="130.409" y1="200.011" x2="131.409" y2="200.011"/>
</g>
<path d="M151.317,132.449v -33.666" fill="none" stroke="#ff0000" stroke-width="2"/>
<path d="M151.317,98.7831v -33.666" fill="none" stroke="#ff0000" stroke-width="2"/>
<path d="M141.363,98.7831h 9.95433" fill="none" stroke="#ff0000" stroke-width="2"/>
<path d="M151.317,98.7831h 9.95433" fill="none" stroke="#ff0000" stroke-width="2"/>
<g stroke="black" stroke-width="1" fill="none">
<line x1="150.317" y1="98.7831" x2="151.317" y2="98.7831"/>
</g>
<path d="M171.226,162.123v -30.1173" fill="none" stroke="#ff0000" stroke-width="2"/>
<path d="M171.226,132.006v -30.1173" fill="none" stroke="#ff0000" stroke-width="2"/>
<path d="M161.272,132.006h 9.95433" fill="none" stroke="#ff0000" stroke-width="2"/>
<path d="M171.226,132.006h 9.95433" fill="none" stroke="#ff0000" stroke-width="2"/>
<g stroke="black" stroke-width="1" fill="none">
<line x1="170.226" y1="132.006" x2="171.226" y2="132.006"/>
</g>
<path d="M191.135,95.4214v -37.4913" fill="none" stroke="#ff0000" stroke-width="2"/>
<path d="M191.135,57.93v -37.4913" fill="none" stroke="#ff0000" stroke-width="2"/>
<path d="M181.18,57.93h 9.95433" fill="none" stroke="#ff0000" stroke-width="2"/>
<path d="M191.135,57.93h 9.95433" fill="none" stroke="#ff0000" stroke-width="2"/>
<g stroke="black" stroke-width="1" fill="none">
<line x1="190.135" y1="57.93" x2="191.135" y2="57.93"/>
</g>
<path d="M211.043,125.377v -44.6871" fill="none" stroke="#ff0000" stroke-width="2"/>
<path d="M211.043,80.6899v -44.6871" fill="none" stroke="#ff0000" stroke-width="2"/>
<path d="M201.089,80.6899h 9.95433" fill="none" stroke="#ff0000" stroke-width="2"/>
<path d="M211.043,80.6899h 9.95433" fill="none" stroke="#ff0000" stroke-width="2"/>
<g stroke="black" stroke-width="1" fill="none">
<line x1="210.043" y1="80.6899" x2="211.043" y2="80.6899"/>
</g>
<path d="M230.952,141.924v -51.8074" fill="none" stroke="#ff0000" stroke-width="2"/>
<path d="M230.952,90.1167v -51.8074" fill="none" stroke="#ff0000" stroke-width="2"/>
<path d="M220.998,90.1167h 9.95433" fill="none" stroke="#ff0000" stroke-width="2"/>
<path d="M230.952,90.1167h 9.95433" fill="none" stroke="#ff0000" stroke-width="2"/>
<g stroke="black" stroke-width="1" fill="none">
<line x1="229.952" y1="90.1167" x2="230.952" y2="90.1167"/>
</g>
<path d="M250.861,192.207v -26.0803" fill="none" stroke="#ff0000" stroke-width="2"/>
<path d="M250.861,166.126v -26.0803" fill="none" stroke="#ff0000" stroke-width="2"/>
<path d="M240.906,166.126h 9.95433" fill="none" stroke="#ff0000" stroke-width="2"/>
<path d="M250.861,166.126h 9.95433" fill="none" stroke="#ff0000" stroke-width="2"/>
<g stroke="black" stroke-width="1" fill="none">
<line x1="249.861" y1="166.126" x2="250.861" y2="166.126"/>
</g>
<path d="M270.769,221.538v -21.2912" fill="none" stroke="#ff0000" stroke-width="2"/>
<path d="M270.769,200.247v -21.2912" fill="none" stroke="#ff0000" stroke-width="2"/>
<path d="M260.815,200.247h 9.95433" fill="none" stroke="#ff0000" stroke-width="2"/>
<path d="M270.769,200.247h 9.95433" fill="none" stroke="#ff0000" stroke-width="2"/>
<g stroke="black" stroke-width="1" fill="none">
<line x1="269.769" y1="200.247" x2="270.769" y2="200.247"/>
</g>
<path d="M290.678,221.087v -21.2961" fill="none" stroke="#ff0000" stroke-width="2"/>
<path d="M290.678,199.791v -21.2961" fill="none" stroke="#ff0000" stroke-width="2"/>
<path d="M280.724,199.791h 9.95433" fill="none" stroke="#ff0000" stroke-width="2"/>
<path d="M290.678,199.791h 9.95433" fill="none" stroke="#ff0000" stroke-width="2"/>
<g stroke="black" stroke-width="1" fill="none">
<line x1="289.678" y1="199.791" x2="290.678" y2="199.791"/>
</g>
<path d="M310.587,264.098v -9.53264" fill="none" stroke="#ff0000" stroke-width="2"/>
<path d="M310.587,254.565v -9.53264" fill="none" stroke="#ff0000" stroke-width="2"/>
<path d="M300.632,254.565h 9.95433" fill="none" stroke="#ff0000" stroke-width="2"/>
<path d="M310.587,254.565h 9.95433" fill="none" stroke="#ff0000" stroke-width="2"/>
<g stroke="black" stroke-width="1" fill="none">
<line x1="309.587" y1="254.565" x2="310.587" y2="254.565"/>
</g>
<path d="M330.495,255.54v -32.4011" fill="none" stroke="#ff0000" stroke-width="2"/>
<path d="M330.495,223.139v -32.4011" fill="none" stroke="#ff0000" stroke-width="2"/>
<path d="M320.541,223.139h 9.95433" fill="none" stroke="#ff0000" stroke-width="2"/>
<path d="M330.495,223.139h 9.95433" fill="none" stroke="#ff0000" stroke-width="2"/>
<g stroke="black" stroke-width="1" fill="none">
<line x1="329.495" y1="223.139" x2="330.495" y2="223.139"/>
</g>
<path d="M439.993,267.575v -0.455819" fill="none" stroke="#ff0000" stroke-width="2"/>
<path d="M439.993,267.12v -0.455819" fill="none" stroke="#ff0000" stroke-width="2"/>
<path d="M340.45,267.12h 99.5433" fill="none" stroke="#ff0000" stroke-width="2"/>
<path d="M439.993,267.12h 99.5433" fill="none" stroke="#ff0000" stroke-width="2"/>
<g stroke="black" stroke-width="1" fill="none">
<line x1="438.993" y1="267.12" x2="439.993" y2="267.12"/>
</g>
<path d="M61.7283,267.575h 477.808" fill="none" stroke="black"/>
<path d="M141.363,260.813v 6.76256" fill="none" stroke="black"/>
<path d="M161.272,264.194v 3.38128" fill="none" stroke="black"/>
<path d="M181.18,264.194v 3.38128" fill="none" stroke="black"/>
<path d="M201.089,264.194v 3.38128" fill="none" stroke="black"/>
<path d="M220.998,264.194v 3.38128" fill="none" stroke="black"/>
<path d="M240.906,260.813v 6.76256" fill="none" stroke="black"/>
<path d="M260.815,264.194v 3.38128" fill="none" stroke="black"/>
<path d="M280.724,264.194v 3.38128" fill="none" stroke="black"/>
<path d="M300.632,264.194v 3.38128" fill="none" stroke="black"/>
<path d="M320.541,264.194v 3.38128" fill="none" stroke="black"/>
<path d="M340.45,260.813v 6.76256" fill="none" stroke="black"/>
<path d="M360.358,264.194v 3.38128" fill="none" stroke="black"/>
<path d="M380.267,264.194v 3.38128" fill="none" stroke="black"/>
<path d="M400.176,264.194v 3.38128" fill="none" stroke="black"/>
<path d="M420.084,264.194v 3.38128" fill="none" stroke="black"/>
<path d="M439.993,260.813v 6.76256" fill="none" stroke="black"/>
<path d="M459.902,264.194v 3.38128" fill="none" stroke="black"/>
<path d="M479.81,264.194v 3.38128" fill="none" stroke="black"/>
<path d="M499.719,264.194v 3.38128" fill="none" stroke="black"/>
<path d="M519.628,264.194v 3.38128" fill="none" stroke="black"/>
<path d="M539.536,260.813v 6.76256" fill="none" stroke="black"/>
<path d="M141.363,260.813v 6.76256" fill="none" stroke="black"/>
<path d="M121.454,264.194v 3.38128" fill="none" stroke="black"/>
<path d="M101.546,264.194v 3.38128" fill="none" stroke="black"/>
<path d="M81.637,264.194v 3.38128" fill="none" stroke="black"/>
<path d="M61.7283,264.194v 3.38128" fill="none" stroke="black"/>
<path d="M61.7283,267.575v -259.493" fill="none" stroke="black"/>
<path d="M78.2294,267.575h -16.501" fill="none" stroke="black"/>
<path d="M69.9789,259.175h -8.25052" fill="none" stroke="black"/>
<path d="M69.9789,250.775h -8.25052" fill="none" stroke="black"/>
<path d="M69.9789,242.374h -8.25052" fill="none" stroke="black"/>
<path d="M69.9789,233.974h -8.25052" fill="none" stroke="black"/>
<path d="M78.2294,225.573h -16.501" fill="none" stroke="black"/>
<path d="M69.9789,217.173h -8.25052" fill="none" stroke="black"/>
<path d="M69.9789,208.773h -8.25052" fill="none" stroke="black"/>
<path d="M69.9789,200.372h -8.25052" fill="none" stroke="black"/>
<path d="M69.9789,191.972h -8.25052" fill="none" stroke="black"/>
<path d="M78.2294,183.571h -16.501" fill="none" stroke="black"/>
<path d="M69.9789,175.171h -8.25052" fill="none" stroke="black"/>
<path d="M69.9789,166.771h -8.25052" fill="none" stroke="black"/>
<path d="M69.9789,158.37h -8.25052" fill="none" stroke="black"/>
<path d="M69.9789,149.97h -8.25052" fill="none" stroke="black"/>
<path d="M78.2294,141.569h -16.501" fill="none" stroke="black"/>
<path d="M69.9789,133.169h -8.25052" fill="none" stroke="black"/>
<path d="M69.9789,124.769h -8.25052" fill="none" stroke="black"/>
<path d="M69.9789,116.368h -8.25052" fill="none" stroke="black"/>
<path d="M69.9789,107.968h -8.25052" fill="none" stroke="black"/>
<path d="M78.2294,99.5675h -16.501" fill="none" stroke="black"/>
<path d="M69.9789,91.1671h -8.25052" fill="none" stroke="black"/>
<path d="M69.9789,82.7667h -8.25052" fill="none" stroke="black"/>
<path d="M69.9789,74.3663h -8.25052" fill="none" stroke="black"/>
<path d="M69.9789,65.9659h -8.25052" fill="none" stroke="black"/>
<path d="M78.2294,57.5655h -16.501" fill="none" stroke="black"/>
<path d="M69.9789,49.1651h -8.25052" fill="none" stroke="black"/>
<path d="M69.9789,40.7647h -8.25052" fill="none" stroke="black"/>
<path d="M69.9789,32.3643h -8.25052" fill="none" stroke="black"/>
<path d="M69.9789,23.9639h -8.25052" fill="none" stroke="black"/>
<path d="M78.2294,15.5635h -16.501" fill="none" stroke="black"/>
<path d="M78.2294,15.5635h -16.501" fill="none" stroke="black"/>
<text xml:space="preserve" x="53.5904" y="271.14" fill="black" font-size="8.91652" font-family="Helvetica">0</text>
<text xml:space="preserve" x="46.006" y="228.478" fill="black" font-size="8.91652" font-family="Helvetica">0.5</text>
<text xml:space="preserve" x="54.5384" y="186.764" fill="black" font-size="8.91652" font-family="Helvetica">1</text>
<text xml:space="preserve" x="46.006" y="145.05" fill="black" font-size="8.91652" font-family="Helvetica">1.5</text>
<text xml:space="preserve" x="53.5904" y="103.337" fill="black" font-size="8.91652" font-family="Helvetica">2</text>
<text xml:space="preserve" x="46.006" y="60.6747" fill="black" font-size="8.91652" font-family="Helvetica">2.5</text>
<text xml:space="preserve" x="53.5904" y="18.9608" fill="black" font-size="8.91652" font-family="Helvetica">3</text>
<g transform="rotate(-90,20.4089,52.1423)">
<text xml:space="preserve" x="20.4089" y="52.1423" fill="black" font-size="14.9283" font-family="Helvetica">nEvent</text>
</g>
<rect x="439.53" y="22.4982" width="111.118" height="41.9383" fill="white"/>
<path d="M439.53,64.4365h 111.118" fill="none" stroke="black"/>
<path d="M550.648,64.4365v -41.9383" fill="none" stroke="black"/>
<path d="M550.648,22.4982h -111.118" fill="none" stroke="black"/>
<path d="M439.53,22.4982v 41.9383" fill="none" stroke="black"/>
<text xml:space="preserve" x="439.443" y="30.3373" fill="black" font-size="8.52136" font-family="Helvetica">h_Top_btrk_region3_LO_SR</text>
<path d="M439.53,32.9828h 111.118" fill="none" stroke="black"/>
<text xml:space="preserve" x="444.184" y="41.7138" fill="black" font-size="9.34938" font-family="Helvetica">Entries </text>
<text xml:space="preserve" x="527.611" y="41.7138" fill="black" font-size="9.34938" font-family="Helvetica"> 215</text>
<text xml:space="preserve" x="444.184" y="52.1423" fill="black" font-size="9.34938" font-family="Helvetica">Mean  </text>
<text xml:space="preserve" x="518.131" y="52.1423" fill="black" font-size="9.34938" font-family="Helvetica">  7.883</text>
<text xml:space="preserve" x="444.184" y="62.5708" fill="black" font-size="9.34938" font-family="Helvetica">Std Dev   </text>
<text xml:space="preserve" x="518.131" y="62.5708" fill="black" font-size="9.34938" font-family="Helvetica">  2.938</text>
<path d="M71.6827,251.003v -9.76943" fill="none" stroke="#006699" stroke-width="2"/>
<path d="M71.6827,241.233v -9.76943" fill="none" stroke="#006699" stroke-width="2"/>
<g stroke="black" stroke-width="1" fill="none">
<line x1="70.6827" y1="241.233" x2="71.6827" y2="241.233"/>
</g>
<path d="M91.5913,233.096v -12.4101" fill="none" stroke="#006699" stroke-width="2"/>
<path d="M91.5913,220.686v -12.4101" fill="none" stroke="#006699" stroke-width="2"/>
<g stroke="black" stroke-width="1" fill="none">
<line x1="90.5913" y1="220.686" x2="91.5913" y2="220.686"/>
</g>
<path d="M111.5,216.533v -12.1774" fill="none" stroke="#006699" stroke-width="2"/>
<path d="M111.5,204.356v -12.1774" fill="none" stroke="#006699" stroke-width="2"/>
<g stroke="black" stroke-width="1" fill="none">
<line x1="110.5" y1="204.356" x2="111.5" y2="204.356"/>
</g>
<path d="M131.409,184.824v -17.8772" fill="none" stroke="#006699" stroke-width="2"/>
<path d="M131.409,166.947v -17.8772" fill="none" stroke="#006699" stroke-width="2"/>
<g stroke="black" stroke-width="1" fill="none">
<line x1="130.409" y1="166.947" x2="131.409" y2="166.947"/>
</g>
<path d="M151.317,139.334v -17.9652" fill="none" stroke="#006699" stroke-width="2"/>
<path d="M151.317,121.369v -17.9652" fill="none" stroke="#006699" stroke-width="2"/>
<g stroke="black" stroke-width="1" fill="none">
<line x1="150.317" y1="121.369" x2="151.317" y2="121.369"/>
</g>
<path d="M171.226,137.425v -17.0532" fill="none" stroke="#006699" stroke-width="2"/>
<path d="M171.226,120.372v -17.0532" fill="none" stroke="#006699" stroke-width="2"/>
<g stroke="black" stroke-width="1" fill="none">
<line x1="170.226" y1="120.372" x2="171.226" y2="120.372"/>
</g>
<path d="M191.135,122.96v -15.411" fill="none" stroke="#006699" stroke-width="2"/>
<path d="M191.135,107.549v -15.411" fill="none" stroke="#006699" stroke-width="2"/>
<g stroke="black" stroke-width="1" fill="none">
<line x1="190.135" y1="107.549" x2="191.135" y2="107.549"/>
</g>
<path d="M211.043,146.004v -14.5672" fill="none" stroke="#006699" stroke-width="2"/>
<path d="M211.043,131.437v -14.5672" fill="none" stroke="#006699" stroke-width="2"/>
<g stroke="black" stroke-width="1" fill="none">
<line x1="210.043" y1="131.437" x2="211.043" y2="131.437"/>
</g>
<path d="M230.952,164.125v -13.8511" fill="none" stroke="#006699" stroke-width="2"/>
<path d="M230.952,150.274v -13.8511" fill="none" stroke="#006699" stroke-width="2"/>
<g stroke="black" stroke-width="1" fill="none">
<line x1="229.952" y1="150.274" x2="230.952" y2="150.274"/>
</g>
<path d="M250.861,197.054v -10.5741" fill="none" stroke="#006699" stroke-width="2"/>
<path d="M250.861,186.48v -10.5741" fill="none" stroke="#006699" stroke-width="2"/>
<g stroke="black" stroke-width="1" fill="none">
<line x1="249.861" y1="186.48" x2="250.861" y2="186.48"/>
</g>
<path d="M270.769,223.878v -7.28275" fill="none" stroke="#006699" stroke-width="2"/>
<path d="M270.769,216.595v -7.28275" fill="none" stroke="#006699" stroke-width="2"/>
<g stroke="black" stroke-width="1" fill="none">
<line x1="269.769" y1="216.595" x2="270.769" y2="216.595"/>
</g>
<path d="M290.678,218.7v -8.92485" fill="none" stroke="#006699" stroke-width="2"/>
<path d="M290.678,209.775v -8.92485" fill="none" stroke="#006699" stroke-width="2"/>
<g stroke="black" stroke-width="1" fill="none">
<line x1="289.678" y1="209.775" x2="290.678" y2="209.775"/>
</g>
<path d="M310.587,254.943v -3.20499" fill="none" stroke="#006699" stroke-width="2"/>
<path d="M310.587,251.738v -3.20499" fill="none" stroke="#006699" stroke-width="2"/>
<g stroke="black" stroke-width="1" fill="none">
<line x1="309.587" y1="251.738" x2="310.587" y2="251.738"/>
</g>
<path d="M330.495,259.986v -1.66433" fill="none" stroke="#006699" stroke-width="2"/>
<path d="M330.495,258.321v -1.66433" fill="none" stroke="#006699" stroke-width="2"/>
<g stroke="black" stroke-width="1" fill="none">
<line x1="329.495" y1="258.321" x2="330.495" y2="258.321"/>
</g>
<path d="M439.993,246.948v -3.19237" fill="none" stroke="#006699" stroke-width="2"/>
<path d="M439.993,243.756v -3.19237" fill="none" stroke="#006699" stroke-width="2"/>
<g stroke="black" stroke-width="1" fill="none">
<line x1="438.993" y1="243.756" x2="439.993" y2="243.756"/>
</g>
<path d="M61.7283,241.233h 19.9087v -20.5474h 19.9087v -16.3303h 19.9087v -37.409h 19.9087v -45.5778h 19.9087v -0.996494h 19.9087v -12.8228h 19.9087v 23.8876h 19.9087v 18.8367h 19.9087v 36.2064h 19.9087v 30.1151h 19.9087v -6.82056h 19.9087v 41.9631h
 19.9087v 6.58352h 19.9087v -14.5656h 199.087" fill="none" stroke="#006699" stroke-width="2"/>
<text xml:space="preserve" x="353.172" y="78.6875" fill="black" font-size="14.9283" font-family="Helvetica">| &lt;= 2.5</text>
<text xml:space="preserve" x="345.587" y="78.6875" fill="black" font-size="14.9283" font-family="Times">&#0951;</text>
<text xml:space="preserve" x="260.264" y="78.6875" fill="black" font-size="14.9283" font-family="Helvetica">b flavor , 2 &lt; |</text>
<text xml:space="preserve" x="303.873" y="113.765" fill="black" font-size="14.9283" font-family="Helvetica">True Background</text>
<path d="M263.477,110.307h 34.0299" fill="none" stroke="#ff0000" stroke-width="2"/>
<path d="M280.492,120.791v -20.9692" fill="none" stroke="#ff0000" stroke-width="2"/>
<text xml:space="preserve" x="303.873" y="150.739" fill="black" font-size="14.9283" font-family="Helvetica">Predict</text>
<path d="M263.477,145.255h 34.0299" fill="none" stroke="#006699" stroke-width="2"/>
<path d="M280.492,155.74v -20.9692" fill="none" stroke="#006699" stroke-width="2"/>
<rect x="6.16929" y="278.497" width="555.591" height="262.115" fill="white"/>
<rect x="61.7283" y="278.497" width="477.808" height="209.692" fill="white"/>
<rect x="61.7283" y="278.497" width="477.808" height="209.692" fill="none" stroke="black"/>
<path d="M71.6827,466.257v -16.8936" fill="none" stroke="black" stroke-width="2"/>
<path d="M71.6827,449.363v -16.8936" fill="none" stroke="black" stroke-width="2"/>
<path d="M61.7283,449.363h 9.95433" fill="none" stroke="black" stroke-width="2"/>
<path d="M71.6827,449.363h 9.95433" fill="none" stroke="black" stroke-width="2"/>
<g stroke="black" stroke-width="1" fill="none">
<line x1="70.6827" y1="449.363" x2="71.6827" y2="449.363"/>
</g>
<path d="M91.5913,461.508v -12.5193" fill="none" stroke="black" stroke-width="2"/>
<path d="M91.5913,448.989v -12.5193" fill="none" stroke="black" stroke-width="2"/>
<path d="M81.637,448.989h 9.95433" fill="none" stroke="black" stroke-width="2"/>
<path d="M91.5913,448.989h 9.95433" fill="none" stroke="black" stroke-width="2"/>
<g stroke="black" stroke-width="1" fill="none">
<line x1="90.5913" y1="448.989" x2="91.5913" y2="448.989"/>
</g>
<path d="M111.5,472.418v -5.87228" fill="none" stroke="black" stroke-width="2"/>
<path d="M111.5,466.545v -5.87228" fill="none" stroke="black" stroke-width="2"/>
<path d="M101.546,466.545h 9.95433" fill="none" stroke="black" stroke-width="2"/>
<path d="M111.5,466.545h 9.95433" fill="none" stroke="black" stroke-width="2"/>
<g stroke="black" stroke-width="1" fill="none">
<line x1="110.5" y1="466.545" x2="111.5" y2="466.545"/>
</g>
<path d="M131.409,468.982v -5.49449" fill="none" stroke="black" stroke-width="2"/>
<path d="M131.409,463.487v -5.49449" fill="none" stroke="black" stroke-width="2"/>
<path d="M121.454,463.487h 9.95433" fill="none" stroke="black" stroke-width="2"/>
<path d="M131.409,463.487h 9.95433" fill="none" stroke="black" stroke-width="2"/>
<g stroke="black" stroke-width="1" fill="none">
<line x1="130.409" y1="463.487" x2="131.409" y2="463.487"/>
</g>
<path d="M151.317,458.678v -6.11775" fill="none" stroke="black" stroke-width="2"/>
<path d="M151.317,452.56v -6.11775" fill="none" stroke="black" stroke-width="2"/>
<path d="M141.363,452.56h 9.95433" fill="none" stroke="black" stroke-width="2"/>
<path d="M151.317,452.56h 9.95433" fill="none" stroke="black" stroke-width="2"/>
<g stroke="black" stroke-width="1" fill="none">
<line x1="150.317" y1="452.56" x2="151.317" y2="452.56"/>
</g>
<path d="M171.226,463.062v -5.21953" fill="none" stroke="black" stroke-width="2"/>
<path d="M171.226,457.842v -5.21953" fill="none" stroke="black" stroke-width="2"/>
<path d="M161.272,457.842h 9.95433" fill="none" stroke="black" stroke-width="2"/>
<path d="M171.226,457.842h 9.95433" fill="none" stroke="black" stroke-width="2"/>
<g stroke="black" stroke-width="1" fill="none">
<line x1="170.226" y1="457.842" x2="171.226" y2="457.842"/>
</g>
<path d="M191.135,455.06v -6.01915" fill="none" stroke="black" stroke-width="2"/>
<path d="M191.135,449.04v -6.01915" fill="none" stroke="black" stroke-width="2"/>
<path d="M181.18,449.04h 9.95433" fill="none" stroke="black" stroke-width="2"/>
<path d="M191.135,449.04h 9.95433" fill="none" stroke="black" stroke-width="2"/>
<g stroke="black" stroke-width="1" fill="none">
<line x1="190.135" y1="449.04" x2="191.135" y2="449.04"/>
</g>
<path d="M211.043,455.757v -8.13464" fill="none" stroke="black" stroke-width="2"/>
<path d="M211.043,447.622v -8.13464" fill="none" stroke="black" stroke-width="2"/>
<path d="M201.089,447.622h 9.95433" fill="none" stroke="black" stroke-width="2"/>
<path d="M211.043,447.622h 9.95433" fill="none" stroke="black" stroke-width="2"/>
<g stroke="black" stroke-width="1" fill="none">
<line x1="210.043" y1="447.622" x2="211.043" y2="447.622"/>
</g>
<path d="M230.952,455.231v -10.7768" fill="none" stroke="black" stroke-width="2"/>
<path d="M230.952,444.454v -10.7768" fill="none" stroke="black" stroke-width="2"/>
<path d="M220.998,444.454h 9.95433" fill="none" stroke="black" stroke-width="2"/>
<path d="M230.952,444.454h 9.95433" fill="none" stroke="black" stroke-width="2"/>
<g stroke="black" stroke-width="1" fill="none">
<line x1="229.952" y1="444.454" x2="230.952" y2="444.454"/>
</g>
<path d="M250.861,458.534v -8.15699" fill="none" stroke="black" stroke-width="2"/>
<path d="M250.861,450.377v -8.15699" fill="none" stroke="black" stroke-width="2"/>
<path d="M240.906,450.377h 9.95433" fill="none" stroke="black" stroke-width="2"/>
<path d="M250.861,450.377h 9.95433" fill="none" stroke="black" stroke-width="2"/>
<g stroke="black" stroke-width="1" fill="none">
<line x1="249.861" y1="450.377" x2="250.861" y2="450.377"/>
</g>
<path d="M270.769,459.167v -10.3664" fill="none" stroke="black" stroke-width="2"/>
<path d="M270.769,448.8v -10.3664" fill="none" stroke="black" stroke-width="2"/>
<path d="M260.815,448.8h 9.95433" fill="none" stroke="black" stroke-width="2"/>
<path d="M270.769,448.8h 9.95433" fill="none" stroke="black" stroke-width="2"/>
<g stroke="black" stroke-width="1" fill="none">
<line x1="269.769" y1="448.8" x2="270.769" y2="448.8"/>
</g>
<path d="M290.678,461.434v -9.28643" fill="none" stroke="black" stroke-width="2"/>
<path d="M290.678,452.147v -9.28643" fill="none" stroke="black" stroke-width="2"/>
<path d="M280.724,452.147h 9.95433" fill="none" stroke="black" stroke-width="2"/>
<path d="M290.678,452.147h 9.95433" fill="none" stroke="black" stroke-width="2"/>
<g stroke="black" stroke-width="1" fill="none">
<line x1="289.678" y1="452.147" x2="290.678" y2="452.147"/>
</g>
<path d="M310.587,474.218v -14.1249" fill="none" stroke="black" stroke-width="2"/>
<path d="M310.587,460.093v -14.1249" fill="none" stroke="black" stroke-width="2"/>
<path d="M300.632,460.093h 9.95433" fill="none" stroke="black" stroke-width="2"/>
<path d="M310.587,460.093h 9.95433" fill="none" stroke="black" stroke-width="2"/>
<g stroke="black" stroke-width="1" fill="none">
<line x1="309.587" y1="460.093" x2="310.587" y2="460.093"/>
</g>
<path d="M330.495,451.63v -81.574" fill="none" stroke="black" stroke-width="2"/>
<path d="M330.495,370.056v -81.574" fill="none" stroke="black" stroke-width="2"/>
<path d="M320.541,370.056h 9.95433" fill="none" stroke="black" stroke-width="2"/>
<path d="M330.495,370.056h 9.95433" fill="none" stroke="black" stroke-width="2"/>
<g stroke="black" stroke-width="1" fill="none">
<line x1="329.495" y1="370.056" x2="330.495" y2="370.056"/>
</g>
<path d="M439.993,478.679v -0.43674" fill="none" stroke="black" stroke-width="2"/>
<path d="M439.993,478.242v -0.43674" fill="none" stroke="black" stroke-width="2"/>
<path d="M340.45,478.242h 99.5433" fill="none" stroke="black" stroke-width="2"/>
<path d="M439.993,478.242h 99.5433" fill="none" stroke="black" stroke-width="2"/>
<g stroke="black" stroke-width="1" fill="none">
<line x1="438.993" y1="478.242" x2="439.993" y2="478.242"/>
</g>
<path d="M64.1174,448.19l 4.77808, 0.38098l 4.77808, 0.38098l 4.77808, 0.38098l 4.77808, 0.38098l 4.77808, 0.38098l 4.77808, 0.38098l 4.77808, 0.38098l 4.77808, 0.38098l 4.77808, 0.38098l 4.77808, 0.38098l 4.77808, 0.38098l 4.77808, 0.38098l 4.77808,
 0.38098l 4.77808, 0.38098l 4.77808, 0.38098l 4.77808, 0.38098l 4.77808, 0.38098l 4.77808, 0.38098l 4.77808, 0.38098l 4.77808, 0.38098l 4.77808, 0.38098l 4.77808, 0.38098l 4.77808, 0.38098l 4.77808, 0.38098l 4.77808, 0.38098l 4.77808, 0.38098l
 4.77808, 0.38098l 4.77808, 0.38098l 4.77808, 0.38098l 4.77808, 0.38098l 4.77808, 0.38098l 4.77808, 0.38098l 4.77808, 0.38098l 4.77808, 0.38098l 4.77808, 0.38098l 4.77808, 0.38098l 4.77808, 0.38098l 4.77808, 0.38098l 4.77808, 0.38098l 4.77808,
 0.38098l 4.77808, 0.38098l 4.77808, 0.38098l 4.77808, 0.38098l 4.77808, 0.38098l 4.77808, 0.38098l 4.77808, 0.38098l 4.77808, 0.38098l 4.77808, 0.38098l 4.77808, 0.38098" fill="none" stroke="#339966" stroke-width="2"/>
<path d="M298.243,466.858l 4.77808, 0.38098l 4.77808, 0.38098l 4.77808, 0.38098l 4.77808, 0.38098l 4.77808, 0.38098l 4.77808, 0.38098l 4.77808, 0.38098l 4.77808, 0.38098l 4.77808, 0.38098l 4.77808, 0.38098l 4.77808, 0.38098l 4.77808, 0.38098l
 4.77808, 0.38098l 4.77808, 0.38098l 4.77808, 0.38098l 4.77808, 0.38098l 4.77808, 0.38098l 4.77808, 0.38098l 4.77808, 0.38098l 4.77808, 0.38098l 4.77808, 0.38098l 4.77808, 0.38098l 4.77808, 0.38098l 4.77808, 0.38098l 4.77808, 0.38098l 4.77808,
 0.38098l 4.77808, 0.38098l 4.77808, 0.38098l 4.77808, 0.38098l 4.77808, 0.38098l 4.77808, 0.38098l 4.77808, 0.38098l 4.77808, 0.38098l 4.77808, 0.38098l 4.77808, 0.38098l 4.77808, 0.38098l 4.77808, 0.38098l 4.77808, 0.38098l 4.77808, 0.38098l
 4.77808, 0.38098l 4.77808, 0.38098l 4.77808, 0.38098l 4.77808, 0.38098l 4.77808, 0.38098l 4.77808, 0.38098l 4.77808, 0.38098l 4.77808, 0.38098l 4.77808, 0.38098l 4.77808, 0.38098" fill="none" stroke="#339966" stroke-width="2"/>
<path d="M532.369,485.526l 4.77808, 0.38098" fill="none" stroke="#339966" stroke-width="2"/>
<path d="M61.7283,488.189h 477.808" fill="none" stroke="black"/>
<path d="M141.363,481.426v 6.76256" fill="none" stroke="black"/>
<path d="M161.272,484.807v 3.38128" fill="none" stroke="black"/>
<path d="M181.18,484.807v 3.38128" fill="none" stroke="black"/>
<path d="M201.089,484.807v 3.38128" fill="none" stroke="black"/>
<path d="M220.998,484.807v 3.38128" fill="none" stroke="black"/>
<path d="M240.906,481.426v 6.76256" fill="none" stroke="black"/>
<path d="M260.815,484.807v 3.38128" fill="none" stroke="black"/>
<path d="M280.724,484.807v 3.38128" fill="none" stroke="black"/>
<path d="M300.632,484.807v 3.38128" fill="none" stroke="black"/>
<path d="M320.541,484.807v 3.38128" fill="none" stroke="black"/>
<path d="M340.45,481.426v 6.76256" fill="none" stroke="black"/>
<path d="M360.358,484.807v 3.38128" fill="none" stroke="black"/>
<path d="M380.267,484.807v 3.38128" fill="none" stroke="black"/>
<path d="M400.176,484.807v 3.38128" fill="none" stroke="black"/>
<path d="M420.084,484.807v 3.38128" fill="none" stroke="black"/>
<path d="M439.993,481.426v 6.76256" fill="none" stroke="black"/>
<path d="M459.902,484.807v 3.38128" fill="none" stroke="black"/>
<path d="M479.81,484.807v 3.38128" fill="none" stroke="black"/>
<path d="M499.719,484.807v 3.38128" fill="none" stroke="black"/>
<path d="M519.628,484.807v 3.38128" fill="none" stroke="black"/>
<path d="M539.536,481.426v 6.76256" fill="none" stroke="black"/>
<path d="M141.363,481.426v 6.76256" fill="none" stroke="black"/>
<path d="M121.454,484.807v 3.38128" fill="none" stroke="black"/>
<path d="M101.546,484.807v 3.38128" fill="none" stroke="black"/>
<path d="M81.637,484.807v 3.38128" fill="none" stroke="black"/>
<path d="M61.7283,484.807v 3.38128" fill="none" stroke="black"/>
<text xml:space="preserve" x="137.966" y="496.774" fill="black" font-size="8.91652" font-family="Helvetica">5</text>
<text xml:space="preserve" x="235.614" y="496.774" fill="black" font-size="8.91652" font-family="Helvetica">10</text>
<text xml:space="preserve" x="335.159" y="496.774" fill="black" font-size="8.91652" font-family="Helvetica">15</text>
<text xml:space="preserve" x="434.703" y="496.774" fill="black" font-size="8.91652" font-family="Helvetica">20</text>
<text xml:space="preserve" x="534.248" y="496.774" fill="black" font-size="8.91652" font-family="Helvetica">25</text>
<text xml:space="preserve" x="433.755" y="516.683" fill="black" font-size="14.9283" font-family="Helvetica">Track multiplicity</text>
<path d="M61.7283,278.497h 477.808" fill="none" stroke="black"/>
<path d="M141.363,285.259v -6.76256" fill="none" stroke="black"/>
<path d="M161.272,281.878v -3.38128" fill="none" stroke="black"/>
<path d="M181.18,281.878v -3.38128" fill="none" stroke="black"/>
<path d="M201.089,281.878v -3.38128" fill="none" stroke="black"/>
<path d="M220.998,281.878v -3.38128" fill="none" stroke="black"/>
<path d="M240.906,285.259v -6.76256" fill="none" stroke="black"/>
<path d="M260.815,281.878v -3.38128" fill="none" stroke="black"/>
<path d="M280.724,281.878v -3.38128" fill="none" stroke="black"/>
<path d="M300.632,281.878v -3.38128" fill="none" stroke="black"/>
<path d="M320.541,281.878v -3.38128" fill="none" stroke="black"/>
<path d="M340.45,285.259v -6.76256" fill="none" stroke="black"/>
<path d="M360.358,281.878v -3.38128" fill="none" stroke="black"/>
<path d="M380.267,281.878v -3.38128" fill="none" stroke="black"/>
<path d="M400.176,281.878v -3.38128" fill="none" stroke="black"/>
<path d="M420.084,281.878v -3.38128" fill="none" stroke="black"/>
<path d="M439.993,285.259v -6.76256" fill="none" stroke="black"/>
<path d="M459.902,281.878v -3.38128" fill="none" stroke="black"/>
<path d="M479.81,281.878v -3.38128" fill="none" stroke="black"/>
<path d="M499.719,281.878v -3.38128" fill="none" stroke="black"/>
<path d="M519.628,281.878v -3.38128" fill="none" stroke="black"/>
<path d="M539.536,285.259v -6.76256" fill="none" stroke="black"/>
<path d="M141.363,285.259v -6.76256" fill="none" stroke="black"/>
<path d="M121.454,281.878v -3.38128" fill="none" stroke="black"/>
<path d="M101.546,281.878v -3.38128" fill="none" stroke="black"/>
<path d="M81.637,281.878v -3.38128" fill="none" stroke="black"/>
<path d="M61.7283,281.878v -3.38128" fill="none" stroke="black"/>
<path d="M61.7283,488.189v -209.692" fill="none" stroke="black"/>
<path d="M75.0625,478.675h -13.3342" fill="none" stroke="black"/>
<path d="M68.3954,474.151h -6.66709" fill="none" stroke="black"/>
<path d="M68.3954,469.627h -6.66709" fill="none" stroke="black"/>
<path d="M68.3954,465.103h -6.66709" fill="none" stroke="black"/>
<path d="M68.3954,460.579h -6.66709" fill="none" stroke="black"/>
<path d="M75.0625,456.054h -13.3342" fill="none" stroke="black"/>
<path d="M68.3954,451.53h -6.66709" fill="none" stroke="black"/>
<path d="M68.3954,447.006h -6.66709" fill="none" stroke="black"/>
<path d="M68.3954,442.482h -6.66709" fill="none" stroke="black"/>
<path d="M68.3954,437.958h -6.66709" fill="none" stroke="black"/>
<path d="M75.0625,433.434h -13.3342" fill="none" stroke="black"/>
<path d="M68.3954,428.91h -6.66709" fill="none" stroke="black"/>
<path d="M68.3954,424.386h -6.66709" fill="none" stroke="black"/>
<path d="M68.3954,419.862h -6.66709" fill="none" stroke="black"/>
<path d="M68.3954,415.338h -6.66709" fill="none" stroke="black"/>
<path d="M75.0625,410.814h -13.3342" fill="none" stroke="black"/>
<path d="M68.3954,406.29h -6.66709" fill="none" stroke="black"/>
<path d="M68.3954,401.765h -6.66709" fill="none" stroke="black"/>
<path d="M68.3954,397.241h -6.66709" fill="none" stroke="black"/>
<path d="M68.3954,392.717h -6.66709" fill="none" stroke="black"/>
<path d="M75.0625,388.193h -13.3342" fill="none" stroke="black"/>
<path d="M68.3954,383.669h -6.66709" fill="none" stroke="black"/>
<path d="M68.3954,379.145h -6.66709" fill="none" stroke="black"/>
<path d="M68.3954,374.621h -6.66709" fill="none" stroke="black"/>
<path d="M68.3954,370.097h -6.66709" fill="none" stroke="black"/>
<path d="M75.0625,365.573h -13.3342" fill="none" stroke="black"/>
<path d="M68.3954,361.049h -6.66709" fill="none" stroke="black"/>
<path d="M68.3954,356.525h -6.66709" fill="none" stroke="black"/>
<path d="M68.3954,352.001h -6.66709" fill="none" stroke="black"/>
<path d="M68.3954,347.476h -6.66709" fill="none" stroke="black"/>
<path d="M75.0625,342.952h -13.3342" fill="none" stroke="black"/>
<path d="M68.3954,338.428h -6.66709" fill="none" stroke="black"/>
<path d="M68.3954,333.904h -6.66709" fill="none" stroke="black"/>
<path d="M68.3954,329.38h -6.66709" fill="none" stroke="black"/>
<path d="M68.3954,324.856h -6.66709" fill="none" stroke="black"/>
<path d="M75.0625,320.332h -13.3342" fill="none" stroke="black"/>
<path d="M68.3954,315.808h -6.66709" fill="none" stroke="black"/>
<path d="M68.3954,311.284h -6.66709" fill="none" stroke="black"/>
<path d="M68.3954,306.76h -6.66709" fill="none" stroke="black"/>
<path d="M68.3954,302.236h -6.66709" fill="none" stroke="black"/>
<path d="M75.0625,297.712h -13.3342" fill="none" stroke="black"/>
<path d="M75.0625,478.675h -13.3342" fill="none" stroke="black"/>
<path d="M68.3954,483.199h -6.66709" fill="none" stroke="black"/>
<path d="M68.3954,487.723h -6.66709" fill="none" stroke="black"/>
<path d="M75.0625,297.712h -13.3342" fill="none" stroke="black"/>
<path d="M68.3954,293.188h -6.66709" fill="none" stroke="black"/>
<path d="M68.3954,288.663h -6.66709" fill="none" stroke="black"/>
<path d="M68.3954,284.139h -6.66709" fill="none" stroke="black"/>
<path d="M68.3954,279.615h -6.66709" fill="none" stroke="black"/>
<text xml:space="preserve" x="53.5904" y="481.605" fill="black" font-size="8.91652" font-family="Helvetica">0</text>
<text xml:space="preserve" x="54.5384" y="459.8" fill="black" font-size="8.91652" font-family="Helvetica">1</text>
<text xml:space="preserve" x="53.5904" y="437.047" fill="black" font-size="8.91652" font-family="Helvetica">2</text>
<text xml:space="preserve" x="53.5904" y="414.294" fill="black" font-size="8.91652" font-family="Helvetica">3</text>
<text xml:space="preserve" x="53.5904" y="391.541" fill="black" font-size="8.91652" font-family="Helvetica">4</text>
<text xml:space="preserve" x="53.5904" y="368.788" fill="black" font-size="8.91652" font-family="Helvetica">5</text>
<text xml:space="preserve" x="53.5904" y="346.035" fill="black" font-size="8.91652" font-family="Helvetica">6</text>
<text xml:space="preserve" x="53.5904" y="323.282" fill="black" font-size="8.91652" font-family="Helvetica">7</text>
<text xml:space="preserve" x="53.5904" y="301.477" fill="black" font-size="8.91652" font-family="Helvetica">8</text>
<g transform="rotate(-90,27.0452,458.852)">
<text xml:space="preserve" x="27.0452" y="458.852" fill="black" font-size="14.9283" font-family="Helvetica">True Background / Predicted</text>
</g>
<rect x="439.53" y="295.534" width="111.118" height="41.9383" fill="white"/>
<path d="M439.53,337.473h 111.118" fill="none" stroke="black"/>
<path d="M550.648,337.473v -41.9383" fill="none" stroke="black"/>
<path d="M550.648,295.534h -111.118" fill="none" stroke="black"/>
<path d="M439.53,295.534v 41.9383" fill="none" stroke="black"/>
<text xml:space="preserve" x="445.132" y="303.373" fill="black" font-size="9.28384" font-family="Helvetica">h_btrk_rg3_LO_T_P_ratio</text>
<path d="M439.53,306.019h 111.118" fill="none" stroke="black"/>
<text xml:space="preserve" x="444.184" y="314.75" fill="black" font-size="9.34938" font-family="Helvetica">Entries </text>
<text xml:space="preserve" x="532.352" y="314.75" fill="black" font-size="9.34938" font-family="Helvetica"> 25</text>
<text xml:space="preserve" x="444.184" y="325.178" fill="black" font-size="9.34938" font-family="Helvetica">Mean  </text>
<text xml:space="preserve" x="518.131" y="325.178" fill="black" font-size="9.34938" font-family="Helvetica">  9.367</text>
<text xml:space="preserve" x="444.184" y="335.607" fill="black" font-size="9.34938" font-family="Helvetica">Std Dev   </text>
<text xml:space="preserve" x="520.027" y="335.607" fill="black" font-size="9.34938" font-family="Helvetica">  4.351</text>
<text xml:space="preserve" x="343.691" y="328.023" fill="black" font-size="14.9283" font-family="Helvetica">Fitting function</text>
<text xml:space="preserve" x="387.301" y="368.788" fill="black" font-size="14.9283" font-family="Helvetica">1.426268 + -0.070176*x</text>
<path d="M346.816,363.684h 34.0299" fill="none" stroke="#339966" stroke-width="2"/></svg>
