<?xml version="1.0" standalone="no"?>
<svg width="567.429" height="546.572" viewBox="0 0 567.429 546.572" xmlns="http://www.w3.org/2000/svg" shape-rendering="crispEdges">
<title>
/home/kuanyu/Documents/CMS/Background_Estimate/fake_rate/top_emu/CT_Top(emu)_JetEta_byjetpt_LO.svg
</title>
<desc>
Creator: ROOT Version 6.26/04
CreationDate: Thu Dec 22 18:09:57 2022</desc>
<defs>
</defs>
<rect x="0.5" y="0" width="566.929" height="546.072" fill="white"/>
<rect x="6.16929" y="5.46072" width="555.591" height="262.115" fill="white"/>
<rect x="61.7284" y="8.08187" width="477.808" height="259.493" fill="white"/>
<rect x="61.7284" y="8.08187" width="477.808" height="259.493" fill="none" stroke="black"/>
<rect x="61.7284" y="8.08187" width="477.808" height="259.493" fill="white"/>
<rect x="61.7284" y="8.08187" width="477.808" height="259.493" fill="none" stroke="black"/>
<path d="M101.546,205.262v -11.5842" fill="none" stroke="#ff0000" stroke-width="2"/>
<path d="M101.546,193.678v -10.2604" fill="none" stroke="#ff0000" stroke-width="2"/>
<path d="M93.5822,193.678h 7.96346" fill="none" stroke="#ff0000" stroke-width="2"/>
<path d="M101.546,193.678h 7.96346" fill="none" stroke="#ff0000" stroke-width="2"/>
<g stroke="black" stroke-width="1" fill="none">
<line x1="100.546" y1="193.678" x2="101.546" y2="193.678"/>
</g>
<path d="M117.473,132.149v -9.30325" fill="none" stroke="#ff0000" stroke-width="2"/>
<path d="M117.473,122.846v -8.43015" fill="none" stroke="#ff0000" stroke-width="2"/>
<path d="M109.509,122.846h 7.96346" fill="none" stroke="#ff0000" stroke-width="2"/>
<path d="M117.473,122.846h 7.96346" fill="none" stroke="#ff0000" stroke-width="2"/>
<g stroke="black" stroke-width="1" fill="none">
<line x1="116.473" y1="122.846" x2="117.473" y2="122.846"/>
</g>
<path d="M133.4,140.737v -10.2809" fill="none" stroke="#ff0000" stroke-width="2"/>
<path d="M133.4,130.456v -9.22487" fill="none" stroke="#ff0000" stroke-width="2"/>
<path d="M125.436,130.456h 7.96346" fill="none" stroke="#ff0000" stroke-width="2"/>
<path d="M133.4,130.456h 7.96346" fill="none" stroke="#ff0000" stroke-width="2"/>
<g stroke="black" stroke-width="1" fill="none">
<line x1="132.4" y1="130.456" x2="133.4" y2="130.456"/>
</g>
<path d="M149.326,116.488v -8.33404" fill="none" stroke="#ff0000" stroke-width="2"/>
<path d="M149.326,108.154v -7.62656" fill="none" stroke="#ff0000" stroke-width="2"/>
<path d="M141.363,108.154h 7.96346" fill="none" stroke="#ff0000" stroke-width="2"/>
<path d="M149.326,108.154h 7.96346" fill="none" stroke="#ff0000" stroke-width="2"/>
<g stroke="black" stroke-width="1" fill="none">
<line x1="148.326" y1="108.154" x2="149.326" y2="108.154"/>
</g>
<path d="M165.253,114.393v -7.96527" fill="none" stroke="#ff0000" stroke-width="2"/>
<path d="M165.253,106.427v -7.31661" fill="none" stroke="#ff0000" stroke-width="2"/>
<path d="M157.29,106.427h 7.96346" fill="none" stroke="#ff0000" stroke-width="2"/>
<path d="M165.253,106.427h 7.96346" fill="none" stroke="#ff0000" stroke-width="2"/>
<g stroke="black" stroke-width="1" fill="none">
<line x1="164.253" y1="106.427" x2="165.253" y2="106.427"/>
</g>
<path d="M181.18,109.356v -8.41609" fill="none" stroke="#ff0000" stroke-width="2"/>
<path d="M181.18,100.94v -7.69521" fill="none" stroke="#ff0000" stroke-width="2"/>
<path d="M173.217,100.94h 7.96346" fill="none" stroke="#ff0000" stroke-width="2"/>
<path d="M181.18,100.94h 7.96346" fill="none" stroke="#ff0000" stroke-width="2"/>
<g stroke="black" stroke-width="1" fill="none">
<line x1="180.18" y1="100.94" x2="181.18" y2="100.94"/>
</g>
<path d="M197.107,95.3567v -6.32124" fill="none" stroke="#ff0000" stroke-width="2"/>
<path d="M197.107,89.0354v -5.90581" fill="none" stroke="#ff0000" stroke-width="2"/>
<path d="M189.144,89.0354h 7.96346" fill="none" stroke="#ff0000" stroke-width="2"/>
<path d="M197.107,89.0354h 7.96346" fill="none" stroke="#ff0000" stroke-width="2"/>
<g stroke="black" stroke-width="1" fill="none">
<line x1="196.107" y1="89.0354" x2="197.107" y2="89.0354"/>
</g>
<path d="M213.034,100.27v -7.22243" fill="none" stroke="#ff0000" stroke-width="2"/>
<path d="M213.034,93.0471v -6.68508" fill="none" stroke="#ff0000" stroke-width="2"/>
<path d="M205.071,93.0471h 7.96346" fill="none" stroke="#ff0000" stroke-width="2"/>
<path d="M213.034,93.0471h 7.96346" fill="none" stroke="#ff0000" stroke-width="2"/>
<g stroke="black" stroke-width="1" fill="none">
<line x1="212.034" y1="93.0471" x2="213.034" y2="93.0471"/>
</g>
<path d="M228.961,89.9072v -6.74721" fill="none" stroke="#ff0000" stroke-width="2"/>
<path d="M228.961,83.16v -6.27597" fill="none" stroke="#ff0000" stroke-width="2"/>
<path d="M220.998,83.16h 7.96346" fill="none" stroke="#ff0000" stroke-width="2"/>
<path d="M228.961,83.16h 7.96346" fill="none" stroke="#ff0000" stroke-width="2"/>
<g stroke="black" stroke-width="1" fill="none">
<line x1="227.961" y1="83.16" x2="228.961" y2="83.16"/>
</g>
<path d="M244.888,77.9231v -6.40756" fill="none" stroke="#ff0000" stroke-width="2"/>
<path d="M244.888,71.5156v -5.98109" fill="none" stroke="#ff0000" stroke-width="2"/>
<path d="M236.925,71.5156h 7.96346" fill="none" stroke="#ff0000" stroke-width="2"/>
<path d="M244.888,71.5156h 7.96346" fill="none" stroke="#ff0000" stroke-width="2"/>
<g stroke="black" stroke-width="1" fill="none">
<line x1="243.888" y1="71.5156" x2="244.888" y2="71.5156"/>
</g>
<path d="M260.815,87.0694v -7.02146" fill="none" stroke="#ff0000" stroke-width="2"/>
<path d="M260.815,80.0479v -6.51256" fill="none" stroke="#ff0000" stroke-width="2"/>
<path d="M252.852,80.0479h 7.96346" fill="none" stroke="#ff0000" stroke-width="2"/>
<path d="M260.815,80.0479h 7.96346" fill="none" stroke="#ff0000" stroke-width="2"/>
<g stroke="black" stroke-width="1" fill="none">
<line x1="259.815" y1="80.0479" x2="260.815" y2="80.0479"/>
</g>
<path d="M276.742,97.0395v -7.28553" fill="none" stroke="#ff0000" stroke-width="2"/>
<path d="M276.742,89.754v -6.73911" fill="none" stroke="#ff0000" stroke-width="2"/>
<path d="M268.778,89.754h 7.96346" fill="none" stroke="#ff0000" stroke-width="2"/>
<path d="M276.742,89.754h 7.96346" fill="none" stroke="#ff0000" stroke-width="2"/>
<g stroke="black" stroke-width="1" fill="none">
<line x1="275.742" y1="89.754" x2="276.742" y2="89.754"/>
</g>
<path d="M292.669,107.832v -7.58523" fill="none" stroke="#ff0000" stroke-width="2"/>
<path d="M292.669,100.246v -6.99472" fill="none" stroke="#ff0000" stroke-width="2"/>
<path d="M284.705,100.246h 7.96346" fill="none" stroke="#ff0000" stroke-width="2"/>
<path d="M292.669,100.246h 7.96346" fill="none" stroke="#ff0000" stroke-width="2"/>
<g stroke="black" stroke-width="1" fill="none">
<line x1="291.669" y1="100.246" x2="292.669" y2="100.246"/>
</g>
<path d="M308.596,104.571v -6.64603" fill="none" stroke="#ff0000" stroke-width="2"/>
<path d="M308.596,97.9246v -6.18835" fill="none" stroke="#ff0000" stroke-width="2"/>
<path d="M300.632,97.9246h 7.96346" fill="none" stroke="#ff0000" stroke-width="2"/>
<path d="M308.596,97.9246h 7.96346" fill="none" stroke="#ff0000" stroke-width="2"/>
<g stroke="black" stroke-width="1" fill="none">
<line x1="307.596" y1="97.9246" x2="308.596" y2="97.9246"/>
</g>
<path d="M324.523,104.559v -7.17962" fill="none" stroke="#ff0000" stroke-width="2"/>
<path d="M324.523,97.3794v -6.6484" fill="none" stroke="#ff0000" stroke-width="2"/>
<path d="M316.559,97.3794h 7.96346" fill="none" stroke="#ff0000" stroke-width="2"/>
<path d="M324.523,97.3794h 7.96346" fill="none" stroke="#ff0000" stroke-width="2"/>
<g stroke="black" stroke-width="1" fill="none">
<line x1="323.523" y1="97.3794" x2="324.523" y2="97.3794"/>
</g>
<path d="M340.45,79.3166v -6.79016" fill="none" stroke="#ff0000" stroke-width="2"/>
<path d="M340.45,72.5264v -6.31311" fill="none" stroke="#ff0000" stroke-width="2"/>
<path d="M332.486,72.5264h 7.96346" fill="none" stroke="#ff0000" stroke-width="2"/>
<path d="M340.45,72.5264h 7.96346" fill="none" stroke="#ff0000" stroke-width="2"/>
<g stroke="black" stroke-width="1" fill="none">
<line x1="339.45" y1="72.5264" x2="340.45" y2="72.5264"/>
</g>
<path d="M356.377,85.5242v -6.77715" fill="none" stroke="#ff0000" stroke-width="2"/>
<path d="M356.377,78.747v -6.30186" fill="none" stroke="#ff0000" stroke-width="2"/>
<path d="M348.413,78.747h 7.96346" fill="none" stroke="#ff0000" stroke-width="2"/>
<path d="M356.377,78.747h 7.96346" fill="none" stroke="#ff0000" stroke-width="2"/>
<g stroke="black" stroke-width="1" fill="none">
<line x1="355.377" y1="78.747" x2="356.377" y2="78.747"/>
</g>
<path d="M372.303,93.1323v -7.09171" fill="none" stroke="#ff0000" stroke-width="2"/>
<path d="M372.303,86.0406v -6.57295" fill="none" stroke="#ff0000" stroke-width="2"/>
<path d="M364.34,86.0406h 7.96346" fill="none" stroke="#ff0000" stroke-width="2"/>
<path d="M372.303,86.0406h 7.96346" fill="none" stroke="#ff0000" stroke-width="2"/>
<g stroke="black" stroke-width="1" fill="none">
<line x1="371.303" y1="86.0406" x2="372.303" y2="86.0406"/>
</g>
<path d="M388.23,99.3924v -7.18161" fill="none" stroke="#ff0000" stroke-width="2"/>
<path d="M388.23,92.2108v -6.6501" fill="none" stroke="#ff0000" stroke-width="2"/>
<path d="M380.267,92.2108h 7.96346" fill="none" stroke="#ff0000" stroke-width="2"/>
<path d="M388.23,92.2108h 7.96346" fill="none" stroke="#ff0000" stroke-width="2"/>
<g stroke="black" stroke-width="1" fill="none">
<line x1="387.23" y1="92.2108" x2="388.23" y2="92.2108"/>
</g>
<path d="M404.157,90.7409v -6.78314" fill="none" stroke="#ff0000" stroke-width="2"/>
<path d="M404.157,83.9578v -6.30705" fill="none" stroke="#ff0000" stroke-width="2"/>
<path d="M396.194,83.9578h 7.96346" fill="none" stroke="#ff0000" stroke-width="2"/>
<path d="M404.157,83.9578h 7.96346" fill="none" stroke="#ff0000" stroke-width="2"/>
<g stroke="black" stroke-width="1" fill="none">
<line x1="403.157" y1="83.9578" x2="404.157" y2="83.9578"/>
</g>
<path d="M420.084,112.534v -7.83504" fill="none" stroke="#ff0000" stroke-width="2"/>
<path d="M420.084,104.699v -7.2066" fill="none" stroke="#ff0000" stroke-width="2"/>
<path d="M412.121,104.699h 7.96346" fill="none" stroke="#ff0000" stroke-width="2"/>
<path d="M420.084,104.699h 7.96346" fill="none" stroke="#ff0000" stroke-width="2"/>
<g stroke="black" stroke-width="1" fill="none">
<line x1="419.084" y1="104.699" x2="420.084" y2="104.699"/>
</g>
<path d="M436.011,110.292v -7.1533" fill="none" stroke="#ff0000" stroke-width="2"/>
<path d="M436.011,103.139v -6.62582" fill="none" stroke="#ff0000" stroke-width="2"/>
<path d="M428.048,103.139h 7.96346" fill="none" stroke="#ff0000" stroke-width="2"/>
<path d="M436.011,103.139h 7.96346" fill="none" stroke="#ff0000" stroke-width="2"/>
<g stroke="black" stroke-width="1" fill="none">
<line x1="435.011" y1="103.139" x2="436.011" y2="103.139"/>
</g>
<path d="M451.938,133.209v -8.62118" fill="none" stroke="#ff0000" stroke-width="2"/>
<path d="M451.938,124.587v -7.86628" fill="none" stroke="#ff0000" stroke-width="2"/>
<path d="M443.975,124.587h 7.96346" fill="none" stroke="#ff0000" stroke-width="2"/>
<path d="M451.938,124.587h 7.96346" fill="none" stroke="#ff0000" stroke-width="2"/>
<g stroke="black" stroke-width="1" fill="none">
<line x1="450.938" y1="124.587" x2="451.938" y2="124.587"/>
</g>
<path d="M467.865,136.442v -9.20343" fill="none" stroke="#ff0000" stroke-width="2"/>
<path d="M467.865,127.239v -8.34812" fill="none" stroke="#ff0000" stroke-width="2"/>
<path d="M459.902,127.239h 7.96346" fill="none" stroke="#ff0000" stroke-width="2"/>
<path d="M467.865,127.239h 7.96346" fill="none" stroke="#ff0000" stroke-width="2"/>
<g stroke="black" stroke-width="1" fill="none">
<line x1="466.865" y1="127.239" x2="467.865" y2="127.239"/>
</g>
<path d="M483.792,136.759v -8.82619" fill="none" stroke="#ff0000" stroke-width="2"/>
<path d="M483.792,127.933v -8.03659" fill="none" stroke="#ff0000" stroke-width="2"/>
<path d="M475.828,127.933h 7.96346" fill="none" stroke="#ff0000" stroke-width="2"/>
<path d="M483.792,127.933h 7.96346" fill="none" stroke="#ff0000" stroke-width="2"/>
<g stroke="black" stroke-width="1" fill="none">
<line x1="482.792" y1="127.933" x2="483.792" y2="127.933"/>
</g>
<path d="M499.719,195.634v -12.1561" fill="none" stroke="#ff0000" stroke-width="2"/>
<path d="M499.719,183.478v -10.7064" fill="none" stroke="#ff0000" stroke-width="2"/>
<path d="M491.755,183.478h 7.96346" fill="none" stroke="#ff0000" stroke-width="2"/>
<path d="M499.719,183.478h 7.96346" fill="none" stroke="#ff0000" stroke-width="2"/>
<g stroke="black" stroke-width="1" fill="none">
<line x1="498.719" y1="183.478" x2="499.719" y2="183.478"/>
</g>
<path d="M61.7284,267.575h 477.808" fill="none" stroke="black"/>
<path d="M61.7284,260.813v 6.76256" fill="none" stroke="black"/>
<path d="M77.6553,264.194v 3.38128" fill="none" stroke="black"/>
<path d="M93.5822,264.194v 3.38128" fill="none" stroke="black"/>
<path d="M109.509,264.194v 3.38128" fill="none" stroke="black"/>
<path d="M125.436,264.194v 3.38128" fill="none" stroke="black"/>
<path d="M141.363,260.813v 6.76256" fill="none" stroke="black"/>
<path d="M157.29,264.194v 3.38128" fill="none" stroke="black"/>
<path d="M173.217,264.194v 3.38128" fill="none" stroke="black"/>
<path d="M189.144,264.194v 3.38128" fill="none" stroke="black"/>
<path d="M205.071,264.194v 3.38128" fill="none" stroke="black"/>
<path d="M220.998,260.813v 6.76256" fill="none" stroke="black"/>
<path d="M236.925,264.194v 3.38128" fill="none" stroke="black"/>
<path d="M252.852,264.194v 3.38128" fill="none" stroke="black"/>
<path d="M268.778,264.194v 3.38128" fill="none" stroke="black"/>
<path d="M284.705,264.194v 3.38128" fill="none" stroke="black"/>
<path d="M300.632,260.813v 6.76256" fill="none" stroke="black"/>
<path d="M316.559,264.194v 3.38128" fill="none" stroke="black"/>
<path d="M332.486,264.194v 3.38128" fill="none" stroke="black"/>
<path d="M348.413,264.194v 3.38128" fill="none" stroke="black"/>
<path d="M364.34,264.194v 3.38128" fill="none" stroke="black"/>
<path d="M380.267,260.813v 6.76256" fill="none" stroke="black"/>
<path d="M396.194,264.194v 3.38128" fill="none" stroke="black"/>
<path d="M412.121,264.194v 3.38128" fill="none" stroke="black"/>
<path d="M428.048,264.194v 3.38128" fill="none" stroke="black"/>
<path d="M443.975,264.194v 3.38128" fill="none" stroke="black"/>
<path d="M459.902,260.813v 6.76256" fill="none" stroke="black"/>
<path d="M475.828,264.194v 3.38128" fill="none" stroke="black"/>
<path d="M491.755,264.194v 3.38128" fill="none" stroke="black"/>
<path d="M507.682,264.194v 3.38128" fill="none" stroke="black"/>
<path d="M523.609,264.194v 3.38128" fill="none" stroke="black"/>
<path d="M539.536,260.813v 6.76256" fill="none" stroke="black"/>
<path d="M539.536,260.813v 6.76256" fill="none" stroke="black"/>
<text xml:space="preserve" x="534.248" y="284.413" fill="black" font-size="8.91652" font-family="Times">&#0951;</text>
<text xml:space="preserve" x="520.027" y="284.413" fill="black" font-size="8.91652" font-family="Helvetica">Jet </text>
<path d="M61.7284,267.575v -259.493" fill="none" stroke="black"/>
<path d="M69.9789,246.986h -8.25052" fill="none" stroke="black"/>
<path d="M69.9789,221.124h -8.25052" fill="none" stroke="black"/>
<path d="M69.9789,201.064h -8.25052" fill="none" stroke="black"/>
<path d="M69.9789,184.673h -8.25052" fill="none" stroke="black"/>
<path d="M69.9789,170.815h -8.25052" fill="none" stroke="black"/>
<path d="M69.9789,158.811h -8.25052" fill="none" stroke="black"/>
<path d="M69.9789,148.222h -8.25052" fill="none" stroke="black"/>
<path d="M78.2294,138.75h -16.501" fill="none" stroke="black"/>
<text xml:space="preserve" x="47.9021" y="142.206" fill="black" font-size="8.91652" font-family="Helvetica">10</text>
<path d="M69.9789,76.437h -8.25052" fill="none" stroke="black"/>
<path d="M69.9789,39.9861h -8.25052" fill="none" stroke="black"/>
<path d="M69.9789,14.1238h -8.25052" fill="none" stroke="black"/>
<g transform="rotate(-90,24.201,35.0776)">
<text xml:space="preserve" x="24.201" y="35.0776" fill="black" font-size="14.9283" font-family="Helvetica">nJet</text>
</g>
<path d="M101.546,252.272v -4.56056" fill="none" stroke="#006699" stroke-width="2"/>
<path d="M101.546,247.712v -4.34033" fill="none" stroke="#006699" stroke-width="2"/>
<g stroke="black" stroke-width="1" fill="none">
<line x1="100.546" y1="247.712" x2="101.546" y2="247.712"/>
</g>
<path d="M117.473,159.374v -2.92283" fill="none" stroke="#006699" stroke-width="2"/>
<path d="M117.473,156.451v -2.83079" fill="none" stroke="#006699" stroke-width="2"/>
<g stroke="black" stroke-width="1" fill="none">
<line x1="116.473" y1="156.451" x2="117.473" y2="156.451"/>
</g>
<path d="M133.4,148.229v -2.71097" fill="none" stroke="#006699" stroke-width="2"/>
<path d="M133.4,145.518v -2.6316" fill="none" stroke="#006699" stroke-width="2"/>
<g stroke="black" stroke-width="1" fill="none">
<line x1="132.4" y1="145.518" x2="133.4" y2="145.518"/>
</g>
<path d="M149.326,133.861v -2.51484" fill="none" stroke="#006699" stroke-width="2"/>
<path d="M149.326,131.346v -2.4464" fill="none" stroke="#006699" stroke-width="2"/>
<g stroke="black" stroke-width="1" fill="none">
<line x1="148.326" y1="131.346" x2="149.326" y2="131.346"/>
</g>
<path d="M165.253,114.557v -2.21118" fill="none" stroke="#006699" stroke-width="2"/>
<path d="M165.253,112.346v -2.1581" fill="none" stroke="#006699" stroke-width="2"/>
<g stroke="black" stroke-width="1" fill="none">
<line x1="164.253" y1="112.346" x2="165.253" y2="112.346"/>
</g>
<path d="M181.18,100.623v -2.05727" fill="none" stroke="#006699" stroke-width="2"/>
<path d="M181.18,98.566v -2.01124" fill="none" stroke="#006699" stroke-width="2"/>
<g stroke="black" stroke-width="1" fill="none">
<line x1="180.18" y1="98.566" x2="181.18" y2="98.566"/>
</g>
<path d="M197.107,93.7636v -1.94413" fill="none" stroke="#006699" stroke-width="2"/>
<path d="M197.107,91.8195v -1.90297" fill="none" stroke="#006699" stroke-width="2"/>
<g stroke="black" stroke-width="1" fill="none">
<line x1="196.107" y1="91.8195" x2="197.107" y2="91.8195"/>
</g>
<path d="M213.034,81.7956v -1.87603" fill="none" stroke="#006699" stroke-width="2"/>
<path d="M213.034,79.9196v -1.83768" fill="none" stroke="#006699" stroke-width="2"/>
<g stroke="black" stroke-width="1" fill="none">
<line x1="212.034" y1="79.9196" x2="213.034" y2="79.9196"/>
</g>
<path d="M228.961,75.2996v -1.76768" fill="none" stroke="#006699" stroke-width="2"/>
<path d="M228.961,73.5319v -1.73359" fill="none" stroke="#006699" stroke-width="2"/>
<g stroke="black" stroke-width="1" fill="none">
<line x1="227.961" y1="73.5319" x2="228.961" y2="73.5319"/>
</g>
<path d="M244.888,70.0176v -1.71113" fill="none" stroke="#006699" stroke-width="2"/>
<path d="M244.888,68.3065v -1.67917" fill="none" stroke="#006699" stroke-width="2"/>
<g stroke="black" stroke-width="1" fill="none">
<line x1="243.888" y1="68.3065" x2="244.888" y2="68.3065"/>
</g>
<path d="M260.815,63.6777v -1.67813" fill="none" stroke="#006699" stroke-width="2"/>
<path d="M260.815,61.9996v -1.64738" fill="none" stroke="#006699" stroke-width="2"/>
<g stroke="black" stroke-width="1" fill="none">
<line x1="259.815" y1="61.9996" x2="260.815" y2="61.9996"/>
</g>
<path d="M276.742,59.6841v -1.67945" fill="none" stroke="#006699" stroke-width="2"/>
<path d="M276.742,58.0047v -1.64865" fill="none" stroke="#006699" stroke-width="2"/>
<g stroke="black" stroke-width="1" fill="none">
<line x1="275.742" y1="58.0047" x2="276.742" y2="58.0047"/>
</g>
<path d="M292.669,59.173v -1.60191" fill="none" stroke="#006699" stroke-width="2"/>
<path d="M292.669,57.5711v -1.57387" fill="none" stroke="#006699" stroke-width="2"/>
<g stroke="black" stroke-width="1" fill="none">
<line x1="291.669" y1="57.5711" x2="292.669" y2="57.5711"/>
</g>
<path d="M308.596,56.2965v -1.59935" fill="none" stroke="#006699" stroke-width="2"/>
<path d="M308.596,54.6972v -1.57139" fill="none" stroke="#006699" stroke-width="2"/>
<g stroke="black" stroke-width="1" fill="none">
<line x1="307.596" y1="54.6972" x2="308.596" y2="54.6972"/>
</g>
<path d="M324.523,63.8475v -1.64481" fill="none" stroke="#006699" stroke-width="2"/>
<path d="M324.523,62.2026v -1.61526" fill="none" stroke="#006699" stroke-width="2"/>
<g stroke="black" stroke-width="1" fill="none">
<line x1="323.523" y1="62.2026" x2="324.523" y2="62.2026"/>
</g>
<path d="M340.45,61.4233v -1.66027" fill="none" stroke="#006699" stroke-width="2"/>
<path d="M340.45,59.7631v -1.63016" fill="none" stroke="#006699" stroke-width="2"/>
<g stroke="black" stroke-width="1" fill="none">
<line x1="339.45" y1="59.7631" x2="340.45" y2="59.7631"/>
</g>
<path d="M356.377,67.8277v -1.68411" fill="none" stroke="#006699" stroke-width="2"/>
<path d="M356.377,66.1436v -1.65314" fill="none" stroke="#006699" stroke-width="2"/>
<g stroke="black" stroke-width="1" fill="none">
<line x1="355.377" y1="66.1436" x2="356.377" y2="66.1436"/>
</g>
<path d="M372.303,72.2622v -1.76347" fill="none" stroke="#006699" stroke-width="2"/>
<path d="M372.303,70.4988v -1.72954" fill="none" stroke="#006699" stroke-width="2"/>
<g stroke="black" stroke-width="1" fill="none">
<line x1="371.303" y1="70.4988" x2="372.303" y2="70.4988"/>
</g>
<path d="M388.23,85.0244v -1.91149" fill="none" stroke="#006699" stroke-width="2"/>
<path d="M388.23,83.1129v -1.87169" fill="none" stroke="#006699" stroke-width="2"/>
<g stroke="black" stroke-width="1" fill="none">
<line x1="387.23" y1="83.1129" x2="388.23" y2="83.1129"/>
</g>
<path d="M404.157,92.8594v -1.95852" fill="none" stroke="#006699" stroke-width="2"/>
<path d="M404.157,90.9008v -1.91676" fill="none" stroke="#006699" stroke-width="2"/>
<g stroke="black" stroke-width="1" fill="none">
<line x1="403.157" y1="90.9008" x2="404.157" y2="90.9008"/>
</g>
<path d="M420.084,105.58v -2.16298" fill="none" stroke="#006699" stroke-width="2"/>
<path d="M420.084,103.417v -2.11216" fill="none" stroke="#006699" stroke-width="2"/>
<g stroke="black" stroke-width="1" fill="none">
<line x1="419.084" y1="103.417" x2="420.084" y2="103.417"/>
</g>
<path d="M436.011,121.851v -2.39301" fill="none" stroke="#006699" stroke-width="2"/>
<path d="M436.011,119.458v -2.33096" fill="none" stroke="#006699" stroke-width="2"/>
<g stroke="black" stroke-width="1" fill="none">
<line x1="435.011" y1="119.458" x2="436.011" y2="119.458"/>
</g>
<path d="M451.938,133.691v -2.55463" fill="none" stroke="#006699" stroke-width="2"/>
<path d="M451.938,131.137v -2.48404" fill="none" stroke="#006699" stroke-width="2"/>
<g stroke="black" stroke-width="1" fill="none">
<line x1="450.938" y1="131.137" x2="451.938" y2="131.137"/>
</g>
<path d="M467.865,150.407v -2.72666" fill="none" stroke="#006699" stroke-width="2"/>
<path d="M467.865,147.68v -2.64639" fill="none" stroke="#006699" stroke-width="2"/>
<g stroke="black" stroke-width="1" fill="none">
<line x1="466.865" y1="147.68" x2="467.865" y2="147.68"/>
</g>
<path d="M483.792,158.056v -2.98194" fill="none" stroke="#006699" stroke-width="2"/>
<path d="M483.792,155.074v -2.88619" fill="none" stroke="#006699" stroke-width="2"/>
<g stroke="black" stroke-width="1" fill="none">
<line x1="482.792" y1="155.074" x2="483.792" y2="155.074"/>
</g>
<path d="M499.719,243.316v -4.52246" fill="none" stroke="#006699" stroke-width="2"/>
<path d="M499.719,238.794v -4.30581" fill="none" stroke="#006699" stroke-width="2"/>
<g stroke="black" stroke-width="1" fill="none">
<line x1="498.719" y1="238.794" x2="499.719" y2="238.794"/>
</g>
<path d="M61.7284,267.575h 31.8539v -19.8638h 15.9269v -91.2607h 15.9269v -10.9328h 15.9269v -14.1717h 15.9269v -19.0009h 15.9269v -13.7796h 15.9269v -6.7465h 15.9269v -11.8999h 15.9269v -6.3877h 15.9269v -5.2254h 15.9269v -6.3069h 15.9269v -3.99494h
 15.9269v -0.433586h 15.9269v -2.87391h 15.9269v 7.50547h 15.9269v -2.43959h 15.9269v 6.38056h 15.9269v 4.35515h 15.9269v 12.6142h 15.9269v 7.7879h 15.9269v 12.5165h 15.9269v 16.0409h 15.9269v 11.6786h 15.9269v 16.5431h 15.9269v 7.39422h 15.9269v
 83.7198h 15.9269v 28.7814h 31.8539" fill="none" stroke="#006699" stroke-width="2"/>
<text xml:space="preserve" x="247.939" y="176.336" fill="black" font-size="14.9283" font-family="Helvetica">Top to emu</text>
<text xml:space="preserve" x="291.549" y="193.401" fill="black" font-size="14.9283" font-family="Helvetica">True Background</text>
<path d="M250.487,190.082h 34.011" fill="none" stroke="#ff0000" stroke-width="2"/>
<path d="M267.492,195.297v -10.4285" fill="none" stroke="#ff0000" stroke-width="2"/>
<text xml:space="preserve" x="291.549" y="210.465" fill="black" font-size="14.9283" font-family="Helvetica">Predict</text>
<path d="M250.487,207.463h 34.011" fill="none" stroke="#006699" stroke-width="2"/>
<path d="M267.492,212.677v -10.4285" fill="none" stroke="#006699" stroke-width="2"/>
<rect x="6.16929" y="278.497" width="555.591" height="262.115" fill="white"/>
<rect x="61.7283" y="278.497" width="477.808" height="209.692" fill="white"/>
<rect x="61.7283" y="278.497" width="477.808" height="209.692" fill="none" stroke="black"/>
<rect x="61.7283" y="278.497" width="477.808" height="209.692" fill="white"/>
<rect x="61.7283" y="278.497" width="477.808" height="209.692" fill="none" stroke="black"/>
<path d="M101.546,337.474v -22.6458" fill="none" stroke="black" stroke-width="2"/>
<path d="M101.546,314.829v -22.6458" fill="none" stroke="black" stroke-width="2"/>
<path d="M93.5822,314.829h 7.96346" fill="none" stroke="black" stroke-width="2"/>
<path d="M101.546,314.829h 7.96346" fill="none" stroke="black" stroke-width="2"/>
<g stroke="black" stroke-width="1" fill="none">
<line x1="100.546" y1="314.829" x2="101.546" y2="314.829"/>
</g>
<path d="M117.473,364.347v -14.2796" fill="none" stroke="black" stroke-width="2"/>
<path d="M117.473,350.067v -14.2796" fill="none" stroke="black" stroke-width="2"/>
<path d="M109.509,350.067h 7.96346" fill="none" stroke="black" stroke-width="2"/>
<path d="M117.473,350.067h 7.96346" fill="none" stroke="black" stroke-width="2"/>
<g stroke="black" stroke-width="1" fill="none">
<line x1="116.473" y1="350.067" x2="117.473" y2="350.067"/>
</g>
<path d="M133.4,388.406v -12.5943" fill="none" stroke="black" stroke-width="2"/>
<path d="M133.4,375.811v -12.5943" fill="none" stroke="black" stroke-width="2"/>
<path d="M125.436,375.811h 7.96346" fill="none" stroke="black" stroke-width="2"/>
<path d="M133.4,375.811h 7.96346" fill="none" stroke="black" stroke-width="2"/>
<g stroke="black" stroke-width="1" fill="none">
<line x1="132.4" y1="375.811" x2="133.4" y2="375.811"/>
</g>
<path d="M149.326,376.582v -11.4078" fill="none" stroke="black" stroke-width="2"/>
<path d="M149.326,365.174v -11.4078" fill="none" stroke="black" stroke-width="2"/>
<path d="M141.363,365.174h 7.96346" fill="none" stroke="black" stroke-width="2"/>
<path d="M149.326,365.174h 7.96346" fill="none" stroke="black" stroke-width="2"/>
<g stroke="black" stroke-width="1" fill="none">
<line x1="148.326" y1="365.174" x2="149.326" y2="365.174"/>
</g>
<path d="M165.253,395.633v -8.95344" fill="none" stroke="black" stroke-width="2"/>
<path d="M165.253,386.679v -8.95344" fill="none" stroke="black" stroke-width="2"/>
<path d="M157.29,386.679h 7.96346" fill="none" stroke="black" stroke-width="2"/>
<path d="M165.253,386.679h 7.96346" fill="none" stroke="black" stroke-width="2"/>
<g stroke="black" stroke-width="1" fill="none">
<line x1="164.253" y1="386.679" x2="165.253" y2="386.679"/>
</g>
<path d="M181.18,404.157v -8.5334" fill="none" stroke="black" stroke-width="2"/>
<path d="M181.18,395.623v -8.5334" fill="none" stroke="black" stroke-width="2"/>
<path d="M173.217,395.623h 7.96346" fill="none" stroke="black" stroke-width="2"/>
<path d="M181.18,395.623h 7.96346" fill="none" stroke="black" stroke-width="2"/>
<g stroke="black" stroke-width="1" fill="none">
<line x1="180.18" y1="395.623" x2="181.18" y2="395.623"/>
</g>
<path d="M197.107,397.136v -6.9789" fill="none" stroke="black" stroke-width="2"/>
<path d="M197.107,390.157v -6.9789" fill="none" stroke="black" stroke-width="2"/>
<path d="M189.144,390.157h 7.96346" fill="none" stroke="black" stroke-width="2"/>
<path d="M197.107,390.157h 7.96346" fill="none" stroke="black" stroke-width="2"/>
<g stroke="black" stroke-width="1" fill="none">
<line x1="196.107" y1="390.157" x2="197.107" y2="390.157"/>
</g>
<path d="M213.034,412.622v -6.56309" fill="none" stroke="black" stroke-width="2"/>
<path d="M213.034,406.059v -6.56309" fill="none" stroke="black" stroke-width="2"/>
<path d="M205.071,406.059h 7.96346" fill="none" stroke="black" stroke-width="2"/>
<path d="M213.034,406.059h 7.96346" fill="none" stroke="black" stroke-width="2"/>
<g stroke="black" stroke-width="1" fill="none">
<line x1="212.034" y1="406.059" x2="213.034" y2="406.059"/>
</g>
<path d="M228.961,409.193v -6.3941" fill="none" stroke="black" stroke-width="2"/>
<path d="M228.961,402.799v -6.3941" fill="none" stroke="black" stroke-width="2"/>
<path d="M220.998,402.799h 7.96346" fill="none" stroke="black" stroke-width="2"/>
<path d="M228.961,402.799h 7.96346" fill="none" stroke="black" stroke-width="2"/>
<g stroke="black" stroke-width="1" fill="none">
<line x1="227.961" y1="402.799" x2="228.961" y2="402.799"/>
</g>
<path d="M244.888,403.021v -6.54173" fill="none" stroke="black" stroke-width="2"/>
<path d="M244.888,396.479v -6.54173" fill="none" stroke="black" stroke-width="2"/>
<path d="M236.925,396.479h 7.96346" fill="none" stroke="black" stroke-width="2"/>
<path d="M244.888,396.479h 7.96346" fill="none" stroke="black" stroke-width="2"/>
<g stroke="black" stroke-width="1" fill="none">
<line x1="243.888" y1="396.479" x2="244.888" y2="396.479"/>
</g>
<path d="M260.815,416.45v -6.01622" fill="none" stroke="black" stroke-width="2"/>
<path d="M260.815,410.434v -6.01622" fill="none" stroke="black" stroke-width="2"/>
<path d="M252.852,410.434h 7.96346" fill="none" stroke="black" stroke-width="2"/>
<path d="M260.815,410.434h 7.96346" fill="none" stroke="black" stroke-width="2"/>
<g stroke="black" stroke-width="1" fill="none">
<line x1="259.815" y1="410.434" x2="260.815" y2="410.434"/>
</g>
<path d="M276.742,426.767v -5.34203" fill="none" stroke="black" stroke-width="2"/>
<path d="M276.742,421.425v -5.34203" fill="none" stroke="black" stroke-width="2"/>
<path d="M268.778,421.425h 7.96346" fill="none" stroke="black" stroke-width="2"/>
<path d="M276.742,421.425h 7.96346" fill="none" stroke="black" stroke-width="2"/>
<g stroke="black" stroke-width="1" fill="none">
<line x1="275.742" y1="421.425" x2="276.742" y2="421.425"/>
</g>
<path d="M292.669,433.962v -4.89647" fill="none" stroke="black" stroke-width="2"/>
<path d="M292.669,429.066v -4.89647" fill="none" stroke="black" stroke-width="2"/>
<path d="M284.705,429.066h 7.96346" fill="none" stroke="black" stroke-width="2"/>
<path d="M292.669,429.066h 7.96346" fill="none" stroke="black" stroke-width="2"/>
<g stroke="black" stroke-width="1" fill="none">
<line x1="291.669" y1="429.066" x2="292.669" y2="429.066"/>
</g>
<path d="M308.596,433.741v -4.31366" fill="none" stroke="black" stroke-width="2"/>
<path d="M308.596,429.428v -4.31366" fill="none" stroke="black" stroke-width="2"/>
<path d="M300.632,429.428h 7.96346" fill="none" stroke="black" stroke-width="2"/>
<path d="M308.596,429.428h 7.96346" fill="none" stroke="black" stroke-width="2"/>
<g stroke="black" stroke-width="1" fill="none">
<line x1="307.596" y1="429.428" x2="308.596" y2="429.428"/>
</g>
<path d="M324.523,428.991v -5.06861" fill="none" stroke="black" stroke-width="2"/>
<path d="M324.523,423.923v -5.06861" fill="none" stroke="black" stroke-width="2"/>
<path d="M316.559,423.923h 7.96346" fill="none" stroke="black" stroke-width="2"/>
<path d="M324.523,423.923h 7.96346" fill="none" stroke="black" stroke-width="2"/>
<g stroke="black" stroke-width="1" fill="none">
<line x1="323.523" y1="423.923" x2="324.523" y2="423.923"/>
</g>
<path d="M340.45,411.912v -6.18595" fill="none" stroke="black" stroke-width="2"/>
<path d="M340.45,405.726v -6.18595" fill="none" stroke="black" stroke-width="2"/>
<path d="M332.486,405.726h 7.96346" fill="none" stroke="black" stroke-width="2"/>
<path d="M340.45,405.726h 7.96346" fill="none" stroke="black" stroke-width="2"/>
<g stroke="black" stroke-width="1" fill="none">
<line x1="339.45" y1="405.726" x2="340.45" y2="405.726"/>
</g>
<path d="M356.377,411.77v -6.1915" fill="none" stroke="black" stroke-width="2"/>
<path d="M356.377,405.579v -6.1915" fill="none" stroke="black" stroke-width="2"/>
<path d="M348.413,405.579h 7.96346" fill="none" stroke="black" stroke-width="2"/>
<path d="M356.377,405.579h 7.96346" fill="none" stroke="black" stroke-width="2"/>
<g stroke="black" stroke-width="1" fill="none">
<line x1="355.377" y1="405.579" x2="356.377" y2="405.579"/>
</g>
<path d="M372.303,414.496v -6.26047" fill="none" stroke="black" stroke-width="2"/>
<path d="M372.303,408.235v -6.26047" fill="none" stroke="black" stroke-width="2"/>
<path d="M364.34,408.235h 7.96346" fill="none" stroke="black" stroke-width="2"/>
<path d="M372.303,408.235h 7.96346" fill="none" stroke="black" stroke-width="2"/>
<g stroke="black" stroke-width="1" fill="none">
<line x1="371.303" y1="408.235" x2="372.303" y2="408.235"/>
</g>
<path d="M388.23,409.132v -6.83789" fill="none" stroke="black" stroke-width="2"/>
<path d="M388.23,402.294v -6.83789" fill="none" stroke="black" stroke-width="2"/>
<path d="M380.267,402.294h 7.96346" fill="none" stroke="black" stroke-width="2"/>
<path d="M388.23,402.294h 7.96346" fill="none" stroke="black" stroke-width="2"/>
<g stroke="black" stroke-width="1" fill="none">
<line x1="387.23" y1="402.294" x2="388.23" y2="402.294"/>
</g>
<path d="M404.157,393.298v -7.78309" fill="none" stroke="black" stroke-width="2"/>
<path d="M404.157,385.515v -7.78309" fill="none" stroke="black" stroke-width="2"/>
<path d="M396.194,385.515h 7.96346" fill="none" stroke="black" stroke-width="2"/>
<path d="M404.157,385.515h 7.96346" fill="none" stroke="black" stroke-width="2"/>
<g stroke="black" stroke-width="1" fill="none">
<line x1="403.157" y1="385.515" x2="404.157" y2="385.515"/>
</g>
<path d="M420.084,402.623v -8.13137" fill="none" stroke="black" stroke-width="2"/>
<path d="M420.084,394.491v -8.13137" fill="none" stroke="black" stroke-width="2"/>
<path d="M412.121,394.491h 7.96346" fill="none" stroke="black" stroke-width="2"/>
<path d="M420.084,394.491h 7.96346" fill="none" stroke="black" stroke-width="2"/>
<g stroke="black" stroke-width="1" fill="none">
<line x1="419.084" y1="394.491" x2="420.084" y2="394.491"/>
</g>
<path d="M436.011,383.445v -9.21616" fill="none" stroke="black" stroke-width="2"/>
<path d="M436.011,374.229v -9.21616" fill="none" stroke="black" stroke-width="2"/>
<path d="M428.048,374.229h 7.96346" fill="none" stroke="black" stroke-width="2"/>
<path d="M436.011,374.229h 7.96346" fill="none" stroke="black" stroke-width="2"/>
<g stroke="black" stroke-width="1" fill="none">
<line x1="435.011" y1="374.229" x2="436.011" y2="374.229"/>
</g>
<path d="M451.938,395.741v -9.77672" fill="none" stroke="black" stroke-width="2"/>
<path d="M451.938,385.964v -9.77672" fill="none" stroke="black" stroke-width="2"/>
<path d="M443.975,385.964h 7.96346" fill="none" stroke="black" stroke-width="2"/>
<path d="M451.938,385.964h 7.96346" fill="none" stroke="black" stroke-width="2"/>
<g stroke="black" stroke-width="1" fill="none">
<line x1="450.938" y1="385.964" x2="451.938" y2="385.964"/>
</g>
<path d="M467.865,381.026v -12.1445" fill="none" stroke="black" stroke-width="2"/>
<path d="M467.865,368.882v -12.1445" fill="none" stroke="black" stroke-width="2"/>
<path d="M459.902,368.882h 7.96346" fill="none" stroke="black" stroke-width="2"/>
<path d="M467.865,368.882h 7.96346" fill="none" stroke="black" stroke-width="2"/>
<g stroke="black" stroke-width="1" fill="none">
<line x1="466.865" y1="368.882" x2="467.865" y2="368.882"/>
</g>
<path d="M483.792,372.381v -12.7306" fill="none" stroke="black" stroke-width="2"/>
<path d="M483.792,359.651v -12.7306" fill="none" stroke="black" stroke-width="2"/>
<path d="M475.828,359.651h 7.96346" fill="none" stroke="black" stroke-width="2"/>
<path d="M483.792,359.651h 7.96346" fill="none" stroke="black" stroke-width="2"/>
<g stroke="black" stroke-width="1" fill="none">
<line x1="482.792" y1="359.651" x2="483.792" y2="359.651"/>
</g>
<path d="M499.719,336.193v -23.8556" fill="none" stroke="black" stroke-width="2"/>
<path d="M499.719,312.338v -23.8556" fill="none" stroke="black" stroke-width="2"/>
<path d="M491.755,312.338h 7.96346" fill="none" stroke="black" stroke-width="2"/>
<path d="M499.719,312.338h 7.96346" fill="none" stroke="black" stroke-width="2"/>
<g stroke="black" stroke-width="1" fill="none">
<line x1="498.719" y1="312.338" x2="499.719" y2="312.338"/>
</g>
<path d="M64.1174,405.668l 4.77808, -0.00214931l 4.77808, -0.00214931l 4.77808, -0.00214931l 4.77808, -0.00214931l 4.77808, -0.00214931l 4.77808, -0.00214931l 4.77808, -0.00214931l 4.77808, -0.00214931l 4.77808, -0.00214931l 4.77808, -0.00214931l
 4.77808, -0.00214931l 4.77808, -0.00214931l 4.77808, -0.00214931l 4.77808, -0.00214931l 4.77808, -0.00214931l 4.77808, -0.00214931l 4.77808, -0.00214931l 4.77808, -0.00214931l 4.77808, -0.00214931l 4.77808, -0.00214931l 4.77808, -0.00214931l
 4.77808, -0.00214931l 4.77808, -0.00214931l 4.77808, -0.00214931l 4.77808, -0.00214931l 4.77808, -0.00214931l 4.77808, -0.00214931l 4.77808, -0.00214931l 4.77808, -0.00214931l 4.77808, -0.00214931l 4.77808, -0.00214931l 4.77808, -0.00214931l
 4.77808, -0.00214931l 4.77808, -0.00214931l 4.77808, -0.00214931l 4.77808, -0.00214931l 4.77808, -0.00214931l 4.77808, -0.00214931l 4.77808, -0.00214931l 4.77808, -0.00214931l 4.77808, -0.00214931l 4.77808, -0.00214931l 4.77808, -0.00214931l
 4.77808, -0.00214931l 4.77808, -0.00214931l 4.77808, -0.00214931l 4.77808, -0.00214931l 4.77808, -0.00214931l 4.77808, -0.00214931" fill="none" stroke="#339966" stroke-width="2"/>
<path d="M298.243,405.562l 4.77808, -0.00214931l 4.77808, -0.00214931l 4.77808, -0.00214931l 4.77808, -0.00214931l 4.77808, -0.00214931l 4.77808, -0.00214931l 4.77808, -0.00214931l 4.77808, -0.00214931l 4.77808, -0.00214931l 4.77808, -0.00214931l
 4.77808, -0.00214931l 4.77808, -0.00214931l 4.77808, -0.00214931l 4.77808, -0.00214931l 4.77808, -0.00214931l 4.77808, -0.00214931l 4.77808, -0.00214931l 4.77808, -0.00214931l 4.77808, -0.00214931l 4.77808, -0.00214931l 4.77808, -0.00214931l
 4.77808, -0.00214931l 4.77808, -0.00214931l 4.77808, -0.00214931l 4.77808, -0.00214931l 4.77808, -0.00214931l 4.77808, -0.00214931l 4.77808, -0.00214931l 4.77808, -0.00214931l 4.77808, -0.00214931l 4.77808, -0.00214931l 4.77808, -0.00214931l
 4.77808, -0.00214931l 4.77808, -0.00214931l 4.77808, -0.00214931l 4.77808, -0.00214931l 4.77808, -0.00214931l 4.77808, -0.00214931l 4.77808, -0.00214931l 4.77808, -0.00214931l 4.77808, -0.00214931l 4.77808, -0.00214931l 4.77808, -0.00214931l
 4.77808, -0.00214931l 4.77808, -0.00214931l 4.77808, -0.00214931l 4.77808, -0.00214931l 4.77808, -0.00214931l 4.77808, -0.00214931" fill="none" stroke="#339966" stroke-width="2"/>
<path d="M532.369,405.457l 4.77808, -0.00214931" fill="none" stroke="#339966" stroke-width="2"/>
<path d="M61.7283,488.189h 477.808" fill="none" stroke="black"/>
<path d="M61.7283,481.426v 6.76256" fill="none" stroke="black"/>
<path d="M77.6553,484.807v 3.38128" fill="none" stroke="black"/>
<path d="M93.5822,484.807v 3.38128" fill="none" stroke="black"/>
<path d="M109.509,484.807v 3.38128" fill="none" stroke="black"/>
<path d="M125.436,484.807v 3.38128" fill="none" stroke="black"/>
<path d="M141.363,481.426v 6.76256" fill="none" stroke="black"/>
<path d="M157.29,484.807v 3.38128" fill="none" stroke="black"/>
<path d="M173.217,484.807v 3.38128" fill="none" stroke="black"/>
<path d="M189.144,484.807v 3.38128" fill="none" stroke="black"/>
<path d="M205.071,484.807v 3.38128" fill="none" stroke="black"/>
<path d="M220.998,481.426v 6.76256" fill="none" stroke="black"/>
<path d="M236.925,484.807v 3.38128" fill="none" stroke="black"/>
<path d="M252.852,484.807v 3.38128" fill="none" stroke="black"/>
<path d="M268.778,484.807v 3.38128" fill="none" stroke="black"/>
<path d="M284.705,484.807v 3.38128" fill="none" stroke="black"/>
<path d="M300.632,481.426v 6.76256" fill="none" stroke="black"/>
<path d="M316.559,484.807v 3.38128" fill="none" stroke="black"/>
<path d="M332.486,484.807v 3.38128" fill="none" stroke="black"/>
<path d="M348.413,484.807v 3.38128" fill="none" stroke="black"/>
<path d="M364.34,484.807v 3.38128" fill="none" stroke="black"/>
<path d="M380.267,481.426v 6.76256" fill="none" stroke="black"/>
<path d="M396.194,484.807v 3.38128" fill="none" stroke="black"/>
<path d="M412.121,484.807v 3.38128" fill="none" stroke="black"/>
<path d="M428.048,484.807v 3.38128" fill="none" stroke="black"/>
<path d="M443.975,484.807v 3.38128" fill="none" stroke="black"/>
<path d="M459.902,481.426v 6.76256" fill="none" stroke="black"/>
<path d="M475.828,484.807v 3.38128" fill="none" stroke="black"/>
<path d="M491.755,484.807v 3.38128" fill="none" stroke="black"/>
<path d="M507.682,484.807v 3.38128" fill="none" stroke="black"/>
<path d="M523.609,484.807v 3.38128" fill="none" stroke="black"/>
<path d="M539.536,481.426v 6.76256" fill="none" stroke="black"/>
<text xml:space="preserve" x="60.2266" y="496.774" fill="black" font-size="8.91652" font-family="Helvetica">3</text>
<text xml:space="preserve" x="56.4345" y="496.774" fill="black" font-size="8.91652" font-family="Times">&#8722;</text>
<text xml:space="preserve" x="139.862" y="496.774" fill="black" font-size="8.91652" font-family="Helvetica">2</text>
<text xml:space="preserve" x="136.07" y="496.774" fill="black" font-size="8.91652" font-family="Times">&#8722;</text>
<text xml:space="preserve" x="220.446" y="496.774" fill="black" font-size="8.91652" font-family="Helvetica">1</text>
<text xml:space="preserve" x="215.706" y="496.774" fill="black" font-size="8.91652" font-family="Times">&#8722;</text>
<text xml:space="preserve" x="297.237" y="496.774" fill="black" font-size="8.91652" font-family="Helvetica">0</text>
<text xml:space="preserve" x="377.821" y="496.774" fill="black" font-size="8.91652" font-family="Helvetica">1</text>
<text xml:space="preserve" x="456.508" y="496.774" fill="black" font-size="8.91652" font-family="Helvetica">2</text>
<text xml:space="preserve" x="536.144" y="496.774" fill="black" font-size="8.91652" font-family="Helvetica">3</text>
<text xml:space="preserve" x="531.404" y="516.683" fill="black" font-size="14.9283" font-family="Times">&#0951;</text>
<text xml:space="preserve" x="507.702" y="516.683" fill="black" font-size="14.9283" font-family="Helvetica">Jet </text>
<path d="M61.7283,278.497h 477.808" fill="none" stroke="black"/>
<path d="M61.7283,285.259v -6.76256" fill="none" stroke="black"/>
<path d="M77.6553,281.878v -3.38128" fill="none" stroke="black"/>
<path d="M93.5822,281.878v -3.38128" fill="none" stroke="black"/>
<path d="M109.509,281.878v -3.38128" fill="none" stroke="black"/>
<path d="M125.436,281.878v -3.38128" fill="none" stroke="black"/>
<path d="M141.363,285.259v -6.76256" fill="none" stroke="black"/>
<path d="M157.29,281.878v -3.38128" fill="none" stroke="black"/>
<path d="M173.217,281.878v -3.38128" fill="none" stroke="black"/>
<path d="M189.144,281.878v -3.38128" fill="none" stroke="black"/>
<path d="M205.071,281.878v -3.38128" fill="none" stroke="black"/>
<path d="M220.998,285.259v -6.76256" fill="none" stroke="black"/>
<path d="M236.925,281.878v -3.38128" fill="none" stroke="black"/>
<path d="M252.852,281.878v -3.38128" fill="none" stroke="black"/>
<path d="M268.778,281.878v -3.38128" fill="none" stroke="black"/>
<path d="M284.705,281.878v -3.38128" fill="none" stroke="black"/>
<path d="M300.632,285.259v -6.76256" fill="none" stroke="black"/>
<path d="M316.559,281.878v -3.38128" fill="none" stroke="black"/>
<path d="M332.486,281.878v -3.38128" fill="none" stroke="black"/>
<path d="M348.413,281.878v -3.38128" fill="none" stroke="black"/>
<path d="M364.34,281.878v -3.38128" fill="none" stroke="black"/>
<path d="M380.267,285.259v -6.76256" fill="none" stroke="black"/>
<path d="M396.194,281.878v -3.38128" fill="none" stroke="black"/>
<path d="M412.121,281.878v -3.38128" fill="none" stroke="black"/>
<path d="M428.048,281.878v -3.38128" fill="none" stroke="black"/>
<path d="M443.975,281.878v -3.38128" fill="none" stroke="black"/>
<path d="M459.902,285.259v -6.76256" fill="none" stroke="black"/>
<path d="M475.828,281.878v -3.38128" fill="none" stroke="black"/>
<path d="M491.755,281.878v -3.38128" fill="none" stroke="black"/>
<path d="M507.682,281.878v -3.38128" fill="none" stroke="black"/>
<path d="M523.609,281.878v -3.38128" fill="none" stroke="black"/>
<path d="M539.536,285.259v -6.76256" fill="none" stroke="black"/>
<path d="M61.7283,488.189v -209.692" fill="none" stroke="black"/>
<path d="M75.0625,488.189h -13.3342" fill="none" stroke="black"/>
<path d="M68.3954,483.436h -6.66709" fill="none" stroke="black"/>
<path d="M68.3954,478.684h -6.66709" fill="none" stroke="black"/>
<path d="M68.3954,473.932h -6.66709" fill="none" stroke="black"/>
<path d="M75.0625,469.18h -13.3342" fill="none" stroke="black"/>
<path d="M68.3954,464.428h -6.66709" fill="none" stroke="black"/>
<path d="M68.3954,459.676h -6.66709" fill="none" stroke="black"/>
<path d="M68.3954,454.924h -6.66709" fill="none" stroke="black"/>
<path d="M75.0625,450.172h -13.3342" fill="none" stroke="black"/>
<path d="M68.3954,445.42h -6.66709" fill="none" stroke="black"/>
<path d="M68.3954,440.667h -6.66709" fill="none" stroke="black"/>
<path d="M68.3954,435.915h -6.66709" fill="none" stroke="black"/>
<path d="M75.0625,431.163h -13.3342" fill="none" stroke="black"/>
<path d="M68.3954,426.411h -6.66709" fill="none" stroke="black"/>
<path d="M68.3954,421.659h -6.66709" fill="none" stroke="black"/>
<path d="M68.3954,416.907h -6.66709" fill="none" stroke="black"/>
<path d="M75.0625,412.155h -13.3342" fill="none" stroke="black"/>
<path d="M68.3954,407.403h -6.66709" fill="none" stroke="black"/>
<path d="M68.3954,402.651h -6.66709" fill="none" stroke="black"/>
<path d="M68.3954,397.898h -6.66709" fill="none" stroke="black"/>
<path d="M75.0625,393.146h -13.3342" fill="none" stroke="black"/>
<path d="M68.3954,388.394h -6.66709" fill="none" stroke="black"/>
<path d="M68.3954,383.642h -6.66709" fill="none" stroke="black"/>
<path d="M68.3954,378.89h -6.66709" fill="none" stroke="black"/>
<path d="M75.0625,374.138h -13.3342" fill="none" stroke="black"/>
<path d="M68.3954,369.386h -6.66709" fill="none" stroke="black"/>
<path d="M68.3954,364.634h -6.66709" fill="none" stroke="black"/>
<path d="M68.3954,359.882h -6.66709" fill="none" stroke="black"/>
<path d="M75.0625,355.129h -13.3342" fill="none" stroke="black"/>
<path d="M68.3954,350.377h -6.66709" fill="none" stroke="black"/>
<path d="M68.3954,345.625h -6.66709" fill="none" stroke="black"/>
<path d="M68.3954,340.873h -6.66709" fill="none" stroke="black"/>
<path d="M75.0625,336.121h -13.3342" fill="none" stroke="black"/>
<path d="M68.3954,331.369h -6.66709" fill="none" stroke="black"/>
<path d="M68.3954,326.617h -6.66709" fill="none" stroke="black"/>
<path d="M68.3954,321.865h -6.66709" fill="none" stroke="black"/>
<path d="M75.0625,317.113h -13.3342" fill="none" stroke="black"/>
<path d="M68.3954,312.36h -6.66709" fill="none" stroke="black"/>
<path d="M68.3954,307.608h -6.66709" fill="none" stroke="black"/>
<path d="M68.3954,302.856h -6.66709" fill="none" stroke="black"/>
<path d="M75.0625,298.104h -13.3342" fill="none" stroke="black"/>
<path d="M68.3954,293.352h -6.66709" fill="none" stroke="black"/>
<path d="M68.3954,288.6h -6.66709" fill="none" stroke="black"/>
<path d="M68.3954,283.848h -6.66709" fill="none" stroke="black"/>
<path d="M75.0625,279.096h -13.3342" fill="none" stroke="black"/>
<path d="M75.0625,279.096h -13.3342" fill="none" stroke="black"/>
<text xml:space="preserve" x="53.5904" y="491.086" fill="black" font-size="8.91652" font-family="Helvetica">0</text>
<text xml:space="preserve" x="46.006" y="472.125" fill="black" font-size="8.91652" font-family="Helvetica">0.2</text>
<text xml:space="preserve" x="46.006" y="453.164" fill="black" font-size="8.91652" font-family="Helvetica">0.4</text>
<text xml:space="preserve" x="46.006" y="434.203" fill="black" font-size="8.91652" font-family="Helvetica">0.6</text>
<text xml:space="preserve" x="46.006" y="415.242" fill="black" font-size="8.91652" font-family="Helvetica">0.8</text>
<text xml:space="preserve" x="54.5384" y="396.282" fill="black" font-size="8.91652" font-family="Helvetica">1</text>
<text xml:space="preserve" x="46.006" y="377.321" fill="black" font-size="8.91652" font-family="Helvetica">1.2</text>
<text xml:space="preserve" x="46.006" y="358.36" fill="black" font-size="8.91652" font-family="Helvetica">1.4</text>
<text xml:space="preserve" x="46.006" y="339.399" fill="black" font-size="8.91652" font-family="Helvetica">1.6</text>
<text xml:space="preserve" x="46.006" y="320.438" fill="black" font-size="8.91652" font-family="Helvetica">1.8</text>
<text xml:space="preserve" x="53.5904" y="301.477" fill="black" font-size="8.91652" font-family="Helvetica">2</text>
<text xml:space="preserve" x="46.006" y="282.517" fill="black" font-size="8.91652" font-family="Helvetica">2.2</text>
<g transform="rotate(-90,19.4608,458.852)">
<text xml:space="preserve" x="19.4608" y="458.852" fill="black" font-size="14.9283" font-family="Helvetica">True Background / Predicted</text>
</g>
<text xml:space="preserve" x="218.55" y="316.646" fill="black" font-size="14.9283" font-family="Helvetica">Fitting function: par0 + par1*x</text>
<text xml:space="preserve" x="230.874" y="343.191" fill="black" font-size="14.9283" font-family="Helvetica">par0 : 0.869374 +- 0.0148313</text>
<text xml:space="preserve" x="230.874" y="369.736" fill="black" font-size="14.9283" font-family="Helvetica">par1 : 0.000376905 +- 0.014289</text></svg>
