<?xml version="1.0" standalone="no"?>
<svg width="567.429" height="546.572" viewBox="0 0 567.429 546.572" xmlns="http://www.w3.org/2000/svg" shape-rendering="crispEdges">
<title>
/home/kuanyu/Documents/CMS/Background_Estimate/fake_rate/top_emu/CT_Top(emu)_trk_byjeteta_LO.svg
</title>
<desc>
Creator: ROOT Version 6.26/04
CreationDate: Thu Dec 22 17:32:41 2022</desc>
<defs>
</defs>
<rect x="0.5" y="0" width="566.929" height="546.072" fill="white"/>
<rect x="6.16929" y="5.46072" width="555.591" height="262.115" fill="white"/>
<rect x="61.7283" y="8.08187" width="477.808" height="259.493" fill="white"/>
<rect x="61.7283" y="8.08187" width="477.808" height="259.493" fill="none" stroke="black"/>
<rect x="61.7283" y="8.08187" width="477.808" height="259.493" fill="white"/>
<rect x="61.7283" y="8.08187" width="477.808" height="259.493" fill="none" stroke="black"/>
<path d="M67.8541,147.962v -5.44957" fill="none" stroke="#ff0000" stroke-width="2"/>
<path d="M67.8541,142.513v -4.95518" fill="none" stroke="#ff0000" stroke-width="2"/>
<path d="M61.7283,142.513h 6.12574" fill="none" stroke="#ff0000" stroke-width="2"/>
<path d="M67.8541,142.513h 6.12574" fill="none" stroke="#ff0000" stroke-width="2"/>
<g stroke="black" stroke-width="1" fill="none">
<line x1="66.8541" y1="142.513" x2="67.8541" y2="142.513"/>
</g>
<path d="M80.1056,109.868v -3.97238" fill="none" stroke="#ff0000" stroke-width="2"/>
<path d="M80.1056,105.896v -3.70315" fill="none" stroke="#ff0000" stroke-width="2"/>
<path d="M73.9798,105.896h 6.12574" fill="none" stroke="#ff0000" stroke-width="2"/>
<path d="M80.1056,105.896h 6.12574" fill="none" stroke="#ff0000" stroke-width="2"/>
<g stroke="black" stroke-width="1" fill="none">
<line x1="79.1056" y1="105.896" x2="80.1056" y2="105.896"/>
</g>
<path d="M92.3571,79.6651v -3.05861" fill="none" stroke="#ff0000" stroke-width="2"/>
<path d="M92.3571,76.6065v -2.8965" fill="none" stroke="#ff0000" stroke-width="2"/>
<path d="M86.2313,76.6065h 6.12574" fill="none" stroke="#ff0000" stroke-width="2"/>
<path d="M92.3571,76.6065h 6.12574" fill="none" stroke="#ff0000" stroke-width="2"/>
<g stroke="black" stroke-width="1" fill="none">
<line x1="91.3571" y1="76.6065" x2="92.3571" y2="76.6065"/>
</g>
<path d="M104.609,62.5236v -2.38428" fill="none" stroke="#ff0000" stroke-width="2"/>
<path d="M104.609,60.1393v -2.28462" fill="none" stroke="#ff0000" stroke-width="2"/>
<path d="M98.4828,60.1393h 6.12574" fill="none" stroke="#ff0000" stroke-width="2"/>
<path d="M104.609,60.1393h 6.12574" fill="none" stroke="#ff0000" stroke-width="2"/>
<g stroke="black" stroke-width="1" fill="none">
<line x1="103.609" y1="60.1393" x2="104.609" y2="60.1393"/>
</g>
<path d="M116.86,47.6573v -2.37057" fill="none" stroke="#ff0000" stroke-width="2"/>
<path d="M116.86,45.2867v -2.27202" fill="none" stroke="#ff0000" stroke-width="2"/>
<path d="M110.734,45.2867h 6.12574" fill="none" stroke="#ff0000" stroke-width="2"/>
<path d="M116.86,45.2867h 6.12574" fill="none" stroke="#ff0000" stroke-width="2"/>
<g stroke="black" stroke-width="1" fill="none">
<line x1="115.86" y1="45.2867" x2="116.86" y2="45.2867"/>
</g>
<path d="M129.112,48.0123v -2.28343" fill="none" stroke="#ff0000" stroke-width="2"/>
<path d="M129.112,45.7289v -2.19186" fill="none" stroke="#ff0000" stroke-width="2"/>
<path d="M122.986,45.7289h 6.12574" fill="none" stroke="#ff0000" stroke-width="2"/>
<path d="M129.112,45.7289h 6.12574" fill="none" stroke="#ff0000" stroke-width="2"/>
<g stroke="black" stroke-width="1" fill="none">
<line x1="128.112" y1="45.7289" x2="129.112" y2="45.7289"/>
</g>
<path d="M141.363,56.8972v -2.40944" fill="none" stroke="#ff0000" stroke-width="2"/>
<path d="M141.363,54.4878v -2.30771" fill="none" stroke="#ff0000" stroke-width="2"/>
<path d="M135.237,54.4878h 6.12574" fill="none" stroke="#ff0000" stroke-width="2"/>
<path d="M141.363,54.4878h 6.12574" fill="none" stroke="#ff0000" stroke-width="2"/>
<g stroke="black" stroke-width="1" fill="none">
<line x1="140.363" y1="54.4878" x2="141.363" y2="54.4878"/>
</g>
<path d="M153.614,72.1667v -2.98433" fill="none" stroke="#ff0000" stroke-width="2"/>
<path d="M153.614,69.1823v -2.82979" fill="none" stroke="#ff0000" stroke-width="2"/>
<path d="M147.489,69.1823h 6.12574" fill="none" stroke="#ff0000" stroke-width="2"/>
<path d="M153.614,69.1823h 6.12574" fill="none" stroke="#ff0000" stroke-width="2"/>
<g stroke="black" stroke-width="1" fill="none">
<line x1="152.614" y1="69.1823" x2="153.614" y2="69.1823"/>
</g>
<path d="M165.866,86.4863v -3.40662" fill="none" stroke="#ff0000" stroke-width="2"/>
<path d="M165.866,83.0797v -3.20671" fill="none" stroke="#ff0000" stroke-width="2"/>
<path d="M159.74,83.0797h 6.12574" fill="none" stroke="#ff0000" stroke-width="2"/>
<path d="M165.866,83.0797h 6.12574" fill="none" stroke="#ff0000" stroke-width="2"/>
<g stroke="black" stroke-width="1" fill="none">
<line x1="164.866" y1="83.0797" x2="165.866" y2="83.0797"/>
</g>
<path d="M178.117,112.534v -4.21284" fill="none" stroke="#ff0000" stroke-width="2"/>
<path d="M178.117,108.321v -3.91126" fill="none" stroke="#ff0000" stroke-width="2"/>
<path d="M171.992,108.321h 6.12574" fill="none" stroke="#ff0000" stroke-width="2"/>
<path d="M178.117,108.321h 6.12574" fill="none" stroke="#ff0000" stroke-width="2"/>
<g stroke="black" stroke-width="1" fill="none">
<line x1="177.117" y1="108.321" x2="178.117" y2="108.321"/>
</g>
<path d="M190.369,134.302v -5.75891" fill="none" stroke="#ff0000" stroke-width="2"/>
<path d="M190.369,128.543v -5.20959" fill="none" stroke="#ff0000" stroke-width="2"/>
<path d="M184.243,128.543h 6.12574" fill="none" stroke="#ff0000" stroke-width="2"/>
<path d="M190.369,128.543h 6.12574" fill="none" stroke="#ff0000" stroke-width="2"/>
<g stroke="black" stroke-width="1" fill="none">
<line x1="189.369" y1="128.543" x2="190.369" y2="128.543"/>
</g>
<path d="M202.62,161.4v -7.08119" fill="none" stroke="#ff0000" stroke-width="2"/>
<path d="M202.62,154.318v -6.26817" fill="none" stroke="#ff0000" stroke-width="2"/>
<path d="M196.495,154.318h 6.12574" fill="none" stroke="#ff0000" stroke-width="2"/>
<path d="M202.62,154.318h 6.12574" fill="none" stroke="#ff0000" stroke-width="2"/>
<g stroke="black" stroke-width="1" fill="none">
<line x1="201.62" y1="154.318" x2="202.62" y2="154.318"/>
</g>
<path d="M214.872,215.06v -11.2379" fill="none" stroke="#ff0000" stroke-width="2"/>
<path d="M214.872,203.822v -9.31682" fill="none" stroke="#ff0000" stroke-width="2"/>
<path d="M208.746,203.822h 6.12574" fill="none" stroke="#ff0000" stroke-width="2"/>
<path d="M214.872,203.822h 6.12574" fill="none" stroke="#ff0000" stroke-width="2"/>
<g stroke="black" stroke-width="1" fill="none">
<line x1="213.872" y1="203.822" x2="214.872" y2="203.822"/>
</g>
<path d="M227.123,229.687v -15.2403" fill="none" stroke="#ff0000" stroke-width="2"/>
<path d="M227.123,214.447v -11.9044" fill="none" stroke="#ff0000" stroke-width="2"/>
<path d="M220.998,214.447h 6.12574" fill="none" stroke="#ff0000" stroke-width="2"/>
<path d="M227.123,214.447h 6.12574" fill="none" stroke="#ff0000" stroke-width="2"/>
<g stroke="black" stroke-width="1" fill="none">
<line x1="226.123" y1="214.447" x2="227.123" y2="214.447"/>
</g>
<path d="M294.507,227.781v -14.8708" fill="none" stroke="#ff0000" stroke-width="2"/>
<path d="M294.507,212.91v -11.6783" fill="none" stroke="#ff0000" stroke-width="2"/>
<path d="M233.249,212.91h 61.2574" fill="none" stroke="#ff0000" stroke-width="2"/>
<path d="M294.507,212.91h 61.2574" fill="none" stroke="#ff0000" stroke-width="2"/>
<g stroke="black" stroke-width="1" fill="none">
<line x1="293.507" y1="212.91" x2="294.507" y2="212.91"/>
</g>
<path d="M61.7283,267.575h 477.808" fill="none" stroke="black"/>
<path d="M110.734,260.813v 6.76256" fill="none" stroke="black"/>
<path d="M122.986,264.194v 3.38128" fill="none" stroke="black"/>
<path d="M135.237,264.194v 3.38128" fill="none" stroke="black"/>
<path d="M147.489,264.194v 3.38128" fill="none" stroke="black"/>
<path d="M159.74,264.194v 3.38128" fill="none" stroke="black"/>
<path d="M171.992,260.813v 6.76256" fill="none" stroke="black"/>
<path d="M184.243,264.194v 3.38128" fill="none" stroke="black"/>
<path d="M196.495,264.194v 3.38128" fill="none" stroke="black"/>
<path d="M208.746,264.194v 3.38128" fill="none" stroke="black"/>
<path d="M220.998,264.194v 3.38128" fill="none" stroke="black"/>
<path d="M233.249,260.813v 6.76256" fill="none" stroke="black"/>
<path d="M245.501,264.194v 3.38128" fill="none" stroke="black"/>
<path d="M257.752,264.194v 3.38128" fill="none" stroke="black"/>
<path d="M270.004,264.194v 3.38128" fill="none" stroke="black"/>
<path d="M282.255,264.194v 3.38128" fill="none" stroke="black"/>
<path d="M294.507,260.813v 6.76256" fill="none" stroke="black"/>
<path d="M306.758,264.194v 3.38128" fill="none" stroke="black"/>
<path d="M319.01,264.194v 3.38128" fill="none" stroke="black"/>
<path d="M331.261,264.194v 3.38128" fill="none" stroke="black"/>
<path d="M343.512,264.194v 3.38128" fill="none" stroke="black"/>
<path d="M355.764,260.813v 6.76256" fill="none" stroke="black"/>
<path d="M368.015,264.194v 3.38128" fill="none" stroke="black"/>
<path d="M380.267,264.194v 3.38128" fill="none" stroke="black"/>
<path d="M392.518,264.194v 3.38128" fill="none" stroke="black"/>
<path d="M404.77,264.194v 3.38128" fill="none" stroke="black"/>
<path d="M417.021,260.813v 6.76256" fill="none" stroke="black"/>
<path d="M429.273,264.194v 3.38128" fill="none" stroke="black"/>
<path d="M441.524,264.194v 3.38128" fill="none" stroke="black"/>
<path d="M453.776,264.194v 3.38128" fill="none" stroke="black"/>
<path d="M466.027,264.194v 3.38128" fill="none" stroke="black"/>
<path d="M478.279,260.813v 6.76256" fill="none" stroke="black"/>
<path d="M490.53,264.194v 3.38128" fill="none" stroke="black"/>
<path d="M502.782,264.194v 3.38128" fill="none" stroke="black"/>
<path d="M515.033,264.194v 3.38128" fill="none" stroke="black"/>
<path d="M527.285,264.194v 3.38128" fill="none" stroke="black"/>
<path d="M539.536,260.813v 6.76256" fill="none" stroke="black"/>
<path d="M110.734,260.813v 6.76256" fill="none" stroke="black"/>
<path d="M98.4828,264.194v 3.38128" fill="none" stroke="black"/>
<path d="M86.2313,264.194v 3.38128" fill="none" stroke="black"/>
<path d="M73.9798,264.194v 3.38128" fill="none" stroke="black"/>
<text xml:space="preserve" x="475.469" y="284.413" fill="black" font-size="8.91652" font-family="Helvetica">Track multiplicity</text>
<path d="M61.7283,267.575v -259.493" fill="none" stroke="black"/>
<path d="M69.9789,230.502h -8.25052" fill="none" stroke="black"/>
<path d="M69.9789,208.339h -8.25052" fill="none" stroke="black"/>
<path d="M69.9789,192.614h -8.25052" fill="none" stroke="black"/>
<path d="M69.9789,180.417h -8.25052" fill="none" stroke="black"/>
<path d="M69.9789,170.451h -8.25052" fill="none" stroke="black"/>
<path d="M69.9789,162.025h -8.25052" fill="none" stroke="black"/>
<path d="M69.9789,154.726h -8.25052" fill="none" stroke="black"/>
<path d="M69.9789,148.288h -8.25052" fill="none" stroke="black"/>
<path d="M78.2294,142.528h -16.501" fill="none" stroke="black"/>
<text xml:space="preserve" x="47.9021" y="145.998" fill="black" font-size="8.91652" font-family="Helvetica">10</text>
<path d="M69.9789,104.64h -8.25052" fill="none" stroke="black"/>
<path d="M69.9789,82.477h -8.25052" fill="none" stroke="black"/>
<path d="M69.9789,66.7519h -8.25052" fill="none" stroke="black"/>
<path d="M69.9789,54.5546h -8.25052" fill="none" stroke="black"/>
<path d="M69.9789,44.5887h -8.25052" fill="none" stroke="black"/>
<path d="M69.9789,36.1627h -8.25052" fill="none" stroke="black"/>
<path d="M69.9789,28.8637h -8.25052" fill="none" stroke="black"/>
<path d="M69.9789,22.4255h -8.25052" fill="none" stroke="black"/>
<path d="M78.2294,16.6664h -16.501" fill="none" stroke="black"/>
<text xml:space="preserve" x="53.5904" y="16.1167" fill="black" font-size="6.11102" font-family="Helvetica">2</text>
<text xml:space="preserve" x="44.1099" y="20.8569" fill="black" font-size="8.91652" font-family="Helvetica">10</text>
<g transform="rotate(-90,20.4089,35.0776)">
<text xml:space="preserve" x="20.4089" y="35.0776" fill="black" font-size="14.9283" font-family="Helvetica">nJet</text>
</g>
<path d="M67.8541,225.329v -4.03542" fill="none" stroke="#006699" stroke-width="2"/>
<path d="M67.8541,221.294v -3.75788" fill="none" stroke="#006699" stroke-width="2"/>
<g stroke="black" stroke-width="1" fill="none">
<line x1="66.8541" y1="221.294" x2="67.8541" y2="221.294"/>
</g>
<path d="M80.1056,174.876v -2.38377" fill="none" stroke="#006699" stroke-width="2"/>
<path d="M80.1056,172.492v -2.28415" fill="none" stroke="#006699" stroke-width="2"/>
<g stroke="black" stroke-width="1" fill="none">
<line x1="79.1056" y1="172.492" x2="80.1056" y2="172.492"/>
</g>
<path d="M92.3571,131.313v -1.56196" fill="none" stroke="#006699" stroke-width="2"/>
<path d="M92.3571,129.751v -1.51856" fill="none" stroke="#006699" stroke-width="2"/>
<g stroke="black" stroke-width="1" fill="none">
<line x1="91.3571" y1="129.751" x2="92.3571" y2="129.751"/>
</g>
<path d="M104.609,100.024v -1.113" fill="none" stroke="#006699" stroke-width="2"/>
<path d="M104.609,98.911v -1.09078" fill="none" stroke="#006699" stroke-width="2"/>
<g stroke="black" stroke-width="1" fill="none">
<line x1="103.609" y1="98.911" x2="104.609" y2="98.911"/>
</g>
<path d="M116.86,77.9181v -0.927163" fill="none" stroke="#006699" stroke-width="2"/>
<path d="M116.86,76.9909v -0.911698" fill="none" stroke="#006699" stroke-width="2"/>
<g stroke="black" stroke-width="1" fill="none">
<line x1="115.86" y1="76.9909" x2="116.86" y2="76.9909"/>
</g>
<path d="M129.112,66.3333v -0.817228" fill="none" stroke="#006699" stroke-width="2"/>
<path d="M129.112,65.5161v -0.80519" fill="none" stroke="#006699" stroke-width="2"/>
<g stroke="black" stroke-width="1" fill="none">
<line x1="128.112" y1="65.5161" x2="129.112" y2="65.5161"/>
</g>
<path d="M141.363,60.7081v -0.752686" fill="none" stroke="#006699" stroke-width="2"/>
<path d="M141.363,59.9554v -0.742462" fill="none" stroke="#006699" stroke-width="2"/>
<g stroke="black" stroke-width="1" fill="none">
<line x1="140.363" y1="59.9554" x2="141.363" y2="59.9554"/>
</g>
<path d="M153.614,60.4976v -0.750961" fill="none" stroke="#006699" stroke-width="2"/>
<path d="M153.614,59.7466v -0.740783" fill="none" stroke="#006699" stroke-width="2"/>
<g stroke="black" stroke-width="1" fill="none">
<line x1="152.614" y1="59.7466" x2="153.614" y2="59.7466"/>
</g>
<path d="M165.866,64.7856v -0.775985" fill="none" stroke="#006699" stroke-width="2"/>
<path d="M165.866,64.0097v -0.765123" fill="none" stroke="#006699" stroke-width="2"/>
<g stroke="black" stroke-width="1" fill="none">
<line x1="164.866" y1="64.0097" x2="165.866" y2="64.0097"/>
</g>
<path d="M178.117,72.044v -0.843902" fill="none" stroke="#006699" stroke-width="2"/>
<path d="M178.117,71.2001v -0.831071" fill="none" stroke="#006699" stroke-width="2"/>
<g stroke="black" stroke-width="1" fill="none">
<line x1="177.117" y1="71.2001" x2="178.117" y2="71.2001"/>
</g>
<path d="M190.369,82.1303v -0.889459" fill="none" stroke="#006699" stroke-width="2"/>
<path d="M190.369,81.2409v -0.875217" fill="none" stroke="#006699" stroke-width="2"/>
<g stroke="black" stroke-width="1" fill="none">
<line x1="189.369" y1="81.2409" x2="190.369" y2="81.2409"/>
</g>
<path d="M202.62,89.1347v -0.991984" fill="none" stroke="#006699" stroke-width="2"/>
<path d="M202.62,88.1427v -0.974302" fill="none" stroke="#006699" stroke-width="2"/>
<g stroke="black" stroke-width="1" fill="none">
<line x1="201.62" y1="88.1427" x2="202.62" y2="88.1427"/>
</g>
<path d="M214.872,103.202v -1.08367" fill="none" stroke="#006699" stroke-width="2"/>
<path d="M214.872,102.118v -1.0626" fill="none" stroke="#006699" stroke-width="2"/>
<g stroke="black" stroke-width="1" fill="none">
<line x1="213.872" y1="102.118" x2="214.872" y2="102.118"/>
</g>
<path d="M227.123,113.18v -1.2086" fill="none" stroke="#006699" stroke-width="2"/>
<path d="M227.123,111.971v -1.18246" fill="none" stroke="#006699" stroke-width="2"/>
<g stroke="black" stroke-width="1" fill="none">
<line x1="226.123" y1="111.971" x2="227.123" y2="111.971"/>
</g>
<path d="M294.507,42.659v -0.631176" fill="none" stroke="#006699" stroke-width="2"/>
<path d="M294.507,42.0279v -0.623971" fill="none" stroke="#006699" stroke-width="2"/>
<g stroke="black" stroke-width="1" fill="none">
<line x1="293.507" y1="42.0279" x2="294.507" y2="42.0279"/>
</g>
<path d="M447.65,161.814v -1.73424" fill="none" stroke="#006699" stroke-width="2"/>
<path d="M447.65,160.08v -1.6809" fill="none" stroke="#006699" stroke-width="2"/>
<g stroke="black" stroke-width="1" fill="none">
<line x1="446.65" y1="160.08" x2="447.65" y2="160.08"/>
</g>
<path d="M61.7283,221.294h 12.2515v -48.8017h 12.2515v -42.7411h 12.2515v -30.8403h 12.2515v -21.92h 12.2515v -11.4749h 12.2515v -5.56067h 12.2515v -0.208765h 12.2515v 4.26303h 12.2515v 7.19044h 12.2515v 10.0408h 12.2515v 6.90181h 12.2515v 13.9755h
 12.2515v 9.85312h 12.2515v -69.9435h 122.515v 118.052h 183.772" fill="none" stroke="#006699" stroke-width="2"/>
<text xml:space="preserve" x="370.236" y="47.4021" fill="black" font-size="14.9283" font-family="Helvetica">Top to emu</text>
<text xml:space="preserve" x="413.846" y="64.4669" fill="black" font-size="14.9283" font-family="Helvetica">True Background</text>
<path d="M372.784,61.1487h 34.011" fill="none" stroke="#ff0000" stroke-width="2"/>
<path d="M389.79,66.3629v -10.4285" fill="none" stroke="#ff0000" stroke-width="2"/>
<text xml:space="preserve" x="413.846" y="81.5316" fill="black" font-size="14.9283" font-family="Helvetica">Predict</text>
<path d="M372.784,78.5295h 34.011" fill="none" stroke="#006699" stroke-width="2"/>
<path d="M389.79,83.7437v -10.4285" fill="none" stroke="#006699" stroke-width="2"/>
<rect x="6.16929" y="278.497" width="555.591" height="262.115" fill="white"/>
<rect x="61.7283" y="278.497" width="477.808" height="209.692" fill="white"/>
<rect x="61.7283" y="278.497" width="477.808" height="209.692" fill="none" stroke="black"/>
<rect x="61.7283" y="278.497" width="477.808" height="209.692" fill="white"/>
<rect x="61.7283" y="278.497" width="477.808" height="209.692" fill="none" stroke="black"/>
<path d="M67.8541,330.834v -21.1757" fill="none" stroke="black" stroke-width="2"/>
<path d="M67.8541,309.658v -21.1757" fill="none" stroke="black" stroke-width="2"/>
<path d="M61.7283,309.658h 6.12574" fill="none" stroke="black" stroke-width="2"/>
<path d="M67.8541,309.658h 6.12574" fill="none" stroke="black" stroke-width="2"/>
<g stroke="black" stroke-width="1" fill="none">
<line x1="66.8541" y1="309.658" x2="67.8541" y2="309.658"/>
</g>
<path d="M80.1056,357.056v -11.7231" fill="none" stroke="black" stroke-width="2"/>
<path d="M80.1056,345.333v -11.7231" fill="none" stroke="black" stroke-width="2"/>
<path d="M73.9798,345.333h 6.12574" fill="none" stroke="black" stroke-width="2"/>
<path d="M80.1056,345.333h 6.12574" fill="none" stroke="black" stroke-width="2"/>
<g stroke="black" stroke-width="1" fill="none">
<line x1="79.1056" y1="345.333" x2="80.1056" y2="345.333"/>
</g>
<path d="M92.3571,383.341v -6.84432" fill="none" stroke="black" stroke-width="2"/>
<path d="M92.3571,376.496v -6.84432" fill="none" stroke="black" stroke-width="2"/>
<path d="M86.2313,376.496h 6.12574" fill="none" stroke="black" stroke-width="2"/>
<path d="M92.3571,376.496h 6.12574" fill="none" stroke="black" stroke-width="2"/>
<g stroke="black" stroke-width="1" fill="none">
<line x1="91.3571" y1="376.496" x2="92.3571" y2="376.496"/>
</g>
<path d="M104.609,406.375v -4.05305" fill="none" stroke="black" stroke-width="2"/>
<path d="M104.609,402.322v -4.05305" fill="none" stroke="black" stroke-width="2"/>
<path d="M98.4828,402.322h 6.12574" fill="none" stroke="black" stroke-width="2"/>
<path d="M104.609,402.322h 6.12574" fill="none" stroke="black" stroke-width="2"/>
<g stroke="black" stroke-width="1" fill="none">
<line x1="103.609" y1="402.322" x2="104.609" y2="402.322"/>
</g>
<path d="M116.86,416.181v -3.4446" fill="none" stroke="black" stroke-width="2"/>
<path d="M116.86,412.736v -3.4446" fill="none" stroke="black" stroke-width="2"/>
<path d="M110.734,412.736h 6.12574" fill="none" stroke="black" stroke-width="2"/>
<path d="M116.86,412.736h 6.12574" fill="none" stroke="black" stroke-width="2"/>
<g stroke="black" stroke-width="1" fill="none">
<line x1="115.86" y1="412.736" x2="116.86" y2="412.736"/>
</g>
<path d="M129.112,430.157v -2.64057" fill="none" stroke="black" stroke-width="2"/>
<path d="M129.112,427.516v -2.64057" fill="none" stroke="black" stroke-width="2"/>
<path d="M122.986,427.516h 6.12574" fill="none" stroke="black" stroke-width="2"/>
<path d="M129.112,427.516h 6.12574" fill="none" stroke="black" stroke-width="2"/>
<g stroke="black" stroke-width="1" fill="none">
<line x1="128.112" y1="427.516" x2="129.112" y2="427.516"/>
</g>
<path d="M141.363,443.611v -2.11217" fill="none" stroke="black" stroke-width="2"/>
<path d="M141.363,441.499v -2.11217" fill="none" stroke="black" stroke-width="2"/>
<path d="M135.237,441.499h 6.12574" fill="none" stroke="black" stroke-width="2"/>
<path d="M141.363,441.499h 6.12574" fill="none" stroke="black" stroke-width="2"/>
<g stroke="black" stroke-width="1" fill="none">
<line x1="140.363" y1="441.499" x2="141.363" y2="441.499"/>
</g>
<path d="M153.614,454.591v -1.95003" fill="none" stroke="black" stroke-width="2"/>
<path d="M153.614,452.641v -1.95003" fill="none" stroke="black" stroke-width="2"/>
<path d="M147.489,452.641h 6.12574" fill="none" stroke="black" stroke-width="2"/>
<path d="M153.614,452.641h 6.12574" fill="none" stroke="black" stroke-width="2"/>
<g stroke="black" stroke-width="1" fill="none">
<line x1="152.614" y1="452.641" x2="153.614" y2="452.641"/>
</g>
<path d="M165.866,460.235v -1.84906" fill="none" stroke="black" stroke-width="2"/>
<path d="M165.866,458.385v -1.84906" fill="none" stroke="black" stroke-width="2"/>
<path d="M159.74,458.385h 6.12574" fill="none" stroke="black" stroke-width="2"/>
<path d="M165.866,458.385h 6.12574" fill="none" stroke="black" stroke-width="2"/>
<g stroke="black" stroke-width="1" fill="none">
<line x1="164.866" y1="458.385" x2="165.866" y2="458.385"/>
</g>
<path d="M178.117,468.39v -1.62249" fill="none" stroke="black" stroke-width="2"/>
<path d="M178.117,466.767v -1.62249" fill="none" stroke="black" stroke-width="2"/>
<path d="M171.992,466.767h 6.12574" fill="none" stroke="black" stroke-width="2"/>
<path d="M178.117,466.767h 6.12574" fill="none" stroke="black" stroke-width="2"/>
<g stroke="black" stroke-width="1" fill="none">
<line x1="177.117" y1="466.767" x2="178.117" y2="466.767"/>
</g>
<path d="M190.369,472.209v -1.80104" fill="none" stroke="black" stroke-width="2"/>
<path d="M190.369,470.408v -1.80104" fill="none" stroke="black" stroke-width="2"/>
<path d="M184.243,470.408h 6.12574" fill="none" stroke="black" stroke-width="2"/>
<path d="M190.369,470.408h 6.12574" fill="none" stroke="black" stroke-width="2"/>
<g stroke="black" stroke-width="1" fill="none">
<line x1="189.369" y1="470.408" x2="190.369" y2="470.408"/>
</g>
<path d="M202.62,477.146v -1.54633" fill="none" stroke="black" stroke-width="2"/>
<path d="M202.62,475.599v -1.54633" fill="none" stroke="black" stroke-width="2"/>
<path d="M196.495,475.599h 6.12574" fill="none" stroke="black" stroke-width="2"/>
<path d="M202.62,475.599h 6.12574" fill="none" stroke="black" stroke-width="2"/>
<g stroke="black" stroke-width="1" fill="none">
<line x1="201.62" y1="475.599" x2="202.62" y2="475.599"/>
</g>
<path d="M214.872,482.844v -1.22816" fill="none" stroke="black" stroke-width="2"/>
<path d="M214.872,481.616v -1.22816" fill="none" stroke="black" stroke-width="2"/>
<path d="M208.746,481.616h 6.12574" fill="none" stroke="black" stroke-width="2"/>
<path d="M214.872,481.616h 6.12574" fill="none" stroke="black" stroke-width="2"/>
<g stroke="black" stroke-width="1" fill="none">
<line x1="213.872" y1="481.616" x2="214.872" y2="481.616"/>
</g>
<path d="M227.123,483.291v -1.58311" fill="none" stroke="black" stroke-width="2"/>
<path d="M227.123,481.708v -1.58311" fill="none" stroke="black" stroke-width="2"/>
<path d="M220.998,481.708h 6.12574" fill="none" stroke="black" stroke-width="2"/>
<path d="M227.123,481.708h 6.12574" fill="none" stroke="black" stroke-width="2"/>
<g stroke="black" stroke-width="1" fill="none">
<line x1="226.123" y1="481.708" x2="227.123" y2="481.708"/>
</g>
<path d="M294.507,486.777v -0.442079" fill="none" stroke="black" stroke-width="2"/>
<path d="M294.507,486.335v -0.442079" fill="none" stroke="black" stroke-width="2"/>
<path d="M233.249,486.335h 61.2574" fill="none" stroke="black" stroke-width="2"/>
<path d="M294.507,486.335h 61.2574" fill="none" stroke="black" stroke-width="2"/>
<g stroke="black" stroke-width="1" fill="none">
<line x1="293.507" y1="486.335" x2="294.507" y2="486.335"/>
</g>
<path d="M64.1174,429.86l 4.77808, 1.21944l 4.77808, 1.21944l 4.77808, 1.21944l 4.77808, 1.21944l 4.77808, 1.21944l 4.77808, 1.21944l 4.77808, 1.21944l 4.77808, 1.21944l 4.77808, 1.21944l 4.77808, 1.21944l 4.77808, 1.21944l 4.77808, 1.21944l 4.77808,
 1.21944l 4.77808, 1.21944l 4.77808, 1.21944l 4.77808, 1.21944l 4.77808, 1.21944l 4.77808, 1.21944l 4.77808, 1.21944l 4.77808, 1.21944l 4.77808, 1.21944l 4.77808, 1.21944l 4.77808, 1.21944l 4.77808, 1.21944l 4.77808, 1.21944l 4.77808, 1.21944l
 4.77808, 1.21944l 4.77808, 1.21944l 4.77808, 1.21944l 4.77808, 1.21944l 4.77808, 1.21944l 4.77808, 1.21944l 4.77808, 1.21944l 4.77808, 1.21944l 4.77808, 1.21944l 4.77808, 1.21944l 4.77808, 1.21944l 4.77808, 1.21944l 4.77808, 1.21944l 4.77808,
 1.21944l 4.77808, 1.21944l 4.77808, 1.21944l 4.77808, 1.21944l 4.77808, 1.21944l 4.77808, 1.21944l 4.77808, 1.21944l 4.77808, 1.21944l 3.97778, 1.01519" fill="none" stroke="#339966" stroke-width="2"/>
<path d="M61.7283,488.189h 477.808" fill="none" stroke="black"/>
<path d="M110.734,481.426v 6.76256" fill="none" stroke="black"/>
<path d="M122.986,484.807v 3.38128" fill="none" stroke="black"/>
<path d="M135.237,484.807v 3.38128" fill="none" stroke="black"/>
<path d="M147.489,484.807v 3.38128" fill="none" stroke="black"/>
<path d="M159.74,484.807v 3.38128" fill="none" stroke="black"/>
<path d="M171.992,481.426v 6.76256" fill="none" stroke="black"/>
<path d="M184.243,484.807v 3.38128" fill="none" stroke="black"/>
<path d="M196.495,484.807v 3.38128" fill="none" stroke="black"/>
<path d="M208.746,484.807v 3.38128" fill="none" stroke="black"/>
<path d="M220.998,484.807v 3.38128" fill="none" stroke="black"/>
<path d="M233.249,481.426v 6.76256" fill="none" stroke="black"/>
<path d="M245.501,484.807v 3.38128" fill="none" stroke="black"/>
<path d="M257.752,484.807v 3.38128" fill="none" stroke="black"/>
<path d="M270.004,484.807v 3.38128" fill="none" stroke="black"/>
<path d="M282.255,484.807v 3.38128" fill="none" stroke="black"/>
<path d="M294.507,481.426v 6.76256" fill="none" stroke="black"/>
<path d="M306.758,484.807v 3.38128" fill="none" stroke="black"/>
<path d="M319.01,484.807v 3.38128" fill="none" stroke="black"/>
<path d="M331.261,484.807v 3.38128" fill="none" stroke="black"/>
<path d="M343.512,484.807v 3.38128" fill="none" stroke="black"/>
<path d="M355.764,481.426v 6.76256" fill="none" stroke="black"/>
<path d="M368.015,484.807v 3.38128" fill="none" stroke="black"/>
<path d="M380.267,484.807v 3.38128" fill="none" stroke="black"/>
<path d="M392.518,484.807v 3.38128" fill="none" stroke="black"/>
<path d="M404.77,484.807v 3.38128" fill="none" stroke="black"/>
<path d="M417.021,481.426v 6.76256" fill="none" stroke="black"/>
<path d="M429.273,484.807v 3.38128" fill="none" stroke="black"/>
<path d="M441.524,484.807v 3.38128" fill="none" stroke="black"/>
<path d="M453.776,484.807v 3.38128" fill="none" stroke="black"/>
<path d="M466.027,484.807v 3.38128" fill="none" stroke="black"/>
<path d="M478.279,481.426v 6.76256" fill="none" stroke="black"/>
<path d="M490.53,484.807v 3.38128" fill="none" stroke="black"/>
<path d="M502.782,484.807v 3.38128" fill="none" stroke="black"/>
<path d="M515.033,484.807v 3.38128" fill="none" stroke="black"/>
<path d="M527.285,484.807v 3.38128" fill="none" stroke="black"/>
<path d="M539.536,481.426v 6.76256" fill="none" stroke="black"/>
<path d="M110.734,481.426v 6.76256" fill="none" stroke="black"/>
<path d="M98.4828,484.807v 3.38128" fill="none" stroke="black"/>
<path d="M86.2313,484.807v 3.38128" fill="none" stroke="black"/>
<path d="M73.9798,484.807v 3.38128" fill="none" stroke="black"/>
<text xml:space="preserve" x="107.629" y="496.774" fill="black" font-size="8.91652" font-family="Helvetica">5</text>
<text xml:space="preserve" x="166.407" y="496.774" fill="black" font-size="8.91652" font-family="Helvetica">10</text>
<text xml:space="preserve" x="228.03" y="496.774" fill="black" font-size="8.91652" font-family="Helvetica">15</text>
<text xml:space="preserve" x="289.653" y="496.774" fill="black" font-size="8.91652" font-family="Helvetica">20</text>
<text xml:space="preserve" x="350.328" y="496.774" fill="black" font-size="8.91652" font-family="Helvetica">25</text>
<text xml:space="preserve" x="411.95" y="496.774" fill="black" font-size="8.91652" font-family="Helvetica">30</text>
<text xml:space="preserve" x="472.625" y="496.774" fill="black" font-size="8.91652" font-family="Helvetica">35</text>
<text xml:space="preserve" x="534.248" y="496.774" fill="black" font-size="8.91652" font-family="Helvetica">40</text>
<text xml:space="preserve" x="433.755" y="516.683" fill="black" font-size="14.9283" font-family="Helvetica">Track multiplicity</text>
<path d="M61.7283,278.497h 477.808" fill="none" stroke="black"/>
<path d="M110.734,285.259v -6.76256" fill="none" stroke="black"/>
<path d="M122.986,281.878v -3.38128" fill="none" stroke="black"/>
<path d="M135.237,281.878v -3.38128" fill="none" stroke="black"/>
<path d="M147.489,281.878v -3.38128" fill="none" stroke="black"/>
<path d="M159.74,281.878v -3.38128" fill="none" stroke="black"/>
<path d="M171.992,285.259v -6.76256" fill="none" stroke="black"/>
<path d="M184.243,281.878v -3.38128" fill="none" stroke="black"/>
<path d="M196.495,281.878v -3.38128" fill="none" stroke="black"/>
<path d="M208.746,281.878v -3.38128" fill="none" stroke="black"/>
<path d="M220.998,281.878v -3.38128" fill="none" stroke="black"/>
<path d="M233.249,285.259v -6.76256" fill="none" stroke="black"/>
<path d="M245.501,281.878v -3.38128" fill="none" stroke="black"/>
<path d="M257.752,281.878v -3.38128" fill="none" stroke="black"/>
<path d="M270.004,281.878v -3.38128" fill="none" stroke="black"/>
<path d="M282.255,281.878v -3.38128" fill="none" stroke="black"/>
<path d="M294.507,285.259v -6.76256" fill="none" stroke="black"/>
<path d="M306.758,281.878v -3.38128" fill="none" stroke="black"/>
<path d="M319.01,281.878v -3.38128" fill="none" stroke="black"/>
<path d="M331.261,281.878v -3.38128" fill="none" stroke="black"/>
<path d="M343.512,281.878v -3.38128" fill="none" stroke="black"/>
<path d="M355.764,285.259v -6.76256" fill="none" stroke="black"/>
<path d="M368.015,281.878v -3.38128" fill="none" stroke="black"/>
<path d="M380.267,281.878v -3.38128" fill="none" stroke="black"/>
<path d="M392.518,281.878v -3.38128" fill="none" stroke="black"/>
<path d="M404.77,281.878v -3.38128" fill="none" stroke="black"/>
<path d="M417.021,285.259v -6.76256" fill="none" stroke="black"/>
<path d="M429.273,281.878v -3.38128" fill="none" stroke="black"/>
<path d="M441.524,281.878v -3.38128" fill="none" stroke="black"/>
<path d="M453.776,281.878v -3.38128" fill="none" stroke="black"/>
<path d="M466.027,281.878v -3.38128" fill="none" stroke="black"/>
<path d="M478.279,285.259v -6.76256" fill="none" stroke="black"/>
<path d="M490.53,281.878v -3.38128" fill="none" stroke="black"/>
<path d="M502.782,281.878v -3.38128" fill="none" stroke="black"/>
<path d="M515.033,281.878v -3.38128" fill="none" stroke="black"/>
<path d="M527.285,281.878v -3.38128" fill="none" stroke="black"/>
<path d="M539.536,285.259v -6.76256" fill="none" stroke="black"/>
<path d="M110.734,285.259v -6.76256" fill="none" stroke="black"/>
<path d="M98.4828,281.878v -3.38128" fill="none" stroke="black"/>
<path d="M86.2313,281.878v -3.38128" fill="none" stroke="black"/>
<path d="M73.9798,281.878v -3.38128" fill="none" stroke="black"/>
<path d="M61.7283,488.189v -209.692" fill="none" stroke="black"/>
<path d="M75.0625,488.189h -13.3342" fill="none" stroke="black"/>
<path d="M68.3954,483.964h -6.66709" fill="none" stroke="black"/>
<path d="M68.3954,479.74h -6.66709" fill="none" stroke="black"/>
<path d="M68.3954,475.515h -6.66709" fill="none" stroke="black"/>
<path d="M68.3954,471.29h -6.66709" fill="none" stroke="black"/>
<path d="M75.0625,467.066h -13.3342" fill="none" stroke="black"/>
<path d="M68.3954,462.841h -6.66709" fill="none" stroke="black"/>
<path d="M68.3954,458.617h -6.66709" fill="none" stroke="black"/>
<path d="M68.3954,454.392h -6.66709" fill="none" stroke="black"/>
<path d="M68.3954,450.168h -6.66709" fill="none" stroke="black"/>
<path d="M75.0625,445.943h -13.3342" fill="none" stroke="black"/>
<path d="M68.3954,441.719h -6.66709" fill="none" stroke="black"/>
<path d="M68.3954,437.494h -6.66709" fill="none" stroke="black"/>
<path d="M68.3954,433.27h -6.66709" fill="none" stroke="black"/>
<path d="M68.3954,429.045h -6.66709" fill="none" stroke="black"/>
<path d="M75.0625,424.821h -13.3342" fill="none" stroke="black"/>
<path d="M68.3954,420.596h -6.66709" fill="none" stroke="black"/>
<path d="M68.3954,416.372h -6.66709" fill="none" stroke="black"/>
<path d="M68.3954,412.147h -6.66709" fill="none" stroke="black"/>
<path d="M68.3954,407.923h -6.66709" fill="none" stroke="black"/>
<path d="M75.0625,403.698h -13.3342" fill="none" stroke="black"/>
<path d="M68.3954,399.474h -6.66709" fill="none" stroke="black"/>
<path d="M68.3954,395.249h -6.66709" fill="none" stroke="black"/>
<path d="M68.3954,391.025h -6.66709" fill="none" stroke="black"/>
<path d="M68.3954,386.8h -6.66709" fill="none" stroke="black"/>
<path d="M75.0625,382.576h -13.3342" fill="none" stroke="black"/>
<path d="M68.3954,378.351h -6.66709" fill="none" stroke="black"/>
<path d="M68.3954,374.127h -6.66709" fill="none" stroke="black"/>
<path d="M68.3954,369.902h -6.66709" fill="none" stroke="black"/>
<path d="M68.3954,365.678h -6.66709" fill="none" stroke="black"/>
<path d="M75.0625,361.453h -13.3342" fill="none" stroke="black"/>
<path d="M68.3954,357.229h -6.66709" fill="none" stroke="black"/>
<path d="M68.3954,353.004h -6.66709" fill="none" stroke="black"/>
<path d="M68.3954,348.78h -6.66709" fill="none" stroke="black"/>
<path d="M68.3954,344.555h -6.66709" fill="none" stroke="black"/>
<path d="M75.0625,340.331h -13.3342" fill="none" stroke="black"/>
<path d="M68.3954,336.106h -6.66709" fill="none" stroke="black"/>
<path d="M68.3954,331.882h -6.66709" fill="none" stroke="black"/>
<path d="M68.3954,327.657h -6.66709" fill="none" stroke="black"/>
<path d="M68.3954,323.432h -6.66709" fill="none" stroke="black"/>
<path d="M75.0625,319.208h -13.3342" fill="none" stroke="black"/>
<path d="M68.3954,314.983h -6.66709" fill="none" stroke="black"/>
<path d="M68.3954,310.759h -6.66709" fill="none" stroke="black"/>
<path d="M68.3954,306.534h -6.66709" fill="none" stroke="black"/>
<path d="M68.3954,302.31h -6.66709" fill="none" stroke="black"/>
<path d="M75.0625,298.085h -13.3342" fill="none" stroke="black"/>
<path d="M75.0625,298.085h -13.3342" fill="none" stroke="black"/>
<path d="M68.3954,293.861h -6.66709" fill="none" stroke="black"/>
<path d="M68.3954,289.636h -6.66709" fill="none" stroke="black"/>
<path d="M68.3954,285.412h -6.66709" fill="none" stroke="black"/>
<path d="M68.3954,281.187h -6.66709" fill="none" stroke="black"/>
<text xml:space="preserve" x="53.5904" y="491.086" fill="black" font-size="8.91652" font-family="Helvetica">0</text>
<text xml:space="preserve" x="46.006" y="470.229" fill="black" font-size="8.91652" font-family="Helvetica">0.5</text>
<text xml:space="preserve" x="54.5384" y="449.372" fill="black" font-size="8.91652" font-family="Helvetica">1</text>
<text xml:space="preserve" x="46.006" y="428.515" fill="black" font-size="8.91652" font-family="Helvetica">1.5</text>
<text xml:space="preserve" x="53.5904" y="406.71" fill="black" font-size="8.91652" font-family="Helvetica">2</text>
<text xml:space="preserve" x="46.006" y="385.853" fill="black" font-size="8.91652" font-family="Helvetica">2.5</text>
<text xml:space="preserve" x="53.5904" y="364.996" fill="black" font-size="8.91652" font-family="Helvetica">3</text>
<text xml:space="preserve" x="46.006" y="343.191" fill="black" font-size="8.91652" font-family="Helvetica">3.5</text>
<text xml:space="preserve" x="53.5904" y="322.334" fill="black" font-size="8.91652" font-family="Helvetica">4</text>
<text xml:space="preserve" x="46.006" y="301.477" fill="black" font-size="8.91652" font-family="Helvetica">4.5</text>
<g transform="rotate(-90,19.4608,458.852)">
<text xml:space="preserve" x="19.4608" y="458.852" fill="black" font-size="14.9283" font-family="Helvetica">True Background / Predicted</text>
</g>
<text xml:space="preserve" x="284.913" y="323.282" fill="black" font-size="14.9283" font-family="Helvetica">Fitting function: par0 + par1*x</text>
<text xml:space="preserve" x="297.237" y="349.828" fill="black" font-size="14.9283" font-family="Helvetica">par0 : 1.46917 +- 0.0297384</text>
<text xml:space="preserve" x="297.237" y="375.425" fill="black" font-size="14.9283" font-family="Helvetica">par1 : -0.0740147 +- 0.00173345</text></svg>
