<?xml version="1.0" standalone="no"?>
<svg width="567.429" height="546.572" viewBox="0 0 567.429 546.572" xmlns="http://www.w3.org/2000/svg" shape-rendering="crispEdges">
<title>
CT_Top(emu)_btrk_dileppT_rg2_LO.svg
</title>
<desc>
Creator: ROOT Version 6.26/04
CreationDate: Fri Nov  4 15:47:28 2022</desc>
<defs>
</defs>
<rect x="0.5" y="0" width="566.929" height="546.072" fill="white"/>
<rect x="6.16929" y="5.46072" width="555.591" height="262.115" fill="white"/>
<rect x="61.7283" y="8.08187" width="477.808" height="259.493" fill="white"/>
<rect x="61.7283" y="8.08187" width="477.808" height="259.493" fill="none" stroke="black"/>
<path d="M71.6827,264.128v -3.44772" fill="none" stroke="#ff0000" stroke-width="2"/>
<path d="M71.6827,260.68v -3.44772" fill="none" stroke="#ff0000" stroke-width="2"/>
<path d="M61.7283,260.68h 9.95433" fill="none" stroke="#ff0000" stroke-width="2"/>
<path d="M71.6827,260.68h 9.95433" fill="none" stroke="#ff0000" stroke-width="2"/>
<g stroke="black" stroke-width="1" fill="none">
<line x1="70.6827" y1="260.68" x2="71.6827" y2="260.68"/>
</g>
<path d="M91.5913,248.454v -6.67676" fill="none" stroke="#ff0000" stroke-width="2"/>
<path d="M91.5913,241.778v -6.67676" fill="none" stroke="#ff0000" stroke-width="2"/>
<path d="M81.637,241.778h 9.95433" fill="none" stroke="#ff0000" stroke-width="2"/>
<path d="M91.5913,241.778h 9.95433" fill="none" stroke="#ff0000" stroke-width="2"/>
<g stroke="black" stroke-width="1" fill="none">
<line x1="90.5913" y1="241.778" x2="91.5913" y2="241.778"/>
</g>
<path d="M111.5,231.399v -11.44" fill="none" stroke="#ff0000" stroke-width="2"/>
<path d="M111.5,219.959v -11.44" fill="none" stroke="#ff0000" stroke-width="2"/>
<path d="M101.546,219.959h 9.95433" fill="none" stroke="#ff0000" stroke-width="2"/>
<path d="M111.5,219.959h 9.95433" fill="none" stroke="#ff0000" stroke-width="2"/>
<g stroke="black" stroke-width="1" fill="none">
<line x1="110.5" y1="219.959" x2="111.5" y2="219.959"/>
</g>
<path d="M131.409,172.652v -13.6838" fill="none" stroke="#ff0000" stroke-width="2"/>
<path d="M131.409,158.968v -13.6838" fill="none" stroke="#ff0000" stroke-width="2"/>
<path d="M121.454,158.968h 9.95433" fill="none" stroke="#ff0000" stroke-width="2"/>
<path d="M131.409,158.968h 9.95433" fill="none" stroke="#ff0000" stroke-width="2"/>
<g stroke="black" stroke-width="1" fill="none">
<line x1="130.409" y1="158.968" x2="131.409" y2="158.968"/>
</g>
<path d="M151.317,131.578v -16.1732" fill="none" stroke="#ff0000" stroke-width="2"/>
<path d="M151.317,115.405v -16.1732" fill="none" stroke="#ff0000" stroke-width="2"/>
<path d="M141.363,115.405h 9.95433" fill="none" stroke="#ff0000" stroke-width="2"/>
<path d="M151.317,115.405h 9.95433" fill="none" stroke="#ff0000" stroke-width="2"/>
<g stroke="black" stroke-width="1" fill="none">
<line x1="150.317" y1="115.405" x2="151.317" y2="115.405"/>
</g>
<path d="M171.226,64.4719v -22.0166" fill="none" stroke="#ff0000" stroke-width="2"/>
<path d="M171.226,42.4553v -22.0166" fill="none" stroke="#ff0000" stroke-width="2"/>
<path d="M161.272,42.4553h 9.95433" fill="none" stroke="#ff0000" stroke-width="2"/>
<path d="M171.226,42.4553h 9.95433" fill="none" stroke="#ff0000" stroke-width="2"/>
<g stroke="black" stroke-width="1" fill="none">
<line x1="170.226" y1="42.4553" x2="171.226" y2="42.4553"/>
</g>
<path d="M191.135,119.802v -18.2513" fill="none" stroke="#ff0000" stroke-width="2"/>
<path d="M191.135,101.551v -18.2513" fill="none" stroke="#ff0000" stroke-width="2"/>
<path d="M181.18,101.551h 9.95433" fill="none" stroke="#ff0000" stroke-width="2"/>
<path d="M191.135,101.551h 9.95433" fill="none" stroke="#ff0000" stroke-width="2"/>
<g stroke="black" stroke-width="1" fill="none">
<line x1="190.135" y1="101.551" x2="191.135" y2="101.551"/>
</g>
<path d="M211.043,131.059v -19.1376" fill="none" stroke="#ff0000" stroke-width="2"/>
<path d="M211.043,111.922v -19.1376" fill="none" stroke="#ff0000" stroke-width="2"/>
<path d="M201.089,111.922h 9.95433" fill="none" stroke="#ff0000" stroke-width="2"/>
<path d="M211.043,111.922h 9.95433" fill="none" stroke="#ff0000" stroke-width="2"/>
<g stroke="black" stroke-width="1" fill="none">
<line x1="210.043" y1="111.922" x2="211.043" y2="111.922"/>
</g>
<path d="M230.952,172.731v -15.425" fill="none" stroke="#ff0000" stroke-width="2"/>
<path d="M230.952,157.306v -15.425" fill="none" stroke="#ff0000" stroke-width="2"/>
<path d="M220.998,157.306h 9.95433" fill="none" stroke="#ff0000" stroke-width="2"/>
<path d="M230.952,157.306h 9.95433" fill="none" stroke="#ff0000" stroke-width="2"/>
<g stroke="black" stroke-width="1" fill="none">
<line x1="229.952" y1="157.306" x2="230.952" y2="157.306"/>
</g>
<path d="M250.861,207.41v -13.2482" fill="none" stroke="#ff0000" stroke-width="2"/>
<path d="M250.861,194.162v -13.2482" fill="none" stroke="#ff0000" stroke-width="2"/>
<path d="M240.906,194.162h 9.95433" fill="none" stroke="#ff0000" stroke-width="2"/>
<path d="M250.861,194.162h 9.95433" fill="none" stroke="#ff0000" stroke-width="2"/>
<g stroke="black" stroke-width="1" fill="none">
<line x1="249.861" y1="194.162" x2="250.861" y2="194.162"/>
</g>
<path d="M270.769,198.649v -17.1734" fill="none" stroke="#ff0000" stroke-width="2"/>
<path d="M270.769,181.475v -17.1734" fill="none" stroke="#ff0000" stroke-width="2"/>
<path d="M260.815,181.475h 9.95433" fill="none" stroke="#ff0000" stroke-width="2"/>
<path d="M270.769,181.475h 9.95433" fill="none" stroke="#ff0000" stroke-width="2"/>
<g stroke="black" stroke-width="1" fill="none">
<line x1="269.769" y1="181.475" x2="270.769" y2="181.475"/>
</g>
<path d="M290.678,226.263v -11.8253" fill="none" stroke="#ff0000" stroke-width="2"/>
<path d="M290.678,214.438v -11.8253" fill="none" stroke="#ff0000" stroke-width="2"/>
<path d="M280.724,214.438h 9.95433" fill="none" stroke="#ff0000" stroke-width="2"/>
<path d="M290.678,214.438h 9.95433" fill="none" stroke="#ff0000" stroke-width="2"/>
<g stroke="black" stroke-width="1" fill="none">
<line x1="289.678" y1="214.438" x2="290.678" y2="214.438"/>
</g>
<path d="M310.587,260.069v -4.56399" fill="none" stroke="#ff0000" stroke-width="2"/>
<path d="M310.587,255.505v -4.56399" fill="none" stroke="#ff0000" stroke-width="2"/>
<path d="M300.632,255.505h 9.95433" fill="none" stroke="#ff0000" stroke-width="2"/>
<path d="M310.587,255.505h 9.95433" fill="none" stroke="#ff0000" stroke-width="2"/>
<g stroke="black" stroke-width="1" fill="none">
<line x1="309.587" y1="255.505" x2="310.587" y2="255.505"/>
</g>
<path d="M330.495,260.069v -4.56091" fill="none" stroke="#ff0000" stroke-width="2"/>
<path d="M330.495,255.508v -4.56091" fill="none" stroke="#ff0000" stroke-width="2"/>
<path d="M320.541,255.508h 9.95433" fill="none" stroke="#ff0000" stroke-width="2"/>
<path d="M330.495,255.508h 9.95433" fill="none" stroke="#ff0000" stroke-width="2"/>
<g stroke="black" stroke-width="1" fill="none">
<line x1="329.495" y1="255.508" x2="330.495" y2="255.508"/>
</g>
<path d="M439.993,255.786v -5.45325" fill="none" stroke="#ff0000" stroke-width="2"/>
<path d="M439.993,250.333v -5.45325" fill="none" stroke="#ff0000" stroke-width="2"/>
<path d="M340.45,250.333h 99.5433" fill="none" stroke="#ff0000" stroke-width="2"/>
<path d="M439.993,250.333h 99.5433" fill="none" stroke="#ff0000" stroke-width="2"/>
<g stroke="black" stroke-width="1" fill="none">
<line x1="438.993" y1="250.333" x2="439.993" y2="250.333"/>
</g>
<path d="M61.7283,267.575h 477.808" fill="none" stroke="black"/>
<path d="M141.363,260.813v 6.76256" fill="none" stroke="black"/>
<path d="M161.272,264.194v 3.38128" fill="none" stroke="black"/>
<path d="M181.18,264.194v 3.38128" fill="none" stroke="black"/>
<path d="M201.089,264.194v 3.38128" fill="none" stroke="black"/>
<path d="M220.998,264.194v 3.38128" fill="none" stroke="black"/>
<path d="M240.906,260.813v 6.76256" fill="none" stroke="black"/>
<path d="M260.815,264.194v 3.38128" fill="none" stroke="black"/>
<path d="M280.724,264.194v 3.38128" fill="none" stroke="black"/>
<path d="M300.632,264.194v 3.38128" fill="none" stroke="black"/>
<path d="M320.541,264.194v 3.38128" fill="none" stroke="black"/>
<path d="M340.45,260.813v 6.76256" fill="none" stroke="black"/>
<path d="M360.358,264.194v 3.38128" fill="none" stroke="black"/>
<path d="M380.267,264.194v 3.38128" fill="none" stroke="black"/>
<path d="M400.176,264.194v 3.38128" fill="none" stroke="black"/>
<path d="M420.084,264.194v 3.38128" fill="none" stroke="black"/>
<path d="M439.993,260.813v 6.76256" fill="none" stroke="black"/>
<path d="M459.902,264.194v 3.38128" fill="none" stroke="black"/>
<path d="M479.81,264.194v 3.38128" fill="none" stroke="black"/>
<path d="M499.719,264.194v 3.38128" fill="none" stroke="black"/>
<path d="M519.628,264.194v 3.38128" fill="none" stroke="black"/>
<path d="M539.536,260.813v 6.76256" fill="none" stroke="black"/>
<path d="M141.363,260.813v 6.76256" fill="none" stroke="black"/>
<path d="M121.454,264.194v 3.38128" fill="none" stroke="black"/>
<path d="M101.546,264.194v 3.38128" fill="none" stroke="black"/>
<path d="M81.637,264.194v 3.38128" fill="none" stroke="black"/>
<path d="M61.7283,264.194v 3.38128" fill="none" stroke="black"/>
<path d="M61.7283,267.575v -259.493" fill="none" stroke="black"/>
<path d="M78.2294,267.575h -16.501" fill="none" stroke="black"/>
<path d="M69.9789,256.821h -8.25052" fill="none" stroke="black"/>
<path d="M69.9789,246.067h -8.25052" fill="none" stroke="black"/>
<path d="M69.9789,235.313h -8.25052" fill="none" stroke="black"/>
<path d="M78.2294,224.559h -16.501" fill="none" stroke="black"/>
<path d="M69.9789,213.805h -8.25052" fill="none" stroke="black"/>
<path d="M69.9789,203.051h -8.25052" fill="none" stroke="black"/>
<path d="M69.9789,192.297h -8.25052" fill="none" stroke="black"/>
<path d="M78.2294,181.543h -16.501" fill="none" stroke="black"/>
<path d="M69.9789,170.789h -8.25052" fill="none" stroke="black"/>
<path d="M69.9789,160.035h -8.25052" fill="none" stroke="black"/>
<path d="M69.9789,149.281h -8.25052" fill="none" stroke="black"/>
<path d="M78.2294,138.527h -16.501" fill="none" stroke="black"/>
<path d="M69.9789,127.773h -8.25052" fill="none" stroke="black"/>
<path d="M69.9789,117.019h -8.25052" fill="none" stroke="black"/>
<path d="M69.9789,106.265h -8.25052" fill="none" stroke="black"/>
<path d="M78.2294,95.5108h -16.501" fill="none" stroke="black"/>
<path d="M69.9789,84.7568h -8.25052" fill="none" stroke="black"/>
<path d="M69.9789,74.0028h -8.25052" fill="none" stroke="black"/>
<path d="M69.9789,63.2488h -8.25052" fill="none" stroke="black"/>
<path d="M78.2294,52.4947h -16.501" fill="none" stroke="black"/>
<path d="M69.9789,41.7407h -8.25052" fill="none" stroke="black"/>
<path d="M69.9789,30.9867h -8.25052" fill="none" stroke="black"/>
<path d="M69.9789,20.2326h -8.25052" fill="none" stroke="black"/>
<path d="M78.2294,9.47859h -16.501" fill="none" stroke="black"/>
<path d="M78.2294,9.47859h -16.501" fill="none" stroke="black"/>
<text xml:space="preserve" x="53.5904" y="271.14" fill="black" font-size="8.91652" font-family="Helvetica">0</text>
<text xml:space="preserve" x="53.5904" y="227.53" fill="black" font-size="8.91652" font-family="Helvetica">2</text>
<text xml:space="preserve" x="53.5904" y="184.868" fill="black" font-size="8.91652" font-family="Helvetica">4</text>
<text xml:space="preserve" x="53.5904" y="142.206" fill="black" font-size="8.91652" font-family="Helvetica">6</text>
<text xml:space="preserve" x="53.5904" y="98.5964" fill="black" font-size="8.91652" font-family="Helvetica">8</text>
<text xml:space="preserve" x="48.8501" y="55.9345" fill="black" font-size="8.91652" font-family="Helvetica">10</text>
<text xml:space="preserve" x="48.8501" y="12.3245" fill="black" font-size="8.91652" font-family="Helvetica">12</text>
<g transform="rotate(-90,23.253,52.1423)">
<text xml:space="preserve" x="23.253" y="52.1423" fill="black" font-size="14.9283" font-family="Helvetica">nEvent</text>
</g>
<path d="M71.6827,263.845v -2.52463" fill="none" stroke="#006699" stroke-width="2"/>
<path d="M71.6827,261.321v -2.52463" fill="none" stroke="#006699" stroke-width="2"/>
<g stroke="black" stroke-width="1" fill="none">
<line x1="70.6827" y1="261.321" x2="71.6827" y2="261.321"/>
</g>
<path d="M91.5913,250.902v -3.88535" fill="none" stroke="#006699" stroke-width="2"/>
<path d="M91.5913,247.017v -3.88535" fill="none" stroke="#006699" stroke-width="2"/>
<g stroke="black" stroke-width="1" fill="none">
<line x1="90.5913" y1="247.017" x2="91.5913" y2="247.017"/>
</g>
<path d="M111.5,220.502v -6.63996" fill="none" stroke="#006699" stroke-width="2"/>
<path d="M111.5,213.862v -6.63996" fill="none" stroke="#006699" stroke-width="2"/>
<g stroke="black" stroke-width="1" fill="none">
<line x1="110.5" y1="213.862" x2="111.5" y2="213.862"/>
</g>
<path d="M131.409,176.153v -6.97834" fill="none" stroke="#006699" stroke-width="2"/>
<path d="M131.409,169.175v -6.97834" fill="none" stroke="#006699" stroke-width="2"/>
<g stroke="black" stroke-width="1" fill="none">
<line x1="130.409" y1="169.175" x2="131.409" y2="169.175"/>
</g>
<path d="M151.317,137.8v -7.75677" fill="none" stroke="#006699" stroke-width="2"/>
<path d="M151.317,130.043v -7.75677" fill="none" stroke="#006699" stroke-width="2"/>
<g stroke="black" stroke-width="1" fill="none">
<line x1="150.317" y1="130.043" x2="151.317" y2="130.043"/>
</g>
<path d="M171.226,130.212v -7.53188" fill="none" stroke="#006699" stroke-width="2"/>
<path d="M171.226,122.68v -7.53188" fill="none" stroke="#006699" stroke-width="2"/>
<g stroke="black" stroke-width="1" fill="none">
<line x1="170.226" y1="122.68" x2="171.226" y2="122.68"/>
</g>
<path d="M191.135,124.432v -6.65808" fill="none" stroke="#006699" stroke-width="2"/>
<path d="M191.135,117.774v -6.65808" fill="none" stroke="#006699" stroke-width="2"/>
<g stroke="black" stroke-width="1" fill="none">
<line x1="190.135" y1="117.774" x2="191.135" y2="117.774"/>
</g>
<path d="M211.043,146.994v -6.18338" fill="none" stroke="#006699" stroke-width="2"/>
<path d="M211.043,140.81v -6.18338" fill="none" stroke="#006699" stroke-width="2"/>
<g stroke="black" stroke-width="1" fill="none">
<line x1="210.043" y1="140.81" x2="211.043" y2="140.81"/>
</g>
<path d="M230.952,165.984v -4.69751" fill="none" stroke="#006699" stroke-width="2"/>
<path d="M230.952,161.287v -4.69751" fill="none" stroke="#006699" stroke-width="2"/>
<g stroke="black" stroke-width="1" fill="none">
<line x1="229.952" y1="161.287" x2="230.952" y2="161.287"/>
</g>
<path d="M250.861,198.978v -3.56549" fill="none" stroke="#006699" stroke-width="2"/>
<path d="M250.861,195.412v -3.56549" fill="none" stroke="#006699" stroke-width="2"/>
<g stroke="black" stroke-width="1" fill="none">
<line x1="249.861" y1="195.412" x2="250.861" y2="195.412"/>
</g>
<path d="M270.769,214.241v -2.82723" fill="none" stroke="#006699" stroke-width="2"/>
<path d="M270.769,211.414v -2.82723" fill="none" stroke="#006699" stroke-width="2"/>
<g stroke="black" stroke-width="1" fill="none">
<line x1="269.769" y1="211.414" x2="270.769" y2="211.414"/>
</g>
<path d="M290.678,232.826v -2.11332" fill="none" stroke="#006699" stroke-width="2"/>
<path d="M290.678,230.713v -2.11332" fill="none" stroke="#006699" stroke-width="2"/>
<g stroke="black" stroke-width="1" fill="none">
<line x1="289.678" y1="230.713" x2="290.678" y2="230.713"/>
</g>
<path d="M310.587,250.961v -1.25239" fill="none" stroke="#006699" stroke-width="2"/>
<path d="M310.587,249.709v -1.25239" fill="none" stroke="#006699" stroke-width="2"/>
<g stroke="black" stroke-width="1" fill="none">
<line x1="309.587" y1="249.709" x2="310.587" y2="249.709"/>
</g>
<path d="M330.495,259.781v -0.597594" fill="none" stroke="#006699" stroke-width="2"/>
<path d="M330.495,259.183v -0.597594" fill="none" stroke="#006699" stroke-width="2"/>
<g stroke="black" stroke-width="1" fill="none">
<line x1="329.495" y1="259.183" x2="330.495" y2="259.183"/>
</g>
<path d="M439.993,248.933v -0.916357" fill="none" stroke="#006699" stroke-width="2"/>
<path d="M439.993,248.016v -0.916357" fill="none" stroke="#006699" stroke-width="2"/>
<g stroke="black" stroke-width="1" fill="none">
<line x1="438.993" y1="248.016" x2="439.993" y2="248.016"/>
</g>
<path d="M61.7283,261.321h 19.9087v -14.3037h 19.9087v -33.1545h 19.9087v -44.6873h 19.9087v -39.1323h 19.9087v -7.36293h 19.9087v -4.90555h 19.9087v 23.036h 19.9087v 20.4766h 19.9087v 34.1253h 19.9087v 16.0015h 19.9087v 19.299h 19.9087v 18.996h
 19.9087v 9.47466h 19.9087v -11.167h 199.087" fill="none" stroke="#006699" stroke-width="2"/>
<text xml:space="preserve" x="361.704" y="78.6875" fill="black" font-size="14.9283" font-family="Helvetica">| &lt; 2</text>
<text xml:space="preserve" x="354.12" y="78.6875" fill="black" font-size="14.9283" font-family="Times">&#0951;</text>
<text xml:space="preserve" x="260.264" y="78.6875" fill="black" font-size="14.9283" font-family="Helvetica">b flavor , 1 &lt;= |</text>
<text xml:space="preserve" x="303.873" y="113.765" fill="black" font-size="14.9283" font-family="Helvetica">True Background</text>
<path d="M263.477,110.307h 34.0299" fill="none" stroke="#ff0000" stroke-width="2"/>
<path d="M280.492,120.791v -20.9692" fill="none" stroke="#ff0000" stroke-width="2"/>
<text xml:space="preserve" x="303.873" y="150.739" fill="black" font-size="14.9283" font-family="Helvetica">Predict</text>
<path d="M263.477,145.255h 34.0299" fill="none" stroke="#006699" stroke-width="2"/>
<path d="M280.492,155.74v -20.9692" fill="none" stroke="#006699" stroke-width="2"/>
<rect x="6.16929" y="278.497" width="555.591" height="262.115" fill="white"/>
<rect x="61.7283" y="278.497" width="477.808" height="209.692" fill="white"/>
<rect x="61.7283" y="278.497" width="477.808" height="209.692" fill="none" stroke="black"/>
<path d="M71.6827,478.679v -84.3713" fill="none" stroke="black" stroke-width="2"/>
<path d="M71.6827,394.307v -84.3713" fill="none" stroke="black" stroke-width="2"/>
<path d="M61.7283,394.307h 9.95433" fill="none" stroke="black" stroke-width="2"/>
<path d="M71.6827,394.307h 9.95433" fill="none" stroke="black" stroke-width="2"/>
<g stroke="black" stroke-width="1" fill="none">
<line x1="70.6827" y1="394.307" x2="71.6827" y2="394.307"/>
</g>
<path d="M91.5913,424.049v -47.8949" fill="none" stroke="black" stroke-width="2"/>
<path d="M91.5913,376.155v -47.8949" fill="none" stroke="black" stroke-width="2"/>
<path d="M81.637,376.155h 9.95433" fill="none" stroke="black" stroke-width="2"/>
<path d="M91.5913,376.155h 9.95433" fill="none" stroke="black" stroke-width="2"/>
<g stroke="black" stroke-width="1" fill="none">
<line x1="90.5913" y1="376.155" x2="91.5913" y2="376.155"/>
</g>
<path d="M111.5,448.553v -28.5272" fill="none" stroke="black" stroke-width="2"/>
<path d="M111.5,420.026v -28.5272" fill="none" stroke="black" stroke-width="2"/>
<path d="M101.546,420.026h 9.95433" fill="none" stroke="black" stroke-width="2"/>
<path d="M111.5,420.026h 9.95433" fill="none" stroke="black" stroke-width="2"/>
<g stroke="black" stroke-width="1" fill="none">
<line x1="110.5" y1="420.026" x2="111.5" y2="420.026"/>
</g>
<path d="M131.409,413.159v -19.0057" fill="none" stroke="black" stroke-width="2"/>
<path d="M131.409,394.153v -19.0057" fill="none" stroke="black" stroke-width="2"/>
<path d="M121.454,394.153h 9.95433" fill="none" stroke="black" stroke-width="2"/>
<path d="M131.409,394.153h 9.95433" fill="none" stroke="black" stroke-width="2"/>
<g stroke="black" stroke-width="1" fill="none">
<line x1="130.409" y1="394.153" x2="131.409" y2="394.153"/>
</g>
<path d="M151.317,409.686v -15.8553" fill="none" stroke="black" stroke-width="2"/>
<path d="M151.317,393.831v -15.8553" fill="none" stroke="black" stroke-width="2"/>
<path d="M141.363,393.831h 9.95433" fill="none" stroke="black" stroke-width="2"/>
<path d="M151.317,393.831h 9.95433" fill="none" stroke="black" stroke-width="2"/>
<g stroke="black" stroke-width="1" fill="none">
<line x1="150.317" y1="393.831" x2="151.317" y2="393.831"/>
</g>
<path d="M171.226,361.059v -20.4944" fill="none" stroke="black" stroke-width="2"/>
<path d="M171.226,340.565v -20.4944" fill="none" stroke="black" stroke-width="2"/>
<path d="M161.272,340.565h 9.95433" fill="none" stroke="black" stroke-width="2"/>
<path d="M171.226,340.565h 9.95433" fill="none" stroke="black" stroke-width="2"/>
<g stroke="black" stroke-width="1" fill="none">
<line x1="170.226" y1="340.565" x2="171.226" y2="340.565"/>
</g>
<path d="M191.135,409.261v -15.6518" fill="none" stroke="black" stroke-width="2"/>
<path d="M191.135,393.609v -15.6518" fill="none" stroke="black" stroke-width="2"/>
<path d="M181.18,393.609h 9.95433" fill="none" stroke="black" stroke-width="2"/>
<path d="M191.135,393.609h 9.95433" fill="none" stroke="black" stroke-width="2"/>
<g stroke="black" stroke-width="1" fill="none">
<line x1="190.135" y1="393.609" x2="191.135" y2="393.609"/>
</g>
<path d="M211.043,398.709v -19.3437" fill="none" stroke="black" stroke-width="2"/>
<path d="M211.043,379.365v -19.3437" fill="none" stroke="black" stroke-width="2"/>
<path d="M201.089,379.365h 9.95433" fill="none" stroke="black" stroke-width="2"/>
<path d="M211.043,379.365h 9.95433" fill="none" stroke="black" stroke-width="2"/>
<g stroke="black" stroke-width="1" fill="none">
<line x1="210.043" y1="379.365" x2="211.043" y2="379.365"/>
</g>
<path d="M230.952,420.172v -18.1264" fill="none" stroke="black" stroke-width="2"/>
<path d="M230.952,402.046v -18.1264" fill="none" stroke="black" stroke-width="2"/>
<path d="M220.998,402.046h 9.95433" fill="none" stroke="black" stroke-width="2"/>
<path d="M230.952,402.046h 9.95433" fill="none" stroke="black" stroke-width="2"/>
<g stroke="black" stroke-width="1" fill="none">
<line x1="229.952" y1="402.046" x2="230.952" y2="402.046"/>
</g>
<path d="M250.861,427.113v -22.6699" fill="none" stroke="black" stroke-width="2"/>
<path d="M250.861,404.443v -22.6699" fill="none" stroke="black" stroke-width="2"/>
<path d="M240.906,404.443h 9.95433" fill="none" stroke="black" stroke-width="2"/>
<path d="M250.861,404.443h 9.95433" fill="none" stroke="black" stroke-width="2"/>
<g stroke="black" stroke-width="1" fill="none">
<line x1="249.861" y1="404.443" x2="250.861" y2="404.443"/>
</g>
<path d="M270.769,380.579v -37.561" fill="none" stroke="black" stroke-width="2"/>
<path d="M270.769,343.018v -37.561" fill="none" stroke="black" stroke-width="2"/>
<path d="M260.815,343.018h 9.95433" fill="none" stroke="black" stroke-width="2"/>
<path d="M270.769,343.018h 9.95433" fill="none" stroke="black" stroke-width="2"/>
<g stroke="black" stroke-width="1" fill="none">
<line x1="269.769" y1="343.018" x2="270.769" y2="343.018"/>
</g>
<path d="M290.678,393.377v -39.4538" fill="none" stroke="black" stroke-width="2"/>
<path d="M290.678,353.923v -39.4538" fill="none" stroke="black" stroke-width="2"/>
<path d="M280.724,353.923h 9.95433" fill="none" stroke="black" stroke-width="2"/>
<path d="M290.678,353.923h 9.95433" fill="none" stroke="black" stroke-width="2"/>
<g stroke="black" stroke-width="1" fill="none">
<line x1="289.678" y1="353.923" x2="290.678" y2="353.923"/>
</g>
<path d="M310.587,476.085v -30.9422" fill="none" stroke="black" stroke-width="2"/>
<path d="M310.587,445.143v -30.9422" fill="none" stroke="black" stroke-width="2"/>
<path d="M300.632,445.143h 9.95433" fill="none" stroke="black" stroke-width="2"/>
<path d="M310.587,445.143h 9.95433" fill="none" stroke="black" stroke-width="2"/>
<g stroke="black" stroke-width="1" fill="none">
<line x1="309.587" y1="445.143" x2="310.587" y2="445.143"/>
</g>
<path d="M330.495,420.218v -65.8678" fill="none" stroke="black" stroke-width="2"/>
<path d="M330.495,354.35v -65.8678" fill="none" stroke="black" stroke-width="2"/>
<path d="M320.541,354.35h 9.95433" fill="none" stroke="black" stroke-width="2"/>
<path d="M330.495,354.35h 9.95433" fill="none" stroke="black" stroke-width="2"/>
<g stroke="black" stroke-width="1" fill="none">
<line x1="329.495" y1="354.35" x2="330.495" y2="354.35"/>
</g>
<path d="M439.993,454.182v -33.5686" fill="none" stroke="black" stroke-width="2"/>
<path d="M439.993,420.614v -33.5686" fill="none" stroke="black" stroke-width="2"/>
<path d="M340.45,420.614h 99.5433" fill="none" stroke="black" stroke-width="2"/>
<path d="M439.993,420.614h 99.5433" fill="none" stroke="black" stroke-width="2"/>
<g stroke="black" stroke-width="1" fill="none">
<line x1="438.993" y1="420.614" x2="439.993" y2="420.614"/>
</g>
<path d="M64.1174,381.114l 4.77808, 0.325602l 4.77808, 0.325602l 4.77808, 0.325602l 4.77808, 0.325602l 4.77808, 0.325602l 4.77808, 0.325602l 4.77808, 0.325602l 4.77808, 0.325602l 4.77808, 0.325602l 4.77808, 0.325602l 4.77808, 0.325602l 4.77808,
 0.325602l 4.77808, 0.325602l 4.77808, 0.325602l 4.77808, 0.325602l 4.77808, 0.325602l 4.77808, 0.325602l 4.77808, 0.325602l 4.77808, 0.325602l 4.77808, 0.325602l 4.77808, 0.325602l 4.77808, 0.325602l 4.77808, 0.325602l 4.77808, 0.325602l 4.77808,
 0.325602l 4.77808, 0.325602l 4.77808, 0.325602l 4.77808, 0.325602l 4.77808, 0.325602l 4.77808, 0.325602l 4.77808, 0.325602l 4.77808, 0.325602l 4.77808, 0.325602l 4.77808, 0.325602l 4.77808, 0.325602l 4.77808, 0.325602l 4.77808, 0.325602l 4.77808,
 0.325602l 4.77808, 0.325602l 4.77808, 0.325602l 4.77808, 0.325602l 4.77808, 0.325602l 4.77808, 0.325602l 4.77808, 0.325602l 4.77808, 0.325602l 4.77808, 0.325602l 4.77808, 0.325602l 4.77808, 0.325602l 4.77808, 0.325602" fill="none" stroke="#339966"
 stroke-width="2"/>
<path d="M298.243,397.068l 4.77808, 0.325602l 4.77808, 0.325602l 4.77808, 0.325602l 4.77808, 0.325602l 4.77808, 0.325602l 4.77808, 0.325602l 4.77808, 0.325602l 4.77808, 0.325602l 4.77808, 0.325602l 4.77808, 0.325602l 4.77808, 0.325602l 4.77808,
 0.325602l 4.77808, 0.325602l 4.77808, 0.325602l 4.77808, 0.325602l 4.77808, 0.325602l 4.77808, 0.325602l 4.77808, 0.325602l 4.77808, 0.325602l 4.77808, 0.325602l 4.77808, 0.325602l 4.77808, 0.325602l 4.77808, 0.325602l 4.77808, 0.325602l 4.77808,
 0.325602l 4.77808, 0.325602l 4.77808, 0.325602l 4.77808, 0.325602l 4.77808, 0.325602l 4.77808, 0.325602l 4.77808, 0.325602l 4.77808, 0.325602l 4.77808, 0.325602l 4.77808, 0.325602l 4.77808, 0.325602l 4.77808, 0.325602l 4.77808, 0.325602l 4.77808,
 0.325602l 4.77808, 0.325602l 4.77808, 0.325602l 4.77808, 0.325602l 4.77808, 0.325602l 4.77808, 0.325602l 4.77808, 0.325602l 4.77808, 0.325602l 4.77808, 0.325602l 4.77808, 0.325602l 4.77808, 0.325602l 4.77808, 0.325602" fill="none" stroke="#339966"
 stroke-width="2"/>
<path d="M532.369,413.023l 4.77808, 0.325602" fill="none" stroke="#339966" stroke-width="2"/>
<path d="M61.7283,488.189h 477.808" fill="none" stroke="black"/>
<path d="M141.363,481.426v 6.76256" fill="none" stroke="black"/>
<path d="M161.272,484.807v 3.38128" fill="none" stroke="black"/>
<path d="M181.18,484.807v 3.38128" fill="none" stroke="black"/>
<path d="M201.089,484.807v 3.38128" fill="none" stroke="black"/>
<path d="M220.998,484.807v 3.38128" fill="none" stroke="black"/>
<path d="M240.906,481.426v 6.76256" fill="none" stroke="black"/>
<path d="M260.815,484.807v 3.38128" fill="none" stroke="black"/>
<path d="M280.724,484.807v 3.38128" fill="none" stroke="black"/>
<path d="M300.632,484.807v 3.38128" fill="none" stroke="black"/>
<path d="M320.541,484.807v 3.38128" fill="none" stroke="black"/>
<path d="M340.45,481.426v 6.76256" fill="none" stroke="black"/>
<path d="M360.358,484.807v 3.38128" fill="none" stroke="black"/>
<path d="M380.267,484.807v 3.38128" fill="none" stroke="black"/>
<path d="M400.176,484.807v 3.38128" fill="none" stroke="black"/>
<path d="M420.084,484.807v 3.38128" fill="none" stroke="black"/>
<path d="M439.993,481.426v 6.76256" fill="none" stroke="black"/>
<path d="M459.902,484.807v 3.38128" fill="none" stroke="black"/>
<path d="M479.81,484.807v 3.38128" fill="none" stroke="black"/>
<path d="M499.719,484.807v 3.38128" fill="none" stroke="black"/>
<path d="M519.628,484.807v 3.38128" fill="none" stroke="black"/>
<path d="M539.536,481.426v 6.76256" fill="none" stroke="black"/>
<path d="M141.363,481.426v 6.76256" fill="none" stroke="black"/>
<path d="M121.454,484.807v 3.38128" fill="none" stroke="black"/>
<path d="M101.546,484.807v 3.38128" fill="none" stroke="black"/>
<path d="M81.637,484.807v 3.38128" fill="none" stroke="black"/>
<path d="M61.7283,484.807v 3.38128" fill="none" stroke="black"/>
<text xml:space="preserve" x="137.966" y="496.774" fill="black" font-size="8.91652" font-family="Helvetica">5</text>
<text xml:space="preserve" x="235.614" y="496.774" fill="black" font-size="8.91652" font-family="Helvetica">10</text>
<text xml:space="preserve" x="335.159" y="496.774" fill="black" font-size="8.91652" font-family="Helvetica">15</text>
<text xml:space="preserve" x="434.703" y="496.774" fill="black" font-size="8.91652" font-family="Helvetica">20</text>
<text xml:space="preserve" x="534.248" y="496.774" fill="black" font-size="8.91652" font-family="Helvetica">25</text>
<text xml:space="preserve" x="433.755" y="516.683" fill="black" font-size="14.9283" font-family="Helvetica">Track multiplicity</text>
<path d="M61.7283,278.497h 477.808" fill="none" stroke="black"/>
<path d="M141.363,285.259v -6.76256" fill="none" stroke="black"/>
<path d="M161.272,281.878v -3.38128" fill="none" stroke="black"/>
<path d="M181.18,281.878v -3.38128" fill="none" stroke="black"/>
<path d="M201.089,281.878v -3.38128" fill="none" stroke="black"/>
<path d="M220.998,281.878v -3.38128" fill="none" stroke="black"/>
<path d="M240.906,285.259v -6.76256" fill="none" stroke="black"/>
<path d="M260.815,281.878v -3.38128" fill="none" stroke="black"/>
<path d="M280.724,281.878v -3.38128" fill="none" stroke="black"/>
<path d="M300.632,281.878v -3.38128" fill="none" stroke="black"/>
<path d="M320.541,281.878v -3.38128" fill="none" stroke="black"/>
<path d="M340.45,285.259v -6.76256" fill="none" stroke="black"/>
<path d="M360.358,281.878v -3.38128" fill="none" stroke="black"/>
<path d="M380.267,281.878v -3.38128" fill="none" stroke="black"/>
<path d="M400.176,281.878v -3.38128" fill="none" stroke="black"/>
<path d="M420.084,281.878v -3.38128" fill="none" stroke="black"/>
<path d="M439.993,285.259v -6.76256" fill="none" stroke="black"/>
<path d="M459.902,281.878v -3.38128" fill="none" stroke="black"/>
<path d="M479.81,281.878v -3.38128" fill="none" stroke="black"/>
<path d="M499.719,281.878v -3.38128" fill="none" stroke="black"/>
<path d="M519.628,281.878v -3.38128" fill="none" stroke="black"/>
<path d="M539.536,285.259v -6.76256" fill="none" stroke="black"/>
<path d="M141.363,285.259v -6.76256" fill="none" stroke="black"/>
<path d="M121.454,281.878v -3.38128" fill="none" stroke="black"/>
<path d="M101.546,281.878v -3.38128" fill="none" stroke="black"/>
<path d="M81.637,281.878v -3.38128" fill="none" stroke="black"/>
<path d="M61.7283,281.878v -3.38128" fill="none" stroke="black"/>
<path d="M61.7283,488.189v -209.692" fill="none" stroke="black"/>
<path d="M75.0625,477.967h -13.3342" fill="none" stroke="black"/>
<path d="M68.3954,472.012h -6.66709" fill="none" stroke="black"/>
<path d="M68.3954,466.057h -6.66709" fill="none" stroke="black"/>
<path d="M68.3954,460.102h -6.66709" fill="none" stroke="black"/>
<path d="M75.0625,454.147h -13.3342" fill="none" stroke="black"/>
<path d="M68.3954,448.192h -6.66709" fill="none" stroke="black"/>
<path d="M68.3954,442.237h -6.66709" fill="none" stroke="black"/>
<path d="M68.3954,436.282h -6.66709" fill="none" stroke="black"/>
<path d="M75.0625,430.327h -13.3342" fill="none" stroke="black"/>
<path d="M68.3954,424.372h -6.66709" fill="none" stroke="black"/>
<path d="M68.3954,418.417h -6.66709" fill="none" stroke="black"/>
<path d="M68.3954,412.462h -6.66709" fill="none" stroke="black"/>
<path d="M75.0625,406.507h -13.3342" fill="none" stroke="black"/>
<path d="M68.3954,400.552h -6.66709" fill="none" stroke="black"/>
<path d="M68.3954,394.597h -6.66709" fill="none" stroke="black"/>
<path d="M68.3954,388.642h -6.66709" fill="none" stroke="black"/>
<path d="M75.0625,382.687h -13.3342" fill="none" stroke="black"/>
<path d="M68.3954,376.732h -6.66709" fill="none" stroke="black"/>
<path d="M68.3954,370.777h -6.66709" fill="none" stroke="black"/>
<path d="M68.3954,364.822h -6.66709" fill="none" stroke="black"/>
<path d="M75.0625,358.867h -13.3342" fill="none" stroke="black"/>
<path d="M68.3954,352.912h -6.66709" fill="none" stroke="black"/>
<path d="M68.3954,346.957h -6.66709" fill="none" stroke="black"/>
<path d="M68.3954,341.002h -6.66709" fill="none" stroke="black"/>
<path d="M75.0625,335.047h -13.3342" fill="none" stroke="black"/>
<path d="M68.3954,329.092h -6.66709" fill="none" stroke="black"/>
<path d="M68.3954,323.137h -6.66709" fill="none" stroke="black"/>
<path d="M68.3954,317.182h -6.66709" fill="none" stroke="black"/>
<path d="M75.0625,311.227h -13.3342" fill="none" stroke="black"/>
<path d="M68.3954,305.272h -6.66709" fill="none" stroke="black"/>
<path d="M68.3954,299.317h -6.66709" fill="none" stroke="black"/>
<path d="M68.3954,293.362h -6.66709" fill="none" stroke="black"/>
<path d="M75.0625,287.407h -13.3342" fill="none" stroke="black"/>
<path d="M75.0625,477.967h -13.3342" fill="none" stroke="black"/>
<path d="M68.3954,483.922h -6.66709" fill="none" stroke="black"/>
<path d="M75.0625,287.407h -13.3342" fill="none" stroke="black"/>
<path d="M68.3954,281.452h -6.66709" fill="none" stroke="black"/>
<text xml:space="preserve" x="46.006" y="481.605" fill="black" font-size="8.91652" font-family="Helvetica">0.4</text>
<text xml:space="preserve" x="46.006" y="457.904" fill="black" font-size="8.91652" font-family="Helvetica">0.6</text>
<text xml:space="preserve" x="46.006" y="433.255" fill="black" font-size="8.91652" font-family="Helvetica">0.8</text>
<text xml:space="preserve" x="54.5384" y="409.554" fill="black" font-size="8.91652" font-family="Helvetica">1</text>
<text xml:space="preserve" x="46.006" y="385.853" fill="black" font-size="8.91652" font-family="Helvetica">1.2</text>
<text xml:space="preserve" x="46.006" y="362.152" fill="black" font-size="8.91652" font-family="Helvetica">1.4</text>
<text xml:space="preserve" x="46.006" y="338.451" fill="black" font-size="8.91652" font-family="Helvetica">1.6</text>
<text xml:space="preserve" x="46.006" y="314.75" fill="black" font-size="8.91652" font-family="Helvetica">1.8</text>
<text xml:space="preserve" x="53.5904" y="291.049" fill="black" font-size="8.91652" font-family="Helvetica">2</text>
<g transform="rotate(-90,19.4608,458.852)">
<text xml:space="preserve" x="19.4608" y="458.852" fill="black" font-size="14.9283" font-family="Helvetica">True Background / Predicted</text>
</g>
<text xml:space="preserve" x="343.691" y="328.023" fill="black" font-size="14.9283" font-family="Helvetica">Fitting function</text>
<text xml:space="preserve" x="387.301" y="368.788" fill="black" font-size="14.9283" font-family="Helvetica">1.225968 + -0.011391*x</text>
<path d="M346.816,363.684h 34.0299" fill="none" stroke="#339966" stroke-width="2"/></svg>
