<?xml version="1.0" standalone="no"?>
<svg width="567.429" height="546.572" viewBox="0 0 567.429 546.572" xmlns="http://www.w3.org/2000/svg" shape-rendering="crispEdges">
<title>
/home/kuanyu/Documents/CMS/Background_Estimate/fake_rate/top_emu/CT_Top(emu)_JetPT_bytrk_LO.svg
</title>
<desc>
Creator: ROOT Version 6.26/04
CreationDate: Thu Dec 22 17:55:33 2022</desc>
<defs>
</defs>
<rect x="0.5" y="0" width="566.929" height="546.072" fill="white"/>
<rect x="6.16929" y="5.46072" width="555.591" height="262.115" fill="white"/>
<rect x="61.7283" y="8.08187" width="477.808" height="259.493" fill="white"/>
<rect x="61.7283" y="8.08187" width="477.808" height="259.493" fill="none" stroke="black"/>
<rect x="61.7283" y="8.08187" width="477.808" height="259.493" fill="white"/>
<rect x="61.7283" y="8.08187" width="477.808" height="259.493" fill="none" stroke="black"/>
<path d="M76.0626,36.528v -1.1594" fill="none" stroke="#ff0000" stroke-width="2"/>
<path d="M76.0626,35.3686v -1.12746" fill="none" stroke="#ff0000" stroke-width="2"/>
<path d="M71.2845,35.3686h 4.77808" fill="none" stroke="#ff0000" stroke-width="2"/>
<path d="M76.0626,35.3686h 4.77808" fill="none" stroke="#ff0000" stroke-width="2"/>
<g stroke="black" stroke-width="1" fill="none">
<line x1="75.0626" y1="35.3686" x2="76.0626" y2="35.3686"/>
</g>
<path d="M85.6187,48.4665v -1.31122" fill="none" stroke="#ff0000" stroke-width="2"/>
<path d="M85.6187,47.1553v -1.27052" fill="none" stroke="#ff0000" stroke-width="2"/>
<path d="M80.8407,47.1553h 4.77808" fill="none" stroke="#ff0000" stroke-width="2"/>
<path d="M85.6187,47.1553h 4.77808" fill="none" stroke="#ff0000" stroke-width="2"/>
<g stroke="black" stroke-width="1" fill="none">
<line x1="84.6187" y1="47.1553" x2="85.6187" y2="47.1553"/>
</g>
<path d="M95.1749,64.5078v -1.60176" fill="none" stroke="#ff0000" stroke-width="2"/>
<path d="M95.1749,62.9061v -1.54143" fill="none" stroke="#ff0000" stroke-width="2"/>
<path d="M90.3968,62.9061h 4.77808" fill="none" stroke="#ff0000" stroke-width="2"/>
<path d="M95.1749,62.9061h 4.77808" fill="none" stroke="#ff0000" stroke-width="2"/>
<g stroke="black" stroke-width="1" fill="none">
<line x1="94.1749" y1="62.9061" x2="95.1749" y2="62.9061"/>
</g>
<path d="M104.731,85.399v -2.10811" fill="none" stroke="#ff0000" stroke-width="2"/>
<path d="M104.731,83.2909v -2.00483" fill="none" stroke="#ff0000" stroke-width="2"/>
<path d="M99.953,83.2909h 4.77808" fill="none" stroke="#ff0000" stroke-width="2"/>
<path d="M104.731,83.2909h 4.77808" fill="none" stroke="#ff0000" stroke-width="2"/>
<g stroke="black" stroke-width="1" fill="none">
<line x1="103.731" y1="83.2909" x2="104.731" y2="83.2909"/>
</g>
<path d="M119.065,87.0296v -2.1408" fill="none" stroke="#ff0000" stroke-width="2"/>
<path d="M119.065,84.8888v -2.03438" fill="none" stroke="#ff0000" stroke-width="2"/>
<path d="M109.509,84.8888h 9.55616" fill="none" stroke="#ff0000" stroke-width="2"/>
<path d="M119.065,84.8888h 9.55616" fill="none" stroke="#ff0000" stroke-width="2"/>
<g stroke="black" stroke-width="1" fill="none">
<line x1="118.065" y1="84.8888" x2="119.065" y2="84.8888"/>
</g>
<path d="M138.178,124.583v -3.82776" fill="none" stroke="#ff0000" stroke-width="2"/>
<path d="M138.178,120.755v -3.50023" fill="none" stroke="#ff0000" stroke-width="2"/>
<path d="M128.621,120.755h 9.55616" fill="none" stroke="#ff0000" stroke-width="2"/>
<path d="M138.178,120.755h 9.55616" fill="none" stroke="#ff0000" stroke-width="2"/>
<g stroke="black" stroke-width="1" fill="none">
<line x1="137.178" y1="120.755" x2="138.178" y2="120.755"/>
</g>
<path d="M160.475,168.334v -7.88256" fill="none" stroke="#ff0000" stroke-width="2"/>
<path d="M160.475,160.452v -6.60694" fill="none" stroke="#ff0000" stroke-width="2"/>
<path d="M147.734,160.452h 12.7415" fill="none" stroke="#ff0000" stroke-width="2"/>
<path d="M160.475,160.452h 12.7415" fill="none" stroke="#ff0000" stroke-width="2"/>
<g stroke="black" stroke-width="1" fill="none">
<line x1="159.475" y1="160.452" x2="160.475" y2="160.452"/>
</g>
<path d="M189.144,217.546v -14.161" fill="none" stroke="#ff0000" stroke-width="2"/>
<path d="M189.144,203.385v -10.5011" fill="none" stroke="#ff0000" stroke-width="2"/>
<path d="M173.217,203.385h 15.9269" fill="none" stroke="#ff0000" stroke-width="2"/>
<path d="M189.144,203.385h 15.9269" fill="none" stroke="#ff0000" stroke-width="2"/>
<g stroke="black" stroke-width="1" fill="none">
<line x1="188.144" y1="203.385" x2="189.144" y2="203.385"/>
</g>
<path d="M372.303,239.203v -17.2619" fill="none" stroke="#ff0000" stroke-width="2"/>
<path d="M372.303,221.941v -12.1041" fill="none" stroke="#ff0000" stroke-width="2"/>
<path d="M205.071,221.941h 167.233" fill="none" stroke="#ff0000" stroke-width="2"/>
<path d="M372.303,221.941h 167.233" fill="none" stroke="#ff0000" stroke-width="2"/>
<g stroke="black" stroke-width="1" fill="none">
<line x1="371.303" y1="221.941" x2="372.303" y2="221.941"/>
</g>
<path d="M61.7283,267.575h 477.808" fill="none" stroke="black"/>
<path d="M61.7283,260.813v 6.76256" fill="none" stroke="black"/>
<path d="M77.6553,264.194v 3.38128" fill="none" stroke="black"/>
<path d="M93.5822,264.194v 3.38128" fill="none" stroke="black"/>
<path d="M109.509,264.194v 3.38128" fill="none" stroke="black"/>
<path d="M125.436,260.813v 6.76256" fill="none" stroke="black"/>
<path d="M141.363,264.194v 3.38128" fill="none" stroke="black"/>
<path d="M157.29,264.194v 3.38128" fill="none" stroke="black"/>
<path d="M173.217,264.194v 3.38128" fill="none" stroke="black"/>
<path d="M189.144,260.813v 6.76256" fill="none" stroke="black"/>
<path d="M205.071,264.194v 3.38128" fill="none" stroke="black"/>
<path d="M220.998,264.194v 3.38128" fill="none" stroke="black"/>
<path d="M236.925,264.194v 3.38128" fill="none" stroke="black"/>
<path d="M252.852,260.813v 6.76256" fill="none" stroke="black"/>
<path d="M268.778,264.194v 3.38128" fill="none" stroke="black"/>
<path d="M284.705,264.194v 3.38128" fill="none" stroke="black"/>
<path d="M300.632,264.194v 3.38128" fill="none" stroke="black"/>
<path d="M316.559,260.813v 6.76256" fill="none" stroke="black"/>
<path d="M332.486,264.194v 3.38128" fill="none" stroke="black"/>
<path d="M348.413,264.194v 3.38128" fill="none" stroke="black"/>
<path d="M364.34,264.194v 3.38128" fill="none" stroke="black"/>
<path d="M380.267,260.813v 6.76256" fill="none" stroke="black"/>
<path d="M396.194,264.194v 3.38128" fill="none" stroke="black"/>
<path d="M412.121,264.194v 3.38128" fill="none" stroke="black"/>
<path d="M428.048,264.194v 3.38128" fill="none" stroke="black"/>
<path d="M443.975,260.813v 6.76256" fill="none" stroke="black"/>
<path d="M459.902,264.194v 3.38128" fill="none" stroke="black"/>
<path d="M475.828,264.194v 3.38128" fill="none" stroke="black"/>
<path d="M491.755,264.194v 3.38128" fill="none" stroke="black"/>
<path d="M507.682,260.813v 6.76256" fill="none" stroke="black"/>
<path d="M507.682,260.813v 6.76256" fill="none" stroke="black"/>
<path d="M523.609,264.194v 3.38128" fill="none" stroke="black"/>
<path d="M61.7283,267.575v -259.493" fill="none" stroke="black"/>
<path d="M69.9789,262.339h -8.25052" fill="none" stroke="black"/>
<path d="M69.9789,254.876h -8.25052" fill="none" stroke="black"/>
<path d="M69.9789,248.566h -8.25052" fill="none" stroke="black"/>
<path d="M69.9789,243.1h -8.25052" fill="none" stroke="black"/>
<path d="M69.9789,238.279h -8.25052" fill="none" stroke="black"/>
<path d="M78.2294,233.967h -16.501" fill="none" stroke="black"/>
<text xml:space="preserve" x="53.5904" y="237.01" fill="black" font-size="8.91652" font-family="Helvetica">1</text>
<path d="M69.9789,205.594h -8.25052" fill="none" stroke="black"/>
<path d="M69.9789,188.997h -8.25052" fill="none" stroke="black"/>
<path d="M69.9789,177.222h -8.25052" fill="none" stroke="black"/>
<path d="M69.9789,168.088h -8.25052" fill="none" stroke="black"/>
<path d="M69.9789,160.625h -8.25052" fill="none" stroke="black"/>
<path d="M69.9789,154.315h -8.25052" fill="none" stroke="black"/>
<path d="M69.9789,148.849h -8.25052" fill="none" stroke="black"/>
<path d="M69.9789,144.028h -8.25052" fill="none" stroke="black"/>
<path d="M78.2294,139.716h -16.501" fill="none" stroke="black"/>
<text xml:space="preserve" x="47.9021" y="143.154" fill="black" font-size="8.91652" font-family="Helvetica">10</text>
<path d="M69.9789,111.343h -8.25052" fill="none" stroke="black"/>
<path d="M69.9789,94.7465h -8.25052" fill="none" stroke="black"/>
<path d="M69.9789,82.9709h -8.25052" fill="none" stroke="black"/>
<path d="M69.9789,73.8371h -8.25052" fill="none" stroke="black"/>
<path d="M69.9789,66.3742h -8.25052" fill="none" stroke="black"/>
<path d="M69.9789,60.0644h -8.25052" fill="none" stroke="black"/>
<path d="M69.9789,54.5986h -8.25052" fill="none" stroke="black"/>
<path d="M69.9789,49.7774h -8.25052" fill="none" stroke="black"/>
<path d="M78.2294,45.4647h -16.501" fill="none" stroke="black"/>
<text xml:space="preserve" x="53.5904" y="44.558" fill="black" font-size="6.11102" font-family="Helvetica">2</text>
<text xml:space="preserve" x="44.1099" y="49.2982" fill="black" font-size="8.91652" font-family="Helvetica">10</text>
<path d="M69.9789,17.0924h -8.25052" fill="none" stroke="black"/>
<g transform="rotate(-90,20.4089,35.0776)">
<text xml:space="preserve" x="20.4089" y="35.0776" fill="black" font-size="14.9283" font-family="Helvetica">nJet</text>
</g>
<path d="M76.0626,26.6402v -0.427896" fill="none" stroke="#006699" stroke-width="2"/>
<path d="M76.0626,26.2123v -0.423469" fill="none" stroke="#006699" stroke-width="2"/>
<g stroke="black" stroke-width="1" fill="none">
<line x1="75.0626" y1="26.2123" x2="76.0626" y2="26.2123"/>
</g>
<path d="M85.6187,46.5948v -0.470681" fill="none" stroke="#006699" stroke-width="2"/>
<path d="M85.6187,46.1241v -0.465331" fill="none" stroke="#006699" stroke-width="2"/>
<g stroke="black" stroke-width="1" fill="none">
<line x1="84.6187" y1="46.1241" x2="85.6187" y2="46.1241"/>
</g>
<path d="M95.1749,69.1312v -0.583603" fill="none" stroke="#006699" stroke-width="2"/>
<path d="M95.1749,68.5476v -0.575399" fill="none" stroke="#006699" stroke-width="2"/>
<g stroke="black" stroke-width="1" fill="none">
<line x1="94.1749" y1="68.5476" x2="95.1749" y2="68.5476"/>
</g>
<path d="M104.731,91.3665v -0.759593" fill="none" stroke="#006699" stroke-width="2"/>
<path d="M104.731,90.6069v -0.745754" fill="none" stroke="#006699" stroke-width="2"/>
<g stroke="black" stroke-width="1" fill="none">
<line x1="103.731" y1="90.6069" x2="104.731" y2="90.6069"/>
</g>
<path d="M119.065,92.7921v -0.756526" fill="none" stroke="#006699" stroke-width="2"/>
<path d="M119.065,92.0356v -0.742797" fill="none" stroke="#006699" stroke-width="2"/>
<g stroke="black" stroke-width="1" fill="none">
<line x1="118.065" y1="92.0356" x2="119.065" y2="92.0356"/>
</g>
<path d="M138.178,126.597v -1.20444" fill="none" stroke="#006699" stroke-width="2"/>
<path d="M138.178,125.392v -1.17001" fill="none" stroke="#006699" stroke-width="2"/>
<g stroke="black" stroke-width="1" fill="none">
<line x1="137.178" y1="125.392" x2="138.178" y2="125.392"/>
</g>
<path d="M160.475,150.582v -1.71521" fill="none" stroke="#006699" stroke-width="2"/>
<path d="M160.475,148.867v -1.64622" fill="none" stroke="#006699" stroke-width="2"/>
<g stroke="black" stroke-width="1" fill="none">
<line x1="159.475" y1="148.867" x2="160.475" y2="148.867"/>
</g>
<path d="M189.144,179.991v -1.83483" fill="none" stroke="#006699" stroke-width="2"/>
<path d="M189.144,178.156v -1.7561" fill="none" stroke="#006699" stroke-width="2"/>
<g stroke="black" stroke-width="1" fill="none">
<line x1="188.144" y1="178.156" x2="189.144" y2="178.156"/>
</g>
<path d="M372.303,187.828v -2.29509" fill="none" stroke="#006699" stroke-width="2"/>
<path d="M372.303,185.533v -2.17321" fill="none" stroke="#006699" stroke-width="2"/>
<g stroke="black" stroke-width="1" fill="none">
<line x1="371.303" y1="185.533" x2="372.303" y2="185.533"/>
</g>
<path d="M61.7283,267.575h 9.55616v -241.363h 9.55616v 19.9117h 9.55616v 22.4235h 9.55616v 22.0593h 9.55616v 1.42863h 19.1123v 33.3569h 19.1123v 23.4745h 25.4831v 29.2893h 31.8539v 7.37629h 334.466" fill="none" stroke="#006699" stroke-width="2"/>
<text xml:space="preserve" x="260.264" y="78.6875" fill="black" font-size="14.9283" font-family="Helvetica">Top to emu</text>
<text xml:space="preserve" x="303.873" y="113.765" fill="black" font-size="14.9283" font-family="Helvetica">True Background</text>
<path d="M263.477,110.307h 34.0299" fill="none" stroke="#ff0000" stroke-width="2"/>
<path d="M280.492,120.791v -20.9692" fill="none" stroke="#ff0000" stroke-width="2"/>
<text xml:space="preserve" x="303.873" y="150.739" fill="black" font-size="14.9283" font-family="Helvetica">Predict</text>
<path d="M263.477,145.255h 34.0299" fill="none" stroke="#006699" stroke-width="2"/>
<path d="M280.492,155.74v -20.9692" fill="none" stroke="#006699" stroke-width="2"/>
<rect x="6.16929" y="278.497" width="555.591" height="262.115" fill="white"/>
<rect x="61.7283" y="278.497" width="477.808" height="209.692" fill="white"/>
<rect x="61.7283" y="278.497" width="477.808" height="209.692" fill="none" stroke="black"/>
<rect x="61.7283" y="278.497" width="477.808" height="209.692" fill="white"/>
<rect x="61.7283" y="278.497" width="477.808" height="209.692" fill="none" stroke="black"/>
<path d="M76.0626,365.2v -3.77771" fill="none" stroke="black" stroke-width="2"/>
<path d="M76.0626,361.422v -3.77771" fill="none" stroke="black" stroke-width="2"/>
<path d="M71.2845,361.422h 4.77808" fill="none" stroke="black" stroke-width="2"/>
<path d="M76.0626,361.422h 4.77808" fill="none" stroke="black" stroke-width="2"/>
<g stroke="black" stroke-width="1" fill="none">
<line x1="75.0626" y1="361.422" x2="76.0626" y2="361.422"/>
</g>
<path d="M85.6187,338.773v -5.18453" fill="none" stroke="black" stroke-width="2"/>
<path d="M85.6187,333.588v -5.18453" fill="none" stroke="black" stroke-width="2"/>
<path d="M80.8407,333.588h 4.77808" fill="none" stroke="black" stroke-width="2"/>
<path d="M85.6187,333.588h 4.77808" fill="none" stroke="black" stroke-width="2"/>
<g stroke="black" stroke-width="1" fill="none">
<line x1="84.6187" y1="333.588" x2="85.6187" y2="333.588"/>
</g>
<path d="M95.1749,313.659v -7.44337" fill="none" stroke="black" stroke-width="2"/>
<path d="M95.1749,306.215v -7.44337" fill="none" stroke="black" stroke-width="2"/>
<path d="M90.3968,306.215h 4.77808" fill="none" stroke="black" stroke-width="2"/>
<path d="M95.1749,306.215h 4.77808" fill="none" stroke="black" stroke-width="2"/>
<g stroke="black" stroke-width="1" fill="none">
<line x1="94.1749" y1="306.215" x2="95.1749" y2="306.215"/>
</g>
<path d="M104.731,308.751v -10.1344" fill="none" stroke="black" stroke-width="2"/>
<path d="M104.731,298.617v -10.1344" fill="none" stroke="black" stroke-width="2"/>
<path d="M99.953,298.617h 4.77808" fill="none" stroke="black" stroke-width="2"/>
<path d="M104.731,298.617h 4.77808" fill="none" stroke="black" stroke-width="2"/>
<g stroke="black" stroke-width="1" fill="none">
<line x1="103.731" y1="298.617" x2="104.731" y2="298.617"/>
</g>
<path d="M119.065,309.621v -10.2224" fill="none" stroke="black" stroke-width="2"/>
<path d="M119.065,299.399v -10.2224" fill="none" stroke="black" stroke-width="2"/>
<path d="M109.509,299.399h 9.55616" fill="none" stroke="black" stroke-width="2"/>
<path d="M119.065,299.399h 9.55616" fill="none" stroke="black" stroke-width="2"/>
<g stroke="black" stroke-width="1" fill="none">
<line x1="118.065" y1="299.399" x2="119.065" y2="299.399"/>
</g>
<path d="M138.178,327.293v -16.667" fill="none" stroke="black" stroke-width="2"/>
<path d="M138.178,310.626v -16.667" fill="none" stroke="black" stroke-width="2"/>
<path d="M128.621,310.626h 9.55616" fill="none" stroke="black" stroke-width="2"/>
<path d="M138.178,310.626h 9.55616" fill="none" stroke="black" stroke-width="2"/>
<g stroke="black" stroke-width="1" fill="none">
<line x1="137.178" y1="310.626" x2="138.178" y2="310.626"/>
</g>
<path d="M160.475,390.217v -21.4928" fill="none" stroke="black" stroke-width="2"/>
<path d="M160.475,368.724v -21.4928" fill="none" stroke="black" stroke-width="2"/>
<path d="M147.734,368.724h 12.7415" fill="none" stroke="black" stroke-width="2"/>
<path d="M160.475,368.724h 12.7415" fill="none" stroke="black" stroke-width="2"/>
<g stroke="black" stroke-width="1" fill="none">
<line x1="159.475" y1="368.724" x2="160.475" y2="368.724"/>
</g>
<path d="M189.144,427.902v -25.3143" fill="none" stroke="black" stroke-width="2"/>
<path d="M189.144,402.588v -25.3143" fill="none" stroke="black" stroke-width="2"/>
<path d="M173.217,402.588h 15.9269" fill="none" stroke="black" stroke-width="2"/>
<path d="M189.144,402.588h 15.9269" fill="none" stroke="black" stroke-width="2"/>
<g stroke="black" stroke-width="1" fill="none">
<line x1="188.144" y1="402.588" x2="189.144" y2="402.588"/>
</g>
<path d="M372.303,445.741v -22.6935" fill="none" stroke="black" stroke-width="2"/>
<path d="M372.303,423.047v -22.6935" fill="none" stroke="black" stroke-width="2"/>
<path d="M205.071,423.047h 167.233" fill="none" stroke="black" stroke-width="2"/>
<path d="M372.303,423.047h 167.233" fill="none" stroke="black" stroke-width="2"/>
<g stroke="black" stroke-width="1" fill="none">
<line x1="371.303" y1="423.047" x2="372.303" y2="423.047"/>
</g>
<path d="M64.1174,338.621l 4.77808, 0.314585l 4.77808, 0.314585l 4.77808, 0.314585l 4.77808, 0.314585l 4.77808, 0.314585l 4.77808, 0.314585l 4.77808, 0.314585l 4.77808, 0.314585l 4.77808, 0.314585l 4.77808, 0.314585l 4.77808, 0.314585l 4.77808,
 0.314585l 4.77808, 0.314585l 4.77808, 0.314585l 4.77808, 0.314585l 4.77808, 0.314585l 4.77808, 0.314585l 4.77808, 0.314585l 4.77808, 0.314585l 4.77808, 0.314585l 4.77808, 0.314585l 4.77808, 0.314585l 4.77808, 0.314585l 4.77808, 0.314585l 4.77808,
 0.314585l 4.77808, 0.314585l 4.77808, 0.314585l 4.77808, 0.314585l 4.77808, 0.314585l 4.77808, 0.314585l 4.77808, 0.314585l 4.77808, 0.314585l 4.77808, 0.314585l 4.77808, 0.314585l 4.77808, 0.314585l 4.77808, 0.314585l 4.77808, 0.314585l 4.77808,
 0.314585l 4.77808, 0.314585l 4.77808, 0.314585l 4.77808, 0.314585l 4.77808, 0.314585l 4.77808, 0.314585l 4.77808, 0.314585l 4.77808, 0.314585l 4.77808, 0.314585l 4.77808, 0.314585l 4.77808, 0.314585l 4.77808, 0.314585" fill="none" stroke="#339966"
 stroke-width="2"/>
<path d="M298.243,354.036l 4.77808, 0.314585l 4.77808, 0.314585l 4.77808, 0.314585l 4.77808, 0.314585l 4.77808, 0.314585l 4.77808, 0.314585l 4.77808, 0.314585l 4.77808, 0.314585l 4.77808, 0.314585l 4.77808, 0.314585l 4.77808, 0.314585l 4.77808,
 0.314585l 4.77808, 0.314585l 4.77808, 0.314585l 4.77808, 0.314585l 4.77808, 0.314585l 4.77808, 0.314585l 4.77808, 0.314585l 4.77808, 0.314585l 4.77808, 0.314585l 4.77808, 0.314585l 4.77808, 0.314585l 4.77808, 0.314585l 4.77808, 0.314585l 4.77808,
 0.314585l 4.77808, 0.314585l 4.77808, 0.314585l 4.77808, 0.314585l 4.77808, 0.314585l 4.77808, 0.314585l 4.77808, 0.314585l 4.77808, 0.314585l 4.77808, 0.314585l 4.77808, 0.314585l 4.77808, 0.314585l 4.77808, 0.314585l 4.77808, 0.314585l 4.77808,
 0.314585l 4.77808, 0.314585l 4.77808, 0.314585l 4.77808, 0.314585l 4.77808, 0.314585l 4.77808, 0.314585l 4.77808, 0.314585l 4.77808, 0.314585l 4.77808, 0.314585l 4.77808, 0.314585l 4.77808, 0.314585l 4.77808, 0.314585" fill="none" stroke="#339966"
 stroke-width="2"/>
<path d="M532.369,369.45l 4.77808, 0.314585" fill="none" stroke="#339966" stroke-width="2"/>
<path d="M61.7283,488.189h 477.808" fill="none" stroke="black"/>
<path d="M61.7283,481.426v 6.76256" fill="none" stroke="black"/>
<path d="M77.6553,484.807v 3.38128" fill="none" stroke="black"/>
<path d="M93.5822,484.807v 3.38128" fill="none" stroke="black"/>
<path d="M109.509,484.807v 3.38128" fill="none" stroke="black"/>
<path d="M125.436,481.426v 6.76256" fill="none" stroke="black"/>
<path d="M141.363,484.807v 3.38128" fill="none" stroke="black"/>
<path d="M157.29,484.807v 3.38128" fill="none" stroke="black"/>
<path d="M173.217,484.807v 3.38128" fill="none" stroke="black"/>
<path d="M189.144,481.426v 6.76256" fill="none" stroke="black"/>
<path d="M205.071,484.807v 3.38128" fill="none" stroke="black"/>
<path d="M220.998,484.807v 3.38128" fill="none" stroke="black"/>
<path d="M236.925,484.807v 3.38128" fill="none" stroke="black"/>
<path d="M252.852,481.426v 6.76256" fill="none" stroke="black"/>
<path d="M268.778,484.807v 3.38128" fill="none" stroke="black"/>
<path d="M284.705,484.807v 3.38128" fill="none" stroke="black"/>
<path d="M300.632,484.807v 3.38128" fill="none" stroke="black"/>
<path d="M316.559,481.426v 6.76256" fill="none" stroke="black"/>
<path d="M332.486,484.807v 3.38128" fill="none" stroke="black"/>
<path d="M348.413,484.807v 3.38128" fill="none" stroke="black"/>
<path d="M364.34,484.807v 3.38128" fill="none" stroke="black"/>
<path d="M380.267,481.426v 6.76256" fill="none" stroke="black"/>
<path d="M396.194,484.807v 3.38128" fill="none" stroke="black"/>
<path d="M412.121,484.807v 3.38128" fill="none" stroke="black"/>
<path d="M428.048,484.807v 3.38128" fill="none" stroke="black"/>
<path d="M443.975,481.426v 6.76256" fill="none" stroke="black"/>
<path d="M459.902,484.807v 3.38128" fill="none" stroke="black"/>
<path d="M475.828,484.807v 3.38128" fill="none" stroke="black"/>
<path d="M491.755,484.807v 3.38128" fill="none" stroke="black"/>
<path d="M507.682,481.426v 6.76256" fill="none" stroke="black"/>
<path d="M507.682,481.426v 6.76256" fill="none" stroke="black"/>
<path d="M523.609,484.807v 3.38128" fill="none" stroke="black"/>
<text xml:space="preserve" x="58.3306" y="496.774" fill="black" font-size="8.91652" font-family="Helvetica">0</text>
<text xml:space="preserve" x="117.109" y="496.774" fill="black" font-size="8.91652" font-family="Helvetica">200</text>
<text xml:space="preserve" x="180.628" y="496.774" fill="black" font-size="8.91652" font-family="Helvetica">400</text>
<text xml:space="preserve" x="245.095" y="496.774" fill="black" font-size="8.91652" font-family="Helvetica">600</text>
<text xml:space="preserve" x="308.614" y="496.774" fill="black" font-size="8.91652" font-family="Helvetica">800</text>
<text xml:space="preserve" x="370.236" y="496.774" fill="black" font-size="8.91652" font-family="Helvetica">1000</text>
<text xml:space="preserve" x="433.755" y="496.774" fill="black" font-size="8.91652" font-family="Helvetica">1200</text>
<text xml:space="preserve" x="497.274" y="496.774" fill="black" font-size="8.91652" font-family="Helvetica">1400</text>
<text xml:space="preserve" x="497.274" y="518.579" fill="black" font-size="14.9283" font-family="Helvetica">Jet PT</text>
<path d="M61.7283,278.497h 477.808" fill="none" stroke="black"/>
<path d="M61.7283,285.259v -6.76256" fill="none" stroke="black"/>
<path d="M77.6553,281.878v -3.38128" fill="none" stroke="black"/>
<path d="M93.5822,281.878v -3.38128" fill="none" stroke="black"/>
<path d="M109.509,281.878v -3.38128" fill="none" stroke="black"/>
<path d="M125.436,285.259v -6.76256" fill="none" stroke="black"/>
<path d="M141.363,281.878v -3.38128" fill="none" stroke="black"/>
<path d="M157.29,281.878v -3.38128" fill="none" stroke="black"/>
<path d="M173.217,281.878v -3.38128" fill="none" stroke="black"/>
<path d="M189.144,285.259v -6.76256" fill="none" stroke="black"/>
<path d="M205.071,281.878v -3.38128" fill="none" stroke="black"/>
<path d="M220.998,281.878v -3.38128" fill="none" stroke="black"/>
<path d="M236.925,281.878v -3.38128" fill="none" stroke="black"/>
<path d="M252.852,285.259v -6.76256" fill="none" stroke="black"/>
<path d="M268.778,281.878v -3.38128" fill="none" stroke="black"/>
<path d="M284.705,281.878v -3.38128" fill="none" stroke="black"/>
<path d="M300.632,281.878v -3.38128" fill="none" stroke="black"/>
<path d="M316.559,285.259v -6.76256" fill="none" stroke="black"/>
<path d="M332.486,281.878v -3.38128" fill="none" stroke="black"/>
<path d="M348.413,281.878v -3.38128" fill="none" stroke="black"/>
<path d="M364.34,281.878v -3.38128" fill="none" stroke="black"/>
<path d="M380.267,285.259v -6.76256" fill="none" stroke="black"/>
<path d="M396.194,281.878v -3.38128" fill="none" stroke="black"/>
<path d="M412.121,281.878v -3.38128" fill="none" stroke="black"/>
<path d="M428.048,281.878v -3.38128" fill="none" stroke="black"/>
<path d="M443.975,285.259v -6.76256" fill="none" stroke="black"/>
<path d="M459.902,281.878v -3.38128" fill="none" stroke="black"/>
<path d="M475.828,281.878v -3.38128" fill="none" stroke="black"/>
<path d="M491.755,281.878v -3.38128" fill="none" stroke="black"/>
<path d="M507.682,285.259v -6.76256" fill="none" stroke="black"/>
<path d="M507.682,285.259v -6.76256" fill="none" stroke="black"/>
<path d="M523.609,281.878v -3.38128" fill="none" stroke="black"/>
<path d="M61.7283,488.189v -209.692" fill="none" stroke="black"/>
<path d="M75.0625,488.189h -13.3342" fill="none" stroke="black"/>
<path d="M68.3954,480.261h -6.66709" fill="none" stroke="black"/>
<path d="M68.3954,472.334h -6.66709" fill="none" stroke="black"/>
<path d="M68.3954,464.407h -6.66709" fill="none" stroke="black"/>
<path d="M75.0625,456.48h -13.3342" fill="none" stroke="black"/>
<path d="M68.3954,448.552h -6.66709" fill="none" stroke="black"/>
<path d="M68.3954,440.625h -6.66709" fill="none" stroke="black"/>
<path d="M68.3954,432.698h -6.66709" fill="none" stroke="black"/>
<path d="M75.0625,424.771h -13.3342" fill="none" stroke="black"/>
<path d="M68.3954,416.844h -6.66709" fill="none" stroke="black"/>
<path d="M68.3954,408.916h -6.66709" fill="none" stroke="black"/>
<path d="M68.3954,400.989h -6.66709" fill="none" stroke="black"/>
<path d="M75.0625,393.062h -13.3342" fill="none" stroke="black"/>
<path d="M68.3954,385.135h -6.66709" fill="none" stroke="black"/>
<path d="M68.3954,377.207h -6.66709" fill="none" stroke="black"/>
<path d="M68.3954,369.28h -6.66709" fill="none" stroke="black"/>
<path d="M75.0625,361.353h -13.3342" fill="none" stroke="black"/>
<path d="M68.3954,353.426h -6.66709" fill="none" stroke="black"/>
<path d="M68.3954,345.499h -6.66709" fill="none" stroke="black"/>
<path d="M68.3954,337.571h -6.66709" fill="none" stroke="black"/>
<path d="M75.0625,329.644h -13.3342" fill="none" stroke="black"/>
<path d="M68.3954,321.717h -6.66709" fill="none" stroke="black"/>
<path d="M68.3954,313.79h -6.66709" fill="none" stroke="black"/>
<path d="M68.3954,305.862h -6.66709" fill="none" stroke="black"/>
<path d="M75.0625,297.935h -13.3342" fill="none" stroke="black"/>
<path d="M75.0625,297.935h -13.3342" fill="none" stroke="black"/>
<path d="M68.3954,290.008h -6.66709" fill="none" stroke="black"/>
<path d="M68.3954,282.081h -6.66709" fill="none" stroke="black"/>
<text xml:space="preserve" x="53.5904" y="491.086" fill="black" font-size="8.91652" font-family="Helvetica">0</text>
<text xml:space="preserve" x="46.006" y="459.8" fill="black" font-size="8.91652" font-family="Helvetica">0.2</text>
<text xml:space="preserve" x="46.006" y="428.515" fill="black" font-size="8.91652" font-family="Helvetica">0.4</text>
<text xml:space="preserve" x="46.006" y="396.282" fill="black" font-size="8.91652" font-family="Helvetica">0.6</text>
<text xml:space="preserve" x="46.006" y="364.996" fill="black" font-size="8.91652" font-family="Helvetica">0.8</text>
<text xml:space="preserve" x="54.5384" y="332.763" fill="black" font-size="8.91652" font-family="Helvetica">1</text>
<text xml:space="preserve" x="46.006" y="301.477" fill="black" font-size="8.91652" font-family="Helvetica">1.2</text>
<g transform="rotate(-90,19.4608,458.852)">
<text xml:space="preserve" x="19.4608" y="458.852" fill="black" font-size="14.9283" font-family="Helvetica">True Background / Predicted</text>
</g>
<text xml:space="preserve" x="284.913" y="323.282" fill="black" font-size="14.9283" font-family="Helvetica">Fitting function: par0 + par1*x</text>
<text xml:space="preserve" x="297.237" y="349.828" fill="black" font-size="14.9283" font-family="Helvetica">par0 : 0.94437 +- 0.0208974</text>
<text xml:space="preserve" x="297.237" y="375.425" fill="black" font-size="14.9283" font-family="Helvetica">par1 : -0.00013228 +- 0.000137619</text></svg>
