<?xml version="1.0" standalone="no"?>
<svg width="567.429" height="546.572" viewBox="0 0 567.429 546.572" xmlns="http://www.w3.org/2000/svg" shape-rendering="crispEdges">
<title>
/home/kuanyu/Documents/CMS/Background_Estimate/fake_rate/top_emu/fake_rate_JetPt.svg
</title>
<desc>
Creator: ROOT Version 6.26/04
CreationDate: Thu Dec  1 21:18:00 2022</desc>
<defs>
</defs>
<rect x="0.5" y="0" width="566.929" height="546.072" fill="white"/>
<rect x="68.5315" y="43.6858" width="476.22" height="436.858" fill="none" stroke="black"/>
<rect x="68.5315" y="43.6858" width="476.22" height="436.858" fill="none" stroke="black"/>
<rect x="68.5315" y="43.6858" width="476.22" height="436.858" fill="none" stroke="black"/>
<rect x="68.5315" y="43.6858" width="476.22" height="436.858" fill="none" stroke="black"/>
<path d="M82.8181,126.736v -2.84056" fill="none" stroke="#006600" stroke-width="2"/>
<path d="M82.8181,123.895v -2.77549" fill="none" stroke="#006600" stroke-width="2"/>
<path d="M78.0559,123.895h 4.7622" fill="none" stroke="#006600" stroke-width="2"/>
<path d="M82.8181,123.895h 4.7622" fill="none" stroke="#006600" stroke-width="2"/>
<g stroke="black" stroke-width="1" fill="none">
<line x1="81.8181" y1="123.895" x2="82.8181" y2="123.895"/>
</g>
<path d="M92.3425,144.143v -3.23941" fill="none" stroke="#006600" stroke-width="2"/>
<path d="M92.3425,140.903v -3.15506" fill="none" stroke="#006600" stroke-width="2"/>
<path d="M87.5803,140.903h 4.7622" fill="none" stroke="#006600" stroke-width="2"/>
<path d="M92.3425,140.903h 4.7622" fill="none" stroke="#006600" stroke-width="2"/>
<g stroke="black" stroke-width="1" fill="none">
<line x1="91.3425" y1="140.903" x2="92.3425" y2="140.903"/>
</g>
<path d="M101.867,153.733v -4.03817" fill="none" stroke="#006600" stroke-width="2"/>
<path d="M101.867,149.695v -3.90792" fill="none" stroke="#006600" stroke-width="2"/>
<path d="M97.1047,149.695h 4.7622" fill="none" stroke="#006600" stroke-width="2"/>
<path d="M101.867,149.695h 4.7622" fill="none" stroke="#006600" stroke-width="2"/>
<g stroke="black" stroke-width="1" fill="none">
<line x1="100.867" y1="149.695" x2="101.867" y2="149.695"/>
</g>
<path d="M111.391,153.9v -4.75055" fill="none" stroke="#006600" stroke-width="2"/>
<path d="M111.391,149.149v -4.5713" fill="none" stroke="#006600" stroke-width="2"/>
<path d="M106.629,149.149h 4.7622" fill="none" stroke="#006600" stroke-width="2"/>
<path d="M111.391,149.149h 4.7622" fill="none" stroke="#006600" stroke-width="2"/>
<g stroke="black" stroke-width="1" fill="none">
<line x1="110.391" y1="149.149" x2="111.391" y2="149.149"/>
</g>
<path d="M125.678,175.287v -5.26721" fill="none" stroke="#006600" stroke-width="2"/>
<path d="M125.678,170.02v -5.04775" fill="none" stroke="#006600" stroke-width="2"/>
<path d="M116.154,170.02h 9.52441" fill="none" stroke="#006600" stroke-width="2"/>
<path d="M125.678,170.02h 9.52441" fill="none" stroke="#006600" stroke-width="2"/>
<g stroke="black" stroke-width="1" fill="none">
<line x1="124.678" y1="170.02" x2="125.678" y2="170.02"/>
</g>
<path d="M144.727,206.933v -9.98528" fill="none" stroke="#006600" stroke-width="2"/>
<path d="M144.727,196.948v -9.22467" fill="none" stroke="#006600" stroke-width="2"/>
<path d="M135.202,196.948h 9.52441" fill="none" stroke="#006600" stroke-width="2"/>
<path d="M144.727,196.948h 9.52441" fill="none" stroke="#006600" stroke-width="2"/>
<g stroke="black" stroke-width="1" fill="none">
<line x1="143.727" y1="196.948" x2="144.727" y2="196.948"/>
</g>
<path d="M166.95,299.391v -24.8009" fill="none" stroke="#006600" stroke-width="2"/>
<path d="M166.95,274.59v -20.5769" fill="none" stroke="#006600" stroke-width="2"/>
<path d="M154.251,274.59h 12.6992" fill="none" stroke="#006600" stroke-width="2"/>
<path d="M166.95,274.59h 12.6992" fill="none" stroke="#006600" stroke-width="2"/>
<g stroke="black" stroke-width="1" fill="none">
<line x1="165.95" y1="274.59" x2="166.95" y2="274.59"/>
</g>
<path d="M195.524,396.558v -45.0028" fill="none" stroke="#006600" stroke-width="2"/>
<path d="M195.524,351.556v -32.7404" fill="none" stroke="#006600" stroke-width="2"/>
<path d="M179.65,351.556h 15.874" fill="none" stroke="#006600" stroke-width="2"/>
<path d="M195.524,351.556h 15.874" fill="none" stroke="#006600" stroke-width="2"/>
<g stroke="black" stroke-width="1" fill="none">
<line x1="194.524" y1="351.556" x2="195.524" y2="351.556"/>
</g>
<path d="M378.075,331.713v -52.7993" fill="none" stroke="#006600" stroke-width="2"/>
<path d="M378.075,278.914v -36.6517" fill="none" stroke="#006600" stroke-width="2"/>
<path d="M211.398,278.914h 166.677" fill="none" stroke="#006600" stroke-width="2"/>
<path d="M378.075,278.914h 166.677" fill="none" stroke="#006600" stroke-width="2"/>
<g stroke="black" stroke-width="1" fill="none">
<line x1="377.075" y1="278.914" x2="378.075" y2="278.914"/>
</g>
<path d="M68.5315,480.544h 476.22" fill="none" stroke="black"/>
<path d="M68.5315,466.783v 13.761" fill="none" stroke="black"/>
<path d="M84.4055,473.663v 6.88051" fill="none" stroke="black"/>
<path d="M100.28,473.663v 6.88051" fill="none" stroke="black"/>
<path d="M116.154,473.663v 6.88051" fill="none" stroke="black"/>
<path d="M132.028,466.783v 13.761" fill="none" stroke="black"/>
<path d="M147.902,473.663v 6.88051" fill="none" stroke="black"/>
<path d="M163.776,473.663v 6.88051" fill="none" stroke="black"/>
<path d="M179.65,473.663v 6.88051" fill="none" stroke="black"/>
<path d="M195.524,466.783v 13.761" fill="none" stroke="black"/>
<path d="M211.398,473.663v 6.88051" fill="none" stroke="black"/>
<path d="M227.272,473.663v 6.88051" fill="none" stroke="black"/>
<path d="M243.146,473.663v 6.88051" fill="none" stroke="black"/>
<path d="M259.02,466.783v 13.761" fill="none" stroke="black"/>
<path d="M274.894,473.663v 6.88051" fill="none" stroke="black"/>
<path d="M290.768,473.663v 6.88051" fill="none" stroke="black"/>
<path d="M306.642,473.663v 6.88051" fill="none" stroke="black"/>
<path d="M322.516,466.783v 13.761" fill="none" stroke="black"/>
<path d="M338.39,473.663v 6.88051" fill="none" stroke="black"/>
<path d="M354.264,473.663v 6.88051" fill="none" stroke="black"/>
<path d="M370.138,473.663v 6.88051" fill="none" stroke="black"/>
<path d="M386.012,466.783v 13.761" fill="none" stroke="black"/>
<path d="M401.886,473.663v 6.88051" fill="none" stroke="black"/>
<path d="M417.76,473.663v 6.88051" fill="none" stroke="black"/>
<path d="M433.634,473.663v 6.88051" fill="none" stroke="black"/>
<path d="M449.508,466.783v 13.761" fill="none" stroke="black"/>
<path d="M465.382,473.663v 6.88051" fill="none" stroke="black"/>
<path d="M481.256,473.663v 6.88051" fill="none" stroke="black"/>
<path d="M497.13,473.663v 6.88051" fill="none" stroke="black"/>
<path d="M513.004,466.783v 13.761" fill="none" stroke="black"/>
<path d="M513.004,466.783v 13.761" fill="none" stroke="black"/>
<path d="M528.878,473.663v 6.88051" fill="none" stroke="black"/>
<path d="M544.752,473.663v 6.88051" fill="none" stroke="black"/>
<text xml:space="preserve" x="63.0708" y="497.722" fill="black" font-size="18.0344" font-family="Helvetica">0</text>
<text xml:space="preserve" x="116.161" y="497.722" fill="black" font-size="18.0344" font-family="Helvetica">200</text>
<text xml:space="preserve" x="179.68" y="497.722" fill="black" font-size="18.0344" font-family="Helvetica">400</text>
<text xml:space="preserve" x="243.199" y="497.722" fill="black" font-size="18.0344" font-family="Helvetica">600</text>
<text xml:space="preserve" x="306.718" y="497.722" fill="black" font-size="18.0344" font-family="Helvetica">800</text>
<text xml:space="preserve" x="365.496" y="497.722" fill="black" font-size="18.0344" font-family="Helvetica">1000</text>
<text xml:space="preserve" x="429.015" y="497.722" fill="black" font-size="18.0344" font-family="Helvetica">1200</text>
<text xml:space="preserve" x="492.534" y="497.722" fill="black" font-size="18.0344" font-family="Helvetica">1400</text>
<text xml:space="preserve" x="492.534" y="517.631" fill="black" font-size="18.0344" font-family="Helvetica">Jet PT</text>
<path d="M68.5315,480.544v -436.858" fill="none" stroke="black"/>
<path d="M75.3346,461.231h -6.80315" fill="none" stroke="black"/>
<path d="M75.3346,442.553h -6.80315" fill="none" stroke="black"/>
<path d="M75.3346,426.374h -6.80315" fill="none" stroke="black"/>
<path d="M75.3346,412.103h -6.80315" fill="none" stroke="black"/>
<path d="M82.1378,399.337h -13.6063" fill="none" stroke="black"/>
<text xml:space="preserve" x="57.3825" y="400.074" fill="black" font-size="12.1896" font-family="Helvetica">2</text>
<text xml:space="preserve" x="50.7462" y="400.074" fill="black" font-size="12.1896" font-family="Times">&#8722;</text>
<text xml:space="preserve" x="30.8373" y="407.658" fill="black" font-size="18.0344" font-family="Helvetica">10</text>
<path d="M75.3346,315.352h -6.80315" fill="none" stroke="black"/>
<path d="M75.3346,266.224h -6.80315" fill="none" stroke="black"/>
<path d="M75.3346,231.367h -6.80315" fill="none" stroke="black"/>
<path d="M75.3346,204.329h -6.80315" fill="none" stroke="black"/>
<path d="M75.3346,182.238h -6.80315" fill="none" stroke="black"/>
<path d="M75.3346,163.561h -6.80315" fill="none" stroke="black"/>
<path d="M75.3346,147.381h -6.80315" fill="none" stroke="black"/>
<path d="M75.3346,133.11h -6.80315" fill="none" stroke="black"/>
<path d="M82.1378,120.344h -13.6063" fill="none" stroke="black"/>
<text xml:space="preserve" x="59.2786" y="120.401" fill="black" font-size="12.1896" font-family="Helvetica">1</text>
<text xml:space="preserve" x="52.6423" y="120.401" fill="black" font-size="12.1896" font-family="Times">&#8722;</text>
<text xml:space="preserve" x="32.7334" y="127.986" fill="black" font-size="18.0344" font-family="Helvetica">10</text>
<g transform="rotate(-90,22.305,113.765)">
<text xml:space="preserve" x="22.305" y="113.765" fill="black" font-size="18.0344" font-family="Helvetica">fake rate</text>
</g></svg>
