<?xml version="1.0" standalone="no"?>
<svg width="567.429" height="546.572" viewBox="0 0 567.429 546.572" xmlns="http://www.w3.org/2000/svg" shape-rendering="crispEdges">
<title>
/home/kuanyu/Documents/CMS/Background_Estimate/fake_rate/top_emu/fake_rate_ntrk.svg
</title>
<desc>
Creator: ROOT Version 6.26/04
CreationDate: Thu Dec  1 21:18:46 2022</desc>
<defs>
</defs>
<rect x="0.5" y="0" width="566.929" height="546.072" fill="white"/>
<rect x="68.5315" y="43.6858" width="476.22" height="436.858" fill="none" stroke="black"/>
<rect x="68.5315" y="43.6858" width="476.22" height="436.858" fill="none" stroke="black"/>
<rect x="68.5315" y="43.6858" width="476.22" height="436.858" fill="none" stroke="black"/>
<rect x="68.5315" y="43.6858" width="476.22" height="436.858" fill="none" stroke="black"/>
<path d="M74.6369,94.452v -3.82823" fill="none" stroke="#ff0000" stroke-width="2"/>
<path d="M74.6369,90.6238v -3.62351" fill="none" stroke="#ff0000" stroke-width="2"/>
<path d="M68.5315,90.6238h 6.10539" fill="none" stroke="#ff0000" stroke-width="2"/>
<path d="M74.6369,90.6238h 6.10539" fill="none" stroke="#ff0000" stroke-width="2"/>
<g stroke="black" stroke-width="1" fill="none">
<line x1="73.6369" y1="90.6238" x2="74.6369" y2="90.6238"/>
</g>
<path d="M86.8477,135.376v -3.60196" fill="none" stroke="#ff0000" stroke-width="2"/>
<path d="M86.8477,131.774v -3.42015" fill="none" stroke="#ff0000" stroke-width="2"/>
<path d="M80.7423,131.774h 6.10539" fill="none" stroke="#ff0000" stroke-width="2"/>
<path d="M86.8477,131.774h 6.10539" fill="none" stroke="#ff0000" stroke-width="2"/>
<g stroke="black" stroke-width="1" fill="none">
<line x1="85.8477" y1="131.774" x2="86.8477" y2="131.774"/>
</g>
<path d="M99.0584,151.733v -2.93925" fill="none" stroke="#ff0000" stroke-width="2"/>
<path d="M99.0584,148.793v -2.81707" fill="none" stroke="#ff0000" stroke-width="2"/>
<path d="M92.9531,148.793h 6.10539" fill="none" stroke="#ff0000" stroke-width="2"/>
<path d="M99.0584,148.793h 6.10539" fill="none" stroke="#ff0000" stroke-width="2"/>
<g stroke="black" stroke-width="1" fill="none">
<line x1="98.0584" y1="148.793" x2="99.0584" y2="148.793"/>
</g>
<path d="M111.269,166.625v -2.4551" fill="none" stroke="#ff0000" stroke-width="2"/>
<path d="M111.269,164.17v -2.36926" fill="none" stroke="#ff0000" stroke-width="2"/>
<path d="M105.164,164.17h 6.10539" fill="none" stroke="#ff0000" stroke-width="2"/>
<path d="M111.269,164.17h 6.10539" fill="none" stroke="#ff0000" stroke-width="2"/>
<g stroke="black" stroke-width="1" fill="none">
<line x1="110.269" y1="164.17" x2="111.269" y2="164.17"/>
</g>
<path d="M123.48,184.726v -2.34449" fill="none" stroke="#ff0000" stroke-width="2"/>
<path d="M123.48,182.382v -2.2661" fill="none" stroke="#ff0000" stroke-width="2"/>
<path d="M117.375,182.382h 6.10539" fill="none" stroke="#ff0000" stroke-width="2"/>
<path d="M123.48,182.382h 6.10539" fill="none" stroke="#ff0000" stroke-width="2"/>
<g stroke="black" stroke-width="1" fill="none">
<line x1="122.48" y1="182.382" x2="123.48" y2="182.382"/>
</g>
<path d="M135.691,198.951v -2.33799" fill="none" stroke="#ff0000" stroke-width="2"/>
<path d="M135.691,196.613v -2.26002" fill="none" stroke="#ff0000" stroke-width="2"/>
<path d="M129.585,196.613h 6.10539" fill="none" stroke="#ff0000" stroke-width="2"/>
<path d="M135.691,196.613h 6.10539" fill="none" stroke="#ff0000" stroke-width="2"/>
<g stroke="black" stroke-width="1" fill="none">
<line x1="134.691" y1="196.613" x2="135.691" y2="196.613"/>
</g>
<path d="M147.902,211.721v -2.5607" fill="none" stroke="#ff0000" stroke-width="2"/>
<path d="M147.902,209.16v -2.46747" fill="none" stroke="#ff0000" stroke-width="2"/>
<path d="M141.796,209.16h 6.10539" fill="none" stroke="#ff0000" stroke-width="2"/>
<path d="M147.902,209.16h 6.10539" fill="none" stroke="#ff0000" stroke-width="2"/>
<g stroke="black" stroke-width="1" fill="none">
<line x1="146.902" y1="209.16" x2="147.902" y2="209.16"/>
</g>
<path d="M160.112,229.142v -2.80312" fill="none" stroke="#ff0000" stroke-width="2"/>
<path d="M160.112,226.339v -2.69178" fill="none" stroke="#ff0000" stroke-width="2"/>
<path d="M154.007,226.339h 6.10539" fill="none" stroke="#ff0000" stroke-width="2"/>
<path d="M160.112,226.339h 6.10539" fill="none" stroke="#ff0000" stroke-width="2"/>
<g stroke="black" stroke-width="1" fill="none">
<line x1="159.112" y1="226.339" x2="160.112" y2="226.339"/>
</g>
<path d="M172.323,252.112v -3.47846" fill="none" stroke="#ff0000" stroke-width="2"/>
<path d="M172.323,248.634v -3.30862" fill="none" stroke="#ff0000" stroke-width="2"/>
<path d="M166.218,248.634h 6.10539" fill="none" stroke="#ff0000" stroke-width="2"/>
<path d="M172.323,248.634h 6.10539" fill="none" stroke="#ff0000" stroke-width="2"/>
<g stroke="black" stroke-width="1" fill="none">
<line x1="171.323" y1="248.634" x2="172.323" y2="248.634"/>
</g>
<path d="M184.534,266.499v -4.06309" fill="none" stroke="#ff0000" stroke-width="2"/>
<path d="M184.534,262.436v -3.83323" fill="none" stroke="#ff0000" stroke-width="2"/>
<path d="M178.429,262.436h 6.10539" fill="none" stroke="#ff0000" stroke-width="2"/>
<path d="M184.534,262.436h 6.10539" fill="none" stroke="#ff0000" stroke-width="2"/>
<g stroke="black" stroke-width="1" fill="none">
<line x1="183.534" y1="262.436" x2="184.534" y2="262.436"/>
</g>
<path d="M196.745,284.838v -5.49578" fill="none" stroke="#ff0000" stroke-width="2"/>
<path d="M196.745,279.342v -5.08338" fill="none" stroke="#ff0000" stroke-width="2"/>
<path d="M190.639,279.342h 6.10539" fill="none" stroke="#ff0000" stroke-width="2"/>
<path d="M196.745,279.342h 6.10539" fill="none" stroke="#ff0000" stroke-width="2"/>
<g stroke="black" stroke-width="1" fill="none">
<line x1="195.745" y1="279.342" x2="196.745" y2="279.342"/>
</g>
<path d="M208.955,312.419v -6.86213" fill="none" stroke="#ff0000" stroke-width="2"/>
<path d="M208.955,305.557v -6.23079" fill="none" stroke="#ff0000" stroke-width="2"/>
<path d="M202.85,305.557h 6.10539" fill="none" stroke="#ff0000" stroke-width="2"/>
<path d="M208.955,305.557h 6.10539" fill="none" stroke="#ff0000" stroke-width="2"/>
<g stroke="black" stroke-width="1" fill="none">
<line x1="207.955" y1="305.557" x2="208.955" y2="305.557"/>
</g>
<path d="M221.166,347.794v -10.2278" fill="none" stroke="#ff0000" stroke-width="2"/>
<path d="M221.166,337.567v -8.88481" fill="none" stroke="#ff0000" stroke-width="2"/>
<path d="M215.061,337.567h 6.10539" fill="none" stroke="#ff0000" stroke-width="2"/>
<path d="M221.166,337.567h 6.10539" fill="none" stroke="#ff0000" stroke-width="2"/>
<g stroke="black" stroke-width="1" fill="none">
<line x1="220.166" y1="337.567" x2="221.166" y2="337.567"/>
</g>
<path d="M233.377,391.022v -15.9459" fill="none" stroke="#ff0000" stroke-width="2"/>
<path d="M233.377,375.076v -12.8996" fill="none" stroke="#ff0000" stroke-width="2"/>
<path d="M227.272,375.076h 6.10539" fill="none" stroke="#ff0000" stroke-width="2"/>
<path d="M233.377,375.076h 6.10539" fill="none" stroke="#ff0000" stroke-width="2"/>
<g stroke="black" stroke-width="1" fill="none">
<line x1="232.377" y1="375.076" x2="233.377" y2="375.076"/>
</g>
<path d="M300.536,433.565v -13.0287" fill="none" stroke="#ff0000" stroke-width="2"/>
<path d="M300.536,420.536v -10.9235" fill="none" stroke="#ff0000" stroke-width="2"/>
<path d="M239.482,420.536h 61.0539" fill="none" stroke="#ff0000" stroke-width="2"/>
<path d="M300.536,420.536h 61.0539" fill="none" stroke="#ff0000" stroke-width="2"/>
<g stroke="black" stroke-width="1" fill="none">
<line x1="299.536" y1="420.536" x2="300.536" y2="420.536"/>
</g>
<path d="M68.5315,480.544h 476.22" fill="none" stroke="black"/>
<path d="M117.375,466.783v 13.761" fill="none" stroke="black"/>
<path d="M129.585,473.663v 6.88051" fill="none" stroke="black"/>
<path d="M141.796,473.663v 6.88051" fill="none" stroke="black"/>
<path d="M154.007,473.663v 6.88051" fill="none" stroke="black"/>
<path d="M166.218,473.663v 6.88051" fill="none" stroke="black"/>
<path d="M178.429,466.783v 13.761" fill="none" stroke="black"/>
<path d="M190.639,473.663v 6.88051" fill="none" stroke="black"/>
<path d="M202.85,473.663v 6.88051" fill="none" stroke="black"/>
<path d="M215.061,473.663v 6.88051" fill="none" stroke="black"/>
<path d="M227.272,473.663v 6.88051" fill="none" stroke="black"/>
<path d="M239.482,466.783v 13.761" fill="none" stroke="black"/>
<path d="M251.693,473.663v 6.88051" fill="none" stroke="black"/>
<path d="M263.904,473.663v 6.88051" fill="none" stroke="black"/>
<path d="M276.115,473.663v 6.88051" fill="none" stroke="black"/>
<path d="M288.326,473.663v 6.88051" fill="none" stroke="black"/>
<path d="M300.536,466.783v 13.761" fill="none" stroke="black"/>
<path d="M312.747,473.663v 6.88051" fill="none" stroke="black"/>
<path d="M324.958,473.663v 6.88051" fill="none" stroke="black"/>
<path d="M337.169,473.663v 6.88051" fill="none" stroke="black"/>
<path d="M349.379,473.663v 6.88051" fill="none" stroke="black"/>
<path d="M361.59,466.783v 13.761" fill="none" stroke="black"/>
<path d="M373.801,473.663v 6.88051" fill="none" stroke="black"/>
<path d="M386.012,473.663v 6.88051" fill="none" stroke="black"/>
<path d="M398.223,473.663v 6.88051" fill="none" stroke="black"/>
<path d="M410.433,473.663v 6.88051" fill="none" stroke="black"/>
<path d="M422.644,466.783v 13.761" fill="none" stroke="black"/>
<path d="M434.855,473.663v 6.88051" fill="none" stroke="black"/>
<path d="M447.066,473.663v 6.88051" fill="none" stroke="black"/>
<path d="M459.276,473.663v 6.88051" fill="none" stroke="black"/>
<path d="M471.487,473.663v 6.88051" fill="none" stroke="black"/>
<path d="M483.698,466.783v 13.761" fill="none" stroke="black"/>
<path d="M495.909,473.663v 6.88051" fill="none" stroke="black"/>
<path d="M508.12,473.663v 6.88051" fill="none" stroke="black"/>
<path d="M520.33,473.663v 6.88051" fill="none" stroke="black"/>
<path d="M532.541,473.663v 6.88051" fill="none" stroke="black"/>
<path d="M544.752,466.783v 13.761" fill="none" stroke="black"/>
<path d="M117.375,466.783v 13.761" fill="none" stroke="black"/>
<path d="M105.164,473.663v 6.88051" fill="none" stroke="black"/>
<path d="M92.9531,473.663v 6.88051" fill="none" stroke="black"/>
<path d="M80.7423,473.663v 6.88051" fill="none" stroke="black"/>
<path d="M68.5315,473.663v 6.88051" fill="none" stroke="black"/>
<text xml:space="preserve" x="112.369" y="497.722" fill="black" font-size="18.0344" font-family="Helvetica">5</text>
<text xml:space="preserve" x="167.355" y="497.722" fill="black" font-size="18.0344" font-family="Helvetica">10</text>
<text xml:space="preserve" x="228.978" y="497.722" fill="black" font-size="18.0344" font-family="Helvetica">15</text>
<text xml:space="preserve" x="289.653" y="497.722" fill="black" font-size="18.0344" font-family="Helvetica">20</text>
<text xml:space="preserve" x="350.328" y="497.722" fill="black" font-size="18.0344" font-family="Helvetica">25</text>
<text xml:space="preserve" x="411.95" y="497.722" fill="black" font-size="18.0344" font-family="Helvetica">30</text>
<text xml:space="preserve" x="472.625" y="497.722" fill="black" font-size="18.0344" font-family="Helvetica">35</text>
<text xml:space="preserve" x="534.248" y="497.722" fill="black" font-size="18.0344" font-family="Helvetica">40</text>
<text xml:space="preserve" x="411.95" y="515.735" fill="black" font-size="18.0344" font-family="Helvetica">Track multiplicity</text>
<path d="M68.5315,480.544v -436.858" fill="none" stroke="black"/>
<path d="M75.3346,472.967h -6.80315" fill="none" stroke="black"/>
<path d="M75.3346,445.486h -6.80315" fill="none" stroke="black"/>
<path d="M75.3346,425.988h -6.80315" fill="none" stroke="black"/>
<path d="M75.3346,410.864h -6.80315" fill="none" stroke="black"/>
<path d="M75.3346,398.507h -6.80315" fill="none" stroke="black"/>
<path d="M75.3346,388.059h -6.80315" fill="none" stroke="black"/>
<path d="M75.3346,379.009h -6.80315" fill="none" stroke="black"/>
<path d="M75.3346,371.026h -6.80315" fill="none" stroke="black"/>
<path d="M82.1378,363.885h -13.6063" fill="none" stroke="black"/>
<text xml:space="preserve" x="57.3825" y="364.048" fill="black" font-size="12.1896" font-family="Helvetica">2</text>
<text xml:space="preserve" x="50.7462" y="364.048" fill="black" font-size="12.1896" font-family="Times">&#8722;</text>
<text xml:space="preserve" x="30.8373" y="371.632" fill="black" font-size="18.0344" font-family="Helvetica">10</text>
<path d="M75.3346,316.906h -6.80315" fill="none" stroke="black"/>
<path d="M75.3346,289.426h -6.80315" fill="none" stroke="black"/>
<path d="M75.3346,269.927h -6.80315" fill="none" stroke="black"/>
<path d="M75.3346,254.804h -6.80315" fill="none" stroke="black"/>
<path d="M75.3346,242.447h -6.80315" fill="none" stroke="black"/>
<path d="M75.3346,231.999h -6.80315" fill="none" stroke="black"/>
<path d="M75.3346,222.949h -6.80315" fill="none" stroke="black"/>
<path d="M75.3346,214.966h -6.80315" fill="none" stroke="black"/>
<path d="M82.1378,207.825h -13.6063" fill="none" stroke="black"/>
<text xml:space="preserve" x="59.2786" y="208.569" fill="black" font-size="12.1896" font-family="Helvetica">1</text>
<text xml:space="preserve" x="52.6423" y="208.569" fill="black" font-size="12.1896" font-family="Times">&#8722;</text>
<text xml:space="preserve" x="32.7334" y="216.154" fill="black" font-size="18.0344" font-family="Helvetica">10</text>
<path d="M75.3346,160.846h -6.80315" fill="none" stroke="black"/>
<path d="M75.3346,133.365h -6.80315" fill="none" stroke="black"/>
<path d="M75.3346,113.867h -6.80315" fill="none" stroke="black"/>
<path d="M75.3346,98.743h -6.80315" fill="none" stroke="black"/>
<path d="M75.3346,86.3859h -6.80315" fill="none" stroke="black"/>
<path d="M75.3346,75.9382h -6.80315" fill="none" stroke="black"/>
<path d="M75.3346,66.8879h -6.80315" fill="none" stroke="black"/>
<path d="M75.3346,58.905h -6.80315" fill="none" stroke="black"/>
<path d="M82.1378,51.7641h -13.6063" fill="none" stroke="black"/>
<text xml:space="preserve" x="57.3825" y="58.7786" fill="black" font-size="18.0344" font-family="Helvetica">1</text>
<g transform="rotate(-90,22.305,113.765)">
<text xml:space="preserve" x="22.305" y="113.765" fill="black" font-size="18.0344" font-family="Helvetica">fake rate</text>
</g></svg>
